<?xml version="1.0" encoding="utf-8"?>
<!-- Generator: Adobe Illustrator 18.0.0, SVG Export Plug-In . SVG Version: 6.00 Build 0)  -->
<!DOCTYPE svg PUBLIC "-//W3C//DTD SVG 1.1//EN" "http://www.w3.org/Graphics/SVG/1.1/DTD/svg11.dtd">
<svg version="1.1" id="Layer_1" xmlns="http://www.w3.org/2000/svg" xmlns:xlink="http://www.w3.org/1999/xlink" x="0px" y="0px"
	 viewBox="0 0 380.5 352.7" style="enable-background:new 0 0 380.5 352.7;" xml:space="preserve">
<g>
	<g>
		<path style="fill:#133B4A;" d="M172.9,171.8c-15,0-27.2-12.1-27.2-27.2s12.2-27.2,27.2-27.2h180.4c15,0,27.2,12.1,27.2,27.2
			s-12.2,27.2-27.2,27.2H172.9z"/>
	</g>
	<g>
		<g>
			<g>
				<path style="fill:#7ED1E9;" d="M267.2,60.9h-9.7c-0.3,0-0.5-0.2-0.5-0.5s0.2-0.5,0.5-0.5h9.7c0.3,0,0.5,0.2,0.5,0.5
					S267.4,60.9,267.2,60.9z"/>
			</g>
			<g>
				<path style="fill:#7ED1E9;" d="M267.2,63.8h-9.7c-0.3,0-0.5-0.2-0.5-0.5s0.2-0.5,0.5-0.5h9.7c0.3,0,0.5,0.2,0.5,0.5
					S267.4,63.8,267.2,63.8z"/>
			</g>
		</g>
		<g>
			<g>
				<path style="fill:#7ED1E9;" d="M264.4,66.9c-0.1,0-0.2,0-0.3-0.1c-0.2-0.2-0.2-0.5,0-0.7l3.8-4.2l-3.8-4.2
					c-0.2-0.2-0.2-0.5,0-0.7c0.2-0.2,0.5-0.2,0.7,0l4.3,4.9l-4.3,4.9C264.7,66.8,264.5,66.9,264.4,66.9z"/>
			</g>
		</g>
	</g>
	<g>
		<g>
			<g>
				<path style="fill:#7ED1E9;" d="M267.2,143.5h-9.7c-0.3,0-0.5-0.2-0.5-0.5s0.2-0.5,0.5-0.5h9.7c0.3,0,0.5,0.2,0.5,0.5
					S267.4,143.5,267.2,143.5z"/>
			</g>
			<g>
				<path style="fill:#7ED1E9;" d="M267.2,146.4h-9.7c-0.3,0-0.5-0.2-0.5-0.5s0.2-0.5,0.5-0.5h9.7c0.3,0,0.5,0.2,0.5,0.5
					S267.4,146.4,267.2,146.4z"/>
			</g>
		</g>
		<g>
			<g>
				<path style="fill:#7ED1E9;" d="M264.4,149.5c-0.1,0-0.2,0-0.3-0.1c-0.2-0.2-0.2-0.5,0-0.7l3.8-4.2l-3.8-4.2
					c-0.2-0.2-0.2-0.5,0-0.7c0.2-0.2,0.5-0.2,0.7,0l4.3,4.9l-4.3,4.9C264.7,149.5,264.5,149.5,264.4,149.5z"/>
			</g>
		</g>
	</g>
	<g>
		<path style="fill:#052A39;" d="M222.5,72C222.5,72,222.5,72,222.5,72V51.7v0v-0.1h0c0-1.8-1.2-3.6-3.6-5c-4.9-2.8-12.7-2.8-17.6,0
			c-2.4,1.4-3.6,3.2-3.6,5h0v20.4h0c0,1.8,1.2,3.7,3.6,5.1c4.9,2.8,12.7,2.8,17.6,0C221.3,75.7,222.5,73.9,222.5,72L222.5,72
			L222.5,72z"/>
	</g>
	<g>
		<path style="fill:#2C5D6E;" d="M218.3,47.2c4.6,2.6,4.6,6.8,0,9.4c-4.6,2.6-11.9,2.6-16.5,0c-4.6-2.6-4.6-6.8,0-9.4
			C206.4,44.6,213.8,44.6,218.3,47.2z"/>
	</g>
	<g>
		<line style="fill:#FFFFFF;" x1="218" y1="67.8" x2="218" y2="76.9"/>
		<path style="fill:#7ED1E9;" d="M218,77.7c-0.4,0-0.8-0.4-0.8-0.8v-9.1c0-0.4,0.4-0.8,0.8-0.8s0.8,0.4,0.8,0.8v9.1
			C218.8,77.3,218.5,77.7,218,77.7z"/>
	</g>
	<g>
		<g>
			<polygon style="fill:#052A39;" points="192.7,133.9 210.1,123.7 227.5,133.9 227.5,154.2 210.1,164.3 192.7,154.2 			"/>
			<path style="fill:#7ED1E9;" d="M210.1,165.1c-0.1,0-0.3,0-0.4-0.1l-17.4-10.1c-0.2-0.1-0.4-0.4-0.4-0.7v-20.3
				c0-0.3,0.2-0.5,0.4-0.7l17.4-10.1c0.2-0.1,0.6-0.1,0.8,0l17.4,10.1c0.2,0.1,0.4,0.4,0.4,0.7v20.3c0,0.3-0.2,0.5-0.4,0.7
				L210.5,165C210.4,165.1,210.2,165.1,210.1,165.1z M193.5,153.7l16.6,9.7l16.6-9.7v-19.4l-16.6-9.7l-16.6,9.7V153.7z"/>
		</g>
		<g>
			<path style="fill:#2C5D6E;" d="M226.7,134.3l-16.6,9.6l-16.6-9.6l16.6-9.7L226.7,134.3z"/>
		</g>
		<g>
			<line style="fill:#FFFFFF;" x1="210.1" y1="156.8" x2="210.1" y2="164.3"/>
			<path style="fill:#7ED1E9;" d="M210.1,165.1c-0.4,0-0.8-0.4-0.8-0.8v-7.5c0-0.4,0.4-0.8,0.8-0.8s0.8,0.4,0.8,0.8v7.5
				C210.9,164.8,210.5,165.1,210.1,165.1z"/>
		</g>
	</g>
	<g>
		<g>
			<g>
				<polygon style="fill:#052A39;" points="299.2,149.1 316.6,139 334,149.1 334,169.4 316.6,179.6 299.2,169.4 				"/>
				<path style="fill:#7ED1E9;" d="M316.6,180.4c-0.1,0-0.3,0-0.4-0.1l-17.4-10.1c-0.2-0.1-0.4-0.4-0.4-0.7v-20.3
					c0-0.3,0.2-0.5,0.4-0.7l17.4-10.1c0.2-0.1,0.6-0.1,0.8,0l17.4,10.1c0.2,0.1,0.4,0.4,0.4,0.7v20.3c0,0.3-0.2,0.5-0.4,0.7
					L317,180.3C316.9,180.3,316.7,180.4,316.6,180.4z M300,169l16.6,9.7l16.6-9.7v-19.4l-16.6-9.7l-16.6,9.7V169z"/>
			</g>
			<g>
				<path style="fill:#2C5D6E;" d="M333.2,149.5l-16.6,9.6l-16.6-9.6l16.6-9.7L333.2,149.5z"/>
			</g>
			<g>
				<line style="fill:#FFFFFF;" x1="316.6" y1="172" x2="316.6" y2="179.6"/>
				<path style="fill:#7ED1E9;" d="M316.6,180.4c-0.4,0-0.8-0.4-0.8-0.8V172c0-0.4,0.4-0.8,0.8-0.8s0.8,0.4,0.8,0.8v7.5
					C317.4,180,317,180.4,316.6,180.4z"/>
			</g>
		</g>
		<g>
			<g>
				<polygon style="fill:#052A39;" points="299.2,124.5 316.6,114.4 333.9,144.7 316.6,154.8 299.2,144.6 				"/>
				<path style="fill:#7ED1E9;" d="M316.6,155.6c-0.1,0-0.3,0-0.4-0.1l-17.3-10.3c-0.2-0.1-0.4-0.4-0.4-0.7v-20.1
					c0-0.3,0.2-0.5,0.4-0.7l17.3-10.1c0.2-0.1,0.4-0.1,0.6-0.1c0.2,0.1,0.4,0.2,0.5,0.4l17.3,30.3c0.2,0.4,0.1,0.9-0.3,1.1
					L317,155.5C316.8,155.6,316.7,155.6,316.6,155.6z M300,144.1l16.5,9.8l16.2-9.5l-16.5-29l-16.2,9.5V144.1z"/>
			</g>
			<g>
				<g>
					<polygon style="fill:#2C5D6E;" points="316.6,153.9 333.2,144.3 316.6,115.2 299.9,124.9 					"/>
				</g>
				<g>
					<path style="fill:#7ED1E9;" d="M316.6,155.6c-0.1,0-0.3,0-0.4-0.1l-17.3-10.3c-0.2-0.1-0.4-0.4-0.4-0.7v-20.1
						c0-0.3,0.2-0.5,0.4-0.7l17.3-10.1c0.2-0.1,0.4-0.1,0.6-0.1c0.2,0.1,0.4,0.2,0.5,0.4l17.3,30.3c0.2,0.4,0.1,0.9-0.3,1.1
						L317,155.5C316.8,155.6,316.7,155.6,316.6,155.6z M300,144.1l16.5,9.8l16.2-9.5l-16.5-29l-16.2,9.5V144.1z"/>
				</g>
				<g>
					
						<path style="fill:none;stroke:#4B4F64;stroke-width:1.49;stroke-linecap:round;stroke-linejoin:round;stroke-miterlimit:10;" d="
						M307.9,129.5"/>
				</g>
			</g>
		</g>
		<g>
			<g>
				<polygon style="fill:#052A39;" points="299.7,118.6 317,108.5 334.4,118.6 334.4,139.1 317,149.1 				"/>
			</g>
		</g>
		<g>
			<g>
				<path style="fill:#2C5D6E;" d="M334.4,118.6l-17.4,10l-17.4-10l17.4-10.1L334.4,118.6z"/>
			</g>
			<g>
				<g>
					<path style="fill:#7ED1E9;" d="M317,149.9c-0.1,0-0.1,0-0.2,0c-0.2-0.1-0.4-0.2-0.5-0.4L299,119c-0.2-0.4-0.1-0.9,0.3-1.1
						l17.3-10.1c0.2-0.1,0.6-0.1,0.8,0l17.3,10.1c0.2,0.1,0.4,0.4,0.4,0.7v20.4c0,0.3-0.2,0.5-0.4,0.7l-17.3,10.1
						C317.3,149.9,317.2,149.9,317,149.9z M300.8,118.9l16.5,29.1l16.2-9.4v-19.5l-16.5-9.6L300.8,118.9z"/>
				</g>
			</g>
			<g>
				<line style="fill:#FFFFFF;" x1="317" y1="129.4" x2="317" y2="133.4"/>
				<path style="fill:#7ED1E9;" d="M317,134.2c-0.4,0-0.8-0.4-0.8-0.8v-4c0-0.4,0.4-0.8,0.8-0.8s0.8,0.4,0.8,0.8v4
					C317.8,133.9,317.5,134.2,317,134.2z"/>
			</g>
			<g>
				<line style="fill:#FFFFFF;" x1="317" y1="141.6" x2="317" y2="149.1"/>
				<path style="fill:#7ED1E9;" d="M317,149.9c-0.4,0-0.8-0.4-0.8-0.8v-7.5c0-0.4,0.4-0.8,0.8-0.8s0.8,0.4,0.8,0.8v7.5
					C317.8,149.6,317.5,149.9,317,149.9z"/>
			</g>
		</g>
	</g>
	<g>
		<path style="fill:#7ED1E9;" d="M210.1,80c-3.5,0-6.7-0.8-9.2-2.2c-2.6-1.5-4-3.5-4-5.7l0-20.4c0,0,0-0.1,0-0.1
			c0.1-2.1,1.5-4.1,4-5.6c2.5-1.4,5.7-2.2,9.2-2.2s6.7,0.8,9.2,2.2c2.5,1.5,4,3.4,4,5.6c0,0,0,0.1,0,0.1V72c0,2.2-1.5,4.3-4,5.8
			C216.8,79.2,213.5,80,210.1,80z M198.4,51.7v20.3c0,1.6,1.2,3.2,3.2,4.4c2.2,1.3,5.2,2,8.4,2s6.2-0.7,8.4-2
			c2.1-1.2,3.2-2.8,3.2-4.4l0-20.3c0,0,0,0,0-0.1c0-1.6-1.2-3.1-3.2-4.3c-2.2-1.3-5.2-2-8.4-2s-6.2,0.7-8.4,2
			C199.6,48.5,198.5,50.1,198.4,51.7C198.4,51.7,198.4,51.7,198.4,51.7z"/>
	</g>
	<g>
		<path style="fill:#518EA1;" d="M168.6,64.9c0.1,0,0.3,0.1,0.5,0.1c0.2,0,0.3,0,0.4,0c0.2,0,0.4,0,0.6-0.1s0.4-0.2,0.5-0.3
			s0.3-0.3,0.4-0.5c0.1-0.2,0.1-0.4,0.1-0.7c0-0.2,0-0.3-0.1-0.5s-0.2-0.3-0.3-0.5s-0.3-0.3-0.5-0.4c-0.2-0.1-0.5-0.1-0.8-0.1H169
			v-0.9h0.5c0.3,0,0.5,0,0.7-0.1s0.4-0.2,0.5-0.3s0.2-0.3,0.3-0.4c0.1-0.2,0.1-0.4,0.1-0.5c0-0.4-0.1-0.7-0.4-1
			c-0.3-0.2-0.7-0.4-1.1-0.4c-0.4,0-0.8,0.1-1.1,0.4c-0.3,0.3-0.4,0.7-0.4,1.1v5.9h-1v-5.9c0-0.4,0.1-0.7,0.2-1
			c0.1-0.3,0.3-0.6,0.5-0.8c0.2-0.2,0.5-0.4,0.8-0.5c0.3-0.1,0.6-0.2,1-0.2c0.4,0,0.7,0.1,1,0.2c0.3,0.1,0.6,0.3,0.8,0.5
			c0.2,0.2,0.4,0.4,0.5,0.7c0.1,0.3,0.2,0.6,0.2,0.9c0,0.5-0.1,0.9-0.4,1.2c-0.2,0.3-0.6,0.5-1,0.7c0.4,0.1,0.8,0.4,1.1,0.7
			c0.3,0.3,0.5,0.8,0.5,1.2c0,0.4-0.1,0.8-0.2,1.1c-0.2,0.3-0.4,0.6-0.6,0.8c-0.3,0.2-0.5,0.4-0.9,0.5c-0.3,0.1-0.7,0.2-1,0.2
			c-0.2,0-0.4,0-0.5,0s-0.3-0.1-0.4-0.1V64.9z"/>
		<path style="fill:#518EA1;" d="M173.9,57.9c0.2,0,0.4,0,0.5,0c0.1,0,0.2-0.1,0.3-0.1c0.1-0.1,0.1-0.1,0.2-0.2c0-0.1,0-0.2,0-0.4
			h0.6v4.8h-0.6v-3.5h-1V57.9z"/>
	</g>
	<g>
		<path style="fill:#518EA1;" d="M167.9,148c0.1,0,0.3,0.1,0.5,0.1c0.2,0,0.3,0,0.4,0c0.2,0,0.4,0,0.6-0.1s0.4-0.2,0.5-0.3
			s0.3-0.3,0.4-0.5c0.1-0.2,0.1-0.4,0.1-0.7c0-0.2,0-0.3-0.1-0.5s-0.2-0.3-0.3-0.5s-0.3-0.3-0.5-0.4c-0.2-0.1-0.5-0.1-0.8-0.1h-0.5
			v-0.9h0.5c0.3,0,0.5,0,0.7-0.1s0.4-0.2,0.5-0.3s0.2-0.3,0.3-0.4c0.1-0.2,0.1-0.4,0.1-0.5c0-0.4-0.1-0.7-0.4-1
			c-0.3-0.2-0.7-0.4-1.1-0.4c-0.4,0-0.8,0.1-1.1,0.4c-0.3,0.3-0.4,0.7-0.4,1.1v5.9h-1V143c0-0.4,0.1-0.7,0.2-1
			c0.1-0.3,0.3-0.6,0.5-0.8c0.2-0.2,0.5-0.4,0.8-0.5c0.3-0.1,0.6-0.2,1-0.2c0.4,0,0.7,0.1,1,0.2c0.3,0.1,0.6,0.3,0.8,0.5
			c0.2,0.2,0.4,0.4,0.5,0.7c0.1,0.3,0.2,0.6,0.2,0.9c0,0.5-0.1,0.9-0.4,1.2c-0.2,0.3-0.6,0.5-1,0.7c0.4,0.1,0.8,0.4,1.1,0.7
			c0.3,0.3,0.5,0.8,0.5,1.2c0,0.4-0.1,0.8-0.2,1.1c-0.2,0.3-0.4,0.6-0.6,0.8c-0.3,0.2-0.5,0.4-0.9,0.5c-0.3,0.1-0.7,0.2-1,0.2
			c-0.2,0-0.4,0-0.5,0s-0.3-0.1-0.4-0.1V148z"/>
		<path style="fill:#518EA1;" d="M173.8,143.5c0,0.2,0,0.3,0.1,0.4c0.1,0.1,0.1,0.2,0.2,0.3s0.2,0.2,0.3,0.2c0.1,0,0.3,0.1,0.4,0.1
			c0.1,0,0.3,0,0.4-0.1c0.1,0,0.2-0.1,0.3-0.2c0.1-0.1,0.1-0.2,0.2-0.3c0-0.1,0.1-0.2,0.1-0.3c0-0.3-0.1-0.5-0.2-0.6
			c-0.2-0.2-0.4-0.2-0.7-0.2h-0.3v-0.6h0.3c0.3,0,0.5-0.1,0.7-0.2s0.2-0.3,0.2-0.6c0-0.2-0.1-0.4-0.2-0.5c-0.2-0.1-0.4-0.2-0.6-0.2
			c-0.3,0-0.5,0.1-0.7,0.2s-0.2,0.4-0.2,0.6h-0.6c0-0.2,0-0.4,0.1-0.6c0.1-0.2,0.2-0.3,0.3-0.5s0.3-0.2,0.5-0.3
			c0.2-0.1,0.4-0.1,0.6-0.1c0.2,0,0.4,0,0.6,0.1s0.3,0.1,0.5,0.3s0.2,0.2,0.3,0.4s0.1,0.3,0.1,0.5c0,0.3-0.1,0.5-0.2,0.7
			c-0.1,0.2-0.3,0.3-0.5,0.4c0.3,0.1,0.5,0.2,0.6,0.4c0.2,0.2,0.2,0.4,0.2,0.8c0,0.2,0,0.4-0.1,0.6c-0.1,0.2-0.2,0.3-0.3,0.4
			c-0.1,0.1-0.3,0.2-0.5,0.3c-0.2,0.1-0.4,0.1-0.6,0.1c-0.2,0-0.4,0-0.6-0.1c-0.2-0.1-0.4-0.2-0.5-0.3s-0.3-0.3-0.4-0.5
			c-0.1-0.2-0.1-0.4-0.1-0.7H173.8z"/>
	</g>
	<g>
		<path style="fill:#518EA1;" d="M358.2,60.5v5.3h-1v-0.9c-0.2,0.3-0.4,0.6-0.8,0.8c-0.3,0.2-0.7,0.3-1.1,0.3
			c-0.4,0-0.8-0.1-1.1-0.2c-0.3-0.1-0.6-0.4-0.9-0.6c-0.2-0.3-0.4-0.6-0.6-0.9c-0.1-0.3-0.2-0.7-0.2-1.1s0.1-0.7,0.2-1.1
			c0.1-0.3,0.3-0.6,0.6-0.9c0.2-0.3,0.5-0.5,0.9-0.6c0.3-0.1,0.7-0.2,1.1-0.2c0.4,0,0.8,0.1,1.1,0.3c0.3,0.2,0.6,0.4,0.8,0.8v-0.9
			H358.2z M355.4,65c0.3,0,0.5-0.1,0.7-0.2s0.4-0.2,0.6-0.4s0.3-0.4,0.4-0.6c0.1-0.2,0.1-0.5,0.1-0.7s0-0.5-0.1-0.7
			c-0.1-0.2-0.2-0.4-0.4-0.6s-0.3-0.3-0.6-0.4c-0.2-0.1-0.5-0.2-0.7-0.2c-0.3,0-0.5,0.1-0.7,0.2c-0.2,0.1-0.4,0.2-0.6,0.4
			s-0.3,0.4-0.4,0.6c-0.1,0.2-0.1,0.5-0.1,0.7s0,0.5,0.1,0.7c0.1,0.2,0.2,0.4,0.4,0.6s0.3,0.3,0.6,0.4C354.9,65,355.1,65,355.4,65z"
			/>
	</g>
	<g>
		<path style="fill:#518EA1;" d="M352.5,151.8v-1l4.2-5.2l-4.2-5.1v-0.9h6.1v1h-4.7l4.2,5l-4.2,5.2h4.7v1H352.5z"/>
	</g>
	<g>
		<g>
			<g>
				<path style="fill:#7ED1E9;" d="M104.3,12.6c-0.3,0-0.5-0.2-0.5-0.5V0.5c0-0.3,0.2-0.5,0.5-0.5s0.5,0.2,0.5,0.5v11.7
					C104.8,12.4,104.6,12.6,104.3,12.6z"/>
			</g>
			<g>
				<path style="fill:#7ED1E9;" d="M104.3,12.8l-4.9-5c-0.2-0.2-0.2-0.5,0-0.7c0.2-0.2,0.5-0.2,0.7,0l4.2,4.3l4.2-4.3
					c0.2-0.2,0.5-0.2,0.7,0c0.2,0.2,0.2,0.5,0,0.7L104.3,12.8z"/>
			</g>
		</g>
		<g>
			<g>
				<path style="fill:#7ED1E9;" d="M104.3,49c-0.3,0-0.5-0.2-0.5-0.5V36.8c0-0.3,0.2-0.5,0.5-0.5s0.5,0.2,0.5,0.5v11.7
					C104.8,48.8,104.6,49,104.3,49z"/>
			</g>
			<g>
				<path style="fill:#7ED1E9;" d="M104.3,49.2l-4.9-5c-0.2-0.2-0.2-0.5,0-0.7c0.2-0.2,0.5-0.2,0.7,0l4.2,4.3l4.2-4.3
					c0.2-0.2,0.5-0.2,0.7,0c0.2,0.2,0.2,0.5,0,0.7L104.3,49.2z"/>
			</g>
		</g>
		<g>
			<g>
				<path style="fill:#7ED1E9;" d="M104.3,85.3c-0.3,0-0.5-0.2-0.5-0.5V73.1c0-0.3,0.2-0.5,0.5-0.5s0.5,0.2,0.5,0.5v11.7
					C104.8,85.1,104.6,85.3,104.3,85.3z"/>
			</g>
			<g>
				<path style="fill:#7ED1E9;" d="M104.3,85.5l-4.9-5c-0.2-0.2-0.2-0.5,0-0.7c0.2-0.2,0.5-0.2,0.7,0l4.2,4.3l4.2-4.3
					c0.2-0.2,0.5-0.2,0.7,0c0.2,0.2,0.2,0.5,0,0.7L104.3,85.5z"/>
			</g>
		</g>
	</g>
	<g>
		<path style="fill:#7ED1E9;" d="M46.4,22.1c0,0.6,0.2,1.1,0.5,1.4c0.3,0.3,0.8,0.5,1.3,0.5c0.2,0,0.4,0,0.6-0.1
			c0.2-0.1,0.3-0.2,0.5-0.3c0.1-0.1,0.2-0.3,0.3-0.4c0.1-0.2,0.1-0.4,0.1-0.6c0-0.2,0-0.4-0.1-0.6c-0.1-0.2-0.2-0.3-0.4-0.4
			c-0.1-0.1-0.3-0.2-0.5-0.3c-0.2-0.1-0.3-0.1-0.5-0.2c-0.4-0.1-0.8-0.3-1.2-0.4s-0.7-0.3-1-0.5c-0.3-0.2-0.5-0.5-0.6-0.8
			c-0.2-0.3-0.2-0.7-0.2-1.1c0-0.4,0.1-0.7,0.2-1c0.2-0.3,0.4-0.6,0.6-0.8c0.3-0.2,0.6-0.4,0.9-0.5c0.3-0.1,0.7-0.2,1.1-0.2
			c0.4,0,0.8,0.1,1.1,0.2c0.4,0.1,0.7,0.3,0.9,0.6s0.5,0.5,0.6,0.9c0.1,0.3,0.2,0.7,0.2,1.2h-1.5c0-0.4-0.1-0.8-0.4-1.1
			c-0.2-0.3-0.6-0.4-1-0.4c-0.4,0-0.7,0.1-1,0.3c-0.3,0.2-0.4,0.5-0.4,0.9c0,0.2,0,0.3,0.1,0.5c0.1,0.1,0.2,0.3,0.3,0.4
			c0.1,0.1,0.3,0.2,0.4,0.3c0.2,0.1,0.3,0.1,0.5,0.2c0.4,0.1,0.7,0.3,1.1,0.4c0.4,0.1,0.7,0.3,1,0.5c0.3,0.2,0.5,0.5,0.7,0.8
			c0.2,0.3,0.3,0.7,0.3,1.1c0,0.5-0.1,0.9-0.2,1.2c-0.2,0.4-0.4,0.7-0.7,0.9c-0.3,0.2-0.6,0.4-1,0.5c-0.4,0.1-0.8,0.2-1.2,0.2
			c-0.4,0-0.8-0.1-1.2-0.2c-0.4-0.1-0.7-0.4-1-0.6c-0.3-0.3-0.5-0.6-0.7-1s-0.3-0.8-0.3-1.4H46.4z"/>
		<path style="fill:#7ED1E9;" d="M56.4,25.1c-0.1,0-0.3,0-0.5,0.1s-0.4,0-0.6,0c-0.2,0-0.4,0-0.6,0s-0.4-0.1-0.6-0.3
			s-0.4-0.4-0.5-0.6c-0.1-0.3-0.2-0.7-0.2-1.2v-2.8h-1V19h1v-1.8h1.4V19h1.4v1.2h-1.4v2.5c0,0.3,0,0.5,0.1,0.6s0.1,0.3,0.2,0.4
			c0.1,0.1,0.2,0.1,0.3,0.2s0.2,0,0.4,0c0.1,0,0.2,0,0.4,0s0.3,0,0.3,0V25.1z"/>
		<path style="fill:#7ED1E9;" d="M58.9,22.5c0,0.2,0.1,0.4,0.1,0.6s0.2,0.4,0.3,0.5c0.1,0.1,0.3,0.3,0.5,0.3
			c0.2,0.1,0.4,0.1,0.7,0.1c0.4,0,0.7-0.1,0.9-0.2c0.2-0.2,0.3-0.3,0.4-0.6h1.4c0,0.3-0.1,0.5-0.3,0.7c-0.1,0.2-0.3,0.4-0.6,0.6
			s-0.5,0.3-0.8,0.4c-0.3,0.1-0.7,0.2-1.1,0.2c-0.5,0-1-0.1-1.3-0.2c-0.4-0.2-0.7-0.4-0.9-0.7c-0.3-0.3-0.4-0.6-0.6-1
			c-0.1-0.4-0.2-0.8-0.2-1.2c0-0.4,0.1-0.9,0.2-1.3c0.1-0.4,0.3-0.7,0.6-1c0.3-0.3,0.6-0.5,0.9-0.7c0.4-0.2,0.8-0.2,1.3-0.2
			c0.4,0,0.8,0.1,1.1,0.2s0.6,0.3,0.9,0.6c0.3,0.2,0.5,0.5,0.6,0.9s0.2,0.7,0.2,1.1c0,0.1,0,0.2,0,0.4c0,0.1,0,0.3-0.1,0.5H58.9z
			 M60.4,19.9c-0.4,0-0.8,0.1-1.1,0.4c-0.3,0.3-0.4,0.6-0.4,1.1h3c0-0.5-0.1-0.8-0.4-1.1S60.8,19.9,60.4,19.9z"/>
		<path style="fill:#7ED1E9;" d="M66.5,19.9c0.2-0.3,0.5-0.5,0.8-0.7c0.3-0.2,0.7-0.3,1.1-0.3c0.5,0,0.9,0.1,1.3,0.3
			c0.4,0.2,0.7,0.4,1,0.7c0.3,0.3,0.5,0.6,0.6,1c0.2,0.4,0.2,0.8,0.2,1.2c0,0.4-0.1,0.8-0.2,1.2s-0.4,0.7-0.6,1
			c-0.3,0.3-0.6,0.5-1,0.7c-0.4,0.2-0.8,0.3-1.3,0.3c-0.4,0-0.7-0.1-1.1-0.3c-0.4-0.2-0.6-0.4-0.8-0.7v3.9h-1.4V19h1.4V19.9z
			 M68.3,20.1c-0.3,0-0.5,0.1-0.7,0.2c-0.2,0.1-0.4,0.2-0.6,0.4c-0.2,0.2-0.3,0.4-0.4,0.6c-0.1,0.2-0.1,0.5-0.1,0.7s0,0.5,0.1,0.7
			s0.2,0.4,0.4,0.6c0.2,0.2,0.3,0.3,0.6,0.4c0.2,0.1,0.5,0.2,0.7,0.2c0.3,0,0.5-0.1,0.7-0.2c0.2-0.1,0.4-0.2,0.6-0.4
			c0.2-0.2,0.3-0.4,0.4-0.6s0.1-0.5,0.1-0.7s0-0.5-0.1-0.7c-0.1-0.2-0.2-0.4-0.4-0.6c-0.2-0.2-0.3-0.3-0.6-0.4
			C68.8,20.2,68.6,20.1,68.3,20.1z"/>
		<path style="fill:#7ED1E9;" d="M46.3,39.5c0,0.3,0,0.6,0.1,0.8c0.1,0.2,0.2,0.4,0.4,0.6c0.2,0.2,0.3,0.3,0.6,0.4s0.4,0.1,0.7,0.1
			c0.2,0,0.4,0,0.6-0.1c0.2-0.1,0.3-0.2,0.5-0.3c0.1-0.1,0.2-0.3,0.3-0.5c0.1-0.2,0.1-0.4,0.1-0.5c0-0.2,0-0.4-0.1-0.6
			c-0.1-0.2-0.1-0.3-0.3-0.5c-0.1-0.1-0.3-0.2-0.5-0.3c-0.2-0.1-0.5-0.1-0.8-0.1h-0.6v-1.3h0.6c0.5,0,0.9-0.1,1.1-0.4s0.3-0.6,0.3-1
			s-0.1-0.7-0.4-0.9s-0.5-0.3-0.9-0.3c-0.5,0-0.9,0.1-1.1,0.4s-0.3,0.6-0.3,1.1h-1.5c0-0.4,0.1-0.8,0.2-1.2c0.1-0.3,0.3-0.6,0.6-0.9
			s0.5-0.4,0.9-0.6c0.3-0.1,0.7-0.2,1.1-0.2c0.4,0,0.8,0.1,1.1,0.2c0.4,0.1,0.7,0.3,0.9,0.5s0.5,0.5,0.6,0.8c0.2,0.3,0.2,0.6,0.2,1
			c0,0.5-0.1,0.9-0.3,1.3s-0.5,0.6-0.9,0.7c0.4,0.2,0.8,0.4,1,0.8S51,39.4,51,40c0,0.4-0.1,0.8-0.2,1.1c-0.2,0.3-0.4,0.6-0.7,0.9
			c-0.3,0.2-0.6,0.4-1,0.6c-0.4,0.1-0.8,0.2-1.2,0.2c-0.4,0-0.8-0.1-1.2-0.2s-0.7-0.4-1-0.6s-0.5-0.6-0.7-1
			c-0.2-0.4-0.3-0.8-0.3-1.4H46.3z"/>
		<path style="fill:#7ED1E9;" d="M52.8,41.6c0-0.3,0.1-0.5,0.3-0.7s0.4-0.3,0.7-0.3c0.3,0,0.5,0.1,0.7,0.3c0.2,0.2,0.3,0.5,0.3,0.7
			c0,0.3-0.1,0.5-0.3,0.7c-0.2,0.2-0.5,0.3-0.7,0.3c-0.3,0-0.5-0.1-0.7-0.3C52.9,42.1,52.8,41.9,52.8,41.6z"/>
	</g>
	<g>
		<g>
			<g>
				<polygon style="fill:#052A39;" points="316.8,87.1 299.9,65.8 316.8,56.1 333.7,65.8 				"/>
				<path style="fill:#7ED1E9;" d="M316.8,87.9c-0.2,0-0.5-0.1-0.6-0.3l-16.9-21.3c-0.1-0.2-0.2-0.4-0.2-0.6s0.2-0.4,0.4-0.5
					l16.9-9.8c0.2-0.1,0.6-0.1,0.8,0l16.9,9.8c0.2,0.1,0.3,0.3,0.4,0.5s0,0.5-0.2,0.6l-16.9,21.3C317.3,87.8,317,87.9,316.8,87.9z
					 M301.1,66l15.7,19.8L332.5,66L316.8,57L301.1,66z"/>
			</g>
		</g>
	</g>
	<g>
		<g>
			<path style="fill:#2C5D6E;" d="M333.4,65.7l-16.6,9.6l-16.6-9.6l16.6-9.7L333.4,65.7z"/>
		</g>
		<g>
			<g>
				<g>
					<path style="fill:#7ED1E9;" d="M316.8,87.9c-0.2,0-0.5-0.1-0.6-0.3l-16.9-21.3c-0.1-0.2-0.2-0.4-0.2-0.7c0-0.2,0.2-0.4,0.4-0.5
						l16.9-9.8c0.2-0.1,0.6-0.1,0.8,0l16.9,9.8c0.2,0.1,0.3,0.3,0.4,0.5c0,0.2,0,0.5-0.2,0.7l-16.9,21.3
						C317.3,87.8,317,87.9,316.8,87.9z M301.1,66l15.7,19.8L332.5,66L316.8,57L301.1,66z"/>
				</g>
			</g>
		</g>
		<g>
			<g>
				<polygon style="fill:#052A39;" points="333.6,58.7 316.8,68.4 299.9,58.7 316.8,39.1 				"/>
			</g>
			<g>
				<g>
					<polygon style="fill:#2C5D6E;" points="316.8,68.4 316.8,39.1 333.6,58.7 					"/>
				</g>
				<g>
					<path style="fill:#7ED1E9;" d="M316.8,69.2c-0.1,0-0.3,0-0.4-0.1l-16.9-9.7c-0.2-0.1-0.4-0.3-0.4-0.6c0-0.2,0-0.5,0.2-0.7
						l16.9-19.6c0.2-0.2,0.4-0.3,0.6-0.3l0,0c0.2,0,0.5,0.1,0.6,0.3l16.9,19.6c0.2,0.2,0.2,0.4,0.2,0.7c0,0.2-0.2,0.4-0.4,0.6
						l-16.9,9.7C317,69.2,316.9,69.2,316.8,69.2z M301.1,58.5l15.6,9l15.6-9l-15.6-18.1L301.1,58.5z"/>
				</g>
			</g>
		</g>
		<g>
			<path style="fill:#7ED1E9;" d="M316.8,77.8c-0.4,0-0.8-0.4-0.8-0.8v-1.8c0-0.4,0.4-0.8,0.8-0.8s0.8,0.4,0.8,0.8V77
				C317.6,77.4,317.2,77.8,316.8,77.8z"/>
		</g>
		<g>
			<path style="fill:#7ED1E9;" d="M316.8,86.7c-0.4,0-0.8-0.4-0.8-0.8v-4.4c0-0.4,0.4-0.8,0.8-0.8s0.8,0.4,0.8,0.8v4.4
				C317.6,86.3,317.2,86.7,316.8,86.7z"/>
		</g>
	</g>
</g>
</svg>
