<?xml version="1.0" encoding="utf-8"?>
<!-- Generator: Adobe Illustrator 18.0.0, SVG Export Plug-In . SVG Version: 6.00 Build 0)  -->
<!DOCTYPE svg PUBLIC "-//W3C//DTD SVG 1.1//EN" "http://www.w3.org/Graphics/SVG/1.1/DTD/svg11.dtd">
<svg version="1.1" id="Layer_1" xmlns="http://www.w3.org/2000/svg" xmlns:xlink="http://www.w3.org/1999/xlink" x="0px" y="0px"
	 viewBox="0 0 380.5 352.7" style="enable-background:new 0 0 380.5 352.7;" xml:space="preserve">
<g>
	<g>
		<g>
			<polyline style="fill:#1F4C5C;" points="83.1,177.1 83.1,130.6 114.3,130.6 114.3,177.1 			"/>
			<path style="fill:#7ED1E9;" d="M114.3,178c-0.5,0-0.9-0.4-0.9-0.8v-45.7H84v45.7c0,0.5-0.4,0.8-0.9,0.8s-0.9-0.4-0.9-0.8v-46.6
				c0-0.5,0.4-0.9,0.9-0.9h31.2c0.5,0,0.9,0.4,0.9,0.9v46.6C115.1,177.6,114.8,178,114.3,178z"/>
		</g>
	</g>
	<g>
		<polyline style="fill:#1F4C5C;" points="123.7,177.1 123.7,117.6 154.9,117.6 154.9,177.1 		"/>
		<path style="fill:#7ED1E9;" d="M154.9,178c-0.5,0-0.9-0.4-0.9-0.8v-58.7h-29.5v58.7c0,0.5-0.4,0.8-0.9,0.8s-0.9-0.4-0.9-0.8v-59.5
			c0-0.5,0.4-0.9,0.9-0.9h31.2c0.5,0,0.9,0.4,0.9,0.9v59.5C155.7,177.6,155.4,178,154.9,178z"/>
	</g>
	<g>
		<polyline style="fill:#052A39;" points="164.3,177 164.3,62.9 195.5,62.9 195.5,177 		"/>
	</g>
	<g>
		<polyline style="fill:#052A39;" points="204.9,177.1 204.9,0.9 236.1,0.9 236.1,177.1 		"/>
	</g>
	<g>
		<path style="fill:#7ED1E9;" d="M164.3,177.8c-0.5,0-0.9-0.4-0.9-0.9v-0.9c0-0.5,0.4-0.9,0.9-0.9s0.9,0.4,0.9,0.9v0.9
			C165.2,177.4,164.8,177.8,164.3,177.8z M195.5,177.4c-0.5,0-0.9-0.4-0.9-0.9v-0.9c0-0.5,0.4-0.9,0.9-0.9s0.9,0.4,0.9,0.9v0.9
			C196.4,177,196,177.4,195.5,177.4z M164.3,172.6c-0.5,0-0.9-0.4-0.9-0.9v-0.9c0-0.5,0.4-0.9,0.9-0.9s0.9,0.4,0.9,0.9v0.9
			C165.2,172.2,164.8,172.6,164.3,172.6z M195.5,172.1c-0.5,0-0.9-0.4-0.9-0.9v-0.9c0-0.5,0.4-0.9,0.9-0.9s0.9,0.4,0.9,0.9v0.9
			C196.4,171.7,196,172.1,195.5,172.1z M164.3,167.3c-0.5,0-0.9-0.4-0.9-0.9v-0.9c0-0.5,0.4-0.9,0.9-0.9s0.9,0.4,0.9,0.9v0.9
			C165.2,166.9,164.8,167.3,164.3,167.3z M195.5,166.8c-0.5,0-0.9-0.4-0.9-0.9v-0.9c0-0.5,0.4-0.9,0.9-0.9s0.9,0.4,0.9,0.9v0.9
			C196.4,166.4,196,166.8,195.5,166.8z M164.3,162c-0.5,0-0.9-0.4-0.9-0.9v-0.9c0-0.5,0.4-0.9,0.9-0.9s0.9,0.4,0.9,0.9v0.9
			C165.2,161.6,164.8,162,164.3,162z M195.5,161.6c-0.5,0-0.9-0.4-0.9-0.9v-0.9c0-0.5,0.4-0.9,0.9-0.9s0.9,0.4,0.9,0.9v0.9
			C196.4,161.2,196,161.6,195.5,161.6z M164.3,156.8c-0.5,0-0.9-0.4-0.9-0.9V155c0-0.5,0.4-0.9,0.9-0.9s0.9,0.4,0.9,0.9v0.9
			C165.2,156.4,164.8,156.8,164.3,156.8z M195.5,156.3c-0.5,0-0.9-0.4-0.9-0.9v-0.9c0-0.5,0.4-0.9,0.9-0.9s0.9,0.4,0.9,0.9v0.9
			C196.4,155.9,196,156.3,195.5,156.3z M164.3,151.5c-0.5,0-0.9-0.4-0.9-0.9v-0.9c0-0.5,0.4-0.9,0.9-0.9s0.9,0.4,0.9,0.9v0.9
			C165.2,151.1,164.8,151.5,164.3,151.5z M195.5,151c-0.5,0-0.9-0.4-0.9-0.9v-0.9c0-0.5,0.4-0.9,0.9-0.9s0.9,0.4,0.9,0.9v0.9
			C196.4,150.7,196,151,195.5,151z M164.3,146.2c-0.5,0-0.9-0.4-0.9-0.9v-0.9c0-0.5,0.4-0.9,0.9-0.9s0.9,0.4,0.9,0.9v0.9
			C165.2,145.9,164.8,146.2,164.3,146.2z M195.5,145.8c-0.5,0-0.9-0.4-0.9-0.9V144c0-0.5,0.4-0.9,0.9-0.9s0.9,0.4,0.9,0.9v0.9
			C196.4,145.4,196,145.8,195.5,145.8z M164.3,141c-0.5,0-0.9-0.4-0.9-0.9v-0.9c0-0.5,0.4-0.9,0.9-0.9s0.9,0.4,0.9,0.9v0.9
			C165.2,140.6,164.8,141,164.3,141z M195.5,140.5c-0.5,0-0.9-0.4-0.9-0.9v-0.9c0-0.5,0.4-0.9,0.9-0.9s0.9,0.4,0.9,0.9v0.9
			C196.4,140.1,196,140.5,195.5,140.5z M164.3,135.7c-0.5,0-0.9-0.4-0.9-0.9V134c0-0.5,0.4-0.9,0.9-0.9s0.9,0.4,0.9,0.9v0.9
			C165.2,135.3,164.8,135.7,164.3,135.7z M195.5,135.3c-0.5,0-0.9-0.4-0.9-0.9v-0.9c0-0.5,0.4-0.9,0.9-0.9s0.9,0.4,0.9,0.9v0.9
			C196.4,134.9,196,135.3,195.5,135.3z M164.3,130.5c-0.5,0-0.9-0.4-0.9-0.9v-0.9c0-0.5,0.4-0.9,0.9-0.9s0.9,0.4,0.9,0.9v0.9
			C165.2,130.1,164.8,130.5,164.3,130.5z M195.5,130c-0.5,0-0.9-0.4-0.9-0.9v-0.9c0-0.5,0.4-0.9,0.9-0.9s0.9,0.4,0.9,0.9v0.9
			C196.4,129.6,196,130,195.5,130z M164.3,125.2c-0.5,0-0.9-0.4-0.9-0.9v-0.9c0-0.5,0.4-0.9,0.9-0.9s0.9,0.4,0.9,0.9v0.9
			C165.2,124.8,164.8,125.2,164.3,125.2z M195.5,124.7c-0.5,0-0.9-0.4-0.9-0.9V123c0-0.5,0.4-0.9,0.9-0.9s0.9,0.4,0.9,0.9v0.9
			C196.4,124.3,196,124.7,195.5,124.7z M164.3,119.9c-0.5,0-0.9-0.4-0.9-0.9v-0.9c0-0.5,0.4-0.9,0.9-0.9s0.9,0.4,0.9,0.9v0.9
			C165.2,119.5,164.8,119.9,164.3,119.9z M195.5,119.5c-0.5,0-0.9-0.4-0.9-0.9v-0.9c0-0.5,0.4-0.9,0.9-0.9s0.9,0.4,0.9,0.9v0.9
			C196.4,119.1,196,119.5,195.5,119.5z M164.3,114.7c-0.5,0-0.9-0.4-0.9-0.9v-0.9c0-0.5,0.4-0.9,0.9-0.9s0.9,0.4,0.9,0.9v0.9
			C165.2,114.3,164.8,114.7,164.3,114.7z M195.5,114.2c-0.5,0-0.9-0.4-0.9-0.9v-0.9c0-0.5,0.4-0.9,0.9-0.9s0.9,0.4,0.9,0.9v0.9
			C196.4,113.8,196,114.2,195.5,114.2z M164.3,109.4c-0.5,0-0.9-0.4-0.9-0.9v-0.9c0-0.5,0.4-0.9,0.9-0.9s0.9,0.4,0.9,0.9v0.9
			C165.2,109,164.8,109.4,164.3,109.4z M195.5,108.9c-0.5,0-0.9-0.4-0.9-0.9v-0.9c0-0.5,0.4-0.9,0.9-0.9s0.9,0.4,0.9,0.9v0.9
			C196.4,108.5,196,108.9,195.5,108.9z M164.3,104.1c-0.5,0-0.9-0.4-0.9-0.9v-0.9c0-0.5,0.4-0.9,0.9-0.9s0.9,0.4,0.9,0.9v0.9
			C165.2,103.7,164.8,104.1,164.3,104.1z M195.5,103.7c-0.5,0-0.9-0.4-0.9-0.9v-0.9c0-0.5,0.4-0.9,0.9-0.9s0.9,0.4,0.9,0.9v0.9
			C196.4,103.3,196,103.7,195.5,103.7z M164.3,98.9c-0.5,0-0.9-0.4-0.9-0.9v-0.9c0-0.5,0.4-0.9,0.9-0.9s0.9,0.4,0.9,0.9V98
			C165.2,98.5,164.8,98.9,164.3,98.9z M195.5,98.4c-0.5,0-0.9-0.4-0.9-0.9v-0.9c0-0.5,0.4-0.9,0.9-0.9s0.9,0.4,0.9,0.9v0.9
			C196.4,98,196,98.4,195.5,98.4z M164.3,93.6c-0.5,0-0.9-0.4-0.9-0.9v-0.9c0-0.5,0.4-0.9,0.9-0.9s0.9,0.4,0.9,0.9v0.9
			C165.2,93.2,164.8,93.6,164.3,93.6z M195.5,93.1c-0.5,0-0.9-0.4-0.9-0.9v-0.9c0-0.5,0.4-0.9,0.9-0.9s0.9,0.4,0.9,0.9v0.9
			C196.4,92.7,196,93.1,195.5,93.1z M164.3,88.3c-0.5,0-0.9-0.4-0.9-0.9v-0.9c0-0.5,0.4-0.9,0.9-0.9s0.9,0.4,0.9,0.9v0.9
			C165.2,87.9,164.8,88.3,164.3,88.3z M195.5,87.9c-0.5,0-0.9-0.4-0.9-0.9v-0.9c0-0.5,0.4-0.9,0.9-0.9s0.9,0.4,0.9,0.9V87
			C196.4,87.5,196,87.9,195.5,87.9z M164.3,83.1c-0.5,0-0.9-0.4-0.9-0.9v-0.9c0-0.5,0.4-0.9,0.9-0.9s0.9,0.4,0.9,0.9v0.9
			C165.2,82.7,164.8,83.1,164.3,83.1z M195.5,82.6c-0.5,0-0.9-0.4-0.9-0.9v-0.9c0-0.5,0.4-0.9,0.9-0.9s0.9,0.4,0.9,0.9v0.9
			C196.4,82.2,196,82.6,195.5,82.6z M164.3,77.8c-0.5,0-0.9-0.4-0.9-0.9v-0.9c0-0.5,0.4-0.9,0.9-0.9s0.9,0.4,0.9,0.9v0.9
			C165.2,77.4,164.8,77.8,164.3,77.8z M195.5,77.3c-0.5,0-0.9-0.4-0.9-0.9v-0.9c0-0.5,0.4-0.9,0.9-0.9s0.9,0.4,0.9,0.9v0.9
			C196.4,77,196,77.3,195.5,77.3z M164.3,72.5c-0.5,0-0.9-0.4-0.9-0.9v-0.9c0-0.5,0.4-0.9,0.9-0.9s0.9,0.4,0.9,0.9v0.9
			C165.2,72.2,164.8,72.5,164.3,72.5z M195.5,72.1c-0.5,0-0.9-0.4-0.9-0.9v-0.9c0-0.5,0.4-0.9,0.9-0.9s0.9,0.4,0.9,0.9v0.9
			C196.4,71.7,196,72.1,195.5,72.1z M164.3,67.3c-0.5,0-0.9-0.4-0.9-0.9v-0.9c0-0.5,0.4-0.9,0.9-0.9s0.9,0.4,0.9,0.9v0.9
			C165.2,66.9,164.8,67.3,164.3,67.3z M195.5,66.8c-0.5,0-0.9-0.4-0.9-0.9v-0.9c0-0.5,0.4-0.9,0.9-0.9s0.9,0.4,0.9,0.9v0.9
			C196.4,66.4,196,66.8,195.5,66.8z M193.3,63.8h-0.9c-0.5,0-0.9-0.4-0.9-0.9s0.4-0.9,0.9-0.9h0.9c0.5,0,0.9,0.4,0.9,0.9
			S193.8,63.8,193.3,63.8z M188,63.8h-0.9c-0.5,0-0.9-0.4-0.9-0.9s0.4-0.9,0.9-0.9h0.9c0.5,0,0.9,0.4,0.9,0.9S188.5,63.8,188,63.8z
			 M182.7,63.8h-0.9c-0.5,0-0.9-0.4-0.9-0.9s0.4-0.9,0.9-0.9h0.9c0.5,0,0.9,0.4,0.9,0.9S183.2,63.8,182.7,63.8z M177.5,63.8h-0.9
			c-0.5,0-0.9-0.4-0.9-0.9s0.4-0.9,0.9-0.9h0.9c0.5,0,0.9,0.4,0.9,0.9S178,63.8,177.5,63.8z M172.2,63.8h-0.9
			c-0.5,0-0.9-0.4-0.9-0.9s0.4-0.9,0.9-0.9h0.9c0.5,0,0.9,0.4,0.9,0.9S172.7,63.8,172.2,63.8z M166.9,63.8h-0.9
			c-0.5,0-0.9-0.4-0.9-0.9s0.4-0.9,0.9-0.9h0.9c0.5,0,0.9,0.4,0.9,0.9S167.4,63.8,166.9,63.8z"/>
	</g>
	<g>
		<path style="fill:#7ED1E9;" d="M204.9,178c-0.5,0-0.9-0.4-0.9-0.9v-0.9c0-0.5,0.4-0.9,0.9-0.9s0.9,0.4,0.9,0.9v0.9
			C205.8,177.6,205.4,178,204.9,178z M236.1,174.2c-0.5,0-0.9-0.4-0.9-0.9v-0.9c0-0.5,0.4-0.9,0.9-0.9s0.9,0.4,0.9,0.9v0.9
			C237,173.8,236.6,174.2,236.1,174.2z M204.9,172.8c-0.5,0-0.9-0.4-0.9-0.9V171c0-0.5,0.4-0.9,0.9-0.9s0.9,0.4,0.9,0.9v0.9
			C205.8,172.4,205.4,172.8,204.9,172.8z M236.1,169c-0.5,0-0.9-0.4-0.9-0.9v-0.9c0-0.5,0.4-0.9,0.9-0.9s0.9,0.4,0.9,0.9v0.9
			C237,168.6,236.6,169,236.1,169z M204.9,167.5c-0.5,0-0.9-0.4-0.9-0.9v-0.9c0-0.5,0.4-0.9,0.9-0.9s0.9,0.4,0.9,0.9v0.9
			C205.8,167.1,205.4,167.5,204.9,167.5z M236.1,163.7c-0.5,0-0.9-0.4-0.9-0.9V162c0-0.5,0.4-0.9,0.9-0.9s0.9,0.4,0.9,0.9v0.9
			C237,163.3,236.6,163.7,236.1,163.7z M204.9,162.2c-0.5,0-0.9-0.4-0.9-0.9v-0.9c0-0.5,0.4-0.9,0.9-0.9s0.9,0.4,0.9,0.9v0.9
			C205.8,161.8,205.4,162.2,204.9,162.2z M236.1,158.4c-0.5,0-0.9-0.4-0.9-0.9v-0.9c0-0.5,0.4-0.9,0.9-0.9s0.9,0.4,0.9,0.9v0.9
			C237,158.1,236.6,158.4,236.1,158.4z M204.9,157c-0.5,0-0.9-0.4-0.9-0.9v-0.9c0-0.5,0.4-0.9,0.9-0.9s0.9,0.4,0.9,0.9v0.9
			C205.8,156.6,205.4,157,204.9,157z M236.1,153.2c-0.5,0-0.9-0.4-0.9-0.9v-0.9c0-0.5,0.4-0.9,0.9-0.9s0.9,0.4,0.9,0.9v0.9
			C237,152.8,236.6,153.2,236.1,153.2z M204.9,151.7c-0.5,0-0.9-0.4-0.9-0.9v-0.9c0-0.5,0.4-0.9,0.9-0.9s0.9,0.4,0.9,0.9v0.9
			C205.8,151.3,205.4,151.7,204.9,151.7z M236.1,147.9c-0.5,0-0.9-0.4-0.9-0.9v-0.9c0-0.5,0.4-0.9,0.9-0.9s0.9,0.4,0.9,0.9v0.9
			C237,147.5,236.6,147.9,236.1,147.9z M204.9,146.4c-0.5,0-0.9-0.4-0.9-0.9v-0.9c0-0.5,0.4-0.9,0.9-0.9s0.9,0.4,0.9,0.9v0.9
			C205.8,146,205.4,146.4,204.9,146.4z M236.1,142.7c-0.5,0-0.9-0.4-0.9-0.9v-0.9c0-0.5,0.4-0.9,0.9-0.9s0.9,0.4,0.9,0.9v0.9
			C237,142.3,236.6,142.7,236.1,142.7z M204.9,141.2c-0.5,0-0.9-0.4-0.9-0.9v-0.9c0-0.5,0.4-0.9,0.9-0.9s0.9,0.4,0.9,0.9v0.9
			C205.8,140.8,205.4,141.2,204.9,141.2z M236.1,137.4c-0.5,0-0.9-0.4-0.9-0.9v-0.9c0-0.5,0.4-0.9,0.9-0.9s0.9,0.4,0.9,0.9v0.9
			C237,137,236.6,137.4,236.1,137.4z M204.9,135.9c-0.5,0-0.9-0.4-0.9-0.9v-0.9c0-0.5,0.4-0.9,0.9-0.9s0.9,0.4,0.9,0.9v0.9
			C205.8,135.5,205.4,135.9,204.9,135.9z M236.1,132.1c-0.5,0-0.9-0.4-0.9-0.9v-0.9c0-0.5,0.4-0.9,0.9-0.9s0.9,0.4,0.9,0.9v0.9
			C237,131.7,236.6,132.1,236.1,132.1z M204.9,130.6c-0.5,0-0.9-0.4-0.9-0.9v-0.9c0-0.5,0.4-0.9,0.9-0.9s0.9,0.4,0.9,0.9v0.9
			C205.8,130.2,205.4,130.6,204.9,130.6z M236.1,126.9c-0.5,0-0.9-0.4-0.9-0.9v-0.9c0-0.5,0.4-0.9,0.9-0.9s0.9,0.4,0.9,0.9v0.9
			C237,126.5,236.6,126.9,236.1,126.9z M204.9,125.4c-0.5,0-0.9-0.4-0.9-0.9v-0.9c0-0.5,0.4-0.9,0.9-0.9s0.9,0.4,0.9,0.9v0.9
			C205.8,125,205.4,125.4,204.9,125.4z M236.1,121.6c-0.5,0-0.9-0.4-0.9-0.9v-0.9c0-0.5,0.4-0.9,0.9-0.9s0.9,0.4,0.9,0.9v0.9
			C237,121.2,236.6,121.6,236.1,121.6z M204.9,120.1c-0.5,0-0.9-0.4-0.9-0.9v-0.9c0-0.5,0.4-0.9,0.9-0.9s0.9,0.4,0.9,0.9v0.9
			C205.8,119.7,205.4,120.1,204.9,120.1z M236.1,116.3c-0.5,0-0.9-0.4-0.9-0.9v-0.9c0-0.5,0.4-0.9,0.9-0.9s0.9,0.4,0.9,0.9v0.9
			C237,115.9,236.6,116.3,236.1,116.3z M204.9,114.8c-0.5,0-0.9-0.4-0.9-0.9v-0.9c0-0.5,0.4-0.9,0.9-0.9s0.9,0.4,0.9,0.9v0.9
			C205.8,114.5,205.4,114.8,204.9,114.8z M236.1,111.1c-0.5,0-0.9-0.4-0.9-0.9v-0.9c0-0.5,0.4-0.9,0.9-0.9s0.9,0.4,0.9,0.9v0.9
			C237,110.7,236.6,111.1,236.1,111.1z M204.9,109.6c-0.5,0-0.9-0.4-0.9-0.9v-0.9c0-0.5,0.4-0.9,0.9-0.9s0.9,0.4,0.9,0.9v0.9
			C205.8,109.2,205.4,109.6,204.9,109.6z M236.1,105.8c-0.5,0-0.9-0.4-0.9-0.9V104c0-0.5,0.4-0.9,0.9-0.9s0.9,0.4,0.9,0.9v0.9
			C237,105.4,236.6,105.8,236.1,105.8z M204.9,104.3c-0.5,0-0.9-0.4-0.9-0.9v-0.9c0-0.5,0.4-0.9,0.9-0.9s0.9,0.4,0.9,0.9v0.9
			C205.8,103.9,205.4,104.3,204.9,104.3z M236.1,100.5c-0.5,0-0.9-0.4-0.9-0.9v-0.9c0-0.5,0.4-0.9,0.9-0.9s0.9,0.4,0.9,0.9v0.9
			C237,100.1,236.6,100.5,236.1,100.5z M204.9,99.1c-0.5,0-0.9-0.4-0.9-0.9v-0.9c0-0.5,0.4-0.9,0.9-0.9s0.9,0.4,0.9,0.9v0.9
			C205.8,98.7,205.4,99.1,204.9,99.1z M236.1,95.3c-0.5,0-0.9-0.4-0.9-0.9v-0.9c0-0.5,0.4-0.9,0.9-0.9s0.9,0.4,0.9,0.9v0.9
			C237,94.9,236.6,95.3,236.1,95.3z M204.9,93.8c-0.5,0-0.9-0.4-0.9-0.9V92c0-0.5,0.4-0.9,0.9-0.9s0.9,0.4,0.9,0.9v0.9
			C205.8,93.4,205.4,93.8,204.9,93.8z M236.1,90c-0.5,0-0.9-0.4-0.9-0.9v-0.9c0-0.5,0.4-0.9,0.9-0.9s0.9,0.4,0.9,0.9v0.9
			C237,89.6,236.6,90,236.1,90z M204.9,88.5c-0.5,0-0.9-0.4-0.9-0.9v-0.9c0-0.5,0.4-0.9,0.9-0.9s0.9,0.4,0.9,0.9v0.9
			C205.8,88.1,205.4,88.5,204.9,88.5z M236.1,84.7c-0.5,0-0.9-0.4-0.9-0.9V83c0-0.5,0.4-0.9,0.9-0.9s0.9,0.4,0.9,0.9v0.9
			C237,84.4,236.6,84.7,236.1,84.7z M204.9,83.3c-0.5,0-0.9-0.4-0.9-0.9v-0.9c0-0.5,0.4-0.9,0.9-0.9s0.9,0.4,0.9,0.9v0.9
			C205.8,82.9,205.4,83.3,204.9,83.3z M236.1,79.5c-0.5,0-0.9-0.4-0.9-0.9v-0.9c0-0.5,0.4-0.9,0.9-0.9s0.9,0.4,0.9,0.9v0.9
			C237,79.1,236.6,79.5,236.1,79.5z M204.9,78c-0.5,0-0.9-0.4-0.9-0.9v-0.9c0-0.5,0.4-0.9,0.9-0.9s0.9,0.4,0.9,0.9v0.9
			C205.8,77.6,205.4,78,204.9,78z M236.1,74.2c-0.5,0-0.9-0.4-0.9-0.9v-0.9c0-0.5,0.4-0.9,0.9-0.9s0.9,0.4,0.9,0.9v0.9
			C237,73.8,236.6,74.2,236.1,74.2z M204.9,72.7c-0.5,0-0.9-0.4-0.9-0.9V71c0-0.5,0.4-0.9,0.9-0.9s0.9,0.4,0.9,0.9v0.9
			C205.8,72.3,205.4,72.7,204.9,72.7z M236.1,69c-0.5,0-0.9-0.4-0.9-0.9v-0.9c0-0.5,0.4-0.9,0.9-0.9s0.9,0.4,0.9,0.9v0.9
			C237,68.6,236.6,69,236.1,69z M204.9,67.5c-0.5,0-0.9-0.4-0.9-0.9v-0.9c0-0.5,0.4-0.9,0.9-0.9s0.9,0.4,0.9,0.9v0.9
			C205.8,67.1,205.4,67.5,204.9,67.5z M236.1,63.7c-0.5,0-0.9-0.4-0.9-0.9v-0.9c0-0.5,0.4-0.9,0.9-0.9s0.9,0.4,0.9,0.9v0.9
			C237,63.3,236.6,63.7,236.1,63.7z M204.9,62.2c-0.5,0-0.9-0.4-0.9-0.9v-0.9c0-0.5,0.4-0.9,0.9-0.9s0.9,0.4,0.9,0.9v0.9
			C205.8,61.8,205.4,62.2,204.9,62.2z M236.1,58.4c-0.5,0-0.9-0.4-0.9-0.9v-0.9c0-0.5,0.4-0.9,0.9-0.9s0.9,0.4,0.9,0.9v0.9
			C237,58,236.6,58.4,236.1,58.4z M204.9,56.9c-0.5,0-0.9-0.4-0.9-0.9v-0.9c0-0.5,0.4-0.9,0.9-0.9s0.9,0.4,0.9,0.9v0.9
			C205.8,56.5,205.4,56.9,204.9,56.9z M236.1,53.2c-0.5,0-0.9-0.4-0.9-0.9v-0.9c0-0.5,0.4-0.9,0.9-0.9s0.9,0.4,0.9,0.9v0.9
			C237,52.8,236.6,53.2,236.1,53.2z M204.9,51.7c-0.5,0-0.9-0.4-0.9-0.9v-0.9c0-0.5,0.4-0.9,0.9-0.9s0.9,0.4,0.9,0.9v0.9
			C205.8,51.3,205.4,51.7,204.9,51.7z M236.1,47.9c-0.5,0-0.9-0.4-0.9-0.9v-0.9c0-0.5,0.4-0.9,0.9-0.9s0.9,0.4,0.9,0.9V47
			C237,47.5,236.6,47.9,236.1,47.9z M204.9,46.4c-0.5,0-0.9-0.4-0.9-0.9v-0.9c0-0.5,0.4-0.9,0.9-0.9s0.9,0.4,0.9,0.9v0.9
			C205.8,46,205.4,46.4,204.9,46.4z M236.1,42.6c-0.5,0-0.9-0.4-0.9-0.9v-0.9c0-0.5,0.4-0.9,0.9-0.9s0.9,0.4,0.9,0.9v0.9
			C237,42.2,236.6,42.6,236.1,42.6z M204.9,41.1c-0.5,0-0.9-0.4-0.9-0.9v-0.9c0-0.5,0.4-0.9,0.9-0.9s0.9,0.4,0.9,0.9v0.9
			C205.8,40.8,205.4,41.1,204.9,41.1z M236.1,37.4c-0.5,0-0.9-0.4-0.9-0.9v-0.9c0-0.5,0.4-0.9,0.9-0.9s0.9,0.4,0.9,0.9v0.9
			C237,37,236.6,37.4,236.1,37.4z M204.9,35.9c-0.5,0-0.9-0.4-0.9-0.9v-0.9c0-0.5,0.4-0.9,0.9-0.9s0.9,0.4,0.9,0.9V35
			C205.8,35.5,205.4,35.9,204.9,35.9z M236.1,32.1c-0.5,0-0.9-0.4-0.9-0.9v-0.9c0-0.5,0.4-0.9,0.9-0.9s0.9,0.4,0.9,0.9v0.9
			C237,31.7,236.6,32.1,236.1,32.1z M204.9,30.6c-0.5,0-0.9-0.4-0.9-0.9v-0.9c0-0.5,0.4-0.9,0.9-0.9s0.9,0.4,0.9,0.9v0.9
			C205.8,30.2,205.4,30.6,204.9,30.6z M236.1,26.8c-0.5,0-0.9-0.4-0.9-0.9v-0.9c0-0.5,0.4-0.9,0.9-0.9s0.9,0.4,0.9,0.9V26
			C237,26.4,236.6,26.8,236.1,26.8z M204.9,25.4c-0.5,0-0.9-0.4-0.9-0.9v-0.9c0-0.5,0.4-0.9,0.9-0.9s0.9,0.4,0.9,0.9v0.9
			C205.8,25,205.4,25.4,204.9,25.4z M236.1,21.6c-0.5,0-0.9-0.4-0.9-0.9v-0.9c0-0.5,0.4-0.9,0.9-0.9s0.9,0.4,0.9,0.9v0.9
			C237,21.2,236.6,21.6,236.1,21.6z M204.9,20.1c-0.5,0-0.9-0.4-0.9-0.9v-0.9c0-0.5,0.4-0.9,0.9-0.9s0.9,0.4,0.9,0.9v0.9
			C205.8,19.7,205.4,20.1,204.9,20.1z M236.1,16.3c-0.5,0-0.9-0.4-0.9-0.9v-0.9c0-0.5,0.4-0.9,0.9-0.9s0.9,0.4,0.9,0.9v0.9
			C237,15.9,236.6,16.3,236.1,16.3z M204.9,14.8c-0.5,0-0.9-0.4-0.9-0.9v-0.9c0-0.5,0.4-0.9,0.9-0.9s0.9,0.4,0.9,0.9v0.9
			C205.8,14.4,205.4,14.8,204.9,14.8z M236.1,11c-0.5,0-0.9-0.4-0.9-0.9V9.3c0-0.5,0.4-0.9,0.9-0.9s0.9,0.4,0.9,0.9v0.9
			C237,10.7,236.6,11,236.1,11z M204.9,9.6c-0.5,0-0.9-0.4-0.9-0.9V7.8c0-0.5,0.4-0.9,0.9-0.9s0.9,0.4,0.9,0.9v0.9
			C205.8,9.2,205.4,9.6,204.9,9.6z M236.1,5.8c-0.5,0-0.9-0.4-0.9-0.9V4c0-0.5,0.4-0.9,0.9-0.9S237,3.5,237,4v0.9
			C237,5.4,236.6,5.8,236.1,5.8z M204.9,4.3c-0.5,0-0.9-0.4-0.9-0.9V2.5c0-0.5,0.4-0.9,0.9-0.9s0.9,0.4,0.9,0.9v0.9
			C205.8,3.9,205.4,4.3,204.9,4.3z M234.8,1.8H234c-0.5,0-0.9-0.4-0.9-0.9S233.5,0,234,0h0.9c0.5,0,0.9,0.4,0.9,0.9
			S235.3,1.8,234.8,1.8z M229.6,1.8h-0.9c-0.5,0-0.9-0.4-0.9-0.9s0.4-0.9,0.9-0.9h0.9c0.5,0,0.9,0.4,0.9,0.9S230.1,1.8,229.6,1.8z
			 M224.3,1.8h-0.9c-0.5,0-0.9-0.4-0.9-0.9s0.4-0.9,0.9-0.9h0.9c0.5,0,0.9,0.4,0.9,0.9S224.8,1.8,224.3,1.8z M219,1.8h-0.9
			c-0.5,0-0.9-0.4-0.9-0.9s0.4-0.9,0.9-0.9h0.9c0.5,0,0.9,0.4,0.9,0.9S219.5,1.8,219,1.8z M213.8,1.8h-0.9c-0.5,0-0.9-0.4-0.9-0.9
			s0.4-0.9,0.9-0.9h0.9c0.5,0,0.9,0.4,0.9,0.9S214.3,1.8,213.8,1.8z M208.5,1.8h-0.9c-0.5,0-0.9-0.4-0.9-0.9s0.4-0.9,0.9-0.9h0.9
			c0.5,0,0.9,0.4,0.9,0.9S209,1.8,208.5,1.8z"/>
	</g>
	<g>
		<path style="fill:#518EA1;" d="M271,87v-1.6h-1.6v-1h1.6v-1.6h1.2v1.6h1.6v1h-1.6V87H271z"/>
		<path style="fill:#518EA1;" d="M277.1,86.1c0,0.2,0,0.5,0.1,0.6s0.2,0.3,0.3,0.5s0.3,0.2,0.5,0.3c0.2,0.1,0.4,0.1,0.6,0.1
			c0.2,0,0.4,0,0.5-0.1c0.2-0.1,0.3-0.1,0.4-0.3s0.2-0.2,0.2-0.4s0.1-0.3,0.1-0.4c0-0.2,0-0.3-0.1-0.5s-0.1-0.3-0.2-0.4
			c-0.1-0.1-0.2-0.2-0.4-0.3s-0.4-0.1-0.6-0.1h-0.5v-1.1h0.5c0.4,0,0.7-0.1,0.9-0.3c0.2-0.2,0.2-0.5,0.2-0.8s-0.1-0.6-0.3-0.7
			c-0.2-0.2-0.4-0.2-0.8-0.2c-0.4,0-0.7,0.1-0.9,0.3s-0.3,0.5-0.3,0.9h-1.2c0-0.3,0.1-0.7,0.2-0.9c0.1-0.3,0.3-0.5,0.5-0.7
			c0.2-0.2,0.4-0.4,0.7-0.5s0.6-0.2,0.9-0.2c0.3,0,0.6,0,0.9,0.1s0.5,0.2,0.7,0.4c0.2,0.2,0.4,0.4,0.5,0.6s0.2,0.5,0.2,0.8
			c0,0.4-0.1,0.8-0.3,1c-0.2,0.3-0.4,0.5-0.7,0.6c0.3,0.1,0.6,0.3,0.8,0.6c0.2,0.3,0.3,0.7,0.3,1.1c0,0.3-0.1,0.6-0.2,0.9
			c-0.1,0.3-0.3,0.5-0.5,0.7s-0.5,0.4-0.8,0.5c-0.3,0.1-0.6,0.2-1,0.2s-0.7-0.1-1-0.2c-0.3-0.1-0.6-0.3-0.8-0.5
			c-0.2-0.2-0.4-0.5-0.6-0.8c-0.1-0.3-0.2-0.7-0.2-1.1H277.1z"/>
		<path style="fill:#518EA1;" d="M282.9,83.6c0-0.3,0.1-0.7,0.2-1c0.1-0.3,0.3-0.6,0.5-0.8c0.2-0.2,0.5-0.4,0.8-0.6s0.7-0.2,1.1-0.2
			s0.8,0.1,1.1,0.2s0.6,0.3,0.8,0.6c0.2,0.2,0.4,0.5,0.5,0.8c0.1,0.3,0.2,0.6,0.2,1v2.5c0,0.4-0.1,0.7-0.2,1
			c-0.1,0.3-0.3,0.6-0.5,0.8c-0.2,0.2-0.5,0.4-0.8,0.6c-0.3,0.1-0.7,0.2-1.1,0.2s-0.8-0.1-1.1-0.2c-0.3-0.1-0.6-0.3-0.8-0.6
			c-0.2-0.2-0.4-0.5-0.5-0.8c-0.1-0.3-0.2-0.6-0.2-1V83.6z M284.1,86.1c0,0.2,0,0.4,0.1,0.5l1.9-4.4c-0.2-0.1-0.4-0.1-0.6-0.1
			c-0.2,0-0.4,0-0.6,0.1s-0.3,0.2-0.4,0.3c-0.1,0.1-0.2,0.3-0.3,0.5c-0.1,0.2-0.1,0.4-0.1,0.6V86.1z M286.9,83.6c0-0.1,0-0.1,0-0.2
			c0-0.1,0-0.1,0-0.2l-1.9,4.3c0.1,0.1,0.3,0.1,0.5,0.1c0.2,0,0.4,0,0.6-0.1s0.3-0.2,0.4-0.3c0.1-0.1,0.2-0.3,0.3-0.5
			c0.1-0.2,0.1-0.4,0.1-0.6V83.6z"/>
		<path style="fill:#518EA1;" d="M290.3,83.9v-1.3c0-0.2,0-0.4,0.1-0.6c0.1-0.2,0.2-0.3,0.3-0.5c0.1-0.1,0.3-0.2,0.5-0.3
			c0.2-0.1,0.4-0.1,0.6-0.1c0.2,0,0.5,0,0.6,0.1c0.2,0.1,0.4,0.2,0.5,0.3c0.1,0.1,0.2,0.3,0.3,0.5c0.1,0.2,0.1,0.4,0.1,0.6v1.3
			c0,0.2,0,0.4-0.1,0.6c-0.1,0.2-0.2,0.3-0.3,0.5c-0.1,0.1-0.3,0.2-0.5,0.3c-0.2,0.1-0.4,0.1-0.6,0.1c-0.2,0-0.5,0-0.6-0.1
			c-0.2-0.1-0.4-0.2-0.5-0.3c-0.1-0.1-0.2-0.3-0.3-0.5C290.3,84.3,290.3,84.1,290.3,83.9z M292.5,82.5c0-0.2-0.1-0.3-0.2-0.5
			s-0.3-0.2-0.5-0.2c-0.2,0-0.3,0.1-0.4,0.2s-0.2,0.3-0.2,0.5v1.3c0,0.2,0.1,0.3,0.2,0.5s0.3,0.2,0.4,0.2c0.2,0,0.3-0.1,0.5-0.2
			s0.2-0.3,0.2-0.5V82.5z M296.2,80.6l0.9,0.5l-4.6,8l-0.9-0.5L296.2,80.6z M298.6,87.2c0,0.2,0,0.4-0.1,0.6
			c-0.1,0.2-0.2,0.3-0.3,0.5s-0.3,0.2-0.5,0.3c-0.2,0.1-0.4,0.1-0.6,0.1c-0.2,0-0.5,0-0.6-0.1c-0.2-0.1-0.4-0.2-0.5-0.3
			s-0.2-0.3-0.3-0.5c-0.1-0.2-0.1-0.4-0.1-0.6v-1.3c0-0.2,0-0.4,0.1-0.6c0.1-0.2,0.2-0.3,0.3-0.5c0.1-0.1,0.3-0.2,0.5-0.3
			c0.2-0.1,0.4-0.1,0.6-0.1c0.2,0,0.5,0,0.6,0.1c0.2,0.1,0.4,0.2,0.5,0.3c0.1,0.1,0.2,0.3,0.3,0.5c0.1,0.2,0.1,0.4,0.1,0.6V87.2z
			 M296.5,87.2c0,0.2,0.1,0.3,0.2,0.5c0.1,0.1,0.3,0.2,0.4,0.2c0.2,0,0.3-0.1,0.5-0.2c0.1-0.1,0.2-0.3,0.2-0.5v-1.3
			c0-0.2-0.1-0.3-0.2-0.5c-0.1-0.1-0.3-0.2-0.5-0.2c-0.2,0-0.3,0.1-0.4,0.2c-0.1,0.1-0.2,0.3-0.2,0.5V87.2z"/>
		<path style="fill:#518EA1;" d="M302.6,86.6c0-0.2,0-0.4,0-0.6s0.1-0.4,0.1-0.5c0.1-0.2,0.1-0.3,0.2-0.5c0.1-0.1,0.2-0.3,0.4-0.4
			c0.1-0.1,0.2-0.2,0.3-0.3c0.1-0.1,0.2-0.2,0.3-0.3c0.1-0.1,0.2-0.2,0.3-0.4c0.1-0.1,0.1-0.3,0.1-0.5c0-0.3-0.1-0.6-0.3-0.8
			s-0.5-0.2-0.8-0.2c-0.1,0-0.3,0-0.4,0.1c-0.1,0-0.3,0.1-0.4,0.2c-0.1,0.1-0.2,0.2-0.2,0.4c-0.1,0.2-0.1,0.3-0.1,0.6H301
			c0-0.4,0.1-0.7,0.2-1c0.1-0.3,0.3-0.5,0.5-0.7c0.2-0.2,0.5-0.3,0.7-0.4s0.6-0.2,0.9-0.2c0.3,0,0.6,0,0.9,0.1
			c0.3,0.1,0.5,0.2,0.7,0.4s0.4,0.4,0.5,0.7c0.1,0.3,0.2,0.5,0.2,0.9c0,0.2,0,0.5-0.1,0.7c-0.1,0.2-0.2,0.4-0.3,0.5
			s-0.2,0.3-0.4,0.4c-0.1,0.1-0.2,0.2-0.3,0.3c-0.2,0.1-0.3,0.3-0.4,0.4c-0.1,0.1-0.2,0.2-0.2,0.3s-0.1,0.2-0.1,0.4s0,0.3,0,0.5
			H302.6z M302.3,87.9c0-0.1,0-0.2,0.1-0.3c0-0.1,0.1-0.2,0.2-0.3c0.1-0.1,0.2-0.1,0.3-0.2c0.1,0,0.2-0.1,0.3-0.1s0.2,0,0.4,0.1
			c0.1,0,0.2,0.1,0.3,0.2c0.1,0.1,0.1,0.2,0.2,0.3c0,0.1,0.1,0.2,0.1,0.3s0,0.2-0.1,0.3c0,0.1-0.1,0.2-0.2,0.3
			c-0.1,0.1-0.2,0.1-0.3,0.2c-0.1,0-0.2,0.1-0.4,0.1s-0.2,0-0.3-0.1c-0.1,0-0.2-0.1-0.3-0.2c-0.1-0.1-0.1-0.2-0.2-0.3
			C302.3,88.1,302.3,88,302.3,87.9z"/>
	</g>
	<g>
		<g>
			<path style="fill:#518EA1;" d="M93,193.9c0,0.3,0,0.6-0.1,0.9c-0.1,0.3-0.2,0.5-0.4,0.7s-0.4,0.4-0.6,0.5s-0.5,0.2-0.9,0.2
				c-0.3,0-0.6-0.1-0.9-0.2c-0.3-0.1-0.5-0.3-0.6-0.5c-0.2-0.2-0.3-0.4-0.4-0.7c-0.1-0.3-0.1-0.6-0.1-0.9h1c0,0.4,0.1,0.7,0.2,0.9
				s0.4,0.4,0.8,0.4c0.3,0,0.6-0.1,0.8-0.4c0.2-0.2,0.3-0.5,0.3-0.9v-4.2h1V193.9z"/>
			<path style="fill:#518EA1;" d="M98,196l-0.3-0.8h-2.4l-0.3,0.8H94l2.2-6.3h0.7l2.2,6.3H98z M96.6,191.4l-0.9,2.8h1.7L96.6,191.4z
				"/>
			<path style="fill:#518EA1;" d="M104.1,194.1v-4.5h1v6.3H104l-2.5-4.5v4.5h-1v-6.3h1.1L104.1,194.1z"/>
		</g>
		<g>
			<path style="fill:#518EA1;" d="M132.6,190.6v2h2.6v0.9h-2.6v2.4h-1v-6.3h3.6v0.9H132.6z"/>
			<path style="fill:#518EA1;" d="M138.2,190.6v1.8h2.6v0.9h-2.6v1.7h2.6v0.9h-3.6v-6.3h3.6v0.9H138.2z"/>
			<path style="fill:#518EA1;" d="M142.8,189.7h2.1c0.4,0,0.8,0.1,1,0.2c0.3,0.1,0.5,0.3,0.6,0.4c0.1,0.2,0.2,0.4,0.3,0.6
				s0.1,0.4,0.1,0.5c0,0.2,0,0.4-0.1,0.5c-0.1,0.2-0.2,0.3-0.3,0.4c-0.1,0.1-0.2,0.2-0.4,0.3c-0.1,0.1-0.3,0.1-0.4,0.2
				c0.1,0,0.2,0,0.4,0.1s0.3,0.1,0.4,0.3c0.1,0.1,0.2,0.3,0.3,0.4s0.1,0.4,0.1,0.6c0,0.2,0,0.3-0.1,0.6c-0.1,0.2-0.2,0.4-0.3,0.6
				c-0.1,0.2-0.4,0.3-0.6,0.5s-0.6,0.2-1.1,0.2h-2.2V189.7z M144.9,192.3c0.2,0,0.4,0,0.5-0.1c0.1-0.1,0.2-0.1,0.3-0.2
				c0.1-0.1,0.1-0.2,0.1-0.3c0-0.1,0-0.2,0-0.3s0-0.2,0-0.3c0-0.1-0.1-0.2-0.1-0.3c-0.1-0.1-0.2-0.2-0.3-0.2
				c-0.1-0.1-0.3-0.1-0.5-0.1h-1.1v1.7H144.9z M143.8,193.2v1.8h1.2c0.2,0,0.4,0,0.5-0.1c0.1-0.1,0.2-0.1,0.3-0.2
				c0.1-0.1,0.1-0.2,0.1-0.3c0-0.1,0-0.2,0-0.3c0-0.1,0-0.2,0-0.3c0-0.1-0.1-0.2-0.2-0.3c-0.1-0.1-0.2-0.2-0.3-0.2
				c-0.1-0.1-0.3-0.1-0.5-0.1H143.8z"/>
		</g>
		<g>
			<path style="fill:#518EA1;" d="M177.3,196h-1v-3.9l-1.6,3.9h-0.8l-1.6-3.9v3.9h-1v-6.3h1l2,4.7l2-4.7h1V196z"/>
			<path style="fill:#518EA1;" d="M182.7,196l-0.3-0.8h-2.4l-0.3,0.8h-1.1l2.2-6.3h0.7l2.2,6.3H182.7z M181.3,191.4l-0.9,2.8h1.7
				L181.3,191.4z"/>
			<path style="fill:#518EA1;" d="M185.2,189.7h2.3c0.3,0,0.6,0.1,0.9,0.2c0.3,0.1,0.5,0.3,0.7,0.5c0.2,0.2,0.3,0.4,0.4,0.7
				c0.1,0.3,0.2,0.5,0.2,0.8c0,0.2,0,0.4-0.1,0.7c-0.1,0.2-0.1,0.4-0.3,0.6c-0.1,0.2-0.3,0.3-0.4,0.5s-0.3,0.3-0.6,0.3l1.2,2h-1.2
				l-1.2-1.9h-1v1.9h-1V189.7z M187.4,193.1c0.2,0,0.3,0,0.5-0.1c0.1-0.1,0.3-0.2,0.4-0.3s0.2-0.2,0.2-0.4c0.1-0.2,0.1-0.3,0.1-0.5
				s0-0.3-0.1-0.5s-0.1-0.3-0.2-0.4s-0.2-0.2-0.4-0.3c-0.1-0.1-0.3-0.1-0.5-0.1h-1.2v2.6H187.4z"/>
		</g>
		<g>
			<path style="fill:#518EA1;" d="M215.9,196l-0.3-0.8h-2.4L213,196h-1.1l2.2-6.3h0.7l2.2,6.3H215.9z M214.5,191.4l-0.9,2.8h1.7
				L214.5,191.4z"/>
			<path style="fill:#518EA1;" d="M218.4,189.7h2.3c0.3,0,0.6,0.1,0.9,0.2c0.3,0.1,0.5,0.3,0.7,0.5c0.2,0.2,0.3,0.4,0.4,0.7
				c0.1,0.3,0.2,0.5,0.2,0.8c0,0.3-0.1,0.6-0.2,0.8c-0.1,0.3-0.3,0.5-0.4,0.7c-0.2,0.2-0.4,0.4-0.7,0.5c-0.3,0.1-0.6,0.2-0.9,0.2
				h-1.2v1.9h-1V189.7z M220.7,193.1c0.2,0,0.3,0,0.5-0.1s0.3-0.2,0.4-0.3s0.2-0.2,0.2-0.4c0.1-0.2,0.1-0.3,0.1-0.5s0-0.3-0.1-0.5
				s-0.1-0.3-0.2-0.4s-0.2-0.2-0.4-0.3c-0.1-0.1-0.3-0.1-0.5-0.1h-1.2v2.6H220.7z"/>
			<path style="fill:#518EA1;" d="M224.5,189.7h2.3c0.3,0,0.6,0.1,0.9,0.2c0.3,0.1,0.5,0.3,0.7,0.5c0.2,0.2,0.3,0.4,0.4,0.7
				c0.1,0.3,0.2,0.5,0.2,0.8c0,0.2,0,0.4-0.1,0.7c-0.1,0.2-0.1,0.4-0.3,0.6c-0.1,0.2-0.3,0.3-0.4,0.5c-0.2,0.1-0.3,0.3-0.6,0.3
				l1.2,2h-1.2l-1.1-1.9h-1v1.9h-1V189.7z M226.7,193.1c0.2,0,0.3,0,0.5-0.1s0.3-0.2,0.4-0.3s0.2-0.2,0.2-0.4
				c0.1-0.2,0.1-0.3,0.1-0.5s0-0.3-0.1-0.5s-0.1-0.3-0.2-0.4s-0.2-0.2-0.4-0.3c-0.1-0.1-0.3-0.1-0.5-0.1h-1.2v2.6H226.7z"/>
		</g>
	</g>
	<g>
		<path style="fill:#7ED1E9;" d="M256.3,178H63.4c-0.5,0-0.9-0.4-0.9-0.8s0.4-0.8,0.9-0.8h192.9c0.5,0,0.8,0.4,0.8,0.8
			S256.7,178,256.3,178z"/>
	</g>
	<g>
		<path style="fill:#052A39;" d="M68.2,166.6h-5.1v-6.3H68c15.5-1,30.4-2.5,42.6-10c11.1-6.9,19.8-18.1,28.2-29
			c6.9-8.9,13.9-18,22.4-25.1c10.4-8.6,27.7-14.5,43.2-14.6h56.1v6.3h-56c-14.1,0.1-29.9,5.4-39.2,13.1
			c-7.9,6.6-14.8,15.5-21.5,24.1c-8.8,11.3-17.8,23.1-29.9,30.5C100.4,164,84.6,165.6,68.2,166.6L68.2,166.6z"/>
	</g>
	<g>
		<path style="fill:#7ED1E9;" d="M63.1,164.4c-0.5,0-0.9-0.4-0.9-0.8s0.4-0.8,0.9-0.8h5c15.8-1,31.1-2.5,43.7-10.4
			c11.4-7.1,20.3-18.5,28.8-29.6c6.8-8.8,13.8-17.8,22.1-24.7c10-8.3,26.7-14,41.7-14h56.1c0.5,0,0.8,0.4,0.8,0.9s-0.4,0.9-0.8,0.9
			h-56c-14.6,0.1-30.9,5.6-40.6,13.6c-8.1,6.8-15.1,15.8-21.8,24.5c-8.6,11.2-17.6,22.7-29.2,30c-13,8-28.5,9.6-44.5,10.6
			L63.1,164.4z"/>
	</g>
	<g>
		<path style="fill:#7ED1E9;" d="M255.1,90.1c-0.3,0-0.5-0.1-0.7-0.3c-0.3-0.4-0.2-0.9,0.1-1.2l4.7-3.7l-4.7-3.7
			c-0.4-0.3-0.4-0.8-0.1-1.2c0.3-0.4,0.8-0.4,1.2-0.1l5.5,4.4c0.2,0.2,0.3,0.4,0.3,0.7s-0.1,0.5-0.3,0.7l-5.5,4.4
			C255.5,90,255.3,90.1,255.1,90.1z"/>
	</g>
	<g>
		<path style="fill:#7ED1E9;" d="M31,86.8c0,0.6,0.2,1.1,0.5,1.4c0.3,0.3,0.8,0.5,1.3,0.5c0.2,0,0.4,0,0.6-0.1
			c0.2-0.1,0.3-0.2,0.5-0.3c0.1-0.1,0.2-0.3,0.3-0.4c0.1-0.2,0.1-0.4,0.1-0.6c0-0.2,0-0.4-0.1-0.6c-0.1-0.2-0.2-0.3-0.4-0.4
			c-0.1-0.1-0.3-0.2-0.5-0.3C33.1,86,33,86,32.8,85.9c-0.4-0.1-0.8-0.3-1.2-0.4c-0.4-0.2-0.7-0.3-1-0.5c-0.3-0.2-0.5-0.5-0.6-0.8
			c-0.2-0.3-0.2-0.7-0.2-1.1c0-0.4,0.1-0.7,0.2-1c0.2-0.3,0.4-0.6,0.6-0.8c0.3-0.2,0.6-0.4,0.9-0.5c0.3-0.1,0.7-0.2,1.1-0.2
			c0.4,0,0.8,0.1,1.1,0.2c0.4,0.1,0.7,0.3,0.9,0.6s0.5,0.5,0.6,0.9c0.1,0.3,0.2,0.7,0.2,1.2H34c0-0.4-0.1-0.8-0.4-1.1
			c-0.2-0.3-0.6-0.4-1-0.4c-0.4,0-0.7,0.1-1,0.3c-0.3,0.2-0.4,0.5-0.4,0.9c0,0.2,0,0.3,0.1,0.5c0.1,0.1,0.2,0.3,0.3,0.4
			c0.1,0.1,0.3,0.2,0.4,0.3c0.2,0.1,0.3,0.1,0.5,0.2c0.4,0.1,0.7,0.3,1.1,0.4c0.4,0.1,0.7,0.3,1,0.5c0.3,0.2,0.5,0.5,0.7,0.8
			c0.2,0.3,0.3,0.7,0.3,1.1c0,0.5-0.1,0.9-0.2,1.2c-0.2,0.4-0.4,0.7-0.7,0.9c-0.3,0.2-0.6,0.4-1,0.5C33.5,90,33.1,90,32.6,90
			c-0.4,0-0.8-0.1-1.2-0.2c-0.4-0.1-0.7-0.4-1-0.6c-0.3-0.3-0.5-0.6-0.7-1s-0.3-0.8-0.3-1.4H31z"/>
		<path style="fill:#7ED1E9;" d="M41,89.8c-0.1,0-0.3,0-0.5,0.1s-0.4,0-0.6,0c-0.2,0-0.4,0-0.6,0s-0.4-0.1-0.6-0.3s-0.4-0.4-0.5-0.6
			C38,88.7,38,88.3,38,87.8v-2.8h-1v-1.2h1v-1.8h1.4v1.8h1.4v1.2h-1.4v2.5c0,0.3,0,0.5,0.1,0.6s0.1,0.3,0.2,0.4
			c0.1,0.1,0.2,0.1,0.3,0.2s0.2,0,0.4,0c0.1,0,0.2,0,0.4,0s0.3,0,0.3,0V89.8z"/>
		<path style="fill:#7ED1E9;" d="M43.5,87.2c0,0.2,0.1,0.4,0.1,0.6s0.2,0.4,0.3,0.5c0.1,0.1,0.3,0.3,0.5,0.3
			c0.2,0.1,0.4,0.1,0.7,0.1c0.4,0,0.7-0.1,0.9-0.2c0.2-0.2,0.3-0.3,0.4-0.6h1.4c0,0.3-0.1,0.5-0.3,0.7c-0.1,0.2-0.3,0.4-0.6,0.6
			s-0.5,0.3-0.8,0.4c-0.3,0.1-0.7,0.2-1.1,0.2c-0.5,0-1-0.1-1.3-0.2c-0.4-0.2-0.7-0.4-0.9-0.7c-0.3-0.3-0.4-0.6-0.6-1
			c-0.1-0.4-0.2-0.8-0.2-1.2c0-0.4,0.1-0.9,0.2-1.3c0.1-0.4,0.3-0.7,0.6-1c0.3-0.3,0.6-0.5,0.9-0.7c0.4-0.2,0.8-0.2,1.3-0.2
			c0.4,0,0.8,0.1,1.1,0.2s0.6,0.3,0.9,0.6c0.3,0.2,0.5,0.5,0.6,0.9s0.2,0.7,0.2,1.1c0,0.1,0,0.2,0,0.4c0,0.1,0,0.3-0.1,0.5H43.5z
			 M45,84.7c-0.4,0-0.8,0.1-1.1,0.4c-0.3,0.3-0.4,0.6-0.4,1.1h3c0-0.5-0.1-0.8-0.4-1.1S45.5,84.7,45,84.7z"/>
		<path style="fill:#7ED1E9;" d="M51.1,84.6c0.2-0.3,0.5-0.5,0.8-0.7c0.3-0.2,0.7-0.3,1.1-0.3c0.5,0,0.9,0.1,1.3,0.3
			c0.4,0.2,0.7,0.4,1,0.7c0.3,0.3,0.5,0.6,0.6,1c0.2,0.4,0.2,0.8,0.2,1.2c0,0.4-0.1,0.8-0.2,1.2s-0.4,0.7-0.6,1
			c-0.3,0.3-0.6,0.5-1,0.7C53.9,89.9,53.5,90,53,90c-0.4,0-0.7-0.1-1.1-0.3c-0.4-0.2-0.6-0.4-0.8-0.7v3.9h-1.4v-9.1h1.4V84.6z
			 M52.9,84.9c-0.3,0-0.5,0.1-0.7,0.2c-0.2,0.1-0.4,0.2-0.6,0.4c-0.2,0.2-0.3,0.4-0.4,0.6c-0.1,0.2-0.1,0.5-0.1,0.7s0,0.5,0.1,0.7
			s0.2,0.4,0.4,0.6c0.2,0.2,0.3,0.3,0.6,0.4c0.2,0.1,0.5,0.2,0.7,0.2c0.3,0,0.5-0.1,0.7-0.2c0.2-0.1,0.4-0.2,0.6-0.4
			c0.2-0.2,0.3-0.4,0.4-0.6s0.1-0.5,0.1-0.7s0-0.5-0.1-0.7c-0.1-0.2-0.2-0.4-0.4-0.6c-0.2-0.2-0.3-0.3-0.6-0.4
			C53.4,84.9,53.2,84.9,52.9,84.9z"/>
		<path style="fill:#7ED1E9;" d="M29.8,105.5c0.1-0.5,0.3-0.9,0.5-1.2c0.2-0.3,0.5-0.6,0.8-0.9c0.3-0.2,0.6-0.5,1-0.7
			c0.2-0.1,0.4-0.2,0.6-0.4c0.2-0.1,0.4-0.3,0.6-0.4s0.3-0.3,0.4-0.5c0.1-0.2,0.2-0.4,0.2-0.7c0-0.4-0.1-0.8-0.4-1
			c-0.3-0.2-0.6-0.3-0.9-0.3c-0.4,0-0.7,0.1-1,0.4c-0.3,0.2-0.4,0.6-0.4,1.1h-1.5c0-0.5,0.1-0.9,0.2-1.2c0.2-0.4,0.4-0.7,0.6-0.9
			c0.3-0.2,0.6-0.4,0.9-0.5c0.4-0.1,0.7-0.2,1.1-0.2c0.4,0,0.8,0.1,1.1,0.2c0.3,0.1,0.6,0.3,0.9,0.5s0.4,0.5,0.6,0.9
			s0.2,0.7,0.2,1.2c0,0.4-0.1,0.8-0.3,1.1c-0.2,0.3-0.4,0.6-0.7,0.9c-0.3,0.2-0.5,0.5-0.8,0.6c-0.3,0.2-0.5,0.3-0.6,0.4
			c-0.3,0.2-0.6,0.4-0.8,0.6c-0.2,0.2-0.4,0.3-0.5,0.5c-0.1,0.2-0.2,0.3-0.2,0.5c0,0.2-0.1,0.4-0.1,0.6h3.9v1.3h-5.7
			C29.6,106.6,29.6,106,29.8,105.5z"/>
		<path style="fill:#7ED1E9;" d="M36.9,106.3c0-0.3,0.1-0.5,0.3-0.7s0.4-0.3,0.7-0.3c0.3,0,0.5,0.1,0.7,0.3c0.2,0.2,0.3,0.5,0.3,0.7
			c0,0.3-0.1,0.5-0.3,0.7c-0.2,0.2-0.5,0.3-0.7,0.3c-0.3,0-0.5-0.1-0.7-0.3C37,106.9,36.9,106.6,36.9,106.3z"/>
	</g>
	<g>
		<path style="fill:#7ED1E9;" d="M41.7,162.7c-0.3,0-0.6,0-0.9,0c-0.5,0-0.9-0.4-0.9-0.9c0-0.5,0.4-0.9,0.9-0.9c0,0,0,0,0,0
			c0.3,0,0.6,0,0.9,0c0.5,0,0.9,0.4,0.9,0.9S42.1,162.7,41.7,162.7z M36.4,162.3c0,0-0.1,0-0.1,0c-0.3,0-0.6-0.1-0.9-0.1
			c-0.5-0.1-0.8-0.5-0.7-1c0.1-0.5,0.5-0.8,1-0.7c0.3,0,0.6,0.1,0.8,0.1c0.5,0.1,0.8,0.5,0.8,1C37.2,162,36.9,162.3,36.4,162.3z
			 M31.3,161.3c-0.1,0-0.1,0-0.2,0c-0.3-0.1-0.6-0.2-0.9-0.2c-0.5-0.1-0.7-0.6-0.6-1.1c0.1-0.5,0.6-0.7,1.1-0.6
			c0.3,0.1,0.5,0.2,0.8,0.2c0.5,0.1,0.7,0.6,0.6,1.1C32,161.1,31.6,161.3,31.3,161.3z M26.3,159.7c-0.1,0-0.2,0-0.3-0.1
			c-0.3-0.1-0.6-0.2-0.8-0.3c-0.4-0.2-0.6-0.7-0.5-1.2c0.2-0.4,0.7-0.7,1.2-0.5c0.3,0.1,0.5,0.2,0.8,0.3c0.4,0.2,0.7,0.7,0.5,1.1
			C26.9,159.4,26.6,159.7,26.3,159.7z M21.5,157.4c-0.1,0-0.3,0-0.4-0.1c-0.3-0.1-0.5-0.3-0.8-0.5c-0.4-0.2-0.6-0.8-0.3-1.2
			c0.2-0.4,0.8-0.5,1.2-0.3c0.2,0.1,0.5,0.3,0.7,0.4c0.4,0.2,0.6,0.8,0.3,1.2C22.1,157.2,21.8,157.4,21.5,157.4z M17.1,154.5
			c-0.2,0-0.4-0.1-0.5-0.2c-0.2-0.2-0.5-0.4-0.7-0.5c-0.4-0.3-0.4-0.9-0.1-1.2c0.3-0.4,0.9-0.4,1.2-0.1c0.2,0.2,0.5,0.4,0.7,0.5
			c0.4,0.3,0.5,0.8,0.2,1.2C17.7,154.3,17.4,154.5,17.1,154.5z M13.1,151c-0.2,0-0.4-0.1-0.6-0.3c-0.2-0.2-0.4-0.4-0.6-0.6
			c-0.3-0.3-0.3-0.9,0-1.2c0.3-0.3,0.9-0.3,1.2,0c0.2,0.2,0.4,0.4,0.6,0.6c0.3,0.3,0.4,0.9,0,1.2C13.6,150.9,13.4,151,13.1,151z
			 M9.6,147.1c-0.3,0-0.5-0.1-0.7-0.3c-0.2-0.2-0.4-0.5-0.5-0.7c-0.3-0.4-0.2-0.9,0.2-1.2c0.4-0.3,0.9-0.2,1.2,0.2
			c0.2,0.2,0.3,0.5,0.5,0.7c0.3,0.4,0.2,0.9-0.1,1.2C10,147.1,9.8,147.1,9.6,147.1z M6.6,142.8c-0.3,0-0.6-0.2-0.8-0.4
			c-0.2-0.3-0.3-0.5-0.5-0.8c-0.2-0.4-0.1-1,0.3-1.2c0.4-0.2,1-0.1,1.2,0.3c0.1,0.2,0.3,0.5,0.4,0.7c0.2,0.4,0.1,1-0.3,1.2
			C7,142.8,6.8,142.8,6.6,142.8z M4.2,138.1c-0.3,0-0.7-0.2-0.8-0.5c-0.1-0.3-0.2-0.5-0.3-0.8c-0.2-0.4,0-1,0.5-1.1
			c0.5-0.2,1,0,1.1,0.5c0.1,0.3,0.2,0.5,0.3,0.8c0.2,0.4,0,1-0.5,1.2C4.5,138.1,4.4,138.1,4.2,138.1z M2.5,133.2
			c-0.4,0-0.7-0.3-0.8-0.6c-0.1-0.3-0.2-0.6-0.2-0.9c-0.1-0.5,0.2-0.9,0.6-1.1c0.5-0.1,0.9,0.2,1.1,0.6c0.1,0.3,0.1,0.6,0.2,0.8
			c0.1,0.5-0.1,1-0.6,1.1C2.6,133.2,2.5,133.2,2.5,133.2z M1.3,128c-0.4,0-0.8-0.3-0.9-0.7c0-0.3-0.1-0.6-0.1-0.9
			c-0.1-0.5,0.3-0.9,0.8-1c0.5-0.1,0.9,0.3,1,0.8c0,0.3,0.1,0.6,0.1,0.8c0.1,0.5-0.3,0.9-0.7,1C1.4,128,1.4,128,1.3,128z M0.9,122.8
			c-0.5,0-0.9-0.4-0.9-0.9c0-0.3,0-0.6,0-0.9c0-0.5,0.4-0.9,0.9-0.9c0,0,0,0,0,0c0.5,0,0.9,0.4,0.9,0.9c0,0.3,0,0.6,0,0.9
			C1.8,122.4,1.4,122.8,0.9,122.8C0.9,122.8,0.9,122.8,0.9,122.8z M0.9,117.5c-0.5,0-0.9-0.4-0.9-0.9v-0.9c0-0.5,0.4-0.9,0.9-0.9
			s0.9,0.4,0.9,0.9v0.9C1.8,117.1,1.4,117.5,0.9,117.5z M0.9,112.3c-0.5,0-0.9-0.4-0.9-0.9v-0.9c0-0.5,0.4-0.9,0.9-0.9
			s0.9,0.4,0.9,0.9v0.9C1.8,111.9,1.4,112.3,0.9,112.3z M0.9,107c-0.5,0-0.9-0.4-0.9-0.9v-0.9c0-0.5,0.4-0.9,0.9-0.9
			s0.9,0.4,0.9,0.9v0.9C1.8,106.6,1.4,107,0.9,107z M0.9,101.7c-0.5,0-0.9-0.4-0.9-0.9V100c0-0.5,0.4-0.9,0.9-0.9s0.9,0.4,0.9,0.9
			v0.9C1.8,101.3,1.4,101.7,0.9,101.7z M0.9,96.5c-0.5,0-0.9-0.4-0.9-0.9v-0.9c0-0.5,0.4-0.9,0.9-0.9s0.9,0.4,0.9,0.9v0.9
			C1.8,96.1,1.4,96.5,0.9,96.5z M0.9,91.2c-0.5,0-0.9-0.4-0.9-0.9v-0.9c0-0.5,0.4-0.9,0.9-0.9s0.9,0.4,0.9,0.9v0.9
			C1.8,90.8,1.4,91.2,0.9,91.2z M0.9,85.9c-0.5,0-0.9-0.4-0.9-0.9v-0.9c0-0.5,0.4-0.9,0.9-0.9s0.9,0.4,0.9,0.9v0.9
			C1.8,85.6,1.4,85.9,0.9,85.9z M0.9,80.7c-0.5,0-0.9-0.4-0.9-0.9v-0.9C0,78.4,0.4,78,0.9,78s0.9,0.4,0.9,0.9v0.9
			C1.8,80.3,1.4,80.7,0.9,80.7z M0.9,75.4C0.4,75.4,0,75,0,74.5v-0.9c0-0.5,0.4-0.9,0.9-0.9s0.9,0.4,0.9,0.9v0.9
			C1.8,75,1.4,75.4,0.9,75.4z M0.9,70.2c-0.5,0-0.9-0.4-0.9-0.9v-0.9c0-0.5,0.4-0.9,0.9-0.9s0.9,0.4,0.9,0.9v0.9
			C1.8,69.8,1.4,70.2,0.9,70.2z M0.9,64.9C0.4,64.9,0,64.5,0,64v-0.9c0-0.5,0.4-0.9,0.9-0.9s0.9,0.4,0.9,0.9V64
			C1.8,64.5,1.4,64.9,0.9,64.9z M0.9,59.6c-0.5,0-0.9-0.4-0.9-0.9v-0.9C0,57.4,0.4,57,0.9,57s0.9,0.4,0.9,0.9v0.9
			C1.8,59.2,1.4,59.6,0.9,59.6z M0.9,54.4C0.4,54.4,0,54,0,53.5v-0.9c0-0.5,0.4-0.9,0.9-0.9s0.9,0.4,0.9,0.9v0.9
			C1.8,54,1.4,54.4,0.9,54.4z M0.9,49.1c-0.5,0-0.9-0.4-0.9-0.9v-0.9c0-0.5,0.4-0.9,0.9-0.9s0.9,0.4,0.9,0.9v0.9
			C1.8,48.7,1.4,49.1,0.9,49.1z"/>
	</g>
</g>
</svg>
