<?xml version="1.0" encoding="utf-8"?>
<!-- Generator: Adobe Illustrator 18.0.0, SVG Export Plug-In . SVG Version: 6.00 Build 0)  -->
<!DOCTYPE svg PUBLIC "-//W3C//DTD SVG 1.1//EN" "http://www.w3.org/Graphics/SVG/1.1/DTD/svg11.dtd">
<svg version="1.1" id="Layer_1" xmlns="http://www.w3.org/2000/svg" xmlns:xlink="http://www.w3.org/1999/xlink" x="0px" y="0px"
	 viewBox="0 0 380.5 352.7" style="enable-background:new 0 0 380.5 352.7;" xml:space="preserve">
<g>
	<g>
		<g>
			<g>
				<path style="fill:#7ED1E9;" d="M252.8,244.2c-0.1,0-0.2,0-0.2-0.1l-13.4-7.9c-0.2-0.1-0.3-0.4-0.2-0.6c0.1-0.2,0.4-0.3,0.6-0.2
					l13.4,7.9c0.2,0.1,0.3,0.4,0.2,0.6C253.1,244.1,252.9,244.2,252.8,244.2z"/>
			</g>
			<g>
				<path style="fill:#7ED1E9;" d="M244.4,246.3c-0.2,0-0.4-0.1-0.5-0.4c-0.1-0.3,0.1-0.5,0.3-0.6l7.9-1.9l-2.1-7.8
					c-0.1-0.3,0.1-0.5,0.3-0.6c0.2-0.1,0.5,0.1,0.6,0.3l2.4,8.8l-8.8,2.2C244.5,246.3,244.4,246.3,244.4,246.3z"/>
			</g>
		</g>
		<g>
			<g>
				<path style="fill:#7ED1E9;" d="M111.8,16.7c-0.3,0-0.5-0.2-0.5-0.5V0.7c0-0.3,0.2-0.5,0.5-0.5s0.5,0.2,0.5,0.5v15.5
					C112.2,16.5,112,16.7,111.8,16.7z"/>
			</g>
			<g>
				<path style="fill:#7ED1E9;" d="M105.8,7.3c-0.1,0-0.2,0-0.3-0.1c-0.2-0.2-0.2-0.5,0-0.7l6.4-6.5l6.4,6.5c0.2,0.2,0.2,0.5,0,0.7
					c-0.2,0.2-0.5,0.2-0.7,0l-5.7-5.8l-5.7,5.8C106,7.3,105.9,7.3,105.8,7.3z"/>
			</g>
		</g>
		<g>
			<g>
				<path style="fill:#7ED1E9;" d="M79.4,352.5c-0.3,0-0.5-0.2-0.5-0.5v-15.5c0-0.3,0.2-0.5,0.5-0.5s0.5,0.2,0.5,0.5V352
					C79.9,352.3,79.7,352.5,79.4,352.5z"/>
			</g>
			<g>
				<path style="fill:#7ED1E9;" d="M79.4,352.7l-6.4-6.5c-0.2-0.2-0.2-0.5,0-0.7c0.2-0.2,0.5-0.2,0.7,0l5.7,5.8l5.7-5.8
					c0.2-0.2,0.5-0.2,0.7,0c0.2,0.2,0.2,0.5,0,0.7L79.4,352.7z"/>
			</g>
		</g>
	</g>
	<g>
		<g>
			<polygon style="fill:#052A39;" points="144.1,101.7 111.8,120.5 79.5,101.7 47.3,120.5 47.3,158.2 79.5,177 79.5,214.7 
				79.5,214.7 111.8,233.5 176.4,195.8 176.4,120.5 			"/>
		</g>
	</g>
	<g>
		<polygon style="fill:#2C5D6E;" points="111.8,121 79.9,103 47.7,121.3 111.8,157.5 175.9,121.3 143.8,103 		"/>
	</g>
	<g>
		<polygon style="fill:#052A39;" points="47.3,263.1 79.5,244.2 111.8,263.1 111.8,300.7 79.5,319.5 47.3,300.7 		"/>
	</g>
	<g>
		<path style="fill:#2C5D6E;" d="M110.6,263.7l-31,17.9l-31-17.9l31-18L110.6,263.7z"/>
	</g>
	<g>
		<path style="fill:#7ED1E9;" d="M79.5,320.7c-0.2,0-0.4-0.1-0.6-0.2l-32.3-18.8c-0.4-0.2-0.6-0.6-0.6-1v-37.7c0-0.4,0.2-0.8,0.6-1
			l32.3-18.8c0.4-0.2,0.8-0.2,1.2,0l32.3,18.8c0.4,0.2,0.6,0.6,0.6,1v37.7c0,0.4-0.2,0.8-0.6,1l-32.3,18.8
			C79.9,320.7,79.7,320.7,79.5,320.7z M48.4,300l31.1,18.1l31.1-18.1v-36.3l-31.1-18.1l-31.1,18.1V300z"/>
	</g>
	<g>
		<path style="fill:#7ED1E9;" d="M79.5,320.7c-0.6,0-1.2-0.5-1.2-1.2v-14c0-0.7,0.5-1.2,1.2-1.2s1.2,0.5,1.2,1.2v14
			C80.7,320.2,80.2,320.7,79.5,320.7z"/>
	</g>
	<g>
		<g>
			<polygon style="fill:#052A39;" points="111.8,97.7 79.4,51.8 111.8,33.2 144.1,51.8 			"/>
		</g>
	</g>
	<g>
		<path style="fill:#7ED1E9;" d="M111.8,97.7c-0.6,0-1.2-0.5-1.2-1.2V84.3c0-0.6,0.5-1.2,1.2-1.2s1.2,0.5,1.2,1.2v12.2
			C113,97.2,112.5,97.7,111.8,97.7z"/>
	</g>
	<g>
		<g>
			<path style="fill:#7ED1E9;" d="M111.8,234.7c-0.2,0-0.4-0.1-0.6-0.2l-32.3-18.8c-0.4-0.2-0.6-0.6-0.6-1v-37l-31.7-18.5
				c-0.4-0.2-0.6-0.6-0.6-1v-37.7c0-0.4,0.2-0.8,0.6-1l32.3-18.8c0.4-0.2,0.8-0.2,1.2,0l31.7,18.5l31.7-18.5c0.4-0.2,0.8-0.2,1.2,0
				l32.3,18.8c0.4,0.2,0.6,0.6,0.6,1v75.3c0,0.4-0.2,0.8-0.6,1l-64.5,37.7C112.2,234.6,112,234.7,111.8,234.7z M80.7,214l31.1,18.1
				l63.4-37v-74l-31.1-18.1l-31.7,18.5c-0.4,0.2-0.8,0.2-1.2,0l-31.7-18.5l-31.1,18.1v36.3L80.1,176c0.4,0.2,0.6,0.6,0.6,1V214z"/>
		</g>
	</g>
	<g>
		<path style="fill:#2C5D6E;" d="M143.4,51.5l-31.6,18.2L80.2,51.5l31.6-18.4L143.4,51.5z"/>
	</g>
	<g>
		<g>
			<path style="fill:#7ED1E9;" d="M111.8,98.9c-0.4,0-0.7-0.2-1-0.5L78.5,52.5c-0.2-0.3-0.3-0.6-0.2-0.9c0.1-0.3,0.3-0.6,0.6-0.8
				l32.3-18.7c0.4-0.2,0.8-0.2,1.2,0l32.3,18.7c0.3,0.2,0.5,0.4,0.6,0.8c0.1,0.3,0,0.7-0.2,0.9l-32.3,45.9
				C112.5,98.7,112.1,98.9,111.8,98.9z M81.1,52.2l30.6,43.5l30.6-43.5l-30.6-17.7L81.1,52.2z"/>
		</g>
	</g>
	<g>
		<g>
			<path style="fill:#1F4C5C;" d="M159.9,168.7c0.1-10.5-7.2-14.8-16.3-9.7c-9.1,5.1-16.6,17.8-16.7,28.3
				c-0.1,10.5,7.2,14.8,16.3,9.7C152.3,191.9,159.8,179.2,159.9,168.7z"/>
			<path style="fill:#7ED1E9;" d="M135.9,200.2L135.9,200.2c-2.6,0-4.9-0.9-6.7-2.7c-2.3-2.3-3.4-5.8-3.4-10.1
				c0.1-10.8,7.8-23.9,17.2-29.2c2.7-1.5,5.3-2.3,7.8-2.3c2.6,0,4.9,0.9,6.7,2.7c2.3,2.3,3.4,5.8,3.4,10.1
				c-0.1,10.8-7.8,23.9-17.2,29.2C141,199.4,138.4,200.2,135.9,200.2z M150.8,157.9c-2.1,0-4.4,0.7-6.8,2
				c-8.8,5-16.1,17.3-16.2,27.4c0,3.8,0.9,6.8,2.8,8.7c1.4,1.4,3.2,2.1,5.3,2.1c2.1,0,4.4-0.7,6.8-2c8.8-5,16.1-17.3,16.2-27.4
				c0-3.8-0.9-6.8-2.8-8.7C154.7,158.6,152.9,157.9,150.8,157.9z"/>
		</g>
	</g>
	<g>
		<path style="fill:#052A39;" d="M199,191.6c0.1-10.5-7.2-14.8-16.3-9.7s-16.6,17.8-16.7,28.3c-0.1,10.5,7.2,14.8,16.3,9.7
			C191.4,214.8,198.8,202.1,199,191.6z"/>
	</g>
	<g>
		<g>
			<path style="fill:#2C5D6E;" d="M231.7,211c0.1-10.5-7.2-14.8-16.3-9.7c-9.1,5.1-16.6,17.8-16.7,28.3c-0.1,10.5,7.2,14.8,16.3,9.7
				C224.1,234.1,231.5,221.4,231.7,211z"/>
		</g>
	</g>
	<g>
		<path style="fill:#7ED1E9;" d="M207.7,242.6L207.7,242.6c-1.7,0-3.3-0.4-4.8-1.2c0,0-0.1,0-0.1-0.1l-0.1-0.1c0,0,0,0,0,0L170,222
			c0,0,0,0-0.1,0c-3.4-2.1-5.3-6.2-5.2-11.7c0.1-10.8,7.9-24,17.3-29.3c4.7-2.7,9.3-3,12.8-1l32.9,19.4c0,0,0.1,0,0.1,0.1
			c3.3,2.1,5.1,6.2,5.1,11.6c-0.1,10.8-7.9,24-17.3,29.3C212.8,241.8,210.1,242.6,207.7,242.6z M203.9,239.3
			C203.9,239.3,204,239.3,203.9,239.3c2.8,1.6,6.5,1.2,10.4-1.1c8.8-5,16-17.2,16.1-27.3c0-4.6-1.4-8-4-9.6c0,0,0,0-0.1,0l0,0
			L193.7,182c-2.8-1.6-6.5-1.2-10.5,1c-8.8,5-16,17.2-16.1,27.3c0,4.6,1.4,8,4.1,9.6c0,0,0,0,0.1,0L203.9,239.3
			C203.9,239.3,203.9,239.3,203.9,239.3L203.9,239.3z"/>
	</g>
	<g>
		<path style="fill:#7ED1E9;" d="M186.7,221.9c-0.2,0-0.4-0.1-0.6-0.2l-8.7-5.2c-0.6-0.3-0.7-1.1-0.4-1.6c0.3-0.6,1.1-0.7,1.6-0.4
			l8.7,5.2c0.6,0.3,0.7,1.1,0.4,1.6C187.5,221.7,187.1,221.9,186.7,221.9z"/>
	</g>
	<g>
		<path style="fill:#7ED1E9;" d="M194,226.2c-0.2,0-0.4-0.1-0.6-0.2l-3.4-2c-0.6-0.3-0.7-1.1-0.4-1.6c0.3-0.6,1.1-0.7,1.6-0.4l3.4,2
			c0.6,0.3,0.7,1.1,0.4,1.6C194.8,226,194.4,226.2,194,226.2z"/>
	</g>
	<g>
		<path style="fill:#7ED1E9;" d="M176,83c0.2,0.1,0.5,0.1,0.7,0.1c0.3,0,0.5,0,0.7,0c0.3,0,0.7,0,1-0.1c0.3-0.1,0.6-0.2,0.8-0.4
			c0.2-0.2,0.4-0.4,0.6-0.7c0.1-0.3,0.2-0.6,0.2-1c0-0.2-0.1-0.5-0.2-0.8c-0.1-0.3-0.3-0.5-0.5-0.8s-0.5-0.4-0.8-0.6
			c-0.3-0.1-0.7-0.2-1.2-0.2h-0.8v-1.4h0.7c0.4,0,0.8-0.1,1.1-0.2s0.5-0.3,0.7-0.5c0.2-0.2,0.3-0.4,0.4-0.7c0.1-0.3,0.1-0.5,0.1-0.8
			c0-0.6-0.2-1.1-0.7-1.5c-0.4-0.4-1-0.5-1.7-0.5c-0.7,0-1.2,0.2-1.6,0.7c-0.4,0.4-0.6,1-0.6,1.7v9h-1.5v-9c0-0.5,0.1-1.1,0.3-1.5
			c0.2-0.5,0.4-0.9,0.8-1.2c0.3-0.3,0.7-0.6,1.2-0.8s1-0.3,1.6-0.3c0.5,0,1,0.1,1.5,0.2c0.5,0.2,0.9,0.4,1.2,0.7
			c0.4,0.3,0.6,0.7,0.8,1.1c0.2,0.4,0.3,0.9,0.3,1.4c0,0.8-0.2,1.4-0.6,1.8c-0.4,0.5-0.9,0.8-1.5,1c0.7,0.2,1.2,0.6,1.7,1.1
			c0.5,0.5,0.7,1.2,0.7,1.9c0,0.6-0.1,1.2-0.3,1.6c-0.2,0.5-0.5,0.9-0.9,1.2c-0.4,0.3-0.8,0.5-1.3,0.7c-0.5,0.2-1,0.2-1.5,0.2
			c-0.3,0-0.6,0-0.8-0.1c-0.3,0-0.5-0.1-0.6-0.2V83z"/>
	</g>
	<g>
		<path style="fill:#7ED1E9;" d="M111.8,234.9c-0.6,0-1.2-0.5-1.2-1.2v-23.3c0-0.7,0.5-1.2,1.2-1.2s1.2,0.5,1.2,1.2v23.3
			C113,234.4,112.5,234.9,111.8,234.9z"/>
	</g>
	<g>
		<path style="fill:#7ED1E9;" d="M111.8,77.1c-0.6,0-1.2-0.5-1.2-1.2v-4.2c0-0.6,0.5-1.2,1.2-1.2s1.2,0.5,1.2,1.2v4.2
			C113,76.5,112.5,77.1,111.8,77.1z"/>
	</g>
	<g>
		<g>
			<path style="fill:#7ED1E9;" d="M47.3,255.3c-0.5,0-0.9-0.4-0.9-0.9v-0.9c0-0.5,0.4-0.9,0.9-0.9s0.9,0.4,0.9,0.9v0.9
				C48.1,254.9,47.7,255.3,47.3,255.3z M47.3,250.1c-0.5,0-0.9-0.4-0.9-0.9v-0.9c0-0.5,0.4-0.9,0.9-0.9s0.9,0.4,0.9,0.9v0.9
				C48.1,249.7,47.7,250.1,47.3,250.1z M47.3,244.8c-0.5,0-0.9-0.4-0.9-0.9v-0.9c0-0.5,0.4-0.9,0.9-0.9s0.9,0.4,0.9,0.9v0.9
				C48.1,244.4,47.7,244.8,47.3,244.8z M47.3,239.5c-0.5,0-0.9-0.4-0.9-0.9v-0.9c0-0.5,0.4-0.9,0.9-0.9s0.9,0.4,0.9,0.9v0.9
				C48.1,239.2,47.7,239.5,47.3,239.5z M47.3,234.3c-0.5,0-0.9-0.4-0.9-0.9v-0.9c0-0.5,0.4-0.9,0.9-0.9s0.9,0.4,0.9,0.9v0.9
				C48.1,233.9,47.7,234.3,47.3,234.3z M47.3,229c-0.5,0-0.9-0.4-0.9-0.9v-0.9c0-0.5,0.4-0.9,0.9-0.9s0.9,0.4,0.9,0.9v0.9
				C48.1,228.6,47.7,229,47.3,229z M47.3,223.8c-0.5,0-0.9-0.4-0.9-0.9V222c0-0.5,0.4-0.9,0.9-0.9s0.9,0.4,0.9,0.9v0.9
				C48.1,223.4,47.7,223.8,47.3,223.8z M47.3,218.5c-0.5,0-0.9-0.4-0.9-0.9v-0.9c0-0.5,0.4-0.9,0.9-0.9s0.9,0.4,0.9,0.9v0.9
				C48.1,218.1,47.7,218.5,47.3,218.5z M47.3,213.2c-0.5,0-0.9-0.4-0.9-0.9v-0.9c0-0.5,0.4-0.9,0.9-0.9s0.9,0.4,0.9,0.9v0.9
				C48.1,212.8,47.7,213.2,47.3,213.2z M47.3,208c-0.5,0-0.9-0.4-0.9-0.9v-0.9c0-0.5,0.4-0.9,0.9-0.9s0.9,0.4,0.9,0.9v0.9
				C48.1,207.6,47.7,208,47.3,208z M47.3,202.7c-0.5,0-0.9-0.4-0.9-0.9v-0.9c0-0.5,0.4-0.9,0.9-0.9s0.9,0.4,0.9,0.9v0.9
				C48.1,202.3,47.7,202.7,47.3,202.7z M47.3,197.4c-0.5,0-0.9-0.4-0.9-0.9v-0.9c0-0.5,0.4-0.9,0.9-0.9s0.9,0.4,0.9,0.9v0.9
				C48.1,197,47.7,197.4,47.3,197.4z M47.3,192.2c-0.5,0-0.9-0.4-0.9-0.9v-0.9c0-0.5,0.4-0.9,0.9-0.9s0.9,0.4,0.9,0.9v0.9
				C48.1,191.8,47.7,192.2,47.3,192.2z M47.3,186.9c-0.5,0-0.9-0.4-0.9-0.9v-0.9c0-0.5,0.4-0.9,0.9-0.9s0.9,0.4,0.9,0.9v0.9
				C48.1,186.5,47.7,186.9,47.3,186.9z M47.3,181.6c-0.5,0-0.9-0.4-0.9-0.9v-0.9c0-0.5,0.4-0.9,0.9-0.9s0.9,0.4,0.9,0.9v0.9
				C48.1,181.2,47.7,181.6,47.3,181.6z M47.3,176.4c-0.5,0-0.9-0.4-0.9-0.9v-0.9c0-0.5,0.4-0.9,0.9-0.9s0.9,0.4,0.9,0.9v0.9
				C48.1,176,47.7,176.4,47.3,176.4z M47.3,171.1c-0.5,0-0.9-0.4-0.9-0.9v-0.9c0-0.5,0.4-0.9,0.9-0.9s0.9,0.4,0.9,0.9v0.9
				C48.1,170.7,47.7,171.1,47.3,171.1z M47.3,165.8c-0.5,0-0.9-0.4-0.9-0.9v-0.9c0-0.5,0.4-0.9,0.9-0.9s0.9,0.4,0.9,0.9v0.9
				C48.1,165.5,47.7,165.8,47.3,165.8z"/>
		</g>
		<g>
			<path style="fill:#7ED1E9;" d="M111.8,255.8c-0.5,0-0.9-0.4-0.9-0.9V254c0-0.5,0.4-0.9,0.9-0.9s0.9,0.4,0.9,0.9v0.9
				C112.7,255.4,112.3,255.8,111.8,255.8z M111.8,250.5c-0.5,0-0.9-0.4-0.9-0.9v-0.9c0-0.5,0.4-0.9,0.9-0.9s0.9,0.4,0.9,0.9v0.9
				C112.7,250.1,112.3,250.5,111.8,250.5z M111.8,245.2c-0.5,0-0.9-0.4-0.9-0.9v-0.9c0-0.5,0.4-0.9,0.9-0.9s0.9,0.4,0.9,0.9v0.9
				C112.7,244.8,112.3,245.2,111.8,245.2z M111.8,240c-0.5,0-0.9-0.4-0.9-0.9v-0.9c0-0.5,0.4-0.9,0.9-0.9s0.9,0.4,0.9,0.9v0.9
				C112.7,239.6,112.3,240,111.8,240z"/>
		</g>
		<g>
			<path style="fill:#7ED1E9;" d="M79.5,97.9c-0.5,0-0.9-0.4-0.9-0.9v-0.9c0-0.5,0.4-0.9,0.9-0.9s0.9,0.4,0.9,0.9V97
				C80.4,97.5,80,97.9,79.5,97.9z M79.5,92.7c-0.5,0-0.9-0.4-0.9-0.9v-0.9c0-0.5,0.4-0.9,0.9-0.9s0.9,0.4,0.9,0.9v0.9
				C80.4,92.3,80,92.7,79.5,92.7z M79.5,87.4c-0.5,0-0.9-0.4-0.9-0.9v-0.9c0-0.5,0.4-0.9,0.9-0.9s0.9,0.4,0.9,0.9v0.9
				C80.4,87,80,87.4,79.5,87.4z M79.5,82.1c-0.5,0-0.9-0.4-0.9-0.9v-0.9c0-0.5,0.4-0.9,0.9-0.9s0.9,0.4,0.9,0.9v0.9
				C80.4,81.7,80,82.1,79.5,82.1z M79.5,76.9c-0.5,0-0.9-0.4-0.9-0.9v-0.9c0-0.5,0.4-0.9,0.9-0.9s0.9,0.4,0.9,0.9V76
				C80.4,76.5,80,76.9,79.5,76.9z M79.5,71.6c-0.5,0-0.9-0.4-0.9-0.9v-0.9c0-0.5,0.4-0.9,0.9-0.9s0.9,0.4,0.9,0.9v0.9
				C80.4,71.2,80,71.6,79.5,71.6z M79.5,66.3c-0.5,0-0.9-0.4-0.9-0.9v-0.9c0-0.5,0.4-0.9,0.9-0.9s0.9,0.4,0.9,0.9v0.9
				C80.4,65.9,80,66.3,79.5,66.3z M79.5,61.1c-0.5,0-0.9-0.4-0.9-0.9v-0.9c0-0.5,0.4-0.9,0.9-0.9s0.9,0.4,0.9,0.9v0.9
				C80.4,60.7,80,61.1,79.5,61.1z"/>
		</g>
		<g>
			<path style="fill:#7ED1E9;" d="M144.2,97.9c-0.5,0-0.9-0.4-0.9-0.9v-0.9c0-0.5,0.4-0.9,0.9-0.9s0.9,0.4,0.9,0.9V97
				C145.1,97.5,144.7,97.9,144.2,97.9z M144.2,92.7c-0.5,0-0.9-0.4-0.9-0.9v-0.9c0-0.5,0.4-0.9,0.9-0.9s0.9,0.4,0.9,0.9v0.9
				C145.1,92.3,144.7,92.7,144.2,92.7z M144.2,87.4c-0.5,0-0.9-0.4-0.9-0.9v-0.9c0-0.5,0.4-0.9,0.9-0.9s0.9,0.4,0.9,0.9v0.9
				C145.1,87,144.7,87.4,144.2,87.4z M144.2,82.1c-0.5,0-0.9-0.4-0.9-0.9v-0.9c0-0.5,0.4-0.9,0.9-0.9s0.9,0.4,0.9,0.9v0.9
				C145.1,81.7,144.7,82.1,144.2,82.1z M144.2,76.9c-0.5,0-0.9-0.4-0.9-0.9v-0.9c0-0.5,0.4-0.9,0.9-0.9s0.9,0.4,0.9,0.9V76
				C145.1,76.5,144.7,76.9,144.2,76.9z M144.2,71.6c-0.5,0-0.9-0.4-0.9-0.9v-0.9c0-0.5,0.4-0.9,0.9-0.9s0.9,0.4,0.9,0.9v0.9
				C145.1,71.2,144.7,71.6,144.2,71.6z M144.2,66.3c-0.5,0-0.9-0.4-0.9-0.9v-0.9c0-0.5,0.4-0.9,0.9-0.9s0.9,0.4,0.9,0.9v0.9
				C145.1,65.9,144.7,66.3,144.2,66.3z M144.2,61.1c-0.5,0-0.9-0.4-0.9-0.9v-0.9c0-0.5,0.4-0.9,0.9-0.9s0.9,0.4,0.9,0.9v0.9
				C145.1,60.7,144.7,61.1,144.2,61.1z"/>
		</g>
		<g>
			<path style="fill:#7ED1E9;" d="M188.9,178.5c-0.1,0-0.3,0-0.4-0.1l-0.5-0.3c-0.4-0.2-0.6-0.8-0.3-1.2c0.2-0.4,0.8-0.6,1.2-0.3
				l0.5,0.3c0.4,0.2,0.6,0.8,0.3,1.2C189.5,178.4,189.2,178.5,188.9,178.5z M184.6,176c-0.2,0-0.3,0-0.4-0.1l-0.8-0.4
				c-0.4-0.2-0.6-0.8-0.3-1.2c0.2-0.4,0.8-0.6,1.2-0.3l0.8,0.4c0.4,0.2,0.6,0.8,0.3,1.2C185.2,175.8,184.9,176,184.6,176z
				 M180,173.3c-0.2,0-0.3,0-0.4-0.1l-0.8-0.4c-0.4-0.2-0.6-0.8-0.3-1.2c0.2-0.4,0.8-0.6,1.2-0.3l0.8,0.4c0.4,0.2,0.6,0.8,0.3,1.2
				C180.6,173.2,180.3,173.3,180,173.3z M175.5,170.7c-0.2,0-0.3,0-0.4-0.1l-0.8-0.4c-0.4-0.2-0.6-0.8-0.3-1.2
				c0.2-0.4,0.8-0.6,1.2-0.3l0.8,0.4c0.4,0.2,0.6,0.8,0.3,1.2C176.1,170.5,175.8,170.7,175.5,170.7z M171,168c-0.2,0-0.3,0-0.4-0.1
				l-0.8-0.4c-0.4-0.2-0.6-0.8-0.3-1.2c0.2-0.4,0.8-0.6,1.2-0.3l0.8,0.4c0.4,0.2,0.6,0.8,0.3,1.2C171.5,167.9,171.3,168,171,168z
				 M166.4,165.4c-0.2,0-0.3,0-0.4-0.1l-0.8-0.4c-0.4-0.2-0.6-0.8-0.3-1.2c0.2-0.4,0.8-0.6,1.2-0.3l0.8,0.4c0.4,0.2,0.6,0.8,0.3,1.2
				C167,165.2,166.7,165.4,166.4,165.4z M161.9,162.7c-0.2,0-0.3,0-0.4-0.1l-0.8-0.4c-0.4-0.2-0.6-0.8-0.3-1.2
				c0.2-0.4,0.8-0.6,1.2-0.3l0.8,0.4c0.4,0.2,0.6,0.8,0.3,1.2C162.5,162.6,162.2,162.7,161.9,162.7z"/>
		</g>
		<g>
			<path style="fill:#7ED1E9;" d="M165.2,218.5c-0.1,0-0.3,0-0.4-0.1l-0.3-0.2c-0.4-0.2-0.6-0.8-0.3-1.2c0.2-0.4,0.8-0.6,1.2-0.3
				l0.3,0.2c0.4,0.2,0.6,0.8,0.3,1.2C165.8,218.4,165.6,218.5,165.2,218.5z M161.2,216.2c-0.1,0-0.3,0-0.4-0.1l-0.8-0.4
				c-0.4-0.2-0.6-0.8-0.3-1.2s0.8-0.6,1.2-0.3l0.8,0.4c0.4,0.2,0.6,0.8,0.3,1.2C161.8,216,161.5,216.2,161.2,216.2z M156.6,213.6
				c-0.1,0-0.3,0-0.4-0.1l-0.8-0.4c-0.4-0.2-0.6-0.8-0.3-1.2c0.2-0.4,0.8-0.6,1.2-0.3l0.8,0.4c0.4,0.2,0.6,0.8,0.3,1.2
				C157.2,213.4,156.9,213.6,156.6,213.6z M152.1,210.9c-0.1,0-0.3,0-0.4-0.1l-0.8-0.4c-0.4-0.2-0.6-0.8-0.3-1.2
				c0.2-0.4,0.8-0.6,1.2-0.3l0.8,0.4c0.4,0.2,0.6,0.8,0.3,1.2C152.7,210.8,152.4,210.9,152.1,210.9z M147.5,208.3
				c-0.1,0-0.3,0-0.4-0.1l-0.8-0.4c-0.4-0.2-0.6-0.8-0.3-1.2c0.2-0.4,0.8-0.6,1.2-0.3l0.8,0.4c0.4,0.2,0.6,0.8,0.3,1.2
				C148.1,208.1,147.8,208.3,147.5,208.3z M142.9,205.7c-0.1,0-0.3,0-0.4-0.1l-0.8-0.4c-0.4-0.2-0.6-0.8-0.3-1.2
				c0.2-0.4,0.8-0.6,1.2-0.3l0.8,0.4c0.4,0.2,0.6,0.8,0.3,1.2C143.5,205.5,143.2,205.7,142.9,205.7z M138.4,203
				c-0.1,0-0.3,0-0.4-0.1l-0.8-0.4c-0.4-0.2-0.6-0.8-0.3-1.2c0.2-0.4,0.8-0.6,1.2-0.3l0.8,0.4c0.4,0.2,0.6,0.8,0.3,1.2
				C139,202.9,138.7,203,138.4,203z"/>
		</g>
	</g>
	<g>
		<g>
			<path style="fill:#7ED1E9;" d="M210.9,234.7c-0.4,0-0.8-0.2-1-0.6c-0.3-0.6-0.1-1.3,0.4-1.6c7.2-4.1,13.1-14.1,13.2-22.3
				c0-0.6,0.5-1.2,1.2-1.2c0,0,0,0,0,0c0.7,0,1.2,0.5,1.2,1.2c-0.1,9-6.5,19.9-14.4,24.4C211.3,234.7,211.1,234.7,210.9,234.7z"/>
		</g>
	</g>
	<g>
		
			<path style="fill:none;stroke:#7ED1E9;stroke-width:2.3539;stroke-linecap:round;stroke-linejoin:round;stroke-miterlimit:10;" d="
			M111.8,159.1"/>
	</g>
	<g>
		<g>
			<path style="fill:#518EA1;" d="M82,27.4c0.2,0,0.4,0.1,0.6,0.1c0.2,0,0.4,0,0.5,0c0.3,0,0.5,0,0.7-0.1s0.4-0.2,0.6-0.3
				c0.2-0.1,0.3-0.3,0.4-0.6c0.1-0.2,0.2-0.5,0.2-0.8c0-0.2,0-0.4-0.1-0.6c-0.1-0.2-0.2-0.4-0.4-0.6s-0.4-0.3-0.6-0.4
				C83.6,24.1,83.3,24,83,24h-0.6V23H83c0.3,0,0.6,0,0.8-0.1s0.4-0.2,0.6-0.3s0.3-0.3,0.3-0.5c0.1-0.2,0.1-0.4,0.1-0.6
				c0-0.5-0.2-0.8-0.5-1.1c-0.3-0.3-0.8-0.4-1.3-0.4c-0.5,0-0.9,0.2-1.2,0.5s-0.5,0.8-0.5,1.3v6.8h-1.2v-6.8c0-0.4,0.1-0.8,0.2-1.1
				c0.1-0.3,0.3-0.6,0.6-0.9s0.6-0.4,0.9-0.6s0.7-0.2,1.2-0.2c0.4,0,0.8,0.1,1.1,0.2s0.7,0.3,0.9,0.5c0.3,0.2,0.5,0.5,0.6,0.8
				c0.2,0.3,0.2,0.7,0.2,1.1c0,0.6-0.1,1-0.4,1.4c-0.3,0.4-0.7,0.6-1.2,0.8c0.5,0.2,0.9,0.4,1.3,0.8c0.3,0.4,0.5,0.9,0.5,1.4
				c0,0.5-0.1,0.9-0.3,1.2c-0.2,0.4-0.4,0.6-0.7,0.9c-0.3,0.2-0.6,0.4-1,0.5c-0.4,0.1-0.8,0.2-1.2,0.2c-0.2,0-0.4,0-0.6,0
				c-0.2,0-0.3-0.1-0.5-0.1V27.4z"/>
			<path style="fill:#518EA1;" d="M88.3,22.8c0.1-0.3,0.2-0.5,0.3-0.7c0.1-0.2,0.3-0.4,0.5-0.5s0.4-0.3,0.7-0.4
				c0.1-0.1,0.3-0.1,0.4-0.2c0.1-0.1,0.3-0.2,0.4-0.3c0.1-0.1,0.2-0.2,0.3-0.4s0.1-0.3,0.1-0.5c0-0.3-0.1-0.5-0.3-0.7
				C90.5,19,90.3,19,90,19c-0.3,0-0.5,0.1-0.7,0.3c-0.2,0.2-0.3,0.5-0.3,0.8h-0.7c0-0.3,0-0.5,0.1-0.7s0.2-0.4,0.4-0.5
				c0.2-0.1,0.3-0.3,0.6-0.3c0.2-0.1,0.4-0.1,0.7-0.1c0.2,0,0.5,0,0.7,0.1c0.2,0.1,0.4,0.2,0.5,0.3s0.3,0.3,0.3,0.5s0.1,0.4,0.1,0.7
				c0,0.3-0.1,0.5-0.2,0.7c-0.1,0.2-0.2,0.4-0.4,0.5c-0.2,0.1-0.3,0.3-0.5,0.4s-0.3,0.2-0.4,0.2c-0.2,0.1-0.4,0.3-0.6,0.4
				c-0.1,0.1-0.3,0.2-0.3,0.3c-0.1,0.1-0.1,0.2-0.2,0.4c0,0.1,0,0.3,0,0.5h2.6v0.6h-3.5C88.2,23.5,88.2,23.1,88.3,22.8z"/>
		</g>
		<g>
			<path style="fill:#518EA1;" d="M193.8,267.3c0.2,0,0.4,0.1,0.6,0.1c0.2,0,0.4,0,0.5,0c0.3,0,0.5,0,0.7-0.1s0.4-0.2,0.6-0.3
				c0.2-0.1,0.3-0.3,0.4-0.6c0.1-0.2,0.2-0.5,0.2-0.8c0-0.2,0-0.4-0.1-0.6c-0.1-0.2-0.2-0.4-0.4-0.6s-0.4-0.3-0.6-0.4
				c-0.2-0.1-0.5-0.2-0.9-0.2h-0.6v-1.1h0.5c0.3,0,0.6,0,0.8-0.1s0.4-0.2,0.6-0.3s0.3-0.3,0.3-0.5c0.1-0.2,0.1-0.4,0.1-0.6
				c0-0.5-0.2-0.8-0.5-1.1c-0.3-0.3-0.8-0.4-1.3-0.4c-0.5,0-0.9,0.2-1.2,0.5s-0.5,0.8-0.5,1.3v6.8h-1.2v-6.8c0-0.4,0.1-0.8,0.2-1.1
				c0.1-0.3,0.3-0.6,0.6-0.9s0.6-0.4,0.9-0.6s0.7-0.2,1.2-0.2c0.4,0,0.8,0.1,1.1,0.2s0.7,0.3,0.9,0.5c0.3,0.2,0.5,0.5,0.6,0.8
				c0.2,0.3,0.2,0.7,0.2,1.1c0,0.6-0.1,1-0.4,1.4c-0.3,0.4-0.7,0.6-1.2,0.8c0.5,0.2,0.9,0.4,1.3,0.8c0.3,0.4,0.5,0.9,0.5,1.4
				c0,0.5-0.1,0.9-0.3,1.2c-0.2,0.4-0.4,0.6-0.7,0.9c-0.3,0.2-0.6,0.4-1,0.5c-0.4,0.1-0.8,0.2-1.2,0.2c-0.2,0-0.4,0-0.6,0
				c-0.2,0-0.3-0.1-0.5-0.1V267.3z"/>
			<path style="fill:#518EA1;" d="M199.9,259.2c0.2,0,0.4,0,0.6-0.1c0.2,0,0.3-0.1,0.4-0.2c0.1-0.1,0.1-0.2,0.2-0.3
				c0-0.1,0-0.3,0-0.4h0.7v5.5H201v-4h-1.1V259.2z"/>
		</g>
		<g>
			<path style="fill:#518EA1;" d="M49,334.6c0.2,0,0.4,0.1,0.6,0.1c0.2,0,0.4,0,0.5,0c0.3,0,0.5,0,0.7-0.1s0.4-0.2,0.6-0.3
				c0.2-0.1,0.3-0.3,0.4-0.6c0.1-0.2,0.2-0.5,0.2-0.8c0-0.2,0-0.4-0.1-0.6c-0.1-0.2-0.2-0.4-0.4-0.6s-0.4-0.3-0.6-0.4
				c-0.2-0.1-0.5-0.2-0.9-0.2h-0.6v-1.1H50c0.3,0,0.6,0,0.8-0.1s0.4-0.2,0.6-0.3s0.3-0.3,0.3-0.5c0.1-0.2,0.1-0.4,0.1-0.6
				c0-0.5-0.2-0.8-0.5-1.1c-0.3-0.3-0.8-0.4-1.3-0.4c-0.5,0-0.9,0.2-1.2,0.5s-0.5,0.8-0.5,1.3v6.8h-1.2v-6.8c0-0.4,0.1-0.8,0.2-1.1
				c0.1-0.3,0.3-0.6,0.6-0.9s0.6-0.4,0.9-0.6s0.7-0.2,1.2-0.2c0.4,0,0.8,0.1,1.1,0.2s0.7,0.3,0.9,0.5c0.3,0.2,0.5,0.5,0.6,0.8
				c0.2,0.3,0.2,0.7,0.2,1.1c0,0.6-0.1,1-0.4,1.4c-0.3,0.4-0.7,0.6-1.2,0.8c0.5,0.2,0.9,0.4,1.3,0.8c0.3,0.4,0.5,0.9,0.5,1.4
				c0,0.5-0.1,0.9-0.3,1.2c-0.2,0.4-0.4,0.6-0.7,0.9c-0.3,0.2-0.6,0.4-1,0.5c-0.4,0.1-0.8,0.2-1.2,0.2c-0.2,0-0.4,0-0.6,0
				c-0.2,0-0.3-0.1-0.5-0.1V334.6z"/>
			<path style="fill:#518EA1;" d="M55.9,329.4c0,0.2,0,0.3,0.1,0.5c0.1,0.1,0.1,0.3,0.2,0.4c0.1,0.1,0.2,0.2,0.4,0.2
				c0.1,0.1,0.3,0.1,0.5,0.1c0.2,0,0.3,0,0.5-0.1c0.1-0.1,0.2-0.1,0.3-0.2s0.2-0.2,0.2-0.3c0-0.1,0.1-0.2,0.1-0.4
				c0-0.3-0.1-0.5-0.3-0.7c-0.2-0.2-0.5-0.3-0.9-0.3h-0.4v-0.6H57c0.4,0,0.6-0.1,0.8-0.3c0.2-0.2,0.2-0.4,0.2-0.7s-0.1-0.5-0.3-0.6
				c-0.2-0.1-0.4-0.2-0.7-0.2c-0.4,0-0.6,0.1-0.8,0.3c-0.2,0.2-0.2,0.4-0.2,0.7h-0.7c0-0.2,0-0.5,0.1-0.7c0.1-0.2,0.2-0.4,0.4-0.5
				c0.1-0.1,0.3-0.3,0.5-0.3s0.4-0.1,0.7-0.1c0.2,0,0.5,0,0.7,0.1c0.2,0.1,0.4,0.2,0.5,0.3s0.3,0.3,0.4,0.5c0.1,0.2,0.1,0.4,0.1,0.6
				c0,0.3-0.1,0.6-0.2,0.8c-0.2,0.2-0.4,0.4-0.6,0.4c0.3,0.1,0.5,0.2,0.7,0.5c0.2,0.2,0.3,0.5,0.3,0.9c0,0.2,0,0.5-0.1,0.7
				c-0.1,0.2-0.2,0.4-0.4,0.5c-0.2,0.1-0.4,0.3-0.6,0.3s-0.5,0.1-0.7,0.1c-0.3,0-0.5,0-0.7-0.1c-0.2-0.1-0.4-0.2-0.6-0.4
				c-0.2-0.2-0.3-0.4-0.4-0.6c-0.1-0.2-0.2-0.5-0.2-0.8H55.9z"/>
		</g>
	</g>
	<g>
		<path style="fill:#7ED1E9;" d="M1.6,36.5c0,0.6,0.2,1.1,0.5,1.4c0.3,0.3,0.8,0.5,1.3,0.5c0.2,0,0.4,0,0.6-0.1
			c0.2-0.1,0.3-0.2,0.5-0.3c0.1-0.1,0.2-0.3,0.3-0.4c0.1-0.2,0.1-0.4,0.1-0.6c0-0.2,0-0.4-0.1-0.6c-0.1-0.2-0.2-0.3-0.4-0.4
			c-0.1-0.1-0.3-0.2-0.5-0.3c-0.2-0.1-0.3-0.1-0.5-0.2c-0.4-0.1-0.8-0.3-1.2-0.4s-0.7-0.3-1-0.5c-0.3-0.2-0.5-0.5-0.6-0.8
			c-0.2-0.3-0.2-0.7-0.2-1.1c0-0.4,0.1-0.7,0.2-1c0.2-0.3,0.4-0.6,0.6-0.8c0.3-0.2,0.6-0.4,0.9-0.5c0.3-0.1,0.7-0.2,1.1-0.2
			c0.4,0,0.8,0.1,1.1,0.2c0.4,0.1,0.7,0.3,0.9,0.6s0.5,0.5,0.6,0.9c0.1,0.3,0.2,0.7,0.2,1.2H4.7c0-0.4-0.1-0.8-0.4-1.1
			c-0.2-0.3-0.6-0.4-1-0.4c-0.4,0-0.7,0.1-1,0.3C2.1,32,2,32.3,2,32.6c0,0.2,0,0.3,0.1,0.5c0.1,0.1,0.2,0.3,0.3,0.4
			c0.1,0.1,0.3,0.2,0.4,0.3c0.2,0.1,0.3,0.1,0.5,0.2c0.4,0.1,0.7,0.3,1.1,0.4c0.4,0.1,0.7,0.3,1,0.5c0.3,0.2,0.5,0.5,0.7,0.8
			c0.2,0.3,0.3,0.7,0.3,1.1c0,0.5-0.1,0.9-0.2,1.2C6,38.4,5.8,38.7,5.5,39c-0.3,0.2-0.6,0.4-1,0.5c-0.4,0.1-0.8,0.2-1.2,0.2
			c-0.4,0-0.8-0.1-1.2-0.2c-0.4-0.1-0.7-0.4-1-0.6c-0.3-0.3-0.5-0.6-0.7-1S0.2,37,0.2,36.5H1.6z"/>
		<path style="fill:#7ED1E9;" d="M11.6,39.5c-0.1,0-0.3,0-0.5,0.1s-0.4,0-0.6,0c-0.2,0-0.4,0-0.6,0s-0.4-0.1-0.6-0.3
			S9,38.9,8.8,38.6c-0.1-0.3-0.2-0.7-0.2-1.2v-2.8h-1v-1.2h1v-1.8H10v1.8h1.4v1.2H10v2.5c0,0.3,0,0.5,0.1,0.6s0.1,0.3,0.2,0.4
			c0.1,0.1,0.2,0.1,0.3,0.2s0.2,0,0.4,0c0.1,0,0.2,0,0.4,0s0.3,0,0.3,0V39.5z"/>
		<path style="fill:#7ED1E9;" d="M14.1,36.9c0,0.2,0.1,0.4,0.1,0.6s0.2,0.4,0.3,0.5c0.1,0.1,0.3,0.3,0.5,0.3
			c0.2,0.1,0.4,0.1,0.7,0.1c0.4,0,0.7-0.1,0.9-0.2c0.2-0.2,0.3-0.3,0.4-0.6h1.4c0,0.3-0.1,0.5-0.3,0.7c-0.1,0.2-0.3,0.4-0.6,0.6
			s-0.5,0.3-0.8,0.4c-0.3,0.1-0.7,0.2-1.1,0.2c-0.5,0-1-0.1-1.3-0.2c-0.4-0.2-0.7-0.4-0.9-0.7c-0.3-0.3-0.4-0.6-0.6-1
			c-0.1-0.4-0.2-0.8-0.2-1.2c0-0.4,0.1-0.9,0.2-1.3c0.1-0.4,0.3-0.7,0.6-1c0.3-0.3,0.6-0.5,0.9-0.7c0.4-0.2,0.8-0.2,1.3-0.2
			c0.4,0,0.8,0.1,1.1,0.2s0.6,0.3,0.9,0.6c0.3,0.2,0.5,0.5,0.6,0.9s0.2,0.7,0.2,1.1c0,0.1,0,0.2,0,0.4c0,0.1,0,0.3-0.1,0.5H14.1z
			 M15.7,34.3c-0.4,0-0.8,0.1-1.1,0.4c-0.3,0.3-0.4,0.6-0.4,1.1h3c0-0.5-0.1-0.8-0.4-1.1S16.1,34.3,15.7,34.3z"/>
		<path style="fill:#7ED1E9;" d="M21.8,34.2c0.2-0.3,0.5-0.5,0.8-0.7c0.3-0.2,0.7-0.3,1.1-0.3c0.5,0,0.9,0.1,1.3,0.3
			c0.4,0.2,0.7,0.4,1,0.7c0.3,0.3,0.5,0.6,0.6,1c0.2,0.4,0.2,0.8,0.2,1.2c0,0.4-0.1,0.8-0.2,1.2s-0.4,0.7-0.6,1
			c-0.3,0.3-0.6,0.5-1,0.7c-0.4,0.2-0.8,0.3-1.3,0.3c-0.4,0-0.7-0.1-1.1-0.3c-0.4-0.2-0.6-0.4-0.8-0.7v3.9h-1.4v-9.1h1.4V34.2z
			 M23.6,34.5c-0.3,0-0.5,0.1-0.7,0.2c-0.2,0.1-0.4,0.2-0.6,0.4c-0.2,0.2-0.3,0.4-0.4,0.6c-0.1,0.2-0.1,0.5-0.1,0.7s0,0.5,0.1,0.7
			s0.2,0.4,0.4,0.6c0.2,0.2,0.3,0.3,0.6,0.4c0.2,0.1,0.5,0.2,0.7,0.2c0.3,0,0.5-0.1,0.7-0.2c0.2-0.1,0.4-0.2,0.6-0.4
			c0.2-0.2,0.3-0.4,0.4-0.6s0.1-0.5,0.1-0.7s0-0.5-0.1-0.7c-0.1-0.2-0.2-0.4-0.4-0.6c-0.2-0.2-0.3-0.3-0.6-0.4
			C24.1,34.6,23.8,34.5,23.6,34.5z"/>
		<path style="fill:#7ED1E9;" d="M0,49.3c0.4,0,0.8,0,1-0.1c0.3-0.1,0.5-0.1,0.6-0.3c0.1-0.1,0.2-0.3,0.3-0.5C2,48.4,2,48.1,2,47.8
			h1.4v9.1H1.9v-6.4H0V49.3z"/>
		<path style="fill:#7ED1E9;" d="M5.5,56c0-0.3,0.1-0.5,0.3-0.7s0.4-0.3,0.7-0.3c0.3,0,0.5,0.1,0.7,0.3c0.2,0.2,0.3,0.5,0.3,0.7
			c0,0.3-0.1,0.5-0.3,0.7C7,56.9,6.8,57,6.5,57c-0.3,0-0.5-0.1-0.7-0.3C5.6,56.5,5.5,56.3,5.5,56z"/>
	</g>
	<g>
		<path style="fill:#7ED1E9;" d="M355.4,103.2c0,0.6,0.2,1.1,0.5,1.4s0.8,0.5,1.3,0.5c0.2,0,0.4,0,0.6-0.1c0.2-0.1,0.3-0.2,0.5-0.3
			c0.1-0.1,0.2-0.3,0.3-0.4c0.1-0.2,0.1-0.4,0.1-0.6c0-0.2,0-0.4-0.1-0.6c-0.1-0.2-0.2-0.3-0.3-0.4c-0.1-0.1-0.3-0.2-0.5-0.3
			c-0.2-0.1-0.3-0.1-0.5-0.2c-0.4-0.1-0.8-0.3-1.2-0.4s-0.7-0.3-1-0.5c-0.3-0.2-0.5-0.5-0.6-0.8c-0.2-0.3-0.2-0.7-0.2-1.1
			c0-0.4,0.1-0.7,0.2-1c0.2-0.3,0.4-0.6,0.6-0.8s0.6-0.4,0.9-0.5c0.3-0.1,0.7-0.2,1.1-0.2c0.4,0,0.8,0.1,1.1,0.2
			c0.4,0.1,0.7,0.3,0.9,0.6s0.5,0.5,0.6,0.9c0.1,0.3,0.2,0.7,0.2,1.2h-1.5c0-0.4-0.1-0.8-0.4-1.1c-0.2-0.3-0.6-0.4-1-0.4
			c-0.4,0-0.7,0.1-1,0.3s-0.4,0.5-0.4,0.9c0,0.2,0,0.3,0.1,0.5c0.1,0.1,0.2,0.3,0.3,0.4c0.1,0.1,0.3,0.2,0.4,0.3
			c0.2,0.1,0.3,0.1,0.5,0.2c0.4,0.1,0.7,0.3,1.1,0.4c0.4,0.1,0.7,0.3,1,0.5c0.3,0.2,0.6,0.5,0.7,0.8c0.2,0.3,0.3,0.7,0.3,1.1
			c0,0.5-0.1,0.9-0.2,1.2c-0.2,0.4-0.4,0.7-0.7,0.9c-0.3,0.2-0.6,0.4-1,0.5s-0.8,0.2-1.2,0.2c-0.4,0-0.8-0.1-1.2-0.2
			c-0.4-0.1-0.7-0.4-1-0.6c-0.3-0.3-0.5-0.6-0.7-1c-0.2-0.4-0.3-0.8-0.3-1.4H355.4z"/>
		<path style="fill:#7ED1E9;" d="M365.4,106.2c-0.1,0-0.3,0-0.5,0.1c-0.2,0-0.4,0-0.6,0c-0.2,0-0.4,0-0.6,0s-0.4-0.1-0.6-0.3
			s-0.4-0.4-0.5-0.6c-0.1-0.3-0.2-0.7-0.2-1.2v-2.8h-1v-1.2h1v-1.8h1.4v1.8h1.4v1.2h-1.4v2.5c0,0.3,0,0.5,0.1,0.6s0.1,0.3,0.2,0.4
			c0.1,0.1,0.2,0.1,0.3,0.2c0.1,0,0.2,0,0.4,0c0.1,0,0.2,0,0.4,0c0.1,0,0.3,0,0.3,0V106.2z"/>
		<path style="fill:#7ED1E9;" d="M367.9,103.6c0,0.2,0.1,0.4,0.1,0.6s0.2,0.4,0.3,0.5c0.1,0.1,0.3,0.3,0.5,0.3
			c0.2,0.1,0.4,0.1,0.7,0.1c0.4,0,0.7-0.1,0.9-0.2c0.2-0.2,0.3-0.3,0.4-0.6h1.4c0,0.3-0.1,0.5-0.3,0.7c-0.1,0.2-0.3,0.4-0.6,0.6
			c-0.2,0.2-0.5,0.3-0.8,0.4c-0.3,0.1-0.7,0.2-1.1,0.2c-0.5,0-1-0.1-1.3-0.2c-0.4-0.2-0.7-0.4-0.9-0.7c-0.3-0.3-0.4-0.6-0.6-1
			c-0.1-0.4-0.2-0.8-0.2-1.2c0-0.4,0.1-0.9,0.2-1.3s0.3-0.7,0.6-1c0.2-0.3,0.6-0.5,0.9-0.7c0.4-0.2,0.8-0.2,1.3-0.2
			c0.4,0,0.8,0.1,1.1,0.2s0.6,0.3,0.9,0.6c0.3,0.2,0.5,0.5,0.6,0.9s0.2,0.7,0.2,1.1c0,0.1,0,0.2,0,0.4c0,0.1,0,0.3-0.1,0.5H367.9z
			 M369.4,101c-0.4,0-0.8,0.1-1.1,0.4s-0.4,0.6-0.4,1.1h3c0-0.5-0.1-0.8-0.4-1.1C370.2,101.2,369.9,101,369.4,101z"/>
		<path style="fill:#7ED1E9;" d="M375.5,100.9c0.2-0.3,0.5-0.5,0.8-0.7c0.3-0.2,0.7-0.3,1.1-0.3c0.5,0,0.9,0.1,1.3,0.3
			c0.4,0.2,0.7,0.4,1,0.7c0.3,0.3,0.5,0.6,0.6,1c0.2,0.4,0.2,0.8,0.2,1.2c0,0.4-0.1,0.8-0.2,1.2c-0.2,0.4-0.4,0.7-0.6,1
			s-0.6,0.5-1,0.7s-0.8,0.3-1.3,0.3c-0.4,0-0.7-0.1-1.1-0.3c-0.4-0.2-0.6-0.4-0.8-0.7v3.9h-1.4v-9.1h1.4V100.9z M377.3,101.2
			c-0.3,0-0.5,0.1-0.7,0.2c-0.2,0.1-0.4,0.2-0.6,0.4s-0.3,0.4-0.4,0.6c-0.1,0.2-0.1,0.5-0.1,0.7s0,0.5,0.1,0.7s0.2,0.4,0.4,0.6
			s0.3,0.3,0.6,0.4c0.2,0.1,0.5,0.2,0.7,0.2c0.3,0,0.5-0.1,0.7-0.2c0.2-0.1,0.4-0.2,0.6-0.4c0.2-0.2,0.3-0.4,0.4-0.6
			s0.1-0.5,0.1-0.7s0-0.5-0.1-0.7c-0.1-0.2-0.2-0.4-0.4-0.6c-0.2-0.2-0.3-0.3-0.6-0.4C377.8,101.3,377.6,101.2,377.3,101.2z"/>
		<path style="fill:#7ED1E9;" d="M357,123.8c-0.5,0-0.9-0.1-1.3-0.3c-0.4-0.2-0.7-0.4-1-0.7s-0.5-0.6-0.6-1s-0.2-0.8-0.2-1.2
			c0-0.3,0.1-0.7,0.2-1c0.1-0.3,0.2-0.6,0.4-0.9l2.6-4.2h1.7l-1.9,2.9c0,0,0.1,0,0.2,0c0.5,0,0.9,0.1,1.3,0.3c0.4,0.2,0.7,0.4,1,0.7
			c0.3,0.3,0.5,0.6,0.7,1c0.2,0.4,0.2,0.8,0.2,1.2c0,0.4-0.1,0.8-0.2,1.2c-0.2,0.4-0.4,0.7-0.7,1s-0.6,0.5-1,0.7
			S357.5,123.8,357,123.8z M357,122.5c0.3,0,0.5,0,0.7-0.1c0.2-0.1,0.4-0.2,0.5-0.4c0.1-0.2,0.3-0.4,0.3-0.6
			c0.1-0.2,0.1-0.5,0.1-0.7c0-0.3,0-0.5-0.1-0.7c-0.1-0.2-0.2-0.4-0.3-0.6c-0.1-0.2-0.3-0.3-0.5-0.4c-0.2-0.1-0.4-0.1-0.7-0.1
			s-0.5,0-0.7,0.1c-0.2,0.1-0.4,0.2-0.5,0.4c-0.1,0.2-0.3,0.4-0.3,0.6s-0.1,0.5-0.1,0.7c0,0.3,0,0.5,0.1,0.7s0.2,0.4,0.3,0.6
			c0.1,0.2,0.3,0.3,0.5,0.4C356.5,122.4,356.8,122.5,357,122.5z"/>
		<path style="fill:#7ED1E9;" d="M361.9,122.7c0-0.3,0.1-0.5,0.3-0.7s0.4-0.3,0.7-0.3c0.3,0,0.5,0.1,0.7,0.3s0.3,0.5,0.3,0.7
			c0,0.3-0.1,0.5-0.3,0.7c-0.2,0.2-0.5,0.3-0.7,0.3c-0.3,0-0.5-0.1-0.7-0.3C362,123.2,361.9,123,361.9,122.7z"/>
	</g>
	<g>
		<g>
			<g>
				<g>
					<path style="fill:#7ED1E9;" d="M359.6,240.2c-0.5,0-0.9-0.4-0.9-0.9v-43c0-48.9-39.8-88.6-88.6-88.6h-23.7
						c-0.5,0-0.9-0.4-0.9-0.9s0.4-0.9,0.9-0.9H270c49.9,0,90.4,40.6,90.4,90.4v43C360.5,239.8,360.1,240.2,359.6,240.2z"/>
				</g>
			</g>
		</g>
		<g>
			<path style="fill:#7ED1E9;" d="M331.5,238c-0.5,0-0.9-0.4-0.9-0.9v-0.9c0-0.5,0.4-0.9,0.9-0.9s0.9,0.4,0.9,0.9v0.9
				C332.3,237.6,331.9,238,331.5,238z M331.5,232.7c-0.5,0-0.9-0.4-0.9-0.9V231c0-0.5,0.4-0.9,0.9-0.9s0.9,0.4,0.9,0.9v0.9
				C332.3,232.3,331.9,232.7,331.5,232.7z M331.5,227.4c-0.5,0-0.9-0.4-0.9-0.9v-0.9c0-0.5,0.4-0.9,0.9-0.9s0.9,0.4,0.9,0.9v0.9
				C332.3,227,331.9,227.4,331.5,227.4z M331.5,222.2c-0.5,0-0.9-0.4-0.9-0.9v-0.9c0-0.5,0.4-0.9,0.9-0.9s0.9,0.4,0.9,0.9v0.9
				C332.3,221.8,331.9,222.2,331.5,222.2z M331.5,216.9c-0.5,0-0.9-0.4-0.9-0.9v-0.9c0-0.5,0.4-0.9,0.9-0.9s0.9,0.4,0.9,0.9v0.9
				C332.3,216.5,331.9,216.9,331.5,216.9z M331.5,211.6c-0.5,0-0.9-0.4-0.9-0.9v-0.9c0-0.5,0.4-0.9,0.9-0.9s0.9,0.4,0.9,0.9v0.9
				C332.3,211.3,331.9,211.6,331.5,211.6z M331.5,206.4c-0.5,0-0.9-0.4-0.9-0.9v-0.9c0-0.5,0.4-0.9,0.9-0.9s0.9,0.4,0.9,0.9v0.9
				C332.3,206,331.9,206.4,331.5,206.4z M331.5,201.1c-0.5,0-0.9-0.4-0.9-0.9v-0.9c0-0.5,0.4-0.9,0.9-0.9s0.9,0.4,0.9,0.9v0.9
				C332.3,200.7,331.9,201.1,331.5,201.1z M331.4,195.9c-0.5,0-0.9-0.4-0.9-0.9c0-0.3,0-0.6,0-0.9c0-0.5,0.4-0.9,0.8-0.9
				c0,0,0,0,0,0c0.5,0,0.9,0.4,0.9,0.8c0,0.3,0,0.6,0,0.9C332.3,195.4,332,195.8,331.4,195.9C331.5,195.9,331.5,195.9,331.4,195.9z
				 M331.1,190.6c-0.4,0-0.8-0.3-0.9-0.8c0-0.3-0.1-0.6-0.1-0.9c-0.1-0.5,0.3-0.9,0.8-1c0.5-0.1,0.9,0.3,1,0.8
				c0,0.3,0.1,0.6,0.1,0.9C332,190.1,331.7,190.6,331.1,190.6C331.2,190.6,331.1,190.6,331.1,190.6z M330.3,185.4
				c-0.4,0-0.8-0.3-0.9-0.7l-0.2-0.9c-0.1-0.5,0.2-0.9,0.7-1c0.5-0.1,0.9,0.2,1,0.7l0.2,0.9c0.1,0.5-0.2,0.9-0.7,1
				C330.4,185.4,330.4,185.4,330.3,185.4z M329.1,180.3c-0.4,0-0.7-0.3-0.8-0.6c-0.1-0.3-0.2-0.6-0.2-0.8c-0.1-0.5,0.1-1,0.6-1.1
				c0.5-0.1,1,0.1,1.1,0.6c0.1,0.3,0.2,0.6,0.3,0.9c0.1,0.5-0.1,1-0.6,1.1C329.3,180.3,329.2,180.3,329.1,180.3z M327.4,175.3
				c-0.4,0-0.7-0.2-0.8-0.6c-0.1-0.3-0.2-0.5-0.3-0.8c-0.2-0.4,0-1,0.5-1.1c0.4-0.2,1,0,1.1,0.5c0.1,0.3,0.2,0.6,0.3,0.8
				c0.2,0.5-0.1,1-0.5,1.1C327.7,175.3,327.5,175.3,327.4,175.3z M325.4,170.5c-0.3,0-0.6-0.2-0.8-0.5c-0.1-0.3-0.2-0.5-0.4-0.8
				c-0.2-0.4,0-1,0.4-1.2c0.4-0.2,1,0,1.2,0.4c0.1,0.3,0.3,0.5,0.4,0.8c0.2,0.4,0,1-0.4,1.2C325.6,170.4,325.5,170.5,325.4,170.5z
				 M322.9,165.8c-0.3,0-0.6-0.2-0.8-0.4l-0.4-0.7c-0.3-0.4-0.1-1,0.3-1.2c0.4-0.3,1-0.1,1.2,0.3l0.5,0.8c0.2,0.4,0.1,1-0.3,1.2
				C323.2,165.8,323,165.8,322.9,165.8z M320,161.4c-0.3,0-0.5-0.1-0.7-0.4c-0.2-0.2-0.3-0.5-0.5-0.7c-0.3-0.4-0.2-0.9,0.2-1.2
				c0.4-0.3,0.9-0.2,1.2,0.2c0.2,0.2,0.4,0.5,0.5,0.7c0.3,0.4,0.2,0.9-0.2,1.2C320.4,161.4,320.2,161.4,320,161.4z M316.8,157.3
				c-0.2,0-0.5-0.1-0.7-0.3c-0.2-0.2-0.4-0.4-0.6-0.7c-0.3-0.4-0.3-0.9,0.1-1.2c0.4-0.3,0.9-0.3,1.2,0.1c0.2,0.2,0.4,0.4,0.6,0.7
				c0.3,0.4,0.3,0.9-0.1,1.2C317.2,157.2,317,157.3,316.8,157.3z M313.2,153.5c-0.2,0-0.4-0.1-0.6-0.3c-0.2-0.2-0.4-0.4-0.6-0.6
				c-0.3-0.3-0.4-0.9,0-1.2c0.3-0.4,0.9-0.4,1.2,0c0.2,0.2,0.4,0.4,0.6,0.6c0.3,0.3,0.3,0.9,0,1.2
				C313.6,153.4,313.4,153.5,313.2,153.5z M309.3,149.9c-0.2,0-0.4-0.1-0.6-0.2c-0.2-0.2-0.4-0.4-0.7-0.5c-0.4-0.3-0.4-0.9-0.1-1.2
				c0.3-0.4,0.9-0.4,1.2-0.1c0.2,0.2,0.5,0.4,0.7,0.6c0.4,0.3,0.4,0.9,0.1,1.2C309.8,149.8,309.5,149.9,309.3,149.9z M305.1,146.7
				c-0.2,0-0.3-0.1-0.5-0.2c-0.2-0.2-0.5-0.3-0.7-0.5c-0.4-0.3-0.5-0.8-0.2-1.2c0.3-0.4,0.8-0.5,1.2-0.2c0.2,0.2,0.5,0.3,0.7,0.5
				c0.4,0.3,0.5,0.8,0.2,1.2C305.6,146.6,305.4,146.7,305.1,146.7z M300.6,143.9c-0.1,0-0.3,0-0.4-0.1c-0.3-0.1-0.5-0.3-0.8-0.4
				c-0.4-0.2-0.6-0.8-0.3-1.2c0.2-0.4,0.8-0.6,1.2-0.3c0.3,0.1,0.5,0.3,0.8,0.4c0.4,0.2,0.6,0.8,0.3,1.2
				C301.2,143.8,300.9,143.9,300.6,143.9z M296,141.5c-0.1,0-0.2,0-0.4-0.1c-0.3-0.1-0.5-0.2-0.8-0.4c-0.4-0.2-0.6-0.7-0.4-1.2
				s0.7-0.6,1.2-0.4c0.3,0.1,0.5,0.2,0.8,0.4c0.4,0.2,0.6,0.7,0.4,1.2C296.6,141.3,296.3,141.5,296,141.5z M291.1,139.5
				c-0.1,0-0.2,0-0.3-0.1c-0.3-0.1-0.5-0.2-0.8-0.3c-0.5-0.2-0.7-0.7-0.5-1.1c0.2-0.5,0.7-0.7,1.1-0.5c0.3,0.1,0.6,0.2,0.8,0.3
				c0.5,0.2,0.7,0.7,0.5,1.1C291.8,139.2,291.4,139.5,291.1,139.5z M286.1,137.9c-0.1,0-0.2,0-0.2,0c-0.3-0.1-0.6-0.1-0.8-0.2
				c-0.5-0.1-0.8-0.6-0.6-1.1c0.1-0.5,0.6-0.8,1.1-0.6c0.3,0.1,0.6,0.1,0.9,0.2c0.5,0.1,0.7,0.6,0.6,1.1
				C286.8,137.6,286.5,137.9,286.1,137.9z M280.9,136.7c-0.1,0-0.1,0-0.2,0c-0.3-0.1-0.6-0.1-0.9-0.1c-0.5-0.1-0.8-0.5-0.7-1
				c0.1-0.5,0.5-0.8,1-0.7c0.3,0,0.6,0.1,0.9,0.2c0.5,0.1,0.8,0.5,0.7,1C281.7,136.4,281.4,136.7,280.9,136.7z M275.7,136
				C275.7,136,275.7,136,275.7,136c-0.4,0-0.7-0.1-0.9-0.1c-0.5,0-0.8-0.5-0.8-0.9c0-0.5,0.4-0.8,0.9-0.8c0.3,0,0.6,0,0.9,0.1
				c0.5,0,0.8,0.5,0.8,1C276.6,135.7,276.2,136,275.7,136z M270.5,135.8C270.5,135.8,270.5,135.8,270.5,135.8l-0.9,0
				c-0.5,0-0.9-0.4-0.9-0.9s0.4-0.9,0.9-0.9l0.9,0c0.5,0,0.9,0.4,0.9,0.9C271.3,135.4,271,135.8,270.5,135.8z M265.2,135.8h-0.9
				c-0.5,0-0.9-0.4-0.9-0.9s0.4-0.9,0.9-0.9h0.9c0.5,0,0.9,0.4,0.9,0.9S265.7,135.8,265.2,135.8z M259.9,135.8h-0.9
				c-0.5,0-0.9-0.4-0.9-0.9s0.4-0.9,0.9-0.9h0.9c0.5,0,0.9,0.4,0.9,0.9S260.4,135.8,259.9,135.8z M254.7,135.8h-0.9
				c-0.5,0-0.9-0.4-0.9-0.9s0.4-0.9,0.9-0.9h0.9c0.5,0,0.9,0.4,0.9,0.9S255.2,135.8,254.7,135.8z M249.4,135.8h-0.9
				c-0.5,0-0.9-0.4-0.9-0.9s0.4-0.9,0.9-0.9h0.9c0.5,0,0.9,0.4,0.9,0.9S249.9,135.8,249.4,135.8z M244.1,135.8h-0.9
				c-0.5,0-0.9-0.4-0.9-0.9s0.4-0.9,0.9-0.9h0.9c0.5,0,0.9,0.4,0.9,0.9S244.6,135.8,244.1,135.8z M238.9,135.8H238
				c-0.5,0-0.9-0.4-0.9-0.9s0.4-0.9,0.9-0.9h0.9c0.5,0,0.9,0.4,0.9,0.9S239.4,135.8,238.9,135.8z M233.6,135.8h-0.9
				c-0.5,0-0.9-0.4-0.9-0.9s0.4-0.9,0.9-0.9h0.9c0.5,0,0.9,0.4,0.9,0.9S234.1,135.8,233.6,135.8z M228.4,135.8h-0.9
				c-0.5,0-0.9-0.4-0.9-0.9s0.4-0.9,0.9-0.9h0.9c0.5,0,0.9,0.4,0.9,0.9S228.8,135.8,228.4,135.8z M223.1,135.8h-0.9
				c-0.5,0-0.9-0.4-0.9-0.9s0.4-0.9,0.9-0.9h0.9c0.5,0,0.9,0.4,0.9,0.9S223.6,135.8,223.1,135.8z M217.8,135.8H217
				c-0.5,0-0.9-0.4-0.9-0.9s0.4-0.9,0.9-0.9h0.9c0.5,0,0.9,0.4,0.9,0.9S218.3,135.8,217.8,135.8z M212.6,135.8h-0.9
				c-0.5,0-0.9-0.4-0.9-0.9s0.4-0.9,0.9-0.9h0.9c0.5,0,0.9,0.4,0.9,0.9S213,135.8,212.6,135.8z M207.3,135.8h-0.9
				c-0.5,0-0.9-0.4-0.9-0.9s0.4-0.9,0.9-0.9h0.9c0.5,0,0.9,0.4,0.9,0.9S207.8,135.8,207.3,135.8z M202,135.8h-0.9
				c-0.5,0-0.9-0.4-0.9-0.9s0.4-0.9,0.9-0.9h0.9c0.5,0,0.9,0.4,0.9,0.9S202.5,135.8,202,135.8z M196.8,135.8h-0.9
				c-0.5,0-0.9-0.4-0.9-0.9s0.4-0.9,0.9-0.9h0.9c0.5,0,0.9,0.4,0.9,0.9S197.3,135.8,196.8,135.8z M191.5,135.8h-0.9
				c-0.5,0-0.9-0.4-0.9-0.9s0.4-0.9,0.9-0.9h0.9c0.5,0,0.9,0.4,0.9,0.9S192,135.8,191.5,135.8z M186.2,135.8h-0.9
				c-0.5,0-0.9-0.4-0.9-0.9s0.4-0.9,0.9-0.9h0.9c0.5,0,0.9,0.4,0.9,0.9S186.7,135.8,186.2,135.8z"/>
		</g>
		<g>
			<path style="fill:#7ED1E9;" d="M251.9,112.8c-0.2,0-0.4-0.1-0.6-0.2l-6.3-5.2c-0.2-0.2-0.3-0.4-0.3-0.7s0.1-0.5,0.3-0.7l6.3-5.2
				c0.4-0.3,1-0.3,1.3,0.1c0.3,0.4,0.3,1-0.1,1.3l-5.5,4.5l5.5,4.5c0.4,0.3,0.4,0.9,0.1,1.3C252.4,112.7,252.1,112.8,251.9,112.8z"
				/>
		</g>
	</g>
</g>
</svg>
