<?xml version="1.0" encoding="utf-8"?>
<!-- Generator: Adobe Illustrator 18.0.0, SVG Export Plug-In . SVG Version: 6.00 Build 0)  -->
<!DOCTYPE svg PUBLIC "-//W3C//DTD SVG 1.1//EN" "http://www.w3.org/Graphics/SVG/1.1/DTD/svg11.dtd">
<svg version="1.1" id="Layer_1" xmlns="http://www.w3.org/2000/svg" xmlns:xlink="http://www.w3.org/1999/xlink" x="0px" y="0px"
	 viewBox="0 0 380.5 352.7" style="enable-background:new 0 0 380.5 352.7;" xml:space="preserve">
<g>
	<g>
		<g>
			<g>
				<path style="fill:#7ED1E9;" d="M14,299.8H2.3c-0.3,0-0.5-0.2-0.5-0.5s0.2-0.5,0.5-0.5H14c0.3,0,0.5,0.2,0.5,0.5
					S14.3,299.8,14,299.8z"/>
			</g>
			<g>
				<path style="fill:#7ED1E9;" d="M9.4,304.4c-0.1,0-0.2,0-0.3-0.1c-0.2-0.2-0.2-0.5,0-0.7l4.3-4.2l-4.3-4.2
					c-0.2-0.2-0.2-0.5,0-0.7s0.5-0.2,0.7,0l5,4.9l-5,4.9C9.6,304.3,9.5,304.4,9.4,304.4z"/>
			</g>
		</g>
		<g>
			<g>
				<path style="fill:#7ED1E9;" d="M50.4,299.8H38.7c-0.3,0-0.5-0.2-0.5-0.5s0.2-0.5,0.5-0.5h11.7c0.3,0,0.5,0.2,0.5,0.5
					S50.6,299.8,50.4,299.8z"/>
			</g>
			<g>
				<path style="fill:#7ED1E9;" d="M45.7,304.4c-0.1,0-0.2,0-0.3-0.1c-0.2-0.2-0.2-0.5,0-0.7l4.3-4.2l-4.3-4.2
					c-0.2-0.2-0.2-0.5,0-0.7s0.5-0.2,0.7,0l5,4.9l-5,4.9C46,304.3,45.9,304.4,45.7,304.4z"/>
			</g>
		</g>
		<g>
			<g>
				<path style="fill:#7ED1E9;" d="M86.7,299.8H75c-0.3,0-0.5-0.2-0.5-0.5s0.2-0.5,0.5-0.5h11.7c0.3,0,0.5,0.2,0.5,0.5
					S87,299.8,86.7,299.8z"/>
			</g>
			<g>
				<path style="fill:#7ED1E9;" d="M82.1,304.4c-0.1,0-0.2,0-0.3-0.1c-0.2-0.2-0.2-0.5,0-0.7l4.3-4.2l-4.3-4.2
					c-0.2-0.2-0.2-0.5,0-0.7s0.5-0.2,0.7,0l5,4.9l-5,4.9C82.3,304.3,82.2,304.4,82.1,304.4z"/>
			</g>
		</g>
	</g>
	<g>
		<g>
			<g>
				<path style="fill:#052A39;" d="M378.9,299.8l-26.6,15.3l-26.6-15.3l26.6-15.5L378.9,299.8z"/>
			</g>
			<g>
				<path style="fill:#052A39;" d="M232.9,299.8l-26.6,15.3l-26.6-15.3l26.6-15.5L232.9,299.8z"/>
			</g>
			<g>
				<g>
					<path style="fill:#7ED1E9;" d="M353.1,115.9c-0.3,0-0.5-0.2-0.5-0.5v-12.9c0-0.3,0.2-0.5,0.5-0.5s0.5,0.2,0.5,0.5v12.9
						C353.6,115.7,353.4,115.9,353.1,115.9z"/>
				</g>
				<g>
					<path style="fill:#7ED1E9;" d="M353.1,116.1l-5.3-5.5c-0.2-0.2-0.2-0.5,0-0.7c0.2-0.2,0.5-0.2,0.7,0l4.7,4.8l4.7-4.8
						c0.2-0.2,0.5-0.2,0.7,0c0.2,0.2,0.2,0.5,0,0.7L353.1,116.1z"/>
				</g>
			</g>
			<g>
				<g>
					<path style="fill:#7ED1E9;" d="M206.3,115.9c-0.3,0-0.5-0.2-0.5-0.5v-12.9c0-0.3,0.2-0.5,0.5-0.5s0.5,0.2,0.5,0.5v12.9
						C206.8,115.7,206.6,115.9,206.3,115.9z"/>
				</g>
				<g>
					<path style="fill:#7ED1E9;" d="M206.3,116.1l-5.3-5.5c-0.2-0.2-0.2-0.5,0-0.7c0.2-0.2,0.5-0.2,0.7,0l4.7,4.8l4.7-4.8
						c0.2-0.2,0.5-0.2,0.7,0c0.2,0.2,0.2,0.5,0,0.7L206.3,116.1z"/>
				</g>
			</g>
			<g>
				<polygon style="fill:#1F4C5C;" points="352.4,315.1 352.4,284.3 378.9,299.8 				"/>
			</g>
			<g>
				<path style="fill:#7ED1E9;" d="M352.4,316.3c-0.2,0-0.4-0.1-0.6-0.2l-26.6-15.3c-0.4-0.2-0.6-0.6-0.6-1s0.2-0.8,0.6-1l26.6-15.5
					c0.4-0.2,0.8-0.2,1.2,0l26.6,15.5c0.4,0.2,0.6,0.6,0.6,1s-0.2,0.8-0.6,1l-26.6,15.3C352.8,316.2,352.6,316.3,352.4,316.3z
					 M328.1,299.8l24.2,14l24.2-14l-24.2-14.1L328.1,299.8z"/>
			</g>
			<g>
				<g>
					<path style="fill:#7ED1E9;" d="M352.4,352.7l-5.6-5.6c-0.4-0.4-0.4-1,0-1.3c0.4-0.4,1-0.4,1.3,0l4.3,4.3l9.2-9.2
						c0.4-0.4,1-0.4,1.3,0c0.4,0.4,0.4,1,0,1.3L352.4,352.7z"/>
				</g>
			</g>
			<g>
				<g>
					<path style="fill:#7ED1E9;" d="M286.1,267.4L286.1,267.4c-0.1,0-0.3-0.1-0.4-0.2l-2.9-3.4c-0.2-0.2-0.1-0.5,0.1-0.7
						c0.2-0.2,0.5-0.1,0.7,0.1l2.5,3l2.5-3c0.2-0.2,0.5-0.2,0.7-0.1c0.2,0.2,0.2,0.5,0.1,0.7l-2.9,3.4
						C286.4,267.4,286.2,267.4,286.1,267.4z"/>
				</g>
				<g>
					<path style="fill:#7ED1E9;" d="M280,269.7c-3.6,0-6.5-2.9-6.5-6.5c0-3.6,2.9-6.5,6.5-6.5c3.6,0,6.5,2.9,6.5,6.5v3.4
						c0,0.3-0.2,0.5-0.5,0.5s-0.5-0.2-0.5-0.5v-3.4c0-3.1-2.5-5.6-5.6-5.6c-3.1,0-5.6,2.5-5.6,5.6c0,3.1,2.5,5.6,5.6,5.6
						c0.3,0,0.5,0.2,0.5,0.5S280.3,269.7,280,269.7z"/>
				</g>
			</g>
			<g>
				<g>
					<path style="fill:#7ED1E9;" d="M211.3,352.3c-0.2,0-0.5-0.1-0.7-0.3l-9.9-9.9c-0.4-0.4-0.4-1,0-1.3c0.4-0.4,1-0.4,1.3,0
						l9.9,9.9c0.4,0.4,0.4,1,0,1.3C211.8,352.2,211.6,352.3,211.3,352.3z"/>
				</g>
				<g>
					<path style="fill:#7ED1E9;" d="M201.4,352.3c-0.2,0-0.5-0.1-0.7-0.3c-0.4-0.4-0.4-1,0-1.3l9.9-9.9c0.4-0.4,1-0.4,1.3,0
						c0.4,0.4,0.4,1,0,1.3l-9.9,9.9C201.9,352.2,201.7,352.3,201.4,352.3z"/>
				</g>
			</g>
			<g>
				<path style="fill:#7ED1E9;" d="M180,295.8c-0.5,0-0.9-0.4-0.9-0.9v-0.9c0-0.5,0.4-0.9,0.9-0.9s0.9,0.4,0.9,0.9v0.9
					C180.9,295.5,180.5,295.8,180,295.8z M180,290.6c-0.5,0-0.9-0.4-0.9-0.9v-0.9c0-0.5,0.4-0.9,0.9-0.9s0.9,0.4,0.9,0.9v0.9
					C180.9,290.2,180.5,290.6,180,290.6z M180,285.3c-0.5,0-0.9-0.4-0.9-0.9v-0.9c0-0.5,0.4-0.9,0.9-0.9s0.9,0.4,0.9,0.9v0.9
					C180.9,284.9,180.5,285.3,180,285.3z M180,280.1c-0.5,0-0.9-0.4-0.9-0.9v-0.9c0-0.5,0.4-0.9,0.9-0.9s0.9,0.4,0.9,0.9v0.9
					C180.9,279.7,180.5,280.1,180,280.1z M180,274.8c-0.5,0-0.9-0.4-0.9-0.9V273c0-0.5,0.4-0.9,0.9-0.9s0.9,0.4,0.9,0.9v0.9
					C180.9,274.4,180.5,274.8,180,274.8z M180,269.5c-0.5,0-0.9-0.4-0.9-0.9v-0.9c0-0.5,0.4-0.9,0.9-0.9s0.9,0.4,0.9,0.9v0.9
					C180.9,269.1,180.5,269.5,180,269.5z M180,264.3c-0.5,0-0.9-0.4-0.9-0.9v-0.9c0-0.5,0.4-0.9,0.9-0.9s0.9,0.4,0.9,0.9v0.9
					C180.9,263.9,180.5,264.3,180,264.3z M180,259c-0.5,0-0.9-0.4-0.9-0.9v-0.9c0-0.5,0.4-0.9,0.9-0.9s0.9,0.4,0.9,0.9v0.9
					C180.9,258.6,180.5,259,180,259z M180,253.7c-0.5,0-0.9-0.4-0.9-0.9V252c0-0.5,0.4-0.9,0.9-0.9s0.9,0.4,0.9,0.9v0.9
					C180.9,253.3,180.5,253.7,180,253.7z M180,248.5c-0.5,0-0.9-0.4-0.9-0.9v-0.9c0-0.5,0.4-0.9,0.9-0.9s0.9,0.4,0.9,0.9v0.9
					C180.9,248.1,180.5,248.5,180,248.5z M180,243.2c-0.5,0-0.9-0.4-0.9-0.9v-0.9c0-0.5,0.4-0.9,0.9-0.9s0.9,0.4,0.9,0.9v0.9
					C180.9,242.8,180.5,243.2,180,243.2z M180,237.9c-0.5,0-0.9-0.4-0.9-0.9v-0.9c0-0.5,0.4-0.9,0.9-0.9s0.9,0.4,0.9,0.9v0.9
					C180.9,237.5,180.5,237.9,180,237.9z M180,232.7c-0.5,0-0.9-0.4-0.9-0.9v-0.9c0-0.5,0.4-0.9,0.9-0.9s0.9,0.4,0.9,0.9v0.9
					C180.9,232.3,180.5,232.7,180,232.7z M180,227.4c-0.5,0-0.9-0.4-0.9-0.9v-0.9c0-0.5,0.4-0.9,0.9-0.9s0.9,0.4,0.9,0.9v0.9
					C180.9,227,180.5,227.4,180,227.4z M180,222.1c-0.5,0-0.9-0.4-0.9-0.9v-0.9c0-0.5,0.4-0.9,0.9-0.9s0.9,0.4,0.9,0.9v0.9
					C180.9,221.8,180.5,222.1,180,222.1z M180,216.9c-0.5,0-0.9-0.4-0.9-0.9v-0.9c0-0.5,0.4-0.9,0.9-0.9s0.9,0.4,0.9,0.9v0.9
					C180.9,216.5,180.5,216.9,180,216.9z"/>
			</g>
			<g>
				<path style="fill:#7ED1E9;" d="M233.6,295.8c-0.5,0-0.9-0.4-0.9-0.9v-0.9c0-0.5,0.4-0.9,0.9-0.9s0.9,0.4,0.9,0.9v0.9
					C234.5,295.5,234.1,295.8,233.6,295.8z M233.6,290.6c-0.5,0-0.9-0.4-0.9-0.9v-0.9c0-0.5,0.4-0.9,0.9-0.9s0.9,0.4,0.9,0.9v0.9
					C234.5,290.2,234.1,290.6,233.6,290.6z M233.6,285.3c-0.5,0-0.9-0.4-0.9-0.9v-0.9c0-0.5,0.4-0.9,0.9-0.9s0.9,0.4,0.9,0.9v0.9
					C234.5,284.9,234.1,285.3,233.6,285.3z M233.6,280.1c-0.5,0-0.9-0.4-0.9-0.9v-0.9c0-0.5,0.4-0.9,0.9-0.9s0.9,0.4,0.9,0.9v0.9
					C234.5,279.7,234.1,280.1,233.6,280.1z M233.6,274.8c-0.5,0-0.9-0.4-0.9-0.9V273c0-0.5,0.4-0.9,0.9-0.9s0.9,0.4,0.9,0.9v0.9
					C234.5,274.4,234.1,274.8,233.6,274.8z M233.6,269.5c-0.5,0-0.9-0.4-0.9-0.9v-0.9c0-0.5,0.4-0.9,0.9-0.9s0.9,0.4,0.9,0.9v0.9
					C234.5,269.1,234.1,269.5,233.6,269.5z M233.6,264.3c-0.5,0-0.9-0.4-0.9-0.9v-0.9c0-0.5,0.4-0.9,0.9-0.9s0.9,0.4,0.9,0.9v0.9
					C234.5,263.9,234.1,264.3,233.6,264.3z M233.6,259c-0.5,0-0.9-0.4-0.9-0.9v-0.9c0-0.5,0.4-0.9,0.9-0.9s0.9,0.4,0.9,0.9v0.9
					C234.5,258.6,234.1,259,233.6,259z M233.6,253.7c-0.5,0-0.9-0.4-0.9-0.9V252c0-0.5,0.4-0.9,0.9-0.9s0.9,0.4,0.9,0.9v0.9
					C234.5,253.3,234.1,253.7,233.6,253.7z M233.6,248.5c-0.5,0-0.9-0.4-0.9-0.9v-0.9c0-0.5,0.4-0.9,0.9-0.9s0.9,0.4,0.9,0.9v0.9
					C234.5,248.1,234.1,248.5,233.6,248.5z M233.6,243.2c-0.5,0-0.9-0.4-0.9-0.9v-0.9c0-0.5,0.4-0.9,0.9-0.9s0.9,0.4,0.9,0.9v0.9
					C234.5,242.8,234.1,243.2,233.6,243.2z M233.6,237.9c-0.5,0-0.9-0.4-0.9-0.9v-0.9c0-0.5,0.4-0.9,0.9-0.9s0.9,0.4,0.9,0.9v0.9
					C234.5,237.5,234.1,237.9,233.6,237.9z M233.6,232.7c-0.5,0-0.9-0.4-0.9-0.9v-0.9c0-0.5,0.4-0.9,0.9-0.9s0.9,0.4,0.9,0.9v0.9
					C234.5,232.3,234.1,232.7,233.6,232.7z M233.6,227.4c-0.5,0-0.9-0.4-0.9-0.9v-0.9c0-0.5,0.4-0.9,0.9-0.9s0.9,0.4,0.9,0.9v0.9
					C234.5,227,234.1,227.4,233.6,227.4z M233.6,222.1c-0.5,0-0.9-0.4-0.9-0.9v-0.9c0-0.5,0.4-0.9,0.9-0.9s0.9,0.4,0.9,0.9v0.9
					C234.5,221.8,234.1,222.1,233.6,222.1z M233.6,216.9c-0.5,0-0.9-0.4-0.9-0.9v-0.9c0-0.5,0.4-0.9,0.9-0.9s0.9,0.4,0.9,0.9v0.9
					C234.5,216.5,234.1,216.9,233.6,216.9z"/>
			</g>
			<g>
				<path style="fill:#7ED1E9;" d="M325.8,296.5c-0.5,0-0.9-0.4-0.9-0.9v-0.9c0-0.5,0.4-0.9,0.9-0.9s0.9,0.4,0.9,0.9v0.9
					C326.6,296.1,326.2,296.5,325.8,296.5z M325.8,291.3c-0.5,0-0.9-0.4-0.9-0.9v-0.9c0-0.5,0.4-0.9,0.9-0.9s0.9,0.4,0.9,0.9v0.9
					C326.6,290.9,326.2,291.3,325.8,291.3z M325.8,286c-0.5,0-0.9-0.4-0.9-0.9v-0.9c0-0.5,0.4-0.9,0.9-0.9s0.9,0.4,0.9,0.9v0.9
					C326.6,285.6,326.2,286,325.8,286z M325.8,280.7c-0.5,0-0.9-0.4-0.9-0.9V279c0-0.5,0.4-0.9,0.9-0.9s0.9,0.4,0.9,0.9v0.9
					C326.6,280.3,326.2,280.7,325.8,280.7z M325.8,275.5c-0.5,0-0.9-0.4-0.9-0.9v-0.9c0-0.5,0.4-0.9,0.9-0.9s0.9,0.4,0.9,0.9v0.9
					C326.6,275.1,326.2,275.5,325.8,275.5z M325.8,270.2c-0.5,0-0.9-0.4-0.9-0.9v-0.9c0-0.5,0.4-0.9,0.9-0.9s0.9,0.4,0.9,0.9v0.9
					C326.6,269.8,326.2,270.2,325.8,270.2z M325.8,264.9c-0.5,0-0.9-0.4-0.9-0.9v-0.9c0-0.5,0.4-0.9,0.9-0.9s0.9,0.4,0.9,0.9v0.9
					C326.6,264.5,326.2,264.9,325.8,264.9z M325.8,259.7c-0.5,0-0.9-0.4-0.9-0.9v-0.9c0-0.5,0.4-0.9,0.9-0.9s0.9,0.4,0.9,0.9v0.9
					C326.6,259.3,326.2,259.7,325.8,259.7z M325.8,254.4c-0.5,0-0.9-0.4-0.9-0.9v-0.9c0-0.5,0.4-0.9,0.9-0.9s0.9,0.4,0.9,0.9v0.9
					C326.6,254,326.2,254.4,325.8,254.4z M325.8,249.1c-0.5,0-0.9-0.4-0.9-0.9v-0.9c0-0.5,0.4-0.9,0.9-0.9s0.9,0.4,0.9,0.9v0.9
					C326.6,248.8,326.2,249.1,325.8,249.1z M325.8,243.9c-0.5,0-0.9-0.4-0.9-0.9v-0.9c0-0.5,0.4-0.9,0.9-0.9s0.9,0.4,0.9,0.9v0.9
					C326.6,243.5,326.2,243.9,325.8,243.9z M325.8,238.6c-0.5,0-0.9-0.4-0.9-0.9v-0.9c0-0.5,0.4-0.9,0.9-0.9s0.9,0.4,0.9,0.9v0.9
					C326.6,238.2,326.2,238.6,325.8,238.6z M325.8,233.3c-0.5,0-0.9-0.4-0.9-0.9v-0.9c0-0.5,0.4-0.9,0.9-0.9s0.9,0.4,0.9,0.9v0.9
					C326.6,233,326.2,233.3,325.8,233.3z"/>
			</g>
			<g>
				<path style="fill:#7ED1E9;" d="M378.7,295.8c-0.5,0-0.9-0.4-0.9-0.9V294c0-0.5,0.4-0.9,0.9-0.9s0.9,0.4,0.9,0.9v0.9
					C379.6,295.4,379.2,295.8,378.7,295.8z M378.7,290.5c-0.5,0-0.9-0.4-0.9-0.9v-0.9c0-0.5,0.4-0.9,0.9-0.9s0.9,0.4,0.9,0.9v0.9
					C379.6,290.1,379.2,290.5,378.7,290.5z M378.7,285.3c-0.5,0-0.9-0.4-0.9-0.9v-0.9c0-0.5,0.4-0.9,0.9-0.9s0.9,0.4,0.9,0.9v0.9
					C379.6,284.9,379.2,285.3,378.7,285.3z M378.7,280c-0.5,0-0.9-0.4-0.9-0.9v-0.9c0-0.5,0.4-0.9,0.9-0.9s0.9,0.4,0.9,0.9v0.9
					C379.6,279.6,379.2,280,378.7,280z M378.7,274.7c-0.5,0-0.9-0.4-0.9-0.9V273c0-0.5,0.4-0.9,0.9-0.9s0.9,0.4,0.9,0.9v0.9
					C379.6,274.3,379.2,274.7,378.7,274.7z M378.7,269.5c-0.5,0-0.9-0.4-0.9-0.9v-0.9c0-0.5,0.4-0.9,0.9-0.9s0.9,0.4,0.9,0.9v0.9
					C379.6,269.1,379.2,269.5,378.7,269.5z M378.7,264.2c-0.5,0-0.9-0.4-0.9-0.9v-0.9c0-0.5,0.4-0.9,0.9-0.9s0.9,0.4,0.9,0.9v0.9
					C379.6,263.8,379.2,264.2,378.7,264.2z M378.7,258.9c-0.5,0-0.9-0.4-0.9-0.9v-0.9c0-0.5,0.4-0.9,0.9-0.9s0.9,0.4,0.9,0.9v0.9
					C379.6,258.5,379.2,258.9,378.7,258.9z M378.7,253.7c-0.5,0-0.9-0.4-0.9-0.9v-0.9c0-0.5,0.4-0.9,0.9-0.9s0.9,0.4,0.9,0.9v0.9
					C379.6,253.3,379.2,253.7,378.7,253.7z M378.7,248.4c-0.5,0-0.9-0.4-0.9-0.9v-0.9c0-0.5,0.4-0.9,0.9-0.9s0.9,0.4,0.9,0.9v0.9
					C379.6,248,379.2,248.4,378.7,248.4z M378.7,243.1c-0.5,0-0.9-0.4-0.9-0.9v-0.9c0-0.5,0.4-0.9,0.9-0.9s0.9,0.4,0.9,0.9v0.9
					C379.6,242.8,379.2,243.1,378.7,243.1z M378.7,237.9c-0.5,0-0.9-0.4-0.9-0.9v-0.9c0-0.5,0.4-0.9,0.9-0.9s0.9,0.4,0.9,0.9v0.9
					C379.6,237.5,379.2,237.9,378.7,237.9z M378.7,232.6c-0.5,0-0.9-0.4-0.9-0.9v-0.9c0-0.5,0.4-0.9,0.9-0.9s0.9,0.4,0.9,0.9v0.9
					C379.6,232.2,379.2,232.6,378.7,232.6z"/>
			</g>
			<g>
				<g>
					<polygon style="fill:#052A39;" points="148.7,158.7 175.1,143.4 201.5,158.7 201.5,189.8 175.1,205.2 					"/>
				</g>
			</g>
			<g>
				<path style="fill:#2C5D6E;" d="M201.5,158.7L175.1,174l-26.4-15.3l26.4-15.4L201.5,158.7z"/>
			</g>
			<g>
				<g>
					<path style="fill:#7ED1E9;" d="M175.1,206.3c-0.1,0-0.2,0-0.3,0c-0.3-0.1-0.6-0.3-0.7-0.6l-26.4-46.4c-0.3-0.6-0.1-1.3,0.4-1.6
						l26.4-15.4c0.4-0.2,0.8-0.2,1.2,0l26.4,15.4c0.4,0.2,0.6,0.6,0.6,1v31.1c0,0.4-0.2,0.8-0.6,1l-26.4,15.3
						C175.5,206.3,175.3,206.3,175.1,206.3z M150.3,159.2l25.2,44.4l24.8-14.4v-29.7l-25.2-14.7L150.3,159.2z"/>
				</g>
			</g>
			<g>
				<polygon style="fill:#052A39;" points="179.9,177.4 206.3,162 232.7,177.4 232.7,208.2 206.3,223.6 179.9,208.2 				"/>
			</g>
			<g>
				<path style="fill:#2C5D6E;" d="M232.7,177.3l-26.4,15.3l-26.4-15.3l26.4-15.4L232.7,177.3z"/>
			</g>
			<g>
				<path style="fill:#7ED1E9;" d="M206.3,224.8c-0.2,0-0.4-0.1-0.6-0.2l-26.4-15.4c-0.4-0.2-0.6-0.6-0.6-1v-30.8
					c0-0.4,0.2-0.8,0.6-1l26.4-15.4c0.4-0.2,0.8-0.2,1.2,0l26.4,15.4c0.4,0.2,0.6,0.6,0.6,1v30.8c0,0.4-0.2,0.8-0.6,1l-26.4,15.4
					C206.7,224.8,206.5,224.8,206.3,224.8z M181.1,207.5l25.3,14.7l25.3-14.7v-29.5l-25.3-14.7l-25.3,14.7V207.5z"/>
			</g>
			<g>
				<polygon style="fill:#052A39;" points="210.7,195.7 237.1,180.3 263.5,226.5 237.1,241.9 210.7,226.3 				"/>
			</g>
			<g>
				<g>
					<polygon style="fill:#2C5D6E;" points="237.1,241.9 263.5,226.5 237.1,180.3 210.8,195.7 					"/>
				</g>
				<g>
					<path style="fill:#7ED1E9;" d="M237.1,243.1c-0.2,0-0.4-0.1-0.6-0.2l-26.4-15.6c-0.4-0.2-0.6-0.6-0.6-1v-30.5
						c0-0.4,0.2-0.8,0.6-1l26.4-15.4c0.3-0.2,0.6-0.2,0.9-0.1c0.3,0.1,0.6,0.3,0.7,0.6l26.4,46.2c0.3,0.6,0.1,1.3-0.4,1.6
						l-26.4,15.4C237.5,243,237.3,243.1,237.1,243.1z M211.9,225.6l25.2,14.9l24.8-14.5L236.7,182l-24.8,14.5V225.6z"/>
				</g>
				<g>
					
						<path style="fill:none;stroke:#4B4F64;stroke-width:2.3539;stroke-linecap:round;stroke-linejoin:round;stroke-miterlimit:10;" d="
						M223.9,203.4"/>
				</g>
			</g>
			<g>
				<path style="fill:#7ED1E9;" d="M206.3,224.8c-0.7,0-1.2-0.5-1.2-1.2v-11.5c0-0.7,0.5-1.2,1.2-1.2s1.2,0.5,1.2,1.2v11.5
					C207.5,224.3,207,224.8,206.3,224.8z"/>
			</g>
			<g>
				<path style="fill:#7ED1E9;" d="M175.1,181.3c-0.6,0-1.2-0.5-1.2-1.2V174c0-0.6,0.5-1.2,1.2-1.2s1.2,0.5,1.2,1.2v6.2
					C176.3,180.8,175.8,181.3,175.1,181.3z"/>
			</g>
			<g>
				<path style="fill:#7ED1E9;" d="M175.1,206.3c-0.6,0-1.2-0.5-1.2-1.2v-11.5c0-0.7,0.5-1.2,1.2-1.2s1.2,0.5,1.2,1.2v11.5
					C176.3,205.8,175.8,206.3,175.1,206.3z"/>
			</g>
			<g>
				<g>
					<polygon style="fill:#052A39;" points="325.9,196.4 352.3,181 378.7,196.4 378.7,227.3 352.3,242.7 325.9,227.3 					"/>
				</g>
				<g>
					<path style="fill:#2C5D6E;" d="M378.7,196.4l-26.4,15.3l-26.4-15.3l26.4-15.4L378.7,196.4z"/>
				</g>
				<g>
					<path style="fill:#7ED1E9;" d="M352.3,243.9c-0.2,0-0.4-0.1-0.6-0.2l-26.4-15.4c-0.4-0.2-0.6-0.6-0.6-1v-30.8
						c0-0.4,0.2-0.8,0.6-1l26.4-15.4c0.4-0.2,0.8-0.2,1.2,0l26.4,15.4c0.4,0.2,0.6,0.6,0.6,1v30.8c0,0.4-0.2,0.8-0.6,1l-26.4,15.4
						C352.7,243.8,352.5,243.9,352.3,243.9z M327,226.6l25.3,14.7l25.3-14.7v-29.5l-25.3-14.7L327,197.1V226.6z"/>
				</g>
				<g>
					<g>
						<polygon style="fill:#052A39;" points="325.2,158.9 351.5,143.5 377.9,189.7 351.5,205.1 325.2,189.4 						"/>
					</g>
					<g>
						<g>
							<polygon style="fill:#2C5D6E;" points="351.9,204.3 377.9,189.7 351.5,143.5 325.9,158.5 							"/>
						</g>
						<g>
							<path style="fill:#7ED1E9;" d="M351.5,206.2c-0.2,0-0.4-0.1-0.6-0.2l-26.4-15.6c-0.4-0.2-0.6-0.6-0.6-1v-30.6
								c0-0.4,0.2-0.8,0.6-1l26.4-15.4c0.3-0.2,0.6-0.2,0.9-0.1c0.3,0.1,0.6,0.3,0.7,0.6l26.4,46.2c0.3,0.6,0.1,1.3-0.4,1.6
								l-26.4,15.4C352,206.2,351.7,206.2,351.5,206.2z M326.3,188.8l25.2,14.9l24.8-14.5l-25.2-44.1l-24.8,14.5V188.8z"/>
						</g>
						<g>
							
								<path style="fill:none;stroke:#4B4F64;stroke-width:2.3539;stroke-linecap:round;stroke-linejoin:round;stroke-miterlimit:10;" d="
								M338.3,166.6"/>
						</g>
					</g>
				</g>
				<g>
					<g>
						<polygon style="fill:#052A39;" points="326.6,150 353,134.6 379.3,150 379.3,181 353,196.4 						"/>
					</g>
				</g>
				<g>
					<path style="fill:#7ED1E9;" d="M352.2,243.5c-0.7,0-1.2-0.5-1.2-1.2v-11.5c0-0.7,0.5-1.2,1.2-1.2s1.2,0.5,1.2,1.2v11.5
						C353.4,243,352.8,243.5,352.2,243.5z"/>
				</g>
				<g>
					<g>
						<path style="fill:#2C5D6E;" d="M379.3,149.5l-26.4,15.3l-26.4-15.3l26.4-15.4L379.3,149.5z"/>
					</g>
					<g>
						<g>
							<path style="fill:#7ED1E9;" d="M353,197.6c-0.1,0-0.2,0-0.3,0c-0.3-0.1-0.6-0.3-0.7-0.6l-26.4-46.4c-0.3-0.6-0.1-1.3,0.4-1.6
								l26.4-15.4c0.4-0.2,0.8-0.2,1.2,0l26.4,15.4c0.4,0.2,0.6,0.6,0.6,1V181c0,0.4-0.2,0.8-0.6,1l-26.4,15.3
								C353.4,197.5,353.2,197.6,353,197.6z M328.2,150.4l25.2,44.4l24.8-14.4v-29.7L353,135.9L328.2,150.4z"/>
						</g>
					</g>
					<g>
						<path style="fill:#7ED1E9;" d="M353,172.6c-0.7,0-1.2-0.5-1.2-1.2v-6.2c0-0.6,0.5-1.2,1.2-1.2s1.2,0.5,1.2,1.2v6.2
							C354.1,172,353.6,172.6,353,172.6z"/>
					</g>
					<g>
						<path style="fill:#7ED1E9;" d="M353,197.6c-0.7,0-1.2-0.5-1.2-1.2v-11.5c0-0.7,0.5-1.2,1.2-1.2s1.2,0.5,1.2,1.2v11.5
							C354.1,197,353.6,197.6,353,197.6z"/>
					</g>
				</g>
			</g>
			<g>
				<polygon style="fill:#1F4C5C;" points="206.4,315.1 206.4,284.3 232.9,299.8 				"/>
			</g>
			<g>
				<path style="fill:#7ED1E9;" d="M206.4,316.3c-0.2,0-0.4-0.1-0.6-0.2l-26.6-15.3c-0.4-0.2-0.6-0.6-0.6-1c0-0.4,0.2-0.8,0.6-1
					l26.6-15.5c0.4-0.2,0.8-0.2,1.2,0l26.6,15.5c0.4,0.2,0.6,0.6,0.6,1s-0.2,0.8-0.6,1L207,316.1
					C206.8,316.2,206.6,316.3,206.4,316.3z M182.1,299.8l24.2,14l24.2-14l-24.2-14.1L182.1,299.8z"/>
			</g>
		</g>
		<g>
			<path style="fill:#7ED1E9;" d="M266.4,138.7c0,0.6,0.2,1.1,0.5,1.4s0.8,0.5,1.3,0.5c0.2,0,0.4,0,0.6-0.1c0.2-0.1,0.3-0.2,0.5-0.3
				c0.1-0.1,0.2-0.3,0.3-0.4c0.1-0.2,0.1-0.4,0.1-0.6c0-0.2,0-0.4-0.1-0.6c-0.1-0.2-0.2-0.3-0.3-0.4c-0.1-0.1-0.3-0.2-0.5-0.3
				c-0.2-0.1-0.3-0.1-0.5-0.2c-0.4-0.1-0.8-0.3-1.2-0.4s-0.7-0.3-1-0.5c-0.3-0.2-0.5-0.5-0.6-0.8c-0.2-0.3-0.2-0.7-0.2-1.1
				c0-0.4,0.1-0.7,0.2-1c0.2-0.3,0.4-0.6,0.6-0.8s0.6-0.4,0.9-0.5c0.3-0.1,0.7-0.2,1.1-0.2c0.4,0,0.8,0.1,1.1,0.2
				c0.4,0.1,0.7,0.3,0.9,0.6s0.5,0.5,0.6,0.9c0.1,0.3,0.2,0.7,0.2,1.2h-1.5c0-0.4-0.1-0.8-0.4-1.1c-0.2-0.3-0.6-0.4-1-0.4
				c-0.4,0-0.7,0.1-1,0.3s-0.4,0.5-0.4,0.9c0,0.2,0,0.3,0.1,0.5c0.1,0.1,0.2,0.3,0.3,0.4c0.1,0.1,0.3,0.2,0.4,0.3
				c0.2,0.1,0.3,0.1,0.5,0.2c0.4,0.1,0.7,0.3,1.1,0.4c0.4,0.1,0.7,0.3,1,0.5c0.3,0.2,0.6,0.5,0.7,0.8c0.2,0.3,0.3,0.7,0.3,1.1
				c0,0.5-0.1,0.9-0.2,1.2c-0.2,0.4-0.4,0.7-0.7,0.9c-0.3,0.2-0.6,0.4-1,0.5s-0.8,0.2-1.2,0.2c-0.4,0-0.8-0.1-1.2-0.2
				c-0.4-0.1-0.7-0.4-1-0.6c-0.3-0.3-0.5-0.6-0.7-1c-0.2-0.4-0.3-0.8-0.3-1.4H266.4z"/>
			<path style="fill:#7ED1E9;" d="M276.3,141.7c-0.1,0-0.3,0-0.5,0.1c-0.2,0-0.4,0-0.6,0c-0.2,0-0.4,0-0.6,0s-0.4-0.1-0.6-0.3
				s-0.4-0.4-0.5-0.6c-0.1-0.3-0.2-0.7-0.2-1.2v-2.8h-1v-1.2h1v-1.8h1.4v1.8h1.4v1.2h-1.4v2.5c0,0.3,0,0.5,0.1,0.6s0.1,0.3,0.2,0.4
				c0.1,0.1,0.2,0.1,0.3,0.2c0.1,0,0.2,0,0.4,0c0.1,0,0.2,0,0.4,0c0.1,0,0.3,0,0.3,0V141.7z"/>
			<path style="fill:#7ED1E9;" d="M278.9,139.1c0,0.2,0.1,0.4,0.1,0.6s0.2,0.4,0.3,0.5c0.1,0.1,0.3,0.3,0.5,0.3
				c0.2,0.1,0.4,0.1,0.7,0.1c0.4,0,0.7-0.1,0.9-0.2c0.2-0.2,0.3-0.3,0.4-0.6h1.4c0,0.3-0.1,0.5-0.3,0.7c-0.1,0.2-0.3,0.4-0.6,0.6
				c-0.2,0.2-0.5,0.3-0.8,0.4c-0.3,0.1-0.7,0.2-1.1,0.2c-0.5,0-1-0.1-1.3-0.2c-0.4-0.2-0.7-0.4-0.9-0.7c-0.3-0.3-0.4-0.6-0.6-1
				c-0.1-0.4-0.2-0.8-0.2-1.2c0-0.4,0.1-0.9,0.2-1.3s0.3-0.7,0.6-1c0.2-0.3,0.6-0.5,0.9-0.7c0.4-0.2,0.8-0.2,1.3-0.2
				c0.4,0,0.8,0.1,1.1,0.2s0.6,0.3,0.9,0.6c0.3,0.2,0.5,0.5,0.6,0.9s0.2,0.7,0.2,1.1c0,0.1,0,0.2,0,0.4c0,0.1,0,0.3-0.1,0.5H278.9z
				 M280.4,136.6c-0.4,0-0.8,0.1-1.1,0.4s-0.4,0.6-0.4,1.1h3c0-0.5-0.1-0.8-0.4-1.1C281.2,136.7,280.8,136.6,280.4,136.6z"/>
			<path style="fill:#7ED1E9;" d="M286.5,136.5c0.2-0.3,0.5-0.5,0.8-0.7c0.3-0.2,0.7-0.3,1.1-0.3c0.5,0,0.9,0.1,1.3,0.3
				c0.4,0.2,0.7,0.4,1,0.7c0.3,0.3,0.5,0.6,0.6,1c0.2,0.4,0.2,0.8,0.2,1.2c0,0.4-0.1,0.8-0.2,1.2c-0.2,0.4-0.4,0.7-0.6,1
				s-0.6,0.5-1,0.7s-0.8,0.3-1.3,0.3c-0.4,0-0.7-0.1-1.1-0.3c-0.4-0.2-0.6-0.4-0.8-0.7v3.9h-1.4v-9.1h1.4V136.5z M288.3,136.7
				c-0.3,0-0.5,0.1-0.7,0.2c-0.2,0.1-0.4,0.2-0.6,0.4s-0.3,0.4-0.4,0.6c-0.1,0.2-0.1,0.5-0.1,0.7s0,0.5,0.1,0.7s0.2,0.4,0.4,0.6
				s0.3,0.3,0.6,0.4c0.2,0.1,0.5,0.2,0.7,0.2c0.3,0,0.5-0.1,0.7-0.2c0.2-0.1,0.4-0.2,0.6-0.4c0.2-0.2,0.3-0.4,0.4-0.6
				s0.1-0.5,0.1-0.7s0-0.5-0.1-0.7c-0.1-0.2-0.2-0.4-0.4-0.6c-0.2-0.2-0.3-0.3-0.6-0.4C288.8,136.8,288.6,136.7,288.3,136.7z"/>
			<path style="fill:#7ED1E9;" d="M268.5,156.4h-3.3v-6.4h1.5v5h1.8v-2.7h1.5v2.7h1.2v1.3H270v2.7h-1.5V156.4z"/>
			<path style="fill:#7ED1E9;" d="M272.7,158.2c0-0.3,0.1-0.5,0.3-0.7s0.4-0.3,0.7-0.3c0.3,0,0.5,0.1,0.7,0.3
				c0.2,0.2,0.3,0.5,0.3,0.7c0,0.3-0.1,0.5-0.3,0.7c-0.2,0.2-0.5,0.3-0.7,0.3c-0.3,0-0.5-0.1-0.7-0.3
				C272.8,158.7,272.7,158.5,272.7,158.2z"/>
		</g>
	</g>
</g>
</svg>
