<?xml version="1.0" encoding="utf-8"?>
<!-- Generator: Adobe Illustrator 18.0.0, SVG Export Plug-In . SVG Version: 6.00 Build 0)  -->
<!DOCTYPE svg PUBLIC "-//W3C//DTD SVG 1.1//EN" "http://www.w3.org/Graphics/SVG/1.1/DTD/svg11.dtd">
<svg version="1.1" id="Layer_1" xmlns="http://www.w3.org/2000/svg" xmlns:xlink="http://www.w3.org/1999/xlink" x="0px" y="0px"
	 viewBox="0 0 380.5 352.7" style="enable-background:new 0 0 380.5 352.7;" xml:space="preserve">
<g>
	<g>
		<path style="fill:#133B4A;" d="M139.9,198.9c-17.4,0-31.5-14.1-31.5-31.5s14.1-31.5,31.5-31.5h209c17.4,0,31.5,14.1,31.5,31.5
			s-14.1,31.5-31.5,31.5H139.9z"/>
	</g>
	<g>
		<g>
			<g>
				<path style="fill:#7ED1E9;" d="M249.2,70.4h-11.2c-0.3,0-0.5-0.2-0.5-0.5s0.2-0.5,0.5-0.5h11.2c0.3,0,0.5,0.2,0.5,0.5
					S249.4,70.4,249.2,70.4z"/>
			</g>
			<g>
				<path style="fill:#7ED1E9;" d="M249.2,73.7h-11.2c-0.3,0-0.5-0.2-0.5-0.5s0.2-0.5,0.5-0.5h11.2c0.3,0,0.5,0.2,0.5,0.5
					S249.4,73.7,249.2,73.7z"/>
			</g>
		</g>
		<g>
			<g>
				<path style="fill:#7ED1E9;" d="M246,77.4c-0.1,0-0.2,0-0.3-0.1c-0.2-0.2-0.2-0.5,0-0.7l4.4-5l-4.4-5c-0.2-0.2-0.2-0.5,0-0.7
					c0.2-0.2,0.5-0.2,0.7,0l5,5.6l-5,5.6C246.3,77.3,246.1,77.4,246,77.4z"/>
			</g>
		</g>
	</g>
	<g>
		<g>
			<g>
				<path style="fill:#7ED1E9;" d="M249.2,166.2h-11.2c-0.3,0-0.5-0.2-0.5-0.5s0.2-0.5,0.5-0.5h11.2c0.3,0,0.5,0.2,0.5,0.5
					S249.4,166.2,249.2,166.2z"/>
			</g>
			<g>
				<path style="fill:#7ED1E9;" d="M249.2,169.4h-11.2c-0.3,0-0.5-0.2-0.5-0.5s0.2-0.5,0.5-0.5h11.2c0.3,0,0.5,0.2,0.5,0.5
					S249.4,169.4,249.2,169.4z"/>
			</g>
		</g>
		<g>
			<g>
				<path style="fill:#7ED1E9;" d="M246,173.1c-0.1,0-0.2,0-0.3-0.1c-0.2-0.2-0.2-0.5,0-0.7l4.4-5l-4.4-5c-0.2-0.2-0.2-0.5,0-0.7
					c0.2-0.2,0.5-0.2,0.7,0l5,5.6l-5,5.6C246.3,173,246.1,173.1,246,173.1z"/>
			</g>
		</g>
	</g>
	<g>
		<path style="fill:#052A39;" d="M197.5,83.4C197.5,83.4,197.5,83.4,197.5,83.4V59.8v0v-0.1h0c0-2.1-1.4-4.2-4.2-5.8
			c-5.6-3.2-14.8-3.2-20.4,0c-2.8,1.6-4.2,3.7-4.2,5.8h0v23.7h0c0,2.1,1.4,4.2,4.2,5.9c5.6,3.2,14.8,3.2,20.4,0
			C196,87.7,197.4,85.5,197.5,83.4L197.5,83.4L197.5,83.4z"/>
	</g>
	<g>
		<path style="fill:#2C5D6E;" d="M192.6,54.6c5.3,3,5.3,7.9,0,10.9c-5.3,3-13.8,3-19.1,0c-5.3-3-5.3-7.9,0-10.9
			C178.8,51.6,187.3,51.6,192.6,54.6z"/>
	</g>
	<g>
		<line style="fill:#FFFFFF;" x1="192.3" y1="78.5" x2="192.3" y2="89"/>
		<path style="fill:#7ED1E9;" d="M192.3,89.8c-0.4,0-0.8-0.4-0.8-0.8V78.5c0-0.4,0.4-0.8,0.8-0.8c0.4,0,0.8,0.4,0.8,0.8V89
			C193.1,89.5,192.7,89.8,192.3,89.8z"/>
	</g>
	<g>
		<g>
			<polygon style="fill:#052A39;" points="162.9,155.1 183,143.3 203.2,155.1 203.2,178.6 183,190.3 162.9,178.6 			"/>
			<path style="fill:#7ED1E9;" d="M183,191.1c-0.1,0-0.3,0-0.4-0.1l-20.1-11.8c-0.2-0.1-0.4-0.4-0.4-0.7v-23.5
				c0-0.3,0.2-0.5,0.4-0.7l20.1-11.8c0.2-0.1,0.6-0.1,0.8,0l20.1,11.8c0.2,0.1,0.4,0.4,0.4,0.7v23.5c0,0.3-0.2,0.5-0.4,0.7
				L183.4,191C183.3,191.1,183.2,191.1,183,191.1z M163.7,178.1l19.3,11.3l19.3-11.3v-22.6L183,144.2l-19.3,11.3V178.1z"/>
		</g>
		<g>
			<path style="fill:#2C5D6E;" d="M202.3,155.5L183,166.7l-19.3-11.1l19.3-11.2L202.3,155.5z"/>
		</g>
		<g>
			<line style="fill:#FFFFFF;" x1="183" y1="181.6" x2="183" y2="190.3"/>
			<path style="fill:#7ED1E9;" d="M183,191.1c-0.4,0-0.8-0.4-0.8-0.8v-8.7c0-0.4,0.4-0.8,0.8-0.8s0.8,0.4,0.8,0.8v8.7
				C183.8,190.8,183.5,191.1,183,191.1z"/>
		</g>
	</g>
	<g>
		<g>
			<g>
				<polygon style="fill:#052A39;" points="286.3,172.7 306.5,161 326.6,172.7 326.6,196.2 306.5,208 286.3,196.2 				"/>
				<path style="fill:#7ED1E9;" d="M306.5,208.8c-0.1,0-0.3,0-0.4-0.1l-20.1-11.8c-0.2-0.1-0.4-0.4-0.4-0.7v-23.5
					c0-0.3,0.2-0.5,0.4-0.7l20.1-11.8c0.2-0.1,0.6-0.1,0.8,0L327,172c0.2,0.1,0.4,0.4,0.4,0.7v23.5c0,0.3-0.2,0.5-0.4,0.7
					l-20.1,11.8C306.7,208.7,306.6,208.8,306.5,208.8z M287.1,195.8l19.3,11.3l19.3-11.3v-22.6l-19.3-11.3l-19.3,11.3V195.8z"/>
			</g>
			<g>
				<path style="fill:#2C5D6E;" d="M325.7,173.2l-19.3,11.1l-19.3-11.1l19.3-11.2L325.7,173.2z"/>
			</g>
			<g>
				<line style="fill:#FFFFFF;" x1="306.5" y1="199.2" x2="306.5" y2="208"/>
				<path style="fill:#7ED1E9;" d="M306.5,208.8c-0.4,0-0.8-0.4-0.8-0.8v-8.7c0-0.4,0.4-0.8,0.8-0.8s0.8,0.4,0.8,0.8v8.7
					C307.3,208.4,306.9,208.8,306.5,208.8z"/>
			</g>
		</g>
		<g>
			<g>
				<polygon style="fill:#052A39;" points="286.3,144.2 306.4,132.4 326.5,167.6 306.4,179.3 286.3,167.4 				"/>
				<path style="fill:#7ED1E9;" d="M306.4,180.1c-0.1,0-0.3,0-0.4-0.1l-20.1-11.9c-0.2-0.1-0.4-0.4-0.4-0.7v-23.3
					c0-0.3,0.2-0.5,0.4-0.7l20.1-11.7c0.2-0.1,0.4-0.1,0.6-0.1c0.2,0.1,0.4,0.2,0.5,0.4l20.1,35.2c0.2,0.4,0.1,0.9-0.3,1.1
					L306.8,180C306.7,180.1,306.5,180.1,306.4,180.1z M287.1,167l19.3,11.4l19-11.1l-19.3-33.8l-19,11.1V167z"/>
			</g>
			<g>
				<g>
					<polygon style="fill:#2C5D6E;" points="306.4,178.3 325.6,167.1 306.4,133.4 287.2,144.7 					"/>
				</g>
				<g>
					<path style="fill:#7ED1E9;" d="M306.4,180.1c-0.1,0-0.3,0-0.4-0.1l-20.1-11.9c-0.2-0.1-0.4-0.4-0.4-0.7v-23.3
						c0-0.3,0.2-0.5,0.4-0.7l20.1-11.7c0.2-0.1,0.4-0.1,0.6-0.1c0.2,0.1,0.4,0.2,0.5,0.4l20.1,35.2c0.2,0.4,0.1,0.9-0.3,1.1
						L306.8,180C306.7,180.1,306.5,180.1,306.4,180.1z M287.1,167l19.3,11.4l19-11.1l-19.3-33.8l-19,11.1V167z"/>
				</g>
				<g>
					
						<path style="fill:none;stroke:#4B4F64;stroke-width:1.49;stroke-linecap:round;stroke-linejoin:round;stroke-miterlimit:10;" d="
						M296.4,150"/>
				</g>
			</g>
		</g>
		<g>
			<g>
				<polygon style="fill:#052A39;" points="286.9,137.4 307,125.7 327.1,137.4 327.1,161 307,172.7 				"/>
			</g>
		</g>
		<g>
			<g>
				<path style="fill:#2C5D6E;" d="M327.1,137.4L306.9,149l-20.1-11.6l20.1-11.7L327.1,137.4z"/>
			</g>
			<g>
				<g>
					<path style="fill:#7ED1E9;" d="M307,173.5c-0.1,0-0.1,0-0.2,0c-0.2-0.1-0.4-0.2-0.5-0.4l-20.1-35.3c-0.2-0.4-0.1-0.9,0.3-1.1
						l20.1-11.7c0.2-0.1,0.6-0.1,0.8,0l20.1,11.7c0.2,0.1,0.4,0.4,0.4,0.7V161c0,0.3-0.2,0.5-0.4,0.7l-20.1,11.7
						C307.2,173.5,307.1,173.5,307,173.5z M288,137.7l19.3,34l19-11v-22.7L307,126.6L288,137.7z"/>
				</g>
			</g>
			<g>
				<line style="fill:#FFFFFF;" x1="307" y1="149.8" x2="307" y2="154.5"/>
				<path style="fill:#7ED1E9;" d="M307,155.3c-0.4,0-0.8-0.4-0.8-0.8v-4.7c0-0.4,0.4-0.8,0.8-0.8s0.8,0.4,0.8,0.8v4.7
					C307.8,155,307.4,155.3,307,155.3z"/>
			</g>
			<g>
				<line style="fill:#FFFFFF;" x1="307" y1="164" x2="307" y2="172.7"/>
				<path style="fill:#7ED1E9;" d="M307,173.5c-0.4,0-0.8-0.4-0.8-0.8V164c0-0.4,0.4-0.8,0.8-0.8s0.8,0.4,0.8,0.8v8.7
					C307.8,173.2,307.4,173.5,307,173.5z"/>
			</g>
		</g>
	</g>
	<g>
		<path style="fill:#7ED1E9;" d="M183,92.5c-4,0-7.7-0.9-10.6-2.5c-3-1.7-4.6-4-4.6-6.5l0-23.7c0,0,0-0.1,0-0.1
			c0.1-2.4,1.7-4.7,4.6-6.4c2.8-1.6,6.6-2.5,10.6-2.5c4,0,7.7,0.9,10.6,2.5c2.9,1.7,4.5,3.9,4.6,6.4c0,0,0,0.1,0,0.1v23.6
			c0,2.5-1.7,4.9-4.6,6.6C190.8,91.6,187,92.5,183,92.5z M169.4,59.9v23.6c0,1.9,1.4,3.7,3.8,5.2c2.6,1.5,6.1,2.3,9.8,2.3
			c3.7,0,7.2-0.8,9.8-2.3c2.5-1.4,3.8-3.2,3.8-5.2l0-23.6c0,0,0-0.1,0-0.1c0-1.9-1.4-3.7-3.8-5.1c-2.6-1.5-6.1-2.3-9.8-2.3
			c-3.7,0-7.2,0.8-9.8,2.3C170.8,56.1,169.5,57.9,169.4,59.9C169.4,59.8,169.4,59.8,169.4,59.9z"/>
	</g>
	<g>
		<path style="fill:#518EA1;" d="M135,75.2c0.2,0,0.4,0.1,0.6,0.1c0.2,0,0.4,0,0.5,0c0.3,0,0.5,0,0.7-0.1c0.2-0.1,0.4-0.2,0.6-0.3
			s0.3-0.3,0.4-0.6c0.1-0.2,0.2-0.5,0.2-0.8c0-0.2,0-0.4-0.1-0.6c-0.1-0.2-0.2-0.4-0.4-0.6s-0.4-0.3-0.6-0.4
			c-0.2-0.1-0.5-0.2-0.9-0.2h-0.6v-1.1h0.5c0.3,0,0.6,0,0.8-0.1c0.2-0.1,0.4-0.2,0.6-0.3c0.1-0.1,0.3-0.3,0.3-0.5
			c0.1-0.2,0.1-0.4,0.1-0.6c0-0.5-0.2-0.8-0.5-1.1c-0.3-0.3-0.8-0.4-1.3-0.4c-0.5,0-0.9,0.2-1.3,0.5s-0.5,0.8-0.5,1.3v6.8h-1.2v-6.8
			c0-0.4,0.1-0.8,0.2-1.1s0.3-0.7,0.6-0.9s0.6-0.4,0.9-0.6c0.4-0.1,0.7-0.2,1.2-0.2c0.4,0,0.8,0.1,1.1,0.2c0.4,0.1,0.7,0.3,0.9,0.5
			c0.3,0.2,0.5,0.5,0.6,0.8c0.2,0.3,0.2,0.7,0.2,1.1c0,0.6-0.1,1-0.4,1.4c-0.3,0.4-0.7,0.6-1.2,0.8c0.5,0.2,0.9,0.4,1.3,0.8
			s0.5,0.9,0.5,1.4c0,0.5-0.1,0.9-0.3,1.3c-0.2,0.4-0.4,0.6-0.7,0.9s-0.6,0.4-1,0.5c-0.4,0.1-0.8,0.2-1.2,0.2c-0.2,0-0.4,0-0.6,0
			c-0.2,0-0.3-0.1-0.5-0.1V75.2z"/>
		<path style="fill:#518EA1;" d="M141.1,67c0.2,0,0.4,0,0.6-0.1s0.3-0.1,0.4-0.2s0.1-0.2,0.2-0.3s0-0.3,0-0.4h0.7v5.5h-0.7v-4.1
			h-1.1V67z"/>
	</g>
	<g>
		<path style="fill:#518EA1;" d="M134.2,171.5c0.2,0,0.4,0.1,0.6,0.1c0.2,0,0.4,0,0.5,0c0.3,0,0.5,0,0.7-0.1
			c0.2-0.1,0.4-0.2,0.6-0.3s0.3-0.3,0.4-0.6c0.1-0.2,0.2-0.5,0.2-0.8c0-0.2,0-0.4-0.1-0.6c-0.1-0.2-0.2-0.4-0.4-0.6
			s-0.4-0.3-0.6-0.4c-0.2-0.1-0.5-0.2-0.9-0.2h-0.6V167h0.5c0.3,0,0.6,0,0.8-0.1c0.2-0.1,0.4-0.2,0.6-0.3c0.1-0.1,0.3-0.3,0.3-0.5
			c0.1-0.2,0.1-0.4,0.1-0.6c0-0.5-0.2-0.8-0.5-1.1c-0.3-0.3-0.8-0.4-1.3-0.4c-0.5,0-0.9,0.2-1.3,0.5s-0.5,0.8-0.5,1.3v6.8h-1.2v-6.8
			c0-0.4,0.1-0.8,0.2-1.1s0.3-0.7,0.6-0.9s0.6-0.4,0.9-0.6c0.4-0.1,0.7-0.2,1.2-0.2c0.4,0,0.8,0.1,1.1,0.2c0.4,0.1,0.7,0.3,0.9,0.5
			c0.3,0.2,0.5,0.5,0.6,0.8c0.2,0.3,0.2,0.7,0.2,1.1c0,0.6-0.1,1-0.4,1.4c-0.3,0.4-0.7,0.6-1.2,0.8c0.5,0.2,0.9,0.4,1.3,0.8
			s0.5,0.9,0.5,1.4c0,0.5-0.1,0.9-0.3,1.3c-0.2,0.4-0.4,0.6-0.7,0.9s-0.6,0.4-1,0.5c-0.4,0.1-0.8,0.2-1.2,0.2c-0.2,0-0.4,0-0.6,0
			c-0.2,0-0.3-0.1-0.5-0.1V171.5z"/>
		<path style="fill:#518EA1;" d="M141,166.2c0,0.2,0,0.4,0.1,0.5c0.1,0.1,0.1,0.3,0.2,0.4c0.1,0.1,0.2,0.2,0.4,0.2
			c0.1,0.1,0.3,0.1,0.5,0.1c0.2,0,0.3,0,0.5-0.1s0.2-0.1,0.3-0.2c0.1-0.1,0.2-0.2,0.2-0.3c0.1-0.1,0.1-0.2,0.1-0.4
			c0-0.3-0.1-0.5-0.3-0.7s-0.5-0.3-0.9-0.3h-0.4v-0.6h0.4c0.4,0,0.6-0.1,0.8-0.3c0.2-0.2,0.2-0.4,0.2-0.7s-0.1-0.5-0.3-0.6
			c-0.2-0.1-0.4-0.2-0.7-0.2c-0.4,0-0.6,0.1-0.8,0.3c-0.2,0.2-0.2,0.4-0.2,0.7h-0.7c0-0.2,0-0.5,0.1-0.7s0.2-0.4,0.4-0.5
			c0.2-0.1,0.3-0.3,0.5-0.3c0.2-0.1,0.4-0.1,0.7-0.1c0.2,0,0.5,0,0.7,0.1c0.2,0.1,0.4,0.2,0.6,0.3c0.2,0.1,0.3,0.3,0.4,0.5
			c0.1,0.2,0.1,0.4,0.1,0.6c0,0.3-0.1,0.6-0.2,0.8s-0.4,0.4-0.6,0.4c0.3,0.1,0.5,0.2,0.7,0.5c0.2,0.2,0.3,0.5,0.3,0.9
			c0,0.2,0,0.5-0.1,0.7c-0.1,0.2-0.2,0.4-0.4,0.5s-0.4,0.3-0.6,0.3s-0.5,0.1-0.7,0.1c-0.3,0-0.5,0-0.7-0.1s-0.4-0.2-0.6-0.4
			c-0.2-0.2-0.3-0.4-0.4-0.6c-0.1-0.2-0.2-0.5-0.2-0.8H141z"/>
	</g>
	<g>
		<path style="fill:#518EA1;" d="M354.7,70v6.2h-1.2v-1.1c-0.2,0.4-0.5,0.7-0.9,0.9s-0.8,0.3-1.3,0.3c-0.5,0-0.9-0.1-1.3-0.3
			c-0.4-0.2-0.7-0.4-1-0.7s-0.5-0.6-0.6-1c-0.2-0.4-0.2-0.8-0.2-1.2c0-0.4,0.1-0.8,0.2-1.2c0.2-0.4,0.4-0.7,0.6-1
			c0.3-0.3,0.6-0.5,1-0.7s0.8-0.3,1.3-0.3c0.5,0,0.9,0.1,1.3,0.3s0.7,0.5,0.9,0.9V70H354.7z M351.4,75.3c0.3,0,0.6-0.1,0.9-0.2
			c0.3-0.1,0.5-0.3,0.7-0.5c0.2-0.2,0.3-0.4,0.4-0.7c0.1-0.3,0.1-0.5,0.1-0.8c0-0.3,0-0.6-0.1-0.8s-0.2-0.5-0.4-0.7
			c-0.2-0.2-0.4-0.4-0.7-0.5c-0.3-0.1-0.5-0.2-0.9-0.2s-0.6,0.1-0.9,0.2c-0.3,0.1-0.5,0.3-0.6,0.5c-0.2,0.2-0.3,0.4-0.4,0.7
			c-0.1,0.3-0.2,0.5-0.2,0.8c0,0.3,0,0.6,0.2,0.8c0.1,0.3,0.2,0.5,0.4,0.7c0.2,0.2,0.4,0.4,0.6,0.5
			C350.8,75.2,351.1,75.3,351.4,75.3z"/>
	</g>
	<g>
		<path style="fill:#518EA1;" d="M348.1,175.8v-1.2l4.9-6l-4.9-6v-1.1h7.1v1.1h-5.5l4.8,5.8l-4.8,6.1h5.5v1.2H348.1z"/>
	</g>
	<g>
		<g>
			<g>
				<path style="fill:#7ED1E9;" d="M60.5,14.5c-0.3,0-0.5-0.2-0.5-0.5V0.5C60,0.2,60.2,0,60.5,0S61,0.2,61,0.5V14
					C61,14.3,60.7,14.5,60.5,14.5z"/>
			</g>
			<g>
				<path style="fill:#7ED1E9;" d="M60.5,14.7L54.9,9c-0.2-0.2-0.2-0.5,0-0.7c0.2-0.2,0.5-0.2,0.7,0l4.9,5l4.9-5
					c0.2-0.2,0.5-0.2,0.7,0c0.2,0.2,0.2,0.5,0,0.7L60.5,14.7z"/>
			</g>
		</g>
		<g>
			<g>
				<path style="fill:#7ED1E9;" d="M60.5,56.6c-0.3,0-0.5-0.2-0.5-0.5V42.6c0-0.3,0.2-0.5,0.5-0.5s0.5,0.2,0.5,0.5v13.6
					C61,56.4,60.7,56.6,60.5,56.6z"/>
			</g>
			<g>
				<path style="fill:#7ED1E9;" d="M60.5,56.8l-5.6-5.7c-0.2-0.2-0.2-0.5,0-0.7c0.2-0.2,0.5-0.2,0.7,0l4.9,5l4.9-5
					c0.2-0.2,0.5-0.2,0.7,0c0.2,0.2,0.2,0.5,0,0.7L60.5,56.8z"/>
			</g>
		</g>
		<g>
			<g>
				<path style="fill:#7ED1E9;" d="M60.5,98.7c-0.3,0-0.5-0.2-0.5-0.5V84.7c0-0.3,0.2-0.5,0.5-0.5s0.5,0.2,0.5,0.5v13.6
					C61,98.5,60.7,98.7,60.5,98.7z"/>
			</g>
			<g>
				<path style="fill:#7ED1E9;" d="M60.5,98.9l-5.6-5.7c-0.2-0.2-0.2-0.5,0-0.7c0.2-0.2,0.5-0.2,0.7,0l4.9,5l4.9-5
					c0.2-0.2,0.5-0.2,0.7,0c0.2,0.2,0.2,0.5,0,0.7L60.5,98.9z"/>
			</g>
		</g>
	</g>
	<g>
		<path style="fill:#7ED1E9;" d="M11,22.1c0,0.6,0.2,1.1,0.5,1.4c0.3,0.3,0.8,0.5,1.3,0.5c0.2,0,0.4,0,0.6-0.1
			c0.2-0.1,0.3-0.2,0.5-0.3c0.1-0.1,0.2-0.3,0.3-0.4c0.1-0.2,0.1-0.4,0.1-0.6c0-0.2,0-0.4-0.1-0.6c-0.1-0.2-0.2-0.3-0.4-0.4
			c-0.1-0.1-0.3-0.2-0.5-0.3c-0.2-0.1-0.3-0.1-0.5-0.2c-0.4-0.1-0.8-0.3-1.2-0.4s-0.7-0.3-1-0.5c-0.3-0.2-0.5-0.5-0.6-0.8
			c-0.2-0.3-0.2-0.7-0.2-1.1c0-0.4,0.1-0.7,0.2-1c0.2-0.3,0.4-0.6,0.6-0.8c0.3-0.2,0.6-0.4,0.9-0.5c0.3-0.1,0.7-0.2,1.1-0.2
			c0.4,0,0.8,0.1,1.1,0.2c0.4,0.1,0.7,0.3,0.9,0.6s0.5,0.5,0.6,0.9c0.1,0.3,0.2,0.7,0.2,1.2h-1.5c0-0.4-0.1-0.8-0.4-1.1
			c-0.2-0.3-0.6-0.4-1-0.4c-0.4,0-0.7,0.1-1,0.3c-0.3,0.2-0.4,0.5-0.4,0.9c0,0.2,0,0.3,0.1,0.5c0.1,0.1,0.2,0.3,0.3,0.4
			c0.1,0.1,0.3,0.2,0.4,0.3c0.2,0.1,0.3,0.1,0.5,0.2c0.4,0.1,0.7,0.3,1.1,0.4c0.4,0.1,0.7,0.3,1,0.5c0.3,0.2,0.5,0.5,0.7,0.8
			c0.2,0.3,0.3,0.7,0.3,1.1c0,0.5-0.1,0.9-0.2,1.2c-0.2,0.4-0.4,0.7-0.7,0.9c-0.3,0.2-0.6,0.4-1,0.5c-0.4,0.1-0.8,0.2-1.2,0.2
			c-0.4,0-0.8-0.1-1.2-0.2c-0.4-0.1-0.7-0.4-1-0.6c-0.3-0.3-0.5-0.6-0.7-1s-0.3-0.8-0.3-1.4H11z"/>
		<path style="fill:#7ED1E9;" d="M21,25.1c-0.1,0-0.3,0-0.5,0.1s-0.4,0-0.6,0c-0.2,0-0.4,0-0.6,0s-0.4-0.1-0.6-0.3s-0.4-0.4-0.5-0.6
			C18.1,23.9,18,23.6,18,23v-2.8h-1V19h1v-1.8h1.4V19h1.4v1.2h-1.4v2.5c0,0.3,0,0.5,0.1,0.6s0.1,0.3,0.2,0.4
			c0.1,0.1,0.2,0.1,0.3,0.2s0.2,0,0.4,0c0.1,0,0.2,0,0.4,0s0.3,0,0.3,0V25.1z"/>
		<path style="fill:#7ED1E9;" d="M23.5,22.5c0,0.2,0.1,0.4,0.1,0.6s0.2,0.4,0.3,0.5c0.1,0.1,0.3,0.3,0.5,0.3
			c0.2,0.1,0.4,0.1,0.7,0.1c0.4,0,0.7-0.1,0.9-0.2c0.2-0.2,0.3-0.3,0.4-0.6h1.4c0,0.3-0.1,0.5-0.3,0.7c-0.1,0.2-0.3,0.4-0.6,0.6
			s-0.5,0.3-0.8,0.4c-0.3,0.1-0.7,0.2-1.1,0.2c-0.5,0-1-0.1-1.3-0.2c-0.4-0.2-0.7-0.4-0.9-0.7c-0.3-0.3-0.4-0.6-0.6-1
			c-0.1-0.4-0.2-0.8-0.2-1.2c0-0.4,0.1-0.9,0.2-1.3c0.1-0.4,0.3-0.7,0.6-1c0.3-0.3,0.6-0.5,0.9-0.7c0.4-0.2,0.8-0.2,1.3-0.2
			c0.4,0,0.8,0.1,1.1,0.2s0.6,0.3,0.9,0.6c0.3,0.2,0.5,0.5,0.6,0.9s0.2,0.7,0.2,1.1c0,0.1,0,0.2,0,0.4c0,0.1,0,0.3-0.1,0.5H23.5z
			 M25.1,19.9c-0.4,0-0.8,0.1-1.1,0.4c-0.3,0.3-0.4,0.6-0.4,1.1h3c0-0.5-0.1-0.8-0.4-1.1S25.5,19.9,25.1,19.9z"/>
		<path style="fill:#7ED1E9;" d="M31.2,19.9c0.2-0.3,0.5-0.5,0.8-0.7c0.3-0.2,0.7-0.3,1.1-0.3c0.5,0,0.9,0.1,1.3,0.3
			c0.4,0.2,0.7,0.4,1,0.7c0.3,0.3,0.5,0.6,0.6,1c0.2,0.4,0.2,0.8,0.2,1.2c0,0.4-0.1,0.8-0.2,1.2s-0.4,0.7-0.6,1
			c-0.3,0.3-0.6,0.5-1,0.7c-0.4,0.2-0.8,0.3-1.3,0.3c-0.4,0-0.7-0.1-1.1-0.3c-0.4-0.2-0.6-0.4-0.8-0.7v3.9h-1.4V19h1.4V19.9z
			 M33,20.1c-0.3,0-0.5,0.1-0.7,0.2c-0.2,0.1-0.4,0.2-0.6,0.4c-0.2,0.2-0.3,0.4-0.4,0.6c-0.1,0.2-0.1,0.5-0.1,0.7s0,0.5,0.1,0.7
			s0.2,0.4,0.4,0.6c0.2,0.2,0.3,0.3,0.6,0.4c0.2,0.1,0.5,0.2,0.7,0.2c0.3,0,0.5-0.1,0.7-0.2c0.2-0.1,0.4-0.2,0.6-0.4
			c0.2-0.2,0.3-0.4,0.4-0.6s0.1-0.5,0.1-0.7s0-0.5-0.1-0.7c-0.1-0.2-0.2-0.4-0.4-0.6c-0.2-0.2-0.3-0.3-0.6-0.4
			C33.5,20.2,33.2,20.1,33,20.1z"/>
		<path style="fill:#7ED1E9;" d="M10.9,39.5c0,0.3,0,0.6,0.1,0.8c0.1,0.2,0.2,0.4,0.4,0.6c0.2,0.2,0.3,0.3,0.6,0.4s0.4,0.1,0.7,0.1
			c0.2,0,0.4,0,0.6-0.1c0.2-0.1,0.3-0.2,0.5-0.3c0.1-0.1,0.2-0.3,0.3-0.5c0.1-0.2,0.1-0.4,0.1-0.5c0-0.2,0-0.4-0.1-0.6
			C14,39.2,14,39,13.8,38.9c-0.1-0.1-0.3-0.2-0.5-0.3c-0.2-0.1-0.5-0.1-0.8-0.1h-0.6v-1.3h0.6c0.5,0,0.9-0.1,1.1-0.4s0.3-0.6,0.3-1
			s-0.1-0.7-0.4-0.9s-0.5-0.3-0.9-0.3c-0.5,0-0.9,0.1-1.1,0.4s-0.3,0.6-0.3,1.1H9.7c0-0.4,0.1-0.8,0.2-1.2c0.1-0.3,0.3-0.6,0.6-0.9
			s0.5-0.4,0.9-0.6c0.3-0.1,0.7-0.2,1.1-0.2c0.4,0,0.8,0.1,1.1,0.2c0.4,0.1,0.7,0.3,0.9,0.5s0.5,0.5,0.6,0.8c0.2,0.3,0.2,0.6,0.2,1
			c0,0.5-0.1,0.9-0.3,1.3s-0.5,0.6-0.9,0.7c0.4,0.2,0.8,0.4,1,0.8s0.4,0.8,0.4,1.4c0,0.4-0.1,0.8-0.2,1.1c-0.2,0.3-0.4,0.6-0.7,0.9
			c-0.3,0.2-0.6,0.4-1,0.6c-0.4,0.1-0.8,0.2-1.2,0.2c-0.4,0-0.8-0.1-1.2-0.2s-0.7-0.4-1-0.6s-0.5-0.6-0.7-1
			c-0.2-0.4-0.3-0.8-0.3-1.4H10.9z"/>
		<path style="fill:#7ED1E9;" d="M17.5,41.6c0-0.3,0.1-0.5,0.3-0.7s0.4-0.3,0.7-0.3c0.3,0,0.5,0.1,0.7,0.3c0.2,0.2,0.3,0.5,0.3,0.7
			c0,0.3-0.1,0.5-0.3,0.7c-0.2,0.2-0.5,0.3-0.7,0.3c-0.3,0-0.5-0.1-0.7-0.3C17.6,42.1,17.5,41.9,17.5,41.6z"/>
	</g>
	<g>
		<g>
			<g>
				<polygon style="fill:#052A39;" points="306.7,100.9 287.1,76.2 306.7,64.9 326.3,76.2 				"/>
				<path style="fill:#7ED1E9;" d="M306.7,101.7c-0.2,0-0.5-0.1-0.6-0.3l-19.6-24.7c-0.1-0.2-0.2-0.4-0.2-0.6s0.2-0.4,0.4-0.5
					l19.6-11.3c0.2-0.1,0.6-0.1,0.8,0l19.6,11.3c0.2,0.1,0.3,0.3,0.4,0.5s0,0.5-0.2,0.6l-19.6,24.7
					C307.2,101.6,306.9,101.7,306.7,101.7z M288.3,76.4l18.4,23.2l18.4-23.2l-18.4-10.6L288.3,76.4z"/>
			</g>
		</g>
	</g>
	<g>
		<g>
			<path style="fill:#2C5D6E;" d="M326,76.1l-19.3,11.1l-19.3-11.1l19.3-11.2L326,76.1z"/>
		</g>
		<g>
			<g>
				<g>
					<path style="fill:#7ED1E9;" d="M306.7,101.7c-0.2,0-0.5-0.1-0.6-0.3l-19.6-24.7c-0.1-0.2-0.2-0.4-0.2-0.7
						c0-0.2,0.2-0.4,0.4-0.5l19.6-11.3c0.2-0.1,0.6-0.1,0.8,0l19.6,11.3c0.2,0.1,0.3,0.3,0.4,0.5c0,0.2,0,0.5-0.2,0.7l-19.6,24.7
						C307.2,101.6,306.9,101.7,306.7,101.7z M288.3,76.4l18.4,23.2l18.4-23.2l-18.4-10.6L288.3,76.4z"/>
				</g>
			</g>
		</g>
		<g>
			<g>
				<polygon style="fill:#052A39;" points="326.2,67.9 306.7,79.2 287.1,67.9 306.7,45.2 				"/>
			</g>
			<g>
				<g>
					<polygon style="fill:#2C5D6E;" points="306.7,79.2 306.7,45.2 326.2,67.9 					"/>
				</g>
				<g>
					<path style="fill:#7ED1E9;" d="M306.7,80c-0.1,0-0.3,0-0.4-0.1l-19.6-11.3c-0.2-0.1-0.4-0.3-0.4-0.6c0-0.2,0-0.5,0.2-0.7
						L306,44.7c0.3-0.4,0.9-0.4,1.2,0l19.6,22.7c0.2,0.2,0.2,0.4,0.2,0.7c0,0.2-0.2,0.4-0.4,0.6l-19.6,11.3
						C306.9,80,306.8,80,306.7,80z M288.3,67.7l18.3,10.6L325,67.7l-18.3-21.2L288.3,67.7z"/>
				</g>
			</g>
		</g>
		<g>
			<path style="fill:#7ED1E9;" d="M306.7,89.9c-0.4,0-0.8-0.4-0.8-0.8V87c0-0.4,0.4-0.8,0.8-0.8s0.8,0.4,0.8,0.8v2.1
				C307.5,89.5,307.1,89.9,306.7,89.9z"/>
		</g>
		<g>
			<path style="fill:#7ED1E9;" d="M306.7,100.2c-0.4,0-0.8-0.4-0.8-0.8v-5.1c0-0.4,0.4-0.8,0.8-0.8s0.8,0.4,0.8,0.8v5.1
				C307.5,99.8,307.1,100.2,306.7,100.2z"/>
		</g>
	</g>
</g>
</svg>
