<?xml version="1.0" encoding="utf-8"?>
<!-- Generator: Adobe Illustrator 18.0.0, SVG Export Plug-In . SVG Version: 6.00 Build 0)  -->
<!DOCTYPE svg PUBLIC "-//W3C//DTD SVG 1.1//EN" "http://www.w3.org/Graphics/SVG/1.1/DTD/svg11.dtd">
<svg version="1.1" id="Layer_1" xmlns="http://www.w3.org/2000/svg" xmlns:xlink="http://www.w3.org/1999/xlink" x="0px" y="0px"
	 viewBox="0 0 310 264" style="enable-background:new 0 0 310 264;" xml:space="preserve" preserveAspectRatio="xMidYMid">
	 <title>Gonto</title>
<path class="shape" d="M282.5,131.9L308.1,98c4.6-6.1,0.2-14.9-7.4-14.9h-41.9c-6.3,0-12.2,2.9-15.9,7.9l-20.9,27.8h-90.2
	c-7.2,0-13.1,5.9-13.1,13.1c0,7.2,5.9,13.1,13.1,13.1h44.4c-5.6,19.2-23.4,33.2-44.3,33.2c-25.5,0-46.2-20.7-46.2-46.2
	s20.7-46.2,46.2-46.2c8.7,0,17.3,2.5,24.6,7.1c6.1,3.9,14.2,2,18.1-4.1c3.9-6.1,2-14.2-4.1-18.1c-11.6-7.3-24.9-11.2-38.6-11.2
	c-39.9,0-72.4,32.5-72.4,72.4s32.5,72.4,72.4,72.4c35.5,0,65.1-25.7,71.2-59.4h18.9l20.9,27.8c3.8,5,9.7,7.9,15.9,7.9h41.9
	c7.7,0,12.1-8.8,7.4-14.9L282.5,131.9z M206.2,206.5c-19.9,19.8-46.4,30.8-74.5,30.8c-32.1,0-62.1-14.4-82.3-39.5
	c-15.2-18.9-23.2-41.8-23.2-66.1c0-58.2,47.3-105.5,105.5-105.5c24.3,0,47.1,8,66.1,23.2c5.6,4.5,13.9,3.6,18.4-2
	c4.5-5.6,3.6-13.9-2-18.4C191,10.3,161.7,0,131.8,0C59.1,0,0,59.1,0,131.8c0,29.9,10.3,59.2,29,82.5c25.2,31.3,62.6,49.3,102.8,49.3
	c35.1,0,68.1-13.6,93-38.4c5.1-5.1,5.1-13.4,0-18.5C219.7,201.5,211.4,201.4,206.2,206.5z"/>
</svg>
