<?xml version="1.0" encoding="utf-8"?>
<!-- Generator: Adobe Illustrator 18.0.0, SVG Export Plug-In . SVG Version: 6.00 Build 0)  -->
<!DOCTYPE svg PUBLIC "-//W3C//DTD SVG 1.1//EN" "http://www.w3.org/Graphics/SVG/1.1/DTD/svg11.dtd">
<svg version="1.1" id="Layer_1" xmlns="http://www.w3.org/2000/svg" xmlns:xlink="http://www.w3.org/1999/xlink" x="0px" y="0px"
	 viewBox="-0.2 -0.4 48 17" style="enable-background:new -0.2 -0.4 48 17;" xml:space="preserve">
<g class="shape">
	<path d="M17.4,8.2L19,6.1c0.3-0.4,0-0.9-0.5-0.9H16c-0.4,0-0.7,0.2-1,0.5l-1.3,1.7H8.1c-0.4,0-0.8,0.4-0.8,0.8
		c0,0.4,0.4,0.8,0.8,0.8h2.7C10.5,10.1,9.4,11,8.1,11c-1.6,0-2.8-1.3-2.8-2.8s1.3-2.8,2.8-2.8c0.5,0,1.1,0.1,1.5,0.4
		C10,6,10.5,5.9,10.8,5.5c0.2-0.4,0.1-0.9-0.2-1.1C9.8,3.9,9,3.7,8.1,3.7c-2.5,0-4.5,2-4.5,4.5s2,4.5,4.5,4.5c2.2,0,4-1.6,4.4-3.7
		h1.2l1.3,1.7c0.2,0.3,0.6,0.5,1,0.5h2.6c0.5,0,0.7-0.5,0.5-0.9L17.4,8.2z M12.7,12.8c-1.2,1.2-2.9,1.9-4.6,1.9
		c-2,0-3.8-0.9-5.1-2.4C2.1,11,1.6,9.6,1.6,8.1c0-3.6,2.9-6.5,6.5-6.5c1.5,0,2.9,0.5,4.1,1.4c0.3,0.3,0.9,0.2,1.1-0.1
		c0.3-0.3,0.2-0.9-0.1-1.1C11.8,0.6,10,0,8.1,0C3.6,0,0,3.6,0,8.1c0,1.8,0.6,3.7,1.8,5.1c1.6,1.9,3.9,3,6.3,3c2.2,0,4.2-0.8,5.7-2.4
		c0.3-0.3,0.3-0.8,0-1.1C13.6,12.4,13,12.4,12.7,12.8z"/>
	<path d="M26.2,7.9h-1.1c-0.2,0-0.4,0.2-0.4,0.4c0,0.2,0.2,0.4,0.4,0.4h0.7v0.5c-0.2,0.1-0.5,0.3-0.8,0.3c-0.7,0-1.2-0.6-1.2-1.3
		c0-0.7,0.5-1.3,1.2-1.3c0.3,0,0.6,0.1,0.8,0.3c0.1,0.1,0.2,0.1,0.3,0.1c0.2,0,0.4-0.2,0.4-0.4c0-0.1,0-0.2-0.1-0.3
		c-0.3-0.3-0.8-0.6-1.4-0.6c-1.2,0-2.1,0.8-2.1,2.1c0,1.2,0.9,2.1,2.1,2.1c0.8,0,1.7-0.4,1.7-1.1V8.4C26.6,8.2,26.4,7.9,26.2,7.9z
		 M30.1,6.1c-1.2,0-2.1,0.8-2.1,2.1s0.9,2.1,2.1,2.1c1.2,0,2.1-0.8,2.1-2.1S31.3,6.1,30.1,6.1z M30.1,9.5c-0.7,0-1.2-0.6-1.2-1.3
		c0-0.7,0.5-1.3,1.2-1.3c0.7,0,1.2,0.6,1.2,1.3S30.9,9.5,30.1,9.5z M37,6.2c-0.2,0-0.4,0.2-0.4,0.4v2.1l-1.7-2.3
		c-0.1-0.1-0.3-0.2-0.5-0.2c-0.3,0-0.6,0.3-0.6,0.5v3.1c0,0.2,0.2,0.4,0.4,0.4c0.2,0,0.4-0.2,0.4-0.4V7.5l1.8,2.4
		c0.1,0.1,0.3,0.2,0.4,0.2c0.3,0,0.5-0.2,0.5-0.5V6.6C37.4,6.3,37.2,6.2,37,6.2z M41.8,6.2h-2.5c-0.2,0-0.4,0.2-0.4,0.4
		c0,0.2,0.2,0.4,0.4,0.4h0.8v2.8c0,0.2,0.2,0.4,0.4,0.4c0.2,0,0.4-0.2,0.4-0.4V6.9h0.8c0.2,0,0.4-0.2,0.4-0.4
		C42.2,6.3,42,6.2,41.8,6.2z M45.5,6.1c-1.2,0-2.1,0.8-2.1,2.1s0.9,2.1,2.1,2.1c1.2,0,2.1-0.8,2.1-2.1S46.7,6.1,45.5,6.1z M45.5,9.5
		c-0.7,0-1.2-0.6-1.2-1.3c0-0.7,0.5-1.3,1.2-1.3s1.2,0.6,1.2,1.3S46.2,9.5,45.5,9.5z"/>
</g>
</svg>
