<?xml version="1.0" encoding="utf-8"?>
<!-- Generator: Adobe Illustrator 18.0.0, SVG Export Plug-In . SVG Version: 6.00 Build 0)  -->
<!DOCTYPE svg PUBLIC "-//W3C//DTD SVG 1.1//EN" "http://www.w3.org/Graphics/SVG/1.1/DTD/svg11.dtd">
<svg version="1.1" id="Layer_1" xmlns="http://www.w3.org/2000/svg" xmlns:xlink="http://www.w3.org/1999/xlink" x="0px" y="0px"
	 viewBox="0 0 287.8 320" style="enable-background:new 0 0 287.8 320;" xml:space="preserve">
<g>
	<g>
		<path style="fill:#6C8081;" d="M243.7,154.9v-2h-1.9v-1.3h1.9v-2h1.4v2h1.9v1.3h-1.9v2H243.7z"/>
		<path style="fill:#6C8081;" d="M251.1,153.8c0,0.3,0,0.6,0.1,0.8c0.1,0.2,0.2,0.4,0.4,0.6c0.2,0.2,0.3,0.3,0.6,0.4
			c0.2,0.1,0.4,0.1,0.7,0.1c0.2,0,0.4,0,0.6-0.1s0.4-0.2,0.5-0.3s0.2-0.3,0.3-0.5c0.1-0.2,0.1-0.4,0.1-0.5c0-0.2,0-0.4-0.1-0.6
			c-0.1-0.2-0.1-0.3-0.3-0.5c-0.1-0.1-0.3-0.2-0.5-0.3s-0.5-0.1-0.8-0.1h-0.6v-1.3h0.6c0.5,0,0.9-0.1,1.1-0.4s0.3-0.6,0.3-1
			c0-0.4-0.1-0.7-0.4-0.9s-0.5-0.3-0.9-0.3c-0.5,0-0.9,0.1-1.1,0.4c-0.2,0.3-0.3,0.6-0.3,1.1h-1.5c0-0.4,0.1-0.8,0.2-1.2
			c0.1-0.3,0.3-0.6,0.6-0.9c0.3-0.3,0.5-0.4,0.9-0.6s0.7-0.2,1.1-0.2c0.4,0,0.8,0.1,1.1,0.2c0.4,0.1,0.7,0.3,0.9,0.5
			c0.3,0.2,0.5,0.5,0.6,0.8c0.2,0.3,0.2,0.6,0.2,1c0,0.5-0.1,0.9-0.3,1.3c-0.2,0.3-0.5,0.6-0.9,0.7c0.4,0.2,0.8,0.4,1,0.8
			c0.3,0.3,0.4,0.8,0.4,1.4c0,0.4-0.1,0.8-0.2,1.1c-0.2,0.3-0.4,0.6-0.7,0.9c-0.3,0.2-0.6,0.4-1,0.6c-0.4,0.1-0.8,0.2-1.2,0.2
			s-0.8-0.1-1.2-0.2c-0.4-0.1-0.7-0.4-1-0.6c-0.3-0.3-0.5-0.6-0.7-1s-0.3-0.8-0.3-1.4H251.1z"/>
		<path style="fill:#6C8081;" d="M258.2,150.7c0-0.4,0.1-0.8,0.2-1.2c0.2-0.4,0.4-0.7,0.6-1c0.3-0.3,0.6-0.5,1-0.7
			c0.4-0.2,0.8-0.3,1.3-0.3s0.9,0.1,1.3,0.3s0.7,0.4,1,0.7c0.3,0.3,0.5,0.6,0.6,1s0.2,0.8,0.2,1.2v3c0,0.4-0.1,0.8-0.2,1.2
			c-0.2,0.4-0.4,0.7-0.6,1c-0.3,0.3-0.6,0.5-1,0.7s-0.8,0.3-1.3,0.3s-0.9-0.1-1.3-0.3c-0.4-0.2-0.7-0.4-1-0.7s-0.5-0.6-0.6-1
			c-0.2-0.4-0.2-0.8-0.2-1.2V150.7z M259.7,153.8c0,0.2,0,0.4,0.1,0.7l2.3-5.4c-0.2-0.1-0.5-0.2-0.7-0.2c-0.3,0-0.5,0-0.7,0.1
			s-0.4,0.2-0.5,0.4c-0.1,0.2-0.3,0.4-0.3,0.6c-0.1,0.2-0.1,0.5-0.1,0.7V153.8z M263.1,150.7c0-0.1,0-0.2,0-0.3c0-0.1,0-0.2,0-0.3
			l-2.3,5.3c0.2,0.1,0.4,0.1,0.6,0.1c0.3,0,0.5,0,0.7-0.1c0.2-0.1,0.4-0.2,0.5-0.4s0.3-0.4,0.3-0.6c0.1-0.2,0.1-0.5,0.1-0.7V150.7z"
			/>
		<path style="fill:#6C8081;" d="M267.3,151v-1.7c0-0.2,0-0.5,0.1-0.7c0.1-0.2,0.2-0.4,0.4-0.6c0.2-0.2,0.4-0.3,0.6-0.4
			c0.2-0.1,0.5-0.1,0.8-0.1c0.3,0,0.6,0,0.8,0.1c0.2,0.1,0.4,0.2,0.6,0.4c0.2,0.2,0.3,0.4,0.4,0.6c0.1,0.2,0.1,0.4,0.1,0.7v1.7
			c0,0.2,0,0.5-0.1,0.7s-0.2,0.4-0.4,0.6c-0.2,0.2-0.4,0.3-0.6,0.4c-0.2,0.1-0.5,0.1-0.8,0.1c-0.3,0-0.6,0-0.8-0.1
			c-0.2-0.1-0.4-0.2-0.6-0.4c-0.2-0.2-0.3-0.3-0.4-0.6C267.3,151.5,267.3,151.3,267.3,151z M269.9,149.4c0-0.2-0.1-0.4-0.2-0.6
			c-0.1-0.2-0.3-0.2-0.6-0.2c-0.2,0-0.4,0.1-0.5,0.2c-0.1,0.2-0.2,0.4-0.2,0.6v1.7c0,0.2,0.1,0.4,0.2,0.6s0.3,0.2,0.5,0.2
			c0.2,0,0.4-0.1,0.6-0.2s0.2-0.4,0.2-0.6V149.4z M274.5,147l1.1,0.7l-5.7,9.8l-1.1-0.7L274.5,147z M277.5,155.1
			c0,0.2,0,0.5-0.1,0.7c-0.1,0.2-0.2,0.4-0.4,0.6c-0.2,0.2-0.4,0.3-0.6,0.4c-0.2,0.1-0.5,0.1-0.8,0.1s-0.6,0-0.8-0.1
			c-0.2-0.1-0.4-0.2-0.6-0.4c-0.2-0.2-0.3-0.3-0.4-0.6c-0.1-0.2-0.1-0.4-0.1-0.7v-1.7c0-0.2,0-0.5,0.1-0.7c0.1-0.2,0.2-0.4,0.4-0.6
			c0.2-0.2,0.4-0.3,0.6-0.4s0.5-0.1,0.8-0.1s0.6,0,0.8,0.1s0.4,0.2,0.6,0.4c0.2,0.2,0.3,0.4,0.4,0.6c0.1,0.2,0.1,0.4,0.1,0.7V155.1z
			 M274.8,155.1c0,0.2,0.1,0.4,0.2,0.6s0.3,0.2,0.5,0.2c0.2,0,0.4-0.1,0.6-0.2s0.2-0.4,0.2-0.6v-1.7c0-0.2-0.1-0.4-0.2-0.6
			s-0.3-0.2-0.6-0.2c-0.2,0-0.4,0.1-0.5,0.2s-0.2,0.4-0.2,0.6V155.1z"/>
		<path style="fill:#6C8081;" d="M282.4,154.4c0-0.3,0-0.5,0-0.8c0-0.2,0.1-0.5,0.1-0.7c0.1-0.2,0.2-0.4,0.3-0.6s0.3-0.3,0.5-0.5
			c0.1-0.1,0.3-0.2,0.4-0.3c0.1-0.1,0.3-0.2,0.4-0.4c0.1-0.1,0.2-0.3,0.3-0.5c0.1-0.2,0.1-0.4,0.1-0.6c0-0.4-0.1-0.7-0.4-0.9
			s-0.6-0.3-1-0.3c-0.2,0-0.4,0-0.5,0.1c-0.2,0.1-0.3,0.1-0.4,0.3c-0.1,0.1-0.2,0.3-0.3,0.5c-0.1,0.2-0.1,0.4-0.1,0.7h-1.5
			c0-0.5,0.1-0.9,0.2-1.2s0.4-0.7,0.6-0.9s0.6-0.4,0.9-0.5s0.7-0.2,1.1-0.2c0.4,0,0.8,0.1,1.1,0.2c0.3,0.1,0.6,0.3,0.9,0.5
			c0.3,0.2,0.5,0.5,0.6,0.8c0.2,0.3,0.2,0.7,0.2,1.1c0,0.3,0,0.6-0.1,0.8c-0.1,0.2-0.2,0.5-0.4,0.6c-0.1,0.2-0.3,0.3-0.5,0.5
			s-0.3,0.3-0.4,0.4c-0.2,0.2-0.4,0.3-0.5,0.4c-0.1,0.1-0.2,0.3-0.3,0.4c-0.1,0.1-0.1,0.3-0.1,0.5c0,0.2,0,0.4,0,0.6H282.4z
			 M282,155.9c0-0.1,0-0.3,0.1-0.4c0.1-0.1,0.1-0.3,0.2-0.4s0.2-0.2,0.3-0.2s0.3-0.1,0.4-0.1c0.2,0,0.3,0,0.4,0.1
			c0.1,0.1,0.3,0.1,0.4,0.2s0.2,0.2,0.2,0.4c0.1,0.1,0.1,0.3,0.1,0.4s0,0.3-0.1,0.4c-0.1,0.1-0.1,0.3-0.2,0.4s-0.2,0.2-0.4,0.2
			c-0.1,0.1-0.3,0.1-0.4,0.1c-0.2,0-0.3,0-0.4-0.1s-0.2-0.1-0.3-0.2s-0.2-0.2-0.2-0.4C282,156.2,282,156.1,282,155.9z"/>
	</g>
	<g>
		<g>
			<polyline style="fill:#B6C3C9;" points="21.6,265.2 21.6,208.2 59.7,208.2 59.7,265.2 			"/>
			<path style="fill:#0A2E3D;" d="M59.7,266.5c-0.7,0-1.2-0.6-1.2-1.2v-55.8H22.8v55.8c0,0.7-0.6,1.2-1.2,1.2s-1.2-0.6-1.2-1.2v-57
				c0-0.7,0.6-1.2,1.2-1.2h38.2c0.7,0,1.2,0.6,1.2,1.2v57C61,265.9,60.4,266.5,59.7,266.5z"/>
		</g>
	</g>
	<g>
		<polyline style="fill:#B6C3C9;" points="71.3,265.2 71.3,192.3 109.5,192.3 109.5,265.2 		"/>
		<path style="fill:#0A2E3D;" d="M109.5,266.5c-0.7,0-1.2-0.6-1.2-1.2v-71.7H72.6v71.7c0,0.7-0.6,1.2-1.2,1.2s-1.2-0.6-1.2-1.2
			v-72.9c0-0.7,0.6-1.2,1.2-1.2h38.2c0.7,0,1.2,0.6,1.2,1.2v72.9C110.7,265.9,110.1,266.5,109.5,266.5z"/>
	</g>
	<g>
		<path style="fill:#0A2E3D;" d="M121,266.5c-0.7,0-1.2-0.6-1.2-1.2v-0.9c0-0.7,0.6-1.2,1.2-1.2s1.2,0.6,1.2,1.2v0.9
			C122.3,265.9,121.7,266.5,121,266.5z M159.2,262.5c-0.7,0-1.2-0.6-1.2-1.2v-0.9c0-0.7,0.6-1.2,1.2-1.2s1.2,0.6,1.2,1.2v0.9
			C160.4,262,159.9,262.5,159.2,262.5z M121,260.9c-0.7,0-1.2-0.6-1.2-1.2v-0.9c0-0.7,0.6-1.2,1.2-1.2s1.2,0.6,1.2,1.2v0.9
			C122.3,260.3,121.7,260.9,121,260.9z M159.2,256.9c-0.7,0-1.2-0.6-1.2-1.2v-0.9c0-0.7,0.6-1.2,1.2-1.2s1.2,0.6,1.2,1.2v0.9
			C160.4,256.4,159.9,256.9,159.2,256.9z M121,255.3c-0.7,0-1.2-0.6-1.2-1.2v-0.9c0-0.7,0.6-1.2,1.2-1.2s1.2,0.6,1.2,1.2v0.9
			C122.3,254.7,121.7,255.3,121,255.3z M159.2,251.3c-0.7,0-1.2-0.6-1.2-1.2v-0.9c0-0.7,0.6-1.2,1.2-1.2s1.2,0.6,1.2,1.2v0.9
			C160.4,250.8,159.9,251.3,159.2,251.3z M121,249.7c-0.7,0-1.2-0.6-1.2-1.2v-0.9c0-0.7,0.6-1.2,1.2-1.2s1.2,0.6,1.2,1.2v0.9
			C122.3,249.1,121.7,249.7,121,249.7z M159.2,245.7c-0.7,0-1.2-0.6-1.2-1.2v-0.9c0-0.7,0.6-1.2,1.2-1.2s1.2,0.6,1.2,1.2v0.9
			C160.4,245.2,159.9,245.7,159.2,245.7z M121,244.1c-0.7,0-1.2-0.6-1.2-1.2v-0.9c0-0.7,0.6-1.2,1.2-1.2s1.2,0.6,1.2,1.2v0.9
			C122.3,243.5,121.7,244.1,121,244.1z M159.2,240.2c-0.7,0-1.2-0.6-1.2-1.2V238c0-0.7,0.6-1.2,1.2-1.2s1.2,0.6,1.2,1.2v0.9
			C160.4,239.6,159.9,240.2,159.2,240.2z M121,238.5c-0.7,0-1.2-0.6-1.2-1.2v-0.9c0-0.7,0.6-1.2,1.2-1.2s1.2,0.6,1.2,1.2v0.9
			C122.3,238,121.7,238.5,121,238.5z M159.2,234.6c-0.7,0-1.2-0.6-1.2-1.2v-0.9c0-0.7,0.6-1.2,1.2-1.2s1.2,0.6,1.2,1.2v0.9
			C160.4,234,159.9,234.6,159.2,234.6z M121,232.9c-0.7,0-1.2-0.6-1.2-1.2v-0.9c0-0.7,0.6-1.2,1.2-1.2s1.2,0.6,1.2,1.2v0.9
			C122.3,232.4,121.7,232.9,121,232.9z M159.2,229c-0.7,0-1.2-0.6-1.2-1.2v-0.9c0-0.7,0.6-1.2,1.2-1.2s1.2,0.6,1.2,1.2v0.9
			C160.4,228.4,159.9,229,159.2,229z M121,227.3c-0.7,0-1.2-0.6-1.2-1.2v-0.9c0-0.7,0.6-1.2,1.2-1.2s1.2,0.6,1.2,1.2v0.9
			C122.3,226.8,121.7,227.3,121,227.3z M159.2,223.4c-0.7,0-1.2-0.6-1.2-1.2v-0.9c0-0.7,0.6-1.2,1.2-1.2s1.2,0.6,1.2,1.2v0.9
			C160.4,222.8,159.9,223.4,159.2,223.4z M121,221.7c-0.7,0-1.2-0.6-1.2-1.2v-0.9c0-0.7,0.6-1.2,1.2-1.2s1.2,0.6,1.2,1.2v0.9
			C122.3,221.2,121.7,221.7,121,221.7z M159.2,217.8c-0.7,0-1.2-0.6-1.2-1.2v-0.9c0-0.7,0.6-1.2,1.2-1.2s1.2,0.6,1.2,1.2v0.9
			C160.4,217.2,159.9,217.8,159.2,217.8z M121,216.2c-0.7,0-1.2-0.6-1.2-1.2V214c0-0.7,0.6-1.2,1.2-1.2s1.2,0.6,1.2,1.2v0.9
			C122.3,215.6,121.7,216.2,121,216.2z M159.2,212.2c-0.7,0-1.2-0.6-1.2-1.2V210c0-0.7,0.6-1.2,1.2-1.2s1.2,0.6,1.2,1.2v0.9
			C160.4,211.6,159.9,212.2,159.2,212.2z M121,210.6c-0.7,0-1.2-0.6-1.2-1.2v-0.9c0-0.7,0.6-1.2,1.2-1.2s1.2,0.6,1.2,1.2v0.9
			C122.3,210,121.7,210.6,121,210.6z M159.2,206.6c-0.7,0-1.2-0.6-1.2-1.2v-0.9c0-0.7,0.6-1.2,1.2-1.2s1.2,0.6,1.2,1.2v0.9
			C160.4,206.1,159.9,206.6,159.2,206.6z M121,205c-0.7,0-1.2-0.6-1.2-1.2v-0.9c0-0.7,0.6-1.2,1.2-1.2s1.2,0.6,1.2,1.2v0.9
			C122.3,204.4,121.7,205,121,205z M159.2,201c-0.7,0-1.2-0.6-1.2-1.2v-0.9c0-0.7,0.6-1.2,1.2-1.2s1.2,0.6,1.2,1.2v0.9
			C160.4,200.5,159.9,201,159.2,201z M121,199.4c-0.7,0-1.2-0.6-1.2-1.2v-0.9c0-0.7,0.6-1.2,1.2-1.2s1.2,0.6,1.2,1.2v0.9
			C122.3,198.8,121.7,199.4,121,199.4z M159.2,195.4c-0.7,0-1.2-0.6-1.2-1.2v-0.9c0-0.7,0.6-1.2,1.2-1.2s1.2,0.6,1.2,1.2v0.9
			C160.4,194.9,159.9,195.4,159.2,195.4z M121,193.8c-0.7,0-1.2-0.6-1.2-1.2v-0.9c0-0.7,0.6-1.2,1.2-1.2s1.2,0.6,1.2,1.2v0.9
			C122.3,193.2,121.7,193.8,121,193.8z M159.2,189.8c-0.7,0-1.2-0.6-1.2-1.2v-0.9c0-0.7,0.6-1.2,1.2-1.2s1.2,0.6,1.2,1.2v0.9
			C160.4,189.3,159.9,189.8,159.2,189.8z M121,188.2c-0.7,0-1.2-0.6-1.2-1.2V186c0-0.7,0.6-1.2,1.2-1.2s1.2,0.6,1.2,1.2v0.9
			C122.3,187.6,121.7,188.2,121,188.2z M159.2,184.2c-0.7,0-1.2-0.6-1.2-1.2v-0.9c0-0.7,0.6-1.2,1.2-1.2s1.2,0.6,1.2,1.2v0.9
			C160.4,183.7,159.9,184.2,159.2,184.2z M121,182.6c-0.7,0-1.2-0.6-1.2-1.2v-0.9c0-0.7,0.6-1.2,1.2-1.2s1.2,0.6,1.2,1.2v0.9
			C122.3,182,121.7,182.6,121,182.6z M159.2,178.7c-0.7,0-1.2-0.6-1.2-1.2v-0.9c0-0.7,0.6-1.2,1.2-1.2s1.2,0.6,1.2,1.2v0.9
			C160.4,178.1,159.9,178.7,159.2,178.7z M121,177c-0.7,0-1.2-0.6-1.2-1.2v-0.9c0-0.7,0.6-1.2,1.2-1.2s1.2,0.6,1.2,1.2v0.9
			C122.3,176.5,121.7,177,121,177z M159.2,173.1c-0.7,0-1.2-0.6-1.2-1.2v-0.9c0-0.7,0.6-1.2,1.2-1.2s1.2,0.6,1.2,1.2v0.9
			C160.4,172.5,159.9,173.1,159.2,173.1z M121,171.4c-0.7,0-1.2-0.6-1.2-1.2v-0.9c0-0.7,0.6-1.2,1.2-1.2s1.2,0.6,1.2,1.2v0.9
			C122.3,170.9,121.7,171.4,121,171.4z M159.2,167.5c-0.7,0-1.2-0.6-1.2-1.2v-0.9c0-0.7,0.6-1.2,1.2-1.2s1.2,0.6,1.2,1.2v0.9
			C160.4,166.9,159.9,167.5,159.2,167.5z M121,165.8c-0.7,0-1.2-0.6-1.2-1.2v-0.9c0-0.7,0.6-1.2,1.2-1.2s1.2,0.6,1.2,1.2v0.9
			C122.3,165.3,121.7,165.8,121,165.8z M159.2,161.9c-0.7,0-1.2-0.6-1.2-1.2v-0.9c0-0.7,0.6-1.2,1.2-1.2s1.2,0.6,1.2,1.2v0.9
			C160.4,161.3,159.9,161.9,159.2,161.9z M121,160.2c-0.7,0-1.2-0.6-1.2-1.2v-0.9c0-0.7,0.6-1.2,1.2-1.2s1.2,0.6,1.2,1.2v0.9
			C122.3,159.7,121.7,160.2,121,160.2z M159.2,156.3c-0.7,0-1.2-0.6-1.2-1.2v-0.9c0-0.7,0.6-1.2,1.2-1.2s1.2,0.6,1.2,1.2v0.9
			C160.4,155.7,159.9,156.3,159.2,156.3z M121,154.7c-0.7,0-1.2-0.6-1.2-1.2v-0.9c0-0.7,0.6-1.2,1.2-1.2s1.2,0.6,1.2,1.2v0.9
			C122.3,154.1,121.7,154.7,121,154.7z M159.2,150.7c-0.7,0-1.2-0.6-1.2-1.2v-0.9c0-0.7,0.6-1.2,1.2-1.2s1.2,0.6,1.2,1.2v0.9
			C160.4,150.1,159.9,150.7,159.2,150.7z M121,149.1c-0.7,0-1.2-0.6-1.2-1.2v-0.9c0-0.7,0.6-1.2,1.2-1.2s1.2,0.6,1.2,1.2v0.9
			C122.3,148.5,121.7,149.1,121,149.1z M159.2,145.1c-0.7,0-1.2-0.6-1.2-1.2v-0.9c0-0.7,0.6-1.2,1.2-1.2s1.2,0.6,1.2,1.2v0.9
			C160.4,144.5,159.9,145.1,159.2,145.1z M121,143.5c-0.7,0-1.2-0.6-1.2-1.2v-0.9c0-0.7,0.6-1.2,1.2-1.2s1.2,0.6,1.2,1.2v0.9
			C122.3,142.9,121.7,143.5,121,143.5z M159.2,139.5c-0.7,0-1.2-0.6-1.2-1.2v-0.9c0-0.7,0.6-1.2,1.2-1.2s1.2,0.6,1.2,1.2v0.9
			C160.4,139,159.9,139.5,159.2,139.5z M121,137.9c-0.7,0-1.2-0.6-1.2-1.2v-0.9c0-0.7,0.6-1.2,1.2-1.2s1.2,0.6,1.2,1.2v0.9
			C122.3,137.3,121.7,137.9,121,137.9z M159.2,133.9c-0.7,0-1.2-0.6-1.2-1.2v-0.9c0-0.7,0.6-1.2,1.2-1.2s1.2,0.6,1.2,1.2v0.9
			C160.4,133.4,159.9,133.9,159.2,133.9z M121,132.3c-0.7,0-1.2-0.6-1.2-1.2v-0.9c0-0.7,0.6-1.2,1.2-1.2s1.2,0.6,1.2,1.2v0.9
			C122.3,131.7,121.7,132.3,121,132.3z M159.2,128.3c-0.7,0-1.2-0.6-1.2-1.2v-0.9c0-0.7,0.6-1.2,1.2-1.2s1.2,0.6,1.2,1.2v0.9
			C160.4,127.8,159.9,128.3,159.2,128.3z M121,126.7c-0.7,0-1.2-0.6-1.2-1.2v-0.1c0-0.7,0.6-1.2,1.2-1.2h0.8c0.7,0,1.2,0.6,1.2,1.2
			s-0.6,1.2-1.2,1.2h-0.2C121.4,126.6,121.2,126.7,121,126.7z M155.4,126.6h-0.9c-0.7,0-1.2-0.6-1.2-1.2s0.6-1.2,1.2-1.2h0.9
			c0.7,0,1.2,0.6,1.2,1.2S156,126.6,155.4,126.6z M149.8,126.6h-0.9c-0.7,0-1.2-0.6-1.2-1.2s0.6-1.2,1.2-1.2h0.9
			c0.7,0,1.2,0.6,1.2,1.2S150.5,126.6,149.8,126.6z M144.2,126.6h-0.9c-0.7,0-1.2-0.6-1.2-1.2s0.6-1.2,1.2-1.2h0.9
			c0.7,0,1.2,0.6,1.2,1.2S144.9,126.6,144.2,126.6z M138.6,126.6h-0.9c-0.7,0-1.2-0.6-1.2-1.2s0.6-1.2,1.2-1.2h0.9
			c0.7,0,1.2,0.6,1.2,1.2S139.3,126.6,138.6,126.6z M133,126.6h-0.9c-0.7,0-1.2-0.6-1.2-1.2s0.6-1.2,1.2-1.2h0.9
			c0.7,0,1.2,0.6,1.2,1.2S133.7,126.6,133,126.6z M127.4,126.6h-0.9c-0.7,0-1.2-0.6-1.2-1.2s0.6-1.2,1.2-1.2h0.9
			c0.7,0,1.2,0.6,1.2,1.2S128.1,126.6,127.4,126.6z"/>
	</g>
	<g>
		<g>
			<path style="fill:#0A2E3D;" d="M170.7,266.5c-0.7,0-1.2-0.6-1.2-1.2v-0.5c0-0.7,0.6-1.2,1.2-1.2s1.2,0.6,1.2,1.2v0.5
				C172,265.9,171.4,266.5,170.7,266.5z"/>
		</g>
		<g>
			<path style="fill:#0A2E3D;" d="M170.7,261.3c-0.7,0-1.2-0.6-1.2-1.2v-0.9c0-0.7,0.6-1.2,1.2-1.2s1.2,0.6,1.2,1.2v0.9
				C172,260.7,171.4,261.3,170.7,261.3z M170.7,255.7c-0.7,0-1.2-0.6-1.2-1.2v-0.9c0-0.7,0.6-1.2,1.2-1.2s1.2,0.6,1.2,1.2v0.9
				C172,255.1,171.4,255.7,170.7,255.7z M170.7,250c-0.7,0-1.2-0.6-1.2-1.2v-0.9c0-0.7,0.6-1.2,1.2-1.2s1.2,0.6,1.2,1.2v0.9
				C172,249.5,171.4,250,170.7,250z M170.7,244.4c-0.7,0-1.2-0.6-1.2-1.2v-0.9c0-0.7,0.6-1.2,1.2-1.2s1.2,0.6,1.2,1.2v0.9
				C172,243.8,171.4,244.4,170.7,244.4z M170.7,238.7c-0.7,0-1.2-0.6-1.2-1.2v-0.9c0-0.7,0.6-1.2,1.2-1.2s1.2,0.6,1.2,1.2v0.9
				C172,238.2,171.4,238.7,170.7,238.7z M170.7,233.1c-0.7,0-1.2-0.6-1.2-1.2v-0.9c0-0.7,0.6-1.2,1.2-1.2s1.2,0.6,1.2,1.2v0.9
				C172,232.5,171.4,233.1,170.7,233.1z M170.7,227.4c-0.7,0-1.2-0.6-1.2-1.2v-0.9c0-0.7,0.6-1.2,1.2-1.2s1.2,0.6,1.2,1.2v0.9
				C172,226.9,171.4,227.4,170.7,227.4z M170.7,221.8c-0.7,0-1.2-0.6-1.2-1.2v-0.9c0-0.7,0.6-1.2,1.2-1.2s1.2,0.6,1.2,1.2v0.9
				C172,221.2,171.4,221.8,170.7,221.8z M170.7,216.1c-0.7,0-1.2-0.6-1.2-1.2V214c0-0.7,0.6-1.2,1.2-1.2s1.2,0.6,1.2,1.2v0.9
				C172,215.6,171.4,216.1,170.7,216.1z M170.7,210.5c-0.7,0-1.2-0.6-1.2-1.2v-0.9c0-0.7,0.6-1.2,1.2-1.2s1.2,0.6,1.2,1.2v0.9
				C172,209.9,171.4,210.5,170.7,210.5z M170.7,204.9c-0.7,0-1.2-0.6-1.2-1.2v-0.9c0-0.7,0.6-1.2,1.2-1.2s1.2,0.6,1.2,1.2v0.9
				C172,204.3,171.4,204.9,170.7,204.9z M170.7,199.2c-0.7,0-1.2-0.6-1.2-1.2V197c0-0.7,0.6-1.2,1.2-1.2s1.2,0.6,1.2,1.2v0.9
				C172,198.6,171.4,199.2,170.7,199.2z M170.7,193.6c-0.7,0-1.2-0.6-1.2-1.2v-0.9c0-0.7,0.6-1.2,1.2-1.2s1.2,0.6,1.2,1.2v0.9
				C172,193,171.4,193.6,170.7,193.6z M170.7,187.9c-0.7,0-1.2-0.6-1.2-1.2v-0.9c0-0.7,0.6-1.2,1.2-1.2s1.2,0.6,1.2,1.2v0.9
				C172,187.4,171.4,187.9,170.7,187.9z M170.7,182.3c-0.7,0-1.2-0.6-1.2-1.2v-0.9c0-0.7,0.6-1.2,1.2-1.2s1.2,0.6,1.2,1.2v0.9
				C172,181.7,171.4,182.3,170.7,182.3z M170.7,176.6c-0.7,0-1.2-0.6-1.2-1.2v-0.9c0-0.7,0.6-1.2,1.2-1.2s1.2,0.6,1.2,1.2v0.9
				C172,176.1,171.4,176.6,170.7,176.6z M170.7,171c-0.7,0-1.2-0.6-1.2-1.2v-0.9c0-0.7,0.6-1.2,1.2-1.2s1.2,0.6,1.2,1.2v0.9
				C172,170.4,171.4,171,170.7,171z M170.7,165.3c-0.7,0-1.2-0.6-1.2-1.2v-0.9c0-0.7,0.6-1.2,1.2-1.2s1.2,0.6,1.2,1.2v0.9
				C172,164.8,171.4,165.3,170.7,165.3z M170.7,159.7c-0.7,0-1.2-0.6-1.2-1.2v-0.9c0-0.7,0.6-1.2,1.2-1.2s1.2,0.6,1.2,1.2v0.9
				C172,159.1,171.4,159.7,170.7,159.7z M170.7,154c-0.7,0-1.2-0.6-1.2-1.2v-0.9c0-0.7,0.6-1.2,1.2-1.2s1.2,0.6,1.2,1.2v0.9
				C172,153.5,171.4,154,170.7,154z M170.7,148.4c-0.7,0-1.2-0.6-1.2-1.2v-0.9c0-0.7,0.6-1.2,1.2-1.2s1.2,0.6,1.2,1.2v0.9
				C172,147.8,171.4,148.4,170.7,148.4z M170.7,142.8c-0.7,0-1.2-0.6-1.2-1.2v-0.9c0-0.7,0.6-1.2,1.2-1.2s1.2,0.6,1.2,1.2v0.9
				C172,142.2,171.4,142.8,170.7,142.8z M170.7,137.1c-0.7,0-1.2-0.6-1.2-1.2v-0.9c0-0.7,0.6-1.2,1.2-1.2s1.2,0.6,1.2,1.2v0.9
				C172,136.5,171.4,137.1,170.7,137.1z M170.7,131.5c-0.7,0-1.2-0.6-1.2-1.2v-0.9c0-0.7,0.6-1.2,1.2-1.2s1.2,0.6,1.2,1.2v0.9
				C172,130.9,171.4,131.5,170.7,131.5z M170.7,125.8c-0.7,0-1.2-0.6-1.2-1.2v-0.9c0-0.7,0.6-1.2,1.2-1.2s1.2,0.6,1.2,1.2v0.9
				C172,125.3,171.4,125.8,170.7,125.8z M170.7,120.2c-0.7,0-1.2-0.6-1.2-1.2V118c0-0.7,0.6-1.2,1.2-1.2s1.2,0.6,1.2,1.2v0.9
				C172,119.6,171.4,120.2,170.7,120.2z M170.7,114.5c-0.7,0-1.2-0.6-1.2-1.2v-0.9c0-0.7,0.6-1.2,1.2-1.2s1.2,0.6,1.2,1.2v0.9
				C172,114,171.4,114.5,170.7,114.5z M170.7,108.9c-0.7,0-1.2-0.6-1.2-1.2v-0.9c0-0.7,0.6-1.2,1.2-1.2s1.2,0.6,1.2,1.2v0.9
				C172,108.3,171.4,108.9,170.7,108.9z M170.7,103.2c-0.7,0-1.2-0.6-1.2-1.2V101c0-0.7,0.6-1.2,1.2-1.2s1.2,0.6,1.2,1.2v0.9
				C172,102.7,171.4,103.2,170.7,103.2z M170.7,97.6c-0.7,0-1.2-0.6-1.2-1.2v-0.9c0-0.7,0.6-1.2,1.2-1.2s1.2,0.6,1.2,1.2v0.9
				C172,97,171.4,97.6,170.7,97.6z M170.7,91.9c-0.7,0-1.2-0.6-1.2-1.2v-0.9c0-0.7,0.6-1.2,1.2-1.2s1.2,0.6,1.2,1.2v0.9
				C172,91.4,171.4,91.9,170.7,91.9z M170.7,86.3c-0.7,0-1.2-0.6-1.2-1.2v-0.9c0-0.7,0.6-1.2,1.2-1.2s1.2,0.6,1.2,1.2V85
				C172,85.7,171.4,86.3,170.7,86.3z M170.7,80.7c-0.7,0-1.2-0.6-1.2-1.2v-0.9c0-0.7,0.6-1.2,1.2-1.2s1.2,0.6,1.2,1.2v0.9
				C172,80.1,171.4,80.7,170.7,80.7z M170.7,75c-0.7,0-1.2-0.6-1.2-1.2v-0.9c0-0.7,0.6-1.2,1.2-1.2s1.2,0.6,1.2,1.2v0.9
				C172,74.4,171.4,75,170.7,75z M170.7,69.4c-0.7,0-1.2-0.6-1.2-1.2v-0.9c0-0.7,0.6-1.2,1.2-1.2s1.2,0.6,1.2,1.2v0.9
				C172,68.8,171.4,69.4,170.7,69.4z M170.7,63.7c-0.7,0-1.2-0.6-1.2-1.2v-0.9c0-0.7,0.6-1.2,1.2-1.2s1.2,0.6,1.2,1.2v0.9
				C172,63.2,171.4,63.7,170.7,63.7z M170.7,58.1c-0.7,0-1.2-0.6-1.2-1.2v-0.9c0-0.7,0.6-1.2,1.2-1.2s1.2,0.6,1.2,1.2v0.9
				C172,57.5,171.4,58.1,170.7,58.1z M170.7,52.4c-0.7,0-1.2-0.6-1.2-1.2v-0.9c0-0.7,0.6-1.2,1.2-1.2s1.2,0.6,1.2,1.2v0.9
				C172,51.9,171.4,52.4,170.7,52.4z M170.7,46.8c-0.7,0-1.2-0.6-1.2-1.2v-0.9c0-0.7,0.6-1.2,1.2-1.2s1.2,0.6,1.2,1.2v0.9
				C172,46.2,171.4,46.8,170.7,46.8z M170.7,41.1c-0.7,0-1.2-0.6-1.2-1.2v-0.9c0-0.7,0.6-1.2,1.2-1.2s1.2,0.6,1.2,1.2v0.9
				C172,40.6,171.4,41.1,170.7,41.1z M170.7,35.5c-0.7,0-1.2-0.6-1.2-1.2v-0.9c0-0.7,0.6-1.2,1.2-1.2s1.2,0.6,1.2,1.2v0.9
				C172,34.9,171.4,35.5,170.7,35.5z"/>
		</g>
		<g>
			<path style="fill:#0A2E3D;" d="M170.7,29.8c-0.7,0-1.2-0.6-1.2-1.2v-0.5c0-0.7,0.6-1.2,1.2-1.2h0.5c0.7,0,1.2,0.6,1.2,1.2
				c0,0.5-0.3,0.9-0.6,1.1C171.6,29.6,171.2,29.8,170.7,29.8z"/>
		</g>
		<g>
			<path style="fill:#0A2E3D;" d="M203.9,29.4H203c-0.7,0-1.2-0.6-1.2-1.2s0.6-1.2,1.2-1.2h0.9c0.7,0,1.2,0.6,1.2,1.2
				S204.6,29.4,203.9,29.4z M198.4,29.4h-0.9c-0.7,0-1.2-0.6-1.2-1.2s0.6-1.2,1.2-1.2h0.9c0.7,0,1.2,0.6,1.2,1.2
				S199.1,29.4,198.4,29.4z M193,29.4h-0.9c-0.7,0-1.2-0.6-1.2-1.2s0.6-1.2,1.2-1.2h0.9c0.7,0,1.2,0.6,1.2,1.2S193.7,29.4,193,29.4z
				 M187.5,29.4h-0.9c-0.7,0-1.2-0.6-1.2-1.2s0.6-1.2,1.2-1.2h0.9c0.7,0,1.2,0.6,1.2,1.2S188.2,29.4,187.5,29.4z M182.1,29.4h-0.9
				c-0.7,0-1.2-0.6-1.2-1.2s0.6-1.2,1.2-1.2h0.9c0.7,0,1.2,0.6,1.2,1.2S182.8,29.4,182.1,29.4z M176.6,29.4h-0.9
				c-0.7,0-1.2-0.6-1.2-1.2s0.6-1.2,1.2-1.2h0.9c0.7,0,1.2,0.6,1.2,1.2S177.3,29.4,176.6,29.4z"/>
		</g>
		<g>
			<path style="fill:#0A2E3D;" d="M208.9,29.8c-0.5,0-0.9-0.3-1.1-0.6c-0.4-0.2-0.6-0.6-0.6-1.1c0-0.7,0.6-1.2,1.2-1.2h0.5
				c0.7,0,1.2,0.6,1.2,1.2v0.5C210.1,29.3,209.6,29.8,208.9,29.8z"/>
		</g>
		<g>
			<path style="fill:#0A2E3D;" d="M208.9,261.3c-0.7,0-1.2-0.6-1.2-1.2v-0.9c0-0.7,0.6-1.2,1.2-1.2s1.2,0.6,1.2,1.2v0.9
				C210.1,260.7,209.6,261.3,208.9,261.3z M208.9,255.7c-0.7,0-1.2-0.6-1.2-1.2v-0.9c0-0.7,0.6-1.2,1.2-1.2s1.2,0.6,1.2,1.2v0.9
				C210.1,255.1,209.6,255.7,208.9,255.7z M208.9,250c-0.7,0-1.2-0.6-1.2-1.2v-0.9c0-0.7,0.6-1.2,1.2-1.2s1.2,0.6,1.2,1.2v0.9
				C210.1,249.5,209.6,250,208.9,250z M208.9,244.4c-0.7,0-1.2-0.6-1.2-1.2v-0.9c0-0.7,0.6-1.2,1.2-1.2s1.2,0.6,1.2,1.2v0.9
				C210.1,243.8,209.6,244.4,208.9,244.4z M208.9,238.7c-0.7,0-1.2-0.6-1.2-1.2v-0.9c0-0.7,0.6-1.2,1.2-1.2s1.2,0.6,1.2,1.2v0.9
				C210.1,238.2,209.6,238.7,208.9,238.7z M208.9,233.1c-0.7,0-1.2-0.6-1.2-1.2v-0.9c0-0.7,0.6-1.2,1.2-1.2s1.2,0.6,1.2,1.2v0.9
				C210.1,232.5,209.6,233.1,208.9,233.1z M208.9,227.4c-0.7,0-1.2-0.6-1.2-1.2v-0.9c0-0.7,0.6-1.2,1.2-1.2s1.2,0.6,1.2,1.2v0.9
				C210.1,226.9,209.6,227.4,208.9,227.4z M208.9,221.8c-0.7,0-1.2-0.6-1.2-1.2v-0.9c0-0.7,0.6-1.2,1.2-1.2s1.2,0.6,1.2,1.2v0.9
				C210.1,221.2,209.6,221.8,208.9,221.8z M208.9,216.1c-0.7,0-1.2-0.6-1.2-1.2V214c0-0.7,0.6-1.2,1.2-1.2s1.2,0.6,1.2,1.2v0.9
				C210.1,215.6,209.6,216.1,208.9,216.1z M208.9,210.5c-0.7,0-1.2-0.6-1.2-1.2v-0.9c0-0.7,0.6-1.2,1.2-1.2s1.2,0.6,1.2,1.2v0.9
				C210.1,209.9,209.6,210.5,208.9,210.5z M208.9,204.9c-0.7,0-1.2-0.6-1.2-1.2v-0.9c0-0.7,0.6-1.2,1.2-1.2s1.2,0.6,1.2,1.2v0.9
				C210.1,204.3,209.6,204.9,208.9,204.9z M208.9,199.2c-0.7,0-1.2-0.6-1.2-1.2V197c0-0.7,0.6-1.2,1.2-1.2s1.2,0.6,1.2,1.2v0.9
				C210.1,198.6,209.6,199.2,208.9,199.2z M208.9,193.6c-0.7,0-1.2-0.6-1.2-1.2v-0.9c0-0.7,0.6-1.2,1.2-1.2s1.2,0.6,1.2,1.2v0.9
				C210.1,193,209.6,193.6,208.9,193.6z M208.9,187.9c-0.7,0-1.2-0.6-1.2-1.2v-0.9c0-0.7,0.6-1.2,1.2-1.2s1.2,0.6,1.2,1.2v0.9
				C210.1,187.4,209.6,187.9,208.9,187.9z M208.9,182.3c-0.7,0-1.2-0.6-1.2-1.2v-0.9c0-0.7,0.6-1.2,1.2-1.2s1.2,0.6,1.2,1.2v0.9
				C210.1,181.7,209.6,182.3,208.9,182.3z M208.9,176.6c-0.7,0-1.2-0.6-1.2-1.2v-0.9c0-0.7,0.6-1.2,1.2-1.2s1.2,0.6,1.2,1.2v0.9
				C210.1,176.1,209.6,176.6,208.9,176.6z M208.9,171c-0.7,0-1.2-0.6-1.2-1.2v-0.9c0-0.7,0.6-1.2,1.2-1.2s1.2,0.6,1.2,1.2v0.9
				C210.1,170.4,209.6,171,208.9,171z M208.9,165.3c-0.7,0-1.2-0.6-1.2-1.2v-0.9c0-0.7,0.6-1.2,1.2-1.2s1.2,0.6,1.2,1.2v0.9
				C210.1,164.8,209.6,165.3,208.9,165.3z M208.9,159.7c-0.7,0-1.2-0.6-1.2-1.2v-0.9c0-0.7,0.6-1.2,1.2-1.2s1.2,0.6,1.2,1.2v0.9
				C210.1,159.1,209.6,159.7,208.9,159.7z M208.9,154c-0.7,0-1.2-0.6-1.2-1.2v-0.9c0-0.7,0.6-1.2,1.2-1.2s1.2,0.6,1.2,1.2v0.9
				C210.1,153.5,209.6,154,208.9,154z M208.9,148.4c-0.7,0-1.2-0.6-1.2-1.2v-0.9c0-0.7,0.6-1.2,1.2-1.2s1.2,0.6,1.2,1.2v0.9
				C210.1,147.8,209.6,148.4,208.9,148.4z M208.9,142.8c-0.7,0-1.2-0.6-1.2-1.2v-0.9c0-0.7,0.6-1.2,1.2-1.2s1.2,0.6,1.2,1.2v0.9
				C210.1,142.2,209.6,142.8,208.9,142.8z M208.9,137.1c-0.7,0-1.2-0.6-1.2-1.2v-0.9c0-0.7,0.6-1.2,1.2-1.2s1.2,0.6,1.2,1.2v0.9
				C210.1,136.5,209.6,137.1,208.9,137.1z M208.9,131.5c-0.7,0-1.2-0.6-1.2-1.2v-0.9c0-0.7,0.6-1.2,1.2-1.2s1.2,0.6,1.2,1.2v0.9
				C210.1,130.9,209.6,131.5,208.9,131.5z M208.9,125.8c-0.7,0-1.2-0.6-1.2-1.2v-0.9c0-0.7,0.6-1.2,1.2-1.2s1.2,0.6,1.2,1.2v0.9
				C210.1,125.3,209.6,125.8,208.9,125.8z M208.9,120.2c-0.7,0-1.2-0.6-1.2-1.2V118c0-0.7,0.6-1.2,1.2-1.2s1.2,0.6,1.2,1.2v0.9
				C210.1,119.6,209.6,120.2,208.9,120.2z M208.9,114.5c-0.7,0-1.2-0.6-1.2-1.2v-0.9c0-0.7,0.6-1.2,1.2-1.2s1.2,0.6,1.2,1.2v0.9
				C210.1,114,209.6,114.5,208.9,114.5z M208.9,108.9c-0.7,0-1.2-0.6-1.2-1.2v-0.9c0-0.7,0.6-1.2,1.2-1.2s1.2,0.6,1.2,1.2v0.9
				C210.1,108.3,209.6,108.9,208.9,108.9z M208.9,103.2c-0.7,0-1.2-0.6-1.2-1.2V101c0-0.7,0.6-1.2,1.2-1.2s1.2,0.6,1.2,1.2v0.9
				C210.1,102.7,209.6,103.2,208.9,103.2z M208.9,97.6c-0.7,0-1.2-0.6-1.2-1.2v-0.9c0-0.7,0.6-1.2,1.2-1.2s1.2,0.6,1.2,1.2v0.9
				C210.1,97,209.6,97.6,208.9,97.6z M208.9,91.9c-0.7,0-1.2-0.6-1.2-1.2v-0.9c0-0.7,0.6-1.2,1.2-1.2s1.2,0.6,1.2,1.2v0.9
				C210.1,91.4,209.6,91.9,208.9,91.9z M208.9,86.3c-0.7,0-1.2-0.6-1.2-1.2v-0.9c0-0.7,0.6-1.2,1.2-1.2s1.2,0.6,1.2,1.2V85
				C210.1,85.7,209.6,86.3,208.9,86.3z M208.9,80.7c-0.7,0-1.2-0.6-1.2-1.2v-0.9c0-0.7,0.6-1.2,1.2-1.2s1.2,0.6,1.2,1.2v0.9
				C210.1,80.1,209.6,80.7,208.9,80.7z M208.9,75c-0.7,0-1.2-0.6-1.2-1.2v-0.9c0-0.7,0.6-1.2,1.2-1.2s1.2,0.6,1.2,1.2v0.9
				C210.1,74.4,209.6,75,208.9,75z M208.9,69.4c-0.7,0-1.2-0.6-1.2-1.2v-0.9c0-0.7,0.6-1.2,1.2-1.2s1.2,0.6,1.2,1.2v0.9
				C210.1,68.8,209.6,69.4,208.9,69.4z M208.9,63.7c-0.7,0-1.2-0.6-1.2-1.2v-0.9c0-0.7,0.6-1.2,1.2-1.2s1.2,0.6,1.2,1.2v0.9
				C210.1,63.2,209.6,63.7,208.9,63.7z M208.9,58.1c-0.7,0-1.2-0.6-1.2-1.2v-0.9c0-0.7,0.6-1.2,1.2-1.2s1.2,0.6,1.2,1.2v0.9
				C210.1,57.5,209.6,58.1,208.9,58.1z M208.9,52.4c-0.7,0-1.2-0.6-1.2-1.2v-0.9c0-0.7,0.6-1.2,1.2-1.2s1.2,0.6,1.2,1.2v0.9
				C210.1,51.9,209.6,52.4,208.9,52.4z M208.9,46.8c-0.7,0-1.2-0.6-1.2-1.2v-0.9c0-0.7,0.6-1.2,1.2-1.2s1.2,0.6,1.2,1.2v0.9
				C210.1,46.2,209.6,46.8,208.9,46.8z M208.9,41.1c-0.7,0-1.2-0.6-1.2-1.2v-0.9c0-0.7,0.6-1.2,1.2-1.2s1.2,0.6,1.2,1.2v0.9
				C210.1,40.6,209.6,41.1,208.9,41.1z M208.9,35.5c-0.7,0-1.2-0.6-1.2-1.2v-0.9c0-0.7,0.6-1.2,1.2-1.2s1.2,0.6,1.2,1.2v0.9
				C210.1,34.9,209.6,35.5,208.9,35.5z"/>
		</g>
		<g>
			<path style="fill:#0A2E3D;" d="M208.9,266.5c-0.7,0-1.2-0.6-1.2-1.2v-0.5c0-0.7,0.6-1.2,1.2-1.2s1.2,0.6,1.2,1.2v0.5
				C210.1,265.9,209.6,266.5,208.9,266.5z"/>
		</g>
	</g>
	<g>
		<path style="fill:#6C8081;" d="M33.7,285.8c0,0.4-0.1,0.7-0.2,1.1c-0.1,0.3-0.3,0.6-0.5,0.9c-0.2,0.2-0.5,0.4-0.8,0.6
			c-0.3,0.1-0.7,0.2-1.1,0.2c-0.4,0-0.8-0.1-1.1-0.2c-0.3-0.1-0.6-0.3-0.8-0.6c-0.2-0.2-0.4-0.5-0.5-0.9c-0.1-0.3-0.2-0.7-0.2-1.1
			h1.3c0,0.5,0.1,0.8,0.3,1.1c0.2,0.3,0.5,0.4,0.9,0.4s0.7-0.1,0.9-0.4s0.3-0.7,0.3-1.1v-5.2h1.3V285.8z"/>
		<path style="fill:#6C8081;" d="M39.8,288.3l-0.3-1h-2.9l-0.3,1h-1.3l2.7-7.7h0.9l2.7,7.7H39.8z M38,282.7l-1.1,3.5h2.1L38,282.7z"
			/>
		<path style="fill:#6C8081;" d="M47.3,286.1v-5.5h1.3v7.7h-1.4l-3-5.5v5.5h-1.3v-7.7h1.4L47.3,286.1z"/>
	</g>
	<g>
		<path style="fill:#6C8081;" d="M82.2,281.7v2.4h3.2v1.1h-3.2v3H81v-7.7h4.4v1.1H82.2z"/>
		<path style="fill:#6C8081;" d="M89,281.7v2.2h3.2v1.1H89v2.1h3.2v1.1h-4.4v-7.7h4.4v1.1H89z"/>
		<path style="fill:#6C8081;" d="M94.6,280.6h2.6c0.5,0,1,0.1,1.3,0.2c0.3,0.1,0.6,0.3,0.8,0.5c0.2,0.2,0.3,0.4,0.4,0.7
			c0.1,0.2,0.1,0.5,0.1,0.7c0,0.2,0,0.5-0.1,0.7c-0.1,0.2-0.2,0.4-0.3,0.5c-0.1,0.1-0.3,0.3-0.4,0.4s-0.3,0.2-0.5,0.2
			c0.1,0,0.3,0,0.4,0.1c0.2,0.1,0.3,0.2,0.5,0.3c0.1,0.1,0.3,0.3,0.4,0.5c0.1,0.2,0.2,0.5,0.2,0.8c0,0.2,0,0.4-0.1,0.7
			c-0.1,0.3-0.2,0.5-0.4,0.7s-0.4,0.4-0.8,0.6c-0.3,0.2-0.8,0.2-1.3,0.2h-2.6V280.6z M97.3,283.8c0.3,0,0.5,0,0.6-0.1
			c0.2-0.1,0.3-0.2,0.4-0.3s0.1-0.2,0.2-0.3s0-0.2,0-0.3c0-0.1,0-0.2,0-0.3c0-0.1-0.1-0.2-0.2-0.3c-0.1-0.1-0.2-0.2-0.4-0.3
			c-0.2-0.1-0.4-0.1-0.6-0.1h-1.4v2.1H97.3z M95.9,284.9v2.2h1.4c0.3,0,0.5,0,0.6-0.1c0.2-0.1,0.3-0.2,0.4-0.3
			c0.1-0.1,0.1-0.2,0.2-0.4c0-0.1,0-0.2,0-0.4c0-0.1,0-0.2,0-0.3c0-0.1-0.1-0.2-0.2-0.4c-0.1-0.1-0.2-0.2-0.4-0.3
			c-0.2-0.1-0.4-0.1-0.6-0.1H95.9z"/>
	</g>
	<g>
		<path style="fill:#6C8081;" d="M136.9,288.3h-1.3v-4.8l-1.9,4.8h-1l-1.9-4.8v4.8h-1.3v-7.7h1.2l2.5,5.7l2.5-5.7h1.2V288.3z"/>
		<path style="fill:#6C8081;" d="M143.5,288.3l-0.3-1h-2.9l-0.3,1h-1.3l2.7-7.7h0.9l2.7,7.7H143.5z M141.7,282.7l-1.1,3.5h2.1
			L141.7,282.7z"/>
		<path style="fill:#6C8081;" d="M146.6,280.6h2.8c0.4,0,0.8,0.1,1.1,0.2c0.3,0.1,0.6,0.3,0.9,0.6c0.2,0.2,0.4,0.5,0.6,0.9
			c0.1,0.3,0.2,0.7,0.2,1c0,0.3,0,0.5-0.1,0.8c-0.1,0.3-0.2,0.5-0.3,0.7c-0.1,0.2-0.3,0.4-0.5,0.6c-0.2,0.2-0.4,0.3-0.7,0.4l1.5,2.5
			h-1.4l-1.4-2.3h-1.3v2.3h-1.3V280.6z M149.3,284.8c0.2,0,0.4,0,0.6-0.1s0.3-0.2,0.5-0.3c0.1-0.1,0.2-0.3,0.3-0.5
			c0.1-0.2,0.1-0.4,0.1-0.6s0-0.4-0.1-0.6c-0.1-0.2-0.2-0.4-0.3-0.5c-0.1-0.1-0.3-0.3-0.5-0.3s-0.4-0.1-0.6-0.1h-1.5v3.1H149.3z"/>
	</g>
	<g>
		<path style="fill:#6C8081;" d="M184.2,288.3l-0.3-1H181l-0.3,1h-1.3l2.7-7.7h0.9l2.7,7.7H184.2z M182.4,282.7l-1.1,3.5h2.1
			L182.4,282.7z"/>
		<path style="fill:#6C8081;" d="M187.3,280.6h2.8c0.4,0,0.8,0.1,1.1,0.2c0.3,0.1,0.6,0.3,0.9,0.6c0.2,0.2,0.4,0.5,0.6,0.9
			c0.1,0.3,0.2,0.7,0.2,1c0,0.4-0.1,0.7-0.2,1c-0.1,0.3-0.3,0.6-0.6,0.9c-0.2,0.2-0.5,0.4-0.9,0.6c-0.3,0.1-0.7,0.2-1.1,0.2h-1.5
			v2.3h-1.3V280.6z M190,284.8c0.2,0,0.4,0,0.6-0.1s0.3-0.2,0.5-0.3c0.1-0.1,0.2-0.3,0.3-0.5c0.1-0.2,0.1-0.4,0.1-0.6s0-0.4-0.1-0.6
			c-0.1-0.2-0.2-0.4-0.3-0.5c-0.1-0.1-0.3-0.3-0.5-0.3s-0.4-0.1-0.6-0.1h-1.5v3.1H190z"/>
		<path style="fill:#6C8081;" d="M194.7,280.6h2.8c0.4,0,0.8,0.1,1.1,0.2c0.3,0.1,0.6,0.3,0.9,0.6c0.2,0.2,0.4,0.5,0.6,0.9
			c0.1,0.3,0.2,0.7,0.2,1c0,0.3,0,0.5-0.1,0.8c-0.1,0.3-0.2,0.5-0.3,0.7c-0.1,0.2-0.3,0.4-0.5,0.6c-0.2,0.2-0.4,0.3-0.7,0.4l1.5,2.5
			h-1.4l-1.4-2.3H196v2.3h-1.3V280.6z M197.5,284.8c0.2,0,0.4,0,0.6-0.1s0.3-0.2,0.5-0.3c0.1-0.1,0.2-0.3,0.3-0.5
			c0.1-0.2,0.1-0.4,0.1-0.6s0-0.4-0.1-0.6c-0.1-0.2-0.2-0.4-0.3-0.5c-0.1-0.1-0.3-0.3-0.5-0.3s-0.4-0.1-0.6-0.1H196v3.1H197.5z"/>
	</g>
	<g>
		<path style="fill:#0A2E3D;" d="M225.6,266.5H1.4c-0.7,0-1.2-0.6-1.2-1.2s0.6-1.2,1.2-1.2h224.2c0.7,0,1.2,0.6,1.2,1.2
			S226.3,266.5,225.6,266.5z"/>
	</g>
	<g>
		<path style="fill:#FFFFFF;" d="M3.2,252H1v-7h2c19-1.2,37.4-3.1,52.3-12.3c13.6-8.4,24.3-22.3,34.6-35.6
			c8.4-10.8,17-22.1,27.4-30.7c12.6-10.5,33.8-17.7,52.6-17.8h60.7v7H170c-17.3,0.1-36.7,6.6-48.2,16.1c-9.8,8.1-18.2,19-26.3,29.6
			c-10.7,13.9-21.8,28.2-36.5,37.3C42.7,248.8,23.4,250.8,3.3,252L3.2,252z"/>
	</g>
	<g>
		<path style="fill:#0A2E3D;" d="M1,249.5c-0.6,0-1-0.4-1-1s0.4-1,1-1h2.1c19.4-1.2,38.1-3.1,53.5-12.7c14-8.7,24.8-22.7,35.3-36.2
			c8.3-10.7,16.9-21.8,27-30.3c12.2-10.2,32.7-17.1,51.1-17.2h60.6c0.6,0,1,0.4,1,1s-0.4,1-1,1H170c-17.9,0.1-37.9,6.8-49.8,16.7
			c-10,8.3-18.5,19.3-26.7,30c-10.6,13.7-21.5,27.9-35.8,36.7c-15.9,9.8-34.8,11.7-54.5,13L1,249.5z"/>
	</g>
	<g>
		<path style="fill:#0A2E3D;" d="M224.2,158.6c-0.3,0-0.6-0.1-0.8-0.4c-0.3-0.4-0.3-1.1,0.2-1.4l5.8-4.6l-5.8-4.6
			c-0.4-0.3-0.5-1-0.2-1.4c0.3-0.4,1-0.5,1.4-0.2l6.8,5.4c0.2,0.2,0.4,0.5,0.4,0.8s-0.1,0.6-0.4,0.8l-6.8,5.4
			C224.7,158.5,224.4,158.6,224.2,158.6z"/>
	</g>
</g>
</svg>
