<?xml version="1.0" encoding="utf-8"?>
<!-- Generator: Adobe Illustrator 18.0.0, SVG Export Plug-In . SVG Version: 6.00 Build 0)  -->
<!DOCTYPE svg PUBLIC "-//W3C//DTD SVG 1.1//EN" "http://www.w3.org/Graphics/SVG/1.1/DTD/svg11.dtd">
<svg version="1.1" id="Layer_1" xmlns="http://www.w3.org/2000/svg" xmlns:xlink="http://www.w3.org/1999/xlink" x="0px" y="0px"
	 viewBox="0 0 287.8 374.6" style="enable-background:new 0 0 287.8 374.6;" xml:space="preserve">
<g>
	<g>
		<g>
			<path style="fill:#0A2E3D;" d="M248.3,57.9c-0.3,0-0.5-0.2-0.5-0.5V42.3c0-0.3,0.2-0.5,0.5-0.5s0.5,0.2,0.5,0.5v15.1
				C248.8,57.6,248.6,57.9,248.3,57.9z"/>
		</g>
		<g>
			<path style="fill:#0A2E3D;" d="M248.3,58.1l-6.2-6.3c-0.2-0.2-0.2-0.5,0-0.7c0.2-0.2,0.5-0.2,0.7,0l5.5,5.6l5.5-5.6
				c0.2-0.2,0.5-0.2,0.7,0c0.2,0.2,0.2,0.5,0,0.7L248.3,58.1z"/>
		</g>
	</g>
	<g>
		<g>
			<path style="fill:#0A2E3D;" d="M77.2,57.9c-0.3,0-0.5-0.2-0.5-0.5V42.3c0-0.3,0.2-0.5,0.5-0.5s0.5,0.2,0.5,0.5v15.1
				C77.7,57.6,77.5,57.9,77.2,57.9z"/>
		</g>
		<g>
			<path style="fill:#0A2E3D;" d="M77.2,58.1L71,51.7c-0.2-0.2-0.2-0.5,0-0.7c0.2-0.2,0.5-0.2,0.7,0l5.5,5.6l5.5-5.6
				c0.2-0.2,0.5-0.2,0.7,0c0.2,0.2,0.2,0.5,0,0.7L77.2,58.1z"/>
		</g>
	</g>
	<g>
		<polygon style="fill:#B6C3C9;" points="247.4,290 247.4,254.2 278.3,272.2 		"/>
	</g>
	<g>
		<path style="fill:#0A2E3D;" d="M247.4,291.3c-0.2,0-0.4-0.1-0.6-0.2l-31-17.9c-0.4-0.2-0.6-0.6-0.6-1.1c0-0.4,0.2-0.9,0.6-1.1
			l31-18c0.4-0.2,0.9-0.2,1.3,0l31,18c0.4,0.2,0.6,0.6,0.6,1.1c0,0.4-0.2,0.9-0.6,1.1l-31,17.9C247.8,291.2,247.6,291.3,247.4,291.3
			z M218.9,272.2l28.5,16.4l28.5-16.4l-28.5-16.6L218.9,272.2z"/>
	</g>
	<g>
		<g>
			<path style="fill:#0A2E3D;" d="M247.5,333.7l-6.5-6.5c-0.4-0.4-0.4-1,0-1.4s1-0.4,1.4,0l5.1,5.1l10.8-10.8c0.4-0.4,1-0.4,1.4,0
				s0.4,1,0,1.4L247.5,333.7z"/>
		</g>
	</g>
	<g>
		<g>
			<path style="fill:#0A2E3D;" d="M170.2,234.4c-0.1,0-0.3-0.1-0.4-0.2l-3.4-3.9c-0.2-0.2-0.2-0.5,0.1-0.7c0.2-0.2,0.5-0.2,0.7,0.1
				l3,3.5l3-3.5c0.2-0.2,0.5-0.2,0.7-0.1c0.2,0.2,0.2,0.5,0.1,0.7l-3.4,3.9C170.4,234.4,170.3,234.4,170.2,234.4z"/>
		</g>
		<g>
			<path style="fill:#0A2E3D;" d="M163.1,237.1c-4.2,0-7.6-3.4-7.6-7.6s3.4-7.6,7.6-7.6s7.6,3.4,7.6,7.6v3.9c0,0.3-0.2,0.5-0.5,0.5
				s-0.5-0.2-0.5-0.5v-3.9c0-3.6-3-6.6-6.6-6.6s-6.6,3-6.6,6.6s3,6.6,6.6,6.6c0.3,0,0.5,0.2,0.5,0.5S163.3,237.1,163.1,237.1z"/>
		</g>
	</g>
	<g>
		<g>
			<path style="fill:#0A2E3D;" d="M83,333.3c-0.3,0-0.5-0.1-0.7-0.3l-11.5-11.5c-0.4-0.4-0.4-1,0-1.4s1-0.4,1.4,0l11.5,11.5
				c0.4,0.4,0.4,1,0,1.4C83.5,333.2,83.3,333.3,83,333.3z"/>
		</g>
		<g>
			<path style="fill:#0A2E3D;" d="M71.5,333.3c-0.3,0-0.5-0.1-0.7-0.3c-0.4-0.4-0.4-1,0-1.4l11.5-11.5c0.4-0.4,1-0.4,1.4,0
				s0.4,1,0,1.4L72.2,333C72,333.2,71.7,333.3,71.5,333.3z"/>
		</g>
	</g>
	<g>
		<path style="fill:#0A2E3D;" d="M46.5,264.8c-0.5,0-0.9-0.4-0.9-0.9V263c0-0.5,0.4-0.9,0.9-0.9s0.9,0.4,0.9,0.9v0.9
			C47.4,264.4,47,264.8,46.5,264.8z M46.5,259.3c-0.5,0-0.9-0.4-0.9-0.9v-0.9c0-0.5,0.4-0.9,0.9-0.9s0.9,0.4,0.9,0.9v0.9
			C47.4,258.8,47,259.3,46.5,259.3z M46.5,253.7c-0.5,0-0.9-0.4-0.9-0.9v-0.9c0-0.5,0.4-0.9,0.9-0.9s0.9,0.4,0.9,0.9v0.9
			C47.4,253.2,47,253.7,46.5,253.7z M46.5,248.1c-0.5,0-0.9-0.4-0.9-0.9v-0.9c0-0.5,0.4-0.9,0.9-0.9s0.9,0.4,0.9,0.9v0.9
			C47.4,247.7,47,248.1,46.5,248.1z M46.5,242.5c-0.5,0-0.9-0.4-0.9-0.9v-0.9c0-0.5,0.4-0.9,0.9-0.9s0.9,0.4,0.9,0.9v0.9
			C47.4,242.1,47,242.5,46.5,242.5z M46.5,236.9c-0.5,0-0.9-0.4-0.9-0.9V235c0-0.5,0.4-0.9,0.9-0.9s0.9,0.4,0.9,0.9v0.9
			C47.4,236.5,47,236.9,46.5,236.9z M46.5,231.3c-0.5,0-0.9-0.4-0.9-0.9v-0.9c0-0.5,0.4-0.9,0.9-0.9s0.9,0.4,0.9,0.9v0.9
			C47.4,230.9,47,231.3,46.5,231.3z M46.5,225.7c-0.5,0-0.9-0.4-0.9-0.9v-0.9c0-0.5,0.4-0.9,0.9-0.9s0.9,0.4,0.9,0.9v0.9
			C47.4,225.3,47,225.7,46.5,225.7z M46.5,220.1c-0.5,0-0.9-0.4-0.9-0.9v-0.9c0-0.5,0.4-0.9,0.9-0.9s0.9,0.4,0.9,0.9v0.9
			C47.4,219.7,47,220.1,46.5,220.1z M46.5,214.5c-0.5,0-0.9-0.4-0.9-0.9v-0.9c0-0.5,0.4-0.9,0.9-0.9s0.9,0.4,0.9,0.9v0.9
			C47.4,214.1,47,214.5,46.5,214.5z M46.5,208.9c-0.5,0-0.9-0.4-0.9-0.9v-0.9c0-0.5,0.4-0.9,0.9-0.9s0.9,0.4,0.9,0.9v0.9
			C47.4,208.5,47,208.9,46.5,208.9z M46.5,203.3c-0.5,0-0.9-0.4-0.9-0.9v-0.9c0-0.5,0.4-0.9,0.9-0.9s0.9,0.4,0.9,0.9v0.9
			C47.4,202.9,47,203.3,46.5,203.3z M46.5,197.7c-0.5,0-0.9-0.4-0.9-0.9v-0.9c0-0.5,0.4-0.9,0.9-0.9s0.9,0.4,0.9,0.9v0.9
			C47.4,197.3,47,197.7,46.5,197.7z M46.5,192.2c-0.5,0-0.9-0.4-0.9-0.9v-0.9c0-0.5,0.4-0.9,0.9-0.9s0.9,0.4,0.9,0.9v0.9
			C47.4,191.7,47,192.2,46.5,192.2z M46.5,186.6c-0.5,0-0.9-0.4-0.9-0.9v-0.9c0-0.5,0.4-0.9,0.9-0.9s0.9,0.4,0.9,0.9v0.9
			C47.4,186.1,47,186.6,46.5,186.6z M46.5,181c-0.5,0-0.9-0.4-0.9-0.9v-0.9c0-0.5,0.4-0.9,0.9-0.9s0.9,0.4,0.9,0.9v0.9
			C47.4,180.6,47,181,46.5,181z M46.5,175.4c-0.5,0-0.9-0.4-0.9-0.9v-0.9c0-0.5,0.4-0.9,0.9-0.9s0.9,0.4,0.9,0.9v0.9
			C47.4,175,47,175.4,46.5,175.4z"/>
	</g>
	<g>
		<path style="fill:#0A2E3D;" d="M109,264.8c-0.5,0-0.9-0.4-0.9-0.9V263c0-0.5,0.4-0.9,0.9-0.9s0.9,0.4,0.9,0.9v0.9
			C109.9,264.4,109.5,264.8,109,264.8z M109,259.3c-0.5,0-0.9-0.4-0.9-0.9v-0.9c0-0.5,0.4-0.9,0.9-0.9s0.9,0.4,0.9,0.9v0.9
			C109.9,258.8,109.5,259.3,109,259.3z M109,253.7c-0.5,0-0.9-0.4-0.9-0.9v-0.9c0-0.5,0.4-0.9,0.9-0.9s0.9,0.4,0.9,0.9v0.9
			C109.9,253.2,109.5,253.7,109,253.7z M109,248.1c-0.5,0-0.9-0.4-0.9-0.9v-0.9c0-0.5,0.4-0.9,0.9-0.9s0.9,0.4,0.9,0.9v0.9
			C109.9,247.7,109.5,248.1,109,248.1z M109,242.5c-0.5,0-0.9-0.4-0.9-0.9v-0.9c0-0.5,0.4-0.9,0.9-0.9s0.9,0.4,0.9,0.9v0.9
			C109.9,242.1,109.5,242.5,109,242.5z M109,236.9c-0.5,0-0.9-0.4-0.9-0.9V235c0-0.5,0.4-0.9,0.9-0.9s0.9,0.4,0.9,0.9v0.9
			C109.9,236.5,109.5,236.9,109,236.9z M109,231.3c-0.5,0-0.9-0.4-0.9-0.9v-0.9c0-0.5,0.4-0.9,0.9-0.9s0.9,0.4,0.9,0.9v0.9
			C109.9,230.9,109.5,231.3,109,231.3z M109,225.7c-0.5,0-0.9-0.4-0.9-0.9v-0.9c0-0.5,0.4-0.9,0.9-0.9s0.9,0.4,0.9,0.9v0.9
			C109.9,225.3,109.5,225.7,109,225.7z M109,220.1c-0.5,0-0.9-0.4-0.9-0.9v-0.9c0-0.5,0.4-0.9,0.9-0.9s0.9,0.4,0.9,0.9v0.9
			C109.9,219.7,109.5,220.1,109,220.1z M109,214.5c-0.5,0-0.9-0.4-0.9-0.9v-0.9c0-0.5,0.4-0.9,0.9-0.9s0.9,0.4,0.9,0.9v0.9
			C109.9,214.1,109.5,214.5,109,214.5z M109,208.9c-0.5,0-0.9-0.4-0.9-0.9v-0.9c0-0.5,0.4-0.9,0.9-0.9s0.9,0.4,0.9,0.9v0.9
			C109.9,208.5,109.5,208.9,109,208.9z M109,203.3c-0.5,0-0.9-0.4-0.9-0.9v-0.9c0-0.5,0.4-0.9,0.9-0.9s0.9,0.4,0.9,0.9v0.9
			C109.9,202.9,109.5,203.3,109,203.3z M109,197.7c-0.5,0-0.9-0.4-0.9-0.9v-0.9c0-0.5,0.4-0.9,0.9-0.9s0.9,0.4,0.9,0.9v0.9
			C109.9,197.3,109.5,197.7,109,197.7z M109,192.2c-0.5,0-0.9-0.4-0.9-0.9v-0.9c0-0.5,0.4-0.9,0.9-0.9s0.9,0.4,0.9,0.9v0.9
			C109.9,191.7,109.5,192.2,109,192.2z M109,186.6c-0.5,0-0.9-0.4-0.9-0.9v-0.9c0-0.5,0.4-0.9,0.9-0.9s0.9,0.4,0.9,0.9v0.9
			C109.9,186.1,109.5,186.6,109,186.6z M109,181c-0.5,0-0.9-0.4-0.9-0.9v-0.9c0-0.5,0.4-0.9,0.9-0.9s0.9,0.4,0.9,0.9v0.9
			C109.9,180.6,109.5,181,109,181z M109,175.4c-0.5,0-0.9-0.4-0.9-0.9v-0.9c0-0.5,0.4-0.9,0.9-0.9s0.9,0.4,0.9,0.9v0.9
			C109.9,175,109.5,175.4,109,175.4z"/>
	</g>
	<g>
		<path style="fill:#0A2E3D;" d="M216.4,267.3c-0.5,0-0.9-0.4-0.9-0.9v-0.9c0-0.5,0.4-0.9,0.9-0.9s0.9,0.4,0.9,0.9v0.9
			C217.3,266.8,216.9,267.3,216.4,267.3z M216.4,261.7c-0.5,0-0.9-0.4-0.9-0.9v-0.9c0-0.5,0.4-0.9,0.9-0.9s0.9,0.4,0.9,0.9v0.9
			C217.3,261.3,216.9,261.7,216.4,261.7z M216.4,256.1c-0.5,0-0.9-0.4-0.9-0.9v-0.9c0-0.5,0.4-0.9,0.9-0.9s0.9,0.4,0.9,0.9v0.9
			C217.3,255.7,216.9,256.1,216.4,256.1z M216.4,250.5c-0.5,0-0.9-0.4-0.9-0.9v-0.9c0-0.5,0.4-0.9,0.9-0.9s0.9,0.4,0.9,0.9v0.9
			C217.3,250.1,216.9,250.5,216.4,250.5z M216.4,244.9c-0.5,0-0.9-0.4-0.9-0.9V243c0-0.5,0.4-0.9,0.9-0.9s0.9,0.4,0.9,0.9v0.9
			C217.3,244.5,216.9,244.9,216.4,244.9z M216.4,239.3c-0.5,0-0.9-0.4-0.9-0.9v-0.9c0-0.5,0.4-0.9,0.9-0.9s0.9,0.4,0.9,0.9v0.9
			C217.3,238.9,216.9,239.3,216.4,239.3z M216.4,233.7c-0.5,0-0.9-0.4-0.9-0.9v-0.9c0-0.5,0.4-0.9,0.9-0.9s0.9,0.4,0.9,0.9v0.9
			C217.3,233.3,216.9,233.7,216.4,233.7z M216.4,228.1c-0.5,0-0.9-0.4-0.9-0.9v-0.9c0-0.5,0.4-0.9,0.9-0.9s0.9,0.4,0.9,0.9v0.9
			C217.3,227.7,216.9,228.1,216.4,228.1z M216.4,222.5c-0.5,0-0.9-0.4-0.9-0.9v-0.9c0-0.5,0.4-0.9,0.9-0.9s0.9,0.4,0.9,0.9v0.9
			C217.3,222.1,216.9,222.5,216.4,222.5z M216.4,216.9c-0.5,0-0.9-0.4-0.9-0.9v-0.9c0-0.5,0.4-0.9,0.9-0.9s0.9,0.4,0.9,0.9v0.9
			C217.3,216.5,216.9,216.9,216.4,216.9z M216.4,211.4c-0.5,0-0.9-0.4-0.9-0.9v-0.9c0-0.5,0.4-0.9,0.9-0.9s0.9,0.4,0.9,0.9v0.9
			C217.3,210.9,216.9,211.4,216.4,211.4z M216.4,205.8c-0.5,0-0.9-0.4-0.9-0.9v-0.9c0-0.5,0.4-0.9,0.9-0.9s0.9,0.4,0.9,0.9v0.9
			C217.3,205.3,216.9,205.8,216.4,205.8z M216.4,200.2c-0.5,0-0.9-0.4-0.9-0.9v-0.9c0-0.5,0.4-0.9,0.9-0.9s0.9,0.4,0.9,0.9v0.9
			C217.3,199.8,216.9,200.2,216.4,200.2z M216.4,194.6c-0.5,0-0.9-0.4-0.9-0.9v-0.9c0-0.5,0.4-0.9,0.9-0.9s0.9,0.4,0.9,0.9v0.9
			C217.3,194.2,216.9,194.6,216.4,194.6z"/>
	</g>
	<g>
		<path style="fill:#0A2E3D;" d="M278.1,266.4c-0.5,0-0.9-0.4-0.9-0.9v-0.9c0-0.5,0.4-0.9,0.9-0.9s0.9,0.4,0.9,0.9v0.9
			C279,266,278.6,266.4,278.1,266.4z M278.1,260.8c-0.5,0-0.9-0.4-0.9-0.9V259c0-0.5,0.4-0.9,0.9-0.9s0.9,0.4,0.9,0.9v0.9
			C279,260.4,278.6,260.8,278.1,260.8z M278.1,255.2c-0.5,0-0.9-0.4-0.9-0.9v-0.9c0-0.5,0.4-0.9,0.9-0.9s0.9,0.4,0.9,0.9v0.9
			C279,254.8,278.6,255.2,278.1,255.2z M278.1,249.6c-0.5,0-0.9-0.4-0.9-0.9v-0.9c0-0.5,0.4-0.9,0.9-0.9s0.9,0.4,0.9,0.9v0.9
			C279,249.2,278.6,249.6,278.1,249.6z M278.1,244c-0.5,0-0.9-0.4-0.9-0.9v-0.9c0-0.5,0.4-0.9,0.9-0.9s0.9,0.4,0.9,0.9v0.9
			C279,243.6,278.6,244,278.1,244z M278.1,238.5c-0.5,0-0.9-0.4-0.9-0.9v-0.9c0-0.5,0.4-0.9,0.9-0.9s0.9,0.4,0.9,0.9v0.9
			C279,238,278.6,238.5,278.1,238.5z M278.1,232.9c-0.5,0-0.9-0.4-0.9-0.9V231c0-0.5,0.4-0.9,0.9-0.9s0.9,0.4,0.9,0.9v0.9
			C279,232.4,278.6,232.9,278.1,232.9z M278.1,227.3c-0.5,0-0.9-0.4-0.9-0.9v-0.9c0-0.5,0.4-0.9,0.9-0.9s0.9,0.4,0.9,0.9v0.9
			C279,226.9,278.6,227.3,278.1,227.3z M278.1,221.7c-0.5,0-0.9-0.4-0.9-0.9v-0.9c0-0.5,0.4-0.9,0.9-0.9s0.9,0.4,0.9,0.9v0.9
			C279,221.3,278.6,221.7,278.1,221.7z M278.1,216.1c-0.5,0-0.9-0.4-0.9-0.9v-0.9c0-0.5,0.4-0.9,0.9-0.9s0.9,0.4,0.9,0.9v0.9
			C279,215.7,278.6,216.1,278.1,216.1z M278.1,210.5c-0.5,0-0.9-0.4-0.9-0.9v-0.9c0-0.5,0.4-0.9,0.9-0.9s0.9,0.4,0.9,0.9v0.9
			C279,210.1,278.6,210.5,278.1,210.5z M278.1,204.9c-0.5,0-0.9-0.4-0.9-0.9V203c0-0.5,0.4-0.9,0.9-0.9s0.9,0.4,0.9,0.9v0.9
			C279,204.5,278.6,204.9,278.1,204.9z M278.1,199.3c-0.5,0-0.9-0.4-0.9-0.9v-0.9c0-0.5,0.4-0.9,0.9-0.9s0.9,0.4,0.9,0.9v0.9
			C279,198.9,278.6,199.3,278.1,199.3z M278.1,193.7c-0.5,0-0.9-0.4-0.9-0.9v-0.9c0-0.5,0.4-0.9,0.9-0.9s0.9,0.4,0.9,0.9v0.9
			C279,193.3,278.6,193.7,278.1,193.7z"/>
	</g>
	<g>
		<path style="fill:#DCE2E4;" d="M71.6,107.8l-30.8,17.8L10,107.8l30.8-17.9L71.6,107.8z"/>
	</g>
	<g>
		<g>
			<path style="fill:#0A2E3D;" d="M40.8,163.2c-0.1,0-0.2,0-0.3,0c-0.3-0.1-0.6-0.3-0.8-0.6L9,108.4c-0.3-0.6-0.1-1.4,0.5-1.7
				l30.7-17.9c0.4-0.2,0.9-0.2,1.3,0l30.7,17.9c0.4,0.2,0.6,0.6,0.6,1.1V144c0,0.4-0.2,0.9-0.6,1.1L41.5,163
				C41.3,163.1,41.1,163.2,40.8,163.2z M11.8,108.3l29.5,51.9l29-16.9v-34.8L40.8,91.3L11.8,108.3z"/>
		</g>
	</g>
	<g>
		<polygon style="fill:#FFFFFF;" points="46.4,129.5 77.2,111.6 108,129.5 108,165.5 77.2,183.4 46.4,165.5 		"/>
	</g>
	<g>
		<path style="fill:#DCE2E4;" d="M108,129.5l-30.8,17.8l-30.8-17.8l30.8-17.9L108,129.5z"/>
	</g>
	<g>
		<path style="fill:#0A2E3D;" d="M77.2,184.7c-0.2,0-0.4-0.1-0.6-0.2l-30.8-18c-0.4-0.2-0.6-0.6-0.6-1.1v-35.9
			c0-0.4,0.2-0.9,0.6-1.1l30.8-18c0.4-0.2,0.9-0.2,1.3,0l30.8,18c0.4,0.2,0.6,0.6,0.6,1.1v35.9c0,0.4-0.2,0.9-0.6,1.1l-30.8,18
			C77.6,184.6,77.4,184.7,77.2,184.7z M47.6,164.8L77.2,182l29.6-17.2v-34.5L77.2,113l-29.6,17.2V164.8z"/>
	</g>
	<g>
		<polygon style="fill:#FFFFFF;" points="82.3,150.9 113.1,133 143.8,186.8 113.1,204.7 82.3,186.5 		"/>
	</g>
	<g>
		<g>
			<polygon style="fill:#DCE2E4;" points="113.1,204.7 143.8,186.8 113.1,133 82.4,150.8 			"/>
		</g>
		<g>
			<path style="fill:#0A2E3D;" d="M113.1,206c-0.2,0-0.4-0.1-0.6-0.2l-30.7-18.2c-0.4-0.2-0.6-0.6-0.6-1.1v-35.6
				c0-0.4,0.2-0.9,0.6-1.1l30.7-17.9c0.3-0.2,0.6-0.2,1-0.1c0.3,0.1,0.6,0.3,0.8,0.6l30.7,53.8c0.3,0.6,0.1,1.4-0.5,1.7l-30.7,17.9
				C113.5,205.9,113.3,206,113.1,206z M83.6,185.8l29.5,17.5l29-16.9l-29.5-51.6l-29,16.9V185.8z"/>
		</g>
		<g>
			<path style="fill:none;stroke:#4B4F64;stroke-width:2.5;stroke-linecap:round;stroke-linejoin:round;stroke-miterlimit:10;" d="
				M97.7,159.9"/>
		</g>
	</g>
	<g>
		<path style="fill:#0A2E3D;" d="M77.2,184.7c-0.7,0-1.2-0.6-1.2-1.2v-13.3c0-0.7,0.6-1.2,1.2-1.2s1.2,0.6,1.2,1.2v13.3
			C78.4,184.1,77.9,184.7,77.2,184.7z"/>
	</g>
	<g>
		<path style="fill:#0A2E3D;" d="M40.8,134c-0.7,0-1.2-0.6-1.2-1.2v-7.2c0-0.7,0.6-1.2,1.2-1.2s1.2,0.6,1.2,1.2v7.2
			C42.1,133.5,41.5,134,40.8,134z"/>
	</g>
	<g>
		<path style="fill:#0A2E3D;" d="M40.8,163.2c-0.7,0-1.2-0.6-1.2-1.2v-13.3c0-0.7,0.6-1.2,1.2-1.2s1.2,0.6,1.2,1.2v13.3
			C42.1,162.6,41.5,163.2,40.8,163.2z"/>
	</g>
	<g>
		<g>
			<path style="fill:#B6C3C9;" d="M278.1,151.7l-30.8,17.8l-30.8-17.8l30.8-17.9L278.1,151.7z"/>
		</g>
		<g>
			<path style="fill:#0A2E3D;" d="M247.3,206.9c-0.2,0-0.4-0.1-0.6-0.2l-30.8-18c-0.4-0.2-0.6-0.6-0.6-1.1v-35.9
				c0-0.4,0.2-0.9,0.6-1.1l30.8-18c0.4-0.2,0.9-0.2,1.3,0l30.8,18c0.4,0.2,0.6,0.6,0.6,1.1v35.9c0,0.4-0.2,0.9-0.6,1.1l-30.8,18
				C247.8,206.8,247.5,206.9,247.3,206.9z M217.8,186.9l29.6,17.2l29.6-17.2v-34.5l-29.6-17.2l-29.6,17.2V186.9z"/>
		</g>
		<g>
			<g>
				<polygon style="fill:#FFFFFF;" points="215.7,108 246.4,90 277.2,143.9 246.4,161.8 215.7,143.6 				"/>
			</g>
			<g>
				<g>
					<polygon style="fill:#B6C3C9;" points="246.4,161.8 277.2,143.9 246.4,90 215.8,107.9 					"/>
				</g>
				<g>
					<path style="fill:#0A2E3D;" d="M246.4,163c-0.2,0-0.4-0.1-0.6-0.2L215,144.7c-0.4-0.2-0.6-0.6-0.6-1.1V108
						c0-0.4,0.2-0.9,0.6-1.1L245.8,89c0.3-0.2,0.6-0.2,1-0.1c0.3,0.1,0.6,0.3,0.8,0.6l30.7,53.8c0.3,0.6,0.1,1.4-0.5,1.7l-30.7,17.9
						C246.9,163,246.7,163,246.4,163z M216.9,142.9l29.5,17.5l29-16.9L246,91.8l-29,16.9V142.9z"/>
				</g>
				<g>
					
						<path style="fill:none;stroke:#4B4F64;stroke-width:2.5;stroke-linecap:round;stroke-linejoin:round;stroke-miterlimit:10;" d="
						M231.1,116.9"/>
				</g>
			</g>
		</g>
		<g>
			<g>
				<polygon style="fill:#FFFFFF;" points="217.3,97.6 248.1,79.7 278.8,97.6 278.8,133.8 248.1,151.7 				"/>
			</g>
		</g>
		<g>
			<path style="fill:#0A2E3D;" d="M247.2,206.5c-0.7,0-1.2-0.6-1.2-1.2v-13.3c0-0.7,0.6-1.2,1.2-1.2s1.2,0.6,1.2,1.2v13.3
				C248.4,205.9,247.9,206.5,247.2,206.5z"/>
		</g>
		<g>
			<g>
				<path style="fill:#DCE2E4;" d="M278.8,97.6L248,115.4l-30.8-17.8L248,79.7L278.8,97.6z"/>
			</g>
			<g>
				<g>
					<path style="fill:#0A2E3D;" d="M248.1,152.9c-0.1,0-0.2,0-0.3,0c-0.3-0.1-0.6-0.3-0.8-0.6l-30.7-54.1c-0.3-0.6-0.1-1.4,0.5-1.7
						l30.7-17.9c0.4-0.2,0.9-0.2,1.3,0l30.7,17.9c0.4,0.2,0.6,0.6,0.6,1.1v36.2c0,0.4-0.2,0.9-0.6,1.1l-30.7,17.9
						C248.5,152.9,248.3,152.9,248.1,152.9z M219,98l29.5,51.9l29-16.9V98.3l-29.5-17.2L219,98z"/>
				</g>
			</g>
			<g>
				<path style="fill:#0A2E3D;" d="M248.1,123.8c-0.7,0-1.2-0.6-1.2-1.2v-7.2c0-0.7,0.6-1.2,1.2-1.2s1.2,0.6,1.2,1.2v7.2
					C249.3,123.2,248.8,123.8,248.1,123.8z"/>
			</g>
			<g>
				<path style="fill:#0A2E3D;" d="M248.1,152.9c-0.7,0-1.2-0.6-1.2-1.2v-13.3c0-0.7,0.6-1.2,1.2-1.2s1.2,0.6,1.2,1.2v13.3
					C249.3,152.4,248.8,152.9,248.1,152.9z"/>
			</g>
		</g>
	</g>
	<g>
		<polygon style="fill:#B6C3C9;" points="77.3,290 77.3,254.2 108.2,272.2 		"/>
	</g>
	<g>
		<path style="fill:#0A2E3D;" d="M77.2,291.3c-0.2,0-0.4-0.1-0.6-0.2l-31-17.9c-0.4-0.2-0.6-0.6-0.6-1.1c0-0.4,0.2-0.9,0.6-1.1
			l31-18c0.4-0.2,0.9-0.2,1.3,0l31,18c0.4,0.2,0.6,0.6,0.6,1.1c0,0.4-0.2,0.9-0.6,1.1l-31,17.9C77.7,291.2,77.5,291.3,77.2,291.3z
			 M48.8,272.2l28.5,16.4l28.5-16.4l-28.5-16.6L48.8,272.2z"/>
	</g>
</g>
</svg>
