<?xml version="1.0" encoding="utf-8"?>
<!-- Generator: Adobe Illustrator 18.0.0, SVG Export Plug-In . SVG Version: 6.00 Build 0)  -->
<!DOCTYPE svg PUBLIC "-//W3C//DTD SVG 1.1//EN" "http://www.w3.org/Graphics/SVG/1.1/DTD/svg11.dtd">
<svg version="1.1" id="Layer_1" xmlns="http://www.w3.org/2000/svg" xmlns:xlink="http://www.w3.org/1999/xlink" x="0px" y="0px"
	 viewBox="0 0 287.8 374.6" style="enable-background:new 0 0 287.8 374.6;" xml:space="preserve">
<g>
	<g>
		<path style="fill:#6C8081;" d="M250.4,183.2c0.1-0.5,0.3-0.9,0.5-1.2s0.5-0.6,0.8-0.9c0.3-0.2,0.6-0.5,1-0.7
			c0.2-0.1,0.4-0.2,0.6-0.4c0.2-0.1,0.4-0.3,0.6-0.4c0.2-0.2,0.3-0.3,0.4-0.5s0.2-0.4,0.2-0.7c0-0.4-0.1-0.8-0.4-1
			c-0.3-0.2-0.6-0.3-0.9-0.3c-0.4,0-0.7,0.1-1,0.4c-0.3,0.2-0.4,0.6-0.4,1.2h-1.5c0-0.5,0.1-0.9,0.2-1.2s0.4-0.7,0.7-0.9
			c0.3-0.2,0.6-0.4,0.9-0.5c0.4-0.1,0.7-0.2,1.1-0.2c0.4,0,0.8,0.1,1.1,0.2c0.3,0.1,0.6,0.3,0.9,0.5c0.3,0.2,0.4,0.5,0.6,0.9
			c0.1,0.3,0.2,0.7,0.2,1.2c0,0.4-0.1,0.8-0.3,1.1c-0.2,0.3-0.4,0.6-0.7,0.9s-0.5,0.5-0.8,0.6c-0.3,0.2-0.5,0.3-0.6,0.4
			c-0.3,0.2-0.6,0.4-0.8,0.6c-0.2,0.2-0.4,0.3-0.5,0.5c-0.1,0.2-0.2,0.3-0.2,0.5s-0.1,0.4-0.1,0.6h4v1.3h-5.7
			C250.2,184.3,250.3,183.7,250.4,183.2z"/>
		<path style="fill:#6C8081;" d="M258.3,183.2c0.1-0.5,0.3-0.9,0.5-1.2s0.5-0.6,0.8-0.9c0.3-0.2,0.6-0.5,1-0.7
			c0.2-0.1,0.4-0.2,0.6-0.4c0.2-0.1,0.4-0.3,0.6-0.4c0.2-0.2,0.3-0.3,0.4-0.5s0.2-0.4,0.2-0.7c0-0.4-0.1-0.8-0.4-1
			c-0.3-0.2-0.6-0.3-0.9-0.3c-0.4,0-0.7,0.1-1,0.4c-0.3,0.2-0.4,0.6-0.4,1.2h-1.5c0-0.5,0.1-0.9,0.2-1.2s0.4-0.7,0.7-0.9
			c0.3-0.2,0.6-0.4,0.9-0.5c0.4-0.1,0.7-0.2,1.1-0.2c0.4,0,0.8,0.1,1.1,0.2c0.3,0.1,0.6,0.3,0.9,0.5c0.3,0.2,0.4,0.5,0.6,0.9
			c0.1,0.3,0.2,0.7,0.2,1.2c0,0.4-0.1,0.8-0.3,1.1c-0.2,0.3-0.4,0.6-0.7,0.9s-0.5,0.5-0.8,0.6c-0.3,0.2-0.5,0.3-0.6,0.4
			c-0.3,0.2-0.6,0.4-0.8,0.6c-0.2,0.2-0.4,0.3-0.5,0.5c-0.1,0.2-0.2,0.3-0.2,0.5s-0.1,0.4-0.1,0.6h4v1.3h-5.7
			C258.1,184.3,258.2,183.7,258.3,183.2z"/>
		<path style="fill:#6C8081;" d="M266.4,179.2v-1.7c0-0.2,0-0.5,0.1-0.7c0.1-0.2,0.2-0.4,0.4-0.6c0.2-0.2,0.4-0.3,0.6-0.4
			c0.2-0.1,0.5-0.1,0.8-0.1c0.3,0,0.6,0,0.8,0.1c0.2,0.1,0.4,0.2,0.6,0.4c0.2,0.2,0.3,0.4,0.4,0.6c0.1,0.2,0.1,0.4,0.1,0.7v1.7
			c0,0.2,0,0.5-0.1,0.7s-0.2,0.4-0.4,0.6c-0.2,0.2-0.4,0.3-0.6,0.4c-0.2,0.1-0.5,0.1-0.8,0.1c-0.3,0-0.6,0-0.8-0.1
			c-0.2-0.1-0.4-0.2-0.6-0.4c-0.2-0.2-0.3-0.3-0.4-0.6C266.5,179.7,266.4,179.4,266.4,179.2z M269.1,177.6c0-0.2-0.1-0.4-0.2-0.6
			c-0.1-0.2-0.3-0.2-0.6-0.2c-0.2,0-0.4,0.1-0.5,0.2c-0.1,0.2-0.2,0.4-0.2,0.6v1.7c0,0.2,0.1,0.4,0.2,0.6s0.3,0.2,0.5,0.2
			c0.2,0,0.4-0.1,0.6-0.2s0.2-0.4,0.2-0.6V177.6z M273.7,175.2l1.1,0.7l-5.7,9.8l-1.1-0.7L273.7,175.2z M276.7,183.3
			c0,0.2,0,0.5-0.1,0.7c-0.1,0.2-0.2,0.4-0.4,0.6c-0.2,0.2-0.4,0.3-0.6,0.4c-0.2,0.1-0.5,0.1-0.8,0.1s-0.6,0-0.8-0.1
			c-0.2-0.1-0.4-0.2-0.6-0.4c-0.2-0.2-0.3-0.3-0.4-0.6c-0.1-0.2-0.1-0.4-0.1-0.7v-1.7c0-0.2,0-0.5,0.1-0.7c0.1-0.2,0.2-0.4,0.4-0.6
			c0.2-0.2,0.4-0.3,0.6-0.4s0.5-0.1,0.8-0.1s0.6,0,0.8,0.1s0.4,0.2,0.6,0.4c0.2,0.2,0.3,0.4,0.4,0.6s0.1,0.4,0.1,0.7V183.3z
			 M274,183.3c0,0.2,0.1,0.4,0.2,0.6s0.3,0.2,0.5,0.2c0.2,0,0.4-0.1,0.6-0.2s0.2-0.4,0.2-0.6v-1.7c0-0.2-0.1-0.4-0.2-0.6
			s-0.3-0.2-0.6-0.2c-0.2,0-0.4,0.1-0.5,0.2s-0.2,0.4-0.2,0.6V183.3z"/>
	</g>
	<g>
		<g>
			<polyline style="fill:#B6C3C9;" points="30.6,293.4 30.6,236.3 68.8,236.3 68.8,293.4 			"/>
			<path style="fill:#0A2E3D;" d="M68.8,294.6c-0.7,0-1.2-0.6-1.2-1.2v-55.8H31.8v55.8c0,0.7-0.6,1.2-1.2,1.2s-1.2-0.6-1.2-1.2v-57
				c0-0.7,0.6-1.2,1.2-1.2h38.2c0.7,0,1.2,0.6,1.2,1.2v57C70,294.1,69.4,294.6,68.8,294.6z"/>
		</g>
	</g>
	<g>
		<polyline style="fill:#B6C3C9;" points="80.3,293.4 80.3,220.5 118.5,220.5 118.5,293.4 		"/>
		<path style="fill:#0A2E3D;" d="M118.5,294.6c-0.7,0-1.2-0.6-1.2-1.2v-71.7H81.6v71.7c0,0.7-0.6,1.2-1.2,1.2s-1.2-0.6-1.2-1.2
			v-72.9c0-0.7,0.6-1.2,1.2-1.2h38.2c0.7,0,1.2,0.6,1.2,1.2v72.9C119.7,294.1,119.2,294.6,118.5,294.6z"/>
	</g>
	<g>
		<polyline style="fill:#DCE2E4;" points="130,293.4 130,151.5 168.2,151.5 168.2,293.4 		"/>
		<path style="fill:#0A2E3D;" d="M168.2,294.6c-0.7,0-1.2-0.6-1.2-1.2V152.7h-35.7v140.7c0,0.7-0.6,1.2-1.2,1.2s-1.2-0.6-1.2-1.2
			V151.5c0-0.7,0.6-1.2,1.2-1.2h38.2c0.7,0,1.2,0.6,1.2,1.2v141.9C169.4,294.1,168.9,294.6,168.2,294.6z"/>
	</g>
	<g>
		<polyline style="fill:#DCE2E4;" points="217.9,115.7 217.9,293.4 179.7,293.4 179.7,115.7 		"/>
		<path style="fill:#0A2E3D;" d="M217.9,294.7h-38.2c-0.7,0-1.3-0.6-1.3-1.3V115.7c0-0.7,0.6-1.3,1.3-1.3s1.3,0.6,1.3,1.3v176.4
			h35.6V115.7c0-0.7,0.6-1.3,1.3-1.3s1.3,0.6,1.3,1.3v177.7C219.2,294.1,218.6,294.7,217.9,294.7z"/>
	</g>
	<g>
		<path style="fill:#6C8081;" d="M42.7,313.9c0,0.4-0.1,0.7-0.2,1.1c-0.1,0.3-0.3,0.6-0.5,0.9s-0.5,0.4-0.8,0.6
			c-0.3,0.1-0.7,0.2-1.1,0.2c-0.4,0-0.8-0.1-1.1-0.2c-0.3-0.1-0.6-0.3-0.8-0.6c-0.2-0.2-0.4-0.5-0.5-0.9c-0.1-0.3-0.2-0.7-0.2-1.1
			H39c0,0.5,0.1,0.8,0.3,1.1c0.2,0.3,0.5,0.4,0.9,0.4s0.7-0.1,0.9-0.4s0.3-0.7,0.3-1.1v-5.2h1.3V313.9z"/>
		<path style="fill:#6C8081;" d="M48.8,316.4l-0.3-1h-2.9l-0.3,1h-1.3l2.7-7.7h0.9l2.7,7.7H48.8z M47,310.8l-1.1,3.5h2.1L47,310.8z"
			/>
		<path style="fill:#6C8081;" d="M56.3,314.2v-5.5h1.3v7.7h-1.4l-3-5.5v5.5h-1.3v-7.7h1.4L56.3,314.2z"/>
	</g>
	<g>
		<path style="fill:#6C8081;" d="M91.2,309.9v2.4h3.2v1.1h-3.2v3H90v-7.7h4.4v1.1H91.2z"/>
		<path style="fill:#6C8081;" d="M98,309.9v2.2h3.2v1.1H98v2.1h3.2v1.1h-4.4v-7.7h4.4v1.1H98z"/>
		<path style="fill:#6C8081;" d="M103.6,308.7h2.6c0.5,0,1,0.1,1.3,0.2c0.3,0.1,0.6,0.3,0.8,0.5c0.2,0.2,0.3,0.4,0.4,0.7
			c0.1,0.2,0.1,0.5,0.1,0.7c0,0.2,0,0.5-0.1,0.7c-0.1,0.2-0.2,0.4-0.3,0.5c-0.1,0.1-0.3,0.3-0.4,0.4s-0.3,0.2-0.5,0.2
			c0.1,0,0.3,0,0.4,0.1c0.2,0.1,0.3,0.2,0.5,0.3c0.1,0.1,0.3,0.3,0.4,0.5c0.1,0.2,0.2,0.5,0.2,0.8c0,0.2,0,0.4-0.1,0.7
			c-0.1,0.3-0.2,0.5-0.4,0.7s-0.4,0.4-0.8,0.6c-0.3,0.2-0.8,0.2-1.3,0.2h-2.6V308.7z M106.3,312c0.3,0,0.5,0,0.6-0.1
			c0.2-0.1,0.3-0.2,0.4-0.3s0.1-0.2,0.2-0.3s0-0.2,0-0.3c0-0.1,0-0.2,0-0.3c0-0.1-0.1-0.2-0.2-0.3c-0.1-0.1-0.2-0.2-0.4-0.3
			c-0.2-0.1-0.4-0.1-0.6-0.1h-1.4v2.1H106.3z M104.9,313.1v2.2h1.4c0.3,0,0.5,0,0.6-0.1c0.2-0.1,0.3-0.2,0.4-0.3
			c0.1-0.1,0.1-0.2,0.2-0.4c0-0.1,0-0.2,0-0.4c0-0.1,0-0.2,0-0.3c0-0.1-0.1-0.2-0.2-0.4c-0.1-0.1-0.2-0.2-0.4-0.3
			c-0.2-0.1-0.4-0.1-0.6-0.1H104.9z"/>
	</g>
	<g>
		<path style="fill:#6C8081;" d="M145.9,316.4h-1.3v-4.8l-1.9,4.8h-1l-1.9-4.8v4.8h-1.3v-7.7h1.2l2.5,5.7l2.5-5.7h1.2V316.4z"/>
		<path style="fill:#6C8081;" d="M152.5,316.4l-0.3-1h-2.9l-0.3,1h-1.3l2.7-7.7h0.9l2.7,7.7H152.5z M150.7,310.8l-1.1,3.5h2.1
			L150.7,310.8z"/>
		<path style="fill:#6C8081;" d="M155.6,308.7h2.8c0.4,0,0.8,0.1,1.1,0.2c0.3,0.1,0.6,0.3,0.9,0.6c0.2,0.2,0.4,0.5,0.6,0.9
			c0.1,0.3,0.2,0.7,0.2,1c0,0.3,0,0.5-0.1,0.8c-0.1,0.3-0.2,0.5-0.3,0.7c-0.1,0.2-0.3,0.4-0.5,0.6c-0.2,0.2-0.4,0.3-0.7,0.4l1.5,2.5
			h-1.4l-1.4-2.3h-1.3v2.3h-1.3V308.7z M158.3,313c0.2,0,0.4,0,0.6-0.1s0.3-0.2,0.5-0.3c0.1-0.1,0.2-0.3,0.3-0.5
			c0.1-0.2,0.1-0.4,0.1-0.6s0-0.4-0.1-0.6c-0.1-0.2-0.2-0.4-0.3-0.5c-0.1-0.1-0.3-0.3-0.5-0.3s-0.4-0.1-0.6-0.1h-1.5v3.1H158.3z"/>
	</g>
	<g>
		<path style="fill:#6C8081;" d="M193.2,316.4l-0.3-1H190l-0.3,1h-1.3l2.7-7.7h0.9l2.7,7.7H193.2z M191.5,310.8l-1.1,3.5h2.1
			L191.5,310.8z"/>
		<path style="fill:#6C8081;" d="M196.3,308.7h2.8c0.4,0,0.8,0.1,1.1,0.2c0.3,0.1,0.6,0.3,0.9,0.6c0.2,0.2,0.4,0.5,0.6,0.9
			c0.1,0.3,0.2,0.7,0.2,1c0,0.4-0.1,0.7-0.2,1c-0.1,0.3-0.3,0.6-0.6,0.9c-0.2,0.2-0.5,0.4-0.9,0.6c-0.3,0.1-0.7,0.2-1.1,0.2h-1.5
			v2.3h-1.3V308.7z M199,313c0.2,0,0.4,0,0.6-0.1s0.3-0.2,0.5-0.3c0.1-0.1,0.2-0.3,0.3-0.5c0.1-0.2,0.1-0.4,0.1-0.6s0-0.4-0.1-0.6
			c-0.1-0.2-0.2-0.4-0.3-0.5c-0.1-0.1-0.3-0.3-0.5-0.3s-0.4-0.1-0.6-0.1h-1.5v3.1H199z"/>
		<path style="fill:#6C8081;" d="M203.7,308.7h2.8c0.4,0,0.8,0.1,1.1,0.2c0.3,0.1,0.6,0.3,0.9,0.6c0.2,0.2,0.4,0.5,0.6,0.9
			c0.1,0.3,0.2,0.7,0.2,1c0,0.3,0,0.5-0.1,0.8c-0.1,0.3-0.2,0.5-0.3,0.7c-0.1,0.2-0.3,0.4-0.5,0.6c-0.2,0.2-0.4,0.3-0.7,0.4l1.5,2.5
			h-1.4l-1.4-2.3H205v2.3h-1.3V308.7z M206.5,313c0.2,0,0.4,0,0.6-0.1s0.3-0.2,0.5-0.3c0.1-0.1,0.2-0.3,0.3-0.5
			c0.1-0.2,0.1-0.4,0.1-0.6s0-0.4-0.1-0.6c-0.1-0.2-0.2-0.4-0.3-0.5c-0.1-0.1-0.3-0.3-0.5-0.3s-0.4-0.1-0.6-0.1H205v3.1H206.5z"/>
	</g>
	<g>
		<path style="fill:#0A2E3D;" d="M234.6,294.6H10.4c-0.7,0-1.2-0.6-1.2-1.2s0.6-1.2,1.2-1.2h224.2c0.7,0,1.2,0.6,1.2,1.2
			S235.3,294.6,234.6,294.6z"/>
	</g>
	<g>
		<path style="fill:#FFFFFF;" d="M12.2,280.2H10v-7h2c19-1.2,37.4-3.1,52.3-12.3c13.6-8.4,24.3-22.3,34.6-35.6
			c8.4-10.8,17-22.1,27.4-30.7c12.6-10.5,33.8-17.7,52.6-17.8h60.7v7H179c-17.3,0.1-36.7,6.6-48.2,16.1c-9.8,8.1-18.2,19-26.3,29.6
			c-10.7,13.9-21.8,28.2-36.5,37.3c-16.3,10.1-35.7,12.1-55.7,13.4L12.2,280.2z"/>
	</g>
	<g>
		<path style="fill:#0A2E3D;" d="M10,277.7c-0.6,0-1-0.4-1-1s0.4-1,1-1h2.1c19.4-1.2,38.1-3.1,53.5-12.7c14-8.7,24.8-22.7,35.3-36.2
			c8.3-10.7,16.9-21.8,27-30.3c12.2-10.2,32.7-17.1,51.1-17.2h60.6c0.6,0,1,0.4,1,1s-0.4,1-1,1H179c-17.9,0.1-37.9,6.8-49.8,16.7
			c-10,8.3-18.5,19.3-26.7,30c-10.6,13.7-21.5,27.9-35.8,36.7c-15.8,9.8-34.8,11.7-54.5,13L10,277.7z"/>
	</g>
	<g>
		<path style="fill:#0A2E3D;" d="M233.2,186.7c-0.3,0-0.6-0.1-0.8-0.4c-0.3-0.4-0.3-1.1,0.2-1.4l5.8-4.6l-5.8-4.6
			c-0.4-0.3-0.5-1-0.2-1.4s1-0.5,1.4-0.2l6.8,5.4c0.2,0.2,0.4,0.5,0.4,0.8s-0.1,0.6-0.4,0.8l-6.8,5.4
			C233.7,186.7,233.4,186.7,233.2,186.7z"/>
	</g>
	<g>
		<g>
			<path style="fill:#0A2E3D;" d="M179.7,134.7c-0.7,0-1.2-0.6-1.2-1.2v-0.5c0-0.7,0.6-1.2,1.2-1.2s1.2,0.6,1.2,1.2v0.5
				C181,134.1,180.4,134.7,179.7,134.7z"/>
		</g>
		<g>
			<path style="fill:#0A2E3D;" d="M179.7,129.5c-0.7,0-1.2-0.6-1.2-1.2v-0.9c0-0.7,0.6-1.2,1.2-1.2s1.2,0.6,1.2,1.2v0.9
				C181,128.9,180.4,129.5,179.7,129.5z M179.7,123.9c-0.7,0-1.2-0.6-1.2-1.2v-0.9c0-0.7,0.6-1.2,1.2-1.2s1.2,0.6,1.2,1.2v0.9
				C181,123.3,180.4,123.9,179.7,123.9z M179.7,118.2c-0.7,0-1.2-0.6-1.2-1.2V116c0-0.7,0.6-1.2,1.2-1.2s1.2,0.6,1.2,1.2v0.9
				C181,117.7,180.4,118.2,179.7,118.2z M179.7,112.6c-0.7,0-1.2-0.6-1.2-1.2v-0.9c0-0.7,0.6-1.2,1.2-1.2s1.2,0.6,1.2,1.2v0.9
				C181,112,180.4,112.6,179.7,112.6z M179.7,107c-0.7,0-1.2-0.6-1.2-1.2v-0.9c0-0.7,0.6-1.2,1.2-1.2s1.2,0.6,1.2,1.2v0.9
				C181,106.4,180.4,107,179.7,107z M179.7,101.3c-0.7,0-1.2-0.6-1.2-1.2v-0.9c0-0.7,0.6-1.2,1.2-1.2s1.2,0.6,1.2,1.2v0.9
				C181,100.8,180.4,101.3,179.7,101.3z M179.7,95.7c-0.7,0-1.2-0.6-1.2-1.2v-0.9c0-0.7,0.6-1.2,1.2-1.2s1.2,0.6,1.2,1.2v0.9
				C181,95.1,180.4,95.7,179.7,95.7z M179.7,90.1c-0.7,0-1.2-0.6-1.2-1.2v-0.9c0-0.7,0.6-1.2,1.2-1.2s1.2,0.6,1.2,1.2v0.9
				C181,89.5,180.4,90.1,179.7,90.1z M179.7,84.4c-0.7,0-1.2-0.6-1.2-1.2v-0.9c0-0.7,0.6-1.2,1.2-1.2s1.2,0.6,1.2,1.2v0.9
				C181,83.9,180.4,84.4,179.7,84.4z M179.7,78.8c-0.7,0-1.2-0.6-1.2-1.2v-0.9c0-0.7,0.6-1.2,1.2-1.2s1.2,0.6,1.2,1.2v0.9
				C181,78.2,180.4,78.8,179.7,78.8z M179.7,73.2c-0.7,0-1.2-0.6-1.2-1.2V71c0-0.7,0.6-1.2,1.2-1.2s1.2,0.6,1.2,1.2v0.9
				C181,72.6,180.4,73.2,179.7,73.2z M179.7,67.5c-0.7,0-1.2-0.6-1.2-1.2v-0.9c0-0.7,0.6-1.2,1.2-1.2s1.2,0.6,1.2,1.2v0.9
				C181,67,180.4,67.5,179.7,67.5z M179.7,61.9c-0.7,0-1.2-0.6-1.2-1.2v-0.9c0-0.7,0.6-1.2,1.2-1.2s1.2,0.6,1.2,1.2v0.9
				C181,61.4,180.4,61.9,179.7,61.9z"/>
		</g>
		<g>
			<path style="fill:#0A2E3D;" d="M179.7,56.3c-0.7,0-1.2-0.6-1.2-1.2v-0.5c0-0.7,0.6-1.2,1.2-1.2h0.5c0.7,0,1.2,0.6,1.2,1.2
				c0,0.5-0.3,0.9-0.6,1.1C180.6,56,180.2,56.3,179.7,56.3z"/>
		</g>
		<g>
			<path style="fill:#0A2E3D;" d="M212.9,55.8H212c-0.7,0-1.2-0.6-1.2-1.2s0.6-1.2,1.2-1.2h0.9c0.7,0,1.2,0.6,1.2,1.2
				S213.6,55.8,212.9,55.8z M207.4,55.8h-0.9c-0.7,0-1.2-0.6-1.2-1.2s0.6-1.2,1.2-1.2h0.9c0.7,0,1.2,0.6,1.2,1.2
				S208.1,55.8,207.4,55.8z M202,55.8h-0.9c-0.7,0-1.2-0.6-1.2-1.2s0.6-1.2,1.2-1.2h0.9c0.7,0,1.2,0.6,1.2,1.2S202.7,55.8,202,55.8z
				 M196.5,55.8h-0.9c-0.7,0-1.2-0.6-1.2-1.2s0.6-1.2,1.2-1.2h0.9c0.7,0,1.2,0.6,1.2,1.2S197.2,55.8,196.5,55.8z M191.1,55.8h-0.9
				c-0.7,0-1.2-0.6-1.2-1.2s0.6-1.2,1.2-1.2h0.9c0.7,0,1.2,0.6,1.2,1.2S191.8,55.8,191.1,55.8z M185.6,55.8h-0.9
				c-0.7,0-1.2-0.6-1.2-1.2s0.6-1.2,1.2-1.2h0.9c0.7,0,1.2,0.6,1.2,1.2S186.3,55.8,185.6,55.8z"/>
		</g>
		<g>
			<path style="fill:#0A2E3D;" d="M217.9,56.3c-0.5,0-0.9-0.3-1.1-0.6c-0.4-0.2-0.6-0.6-0.6-1.1c0-0.7,0.6-1.2,1.2-1.2h0.5
				c0.7,0,1.2,0.6,1.2,1.2V55C219.1,55.7,218.6,56.3,217.9,56.3z"/>
		</g>
		<g>
			<path style="fill:#0A2E3D;" d="M217.9,129.5c-0.7,0-1.2-0.6-1.2-1.2v-0.9c0-0.7,0.6-1.2,1.2-1.2s1.2,0.6,1.2,1.2v0.9
				C219.1,128.9,218.6,129.5,217.9,129.5z M217.9,123.9c-0.7,0-1.2-0.6-1.2-1.2v-0.9c0-0.7,0.6-1.2,1.2-1.2s1.2,0.6,1.2,1.2v0.9
				C219.1,123.3,218.6,123.9,217.9,123.9z M217.9,118.2c-0.7,0-1.2-0.6-1.2-1.2V116c0-0.7,0.6-1.2,1.2-1.2s1.2,0.6,1.2,1.2v0.9
				C219.1,117.7,218.6,118.2,217.9,118.2z M217.9,112.6c-0.7,0-1.2-0.6-1.2-1.2v-0.9c0-0.7,0.6-1.2,1.2-1.2s1.2,0.6,1.2,1.2v0.9
				C219.1,112,218.6,112.6,217.9,112.6z M217.9,107c-0.7,0-1.2-0.6-1.2-1.2v-0.9c0-0.7,0.6-1.2,1.2-1.2s1.2,0.6,1.2,1.2v0.9
				C219.1,106.4,218.6,107,217.9,107z M217.9,101.3c-0.7,0-1.2-0.6-1.2-1.2v-0.9c0-0.7,0.6-1.2,1.2-1.2s1.2,0.6,1.2,1.2v0.9
				C219.1,100.8,218.6,101.3,217.9,101.3z M217.9,95.7c-0.7,0-1.2-0.6-1.2-1.2v-0.9c0-0.7,0.6-1.2,1.2-1.2s1.2,0.6,1.2,1.2v0.9
				C219.1,95.1,218.6,95.7,217.9,95.7z M217.9,90.1c-0.7,0-1.2-0.6-1.2-1.2v-0.9c0-0.7,0.6-1.2,1.2-1.2s1.2,0.6,1.2,1.2v0.9
				C219.1,89.5,218.6,90.1,217.9,90.1z M217.9,84.4c-0.7,0-1.2-0.6-1.2-1.2v-0.9c0-0.7,0.6-1.2,1.2-1.2s1.2,0.6,1.2,1.2v0.9
				C219.1,83.9,218.6,84.4,217.9,84.4z M217.9,78.8c-0.7,0-1.2-0.6-1.2-1.2v-0.9c0-0.7,0.6-1.2,1.2-1.2s1.2,0.6,1.2,1.2v0.9
				C219.1,78.2,218.6,78.8,217.9,78.8z M217.9,73.2c-0.7,0-1.2-0.6-1.2-1.2V71c0-0.7,0.6-1.2,1.2-1.2s1.2,0.6,1.2,1.2v0.9
				C219.1,72.6,218.6,73.2,217.9,73.2z M217.9,67.5c-0.7,0-1.2-0.6-1.2-1.2v-0.9c0-0.7,0.6-1.2,1.2-1.2s1.2,0.6,1.2,1.2v0.9
				C219.1,67,218.6,67.5,217.9,67.5z M217.9,61.9c-0.7,0-1.2-0.6-1.2-1.2v-0.9c0-0.7,0.6-1.2,1.2-1.2s1.2,0.6,1.2,1.2v0.9
				C219.1,61.4,218.6,61.9,217.9,61.9z"/>
		</g>
		<g>
			<path style="fill:#0A2E3D;" d="M217.9,134.7c-0.7,0-1.2-0.6-1.2-1.2v-0.5c0-0.7,0.6-1.2,1.2-1.2s1.2,0.6,1.2,1.2v0.5
				C219.1,134.1,218.6,134.7,217.9,134.7z"/>
		</g>
	</g>
</g>
</svg>
