<?xml version="1.0" encoding="utf-8"?>
<!-- Generator: Adobe Illustrator 18.0.0, SVG Export Plug-In . SVG Version: 6.00 Build 0)  -->
<!DOCTYPE svg PUBLIC "-//W3C//DTD SVG 1.1//EN" "http://www.w3.org/Graphics/SVG/1.1/DTD/svg11.dtd">
<svg version="1.1" id="Layer_1" xmlns="http://www.w3.org/2000/svg" xmlns:xlink="http://www.w3.org/1999/xlink" x="0px" y="0px"
	 viewBox="0 0 287.8 320" style="enable-background:new 0 0 287.8 320;" xml:space="preserve">
<g>
	<g>
		<path style="fill:#6C8081;" d="M250.4,155.9c0.1-0.5,0.3-0.9,0.5-1.2s0.5-0.6,0.8-0.9c0.3-0.2,0.6-0.5,1-0.7
			c0.2-0.1,0.4-0.2,0.6-0.4c0.2-0.1,0.4-0.3,0.6-0.4c0.2-0.2,0.3-0.3,0.4-0.5s0.2-0.4,0.2-0.7c0-0.4-0.1-0.8-0.4-1
			c-0.3-0.2-0.6-0.3-0.9-0.3c-0.4,0-0.7,0.1-1,0.4c-0.3,0.2-0.4,0.6-0.4,1.2h-1.5c0-0.5,0.1-0.9,0.2-1.2s0.4-0.7,0.7-0.9
			c0.3-0.2,0.6-0.4,0.9-0.5c0.4-0.1,0.7-0.2,1.1-0.2c0.4,0,0.8,0.1,1.1,0.2c0.3,0.1,0.6,0.3,0.9,0.5c0.3,0.2,0.4,0.5,0.6,0.9
			c0.1,0.3,0.2,0.7,0.2,1.2c0,0.4-0.1,0.8-0.3,1.1c-0.2,0.3-0.4,0.6-0.7,0.9s-0.5,0.5-0.8,0.6c-0.3,0.2-0.5,0.3-0.6,0.4
			c-0.3,0.2-0.6,0.4-0.8,0.6c-0.2,0.2-0.4,0.3-0.5,0.5c-0.1,0.2-0.2,0.3-0.2,0.5s-0.1,0.4-0.1,0.6h4v1.3h-5.7
			C250.2,157,250.3,156.4,250.4,155.9z"/>
		<path style="fill:#6C8081;" d="M258.3,155.9c0.1-0.5,0.3-0.9,0.5-1.2s0.5-0.6,0.8-0.9c0.3-0.2,0.6-0.5,1-0.7
			c0.2-0.1,0.4-0.2,0.6-0.4c0.2-0.1,0.4-0.3,0.6-0.4c0.2-0.2,0.3-0.3,0.4-0.5s0.2-0.4,0.2-0.7c0-0.4-0.1-0.8-0.4-1
			c-0.3-0.2-0.6-0.3-0.9-0.3c-0.4,0-0.7,0.1-1,0.4c-0.3,0.2-0.4,0.6-0.4,1.2h-1.5c0-0.5,0.1-0.9,0.2-1.2s0.4-0.7,0.7-0.9
			c0.3-0.2,0.6-0.4,0.9-0.5c0.4-0.1,0.7-0.2,1.1-0.2c0.4,0,0.8,0.1,1.1,0.2c0.3,0.1,0.6,0.3,0.9,0.5c0.3,0.2,0.4,0.5,0.6,0.9
			c0.1,0.3,0.2,0.7,0.2,1.2c0,0.4-0.1,0.8-0.3,1.1c-0.2,0.3-0.4,0.6-0.7,0.9s-0.5,0.5-0.8,0.6c-0.3,0.2-0.5,0.3-0.6,0.4
			c-0.3,0.2-0.6,0.4-0.8,0.6c-0.2,0.2-0.4,0.3-0.5,0.5c-0.1,0.2-0.2,0.3-0.2,0.5s-0.1,0.4-0.1,0.6h4v1.3h-5.7
			C258.1,157,258.2,156.4,258.3,155.9z"/>
		<path style="fill:#6C8081;" d="M266.4,151.9v-1.7c0-0.2,0-0.5,0.1-0.7c0.1-0.2,0.2-0.4,0.4-0.6c0.2-0.2,0.4-0.3,0.6-0.4
			c0.2-0.1,0.5-0.1,0.8-0.1c0.3,0,0.6,0,0.8,0.1c0.2,0.1,0.4,0.2,0.6,0.4c0.2,0.2,0.3,0.4,0.4,0.6c0.1,0.2,0.1,0.4,0.1,0.7v1.7
			c0,0.2,0,0.5-0.1,0.7s-0.2,0.4-0.4,0.6c-0.2,0.2-0.4,0.3-0.6,0.4c-0.2,0.1-0.5,0.1-0.8,0.1c-0.3,0-0.6,0-0.8-0.1
			c-0.2-0.1-0.4-0.2-0.6-0.4c-0.2-0.2-0.3-0.3-0.4-0.6C266.5,152.4,266.4,152.1,266.4,151.9z M269.1,150.3c0-0.2-0.1-0.4-0.2-0.6
			c-0.1-0.2-0.3-0.2-0.6-0.2c-0.2,0-0.4,0.1-0.5,0.2c-0.1,0.2-0.2,0.4-0.2,0.6v1.7c0,0.2,0.1,0.4,0.2,0.6s0.3,0.2,0.5,0.2
			c0.2,0,0.4-0.1,0.6-0.2s0.2-0.4,0.2-0.6V150.3z M273.7,147.9l1.1,0.7l-5.7,9.8l-1.1-0.7L273.7,147.9z M276.7,156
			c0,0.2,0,0.5-0.1,0.7c-0.1,0.2-0.2,0.4-0.4,0.6c-0.2,0.2-0.4,0.3-0.6,0.4c-0.2,0.1-0.5,0.1-0.8,0.1s-0.6,0-0.8-0.1
			c-0.2-0.1-0.4-0.2-0.6-0.4c-0.2-0.2-0.3-0.3-0.4-0.6c-0.1-0.2-0.1-0.4-0.1-0.7v-1.7c0-0.2,0-0.5,0.1-0.7c0.1-0.2,0.2-0.4,0.4-0.6
			c0.2-0.2,0.4-0.3,0.6-0.4s0.5-0.1,0.8-0.1s0.6,0,0.8,0.1s0.4,0.2,0.6,0.4c0.2,0.2,0.3,0.4,0.4,0.6s0.1,0.4,0.1,0.7V156z M274,156
			c0,0.2,0.1,0.4,0.2,0.6s0.3,0.2,0.5,0.2c0.2,0,0.4-0.1,0.6-0.2s0.2-0.4,0.2-0.6v-1.7c0-0.2-0.1-0.4-0.2-0.6s-0.3-0.2-0.6-0.2
			c-0.2,0-0.4,0.1-0.5,0.2s-0.2,0.4-0.2,0.6V156z"/>
	</g>
	<g>
		<g>
			<polyline style="fill:#B6C3C9;" points="30.6,266.1 30.6,209 68.8,209 68.8,266.1 			"/>
			<path style="fill:#0A2E3D;" d="M68.8,267.3c-0.7,0-1.2-0.6-1.2-1.2v-55.8H31.8v55.8c0,0.7-0.6,1.2-1.2,1.2s-1.2-0.6-1.2-1.2v-57
				c0-0.7,0.6-1.2,1.2-1.2h38.2c0.7,0,1.2,0.6,1.2,1.2v57C70,266.8,69.4,267.3,68.8,267.3z"/>
		</g>
	</g>
	<g>
		<polyline style="fill:#B6C3C9;" points="80.3,266.1 80.3,193.2 118.5,193.2 118.5,266.1 		"/>
		<path style="fill:#0A2E3D;" d="M118.5,267.3c-0.7,0-1.2-0.6-1.2-1.2v-71.7H81.6v71.7c0,0.7-0.6,1.2-1.2,1.2s-1.2-0.6-1.2-1.2
			v-72.9c0-0.7,0.6-1.2,1.2-1.2h38.2c0.7,0,1.2,0.6,1.2,1.2v72.9C119.7,266.8,119.2,267.3,118.5,267.3z"/>
	</g>
	<g>
		<polyline style="fill:#DCE2E4;" points="130,266.1 130,124.2 168.2,124.2 168.2,266.1 		"/>
		<path style="fill:#0A2E3D;" d="M168.2,267.3c-0.7,0-1.2-0.6-1.2-1.2V125.4h-35.7v140.7c0,0.7-0.6,1.2-1.2,1.2s-1.2-0.6-1.2-1.2
			V124.2c0-0.7,0.6-1.2,1.2-1.2h38.2c0.7,0,1.2,0.6,1.2,1.2v141.9C169.4,266.8,168.9,267.3,168.2,267.3z"/>
	</g>
	<g>
		<polyline style="fill:#DCE2E4;" points="217.9,88.4 217.9,266.1 179.7,266.1 179.7,88.4 		"/>
		<path style="fill:#0A2E3D;" d="M217.9,267.4h-38.2c-0.7,0-1.3-0.6-1.3-1.3V88.4c0-0.7,0.6-1.3,1.3-1.3s1.3,0.6,1.3,1.3v176.4h35.6
			V88.4c0-0.7,0.6-1.3,1.3-1.3s1.3,0.6,1.3,1.3v177.7C219.2,266.8,218.6,267.4,217.9,267.4z"/>
	</g>
	<g>
		<path style="fill:#6C8081;" d="M42.7,286.6c0,0.4-0.1,0.7-0.2,1.1c-0.1,0.3-0.3,0.6-0.5,0.9s-0.5,0.4-0.8,0.6
			c-0.3,0.1-0.7,0.2-1.1,0.2c-0.4,0-0.8-0.1-1.1-0.2c-0.3-0.1-0.6-0.3-0.8-0.6c-0.2-0.2-0.4-0.5-0.5-0.9c-0.1-0.3-0.2-0.7-0.2-1.1
			H39c0,0.5,0.1,0.8,0.3,1.1c0.2,0.3,0.5,0.4,0.9,0.4s0.7-0.1,0.9-0.4s0.3-0.7,0.3-1.1v-5.2h1.3V286.6z"/>
		<path style="fill:#6C8081;" d="M48.8,289.1l-0.3-1h-2.9l-0.3,1h-1.3l2.7-7.7h0.9l2.7,7.7H48.8z M47,283.5L46,287h2.1L47,283.5z"/>
		<path style="fill:#6C8081;" d="M56.3,286.9v-5.5h1.3v7.7h-1.4l-3-5.5v5.5h-1.3v-7.7h1.4L56.3,286.9z"/>
	</g>
	<g>
		<path style="fill:#6C8081;" d="M91.2,282.6v2.4h3.2v1.1h-3.2v3H90v-7.7h4.4v1.1H91.2z"/>
		<path style="fill:#6C8081;" d="M98,282.6v2.2h3.2v1.1H98v2.1h3.2v1.1h-4.4v-7.7h4.4v1.1H98z"/>
		<path style="fill:#6C8081;" d="M103.6,281.4h2.6c0.5,0,1,0.1,1.3,0.2c0.3,0.1,0.6,0.3,0.8,0.5c0.2,0.2,0.3,0.4,0.4,0.7
			c0.1,0.2,0.1,0.5,0.1,0.7c0,0.2,0,0.5-0.1,0.7c-0.1,0.2-0.2,0.4-0.3,0.5c-0.1,0.1-0.3,0.3-0.4,0.4s-0.3,0.2-0.5,0.2
			c0.1,0,0.3,0,0.4,0.1c0.2,0.1,0.3,0.2,0.5,0.3c0.1,0.1,0.3,0.3,0.4,0.5c0.1,0.2,0.2,0.5,0.2,0.8c0,0.2,0,0.4-0.1,0.7
			c-0.1,0.3-0.2,0.5-0.4,0.7s-0.4,0.4-0.8,0.6c-0.3,0.2-0.8,0.2-1.3,0.2h-2.6V281.4z M106.3,284.7c0.3,0,0.5,0,0.6-0.1
			c0.2-0.1,0.3-0.2,0.4-0.3s0.1-0.2,0.2-0.3s0-0.2,0-0.3c0-0.1,0-0.2,0-0.3c0-0.1-0.1-0.2-0.2-0.3c-0.1-0.1-0.2-0.2-0.4-0.3
			c-0.2-0.1-0.4-0.1-0.6-0.1h-1.4v2.1H106.3z M104.9,285.8v2.2h1.4c0.3,0,0.5,0,0.6-0.1c0.2-0.1,0.3-0.2,0.4-0.3
			c0.1-0.1,0.1-0.2,0.2-0.4c0-0.1,0-0.2,0-0.4c0-0.1,0-0.2,0-0.3c0-0.1-0.1-0.2-0.2-0.4c-0.1-0.1-0.2-0.2-0.4-0.3
			c-0.2-0.1-0.4-0.1-0.6-0.1H104.9z"/>
	</g>
	<g>
		<path style="fill:#6C8081;" d="M145.9,289.1h-1.3v-4.8l-1.9,4.8h-1l-1.9-4.8v4.8h-1.3v-7.7h1.2l2.5,5.7l2.5-5.7h1.2V289.1z"/>
		<path style="fill:#6C8081;" d="M152.5,289.1l-0.3-1h-2.9l-0.3,1h-1.3l2.7-7.7h0.9l2.7,7.7H152.5z M150.7,283.5l-1.1,3.5h2.1
			L150.7,283.5z"/>
		<path style="fill:#6C8081;" d="M155.6,281.4h2.8c0.4,0,0.8,0.1,1.1,0.2c0.3,0.1,0.6,0.3,0.9,0.6c0.2,0.2,0.4,0.5,0.6,0.9
			c0.1,0.3,0.2,0.7,0.2,1c0,0.3,0,0.5-0.1,0.8c-0.1,0.3-0.2,0.5-0.3,0.7c-0.1,0.2-0.3,0.4-0.5,0.6c-0.2,0.2-0.4,0.3-0.7,0.4l1.5,2.5
			h-1.4l-1.4-2.3h-1.3v2.3h-1.3V281.4z M158.3,285.7c0.2,0,0.4,0,0.6-0.1s0.3-0.2,0.5-0.3c0.1-0.1,0.2-0.3,0.3-0.5
			c0.1-0.2,0.1-0.4,0.1-0.6s0-0.4-0.1-0.6c-0.1-0.2-0.2-0.4-0.3-0.5c-0.1-0.1-0.3-0.3-0.5-0.3s-0.4-0.1-0.6-0.1h-1.5v3.1H158.3z"/>
	</g>
	<g>
		<path style="fill:#6C8081;" d="M193.2,289.1l-0.3-1H190l-0.3,1h-1.3l2.7-7.7h0.9l2.7,7.7H193.2z M191.5,283.5l-1.1,3.5h2.1
			L191.5,283.5z"/>
		<path style="fill:#6C8081;" d="M196.3,281.4h2.8c0.4,0,0.8,0.1,1.1,0.2c0.3,0.1,0.6,0.3,0.9,0.6c0.2,0.2,0.4,0.5,0.6,0.9
			c0.1,0.3,0.2,0.7,0.2,1c0,0.4-0.1,0.7-0.2,1c-0.1,0.3-0.3,0.6-0.6,0.9c-0.2,0.2-0.5,0.4-0.9,0.6c-0.3,0.1-0.7,0.2-1.1,0.2h-1.5
			v2.3h-1.3V281.4z M199,285.7c0.2,0,0.4,0,0.6-0.1s0.3-0.2,0.5-0.3c0.1-0.1,0.2-0.3,0.3-0.5c0.1-0.2,0.1-0.4,0.1-0.6s0-0.4-0.1-0.6
			c-0.1-0.2-0.2-0.4-0.3-0.5c-0.1-0.1-0.3-0.3-0.5-0.3s-0.4-0.1-0.6-0.1h-1.5v3.1H199z"/>
		<path style="fill:#6C8081;" d="M203.7,281.4h2.8c0.4,0,0.8,0.1,1.1,0.2c0.3,0.1,0.6,0.3,0.9,0.6c0.2,0.2,0.4,0.5,0.6,0.9
			c0.1,0.3,0.2,0.7,0.2,1c0,0.3,0,0.5-0.1,0.8c-0.1,0.3-0.2,0.5-0.3,0.7c-0.1,0.2-0.3,0.4-0.5,0.6c-0.2,0.2-0.4,0.3-0.7,0.4l1.5,2.5
			h-1.4l-1.4-2.3H205v2.3h-1.3V281.4z M206.5,285.7c0.2,0,0.4,0,0.6-0.1s0.3-0.2,0.5-0.3c0.1-0.1,0.2-0.3,0.3-0.5
			c0.1-0.2,0.1-0.4,0.1-0.6s0-0.4-0.1-0.6c-0.1-0.2-0.2-0.4-0.3-0.5c-0.1-0.1-0.3-0.3-0.5-0.3s-0.4-0.1-0.6-0.1H205v3.1H206.5z"/>
	</g>
	<g>
		<path style="fill:#0A2E3D;" d="M234.6,267.3H10.4c-0.7,0-1.2-0.6-1.2-1.2s0.6-1.2,1.2-1.2h224.2c0.7,0,1.2,0.6,1.2,1.2
			S235.3,267.3,234.6,267.3z"/>
	</g>
	<g>
		<path style="fill:#FFFFFF;" d="M12.2,252.9H10v-7h2c19-1.2,37.4-3.1,52.3-12.3c13.6-8.4,24.3-22.3,34.6-35.6
			c8.4-10.8,17-22.1,27.4-30.7c12.6-10.5,33.8-17.7,52.6-17.8h60.7v7H179c-17.3,0.1-36.7,6.6-48.2,16.1c-9.8,8.1-18.2,19-26.3,29.6
			c-10.7,13.9-21.8,28.2-36.5,37.3c-16.3,10.1-35.7,12.1-55.7,13.4L12.2,252.9z"/>
	</g>
	<g>
		<path style="fill:#0A2E3D;" d="M10,250.4c-0.6,0-1-0.4-1-1s0.4-1,1-1h2.1c19.4-1.2,38.1-3.1,53.5-12.7c14-8.7,24.8-22.7,35.3-36.2
			c8.3-10.7,16.9-21.8,27-30.3c12.2-10.2,32.7-17.1,51.1-17.2h60.6c0.6,0,1,0.4,1,1s-0.4,1-1,1H179c-17.9,0.1-37.9,6.8-49.8,16.7
			c-10,8.3-18.5,19.3-26.7,30c-10.6,13.7-21.5,27.9-35.8,36.7c-15.8,9.8-34.8,11.7-54.5,13L10,250.4z"/>
	</g>
	<g>
		<path style="fill:#0A2E3D;" d="M233.2,159.4c-0.3,0-0.6-0.1-0.8-0.4c-0.3-0.4-0.3-1.1,0.2-1.4l5.8-4.6l-5.8-4.6
			c-0.4-0.3-0.5-1-0.2-1.4s1-0.5,1.4-0.2l6.8,5.4c0.2,0.2,0.4,0.5,0.4,0.8s-0.1,0.6-0.4,0.8l-6.8,5.4
			C233.7,159.4,233.4,159.4,233.2,159.4z"/>
	</g>
	<g>
		<g>
			<path style="fill:#0A2E3D;" d="M179.7,107.4c-0.7,0-1.2-0.6-1.2-1.2v-0.5c0-0.7,0.6-1.2,1.2-1.2s1.2,0.6,1.2,1.2v0.5
				C181,106.8,180.4,107.4,179.7,107.4z"/>
		</g>
		<g>
			<path style="fill:#0A2E3D;" d="M179.7,102.2c-0.7,0-1.2-0.6-1.2-1.2V100c0-0.7,0.6-1.2,1.2-1.2s1.2,0.6,1.2,1.2v0.9
				C181,101.6,180.4,102.2,179.7,102.2z M179.7,96.6c-0.7,0-1.2-0.6-1.2-1.2v-0.9c0-0.7,0.6-1.2,1.2-1.2s1.2,0.6,1.2,1.2v0.9
				C181,96,180.4,96.6,179.7,96.6z M179.7,90.9c-0.7,0-1.2-0.6-1.2-1.2v-0.9c0-0.7,0.6-1.2,1.2-1.2s1.2,0.6,1.2,1.2v0.9
				C181,90.4,180.4,90.9,179.7,90.9z M179.7,85.3c-0.7,0-1.2-0.6-1.2-1.2v-0.9c0-0.7,0.6-1.2,1.2-1.2s1.2,0.6,1.2,1.2v0.9
				C181,84.7,180.4,85.3,179.7,85.3z M179.7,79.7c-0.7,0-1.2-0.6-1.2-1.2v-0.9c0-0.7,0.6-1.2,1.2-1.2s1.2,0.6,1.2,1.2v0.9
				C181,79.1,180.4,79.7,179.7,79.7z M179.7,74c-0.7,0-1.2-0.6-1.2-1.2v-0.9c0-0.7,0.6-1.2,1.2-1.2s1.2,0.6,1.2,1.2v0.9
				C181,73.5,180.4,74,179.7,74z M179.7,68.4c-0.7,0-1.2-0.6-1.2-1.2v-0.9c0-0.7,0.6-1.2,1.2-1.2s1.2,0.6,1.2,1.2v0.9
				C181,67.8,180.4,68.4,179.7,68.4z M179.7,62.8c-0.7,0-1.2-0.6-1.2-1.2v-0.9c0-0.7,0.6-1.2,1.2-1.2s1.2,0.6,1.2,1.2v0.9
				C181,62.2,180.4,62.8,179.7,62.8z M179.7,57.1c-0.7,0-1.2-0.6-1.2-1.2V55c0-0.7,0.6-1.2,1.2-1.2s1.2,0.6,1.2,1.2v0.9
				C181,56.6,180.4,57.1,179.7,57.1z M179.7,51.5c-0.7,0-1.2-0.6-1.2-1.2v-0.9c0-0.7,0.6-1.2,1.2-1.2s1.2,0.6,1.2,1.2v0.9
				C181,50.9,180.4,51.5,179.7,51.5z M179.7,45.9c-0.7,0-1.2-0.6-1.2-1.2v-0.9c0-0.7,0.6-1.2,1.2-1.2s1.2,0.6,1.2,1.2v0.9
				C181,45.3,180.4,45.9,179.7,45.9z M179.7,40.2c-0.7,0-1.2-0.6-1.2-1.2v-0.9c0-0.7,0.6-1.2,1.2-1.2s1.2,0.6,1.2,1.2V39
				C181,39.7,180.4,40.2,179.7,40.2z M179.7,34.6c-0.7,0-1.2-0.6-1.2-1.2v-0.9c0-0.7,0.6-1.2,1.2-1.2s1.2,0.6,1.2,1.2v0.9
				C181,34.1,180.4,34.6,179.7,34.6z"/>
		</g>
		<g>
			<path style="fill:#0A2E3D;" d="M179.7,29c-0.7,0-1.2-0.6-1.2-1.2v-0.5c0-0.7,0.6-1.2,1.2-1.2h0.5c0.7,0,1.2,0.6,1.2,1.2
				c0,0.5-0.3,0.9-0.6,1.1C180.6,28.7,180.2,29,179.7,29z"/>
		</g>
		<g>
			<path style="fill:#0A2E3D;" d="M212.9,28.5H212c-0.7,0-1.2-0.6-1.2-1.2s0.6-1.2,1.2-1.2h0.9c0.7,0,1.2,0.6,1.2,1.2
				S213.6,28.5,212.9,28.5z M207.4,28.5h-0.9c-0.7,0-1.2-0.6-1.2-1.2s0.6-1.2,1.2-1.2h0.9c0.7,0,1.2,0.6,1.2,1.2
				S208.1,28.5,207.4,28.5z M202,28.5h-0.9c-0.7,0-1.2-0.6-1.2-1.2s0.6-1.2,1.2-1.2h0.9c0.7,0,1.2,0.6,1.2,1.2S202.7,28.5,202,28.5z
				 M196.5,28.5h-0.9c-0.7,0-1.2-0.6-1.2-1.2s0.6-1.2,1.2-1.2h0.9c0.7,0,1.2,0.6,1.2,1.2S197.2,28.5,196.5,28.5z M191.1,28.5h-0.9
				c-0.7,0-1.2-0.6-1.2-1.2s0.6-1.2,1.2-1.2h0.9c0.7,0,1.2,0.6,1.2,1.2S191.8,28.5,191.1,28.5z M185.6,28.5h-0.9
				c-0.7,0-1.2-0.6-1.2-1.2s0.6-1.2,1.2-1.2h0.9c0.7,0,1.2,0.6,1.2,1.2S186.3,28.5,185.6,28.5z"/>
		</g>
		<g>
			<path style="fill:#0A2E3D;" d="M217.9,29c-0.5,0-0.9-0.3-1.1-0.6c-0.4-0.2-0.6-0.6-0.6-1.1c0-0.7,0.6-1.2,1.2-1.2h0.5
				c0.7,0,1.2,0.6,1.2,1.2v0.5C219.1,28.4,218.6,29,217.9,29z"/>
		</g>
		<g>
			<path style="fill:#0A2E3D;" d="M217.9,102.2c-0.7,0-1.2-0.6-1.2-1.2V100c0-0.7,0.6-1.2,1.2-1.2s1.2,0.6,1.2,1.2v0.9
				C219.1,101.6,218.6,102.2,217.9,102.2z M217.9,96.6c-0.7,0-1.2-0.6-1.2-1.2v-0.9c0-0.7,0.6-1.2,1.2-1.2s1.2,0.6,1.2,1.2v0.9
				C219.1,96,218.6,96.6,217.9,96.6z M217.9,90.9c-0.7,0-1.2-0.6-1.2-1.2v-0.9c0-0.7,0.6-1.2,1.2-1.2s1.2,0.6,1.2,1.2v0.9
				C219.1,90.4,218.6,90.9,217.9,90.9z M217.9,85.3c-0.7,0-1.2-0.6-1.2-1.2v-0.9c0-0.7,0.6-1.2,1.2-1.2s1.2,0.6,1.2,1.2v0.9
				C219.1,84.7,218.6,85.3,217.9,85.3z M217.9,79.7c-0.7,0-1.2-0.6-1.2-1.2v-0.9c0-0.7,0.6-1.2,1.2-1.2s1.2,0.6,1.2,1.2v0.9
				C219.1,79.1,218.6,79.7,217.9,79.7z M217.9,74c-0.7,0-1.2-0.6-1.2-1.2v-0.9c0-0.7,0.6-1.2,1.2-1.2s1.2,0.6,1.2,1.2v0.9
				C219.1,73.5,218.6,74,217.9,74z M217.9,68.4c-0.7,0-1.2-0.6-1.2-1.2v-0.9c0-0.7,0.6-1.2,1.2-1.2s1.2,0.6,1.2,1.2v0.9
				C219.1,67.8,218.6,68.4,217.9,68.4z M217.9,62.8c-0.7,0-1.2-0.6-1.2-1.2v-0.9c0-0.7,0.6-1.2,1.2-1.2s1.2,0.6,1.2,1.2v0.9
				C219.1,62.2,218.6,62.8,217.9,62.8z M217.9,57.1c-0.7,0-1.2-0.6-1.2-1.2V55c0-0.7,0.6-1.2,1.2-1.2s1.2,0.6,1.2,1.2v0.9
				C219.1,56.6,218.6,57.1,217.9,57.1z M217.9,51.5c-0.7,0-1.2-0.6-1.2-1.2v-0.9c0-0.7,0.6-1.2,1.2-1.2s1.2,0.6,1.2,1.2v0.9
				C219.1,50.9,218.6,51.5,217.9,51.5z M217.9,45.9c-0.7,0-1.2-0.6-1.2-1.2v-0.9c0-0.7,0.6-1.2,1.2-1.2s1.2,0.6,1.2,1.2v0.9
				C219.1,45.3,218.6,45.9,217.9,45.9z M217.9,40.2c-0.7,0-1.2-0.6-1.2-1.2v-0.9c0-0.7,0.6-1.2,1.2-1.2s1.2,0.6,1.2,1.2V39
				C219.1,39.7,218.6,40.2,217.9,40.2z M217.9,34.6c-0.7,0-1.2-0.6-1.2-1.2v-0.9c0-0.7,0.6-1.2,1.2-1.2s1.2,0.6,1.2,1.2v0.9
				C219.1,34.1,218.6,34.6,217.9,34.6z"/>
		</g>
		<g>
			<path style="fill:#0A2E3D;" d="M217.9,107.4c-0.7,0-1.2-0.6-1.2-1.2v-0.5c0-0.7,0.6-1.2,1.2-1.2s1.2,0.6,1.2,1.2v0.5
				C219.1,106.8,218.6,107.4,217.9,107.4z"/>
		</g>
	</g>
</g>
</svg>
