<?xml version="1.0" encoding="utf-8"?>
<!-- Generator: Adobe Illustrator 18.0.0, SVG Export Plug-In . SVG Version: 6.00 Build 0)  -->
<!DOCTYPE svg PUBLIC "-//W3C//DTD SVG 1.1//EN" "http://www.w3.org/Graphics/SVG/1.1/DTD/svg11.dtd">
<svg version="1.1" id="Layer_1" xmlns="http://www.w3.org/2000/svg" xmlns:xlink="http://www.w3.org/1999/xlink" x="0px" y="0px"
	 viewBox="0 0 287.8 374.6" style="enable-background:new 0 0 287.8 374.6;" xml:space="preserve">
<g>
	<g>
		<path style="fill:#6C8081;" d="M243.7,182.2v-2h-1.9v-1.3h1.9v-2h1.4v2h1.9v1.3h-1.9v2H243.7z"/>
		<path style="fill:#6C8081;" d="M251.1,181.1c0,0.3,0,0.6,0.1,0.8c0.1,0.2,0.2,0.4,0.4,0.6c0.2,0.2,0.3,0.3,0.6,0.4
			c0.2,0.1,0.4,0.1,0.7,0.1c0.2,0,0.4,0,0.6-0.1s0.4-0.2,0.5-0.3s0.2-0.3,0.3-0.5c0.1-0.2,0.1-0.4,0.1-0.5c0-0.2,0-0.4-0.1-0.6
			c-0.1-0.2-0.1-0.3-0.3-0.5c-0.1-0.1-0.3-0.2-0.5-0.3s-0.5-0.1-0.8-0.1h-0.6v-1.3h0.6c0.5,0,0.9-0.1,1.1-0.4s0.3-0.6,0.3-1
			c0-0.4-0.1-0.7-0.4-0.9s-0.5-0.3-0.9-0.3c-0.5,0-0.9,0.1-1.1,0.4c-0.2,0.3-0.3,0.6-0.3,1.1h-1.5c0-0.4,0.1-0.8,0.2-1.2
			c0.1-0.3,0.3-0.6,0.6-0.9c0.3-0.3,0.5-0.4,0.9-0.6s0.7-0.2,1.1-0.2c0.4,0,0.8,0.1,1.1,0.2c0.4,0.1,0.7,0.3,0.9,0.5
			c0.3,0.2,0.5,0.5,0.6,0.8c0.2,0.3,0.2,0.6,0.2,1c0,0.5-0.1,0.9-0.3,1.3c-0.2,0.3-0.5,0.6-0.9,0.7c0.4,0.2,0.8,0.4,1,0.8
			c0.3,0.3,0.4,0.8,0.4,1.4c0,0.4-0.1,0.8-0.2,1.1c-0.2,0.3-0.4,0.6-0.7,0.9c-0.3,0.2-0.6,0.4-1,0.6c-0.4,0.1-0.8,0.2-1.2,0.2
			s-0.8-0.1-1.2-0.2c-0.4-0.1-0.7-0.4-1-0.6c-0.3-0.3-0.5-0.6-0.7-1s-0.3-0.8-0.3-1.4H251.1z"/>
		<path style="fill:#6C8081;" d="M258.2,178c0-0.4,0.1-0.8,0.2-1.2c0.2-0.4,0.4-0.7,0.6-1c0.3-0.3,0.6-0.5,1-0.7
			c0.4-0.2,0.8-0.3,1.3-0.3s0.9,0.1,1.3,0.3s0.7,0.4,1,0.7c0.3,0.3,0.5,0.6,0.6,1s0.2,0.8,0.2,1.2v3c0,0.4-0.1,0.8-0.2,1.2
			c-0.2,0.4-0.4,0.7-0.6,1c-0.3,0.3-0.6,0.5-1,0.7s-0.8,0.3-1.3,0.3s-0.9-0.1-1.3-0.3c-0.4-0.2-0.7-0.4-1-0.7s-0.5-0.6-0.6-1
			c-0.2-0.4-0.2-0.8-0.2-1.2V178z M259.7,181.1c0,0.2,0,0.4,0.1,0.7l2.3-5.4c-0.2-0.1-0.5-0.2-0.7-0.2c-0.3,0-0.5,0-0.7,0.1
			s-0.4,0.2-0.5,0.4c-0.1,0.2-0.3,0.4-0.3,0.6c-0.1,0.2-0.1,0.5-0.1,0.7V181.1z M263.1,178c0-0.1,0-0.2,0-0.3c0-0.1,0-0.2,0-0.3
			l-2.3,5.3c0.2,0.1,0.4,0.1,0.6,0.1c0.3,0,0.5,0,0.7-0.1c0.2-0.1,0.4-0.2,0.5-0.4s0.3-0.4,0.3-0.6c0.1-0.2,0.1-0.5,0.1-0.7V178z"/>
		<path style="fill:#6C8081;" d="M267.3,178.3v-1.7c0-0.2,0-0.5,0.1-0.7c0.1-0.2,0.2-0.4,0.4-0.6c0.2-0.2,0.4-0.3,0.6-0.4
			c0.2-0.1,0.5-0.1,0.8-0.1c0.3,0,0.6,0,0.8,0.1c0.2,0.1,0.4,0.2,0.6,0.4c0.2,0.2,0.3,0.4,0.4,0.6c0.1,0.2,0.1,0.4,0.1,0.7v1.7
			c0,0.2,0,0.5-0.1,0.7s-0.2,0.4-0.4,0.6c-0.2,0.2-0.4,0.3-0.6,0.4c-0.2,0.1-0.5,0.1-0.8,0.1c-0.3,0-0.6,0-0.8-0.1
			c-0.2-0.1-0.4-0.2-0.6-0.4c-0.2-0.2-0.3-0.3-0.4-0.6C267.3,178.8,267.3,178.6,267.3,178.3z M269.9,176.7c0-0.2-0.1-0.4-0.2-0.6
			c-0.1-0.2-0.3-0.2-0.6-0.2c-0.2,0-0.4,0.1-0.5,0.2c-0.1,0.2-0.2,0.4-0.2,0.6v1.7c0,0.2,0.1,0.4,0.2,0.6s0.3,0.2,0.5,0.2
			c0.2,0,0.4-0.1,0.6-0.2s0.2-0.4,0.2-0.6V176.7z M274.5,174.3l1.1,0.7l-5.7,9.8l-1.1-0.7L274.5,174.3z M277.5,182.4
			c0,0.2,0,0.5-0.1,0.7c-0.1,0.2-0.2,0.4-0.4,0.6c-0.2,0.2-0.4,0.3-0.6,0.4c-0.2,0.1-0.5,0.1-0.8,0.1s-0.6,0-0.8-0.1
			c-0.2-0.1-0.4-0.2-0.6-0.4c-0.2-0.2-0.3-0.3-0.4-0.6c-0.1-0.2-0.1-0.4-0.1-0.7v-1.7c0-0.2,0-0.5,0.1-0.7c0.1-0.2,0.2-0.4,0.4-0.6
			c0.2-0.2,0.4-0.3,0.6-0.4s0.5-0.1,0.8-0.1s0.6,0,0.8,0.1s0.4,0.2,0.6,0.4c0.2,0.2,0.3,0.4,0.4,0.6c0.1,0.2,0.1,0.4,0.1,0.7V182.4z
			 M274.8,182.4c0,0.2,0.1,0.4,0.2,0.6s0.3,0.2,0.5,0.2c0.2,0,0.4-0.1,0.6-0.2s0.2-0.4,0.2-0.6v-1.7c0-0.2-0.1-0.4-0.2-0.6
			s-0.3-0.2-0.6-0.2c-0.2,0-0.4,0.1-0.5,0.2s-0.2,0.4-0.2,0.6V182.4z"/>
		<path style="fill:#6C8081;" d="M282.4,181.7c0-0.3,0-0.5,0-0.8c0-0.2,0.1-0.5,0.1-0.7c0.1-0.2,0.2-0.4,0.3-0.6s0.3-0.3,0.5-0.5
			c0.1-0.1,0.3-0.2,0.4-0.3c0.1-0.1,0.3-0.2,0.4-0.4c0.1-0.1,0.2-0.3,0.3-0.5c0.1-0.2,0.1-0.4,0.1-0.6c0-0.4-0.1-0.7-0.4-0.9
			s-0.6-0.3-1-0.3c-0.2,0-0.4,0-0.5,0.1c-0.2,0.1-0.3,0.1-0.4,0.3c-0.1,0.1-0.2,0.3-0.3,0.5c-0.1,0.2-0.1,0.4-0.1,0.7h-1.5
			c0-0.5,0.1-0.9,0.2-1.2s0.4-0.7,0.6-0.9s0.6-0.4,0.9-0.5s0.7-0.2,1.1-0.2c0.4,0,0.8,0.1,1.1,0.2c0.3,0.1,0.6,0.3,0.9,0.5
			c0.3,0.2,0.5,0.5,0.6,0.8c0.2,0.3,0.2,0.7,0.2,1.1c0,0.3,0,0.6-0.1,0.8c-0.1,0.2-0.2,0.5-0.4,0.6c-0.1,0.2-0.3,0.3-0.5,0.5
			s-0.3,0.3-0.4,0.4c-0.2,0.2-0.4,0.3-0.5,0.4c-0.1,0.1-0.2,0.3-0.3,0.4c-0.1,0.1-0.1,0.3-0.1,0.5c0,0.2,0,0.4,0,0.6H282.4z
			 M282,183.2c0-0.1,0-0.3,0.1-0.4c0.1-0.1,0.1-0.3,0.2-0.4s0.2-0.2,0.3-0.2s0.3-0.1,0.4-0.1c0.2,0,0.3,0,0.4,0.1
			c0.1,0.1,0.3,0.1,0.4,0.2s0.2,0.2,0.2,0.4c0.1,0.1,0.1,0.3,0.1,0.4s0,0.3-0.1,0.4c-0.1,0.1-0.1,0.3-0.2,0.4s-0.2,0.2-0.4,0.2
			c-0.1,0.1-0.3,0.1-0.4,0.1c-0.2,0-0.3,0-0.4-0.1s-0.2-0.1-0.3-0.2s-0.2-0.2-0.2-0.4C282,183.5,282,183.4,282,183.2z"/>
	</g>
	<g>
		<g>
			<polyline style="fill:#B6C3C9;" points="21.6,292.5 21.6,235.5 59.7,235.5 59.7,292.5 			"/>
			<path style="fill:#0A2E3D;" d="M59.7,293.8c-0.7,0-1.2-0.6-1.2-1.2v-55.8H22.8v55.8c0,0.7-0.6,1.2-1.2,1.2s-1.2-0.6-1.2-1.2v-57
				c0-0.7,0.6-1.2,1.2-1.2h38.2c0.7,0,1.2,0.6,1.2,1.2v57C61,293.2,60.4,293.8,59.7,293.8z"/>
		</g>
	</g>
	<g>
		<polyline style="fill:#B6C3C9;" points="71.3,292.5 71.3,219.6 109.5,219.6 109.5,292.5 		"/>
		<path style="fill:#0A2E3D;" d="M109.5,293.8c-0.7,0-1.2-0.6-1.2-1.2v-71.7H72.6v71.7c0,0.7-0.6,1.2-1.2,1.2s-1.2-0.6-1.2-1.2
			v-72.9c0-0.7,0.6-1.2,1.2-1.2h38.2c0.7,0,1.2,0.6,1.2,1.2v72.9C110.7,293.2,110.1,293.8,109.5,293.8z"/>
	</g>
	<g>
		<path style="fill:#0A2E3D;" d="M121,293.8c-0.7,0-1.2-0.6-1.2-1.2v-0.9c0-0.7,0.6-1.2,1.2-1.2s1.2,0.6,1.2,1.2v0.9
			C122.3,293.2,121.7,293.8,121,293.8z M159.2,289.8c-0.7,0-1.2-0.6-1.2-1.2v-0.9c0-0.7,0.6-1.2,1.2-1.2s1.2,0.6,1.2,1.2v0.9
			C160.4,289.3,159.9,289.8,159.2,289.8z M121,288.2c-0.7,0-1.2-0.6-1.2-1.2V286c0-0.7,0.6-1.2,1.2-1.2s1.2,0.6,1.2,1.2v0.9
			C122.3,287.6,121.7,288.2,121,288.2z M159.2,284.2c-0.7,0-1.2-0.6-1.2-1.2V282c0-0.7,0.6-1.2,1.2-1.2s1.2,0.6,1.2,1.2v0.9
			C160.4,283.7,159.9,284.2,159.2,284.2z M121,282.6c-0.7,0-1.2-0.6-1.2-1.2v-0.9c0-0.7,0.6-1.2,1.2-1.2s1.2,0.6,1.2,1.2v0.9
			C122.3,282,121.7,282.6,121,282.6z M159.2,278.6c-0.7,0-1.2-0.6-1.2-1.2v-0.9c0-0.7,0.6-1.2,1.2-1.2s1.2,0.6,1.2,1.2v0.9
			C160.4,278.1,159.9,278.6,159.2,278.6z M121,277c-0.7,0-1.2-0.6-1.2-1.2v-0.9c0-0.7,0.6-1.2,1.2-1.2s1.2,0.6,1.2,1.2v0.9
			C122.3,276.4,121.7,277,121,277z M159.2,273c-0.7,0-1.2-0.6-1.2-1.2v-0.9c0-0.7,0.6-1.2,1.2-1.2s1.2,0.6,1.2,1.2v0.9
			C160.4,272.5,159.9,273,159.2,273z M121,271.4c-0.7,0-1.2-0.6-1.2-1.2v-0.9c0-0.7,0.6-1.2,1.2-1.2s1.2,0.6,1.2,1.2v0.9
			C122.3,270.8,121.7,271.4,121,271.4z M159.2,267.5c-0.7,0-1.2-0.6-1.2-1.2v-0.9c0-0.7,0.6-1.2,1.2-1.2s1.2,0.6,1.2,1.2v0.9
			C160.4,266.9,159.9,267.5,159.2,267.5z M121,265.8c-0.7,0-1.2-0.6-1.2-1.2v-0.9c0-0.7,0.6-1.2,1.2-1.2s1.2,0.6,1.2,1.2v0.9
			C122.3,265.3,121.7,265.8,121,265.8z M159.2,261.9c-0.7,0-1.2-0.6-1.2-1.2v-0.9c0-0.7,0.6-1.2,1.2-1.2s1.2,0.6,1.2,1.2v0.9
			C160.4,261.3,159.9,261.9,159.2,261.9z M121,260.2c-0.7,0-1.2-0.6-1.2-1.2V258c0-0.7,0.6-1.2,1.2-1.2s1.2,0.6,1.2,1.2v0.9
			C122.3,259.7,121.7,260.2,121,260.2z M159.2,256.3c-0.7,0-1.2-0.6-1.2-1.2v-0.9c0-0.7,0.6-1.2,1.2-1.2s1.2,0.6,1.2,1.2v0.9
			C160.4,255.7,159.9,256.3,159.2,256.3z M121,254.6c-0.7,0-1.2-0.6-1.2-1.2v-0.9c0-0.7,0.6-1.2,1.2-1.2s1.2,0.6,1.2,1.2v0.9
			C122.3,254.1,121.7,254.6,121,254.6z M159.2,250.7c-0.7,0-1.2-0.6-1.2-1.2v-0.9c0-0.7,0.6-1.2,1.2-1.2s1.2,0.6,1.2,1.2v0.9
			C160.4,250.1,159.9,250.7,159.2,250.7z M121,249c-0.7,0-1.2-0.6-1.2-1.2v-0.9c0-0.7,0.6-1.2,1.2-1.2s1.2,0.6,1.2,1.2v0.9
			C122.3,248.5,121.7,249,121,249z M159.2,245.1c-0.7,0-1.2-0.6-1.2-1.2v-0.9c0-0.7,0.6-1.2,1.2-1.2s1.2,0.6,1.2,1.2v0.9
			C160.4,244.5,159.9,245.1,159.2,245.1z M121,243.5c-0.7,0-1.2-0.6-1.2-1.2v-0.9c0-0.7,0.6-1.2,1.2-1.2s1.2,0.6,1.2,1.2v0.9
			C122.3,242.9,121.7,243.5,121,243.5z M159.2,239.5c-0.7,0-1.2-0.6-1.2-1.2v-0.9c0-0.7,0.6-1.2,1.2-1.2s1.2,0.6,1.2,1.2v0.9
			C160.4,238.9,159.9,239.5,159.2,239.5z M121,237.9c-0.7,0-1.2-0.6-1.2-1.2v-0.9c0-0.7,0.6-1.2,1.2-1.2s1.2,0.6,1.2,1.2v0.9
			C122.3,237.3,121.7,237.9,121,237.9z M159.2,233.9c-0.7,0-1.2-0.6-1.2-1.2v-0.9c0-0.7,0.6-1.2,1.2-1.2s1.2,0.6,1.2,1.2v0.9
			C160.4,233.4,159.9,233.9,159.2,233.9z M121,232.3c-0.7,0-1.2-0.6-1.2-1.2v-0.9c0-0.7,0.6-1.2,1.2-1.2s1.2,0.6,1.2,1.2v0.9
			C122.3,231.7,121.7,232.3,121,232.3z M159.2,228.3c-0.7,0-1.2-0.6-1.2-1.2v-0.9c0-0.7,0.6-1.2,1.2-1.2s1.2,0.6,1.2,1.2v0.9
			C160.4,227.8,159.9,228.3,159.2,228.3z M121,226.7c-0.7,0-1.2-0.6-1.2-1.2v-0.9c0-0.7,0.6-1.2,1.2-1.2s1.2,0.6,1.2,1.2v0.9
			C122.3,226.1,121.7,226.7,121,226.7z M159.2,222.7c-0.7,0-1.2-0.6-1.2-1.2v-0.9c0-0.7,0.6-1.2,1.2-1.2s1.2,0.6,1.2,1.2v0.9
			C160.4,222.2,159.9,222.7,159.2,222.7z M121,221.1c-0.7,0-1.2-0.6-1.2-1.2v-0.9c0-0.7,0.6-1.2,1.2-1.2s1.2,0.6,1.2,1.2v0.9
			C122.3,220.5,121.7,221.1,121,221.1z M159.2,217.1c-0.7,0-1.2-0.6-1.2-1.2V215c0-0.7,0.6-1.2,1.2-1.2s1.2,0.6,1.2,1.2v0.9
			C160.4,216.6,159.9,217.1,159.2,217.1z M121,215.5c-0.7,0-1.2-0.6-1.2-1.2v-0.9c0-0.7,0.6-1.2,1.2-1.2s1.2,0.6,1.2,1.2v0.9
			C122.3,214.9,121.7,215.5,121,215.5z M159.2,211.5c-0.7,0-1.2-0.6-1.2-1.2v-0.9c0-0.7,0.6-1.2,1.2-1.2s1.2,0.6,1.2,1.2v0.9
			C160.4,211,159.9,211.5,159.2,211.5z M121,209.9c-0.7,0-1.2-0.6-1.2-1.2v-0.9c0-0.7,0.6-1.2,1.2-1.2s1.2,0.6,1.2,1.2v0.9
			C122.3,209.3,121.7,209.9,121,209.9z M159.2,206c-0.7,0-1.2-0.6-1.2-1.2v-0.9c0-0.7,0.6-1.2,1.2-1.2s1.2,0.6,1.2,1.2v0.9
			C160.4,205.4,159.9,206,159.2,206z M121,204.3c-0.7,0-1.2-0.6-1.2-1.2v-0.9c0-0.7,0.6-1.2,1.2-1.2s1.2,0.6,1.2,1.2v0.9
			C122.3,203.8,121.7,204.3,121,204.3z M159.2,200.4c-0.7,0-1.2-0.6-1.2-1.2v-0.9c0-0.7,0.6-1.2,1.2-1.2s1.2,0.6,1.2,1.2v0.9
			C160.4,199.8,159.9,200.4,159.2,200.4z M121,198.7c-0.7,0-1.2-0.6-1.2-1.2v-0.9c0-0.7,0.6-1.2,1.2-1.2s1.2,0.6,1.2,1.2v0.9
			C122.3,198.2,121.7,198.7,121,198.7z M159.2,194.8c-0.7,0-1.2-0.6-1.2-1.2v-0.9c0-0.7,0.6-1.2,1.2-1.2s1.2,0.6,1.2,1.2v0.9
			C160.4,194.2,159.9,194.8,159.2,194.8z M121,193.1c-0.7,0-1.2-0.6-1.2-1.2V191c0-0.7,0.6-1.2,1.2-1.2s1.2,0.6,1.2,1.2v0.9
			C122.3,192.6,121.7,193.1,121,193.1z M159.2,189.2c-0.7,0-1.2-0.6-1.2-1.2V187c0-0.7,0.6-1.2,1.2-1.2s1.2,0.6,1.2,1.2v0.9
			C160.4,188.6,159.9,189.2,159.2,189.2z M121,187.5c-0.7,0-1.2-0.6-1.2-1.2v-0.9c0-0.7,0.6-1.2,1.2-1.2s1.2,0.6,1.2,1.2v0.9
			C122.3,187,121.7,187.5,121,187.5z M159.2,183.6c-0.7,0-1.2-0.6-1.2-1.2v-0.9c0-0.7,0.6-1.2,1.2-1.2s1.2,0.6,1.2,1.2v0.9
			C160.4,183,159.9,183.6,159.2,183.6z M121,182c-0.7,0-1.2-0.6-1.2-1.2v-0.9c0-0.7,0.6-1.2,1.2-1.2s1.2,0.6,1.2,1.2v0.9
			C122.3,181.4,121.7,182,121,182z M159.2,178c-0.7,0-1.2-0.6-1.2-1.2v-0.9c0-0.7,0.6-1.2,1.2-1.2s1.2,0.6,1.2,1.2v0.9
			C160.4,177.4,159.9,178,159.2,178z M121,176.4c-0.7,0-1.2-0.6-1.2-1.2v-0.9c0-0.7,0.6-1.2,1.2-1.2s1.2,0.6,1.2,1.2v0.9
			C122.3,175.8,121.7,176.4,121,176.4z M159.2,172.4c-0.7,0-1.2-0.6-1.2-1.2v-0.9c0-0.7,0.6-1.2,1.2-1.2s1.2,0.6,1.2,1.2v0.9
			C160.4,171.8,159.9,172.4,159.2,172.4z M121,170.8c-0.7,0-1.2-0.6-1.2-1.2v-0.9c0-0.7,0.6-1.2,1.2-1.2s1.2,0.6,1.2,1.2v0.9
			C122.3,170.2,121.7,170.8,121,170.8z M159.2,166.8c-0.7,0-1.2-0.6-1.2-1.2v-0.9c0-0.7,0.6-1.2,1.2-1.2s1.2,0.6,1.2,1.2v0.9
			C160.4,166.3,159.9,166.8,159.2,166.8z M121,165.2c-0.7,0-1.2-0.6-1.2-1.2V163c0-0.7,0.6-1.2,1.2-1.2s1.2,0.6,1.2,1.2v0.9
			C122.3,164.6,121.7,165.2,121,165.2z M159.2,161.2c-0.7,0-1.2-0.6-1.2-1.2V159c0-0.7,0.6-1.2,1.2-1.2s1.2,0.6,1.2,1.2v0.9
			C160.4,160.7,159.9,161.2,159.2,161.2z M121,159.6c-0.7,0-1.2-0.6-1.2-1.2v-0.9c0-0.7,0.6-1.2,1.2-1.2s1.2,0.6,1.2,1.2v0.9
			C122.3,159,121.7,159.6,121,159.6z M159.2,155.6c-0.7,0-1.2-0.6-1.2-1.2v-0.9c0-0.7,0.6-1.2,1.2-1.2s1.2,0.6,1.2,1.2v0.9
			C160.4,155.1,159.9,155.6,159.2,155.6z M121,154c-0.7,0-1.2-0.6-1.2-1.2v-0.1c0-0.7,0.6-1.2,1.2-1.2h0.8c0.7,0,1.2,0.6,1.2,1.2
			s-0.6,1.2-1.2,1.2h-0.2C121.4,153.9,121.2,154,121,154z M155.4,153.9h-0.9c-0.7,0-1.2-0.6-1.2-1.2s0.6-1.2,1.2-1.2h0.9
			c0.7,0,1.2,0.6,1.2,1.2S156,153.9,155.4,153.9z M149.8,153.9h-0.9c-0.7,0-1.2-0.6-1.2-1.2s0.6-1.2,1.2-1.2h0.9
			c0.7,0,1.2,0.6,1.2,1.2S150.5,153.9,149.8,153.9z M144.2,153.9h-0.9c-0.7,0-1.2-0.6-1.2-1.2s0.6-1.2,1.2-1.2h0.9
			c0.7,0,1.2,0.6,1.2,1.2S144.9,153.9,144.2,153.9z M138.6,153.9h-0.9c-0.7,0-1.2-0.6-1.2-1.2s0.6-1.2,1.2-1.2h0.9
			c0.7,0,1.2,0.6,1.2,1.2S139.3,153.9,138.6,153.9z M133,153.9h-0.9c-0.7,0-1.2-0.6-1.2-1.2s0.6-1.2,1.2-1.2h0.9
			c0.7,0,1.2,0.6,1.2,1.2S133.7,153.9,133,153.9z M127.4,153.9h-0.9c-0.7,0-1.2-0.6-1.2-1.2s0.6-1.2,1.2-1.2h0.9
			c0.7,0,1.2,0.6,1.2,1.2S128.1,153.9,127.4,153.9z"/>
	</g>
	<g>
		<g>
			<path style="fill:#0A2E3D;" d="M170.7,293.8c-0.7,0-1.2-0.6-1.2-1.2v-0.5c0-0.7,0.6-1.2,1.2-1.2s1.2,0.6,1.2,1.2v0.5
				C172,293.2,171.4,293.8,170.7,293.8z"/>
		</g>
		<g>
			<path style="fill:#0A2E3D;" d="M170.7,288.6c-0.7,0-1.2-0.6-1.2-1.2v-0.9c0-0.7,0.6-1.2,1.2-1.2s1.2,0.6,1.2,1.2v0.9
				C172,288,171.4,288.6,170.7,288.6z M170.7,283c-0.7,0-1.2-0.6-1.2-1.2v-0.9c0-0.7,0.6-1.2,1.2-1.2s1.2,0.6,1.2,1.2v0.9
				C172,282.4,171.4,283,170.7,283z M170.7,277.3c-0.7,0-1.2-0.6-1.2-1.2v-0.9c0-0.7,0.6-1.2,1.2-1.2s1.2,0.6,1.2,1.2v0.9
				C172,276.8,171.4,277.3,170.7,277.3z M170.7,271.7c-0.7,0-1.2-0.6-1.2-1.2v-0.9c0-0.7,0.6-1.2,1.2-1.2s1.2,0.6,1.2,1.2v0.9
				C172,271.1,171.4,271.7,170.7,271.7z M170.7,266c-0.7,0-1.2-0.6-1.2-1.2v-0.9c0-0.7,0.6-1.2,1.2-1.2s1.2,0.6,1.2,1.2v0.9
				C172,265.5,171.4,266,170.7,266z M170.7,260.4c-0.7,0-1.2-0.6-1.2-1.2v-0.9c0-0.7,0.6-1.2,1.2-1.2s1.2,0.6,1.2,1.2v0.9
				C172,259.8,171.4,260.4,170.7,260.4z M170.7,254.7c-0.7,0-1.2-0.6-1.2-1.2v-0.9c0-0.7,0.6-1.2,1.2-1.2s1.2,0.6,1.2,1.2v0.9
				C172,254.2,171.4,254.7,170.7,254.7z M170.7,249.1c-0.7,0-1.2-0.6-1.2-1.2v-0.9c0-0.7,0.6-1.2,1.2-1.2s1.2,0.6,1.2,1.2v0.9
				C172,248.5,171.4,249.1,170.7,249.1z M170.7,243.4c-0.7,0-1.2-0.6-1.2-1.2v-0.9c0-0.7,0.6-1.2,1.2-1.2s1.2,0.6,1.2,1.2v0.9
				C172,242.9,171.4,243.4,170.7,243.4z M170.7,237.8c-0.7,0-1.2-0.6-1.2-1.2v-0.9c0-0.7,0.6-1.2,1.2-1.2s1.2,0.6,1.2,1.2v0.9
				C172,237.2,171.4,237.8,170.7,237.8z M170.7,232.2c-0.7,0-1.2-0.6-1.2-1.2V230c0-0.7,0.6-1.2,1.2-1.2s1.2,0.6,1.2,1.2v0.9
				C172,231.6,171.4,232.2,170.7,232.2z M170.7,226.5c-0.7,0-1.2-0.6-1.2-1.2v-0.9c0-0.7,0.6-1.2,1.2-1.2s1.2,0.6,1.2,1.2v0.9
				C172,225.9,171.4,226.5,170.7,226.5z M170.7,220.9c-0.7,0-1.2-0.6-1.2-1.2v-0.9c0-0.7,0.6-1.2,1.2-1.2s1.2,0.6,1.2,1.2v0.9
				C172,220.3,171.4,220.9,170.7,220.9z M170.7,215.2c-0.7,0-1.2-0.6-1.2-1.2V213c0-0.7,0.6-1.2,1.2-1.2s1.2,0.6,1.2,1.2v0.9
				C172,214.7,171.4,215.2,170.7,215.2z M170.7,209.6c-0.7,0-1.2-0.6-1.2-1.2v-0.9c0-0.7,0.6-1.2,1.2-1.2s1.2,0.6,1.2,1.2v0.9
				C172,209,171.4,209.6,170.7,209.6z M170.7,203.9c-0.7,0-1.2-0.6-1.2-1.2v-0.9c0-0.7,0.6-1.2,1.2-1.2s1.2,0.6,1.2,1.2v0.9
				C172,203.4,171.4,203.9,170.7,203.9z M170.7,198.3c-0.7,0-1.2-0.6-1.2-1.2v-0.9c0-0.7,0.6-1.2,1.2-1.2s1.2,0.6,1.2,1.2v0.9
				C172,197.7,171.4,198.3,170.7,198.3z M170.7,192.6c-0.7,0-1.2-0.6-1.2-1.2v-0.9c0-0.7,0.6-1.2,1.2-1.2s1.2,0.6,1.2,1.2v0.9
				C172,192.1,171.4,192.6,170.7,192.6z M170.7,187c-0.7,0-1.2-0.6-1.2-1.2v-0.9c0-0.7,0.6-1.2,1.2-1.2s1.2,0.6,1.2,1.2v0.9
				C172,186.4,171.4,187,170.7,187z M170.7,181.3c-0.7,0-1.2-0.6-1.2-1.2v-0.9c0-0.7,0.6-1.2,1.2-1.2s1.2,0.6,1.2,1.2v0.9
				C172,180.8,171.4,181.3,170.7,181.3z M170.7,175.7c-0.7,0-1.2-0.6-1.2-1.2v-0.9c0-0.7,0.6-1.2,1.2-1.2s1.2,0.6,1.2,1.2v0.9
				C172,175.1,171.4,175.7,170.7,175.7z M170.7,170.1c-0.7,0-1.2-0.6-1.2-1.2v-0.9c0-0.7,0.6-1.2,1.2-1.2s1.2,0.6,1.2,1.2v0.9
				C172,169.5,171.4,170.1,170.7,170.1z M170.7,164.4c-0.7,0-1.2-0.6-1.2-1.2v-0.9c0-0.7,0.6-1.2,1.2-1.2s1.2,0.6,1.2,1.2v0.9
				C172,163.8,171.4,164.4,170.7,164.4z M170.7,158.8c-0.7,0-1.2-0.6-1.2-1.2v-0.9c0-0.7,0.6-1.2,1.2-1.2s1.2,0.6,1.2,1.2v0.9
				C172,158.2,171.4,158.8,170.7,158.8z M170.7,153.1c-0.7,0-1.2-0.6-1.2-1.2v-0.9c0-0.7,0.6-1.2,1.2-1.2s1.2,0.6,1.2,1.2v0.9
				C172,152.6,171.4,153.1,170.7,153.1z M170.7,147.5c-0.7,0-1.2-0.6-1.2-1.2v-0.9c0-0.7,0.6-1.2,1.2-1.2s1.2,0.6,1.2,1.2v0.9
				C172,146.9,171.4,147.5,170.7,147.5z M170.7,141.8c-0.7,0-1.2-0.6-1.2-1.2v-0.9c0-0.7,0.6-1.2,1.2-1.2s1.2,0.6,1.2,1.2v0.9
				C172,141.3,171.4,141.8,170.7,141.8z M170.7,136.2c-0.7,0-1.2-0.6-1.2-1.2V134c0-0.7,0.6-1.2,1.2-1.2s1.2,0.6,1.2,1.2v0.9
				C172,135.6,171.4,136.2,170.7,136.2z M170.7,130.5c-0.7,0-1.2-0.6-1.2-1.2v-0.9c0-0.7,0.6-1.2,1.2-1.2s1.2,0.6,1.2,1.2v0.9
				C172,130,171.4,130.5,170.7,130.5z M170.7,124.9c-0.7,0-1.2-0.6-1.2-1.2v-0.9c0-0.7,0.6-1.2,1.2-1.2s1.2,0.6,1.2,1.2v0.9
				C172,124.3,171.4,124.9,170.7,124.9z M170.7,119.2c-0.7,0-1.2-0.6-1.2-1.2v-0.9c0-0.7,0.6-1.2,1.2-1.2s1.2,0.6,1.2,1.2v0.9
				C172,118.7,171.4,119.2,170.7,119.2z M170.7,113.6c-0.7,0-1.2-0.6-1.2-1.2v-0.9c0-0.7,0.6-1.2,1.2-1.2s1.2,0.6,1.2,1.2v0.9
				C172,113,171.4,113.6,170.7,113.6z M170.7,108c-0.7,0-1.2-0.6-1.2-1.2v-0.9c0-0.7,0.6-1.2,1.2-1.2s1.2,0.6,1.2,1.2v0.9
				C172,107.4,171.4,108,170.7,108z M170.7,102.3c-0.7,0-1.2-0.6-1.2-1.2v-0.9c0-0.7,0.6-1.2,1.2-1.2s1.2,0.6,1.2,1.2v0.9
				C172,101.7,171.4,102.3,170.7,102.3z M170.7,96.7c-0.7,0-1.2-0.6-1.2-1.2v-0.9c0-0.7,0.6-1.2,1.2-1.2s1.2,0.6,1.2,1.2v0.9
				C172,96.1,171.4,96.7,170.7,96.7z M170.7,91c-0.7,0-1.2-0.6-1.2-1.2v-0.9c0-0.7,0.6-1.2,1.2-1.2s1.2,0.6,1.2,1.2v0.9
				C172,90.5,171.4,91,170.7,91z M170.7,85.4c-0.7,0-1.2-0.6-1.2-1.2v-0.9c0-0.7,0.6-1.2,1.2-1.2s1.2,0.6,1.2,1.2v0.9
				C172,84.8,171.4,85.4,170.7,85.4z M170.7,79.7c-0.7,0-1.2-0.6-1.2-1.2v-0.9c0-0.7,0.6-1.2,1.2-1.2s1.2,0.6,1.2,1.2v0.9
				C172,79.2,171.4,79.7,170.7,79.7z M170.7,74.1c-0.7,0-1.2-0.6-1.2-1.2v-0.9c0-0.7,0.6-1.2,1.2-1.2s1.2,0.6,1.2,1.2v0.9
				C172,73.5,171.4,74.1,170.7,74.1z M170.7,68.4c-0.7,0-1.2-0.6-1.2-1.2v-0.9c0-0.7,0.6-1.2,1.2-1.2s1.2,0.6,1.2,1.2v0.9
				C172,67.9,171.4,68.4,170.7,68.4z M170.7,62.8c-0.7,0-1.2-0.6-1.2-1.2v-0.9c0-0.7,0.6-1.2,1.2-1.2s1.2,0.6,1.2,1.2v0.9
				C172,62.2,171.4,62.8,170.7,62.8z"/>
		</g>
		<g>
			<path style="fill:#0A2E3D;" d="M170.7,57.1c-0.7,0-1.2-0.6-1.2-1.2v-0.5c0-0.7,0.6-1.2,1.2-1.2h0.5c0.7,0,1.2,0.6,1.2,1.2
				c0,0.5-0.3,0.9-0.6,1.1C171.6,56.9,171.2,57.1,170.7,57.1z"/>
		</g>
		<g>
			<path style="fill:#0A2E3D;" d="M203.9,56.7H203c-0.7,0-1.2-0.6-1.2-1.2s0.6-1.2,1.2-1.2h0.9c0.7,0,1.2,0.6,1.2,1.2
				S204.6,56.7,203.9,56.7z M198.4,56.7h-0.9c-0.7,0-1.2-0.6-1.2-1.2s0.6-1.2,1.2-1.2h0.9c0.7,0,1.2,0.6,1.2,1.2
				S199.1,56.7,198.4,56.7z M193,56.7h-0.9c-0.7,0-1.2-0.6-1.2-1.2s0.6-1.2,1.2-1.2h0.9c0.7,0,1.2,0.6,1.2,1.2S193.7,56.7,193,56.7z
				 M187.5,56.7h-0.9c-0.7,0-1.2-0.6-1.2-1.2s0.6-1.2,1.2-1.2h0.9c0.7,0,1.2,0.6,1.2,1.2S188.2,56.7,187.5,56.7z M182.1,56.7h-0.9
				c-0.7,0-1.2-0.6-1.2-1.2s0.6-1.2,1.2-1.2h0.9c0.7,0,1.2,0.6,1.2,1.2S182.8,56.7,182.1,56.7z M176.6,56.7h-0.9
				c-0.7,0-1.2-0.6-1.2-1.2s0.6-1.2,1.2-1.2h0.9c0.7,0,1.2,0.6,1.2,1.2S177.3,56.7,176.6,56.7z"/>
		</g>
		<g>
			<path style="fill:#0A2E3D;" d="M208.9,57.1c-0.5,0-0.9-0.3-1.1-0.6c-0.4-0.2-0.6-0.6-0.6-1.1c0-0.7,0.6-1.2,1.2-1.2h0.5
				c0.7,0,1.2,0.6,1.2,1.2v0.5C210.1,56.6,209.6,57.1,208.9,57.1z"/>
		</g>
		<g>
			<path style="fill:#0A2E3D;" d="M208.9,288.6c-0.7,0-1.2-0.6-1.2-1.2v-0.9c0-0.7,0.6-1.2,1.2-1.2s1.2,0.6,1.2,1.2v0.9
				C210.1,288,209.6,288.6,208.9,288.6z M208.9,283c-0.7,0-1.2-0.6-1.2-1.2v-0.9c0-0.7,0.6-1.2,1.2-1.2s1.2,0.6,1.2,1.2v0.9
				C210.1,282.4,209.6,283,208.9,283z M208.9,277.3c-0.7,0-1.2-0.6-1.2-1.2v-0.9c0-0.7,0.6-1.2,1.2-1.2s1.2,0.6,1.2,1.2v0.9
				C210.1,276.8,209.6,277.3,208.9,277.3z M208.9,271.7c-0.7,0-1.2-0.6-1.2-1.2v-0.9c0-0.7,0.6-1.2,1.2-1.2s1.2,0.6,1.2,1.2v0.9
				C210.1,271.1,209.6,271.7,208.9,271.7z M208.9,266c-0.7,0-1.2-0.6-1.2-1.2v-0.9c0-0.7,0.6-1.2,1.2-1.2s1.2,0.6,1.2,1.2v0.9
				C210.1,265.5,209.6,266,208.9,266z M208.9,260.4c-0.7,0-1.2-0.6-1.2-1.2v-0.9c0-0.7,0.6-1.2,1.2-1.2s1.2,0.6,1.2,1.2v0.9
				C210.1,259.8,209.6,260.4,208.9,260.4z M208.9,254.7c-0.7,0-1.2-0.6-1.2-1.2v-0.9c0-0.7,0.6-1.2,1.2-1.2s1.2,0.6,1.2,1.2v0.9
				C210.1,254.2,209.6,254.7,208.9,254.7z M208.9,249.1c-0.7,0-1.2-0.6-1.2-1.2v-0.9c0-0.7,0.6-1.2,1.2-1.2s1.2,0.6,1.2,1.2v0.9
				C210.1,248.5,209.6,249.1,208.9,249.1z M208.9,243.4c-0.7,0-1.2-0.6-1.2-1.2v-0.9c0-0.7,0.6-1.2,1.2-1.2s1.2,0.6,1.2,1.2v0.9
				C210.1,242.9,209.6,243.4,208.9,243.4z M208.9,237.8c-0.7,0-1.2-0.6-1.2-1.2v-0.9c0-0.7,0.6-1.2,1.2-1.2s1.2,0.6,1.2,1.2v0.9
				C210.1,237.2,209.6,237.8,208.9,237.8z M208.9,232.2c-0.7,0-1.2-0.6-1.2-1.2V230c0-0.7,0.6-1.2,1.2-1.2s1.2,0.6,1.2,1.2v0.9
				C210.1,231.6,209.6,232.2,208.9,232.2z M208.9,226.5c-0.7,0-1.2-0.6-1.2-1.2v-0.9c0-0.7,0.6-1.2,1.2-1.2s1.2,0.6,1.2,1.2v0.9
				C210.1,225.9,209.6,226.5,208.9,226.5z M208.9,220.9c-0.7,0-1.2-0.6-1.2-1.2v-0.9c0-0.7,0.6-1.2,1.2-1.2s1.2,0.6,1.2,1.2v0.9
				C210.1,220.3,209.6,220.9,208.9,220.9z M208.9,215.2c-0.7,0-1.2-0.6-1.2-1.2V213c0-0.7,0.6-1.2,1.2-1.2s1.2,0.6,1.2,1.2v0.9
				C210.1,214.7,209.6,215.2,208.9,215.2z M208.9,209.6c-0.7,0-1.2-0.6-1.2-1.2v-0.9c0-0.7,0.6-1.2,1.2-1.2s1.2,0.6,1.2,1.2v0.9
				C210.1,209,209.6,209.6,208.9,209.6z M208.9,203.9c-0.7,0-1.2-0.6-1.2-1.2v-0.9c0-0.7,0.6-1.2,1.2-1.2s1.2,0.6,1.2,1.2v0.9
				C210.1,203.4,209.6,203.9,208.9,203.9z M208.9,198.3c-0.7,0-1.2-0.6-1.2-1.2v-0.9c0-0.7,0.6-1.2,1.2-1.2s1.2,0.6,1.2,1.2v0.9
				C210.1,197.7,209.6,198.3,208.9,198.3z M208.9,192.6c-0.7,0-1.2-0.6-1.2-1.2v-0.9c0-0.7,0.6-1.2,1.2-1.2s1.2,0.6,1.2,1.2v0.9
				C210.1,192.1,209.6,192.6,208.9,192.6z M208.9,187c-0.7,0-1.2-0.6-1.2-1.2v-0.9c0-0.7,0.6-1.2,1.2-1.2s1.2,0.6,1.2,1.2v0.9
				C210.1,186.4,209.6,187,208.9,187z M208.9,181.3c-0.7,0-1.2-0.6-1.2-1.2v-0.9c0-0.7,0.6-1.2,1.2-1.2s1.2,0.6,1.2,1.2v0.9
				C210.1,180.8,209.6,181.3,208.9,181.3z M208.9,175.7c-0.7,0-1.2-0.6-1.2-1.2v-0.9c0-0.7,0.6-1.2,1.2-1.2s1.2,0.6,1.2,1.2v0.9
				C210.1,175.1,209.6,175.7,208.9,175.7z M208.9,170.1c-0.7,0-1.2-0.6-1.2-1.2v-0.9c0-0.7,0.6-1.2,1.2-1.2s1.2,0.6,1.2,1.2v0.9
				C210.1,169.5,209.6,170.1,208.9,170.1z M208.9,164.4c-0.7,0-1.2-0.6-1.2-1.2v-0.9c0-0.7,0.6-1.2,1.2-1.2s1.2,0.6,1.2,1.2v0.9
				C210.1,163.8,209.6,164.4,208.9,164.4z M208.9,158.8c-0.7,0-1.2-0.6-1.2-1.2v-0.9c0-0.7,0.6-1.2,1.2-1.2s1.2,0.6,1.2,1.2v0.9
				C210.1,158.2,209.6,158.8,208.9,158.8z M208.9,153.1c-0.7,0-1.2-0.6-1.2-1.2v-0.9c0-0.7,0.6-1.2,1.2-1.2s1.2,0.6,1.2,1.2v0.9
				C210.1,152.6,209.6,153.1,208.9,153.1z M208.9,147.5c-0.7,0-1.2-0.6-1.2-1.2v-0.9c0-0.7,0.6-1.2,1.2-1.2s1.2,0.6,1.2,1.2v0.9
				C210.1,146.9,209.6,147.5,208.9,147.5z M208.9,141.8c-0.7,0-1.2-0.6-1.2-1.2v-0.9c0-0.7,0.6-1.2,1.2-1.2s1.2,0.6,1.2,1.2v0.9
				C210.1,141.3,209.6,141.8,208.9,141.8z M208.9,136.2c-0.7,0-1.2-0.6-1.2-1.2V134c0-0.7,0.6-1.2,1.2-1.2s1.2,0.6,1.2,1.2v0.9
				C210.1,135.6,209.6,136.2,208.9,136.2z M208.9,130.5c-0.7,0-1.2-0.6-1.2-1.2v-0.9c0-0.7,0.6-1.2,1.2-1.2s1.2,0.6,1.2,1.2v0.9
				C210.1,130,209.6,130.5,208.9,130.5z M208.9,124.9c-0.7,0-1.2-0.6-1.2-1.2v-0.9c0-0.7,0.6-1.2,1.2-1.2s1.2,0.6,1.2,1.2v0.9
				C210.1,124.3,209.6,124.9,208.9,124.9z M208.9,119.2c-0.7,0-1.2-0.6-1.2-1.2v-0.9c0-0.7,0.6-1.2,1.2-1.2s1.2,0.6,1.2,1.2v0.9
				C210.1,118.7,209.6,119.2,208.9,119.2z M208.9,113.6c-0.7,0-1.2-0.6-1.2-1.2v-0.9c0-0.7,0.6-1.2,1.2-1.2s1.2,0.6,1.2,1.2v0.9
				C210.1,113,209.6,113.6,208.9,113.6z M208.9,108c-0.7,0-1.2-0.6-1.2-1.2v-0.9c0-0.7,0.6-1.2,1.2-1.2s1.2,0.6,1.2,1.2v0.9
				C210.1,107.4,209.6,108,208.9,108z M208.9,102.3c-0.7,0-1.2-0.6-1.2-1.2v-0.9c0-0.7,0.6-1.2,1.2-1.2s1.2,0.6,1.2,1.2v0.9
				C210.1,101.7,209.6,102.3,208.9,102.3z M208.9,96.7c-0.7,0-1.2-0.6-1.2-1.2v-0.9c0-0.7,0.6-1.2,1.2-1.2s1.2,0.6,1.2,1.2v0.9
				C210.1,96.1,209.6,96.7,208.9,96.7z M208.9,91c-0.7,0-1.2-0.6-1.2-1.2v-0.9c0-0.7,0.6-1.2,1.2-1.2s1.2,0.6,1.2,1.2v0.9
				C210.1,90.5,209.6,91,208.9,91z M208.9,85.4c-0.7,0-1.2-0.6-1.2-1.2v-0.9c0-0.7,0.6-1.2,1.2-1.2s1.2,0.6,1.2,1.2v0.9
				C210.1,84.8,209.6,85.4,208.9,85.4z M208.9,79.7c-0.7,0-1.2-0.6-1.2-1.2v-0.9c0-0.7,0.6-1.2,1.2-1.2s1.2,0.6,1.2,1.2v0.9
				C210.1,79.2,209.6,79.7,208.9,79.7z M208.9,74.1c-0.7,0-1.2-0.6-1.2-1.2v-0.9c0-0.7,0.6-1.2,1.2-1.2s1.2,0.6,1.2,1.2v0.9
				C210.1,73.5,209.6,74.1,208.9,74.1z M208.9,68.4c-0.7,0-1.2-0.6-1.2-1.2v-0.9c0-0.7,0.6-1.2,1.2-1.2s1.2,0.6,1.2,1.2v0.9
				C210.1,67.9,209.6,68.4,208.9,68.4z M208.9,62.8c-0.7,0-1.2-0.6-1.2-1.2v-0.9c0-0.7,0.6-1.2,1.2-1.2s1.2,0.6,1.2,1.2v0.9
				C210.1,62.2,209.6,62.8,208.9,62.8z"/>
		</g>
		<g>
			<path style="fill:#0A2E3D;" d="M208.9,293.8c-0.7,0-1.2-0.6-1.2-1.2v-0.5c0-0.7,0.6-1.2,1.2-1.2s1.2,0.6,1.2,1.2v0.5
				C210.1,293.2,209.6,293.8,208.9,293.8z"/>
		</g>
	</g>
	<g>
		<path style="fill:#6C8081;" d="M33.7,313.1c0,0.4-0.1,0.7-0.2,1.1c-0.1,0.3-0.3,0.6-0.5,0.9c-0.2,0.2-0.5,0.4-0.8,0.6
			c-0.3,0.1-0.7,0.2-1.1,0.2c-0.4,0-0.8-0.1-1.1-0.2c-0.3-0.1-0.6-0.3-0.8-0.6c-0.2-0.2-0.4-0.5-0.5-0.9c-0.1-0.3-0.2-0.7-0.2-1.1
			h1.3c0,0.5,0.1,0.8,0.3,1.1c0.2,0.3,0.5,0.4,0.9,0.4s0.7-0.1,0.9-0.4s0.3-0.7,0.3-1.1v-5.2h1.3V313.1z"/>
		<path style="fill:#6C8081;" d="M39.8,315.6l-0.3-1h-2.9l-0.3,1h-1.3l2.7-7.7h0.9l2.7,7.7H39.8z M38,310l-1.1,3.5h2.1L38,310z"/>
		<path style="fill:#6C8081;" d="M47.3,313.4v-5.5h1.3v7.7h-1.4l-3-5.5v5.5h-1.3v-7.7h1.4L47.3,313.4z"/>
	</g>
	<g>
		<path style="fill:#6C8081;" d="M82.2,309v2.4h3.2v1.1h-3.2v3H81v-7.7h4.4v1.1H82.2z"/>
		<path style="fill:#6C8081;" d="M89,309v2.2h3.2v1.1H89v2.1h3.2v1.1h-4.4v-7.7h4.4v1.1H89z"/>
		<path style="fill:#6C8081;" d="M94.6,307.9h2.6c0.5,0,1,0.1,1.3,0.2c0.3,0.1,0.6,0.3,0.8,0.5c0.2,0.2,0.3,0.4,0.4,0.7
			c0.1,0.2,0.1,0.5,0.1,0.7c0,0.2,0,0.5-0.1,0.7c-0.1,0.2-0.2,0.4-0.3,0.5c-0.1,0.1-0.3,0.3-0.4,0.4s-0.3,0.2-0.5,0.2
			c0.1,0,0.3,0,0.4,0.1c0.2,0.1,0.3,0.2,0.5,0.3c0.1,0.1,0.3,0.3,0.4,0.5c0.1,0.2,0.2,0.5,0.2,0.8c0,0.2,0,0.4-0.1,0.7
			c-0.1,0.3-0.2,0.5-0.4,0.7s-0.4,0.4-0.8,0.6c-0.3,0.2-0.8,0.2-1.3,0.2h-2.6V307.9z M97.3,311.1c0.3,0,0.5,0,0.6-0.1
			c0.2-0.1,0.3-0.2,0.4-0.3s0.1-0.2,0.2-0.3s0-0.2,0-0.3c0-0.1,0-0.2,0-0.3c0-0.1-0.1-0.2-0.2-0.3c-0.1-0.1-0.2-0.2-0.4-0.3
			c-0.2-0.1-0.4-0.1-0.6-0.1h-1.4v2.1H97.3z M95.9,312.2v2.2h1.4c0.3,0,0.5,0,0.6-0.1c0.2-0.1,0.3-0.2,0.4-0.3
			c0.1-0.1,0.1-0.2,0.2-0.4c0-0.1,0-0.2,0-0.4c0-0.1,0-0.2,0-0.3c0-0.1-0.1-0.2-0.2-0.4c-0.1-0.1-0.2-0.2-0.4-0.3
			c-0.2-0.1-0.4-0.1-0.6-0.1H95.9z"/>
	</g>
	<g>
		<path style="fill:#6C8081;" d="M136.9,315.6h-1.3v-4.8l-1.9,4.8h-1l-1.9-4.8v4.8h-1.3v-7.7h1.2l2.5,5.7l2.5-5.7h1.2V315.6z"/>
		<path style="fill:#6C8081;" d="M143.5,315.6l-0.3-1h-2.9l-0.3,1h-1.3l2.7-7.7h0.9l2.7,7.7H143.5z M141.7,310l-1.1,3.5h2.1
			L141.7,310z"/>
		<path style="fill:#6C8081;" d="M146.6,307.9h2.8c0.4,0,0.8,0.1,1.1,0.2c0.3,0.1,0.6,0.3,0.9,0.6c0.2,0.2,0.4,0.5,0.6,0.9
			c0.1,0.3,0.2,0.7,0.2,1c0,0.3,0,0.5-0.1,0.8c-0.1,0.3-0.2,0.5-0.3,0.7c-0.1,0.2-0.3,0.4-0.5,0.6c-0.2,0.2-0.4,0.3-0.7,0.4l1.5,2.5
			h-1.4l-1.4-2.3h-1.3v2.3h-1.3V307.9z M149.3,312.1c0.2,0,0.4,0,0.6-0.1s0.3-0.2,0.5-0.3c0.1-0.1,0.2-0.3,0.3-0.5
			c0.1-0.2,0.1-0.4,0.1-0.6s0-0.4-0.1-0.6c-0.1-0.2-0.2-0.4-0.3-0.5c-0.1-0.1-0.3-0.3-0.5-0.3s-0.4-0.1-0.6-0.1h-1.5v3.1H149.3z"/>
	</g>
	<g>
		<path style="fill:#6C8081;" d="M184.2,315.6l-0.3-1H181l-0.3,1h-1.3l2.7-7.7h0.9l2.7,7.7H184.2z M182.4,310l-1.1,3.5h2.1
			L182.4,310z"/>
		<path style="fill:#6C8081;" d="M187.3,307.9h2.8c0.4,0,0.8,0.1,1.1,0.2c0.3,0.1,0.6,0.3,0.9,0.6c0.2,0.2,0.4,0.5,0.6,0.9
			c0.1,0.3,0.2,0.7,0.2,1c0,0.4-0.1,0.7-0.2,1c-0.1,0.3-0.3,0.6-0.6,0.9c-0.2,0.2-0.5,0.4-0.9,0.6c-0.3,0.1-0.7,0.2-1.1,0.2h-1.5
			v2.3h-1.3V307.9z M190,312.1c0.2,0,0.4,0,0.6-0.1s0.3-0.2,0.5-0.3c0.1-0.1,0.2-0.3,0.3-0.5c0.1-0.2,0.1-0.4,0.1-0.6s0-0.4-0.1-0.6
			c-0.1-0.2-0.2-0.4-0.3-0.5c-0.1-0.1-0.3-0.3-0.5-0.3s-0.4-0.1-0.6-0.1h-1.5v3.1H190z"/>
		<path style="fill:#6C8081;" d="M194.7,307.9h2.8c0.4,0,0.8,0.1,1.1,0.2c0.3,0.1,0.6,0.3,0.9,0.6c0.2,0.2,0.4,0.5,0.6,0.9
			c0.1,0.3,0.2,0.7,0.2,1c0,0.3,0,0.5-0.1,0.8c-0.1,0.3-0.2,0.5-0.3,0.7c-0.1,0.2-0.3,0.4-0.5,0.6c-0.2,0.2-0.4,0.3-0.7,0.4l1.5,2.5
			h-1.4l-1.4-2.3H196v2.3h-1.3V307.9z M197.5,312.1c0.2,0,0.4,0,0.6-0.1s0.3-0.2,0.5-0.3c0.1-0.1,0.2-0.3,0.3-0.5
			c0.1-0.2,0.1-0.4,0.1-0.6s0-0.4-0.1-0.6c-0.1-0.2-0.2-0.4-0.3-0.5c-0.1-0.1-0.3-0.3-0.5-0.3s-0.4-0.1-0.6-0.1H196v3.1H197.5z"/>
	</g>
	<g>
		<path style="fill:#0A2E3D;" d="M225.6,293.8H1.4c-0.7,0-1.2-0.6-1.2-1.2s0.6-1.2,1.2-1.2h224.2c0.7,0,1.2,0.6,1.2,1.2
			S226.3,293.8,225.6,293.8z"/>
	</g>
	<g>
		<path style="fill:#FFFFFF;" d="M3.2,279.3H1v-7h2c19-1.2,37.4-3.1,52.3-12.3c13.6-8.4,24.3-22.3,34.6-35.6
			c8.4-10.8,17-22.1,27.4-30.7c12.6-10.5,33.8-17.7,52.6-17.8h60.7v7H170c-17.3,0.1-36.7,6.6-48.2,16.1c-9.8,8.1-18.2,19-26.3,29.6
			C84.8,242.5,73.7,256.9,59,266c-16.3,10.1-35.7,12.1-55.7,13.4L3.2,279.3z"/>
	</g>
	<g>
		<path style="fill:#0A2E3D;" d="M1,276.8c-0.6,0-1-0.4-1-1s0.4-1,1-1h2.1c19.4-1.2,38.1-3.1,53.5-12.7c14-8.7,24.8-22.7,35.3-36.2
			c8.3-10.7,16.9-21.8,27-30.3c12.2-10.2,32.7-17.1,51.1-17.2h60.6c0.6,0,1,0.4,1,1s-0.4,1-1,1H170c-17.9,0.1-37.9,6.8-49.8,16.7
			c-10,8.3-18.5,19.3-26.7,30C82.9,240.8,72,255,57.7,263.8c-15.9,9.8-34.8,11.7-54.5,13L1,276.8z"/>
	</g>
	<g>
		<path style="fill:#0A2E3D;" d="M224.2,185.9c-0.3,0-0.6-0.1-0.8-0.4c-0.3-0.4-0.3-1.1,0.2-1.4l5.8-4.6l-5.8-4.6
			c-0.4-0.3-0.5-1-0.2-1.4c0.3-0.4,1-0.5,1.4-0.2l6.8,5.4c0.2,0.2,0.4,0.5,0.4,0.8s-0.1,0.6-0.4,0.8l-6.8,5.4
			C224.7,185.8,224.4,185.9,224.2,185.9z"/>
	</g>
</g>
</svg>
