<?xml version="1.0" encoding="utf-8"?>
<!-- Generator: Adobe Illustrator 18.0.0, SVG Export Plug-In . SVG Version: 6.00 Build 0)  -->
<!DOCTYPE svg PUBLIC "-//W3C//DTD SVG 1.1//EN" "http://www.w3.org/Graphics/SVG/1.1/DTD/svg11.dtd">
<svg version="1.1" id="Layer_1" xmlns="http://www.w3.org/2000/svg" xmlns:xlink="http://www.w3.org/1999/xlink" x="0px" y="0px"
	 viewBox="0 0 287.8 374.6" style="enable-background:new 0 0 287.8 374.6;" xml:space="preserve">
<g>
	<g>
		<g>
			<g>
				<path style="fill:#0A2E3D;" d="M270,259.4c-0.1,0-0.2,0-0.3-0.1l-14.2-8.4c-0.2-0.1-0.3-0.4-0.2-0.7c0.1-0.2,0.4-0.3,0.7-0.2
					l14.2,8.4c0.2,0.1,0.3,0.4,0.2,0.7C270.3,259.3,270.2,259.4,270,259.4z"/>
			</g>
			<g>
				<path style="fill:#0A2E3D;" d="M261.1,261.6c-0.2,0-0.4-0.2-0.5-0.4c-0.1-0.3,0.1-0.5,0.4-0.6l8.4-2.1l-2.3-8.3
					c-0.1-0.3,0.1-0.5,0.4-0.6c0.3-0.1,0.5,0.1,0.6,0.4l2.5,9.3l-9.4,2.3C261.2,261.5,261.2,261.6,261.1,261.6z"/>
			</g>
		</g>
		<g>
			<g>
				<path style="fill:#0A2E3D;" d="M120.3,17.7c-0.3,0-0.5-0.2-0.5-0.5V0.7c0-0.3,0.2-0.5,0.5-0.5s0.5,0.2,0.5,0.5v16.5
					C120.8,17.5,120.5,17.7,120.3,17.7z"/>
			</g>
			<g>
				<path style="fill:#0A2E3D;" d="M126.7,7.8c-0.1,0-0.3-0.1-0.4-0.2l-6-6.2l-6,6.2c-0.2,0.2-0.5,0.2-0.7,0c-0.2-0.2-0.2-0.5,0-0.7
					l6.7-6.9l6.7,6.9c0.2,0.2,0.2,0.5,0,0.7C126.9,7.7,126.8,7.8,126.7,7.8z"/>
			</g>
		</g>
		<g>
			<g>
				<path style="fill:#0A2E3D;" d="M85.9,374.4c-0.3,0-0.5-0.2-0.5-0.5v-16.5c0-0.3,0.2-0.5,0.5-0.5s0.5,0.2,0.5,0.5v16.5
					C86.4,374.2,86.2,374.4,85.9,374.4z"/>
			</g>
			<g>
				<path style="fill:#0A2E3D;" d="M85.9,374.6l-6.7-6.9c-0.2-0.2-0.2-0.5,0-0.7c0.2-0.2,0.5-0.2,0.7,0l6,6.2l6-6.2
					c0.2-0.2,0.5-0.2,0.7,0c0.2,0.2,0.2,0.5,0,0.7L85.9,374.6z"/>
			</g>
		</g>
	</g>
	<g>
		<polygon style="fill:#DCE2E4;" points="120.3,129.1 86.2,109.4 51.8,129.4 120.3,168.9 188.9,129.4 154.5,109.4 		"/>
	</g>
	<g>
		<path style="fill:#DCE2E4;" d="M119,280.1l-32.9,19l-32.9-19L86,260.9L119,280.1z"/>
	</g>
	<g>
		<path style="fill:#0A2E3D;" d="M86,340.6c-0.2,0-0.4-0.1-0.6-0.2l-34.3-20c-0.4-0.2-0.6-0.6-0.6-1.1v-40c0-0.4,0.2-0.9,0.6-1.1
			l34.3-20c0.4-0.2,0.9-0.2,1.3,0l34.3,20c0.4,0.2,0.6,0.6,0.6,1.1v40c0,0.4-0.2,0.9-0.6,1.1l-34.3,20
			C86.5,340.6,86.3,340.6,86,340.6z M53,318.7l33,19.3l33-19.3v-38.6l-33-19.3l-33,19.3V318.7z"/>
	</g>
	<g>
		<path style="fill:#0A2E3D;" d="M86,340.6c-0.7,0-1.2-0.6-1.2-1.2v-14.8c0-0.7,0.6-1.2,1.2-1.2s1.2,0.6,1.2,1.2v14.8
			C87.3,340.1,86.7,340.6,86,340.6z"/>
	</g>
	<g>
		<path style="fill:#FFFFFF;" d="M154.6,55l-34.3,48.5L86,55l34.3,8.7L154.6,55z"/>
	</g>
	<g>
		<path style="fill:#0A2E3D;" d="M120.3,103.8c-0.7,0-1.2-0.6-1.2-1.2v-13c0-0.7,0.6-1.2,1.2-1.2s1.2,0.6,1.2,1.2v13
			C121.6,103.2,121,103.8,120.3,103.8z"/>
	</g>
	<g>
		<g>
			<path style="fill:#0A2E3D;" d="M120.3,249.2c-0.2,0-0.4-0.1-0.6-0.2l-34.3-20c-0.4-0.2-0.6-0.6-0.6-1.1v-39.3l-33.7-19.6
				c-0.4-0.2-0.6-0.6-0.6-1.1v-40c0-0.4,0.2-0.9,0.6-1.1l34.3-20c0.4-0.2,0.9-0.2,1.3,0l33.6,19.6l33.6-19.6c0.4-0.2,0.9-0.2,1.3,0
				l34.3,20c0.4,0.2,0.6,0.6,0.6,1.1v80c0,0.4-0.2,0.9-0.6,1.1l-68.6,40C120.8,249.2,120.5,249.2,120.3,249.2z M87.3,227.3l33,19.3
				l67.3-39.3v-78.6l-33-19.3L121,129.1c-0.4,0.2-0.9,0.2-1.3,0L86,109.5l-33,19.3v38.6l33.7,19.6c0.4,0.2,0.6,0.6,0.6,1.1V227.3z"
				/>
		</g>
	</g>
	<g>
		<path style="fill:#DCE2E4;" d="M154.6,56.7l-34.3,19.8L86,56.7l34.3-19.9L154.6,56.7z"/>
	</g>
	<g>
		<g>
			<path style="fill:#0A2E3D;" d="M120.3,105c-0.4,0-0.8-0.2-1-0.5L84.9,55.8c-0.2-0.3-0.3-0.6-0.2-1s0.3-0.6,0.6-0.8l34.3-19.8
				c0.4-0.2,0.9-0.2,1.2,0L155.2,54c0.3,0.2,0.5,0.5,0.6,0.8s0,0.7-0.2,1l-34.3,48.7C121.1,104.8,120.7,105,120.3,105z M87.7,55.4
				l32.5,46.2l32.5-46.2l-32.5-18.8L87.7,55.4z"/>
		</g>
	</g>
	<g>
		<g>
			<path style="fill:#B6C3C9;" d="M171.4,179.2c0.1-11.1-7.7-15.7-17.4-10.3c-9.7,5.5-17.7,18.9-17.8,30.1s7.7,15.7,17.4,10.3
				C163.3,203.8,171.3,190.4,171.4,179.2z"/>
			<path style="fill:#0A2E3D;" d="M145.9,212.8C145.9,212.8,145.9,212.8,145.9,212.8c-2.9,0-5.4-1-7.2-2.9
				c-2.4-2.5-3.7-6.2-3.7-10.9c0.1-11.5,8.4-25.5,18.4-31.1c2.9-1.6,5.7-2.5,8.3-2.5c2.9,0,5.4,1,7.2,2.9c2.4,2.5,3.7,6.2,3.7,10.9
				c-0.1,11.5-8.4,25.5-18.4,31.1C151.3,212,148.5,212.8,145.9,212.8z M161.8,167.9c-2.2,0-4.6,0.7-7.1,2.1
				c-9.3,5.3-17,18.3-17.1,29c0,4,1,7.1,2.9,9.1c1.4,1.4,3.3,2.2,5.5,2.2h0c2.2,0,4.6-0.7,7.1-2.1c9.3-5.3,17-18.3,17.1-29
				c0-4-1-7.2-2.9-9.1C165.8,168.6,164,167.9,161.8,167.9z"/>
		</g>
	</g>
	<g>
		<path style="fill:#FFFFFF;" d="M212.9,203.5c0.1-11.1-7.7-15.7-17.4-10.3c-9.7,5.5-17.7,18.9-17.8,30.1
			c-0.1,11.1,7.7,15.7,17.4,10.3C204.8,228.1,212.8,214.7,212.9,203.5z"/>
	</g>
	<g>
		<g>
			<path style="fill:#DCE2E4;" d="M247.6,224.1c0.1-11.1-7.7-15.7-17.4-10.3c-9.7,5.5-17.7,18.9-17.8,30.1
				c-0.1,11.1,7.7,15.7,17.4,10.3C239.5,248.6,247.5,235.2,247.6,224.1z"/>
		</g>
	</g>
	<g>
		<g>
			<path style="fill:#6C8081;" d="M88.6,29.1c0.2,0,0.4,0.1,0.6,0.1c0.2,0,0.4,0,0.5,0c0.3,0,0.5,0,0.8-0.1c0.2-0.1,0.5-0.2,0.7-0.4
				s0.3-0.4,0.5-0.6c0.1-0.2,0.2-0.5,0.2-0.8c0-0.2,0-0.4-0.1-0.6c-0.1-0.2-0.2-0.4-0.4-0.6c-0.2-0.2-0.4-0.3-0.7-0.4
				c-0.3-0.1-0.6-0.2-0.9-0.2h-0.6v-1.1h0.6c0.3,0,0.6,0,0.8-0.1s0.4-0.2,0.6-0.4c0.2-0.2,0.3-0.3,0.3-0.5c0.1-0.2,0.1-0.4,0.1-0.7
				c0-0.5-0.2-0.9-0.5-1.2s-0.8-0.4-1.3-0.4c-0.5,0-1,0.2-1.3,0.5C88,22,87.9,22.4,87.9,23v7.2h-1.2V23c0-0.4,0.1-0.8,0.2-1.2
				c0.1-0.4,0.4-0.7,0.6-1s0.6-0.5,1-0.6c0.4-0.1,0.8-0.2,1.3-0.2c0.4,0,0.8,0.1,1.2,0.2c0.4,0.1,0.7,0.3,1,0.6
				c0.3,0.2,0.5,0.5,0.7,0.9c0.2,0.3,0.2,0.7,0.2,1.1c0,0.6-0.2,1.1-0.5,1.5s-0.7,0.6-1.2,0.8c0.5,0.2,1,0.5,1.4,0.9
				c0.4,0.4,0.6,0.9,0.6,1.5c0,0.5-0.1,1-0.3,1.3c-0.2,0.4-0.4,0.7-0.7,0.9c-0.3,0.2-0.7,0.4-1.1,0.6s-0.8,0.2-1.2,0.2
				c-0.2,0-0.4,0-0.7-0.1c-0.2,0-0.4-0.1-0.5-0.1V29.1z"/>
			<path style="fill:#6C8081;" d="M95.4,24.3c0.1-0.3,0.2-0.6,0.3-0.8c0.1-0.2,0.3-0.4,0.5-0.5c0.2-0.1,0.4-0.3,0.7-0.4
				c0.2-0.1,0.3-0.2,0.4-0.2c0.1-0.1,0.3-0.2,0.4-0.3s0.2-0.2,0.3-0.4c0.1-0.1,0.1-0.3,0.1-0.5c0-0.3-0.1-0.5-0.3-0.7
				c-0.2-0.2-0.4-0.2-0.8-0.2c-0.3,0-0.6,0.1-0.8,0.3c-0.2,0.2-0.3,0.5-0.3,0.9h-0.8c0-0.3,0.1-0.5,0.2-0.8c0.1-0.2,0.2-0.4,0.4-0.6
				c0.2-0.2,0.4-0.3,0.6-0.4s0.5-0.1,0.7-0.1c0.3,0,0.5,0,0.7,0.1c0.2,0.1,0.4,0.2,0.6,0.3c0.2,0.1,0.3,0.3,0.4,0.5
				c0.1,0.2,0.1,0.5,0.1,0.7s-0.1,0.5-0.2,0.7c-0.1,0.2-0.3,0.4-0.4,0.5c-0.2,0.2-0.3,0.3-0.5,0.4s-0.3,0.2-0.5,0.3
				c-0.2,0.1-0.4,0.3-0.6,0.4c-0.2,0.1-0.3,0.2-0.4,0.4c-0.1,0.1-0.2,0.3-0.2,0.4c0,0.1-0.1,0.3-0.1,0.5h2.8v0.7h-3.7
				C95.3,25,95.3,24.6,95.4,24.3z"/>
		</g>
		<g>
			<path style="fill:#6C8081;" d="M207.4,283.9c0.2,0,0.4,0.1,0.6,0.1c0.2,0,0.4,0,0.5,0c0.3,0,0.5,0,0.8-0.1
				c0.2-0.1,0.5-0.2,0.7-0.4s0.3-0.4,0.5-0.6c0.1-0.2,0.2-0.5,0.2-0.8c0-0.2,0-0.4-0.1-0.6c-0.1-0.2-0.2-0.4-0.4-0.6
				c-0.2-0.2-0.4-0.3-0.7-0.4c-0.3-0.1-0.6-0.2-0.9-0.2h-0.6v-1.1h0.6c0.3,0,0.6,0,0.8-0.1s0.4-0.2,0.6-0.4c0.2-0.2,0.3-0.3,0.3-0.5
				c0.1-0.2,0.1-0.4,0.1-0.7c0-0.5-0.2-0.9-0.5-1.2s-0.8-0.4-1.3-0.4c-0.5,0-1,0.2-1.3,0.5c-0.3,0.3-0.5,0.8-0.5,1.4v7.2h-1.2v-7.2
				c0-0.4,0.1-0.8,0.2-1.2c0.1-0.4,0.4-0.7,0.6-1s0.6-0.5,1-0.6c0.4-0.1,0.8-0.2,1.3-0.2c0.4,0,0.8,0.1,1.2,0.2
				c0.4,0.1,0.7,0.3,1,0.6c0.3,0.2,0.5,0.5,0.7,0.9c0.2,0.3,0.2,0.7,0.2,1.1c0,0.6-0.2,1.1-0.5,1.5s-0.7,0.6-1.2,0.8
				c0.5,0.2,1,0.5,1.4,0.9c0.4,0.4,0.6,0.9,0.6,1.5c0,0.5-0.1,1-0.3,1.3c-0.2,0.4-0.4,0.7-0.7,0.9c-0.3,0.2-0.7,0.4-1.1,0.6
				s-0.8,0.2-1.2,0.2c-0.2,0-0.4,0-0.7-0.1c-0.2,0-0.4-0.1-0.5-0.1V283.9z"/>
			<path style="fill:#6C8081;" d="M213.9,275.3c0.3,0,0.5,0,0.6-0.1c0.2,0,0.3-0.1,0.4-0.2c0.1-0.1,0.2-0.2,0.2-0.3
				c0-0.1,0-0.3,0-0.5h0.7v5.9h-0.8v-4.3h-1.2V275.3z"/>
		</g>
		<g>
			<path style="fill:#6C8081;" d="M53.7,355.4c0.2,0,0.4,0.1,0.6,0.1c0.2,0,0.4,0,0.5,0c0.3,0,0.5,0,0.8-0.1s0.5-0.2,0.7-0.4
				s0.3-0.4,0.5-0.6s0.2-0.5,0.2-0.8c0-0.2,0-0.4-0.1-0.6c-0.1-0.2-0.2-0.4-0.4-0.6s-0.4-0.3-0.7-0.4c-0.3-0.1-0.6-0.2-0.9-0.2h-0.6
				v-1.1h0.6c0.3,0,0.6,0,0.8-0.1c0.2-0.1,0.4-0.2,0.6-0.4c0.2-0.2,0.3-0.3,0.3-0.5s0.1-0.4,0.1-0.7c0-0.5-0.2-0.9-0.5-1.2
				s-0.8-0.4-1.3-0.4c-0.5,0-1,0.2-1.3,0.5s-0.5,0.8-0.5,1.4v7.2h-1.2v-7.2c0-0.4,0.1-0.8,0.2-1.2c0.1-0.4,0.4-0.7,0.6-1
				c0.3-0.3,0.6-0.5,1-0.6c0.4-0.1,0.8-0.2,1.3-0.2c0.4,0,0.8,0.1,1.2,0.2c0.4,0.1,0.7,0.3,1,0.6s0.5,0.5,0.7,0.9
				c0.2,0.3,0.2,0.7,0.2,1.1c0,0.6-0.2,1.1-0.5,1.5s-0.7,0.6-1.2,0.8c0.5,0.2,1,0.5,1.4,0.9c0.4,0.4,0.6,0.9,0.6,1.5
				c0,0.5-0.1,1-0.3,1.3c-0.2,0.4-0.4,0.7-0.7,0.9c-0.3,0.2-0.7,0.4-1.1,0.6c-0.4,0.1-0.8,0.2-1.2,0.2c-0.2,0-0.4,0-0.7,0
				c-0.2,0-0.4-0.1-0.5-0.1V355.4z"/>
			<path style="fill:#6C8081;" d="M60.9,349.8c0,0.2,0,0.4,0.1,0.5s0.2,0.3,0.3,0.4c0.1,0.1,0.2,0.2,0.4,0.3
				c0.2,0.1,0.3,0.1,0.5,0.1c0.2,0,0.3,0,0.5-0.1s0.3-0.1,0.4-0.2s0.2-0.2,0.2-0.3c0.1-0.1,0.1-0.3,0.1-0.4c0-0.3-0.1-0.6-0.3-0.8
				c-0.2-0.2-0.5-0.3-0.9-0.3h-0.4v-0.7h0.4c0.4,0,0.7-0.1,0.8-0.3s0.2-0.4,0.2-0.7s-0.1-0.5-0.3-0.7s-0.4-0.2-0.7-0.2
				c-0.4,0-0.7,0.1-0.8,0.3c-0.2,0.2-0.3,0.5-0.3,0.8h-0.8c0-0.3,0-0.5,0.1-0.7c0.1-0.2,0.2-0.4,0.4-0.6c0.2-0.2,0.3-0.3,0.6-0.4
				c0.2-0.1,0.5-0.1,0.7-0.1c0.3,0,0.5,0,0.7,0.1c0.2,0.1,0.4,0.2,0.6,0.3c0.2,0.1,0.3,0.3,0.4,0.5s0.1,0.4,0.1,0.7
				c0,0.3-0.1,0.6-0.2,0.8c-0.2,0.2-0.4,0.4-0.7,0.5c0.3,0.1,0.6,0.3,0.8,0.5s0.3,0.5,0.3,0.9c0,0.3-0.1,0.5-0.2,0.7
				c-0.1,0.2-0.2,0.4-0.4,0.6c-0.2,0.2-0.4,0.3-0.6,0.4c-0.2,0.1-0.5,0.1-0.8,0.1c-0.3,0-0.5,0-0.8-0.1s-0.5-0.2-0.6-0.4
				c-0.2-0.2-0.3-0.4-0.4-0.6s-0.2-0.5-0.2-0.8H60.9z"/>
		</g>
	</g>
	<g>
		<path style="fill:#0A2E3D;" d="M222.1,257.7L222.1,257.7c-1.9,0-3.6-0.4-5-1.2c0,0-0.1,0-0.1-0.1l-0.1-0.1c0,0,0,0,0,0l-34.7-20.5
			c0,0,0,0,0,0c0,0,0,0,0,0c-3.6-2.2-5.6-6.6-5.5-12.4c0.1-11.5,8.4-25.5,18.4-31.1c2.9-1.6,5.7-2.5,8.3-2.5c1.9,0,3.6,0.4,5.2,1.3
			c0,0,0.1,0,0.1,0l34.9,20.6c0,0,0.1,0.1,0.1,0.1c3.5,2.2,5.4,6.6,5.4,12.3c-0.1,11.5-8.4,25.5-18.4,31.1
			C227.6,256.8,224.8,257.7,222.1,257.7z M218.1,254.2C218.2,254.2,218.2,254.2,218.1,254.2c2.9,1.7,6.9,1.2,11.1-1.1
			c9.3-5.3,17-18.3,17.1-29c0-4.9-1.5-8.5-4.3-10.2c0,0-0.1,0-0.1-0.1l0,0l-34.7-20.5c0,0,0,0,0,0c-2.9-1.7-6.8-1.3-11.1,1.1
			c-9.3,5.3-17,18.3-17.1,29c-0.1,4.9,1.5,8.5,4.3,10.2c0,0,0,0,0.1,0L218.1,254.2C218.1,254.1,218.1,254.1,218.1,254.2L218.1,254.2
			z"/>
	</g>
	<g>
		<path style="fill:#0A2E3D;" d="M199.9,235.7c-0.2,0-0.4-0.1-0.6-0.2L190,230c-0.6-0.4-0.8-1.1-0.4-1.7c0.4-0.6,1.1-0.8,1.7-0.4
			l9.3,5.5c0.6,0.4,0.8,1.1,0.4,1.7C200.7,235.5,200.3,235.7,199.9,235.7z"/>
	</g>
	<g>
		<path style="fill:#0A2E3D;" d="M207.6,240.2c-0.2,0-0.4-0.1-0.6-0.2l-3.6-2.1c-0.6-0.4-0.8-1.1-0.4-1.7c0.4-0.6,1.1-0.8,1.7-0.4
			l3.6,2.1c0.6,0.4,0.8,1.1,0.4,1.7C208.4,240,208,240.2,207.6,240.2z"/>
	</g>
	<g>
		<path style="fill:#0F2F3C;" d="M188.5,88.1c0.2,0.1,0.5,0.1,0.8,0.1c0.3,0,0.5,0,0.7,0c0.4,0,0.7-0.1,1-0.2s0.6-0.3,0.9-0.5
			s0.4-0.5,0.6-0.8s0.2-0.7,0.2-1.1c0-0.3-0.1-0.5-0.2-0.8c-0.1-0.3-0.3-0.6-0.5-0.8c-0.2-0.2-0.5-0.4-0.9-0.6
			c-0.3-0.2-0.8-0.2-1.2-0.2h-0.8v-1.5h0.8c0.4,0,0.8-0.1,1.1-0.2s0.6-0.3,0.8-0.5c0.2-0.2,0.4-0.4,0.4-0.7c0.1-0.3,0.1-0.6,0.1-0.9
			c0-0.6-0.2-1.2-0.7-1.5s-1.1-0.6-1.8-0.6c-0.7,0-1.3,0.2-1.7,0.7c-0.4,0.5-0.7,1.1-0.7,1.8v9.6h-1.6V80c0-0.6,0.1-1.1,0.3-1.6
			c0.2-0.5,0.5-0.9,0.8-1.3s0.8-0.6,1.3-0.8s1-0.3,1.7-0.3c0.6,0,1.1,0.1,1.6,0.3c0.5,0.2,0.9,0.4,1.3,0.7c0.4,0.3,0.7,0.7,0.9,1.1
			c0.2,0.4,0.3,0.9,0.3,1.5c0,0.8-0.2,1.4-0.6,1.9c-0.4,0.5-0.9,0.9-1.6,1.1c0.7,0.2,1.3,0.6,1.8,1.2s0.7,1.2,0.7,2
			c0,0.7-0.1,1.3-0.4,1.7c-0.2,0.5-0.6,0.9-1,1.2c-0.4,0.3-0.9,0.6-1.4,0.7c-0.5,0.2-1.1,0.2-1.6,0.2c-0.3,0-0.6,0-0.9-0.1
			c-0.3,0-0.5-0.1-0.6-0.2V88.1z"/>
	</g>
	<g>
		<path style="fill:#0A2E3D;" d="M120.3,249.5c-0.7,0-1.2-0.6-1.2-1.2v-24.8c0-0.7,0.6-1.2,1.2-1.2s1.2,0.6,1.2,1.2v24.8
			C121.6,248.9,121,249.5,120.3,249.5z"/>
	</g>
	<g>
		<path style="fill:#0A2E3D;" d="M120.3,82.2c-0.7,0-1.2-0.6-1.2-1.2v-4.5c0-0.7,0.6-1.2,1.2-1.2s1.2,0.6,1.2,1.2V81
			C121.6,81.7,121,82.2,120.3,82.2z"/>
	</g>
	<g>
		<g>
			<path style="fill:#0A2E3D;" d="M51.8,271.2c-0.5,0-0.9-0.4-0.9-0.9v-0.9c0-0.5,0.4-0.9,0.9-0.9s0.9,0.4,0.9,0.9v0.9
				C52.7,270.8,52.3,271.2,51.8,271.2z M51.8,265.6c-0.5,0-0.9-0.4-0.9-0.9v-0.9c0-0.5,0.4-0.9,0.9-0.9s0.9,0.4,0.9,0.9v0.9
				C52.7,265.2,52.3,265.6,51.8,265.6z M51.8,260c-0.5,0-0.9-0.4-0.9-0.9v-0.9c0-0.5,0.4-0.9,0.9-0.9s0.9,0.4,0.9,0.9v0.9
				C52.7,259.6,52.3,260,51.8,260z M51.8,254.4c-0.5,0-0.9-0.4-0.9-0.9v-0.9c0-0.5,0.4-0.9,0.9-0.9s0.9,0.4,0.9,0.9v0.9
				C52.7,254,52.3,254.4,51.8,254.4z M51.8,248.8c-0.5,0-0.9-0.4-0.9-0.9V247c0-0.5,0.4-0.9,0.9-0.9s0.9,0.4,0.9,0.9v0.9
				C52.7,248.4,52.3,248.8,51.8,248.8z M51.8,243.2c-0.5,0-0.9-0.4-0.9-0.9v-0.9c0-0.5,0.4-0.9,0.9-0.9s0.9,0.4,0.9,0.9v0.9
				C52.7,242.8,52.3,243.2,51.8,243.2z M51.8,237.6c-0.5,0-0.9-0.4-0.9-0.9v-0.9c0-0.5,0.4-0.9,0.9-0.9s0.9,0.4,0.9,0.9v0.9
				C52.7,237.2,52.3,237.6,51.8,237.6z M51.8,232c-0.5,0-0.9-0.4-0.9-0.9v-0.9c0-0.5,0.4-0.9,0.9-0.9s0.9,0.4,0.9,0.9v0.9
				C52.7,231.6,52.3,232,51.8,232z M51.8,226.5c-0.5,0-0.9-0.4-0.9-0.9v-0.9c0-0.5,0.4-0.9,0.9-0.9s0.9,0.4,0.9,0.9v0.9
				C52.7,226,52.3,226.5,51.8,226.5z M51.8,220.9c-0.5,0-0.9-0.4-0.9-0.9V219c0-0.5,0.4-0.9,0.9-0.9s0.9,0.4,0.9,0.9v0.9
				C52.7,220.5,52.3,220.9,51.8,220.9z M51.8,215.3c-0.5,0-0.9-0.4-0.9-0.9v-0.9c0-0.5,0.4-0.9,0.9-0.9s0.9,0.4,0.9,0.9v0.9
				C52.7,214.9,52.3,215.3,51.8,215.3z M51.8,209.7c-0.5,0-0.9-0.4-0.9-0.9v-0.9c0-0.5,0.4-0.9,0.9-0.9s0.9,0.4,0.9,0.9v0.9
				C52.7,209.3,52.3,209.7,51.8,209.7z M51.8,204.1c-0.5,0-0.9-0.4-0.9-0.9v-0.9c0-0.5,0.4-0.9,0.9-0.9s0.9,0.4,0.9,0.9v0.9
				C52.7,203.7,52.3,204.1,51.8,204.1z M51.8,198.5c-0.5,0-0.9-0.4-0.9-0.9v-0.9c0-0.5,0.4-0.9,0.9-0.9s0.9,0.4,0.9,0.9v0.9
				C52.7,198.1,52.3,198.5,51.8,198.5z M51.8,192.9c-0.5,0-0.9-0.4-0.9-0.9V191c0-0.5,0.4-0.9,0.9-0.9s0.9,0.4,0.9,0.9v0.9
				C52.7,192.5,52.3,192.9,51.8,192.9z M51.8,187.3c-0.5,0-0.9-0.4-0.9-0.9v-0.9c0-0.5,0.4-0.9,0.9-0.9s0.9,0.4,0.9,0.9v0.9
				C52.7,186.9,52.3,187.3,51.8,187.3z M51.8,181.7c-0.5,0-0.9-0.4-0.9-0.9v-0.9c0-0.5,0.4-0.9,0.9-0.9s0.9,0.4,0.9,0.9v0.9
				C52.7,181.3,52.3,181.7,51.8,181.7z M51.8,176.1c-0.5,0-0.9-0.4-0.9-0.9v-0.9c0-0.5,0.4-0.9,0.9-0.9s0.9,0.4,0.9,0.9v0.9
				C52.7,175.7,52.3,176.1,51.8,176.1z"/>
		</g>
		<g>
			<path style="fill:#0A2E3D;" d="M120.3,271.6c-0.5,0-0.9-0.4-0.9-0.9v-0.9c0-0.5,0.4-0.9,0.9-0.9s0.9,0.4,0.9,0.9v0.9
				C121.3,271.2,120.8,271.6,120.3,271.6z M120.3,266.1c-0.5,0-0.9-0.4-0.9-0.9v-0.9c0-0.5,0.4-0.9,0.9-0.9s0.9,0.4,0.9,0.9v0.9
				C121.3,265.6,120.8,266.1,120.3,266.1z M120.3,260.5c-0.5,0-0.9-0.4-0.9-0.9v-0.9c0-0.5,0.4-0.9,0.9-0.9s0.9,0.4,0.9,0.9v0.9
				C121.3,260,120.8,260.5,120.3,260.5z M120.3,254.9c-0.5,0-0.9-0.4-0.9-0.9V253c0-0.5,0.4-0.9,0.9-0.9s0.9,0.4,0.9,0.9v0.9
				C121.3,254.5,120.8,254.9,120.3,254.9z"/>
		</g>
		<g>
			<path style="fill:#0A2E3D;" d="M86,104c-0.5,0-0.9-0.4-0.9-0.9v-0.9c0-0.5,0.4-0.9,0.9-0.9s0.9,0.4,0.9,0.9v0.9
				C87,103.6,86.6,104,86,104z M86,98.4c-0.5,0-0.9-0.4-0.9-0.9v-0.9c0-0.5,0.4-0.9,0.9-0.9S87,96,87,96.5v0.9
				C87,98,86.6,98.4,86,98.4z M86,92.8c-0.5,0-0.9-0.4-0.9-0.9V91c0-0.5,0.4-0.9,0.9-0.9S87,90.4,87,91v0.9
				C87,92.4,86.6,92.8,86,92.8z M86,87.2c-0.5,0-0.9-0.4-0.9-0.9v-0.9c0-0.5,0.4-0.9,0.9-0.9s0.9,0.4,0.9,0.9v0.9
				C87,86.8,86.6,87.2,86,87.2z M86,81.6c-0.5,0-0.9-0.4-0.9-0.9v-0.9c0-0.5,0.4-0.9,0.9-0.9s0.9,0.4,0.9,0.9v0.9
				C87,81.2,86.6,81.6,86,81.6z M86,76c-0.5,0-0.9-0.4-0.9-0.9v-0.9c0-0.5,0.4-0.9,0.9-0.9s0.9,0.4,0.9,0.9v0.9
				C87,75.6,86.6,76,86,76z M86,70.5c-0.5,0-0.9-0.4-0.9-0.9v-0.9c0-0.5,0.4-0.9,0.9-0.9s0.9,0.4,0.9,0.9v0.9
				C87,70,86.6,70.5,86,70.5z M86,64.9c-0.5,0-0.9-0.4-0.9-0.9V63c0-0.5,0.4-0.9,0.9-0.9S87,62.5,87,63v0.9
				C87,64.4,86.6,64.9,86,64.9z"/>
		</g>
		<g>
			<path style="fill:#0A2E3D;" d="M154.7,104c-0.5,0-0.9-0.4-0.9-0.9v-0.9c0-0.5,0.4-0.9,0.9-0.9s0.9,0.4,0.9,0.9v0.9
				C155.7,103.6,155.3,104,154.7,104z M154.7,98.4c-0.5,0-0.9-0.4-0.9-0.9v-0.9c0-0.5,0.4-0.9,0.9-0.9s0.9,0.4,0.9,0.9v0.9
				C155.7,98,155.3,98.4,154.7,98.4z M154.7,92.8c-0.5,0-0.9-0.4-0.9-0.9V91c0-0.5,0.4-0.9,0.9-0.9s0.9,0.4,0.9,0.9v0.9
				C155.7,92.4,155.3,92.8,154.7,92.8z M154.7,87.2c-0.5,0-0.9-0.4-0.9-0.9v-0.9c0-0.5,0.4-0.9,0.9-0.9s0.9,0.4,0.9,0.9v0.9
				C155.7,86.8,155.3,87.2,154.7,87.2z M154.7,81.6c-0.5,0-0.9-0.4-0.9-0.9v-0.9c0-0.5,0.4-0.9,0.9-0.9s0.9,0.4,0.9,0.9v0.9
				C155.7,81.2,155.3,81.6,154.7,81.6z M154.7,76c-0.5,0-0.9-0.4-0.9-0.9v-0.9c0-0.5,0.4-0.9,0.9-0.9s0.9,0.4,0.9,0.9v0.9
				C155.7,75.6,155.3,76,154.7,76z M154.7,70.5c-0.5,0-0.9-0.4-0.9-0.9v-0.9c0-0.5,0.4-0.9,0.9-0.9s0.9,0.4,0.9,0.9v0.9
				C155.7,70,155.3,70.5,154.7,70.5z M154.7,64.9c-0.5,0-0.9-0.4-0.9-0.9V63c0-0.5,0.4-0.9,0.9-0.9s0.9,0.4,0.9,0.9v0.9
				C155.7,64.4,155.3,64.9,154.7,64.9z"/>
		</g>
		<g>
			<path style="fill:#0A2E3D;" d="M202.2,189.6c-0.2,0-0.3,0-0.5-0.1l-0.6-0.3c-0.4-0.3-0.6-0.8-0.3-1.3c0.3-0.4,0.8-0.6,1.3-0.3
				l0.6,0.3c0.4,0.3,0.6,0.8,0.3,1.3C202.8,189.4,202.5,189.6,202.2,189.6z M197.6,186.9c-0.2,0-0.3,0-0.5-0.1l-0.8-0.5
				c-0.4-0.3-0.6-0.8-0.3-1.3s0.8-0.6,1.3-0.3l0.8,0.5c0.4,0.3,0.6,0.8,0.3,1.3C198.2,186.8,197.9,186.9,197.6,186.9z M192.8,184.1
				c-0.2,0-0.3,0-0.5-0.1l-0.8-0.5c-0.4-0.3-0.6-0.8-0.3-1.3c0.3-0.4,0.8-0.6,1.3-0.3l0.8,0.5c0.4,0.3,0.6,0.8,0.3,1.3
				C193.4,183.9,193.1,184.1,192.8,184.1z M188,181.3c-0.2,0-0.3,0-0.5-0.1l-0.8-0.5c-0.4-0.3-0.6-0.8-0.3-1.3
				c0.3-0.4,0.8-0.6,1.3-0.3l0.8,0.5c0.4,0.3,0.6,0.8,0.3,1.3C188.6,181.1,188.3,181.3,188,181.3z M183.1,178.5
				c-0.2,0-0.3,0-0.5-0.1l-0.8-0.5c-0.4-0.3-0.6-0.8-0.3-1.3c0.3-0.4,0.8-0.6,1.3-0.3l0.8,0.5c0.4,0.3,0.6,0.8,0.3,1.3
				C183.8,178.3,183.5,178.5,183.1,178.5z M178.3,175.6c-0.2,0-0.3,0-0.5-0.1L177,175c-0.4-0.3-0.6-0.8-0.3-1.3
				c0.3-0.4,0.8-0.6,1.3-0.3l0.8,0.5c0.4,0.3,0.6,0.8,0.3,1.3C178.9,175.5,178.6,175.6,178.3,175.6z M173.5,172.8
				c-0.2,0-0.3,0-0.5-0.1l-0.8-0.5c-0.4-0.3-0.6-0.8-0.3-1.3c0.3-0.4,0.8-0.6,1.3-0.3l0.8,0.5c0.4,0.3,0.6,0.8,0.3,1.3
				C174.1,172.7,173.8,172.8,173.5,172.8z"/>
		</g>
		<g>
			<path style="fill:#0A2E3D;" d="M177.1,232.1c-0.2,0-0.3,0-0.5-0.1l-0.3-0.2c-0.4-0.3-0.6-0.8-0.3-1.3c0.3-0.4,0.8-0.6,1.3-0.3
				l0.3,0.2c0.4,0.3,0.6,0.8,0.3,1.3C177.7,231.9,177.4,232.1,177.1,232.1z M172.7,229.6c-0.2,0-0.3,0-0.5-0.1l-0.8-0.5
				c-0.4-0.3-0.6-0.8-0.3-1.3s0.8-0.6,1.3-0.3l0.8,0.5c0.4,0.3,0.6,0.8,0.3,1.3C173.4,229.4,173.1,229.6,172.7,229.6z M167.9,226.8
				c-0.2,0-0.3,0-0.5-0.1l-0.8-0.5c-0.4-0.3-0.6-0.8-0.3-1.3c0.3-0.4,0.8-0.6,1.3-0.3l0.8,0.5c0.4,0.3,0.6,0.8,0.3,1.3
				C168.5,226.7,168.2,226.8,167.9,226.8z M163.1,224c-0.2,0-0.3,0-0.5-0.1l-0.8-0.5c-0.4-0.3-0.6-0.8-0.3-1.3s0.8-0.6,1.3-0.3
				l0.8,0.5c0.4,0.3,0.6,0.8,0.3,1.3C163.7,223.9,163.4,224,163.1,224z M158.2,221.2c-0.2,0-0.3,0-0.5-0.1l-0.8-0.5
				c-0.4-0.3-0.6-0.8-0.3-1.3s0.8-0.6,1.3-0.3l0.8,0.5c0.4,0.3,0.6,0.8,0.3,1.3C158.9,221.1,158.5,221.2,158.2,221.2z M153.4,218.4
				c-0.2,0-0.3,0-0.5-0.1l-0.8-0.5c-0.4-0.3-0.6-0.8-0.3-1.3c0.3-0.4,0.8-0.6,1.3-0.3l0.8,0.5c0.4,0.3,0.6,0.8,0.3,1.3
				C154,218.3,153.7,218.4,153.4,218.4z M148.5,215.6c-0.2,0-0.3,0-0.5-0.1l-0.8-0.5c-0.4-0.3-0.6-0.8-0.3-1.3
				c0.3-0.4,0.8-0.6,1.3-0.3l0.8,0.5c0.4,0.3,0.6,0.8,0.3,1.3C149.2,215.5,148.9,215.6,148.5,215.6z"/>
		</g>
	</g>
	<g>
		<g>
			<path style="fill:#0A2E3D;" d="M225.6,249.3c-0.4,0-0.9-0.2-1.1-0.6c-0.3-0.6-0.1-1.4,0.5-1.7c7.6-4.3,13.9-14.9,14-23.7
				c0-0.7,0.6-1.3,1.3-1.2c0.7,0,1.2,0.6,1.2,1.3c-0.1,9.6-7,21.2-15.3,25.9C226,249.2,225.8,249.3,225.6,249.3z"/>
		</g>
	</g>
	<g>
		<path style="fill:none;stroke:#0A2E3D;stroke-width:2.5;stroke-linecap:round;stroke-linejoin:round;stroke-miterlimit:10;" d="
			M120.3,168.9"/>
	</g>
</g>
</svg>
