<?xml version="1.0" encoding="utf-8"?>
<!-- Generator: Adobe Illustrator 18.0.0, SVG Export Plug-In . SVG Version: 6.00 Build 0)  -->
<!DOCTYPE svg PUBLIC "-//W3C//DTD SVG 1.1//EN" "http://www.w3.org/Graphics/SVG/1.1/DTD/svg11.dtd">
<svg version="1.1" id="Layer_1" xmlns="http://www.w3.org/2000/svg" xmlns:xlink="http://www.w3.org/1999/xlink" x="0px" y="0px"
	 viewBox="0 0 287.8 320" style="enable-background:new 0 0 287.8 320;" xml:space="preserve">
<g>
	<g>
		<path style="fill:#0A2E3D;" d="M245.9,19.4c-0.3,0-0.5-0.2-0.5-0.5V2.4c0-0.3,0.2-0.5,0.5-0.5s0.5,0.2,0.5,0.5v16.5
			C246.4,19.2,246.2,19.4,245.9,19.4z"/>
	</g>
	<g>
		<path style="fill:#0A2E3D;" d="M245.9,19.7l-6.8-6.9c-0.2-0.2-0.2-0.6,0-0.8c0.2-0.2,0.6-0.2,0.8,0l6,6.1l6-6.1
			c0.2-0.2,0.6-0.2,0.8,0c0.2,0.2,0.2,0.6,0,0.8L245.9,19.7z"/>
	</g>
</g>
<g>
	<g>
		<path style="fill:#0A2E3D;" d="M37.9,313.9c-0.3,0-0.5-0.2-0.5-0.5v-16.5c0-0.3,0.2-0.5,0.5-0.5s0.5,0.2,0.5,0.5v16.5
			C38.4,313.7,38.2,313.9,37.9,313.9z"/>
	</g>
	<g>
		<path style="fill:#0A2E3D;" d="M37.9,314.1l-6.8-6.9c-0.2-0.2-0.2-0.6,0-0.8c0.2-0.2,0.6-0.2,0.8,0l6,6.1l6-6.1
			c0.2-0.2,0.6-0.2,0.8,0c0.2,0.2,0.2,0.6,0,0.8L37.9,314.1z"/>
	</g>
</g>
<g>
	<path style="fill:#0A2E3D;" d="M208.3,254h-1c-0.6,0-1-0.5-1-1s0.5-1,1-1h1c0.6,0,1,0.5,1,1S208.9,254,208.3,254z M213.4,254
		c-0.6,0-1-0.4-1-1c0-0.6,0.4-1,1-1c0.3,0,0.7,0,1,0c0.6,0,1,0.4,1.1,1c0,0.6-0.4,1-1,1.1C214.2,253.9,213.8,254,213.4,254
		C213.5,254,213.4,254,213.4,254z M219.5,253.4c-0.5,0-0.9-0.4-1-0.9c-0.1-0.6,0.3-1.1,0.8-1.2c0.3-0.1,0.7-0.1,1-0.2
		c0.6-0.1,1.1,0.3,1.2,0.8c0.1,0.6-0.3,1.1-0.8,1.2c-0.3,0.1-0.7,0.1-1,0.2C219.6,253.4,219.6,253.4,219.5,253.4z M225.5,252.1
		c-0.4,0-0.8-0.3-1-0.7c-0.2-0.5,0.1-1.1,0.7-1.3c0.3-0.1,0.6-0.2,1-0.3c0.5-0.2,1.1,0.1,1.3,0.7c0.2,0.5-0.1,1.1-0.7,1.3
		c-0.3,0.1-0.7,0.2-1,0.3C225.7,252,225.6,252.1,225.5,252.1z M231.2,249.9c-0.4,0-0.8-0.2-0.9-0.6c-0.2-0.5,0-1.1,0.5-1.4
		c0.3-0.1,0.6-0.3,0.9-0.4c0.5-0.2,1.1,0,1.4,0.5c0.2,0.5,0,1.1-0.5,1.4c-0.3,0.2-0.6,0.3-0.9,0.4
		C231.5,249.9,231.3,249.9,231.2,249.9z M236.6,247c-0.3,0-0.7-0.2-0.9-0.5c-0.3-0.5-0.2-1.1,0.3-1.4c0.3-0.2,0.6-0.4,0.8-0.5
		c0.5-0.3,1.1-0.2,1.4,0.3c0.3,0.5,0.2,1.1-0.3,1.4c-0.3,0.2-0.6,0.4-0.9,0.6C236.9,246.9,236.8,247,236.6,247z M241.5,243.3
		c-0.3,0-0.6-0.1-0.8-0.4c-0.4-0.4-0.3-1.1,0.1-1.4c0.3-0.2,0.5-0.4,0.8-0.7c0.4-0.4,1.1-0.3,1.4,0.1c0.4,0.4,0.3,1.1-0.1,1.4
		c-0.3,0.2-0.5,0.5-0.8,0.7C242,243.3,241.7,243.3,241.5,243.3z M245.9,239.1c-0.2,0-0.5-0.1-0.7-0.3c-0.4-0.4-0.5-1-0.1-1.4
		c0.2-0.2,0.4-0.5,0.7-0.8c0.4-0.4,1-0.5,1.4-0.1c0.4,0.4,0.5,1,0.1,1.4c-0.2,0.3-0.5,0.5-0.7,0.8
		C246.4,239,246.1,239.1,245.9,239.1z M249.6,234.3c-0.2,0-0.4-0.1-0.6-0.2c-0.5-0.3-0.6-1-0.3-1.4c0.2-0.3,0.4-0.6,0.5-0.8
		c0.3-0.5,0.9-0.6,1.4-0.3c0.5,0.3,0.6,0.9,0.3,1.4c-0.2,0.3-0.4,0.6-0.6,0.9C250.3,234.1,250,234.3,249.6,234.3z M252.7,229
		c-0.2,0-0.3,0-0.5-0.1c-0.5-0.3-0.7-0.9-0.5-1.4c0.1-0.3,0.3-0.6,0.4-0.9c0.2-0.5,0.8-0.7,1.4-0.5c0.5,0.2,0.7,0.8,0.5,1.4
		c-0.1,0.3-0.3,0.6-0.5,0.9C253.4,228.8,253.1,229,252.7,229z M255,223.3c-0.1,0-0.2,0-0.3-0.1c-0.5-0.2-0.8-0.8-0.6-1.3
		c0.1-0.3,0.2-0.6,0.3-1c0.2-0.5,0.7-0.8,1.3-0.7c0.5,0.2,0.8,0.7,0.7,1.3c-0.1,0.3-0.2,0.7-0.3,1C255.9,223,255.5,223.3,255,223.3z
		 M256.6,217.4c-0.1,0-0.1,0-0.2,0c-0.6-0.1-0.9-0.6-0.8-1.2c0.1-0.3,0.1-0.7,0.2-1c0.1-0.6,0.6-0.9,1.2-0.8
		c0.6,0.1,0.9,0.6,0.8,1.2c-0.1,0.3-0.1,0.7-0.2,1C257.5,217,257,217.4,256.6,217.4z M257.3,211.3
		C257.2,211.3,257.2,211.3,257.3,211.3c-0.6,0-1-0.5-1-1.1c0-0.3,0-0.7,0-1c0-0.6,0.5-1,1-1c0,0,0,0,0,0c0.6,0,1,0.5,1,1
		c0,0.3,0,0.7,0,1C258.3,210.9,257.8,211.3,257.3,211.3z M257.1,205.2c-0.5,0-1-0.4-1-0.9c0-0.3-0.1-0.7-0.1-1
		c-0.1-0.6,0.3-1.1,0.9-1.1c0.6-0.1,1.1,0.3,1.1,0.9c0,0.3,0.1,0.7,0.1,1C258.2,204.6,257.8,205.1,257.1,205.2
		C257.2,205.2,257.2,205.2,257.1,205.2z M256.2,199.2c-0.5,0-0.9-0.3-1-0.8c-0.1-0.3-0.2-0.6-0.2-1c-0.1-0.5,0.2-1.1,0.7-1.2
		c0.5-0.1,1.1,0.2,1.2,0.7c0.1,0.3,0.2,0.7,0.2,1c0.1,0.5-0.2,1.1-0.8,1.2C256.3,199.1,256.3,199.2,256.2,199.2z M254.4,193.3
		c-0.4,0-0.8-0.3-1-0.7c-0.1-0.3-0.2-0.6-0.4-0.9c-0.2-0.5,0-1.1,0.6-1.3c0.5-0.2,1.1,0,1.3,0.6c0.1,0.3,0.3,0.6,0.4,1
		c0.2,0.5-0.1,1.1-0.6,1.3C254.7,193.3,254.5,193.3,254.4,193.3z M251.9,187.7c-0.4,0-0.7-0.2-0.9-0.5c-0.2-0.3-0.3-0.6-0.5-0.9
		c-0.3-0.5-0.1-1.1,0.4-1.4c0.5-0.3,1.1-0.1,1.4,0.4c0.2,0.3,0.3,0.6,0.5,0.9c0.3,0.5,0.1,1.1-0.4,1.4
		C252.2,187.7,252,187.7,251.9,187.7z M248.6,182.6c-0.3,0-0.6-0.1-0.8-0.4c-0.2-0.3-0.4-0.5-0.6-0.8c-0.3-0.4-0.3-1.1,0.2-1.4
		c0.4-0.3,1.1-0.3,1.4,0.2c0.2,0.3,0.4,0.6,0.6,0.8c0.3,0.5,0.2,1.1-0.2,1.4C249,182.5,248.8,182.6,248.6,182.6z M244.6,177.9
		c-0.3,0-0.5-0.1-0.7-0.3c-0.2-0.2-0.5-0.5-0.7-0.7c-0.4-0.4-0.4-1,0-1.4c0.4-0.4,1-0.4,1.4,0c0.2,0.2,0.5,0.5,0.7,0.7
		c0.4,0.4,0.4,1,0,1.4C245.2,177.8,244.9,177.9,244.6,177.9z M240.1,173.8c-0.2,0-0.4-0.1-0.6-0.2c-0.3-0.2-0.5-0.4-0.8-0.6
		c-0.5-0.3-0.5-1-0.2-1.4c0.3-0.5,1-0.5,1.4-0.2c0.3,0.2,0.6,0.4,0.8,0.6c0.4,0.3,0.5,1,0.2,1.4
		C240.7,173.7,240.4,173.8,240.1,173.8z M235,170.4c-0.2,0-0.3,0-0.5-0.1c-0.3-0.2-0.6-0.3-0.9-0.5c-0.5-0.3-0.7-0.9-0.4-1.4
		c0.3-0.5,0.9-0.7,1.4-0.4c0.3,0.2,0.6,0.3,0.9,0.5c0.5,0.3,0.7,0.9,0.4,1.4C235.7,170.2,235.4,170.4,235,170.4z M229.6,167.7
		c-0.1,0-0.3,0-0.4-0.1c-0.3-0.1-0.6-0.2-0.9-0.4c-0.5-0.2-0.8-0.8-0.6-1.3c0.2-0.5,0.8-0.8,1.3-0.6c0.3,0.1,0.6,0.3,1,0.4
		c0.5,0.2,0.8,0.8,0.6,1.3C230.3,167.5,230,167.7,229.6,167.7z M223.7,165.8c-0.1,0-0.2,0-0.3,0c-0.3-0.1-0.6-0.2-1-0.2
		c-0.5-0.1-0.9-0.7-0.8-1.2c0.1-0.5,0.7-0.9,1.2-0.8c0.3,0.1,0.7,0.2,1,0.2c0.5,0.1,0.9,0.7,0.7,1.2
		C224.6,165.5,224.2,165.8,223.7,165.8z M217.7,164.6c0,0-0.1,0-0.1,0c-0.3,0-0.7-0.1-1-0.1c-0.6-0.1-1-0.5-0.9-1.1s0.5-1,1.1-0.9
		c0.3,0,0.7,0.1,1,0.1c0.6,0.1,1,0.6,0.9,1.1C218.7,164.3,218.2,164.6,217.7,164.6z M211.6,164.3h-1c-0.6,0-1-0.5-1-1s0.5-1,1-1h1
		c0.6,0,1,0.5,1,1S212.2,164.3,211.6,164.3z M205.5,164.3h-1c-0.6,0-1-0.5-1-1s0.5-1,1-1h1c0.6,0,1,0.5,1,1S206.1,164.3,205.5,164.3
		z M199.4,164.3h-1c-0.6,0-1-0.5-1-1s0.5-1,1-1h1c0.6,0,1,0.5,1,1S200,164.3,199.4,164.3z M193.3,164.3h-1c-0.6,0-1-0.5-1-1
		s0.5-1,1-1h1c0.6,0,1,0.5,1,1S193.8,164.3,193.3,164.3z M187.1,164.3h-1c-0.6,0-1-0.5-1-1s0.5-1,1-1h1c0.6,0,1,0.5,1,1
		S187.7,164.3,187.1,164.3z M181,164.3h-1c-0.6,0-1-0.5-1-1s0.5-1,1-1h1c0.6,0,1,0.5,1,1S181.6,164.3,181,164.3z M174.9,164.3h-1
		c-0.6,0-1-0.5-1-1s0.5-1,1-1h1c0.6,0,1,0.5,1,1S175.5,164.3,174.9,164.3z M168.8,164.3h-1c-0.6,0-1-0.5-1-1s0.5-1,1-1h1
		c0.6,0,1,0.5,1,1S169.3,164.3,168.8,164.3z M162.7,164.3h-1c-0.6,0-1-0.5-1-1s0.5-1,1-1h1c0.6,0,1,0.5,1,1S163.2,164.3,162.7,164.3
		z M156.5,164.3h-1c-0.6,0-1-0.5-1-1s0.5-1,1-1h1c0.6,0,1,0.5,1,1S157.1,164.3,156.5,164.3z M150.4,164.3h-1c-0.6,0-1-0.5-1-1
		s0.5-1,1-1h1c0.6,0,1,0.5,1,1S151,164.3,150.4,164.3z M144.3,164.3h-1c-0.6,0-1-0.5-1-1s0.5-1,1-1h1c0.6,0,1,0.5,1,1
		S144.9,164.3,144.3,164.3z M138.2,164.3h-1c-0.6,0-1-0.5-1-1s0.5-1,1-1h1c0.6,0,1,0.5,1,1S138.7,164.3,138.2,164.3z M132.1,164.3
		h-1c-0.6,0-1-0.5-1-1s0.5-1,1-1h1c0.6,0,1,0.5,1,1S132.6,164.3,132.1,164.3z M125.9,164.3h-1c-0.6,0-1-0.5-1-1s0.5-1,1-1h1
		c0.6,0,1,0.5,1,1S126.5,164.3,125.9,164.3z M119.8,164.3h-1c-0.6,0-1-0.5-1-1s0.5-1,1-1h1c0.6,0,1,0.5,1,1S120.4,164.3,119.8,164.3
		z M113.7,164.3h-1c-0.6,0-1-0.5-1-1s0.5-1,1-1h1c0.6,0,1,0.5,1,1S114.3,164.3,113.7,164.3z M107.6,164.3h-1c-0.6,0-1-0.5-1-1
		s0.5-1,1-1h1c0.6,0,1,0.5,1,1S108.1,164.3,107.6,164.3z M101.5,164.3h-1c-0.6,0-1-0.5-1-1s0.5-1,1-1h1c0.6,0,1,0.5,1,1
		S102,164.3,101.5,164.3z M95.3,164.3h-1c-0.6,0-1-0.5-1-1s0.5-1,1-1h1c0.6,0,1,0.5,1,1S95.9,164.3,95.3,164.3z M89.2,164.3h-1
		c-0.6,0-1-0.5-1-1s0.5-1,1-1h1c0.6,0,1,0.5,1,1S89.8,164.3,89.2,164.3z M83.1,164.3C83.1,164.3,83.1,164.3,83.1,164.3
		c-0.4,0-0.7,0-1.1,0c-0.6,0-1-0.5-1-1.1c0-0.6,0.5-1,1.1-1c0.3,0,0.7,0,1,0c0.6,0,1,0.5,1,1.1C84.1,163.9,83.6,164.3,83.1,164.3z
		 M77,163.7c-0.1,0-0.1,0-0.2,0c-0.3-0.1-0.7-0.1-1-0.2c-0.6-0.1-0.9-0.6-0.8-1.2c0.1-0.6,0.6-0.9,1.2-0.8c0.3,0.1,0.7,0.1,1,0.2
		c0.6,0.1,0.9,0.6,0.8,1.2C77.9,163.3,77.5,163.7,77,163.7z M71.1,162.2c-0.1,0-0.2,0-0.3,0c-0.3-0.1-0.7-0.2-1-0.3
		c-0.5-0.2-0.8-0.8-0.6-1.3c0.2-0.5,0.8-0.8,1.3-0.6c0.3,0.1,0.6,0.2,0.9,0.3c0.5,0.2,0.8,0.7,0.7,1.3
		C71.9,161.9,71.5,162.2,71.1,162.2z M65.4,160c-0.1,0-0.3,0-0.4-0.1c-0.3-0.1-0.6-0.3-0.9-0.5c-0.5-0.3-0.7-0.9-0.4-1.4
		c0.3-0.5,0.9-0.7,1.4-0.4c0.3,0.2,0.6,0.3,0.9,0.4c0.5,0.2,0.7,0.9,0.5,1.4C66.1,159.7,65.8,160,65.4,160z M60.1,157
		c-0.2,0-0.4-0.1-0.6-0.2c-0.3-0.2-0.6-0.4-0.9-0.6c-0.5-0.3-0.6-1-0.3-1.4c0.3-0.5,1-0.6,1.4-0.3c0.3,0.2,0.5,0.4,0.8,0.6
		c0.5,0.3,0.6,0.9,0.3,1.4C60.7,156.8,60.4,157,60.1,157z M55.2,153.2c-0.2,0-0.5-0.1-0.7-0.3c-0.3-0.2-0.5-0.5-0.8-0.7
		c-0.4-0.4-0.4-1-0.1-1.4c0.4-0.4,1-0.4,1.4-0.1c0.2,0.2,0.5,0.4,0.7,0.7c0.4,0.4,0.5,1,0.1,1.4C55.8,153.1,55.5,153.2,55.2,153.2z
		 M50.9,148.9c-0.3,0-0.6-0.1-0.8-0.4c-0.2-0.3-0.5-0.5-0.7-0.8c-0.4-0.4-0.3-1.1,0.1-1.4c0.4-0.4,1.1-0.3,1.4,0.1
		c0.2,0.3,0.4,0.5,0.6,0.8c0.4,0.4,0.3,1.1-0.1,1.4C51.4,148.8,51.1,148.9,50.9,148.9z M47.2,144c-0.3,0-0.7-0.2-0.9-0.5
		c-0.2-0.3-0.4-0.6-0.6-0.9c-0.3-0.5-0.2-1.1,0.3-1.4c0.5-0.3,1.1-0.2,1.4,0.3c0.2,0.3,0.4,0.6,0.5,0.8c0.3,0.5,0.2,1.1-0.3,1.4
		C47.6,144,47.4,144,47.2,144z M44.2,138.7c-0.4,0-0.7-0.2-0.9-0.6c-0.1-0.3-0.3-0.6-0.4-0.9c-0.2-0.5,0-1.1,0.5-1.3
		c0.5-0.2,1.1,0,1.3,0.5c0.1,0.3,0.3,0.6,0.4,0.9c0.2,0.5,0,1.1-0.5,1.4C44.5,138.7,44.4,138.7,44.2,138.7z M42,133
		c-0.4,0-0.8-0.3-1-0.7c-0.1-0.3-0.2-0.7-0.3-1c-0.2-0.5,0.2-1.1,0.7-1.3c0.5-0.2,1.1,0.2,1.3,0.7c0.1,0.3,0.2,0.6,0.3,1
		c0.2,0.5-0.1,1.1-0.7,1.3C42.2,133,42.1,133,42,133z M40.5,127.1c-0.5,0-0.9-0.4-1-0.9c-0.1-0.3-0.1-0.7-0.2-1
		c-0.1-0.6,0.3-1.1,0.9-1.2c0.6-0.1,1.1,0.3,1.2,0.9c0,0.3,0.1,0.7,0.2,1c0.1,0.6-0.3,1.1-0.8,1.2C40.7,127.1,40.6,127.1,40.5,127.1
		z M39.9,121c-0.5,0-1-0.4-1-1c0-0.3,0-0.7,0-1c0-0.6,0.4-1,1-1c0,0,0,0,0,0c0.6,0,1,0.5,1,1c0,0.3,0,0.7,0,1
		C41,120.5,40.5,121,39.9,121C40,121,39.9,121,39.9,121z M40.2,114.9c0,0-0.1,0-0.1,0c-0.6-0.1-1-0.6-0.9-1.1c0-0.3,0.1-0.7,0.1-1
		c0.1-0.6,0.6-1,1.1-0.9c0.6,0.1,1,0.6,0.9,1.1c0,0.3-0.1,0.7-0.1,1C41.1,114.5,40.7,114.9,40.2,114.9z M41.2,108.8
		c-0.1,0-0.2,0-0.2,0c-0.5-0.1-0.9-0.7-0.7-1.2c0.1-0.3,0.2-0.7,0.3-1c0.1-0.5,0.7-0.9,1.2-0.7c0.5,0.1,0.9,0.7,0.7,1.3
		c-0.1,0.3-0.2,0.6-0.2,1C42.1,108.5,41.7,108.8,41.2,108.8z M43.1,103c-0.1,0-0.3,0-0.4-0.1c-0.5-0.2-0.8-0.8-0.6-1.3
		c0.1-0.3,0.3-0.6,0.4-1c0.2-0.5,0.8-0.8,1.3-0.5c0.5,0.2,0.8,0.8,0.5,1.3c-0.1,0.3-0.3,0.6-0.4,0.9C43.8,102.8,43.5,103,43.1,103z
		 M45.7,97.5c-0.2,0-0.3,0-0.5-0.1c-0.5-0.3-0.7-0.9-0.4-1.4c0.2-0.3,0.3-0.6,0.5-0.9c0.3-0.5,0.9-0.6,1.4-0.4
		c0.5,0.3,0.6,0.9,0.4,1.4c-0.2,0.3-0.3,0.6-0.5,0.9C46.4,97.3,46,97.5,45.7,97.5z M49,92.4c-0.2,0-0.4-0.1-0.6-0.2
		c-0.4-0.3-0.5-1-0.2-1.4c0.2-0.3,0.4-0.6,0.6-0.8c0.4-0.4,1-0.5,1.4-0.2c0.4,0.4,0.5,1,0.2,1.4c-0.2,0.3-0.4,0.5-0.6,0.8
		C49.7,92.3,49.4,92.4,49,92.4z M53.1,87.8c-0.3,0-0.5-0.1-0.7-0.3c-0.4-0.4-0.4-1,0-1.4c0.2-0.2,0.5-0.5,0.7-0.7
		c0.4-0.4,1.1-0.4,1.4,0c0.4,0.4,0.4,1.1,0,1.4c-0.2,0.2-0.5,0.5-0.7,0.7C53.6,87.7,53.3,87.8,53.1,87.8z M57.7,83.8
		c-0.3,0-0.6-0.1-0.8-0.4c-0.3-0.4-0.3-1.1,0.2-1.4c0.3-0.2,0.6-0.4,0.8-0.6c0.5-0.3,1.1-0.2,1.4,0.2c0.3,0.5,0.2,1.1-0.2,1.4
		c-0.3,0.2-0.5,0.4-0.8,0.6C58.1,83.7,57.9,83.8,57.7,83.8z M62.8,80.4c-0.4,0-0.7-0.2-0.9-0.5c-0.3-0.5-0.1-1.1,0.4-1.4
		c0.3-0.2,0.6-0.3,0.9-0.5c0.5-0.3,1.1-0.1,1.4,0.4c0.3,0.5,0.1,1.1-0.4,1.4c-0.3,0.2-0.6,0.3-0.9,0.5C63.1,80.4,63,80.4,62.8,80.4z
		 M68.3,77.8c-0.4,0-0.8-0.2-0.9-0.6c-0.2-0.5,0.1-1.1,0.6-1.3c0.3-0.1,0.6-0.3,1-0.4c0.5-0.2,1.1,0.1,1.3,0.6
		c0.2,0.5-0.1,1.1-0.6,1.3c-0.3,0.1-0.6,0.2-0.9,0.4C68.6,77.8,68.4,77.8,68.3,77.8z M74.2,76c-0.5,0-0.9-0.3-1-0.8
		c-0.1-0.5,0.2-1.1,0.8-1.2c0.3-0.1,0.7-0.2,1-0.2c0.6-0.1,1.1,0.2,1.2,0.8s-0.2,1.1-0.8,1.2c-0.3,0.1-0.6,0.1-1,0.2
		C74.3,76,74.2,76,74.2,76z M80.2,74.9c-0.5,0-1-0.4-1-0.9c-0.1-0.6,0.4-1.1,0.9-1.1c0.3,0,0.7-0.1,1-0.1c0.6-0.1,1.1,0.4,1.1,0.9
		c0,0.6-0.4,1.1-0.9,1.1c-0.3,0-0.7,0.1-1,0.1C80.3,74.9,80.2,74.9,80.2,74.9z M93.4,74.7h-1c-0.6,0-1-0.5-1-1s0.5-1,1-1h1
		c0.6,0,1,0.5,1,1S94,74.7,93.4,74.7z M87.3,74.7h-1c-0.6,0-1-0.5-1-1s0.5-1,1-1h1c0.6,0,1,0.5,1,1S87.9,74.7,87.3,74.7z"/>
</g>
<g>
	<g>
		<path style="fill:#0A2E3D;" d="M38.7,290.1c-0.1,0-0.1,0-0.2,0c-0.6-0.1-0.9-0.6-0.8-1.2c0.1-0.3,0.1-0.7,0.2-1
			c0.1-0.5,0.7-0.9,1.2-0.8c0.6,0.1,0.9,0.7,0.8,1.2c-0.1,0.3-0.1,0.6-0.2,1C39.6,289.7,39.2,290.1,38.7,290.1z M40.3,284.2
			c-0.1,0-0.2,0-0.3-0.1c-0.5-0.2-0.8-0.8-0.6-1.3c0.1-0.3,0.2-0.7,0.4-1c0.2-0.5,0.8-0.8,1.3-0.6c0.5,0.2,0.8,0.8,0.6,1.3
			c-0.1,0.3-0.2,0.6-0.3,0.9C41.1,283.9,40.7,284.2,40.3,284.2z M42.7,278.5c-0.2,0-0.3,0-0.5-0.1c-0.5-0.3-0.7-0.9-0.4-1.4
			c0.2-0.3,0.3-0.6,0.5-0.9c0.3-0.5,0.9-0.7,1.4-0.4c0.5,0.3,0.7,0.9,0.4,1.4c-0.2,0.3-0.3,0.6-0.5,0.9
			C43.4,278.3,43.1,278.5,42.7,278.5z M45.8,273.3c-0.2,0-0.4-0.1-0.6-0.2c-0.5-0.3-0.6-1-0.3-1.4c0.2-0.3,0.4-0.6,0.6-0.8
			c0.3-0.5,1-0.6,1.4-0.2c0.5,0.3,0.6,1,0.2,1.4c-0.2,0.3-0.4,0.5-0.6,0.8C46.5,273.1,46.1,273.3,45.8,273.3z M49.6,268.5
			c-0.2,0-0.5-0.1-0.7-0.3c-0.4-0.4-0.4-1-0.1-1.4c0.2-0.3,0.5-0.5,0.7-0.8c0.4-0.4,1-0.4,1.4,0c0.4,0.4,0.4,1,0,1.4
			c-0.2,0.2-0.5,0.5-0.7,0.7C50.2,268.4,49.9,268.5,49.6,268.5z M54.1,264.3c-0.3,0-0.6-0.1-0.8-0.4c-0.4-0.4-0.3-1.1,0.1-1.4
			c0.3-0.2,0.5-0.4,0.8-0.7c0.4-0.3,1.1-0.3,1.4,0.2c0.4,0.4,0.3,1.1-0.2,1.4c-0.3,0.2-0.5,0.4-0.8,0.6
			C54.5,264.2,54.3,264.3,54.1,264.3z M59,260.7c-0.3,0-0.7-0.2-0.9-0.5c-0.3-0.5-0.2-1.1,0.3-1.4c0.3-0.2,0.6-0.4,0.9-0.5
			c0.5-0.3,1.1-0.1,1.4,0.4c0.3,0.5,0.1,1.1-0.4,1.4c-0.3,0.2-0.6,0.3-0.9,0.5C59.4,260.7,59.2,260.7,59,260.7z M64.4,257.9
			c-0.4,0-0.8-0.2-0.9-0.6c-0.2-0.5,0-1.1,0.5-1.3c0.3-0.1,0.6-0.3,1-0.4c0.5-0.2,1.1,0,1.3,0.5c0.2,0.5,0,1.1-0.5,1.3
			c-0.3,0.1-0.6,0.3-0.9,0.4C64.7,257.8,64.6,257.9,64.4,257.9z M70.2,255.7c-0.4,0-0.8-0.3-1-0.7c-0.2-0.5,0.2-1.1,0.7-1.3
			c0.3-0.1,0.7-0.2,1-0.3c0.5-0.1,1.1,0.2,1.2,0.7c0.1,0.5-0.2,1.1-0.7,1.2c-0.3,0.1-0.6,0.2-1,0.3
			C70.4,255.7,70.3,255.7,70.2,255.7z M76.1,254.4c-0.5,0-0.9-0.4-1-0.9c-0.1-0.6,0.3-1.1,0.9-1.2c0.3-0.1,0.7-0.1,1-0.1
			c0.6-0.1,1.1,0.3,1.1,0.9c0.1,0.6-0.3,1.1-0.9,1.1c-0.3,0-0.7,0.1-1,0.1C76.2,254.4,76.2,254.4,76.1,254.4z M82.2,254
			c-0.6,0-1-0.5-1-1c0-0.6,0.5-1,1-1l1,0c0.6,0,1,0.5,1,1s-0.5,1-1,1L82.2,254C82.2,254,82.2,254,82.2,254z M89.4,254h-1
			c-0.6,0-1-0.5-1-1s0.5-1,1-1h1c0.6,0,1,0.5,1,1S89.9,254,89.4,254z"/>
	</g>
</g>
<g>
	<g>
		<path style="fill:#0A2E3D;" d="M204,75.3c-0.5,0-1-0.4-1-1c0-0.6,0.4-1,1-1.1c0.3,0,0.7,0,1-0.1c0.5-0.1,1.1,0.4,1.1,0.9
			c0,0.6-0.4,1.1-0.9,1.1C204.8,75.3,204.5,75.3,204,75.3C204.1,75.3,204.1,75.3,204,75.3z M210.1,74.6c-0.5,0-0.9-0.3-1-0.8
			c-0.1-0.6,0.2-1.1,0.8-1.2c0.3-0.1,0.7-0.1,1-0.2c0.5-0.1,1.1,0.2,1.2,0.8c0.1,0.6-0.2,1.1-0.8,1.2c-0.3,0.1-0.7,0.1-1,0.2
			C210.2,74.6,210.2,74.6,210.1,74.6z M216,73c-0.4,0-0.8-0.3-1-0.7c-0.2-0.5,0.1-1.1,0.6-1.3c0.3-0.1,0.6-0.2,0.9-0.3
			c0.5-0.2,1.1,0.1,1.3,0.6c0.2,0.5-0.1,1.1-0.6,1.3c-0.3,0.1-0.7,0.2-1,0.4C216.2,73,216.1,73,216,73z M221.7,70.6
			c-0.4,0-0.7-0.2-0.9-0.6c-0.3-0.5-0.1-1.1,0.4-1.4c0.3-0.2,0.6-0.3,0.9-0.5c0.5-0.3,1.1-0.1,1.4,0.4c0.3,0.5,0.1,1.1-0.4,1.4
			c-0.3,0.2-0.6,0.3-0.9,0.5C222,70.6,221.8,70.6,221.7,70.6z M226.9,67.5c-0.3,0-0.6-0.2-0.8-0.4c-0.3-0.5-0.2-1.1,0.3-1.4
			c0.3-0.2,0.5-0.4,0.8-0.6c0.5-0.3,1.1-0.2,1.4,0.2s0.2,1.1-0.2,1.4c-0.3,0.2-0.6,0.4-0.8,0.6C227.3,67.4,227.1,67.5,226.9,67.5z
			 M231.7,63.7c-0.3,0-0.5-0.1-0.8-0.3c-0.4-0.4-0.4-1.1,0.1-1.4c0.2-0.2,0.5-0.5,0.7-0.7c0.4-0.4,1.1-0.4,1.4,0
			c0.4,0.4,0.4,1.1,0,1.4c-0.2,0.2-0.5,0.5-0.8,0.7C232.2,63.6,231.9,63.7,231.7,63.7z M235.9,59.2c-0.2,0-0.5-0.1-0.6-0.2
			c-0.4-0.4-0.5-1-0.1-1.4c0.2-0.3,0.4-0.5,0.6-0.8c0.3-0.4,1-0.5,1.4-0.2c0.4,0.4,0.5,1,0.2,1.4c-0.2,0.3-0.4,0.5-0.7,0.8
			C236.5,59.1,236.2,59.2,235.9,59.2z M239.5,54.3c-0.2,0-0.4,0-0.5-0.2c-0.5-0.3-0.6-0.9-0.3-1.4c0.2-0.3,0.3-0.6,0.5-0.9
			c0.3-0.5,0.9-0.6,1.4-0.4c0.5,0.3,0.6,0.9,0.4,1.4c-0.2,0.3-0.4,0.6-0.5,0.9C240.1,54.1,239.8,54.3,239.5,54.3z M242.3,48.9
			c-0.1,0-0.3,0-0.4-0.1c-0.5-0.2-0.7-0.8-0.5-1.3c0.1-0.3,0.3-0.6,0.4-0.9c0.2-0.5,0.8-0.8,1.3-0.5c0.5,0.2,0.8,0.8,0.5,1.3
			c-0.1,0.3-0.3,0.6-0.4,1C243.1,48.6,242.7,48.9,242.3,48.9z M244.5,43.1c-0.1,0-0.2,0-0.3,0c-0.5-0.2-0.9-0.7-0.7-1.3
			c0.1-0.3,0.2-0.6,0.3-1c0.1-0.5,0.7-0.9,1.2-0.7c0.5,0.1,0.9,0.7,0.7,1.2c-0.1,0.3-0.2,0.7-0.3,1
			C245.3,42.8,244.9,43.1,244.5,43.1z M245.7,37.1c0,0-0.1,0-0.2,0c-0.6-0.1-0.9-0.6-0.9-1.2c0-0.3,0.1-0.7,0.1-1
			c0.1-0.6,0.6-0.9,1.1-0.9c0.6,0.1,1,0.6,0.9,1.1c0,0.3-0.1,0.7-0.1,1C246.7,36.8,246.2,37.1,245.7,37.1z M246.2,31
			C246.2,31,246.2,31,246.2,31c-0.6,0-1-0.5-1-1l0-1c0-0.6,0.5-1,1-1s1,0.5,1,1l0,1C247.2,30.6,246.8,31,246.2,31z"/>
	</g>
</g>
<g>
	<g>
		<path style="fill:#0A2E3D;" d="M148.6,127.1c-0.2,0-0.4-0.1-0.6-0.2L103.6,101c-0.4-0.2-0.6-0.6-0.6-1.1V48.1
			c0-0.4,0.2-0.9,0.6-1.1L148,21.2c0.4-0.2,0.9-0.2,1.3,0l44.4,25.9c0.4,0.2,0.6,0.6,0.6,1.1v51.8c0,0.4-0.2,0.9-0.6,1.1l-44.4,25.9
			C149,127,148.8,127.1,148.6,127.1z M105.5,99.2l43.1,25.2l43.1-25.2V48.9l-43.1-25.2l-43.1,25.2V99.2z"/>
	</g>
	<g>
		<path style="fill:#DCE2E4;" d="M191.8,48.7l-43.2,24.9l-43.2-24.9l43.2-25.1L191.8,48.7z"/>
	</g>
	<g>
		<path style="fill:#0A2E3D;" d="M148.6,127.1c-0.7,0-1.2-0.6-1.2-1.2v-19.2c0-0.7,0.6-1.2,1.2-1.2s1.2,0.6,1.2,1.2v19.2
			C149.9,126.5,149.3,127.1,148.6,127.1z"/>
	</g>
</g>
<g>
	<g>
		<path style="fill:#0A2E3D;" d="M148.6,299c-0.2,0-0.4-0.1-0.6-0.2l-47.9-27.9c-0.4-0.2-0.6-0.6-0.6-1.1v-55c0-0.4,0.2-0.9,0.6-1.1
			l47.9-27.9c0.4-0.2,0.9-0.2,1.3,0l47.9,27.9c0.4,0.2,0.6,0.6,0.6,1.1v55c0,0.4-0.2,0.9-0.6,1.1l-47.9,27.9
			C149,299,148.8,299,148.6,299z M102,269.1l46.6,27.2l46.6-27.2v-53.6l-46.6-27.2L102,215.5V269.1z"/>
	</g>
	<g>
		<g>
			<g>
				<polygon style="fill:#FFFFFF;" points="130.8,205.3 148.6,194.8 166.5,205.3 166.5,226.1 148.6,236.5 130.8,226.1 				"/>
				<path style="fill:#0A2E3D;" d="M148.6,237.3c-0.1,0-0.3,0-0.4-0.1l-17.9-10.4c-0.3-0.2-0.4-0.4-0.4-0.7v-20.8
					c0-0.3,0.2-0.6,0.4-0.7l17.9-10.4c0.3-0.2,0.6-0.2,0.9,0l17.9,10.4c0.3,0.2,0.4,0.4,0.4,0.7v20.8c0,0.3-0.2,0.6-0.4,0.7
					L149,237.2C148.9,237.3,148.8,237.3,148.6,237.3z M131.6,225.6l17,9.9l17-9.9v-19.8l-17-9.9l-17,9.9V225.6z"/>
			</g>
			<g>
				<path style="fill:#DCE2E4;" d="M165.7,205.7l-17.1,9.8l-17.1-9.8l17.1-9.9L165.7,205.7z"/>
			</g>
			<g>
				<line style="fill:#FFFFFF;" x1="148.6" y1="228.8" x2="148.6" y2="236.5"/>
				<path style="fill:#0A2E3D;" d="M148.6,237.3c-0.5,0-0.9-0.4-0.9-0.8v-7.7c0-0.5,0.4-0.8,0.9-0.8s0.9,0.4,0.9,0.8v7.7
					C149.5,237,149.1,237.3,148.6,237.3z"/>
			</g>
		</g>
		<g>
			<g>
				<polygon style="fill:#FFFFFF;" points="153.9,244.8 171.7,234.4 189.6,244.8 189.6,265.6 171.7,276 153.9,265.6 				"/>
				<path style="fill:#0A2E3D;" d="M171.7,276.9c-0.1,0-0.3,0-0.4-0.1l-17.8-10.4c-0.3-0.2-0.4-0.4-0.4-0.7v-20.8
					c0-0.3,0.2-0.6,0.4-0.7l17.8-10.4c0.3-0.2,0.6-0.2,0.9,0l17.8,10.4c0.3,0.2,0.4,0.4,0.4,0.7v20.8c0,0.3-0.2,0.6-0.4,0.7
					l-17.8,10.4C172,276.9,171.9,276.9,171.7,276.9z M154.7,265.1l17,9.9l17-9.9v-19.9l-17-9.9l-17,9.9V265.1z"/>
			</g>
			<g>
				<path style="fill:#DCE2E4;" d="M188.8,245.2l-17.1,9.8l-17.1-9.8l17.1-9.9L188.8,245.2z"/>
			</g>
			<g>
				<line style="fill:#FFFFFF;" x1="171.7" y1="268.3" x2="171.7" y2="276"/>
				<path style="fill:#0A2E3D;" d="M171.7,276.9c-0.5,0-0.8-0.4-0.8-0.8v-7.7c0-0.5,0.4-0.8,0.8-0.8s0.8,0.4,0.8,0.8v7.7
					C172.6,276.5,172.2,276.9,171.7,276.9z"/>
			</g>
		</g>
		<g>
			<g>
				<polygon style="fill:#FFFFFF;" points="153.9,218.6 171.7,208.2 189.6,218.6 189.6,239.4 171.7,249.8 153.9,239.4 				"/>
				<path style="fill:#0A2E3D;" d="M171.7,250.7c-0.1,0-0.3,0-0.4-0.1l-17.8-10.4c-0.3-0.2-0.4-0.4-0.4-0.7v-20.8
					c0-0.3,0.2-0.6,0.4-0.7l17.8-10.4c0.3-0.2,0.6-0.2,0.9,0l17.8,10.4c0.3,0.2,0.4,0.4,0.4,0.7v20.8c0,0.3-0.2,0.6-0.4,0.7
					l-17.8,10.4C172,250.6,171.9,250.7,171.7,250.7z M154.7,238.9l17,9.9l17-9.9v-19.8l-17-9.9l-17,9.9V238.9z"/>
			</g>
			<g>
				<path style="fill:#DCE2E4;" d="M188.8,219l-17.1,9.8l-17.1-9.8l17.1-9.9L188.8,219z"/>
			</g>
			<g>
				<line style="fill:#FFFFFF;" x1="171.7" y1="242.1" x2="171.7" y2="249.8"/>
				<path style="fill:#0A2E3D;" d="M171.7,250.7c-0.5,0-0.8-0.4-0.8-0.8v-7.7c0-0.5,0.4-0.8,0.8-0.8s0.8,0.4,0.8,0.8v7.7
					C172.6,250.3,172.2,250.7,171.7,250.7z"/>
			</g>
		</g>
		<g>
			<g>
				<polygon style="fill:#FFFFFF;" points="107.7,244.8 125.5,234.4 143.4,244.8 143.4,265.6 125.5,276 107.7,265.6 				"/>
				<path style="fill:#0A2E3D;" d="M125.5,276.9c-0.1,0-0.3,0-0.4-0.1l-17.8-10.4c-0.3-0.2-0.4-0.4-0.4-0.7v-20.8
					c0-0.3,0.2-0.6,0.4-0.7l17.8-10.4c0.3-0.2,0.6-0.2,0.9,0l17.9,10.4c0.3,0.2,0.4,0.4,0.4,0.7v20.8c0,0.3-0.2,0.6-0.4,0.7
					l-17.9,10.4C125.8,276.9,125.7,276.9,125.5,276.9z M108.5,265.1l17,9.9l17-9.9v-19.9l-17-9.9l-17,9.9V265.1z"/>
			</g>
			<g>
				<path style="fill:#DCE2E4;" d="M142.6,245.2l-17.1,9.8l-17.1-9.8l17.1-9.9L142.6,245.2z"/>
			</g>
			<g>
				<line style="fill:#FFFFFF;" x1="125.5" y1="268.3" x2="125.5" y2="276"/>
				<path style="fill:#0A2E3D;" d="M125.5,276.9c-0.5,0-0.9-0.4-0.9-0.8v-7.7c0-0.5,0.4-0.8,0.9-0.8s0.9,0.4,0.9,0.8v7.7
					C126.4,276.5,126,276.9,125.5,276.9z"/>
			</g>
		</g>
		<g>
			<g>
				<polygon style="fill:#FFFFFF;" points="107.7,218.6 125.5,208.2 143.4,218.6 143.4,239.4 125.5,249.8 107.7,239.4 				"/>
				<path style="fill:#0A2E3D;" d="M125.5,250.7c-0.1,0-0.3,0-0.4-0.1l-17.8-10.4c-0.3-0.2-0.4-0.4-0.4-0.7v-20.8
					c0-0.3,0.2-0.6,0.4-0.7l17.8-10.4c0.3-0.2,0.6-0.2,0.9,0l17.9,10.4c0.3,0.2,0.4,0.4,0.4,0.7v20.8c0,0.3-0.2,0.6-0.4,0.7
					l-17.9,10.4C125.8,250.6,125.7,250.7,125.5,250.7z M108.5,238.9l17,9.9l17-9.9v-19.8l-17-9.9l-17,9.9V238.9z"/>
			</g>
			<g>
				<path style="fill:#DCE2E4;" d="M142.6,219l-17.1,9.8l-17.1-9.8l17.1-9.9L142.6,219z"/>
			</g>
			<g>
				<line style="fill:#FFFFFF;" x1="125.5" y1="242.1" x2="125.5" y2="249.8"/>
				<path style="fill:#0A2E3D;" d="M125.5,250.7c-0.5,0-0.9-0.4-0.9-0.8v-7.7c0-0.5,0.4-0.8,0.9-0.8s0.9,0.4,0.9,0.8v7.7
					C126.4,250.3,126,250.7,125.5,250.7z"/>
			</g>
		</g>
		<g>
			<g>
				<polygon style="fill:#FFFFFF;" points="130.8,258.1 148.6,247.7 166.5,258.1 166.5,279 148.6,289.4 130.8,279 				"/>
				<path style="fill:#0A2E3D;" d="M148.6,290.2c-0.1,0-0.3,0-0.4-0.1l-17.9-10.4c-0.3-0.2-0.4-0.4-0.4-0.7v-20.8
					c0-0.3,0.2-0.6,0.4-0.7l17.9-10.4c0.3-0.2,0.6-0.2,0.9,0l17.9,10.4c0.3,0.2,0.4,0.4,0.4,0.7V279c0,0.3-0.2,0.6-0.4,0.7
					L149,290.1C148.9,290.2,148.8,290.2,148.6,290.2z M131.6,278.5l17,9.9l17-9.9v-19.9l-17-9.9l-17,9.9V278.5z"/>
			</g>
			<g>
				<path style="fill:#DCE2E4;" d="M165.7,258.6l-17.1,9.8l-17.1-9.8l17.1-9.9L165.7,258.6z"/>
			</g>
			<g>
				<line style="fill:#FFFFFF;" x1="148.6" y1="281.7" x2="148.6" y2="289.4"/>
				<path style="fill:#0A2E3D;" d="M148.6,290.2c-0.5,0-0.9-0.4-0.9-0.8v-7.7c0-0.5,0.4-0.8,0.9-0.8s0.9,0.4,0.9,0.8v7.7
					C149.5,289.9,149.1,290.2,148.6,290.2z"/>
			</g>
		</g>
		<g>
			<g>
				<polygon style="fill:#FFFFFF;" points="130.8,232.4 148.6,221.9 166.5,232.4 166.5,253.2 148.6,263.6 130.8,253.2 				"/>
				<path style="fill:#0A2E3D;" d="M148.6,264.4c-0.1,0-0.3,0-0.4-0.1l-17.9-10.4c-0.3-0.2-0.4-0.4-0.4-0.7v-20.8
					c0-0.3,0.2-0.6,0.4-0.7l17.9-10.4c0.3-0.2,0.6-0.2,0.9,0l17.9,10.4c0.3,0.2,0.4,0.4,0.4,0.7v20.8c0,0.3-0.2,0.6-0.4,0.7
					L149,264.3C148.9,264.4,148.8,264.4,148.6,264.4z M131.6,252.7l17,9.9l17-9.9v-19.8l-17-9.9l-17,9.9V252.7z"/>
			</g>
			<g>
				<path style="fill:#DCE2E4;" d="M165.7,232.8l-17.1,9.8l-17.1-9.8l17.1-9.9L165.7,232.8z"/>
			</g>
			<g>
				<line style="fill:#FFFFFF;" x1="148.6" y1="255.9" x2="148.6" y2="263.6"/>
				<path style="fill:#0A2E3D;" d="M148.6,264.4c-0.5,0-0.9-0.4-0.9-0.8v-7.7c0-0.5,0.4-0.8,0.9-0.8s0.9,0.4,0.9,0.8v7.7
					C149.5,264.1,149.1,264.4,148.6,264.4z"/>
			</g>
		</g>
	</g>
</g>
</svg>
