<?xml version="1.0" encoding="utf-8"?>
<!-- Generator: Adobe Illustrator 18.0.0, SVG Export Plug-In . SVG Version: 6.00 Build 0)  -->
<!DOCTYPE svg PUBLIC "-//W3C//DTD SVG 1.1//EN" "http://www.w3.org/Graphics/SVG/1.1/DTD/svg11.dtd">
<svg version="1.1" id="Layer_1" xmlns="http://www.w3.org/2000/svg" xmlns:xlink="http://www.w3.org/1999/xlink" x="0px" y="0px"
	 viewBox="0 0 287.8 374.6" style="enable-background:new 0 0 287.8 374.6;" xml:space="preserve">
<g>
	<g>
		<path style="fill:#E7EBEC;" d="M43.1,178.8c-16.9,0-30.6-13.6-30.6-30.5s13.7-30.5,30.6-30.5h202.5c16.9,0,30.6,13.6,30.6,30.5
			s-13.7,30.5-30.6,30.5H43.1z"/>
	</g>
	<g>
		<g>
			<g>
				<path style="fill:#0A2E3D;" d="M149,54.4h-10.9c-0.3,0-0.5-0.2-0.5-0.5s0.2-0.5,0.5-0.5H149c0.3,0,0.5,0.2,0.5,0.5
					S149.3,54.4,149,54.4z"/>
			</g>
			<g>
				<path style="fill:#0A2E3D;" d="M149,57.6h-10.9c-0.3,0-0.5-0.2-0.5-0.5s0.2-0.5,0.5-0.5H149c0.3,0,0.5,0.2,0.5,0.5
					S149.3,57.6,149,57.6z"/>
			</g>
		</g>
		<g>
			<g>
				<path style="fill:#0A2E3D;" d="M145.9,61.1c-0.1,0-0.2,0-0.3-0.1c-0.2-0.2-0.2-0.5,0-0.7l4.2-4.8l-4.2-4.8
					c-0.2-0.2-0.2-0.5,0-0.7c0.2-0.2,0.5-0.2,0.7,0l4.8,5.4l-4.8,5.4C146.2,61.1,146,61.1,145.9,61.1z"/>
			</g>
		</g>
	</g>
	<g>
		<g>
			<g>
				<path style="fill:#0A2E3D;" d="M149,315.7h-10.9c-0.3,0-0.5-0.2-0.5-0.5s0.2-0.5,0.5-0.5H149c0.3,0,0.5,0.2,0.5,0.5
					S149.3,315.7,149,315.7z"/>
			</g>
			<g>
				<path style="fill:#0A2E3D;" d="M149,318.8h-10.9c-0.3,0-0.5-0.2-0.5-0.5s0.2-0.5,0.5-0.5H149c0.3,0,0.5,0.2,0.5,0.5
					S149.3,318.8,149,318.8z"/>
			</g>
		</g>
		<g>
			<g>
				<path style="fill:#0A2E3D;" d="M145.9,322.4c-0.1,0-0.2,0-0.3-0.1c-0.2-0.2-0.2-0.5,0-0.7l4.2-4.8l-4.2-4.8
					c-0.2-0.2-0.2-0.5,0-0.7c0.2-0.2,0.5-0.2,0.7,0l4.8,5.4l-4.8,5.4C146.2,322.3,146,322.4,145.9,322.4z"/>
			</g>
		</g>
	</g>
	<g>
		<g>
			<g>
				<path style="fill:#0A2E3D;" d="M149,147.2h-10.9c-0.3,0-0.5-0.2-0.5-0.5s0.2-0.5,0.5-0.5H149c0.3,0,0.5,0.2,0.5,0.5
					S149.3,147.2,149,147.2z"/>
			</g>
			<g>
				<path style="fill:#0A2E3D;" d="M149,150.3h-10.9c-0.3,0-0.5-0.2-0.5-0.5s0.2-0.5,0.5-0.5H149c0.3,0,0.5,0.2,0.5,0.5
					S149.3,150.3,149,150.3z"/>
			</g>
		</g>
		<g>
			<g>
				<path style="fill:#0A2E3D;" d="M145.9,153.9c-0.1,0-0.2,0-0.3-0.1c-0.2-0.2-0.2-0.5,0-0.7l4.2-4.8l-4.2-4.8
					c-0.2-0.2-0.2-0.5,0-0.7c0.2-0.2,0.5-0.2,0.7,0l4.8,5.4l-4.8,5.4C146.2,153.8,146,153.9,145.9,153.9z"/>
			</g>
		</g>
	</g>
	<g>
		<g>
			<g>
				<path style="fill:#0A2E3D;" d="M149,238.4h-10.9c-0.3,0-0.5-0.2-0.5-0.5s0.2-0.5,0.5-0.5H149c0.3,0,0.5,0.2,0.5,0.5
					S149.3,238.4,149,238.4z"/>
			</g>
			<g>
				<path style="fill:#0A2E3D;" d="M149,241.6h-10.9c-0.3,0-0.5-0.2-0.5-0.5s0.2-0.5,0.5-0.5H149c0.3,0,0.5,0.2,0.5,0.5
					S149.3,241.6,149,241.6z"/>
			</g>
		</g>
		<g>
			<g>
				<path style="fill:#0A2E3D;" d="M145.9,245.1c-0.1,0-0.2,0-0.3-0.1c-0.2-0.2-0.2-0.5,0-0.7l4.2-4.8l-4.2-4.8
					c-0.2-0.2-0.2-0.5,0-0.7c0.2-0.2,0.5-0.2,0.7,0l4.8,5.4l-4.8,5.4C146.2,245,146,245.1,145.9,245.1z"/>
			</g>
		</g>
	</g>
	<g>
		<path style="fill:#6C8081;" d="M38.4,59c0.2,0,0.3,0.1,0.5,0.1c0.2,0,0.4,0,0.5,0c0.2,0,0.5,0,0.7-0.1s0.4-0.2,0.6-0.3
			c0.2-0.1,0.3-0.3,0.4-0.5c0.1-0.2,0.2-0.5,0.2-0.8c0-0.2,0-0.4-0.1-0.6s-0.2-0.4-0.3-0.6c-0.2-0.2-0.4-0.3-0.6-0.4
			c-0.2-0.1-0.5-0.2-0.8-0.2h-0.6v-1h0.5c0.3,0,0.6,0,0.8-0.1c0.2-0.1,0.4-0.2,0.5-0.3s0.2-0.3,0.3-0.5s0.1-0.4,0.1-0.6
			c0-0.4-0.2-0.8-0.5-1.1c-0.3-0.3-0.7-0.4-1.2-0.4c-0.5,0-0.9,0.2-1.2,0.5c-0.3,0.3-0.5,0.7-0.5,1.3V60h-1.1v-6.6
			c0-0.4,0.1-0.8,0.2-1.1c0.1-0.3,0.3-0.6,0.6-0.9s0.5-0.4,0.9-0.6s0.7-0.2,1.1-0.2c0.4,0,0.8,0.1,1.1,0.2c0.3,0.1,0.6,0.3,0.9,0.5
			s0.5,0.5,0.6,0.8c0.1,0.3,0.2,0.6,0.2,1c0,0.6-0.1,1-0.4,1.4s-0.7,0.6-1.1,0.7c0.5,0.1,0.9,0.4,1.3,0.8s0.5,0.9,0.5,1.4
			c0,0.5-0.1,0.9-0.3,1.2c-0.2,0.3-0.4,0.6-0.7,0.9c-0.3,0.2-0.6,0.4-1,0.5c-0.4,0.1-0.7,0.2-1.1,0.2c-0.2,0-0.4,0-0.6,0
			c-0.2,0-0.3-0.1-0.4-0.1V59z"/>
		<path style="fill:#6C8081;" d="M44.3,51.1c0.2,0,0.4,0,0.6,0s0.3-0.1,0.3-0.2s0.1-0.2,0.2-0.3c0-0.1,0-0.3,0-0.4h0.7v5.4h-0.7
			v-3.9h-1.1V51.1z"/>
	</g>
	<g>
		<path style="fill:#6C8081;" d="M37.7,243.4c0.2,0,0.3,0.1,0.5,0.1c0.2,0,0.4,0,0.5,0c0.2,0,0.5,0,0.7-0.1s0.4-0.2,0.6-0.3
			c0.2-0.1,0.3-0.3,0.4-0.5c0.1-0.2,0.2-0.5,0.2-0.8c0-0.2,0-0.4-0.1-0.6c-0.1-0.2-0.2-0.4-0.3-0.6c-0.2-0.2-0.4-0.3-0.6-0.4
			c-0.2-0.1-0.5-0.2-0.8-0.2h-0.6v-1h0.5c0.3,0,0.6,0,0.8-0.1c0.2-0.1,0.4-0.2,0.5-0.3s0.2-0.3,0.3-0.5c0.1-0.2,0.1-0.4,0.1-0.6
			c0-0.4-0.2-0.8-0.5-1.1c-0.3-0.3-0.7-0.4-1.2-0.4c-0.5,0-0.9,0.2-1.2,0.5c-0.3,0.3-0.5,0.7-0.5,1.3v6.6h-1.1v-6.6
			c0-0.4,0.1-0.8,0.2-1.1s0.3-0.6,0.6-0.9c0.2-0.2,0.5-0.4,0.9-0.6c0.3-0.1,0.7-0.2,1.1-0.2c0.4,0,0.8,0.1,1.1,0.2
			c0.3,0.1,0.7,0.3,0.9,0.5c0.3,0.2,0.5,0.5,0.6,0.8c0.2,0.3,0.2,0.6,0.2,1c0,0.6-0.1,1-0.4,1.4c-0.3,0.3-0.7,0.6-1.1,0.7
			c0.5,0.1,0.9,0.4,1.3,0.8s0.5,0.9,0.5,1.4c0,0.5-0.1,0.9-0.3,1.2c-0.2,0.3-0.4,0.6-0.7,0.9c-0.3,0.2-0.6,0.4-1,0.5
			c-0.4,0.1-0.7,0.2-1.1,0.2c-0.2,0-0.4,0-0.6,0c-0.2,0-0.3-0.1-0.4-0.1V243.4z"/>
		<path style="fill:#6C8081;" d="M43.8,238.9c0.1-0.3,0.2-0.5,0.3-0.7s0.3-0.4,0.5-0.5c0.2-0.1,0.4-0.3,0.6-0.4
			c0.1-0.1,0.3-0.1,0.4-0.2c0.1-0.1,0.3-0.2,0.4-0.3c0.1-0.1,0.2-0.2,0.3-0.3s0.1-0.3,0.1-0.5c0-0.3-0.1-0.5-0.3-0.6
			c-0.2-0.1-0.4-0.2-0.7-0.2c-0.3,0-0.5,0.1-0.7,0.3c-0.2,0.2-0.3,0.4-0.3,0.8h-0.7c0-0.3,0-0.5,0.1-0.7c0.1-0.2,0.2-0.4,0.4-0.5
			c0.2-0.1,0.3-0.3,0.5-0.3c0.2-0.1,0.4-0.1,0.7-0.1c0.2,0,0.5,0,0.7,0.1c0.2,0.1,0.4,0.2,0.5,0.3c0.1,0.1,0.3,0.3,0.3,0.5
			s0.1,0.4,0.1,0.7s-0.1,0.5-0.2,0.7s-0.2,0.4-0.4,0.5c-0.2,0.1-0.3,0.3-0.5,0.4s-0.3,0.2-0.4,0.2c-0.2,0.1-0.4,0.2-0.6,0.3
			c-0.1,0.1-0.3,0.2-0.3,0.3s-0.1,0.2-0.2,0.4c0,0.1,0,0.3,0,0.5h2.6v0.6h-3.4C43.7,239.6,43.8,239.2,43.8,238.9z"/>
	</g>
	<g>
		<path style="fill:#6C8081;" d="M38.4,320.7c0.2,0,0.3,0.1,0.5,0.1c0.2,0,0.4,0,0.5,0c0.2,0,0.5,0,0.7-0.1s0.4-0.2,0.6-0.3
			c0.2-0.1,0.3-0.3,0.4-0.5c0.1-0.2,0.2-0.5,0.2-0.8c0-0.2,0-0.4-0.1-0.6s-0.2-0.4-0.3-0.6c-0.2-0.2-0.4-0.3-0.6-0.4
			c-0.2-0.1-0.5-0.2-0.8-0.2h-0.6v-1h0.5c0.3,0,0.6,0,0.8-0.1c0.2-0.1,0.4-0.2,0.5-0.3s0.2-0.3,0.3-0.5s0.1-0.4,0.1-0.6
			c0-0.4-0.2-0.8-0.5-1.1c-0.3-0.3-0.7-0.4-1.2-0.4c-0.5,0-0.9,0.2-1.2,0.5c-0.3,0.3-0.5,0.7-0.5,1.3v6.6h-1.1v-6.6
			c0-0.4,0.1-0.8,0.2-1.1c0.1-0.3,0.3-0.6,0.6-0.9s0.5-0.4,0.9-0.6s0.7-0.2,1.1-0.2c0.4,0,0.8,0.1,1.1,0.2c0.3,0.1,0.6,0.3,0.9,0.5
			s0.5,0.5,0.6,0.8c0.1,0.3,0.2,0.6,0.2,1c0,0.6-0.1,1-0.4,1.4s-0.7,0.6-1.1,0.7c0.5,0.1,0.9,0.4,1.3,0.8s0.5,0.9,0.5,1.4
			c0,0.5-0.1,0.9-0.3,1.2c-0.2,0.3-0.4,0.6-0.7,0.9c-0.3,0.2-0.6,0.4-1,0.5c-0.4,0.1-0.7,0.2-1.1,0.2c-0.2,0-0.4,0-0.6,0
			c-0.2,0-0.3-0.1-0.4-0.1V320.7z"/>
		<path style="fill:#6C8081;" d="M44.3,312.8c0.2,0,0.4,0,0.6,0s0.3-0.1,0.3-0.2s0.1-0.2,0.2-0.3c0-0.1,0-0.3,0-0.4h0.7v5.4h-0.7
			v-3.9h-1.1V312.8z"/>
	</g>
	<g>
		<path style="fill:#6C8081;" d="M37.5,152.2c0.2,0,0.3,0.1,0.5,0.1c0.2,0,0.4,0,0.5,0c0.2,0,0.5,0,0.7-0.1s0.4-0.2,0.6-0.3
			c0.2-0.1,0.3-0.3,0.4-0.5c0.1-0.2,0.2-0.5,0.2-0.8c0-0.2,0-0.4-0.1-0.6c-0.1-0.2-0.2-0.4-0.3-0.6c-0.2-0.2-0.4-0.3-0.6-0.4
			c-0.2-0.1-0.5-0.2-0.8-0.2H38v-1h0.5c0.3,0,0.6,0,0.8-0.1c0.2-0.1,0.4-0.2,0.5-0.3s0.2-0.3,0.3-0.5c0.1-0.2,0.1-0.4,0.1-0.6
			c0-0.4-0.2-0.8-0.5-1.1c-0.3-0.3-0.7-0.4-1.2-0.4c-0.5,0-0.9,0.2-1.2,0.5c-0.3,0.3-0.5,0.7-0.5,1.3v6.6h-1.1v-6.6
			c0-0.4,0.1-0.8,0.2-1.1s0.3-0.6,0.6-0.9c0.2-0.2,0.5-0.4,0.9-0.6c0.3-0.1,0.7-0.2,1.1-0.2c0.4,0,0.8,0.1,1.1,0.2
			c0.3,0.1,0.7,0.3,0.9,0.5c0.3,0.2,0.5,0.5,0.6,0.8c0.2,0.3,0.2,0.6,0.2,1c0,0.6-0.1,1-0.4,1.4c-0.3,0.3-0.7,0.6-1.1,0.7
			c0.5,0.1,0.9,0.4,1.3,0.8s0.5,0.9,0.5,1.4c0,0.5-0.1,0.9-0.3,1.2c-0.2,0.3-0.4,0.6-0.7,0.9c-0.3,0.2-0.6,0.4-1,0.5
			c-0.4,0.1-0.7,0.2-1.1,0.2c-0.2,0-0.4,0-0.6,0c-0.2,0-0.3-0.1-0.4-0.1V152.2z"/>
		<path style="fill:#6C8081;" d="M44.2,147.2c0,0.2,0,0.3,0.1,0.5c0.1,0.1,0.1,0.3,0.2,0.4c0.1,0.1,0.2,0.2,0.4,0.2s0.3,0.1,0.5,0.1
			s0.3,0,0.4-0.1s0.2-0.1,0.3-0.2s0.2-0.2,0.2-0.3s0.1-0.2,0.1-0.4c0-0.3-0.1-0.5-0.3-0.7c-0.2-0.2-0.4-0.3-0.8-0.3h-0.4v-0.6h0.4
			c0.3,0,0.6-0.1,0.8-0.2c0.2-0.2,0.2-0.4,0.2-0.6c0-0.3-0.1-0.5-0.3-0.6c-0.2-0.1-0.4-0.2-0.7-0.2c-0.3,0-0.6,0.1-0.8,0.3
			s-0.2,0.4-0.2,0.7h-0.7c0-0.2,0-0.5,0.1-0.6c0.1-0.2,0.2-0.4,0.3-0.5c0.1-0.1,0.3-0.3,0.5-0.3c0.2-0.1,0.4-0.1,0.7-0.1
			c0.2,0,0.5,0,0.7,0.1c0.2,0.1,0.4,0.2,0.5,0.3c0.2,0.1,0.3,0.3,0.4,0.5c0.1,0.2,0.1,0.4,0.1,0.6c0,0.3-0.1,0.6-0.2,0.8
			c-0.1,0.2-0.4,0.3-0.6,0.4c0.3,0.1,0.5,0.2,0.7,0.5c0.2,0.2,0.3,0.5,0.3,0.8c0,0.2,0,0.5-0.1,0.6c-0.1,0.2-0.2,0.4-0.4,0.5
			c-0.2,0.1-0.3,0.2-0.6,0.3c-0.2,0.1-0.5,0.1-0.7,0.1c-0.2,0-0.5,0-0.7-0.1c-0.2-0.1-0.4-0.2-0.6-0.3s-0.3-0.3-0.4-0.6
			c-0.1-0.2-0.1-0.5-0.1-0.8H44.2z"/>
	</g>
	<g>
		<path style="fill:#6C8081;" d="M251.2,54v6h-1.1v-1c-0.2,0.4-0.5,0.7-0.9,0.9c-0.4,0.2-0.8,0.3-1.2,0.3c-0.5,0-0.9-0.1-1.2-0.2
			c-0.4-0.2-0.7-0.4-1-0.7c-0.3-0.3-0.5-0.6-0.6-1c-0.1-0.4-0.2-0.8-0.2-1.2s0.1-0.8,0.2-1.2c0.2-0.4,0.4-0.7,0.6-1
			c0.3-0.3,0.6-0.5,1-0.7c0.4-0.2,0.8-0.2,1.2-0.2c0.4,0,0.8,0.1,1.2,0.3s0.7,0.5,0.9,0.9v-1H251.2z M248,59.1
			c0.3,0,0.6-0.1,0.8-0.2s0.5-0.3,0.6-0.5c0.2-0.2,0.3-0.4,0.4-0.7c0.1-0.3,0.1-0.5,0.1-0.8s0-0.6-0.1-0.8c-0.1-0.3-0.2-0.5-0.4-0.7
			s-0.4-0.3-0.6-0.5c-0.2-0.1-0.5-0.2-0.8-0.2s-0.6,0.1-0.8,0.2c-0.2,0.1-0.5,0.3-0.6,0.5c-0.2,0.2-0.3,0.4-0.4,0.7
			c-0.1,0.3-0.1,0.5-0.1,0.8s0,0.6,0.1,0.8c0.1,0.3,0.2,0.5,0.4,0.7c0.2,0.2,0.4,0.3,0.6,0.5S247.7,59.1,248,59.1z"/>
	</g>
	<g>
		<path style="fill:#6C8081;" d="M251.4,239.4h-0.8v5h-1.1v-5h-2.4v5H246v-5h-0.8v-1h6.3V239.4z"/>
	</g>
	<g>
		<path style="fill:#6C8081;" d="M248.3,313.4c-0.5,0-0.9,0.1-1.3,0.2c-0.4,0.2-0.7,0.4-0.9,0.7s-0.4,0.6-0.6,0.9
			c-0.1,0.4-0.2,0.7-0.2,1.1c0,0.4,0.1,0.7,0.2,1.1c0.1,0.4,0.3,0.7,0.5,1c0.2,0.3,0.5,0.5,0.8,0.7s0.7,0.3,1.1,0.4v2.1h-3.4v-1.1
			h2.4v-0.4c-0.4-0.1-0.8-0.3-1.1-0.6c-0.3-0.2-0.6-0.5-0.8-0.9s-0.4-0.7-0.5-1.1c-0.1-0.4-0.2-0.8-0.2-1.3c0-0.6,0.1-1.1,0.3-1.6
			c0.2-0.5,0.5-0.9,0.8-1.3c0.4-0.4,0.8-0.7,1.3-0.9s1.1-0.3,1.7-0.3c0.6,0,1.2,0.1,1.7,0.3s0.9,0.5,1.3,0.9
			c0.4,0.4,0.6,0.8,0.8,1.3c0.2,0.5,0.3,1,0.3,1.6c0,0.4-0.1,0.9-0.2,1.3c-0.1,0.4-0.3,0.8-0.5,1.1s-0.5,0.6-0.8,0.9
			c-0.3,0.2-0.7,0.4-1.1,0.6v0.4h2.4v1.1h-3.4v-2.1c0.4-0.1,0.8-0.2,1.1-0.4s0.6-0.4,0.8-0.7c0.2-0.3,0.4-0.6,0.5-1
			c0.1-0.4,0.2-0.7,0.2-1.1c0-0.4-0.1-0.8-0.2-1.1c-0.1-0.4-0.3-0.7-0.6-0.9c-0.2-0.3-0.6-0.5-0.9-0.7
			C249.2,313.5,248.8,313.4,248.3,313.4z"/>
	</g>
	<g>
		<path style="fill:#6C8081;" d="M244.8,156.5v-1.1l4.7-5.8l-4.7-5.8v-1h6.8v1.1h-5.3l4.7,5.6l-4.7,5.9h5.3v1.2H244.8z"/>
	</g>
	<g>
		<path style="fill:#DCE2E4;" d="M94.2,39.1c5.1,2.9,5.1,7.7,0,10.6s-13.4,2.9-18.5,0s-5.1-7.7,0-10.6
			C80.8,36.1,89.1,36.1,94.2,39.1z"/>
	</g>
	<g>
		<line style="fill:#FFFFFF;" x1="93.8" y1="62.2" x2="93.8" y2="72.4"/>
		<path style="fill:#0A2E3D;" d="M93.8,73.2c-0.5,0-0.8-0.4-0.8-0.8V62.2c0-0.5,0.4-0.8,0.8-0.8s0.8,0.4,0.8,0.8v10.2
			C94.7,72.8,94.3,73.2,93.8,73.2z"/>
	</g>
	<g>
		<g>
			<polygon style="fill:#FFFFFF;" points="65.4,136.4 84.9,125 104.4,136.4 104.4,159.1 84.9,170.5 65.4,159.1 			"/>
			<path style="fill:#0A2E3D;" d="M84.9,171.4c-0.1,0-0.3,0-0.4-0.1L65,159.9c-0.3-0.2-0.4-0.4-0.4-0.7v-22.8c0-0.3,0.2-0.6,0.4-0.7
				l19.5-11.4c0.3-0.2,0.6-0.2,0.9,0l19.5,11.4c0.3,0.2,0.4,0.4,0.4,0.7v22.8c0,0.3-0.2,0.6-0.4,0.7l-19.5,11.4
				C85.2,171.3,85.1,171.4,84.9,171.4z M66.2,158.6l18.7,10.9l18.7-10.9v-21.8L84.9,126l-18.7,10.9V158.6z"/>
		</g>
		<g>
			<path style="fill:#DCE2E4;" d="M103.6,136.8l-18.6,10.8l-18.6-10.8L84.9,126L103.6,136.8z"/>
		</g>
		<g>
			<line style="fill:#FFFFFF;" x1="84.9" y1="162.1" x2="84.9" y2="170.5"/>
			<path style="fill:#0A2E3D;" d="M84.9,171.4c-0.5,0-0.8-0.4-0.8-0.8v-8.5c0-0.5,0.4-0.8,0.8-0.8s0.8,0.4,0.8,0.8v8.5
				C85.8,171,85.4,171.4,84.9,171.4z"/>
		</g>
	</g>
	<g>
		<g>
			<g>
				<polygon style="fill:#FFFFFF;" points="185,153.5 204.5,142.1 224,153.5 224,176.2 204.5,187.6 185,176.2 				"/>
				<path style="fill:#0A2E3D;" d="M204.5,188.5c-0.1,0-0.3,0-0.4-0.1L184.5,177c-0.3-0.2-0.4-0.4-0.4-0.7v-22.8
					c0-0.3,0.2-0.6,0.4-0.7l19.5-11.4c0.3-0.2,0.6-0.2,0.9,0l19.5,11.4c0.3,0.2,0.4,0.4,0.4,0.7v22.8c0,0.3-0.2,0.6-0.4,0.7
					l-19.5,11.4C204.8,188.4,204.6,188.5,204.5,188.5z M185.8,175.7l18.7,10.9l18.7-10.9v-21.8l-18.7-10.9l-18.7,10.9V175.7z"/>
			</g>
			<g>
				<path style="fill:#B6C3C9;" d="M223.1,153.9l-18.6,10.8l-18.6-10.8l18.6-10.8L223.1,153.9z"/>
			</g>
			<g>
				<line style="fill:#FFFFFF;" x1="204.5" y1="179.2" x2="204.5" y2="187.6"/>
				<path style="fill:#0A2E3D;" d="M204.5,188.5c-0.5,0-0.8-0.4-0.8-0.8v-8.5c0-0.5,0.4-0.8,0.8-0.8s0.8,0.4,0.8,0.8v8.5
					C205.3,188.1,204.9,188.5,204.5,188.5z"/>
			</g>
		</g>
		<g>
			<g>
				<polygon style="fill:#FFFFFF;" points="185,125.8 204.4,114.4 223.9,148.5 204.4,159.9 185,148.3 				"/>
			</g>
			<g>
				<g>
					<polygon style="fill:#B6C3C9;" points="204.4,158.9 223.1,148 204.4,115.4 185.8,126.3 					"/>
				</g>
				<g>
					<path style="fill:#0A2E3D;" d="M204.4,160.7c-0.1,0-0.3,0-0.4-0.1l-19.5-11.5c-0.3-0.2-0.4-0.4-0.4-0.7v-22.5
						c0-0.3,0.2-0.6,0.4-0.7l19.5-11.4c0.2-0.1,0.4-0.1,0.6-0.1c0.2,0.1,0.4,0.2,0.5,0.4l19.5,34.1c0.2,0.4,0.1,0.9-0.3,1.2
						l-19.5,11.4C204.7,160.7,204.6,160.7,204.4,160.7z M185.8,147.9l18.6,11l18.3-10.7l-18.6-32.6l-18.3,10.7V147.9z"/>
				</g>
				<g>
					
						<path style="fill:none;stroke:#4B4F64;stroke-width:1.5825;stroke-linecap:round;stroke-linejoin:round;stroke-miterlimit:10;" d="
						M194.7,131.5"/>
				</g>
			</g>
		</g>
		<g>
			<g>
				<polygon style="fill:#FFFFFF;" points="185.5,119.2 205,107.9 224.4,119.2 224.4,142.1 205,153.5 				"/>
			</g>
		</g>
		<g>
			<g>
				<path style="fill:#DCE2E4;" d="M224.4,119.2l-19.5,11.3l-19.5-11.3l19.5-11.3L224.4,119.2z"/>
			</g>
			<g>
				<g>
					<path style="fill:#0A2E3D;" d="M205,154.3c-0.1,0-0.1,0-0.2,0c-0.2-0.1-0.4-0.2-0.5-0.4l-19.5-34.2c-0.2-0.4-0.1-0.9,0.3-1.2
						l19.5-11.4c0.3-0.2,0.6-0.2,0.9,0l19.5,11.4c0.3,0.2,0.4,0.4,0.4,0.7v22.9c0,0.3-0.2,0.6-0.4,0.7l-19.5,11.3
						C205.3,154.3,205.1,154.3,205,154.3z M186.6,119.5l18.6,32.8l18.3-10.6v-21.9L205,108.9L186.6,119.5z"/>
				</g>
			</g>
			<g>
				<line style="fill:#FFFFFF;" x1="205" y1="131.3" x2="205" y2="135.8"/>
				<path style="fill:#0A2E3D;" d="M205,136.7c-0.5,0-0.8-0.4-0.8-0.8v-4.5c0-0.5,0.4-0.8,0.8-0.8s0.8,0.4,0.8,0.8v4.5
					C205.8,136.3,205.4,136.7,205,136.7z"/>
			</g>
			<g>
				<line style="fill:#FFFFFF;" x1="205" y1="145" x2="205" y2="153.5"/>
				<path style="fill:#0A2E3D;" d="M205,154.3c-0.5,0-0.8-0.4-0.8-0.8V145c0-0.5,0.4-0.8,0.8-0.8s0.8,0.4,0.8,0.8v8.4
					C205.8,153.9,205.4,154.3,205,154.3z"/>
			</g>
		</g>
	</g>
	<g>
		<path style="fill:#0A2E3D;" d="M84.9,75.8c-3.9,0-7.5-0.9-10.3-2.5c-2.9-1.7-4.5-3.9-4.5-6.4l0-22.9c0,0,0-0.1,0-0.1
			c0.1-2.4,1.7-4.6,4.5-6.2c2.8-1.6,6.4-2.5,10.3-2.5s7.5,0.9,10.3,2.5c2.8,1.6,4.4,3.8,4.5,6.2c0,0,0,0.1,0,0.1v22.9
			c0,2.5-1.6,4.8-4.5,6.4C92.4,75,88.8,75.8,84.9,75.8z M71.8,44.1v22.8c0,1.8,1.3,3.6,3.7,4.9c2.5,1.4,5.9,2.2,9.4,2.2
			s6.9-0.8,9.4-2.2c2.4-1.4,3.7-3.1,3.7-4.9l0-22.8c0,0,0-0.1,0-0.1c0-1.8-1.3-3.6-3.7-4.9c-2.5-1.4-5.9-2.2-9.4-2.2
			s-6.9,0.8-9.4,2.2C73.1,40.5,71.8,42.2,71.8,44.1C71.8,44.1,71.8,44.1,71.8,44.1z"/>
	</g>
	<g>
		<polygon style="fill:#DCE2E4;" points="84.9,256.5 84.9,222.5 104.5,245.2 		"/>
	</g>
	<g>
		<path style="fill:#0A2E3D;" d="M84.9,257.3c-0.1,0-0.3,0-0.4-0.1l-19.5-11.3c-0.2-0.1-0.4-0.3-0.4-0.6s0-0.5,0.2-0.7L84.3,222
			c0.3-0.4,1-0.4,1.3,0l19.5,22.7c0.2,0.2,0.2,0.5,0.2,0.7s-0.2,0.5-0.4,0.6l-19.5,11.3C85.2,257.3,85.1,257.3,84.9,257.3z
			 M66.7,245l18.2,10.5l18.2-10.5l-18.2-21.1L66.7,245z"/>
	</g>
	<g>
		<line style="fill:#FFFFFF;" x1="84.9" y1="222.5" x2="84.9" y2="229"/>
		<path style="fill:#0A2E3D;" d="M84.9,229.8c-0.5,0-0.9-0.4-0.9-0.9v-6.4c0-0.5,0.4-0.9,0.9-0.9s0.9,0.4,0.9,0.9v6.4
			C85.8,229.5,85.4,229.8,84.9,229.8z"/>
	</g>
	<g>
		<path style="fill:#DCE2E4;" d="M94.2,300.8c5.1,2.9,5.1,7.7,0,10.6c-5.1,2.9-13.4,2.9-18.5,0c-5.1-2.9-5.1-7.7,0-10.6
			S89.1,297.9,94.2,300.8z"/>
	</g>
	<g>
		<line style="fill:#FFFFFF;" x1="93.8" y1="323.9" x2="93.8" y2="334.1"/>
		<path style="fill:#0A2E3D;" d="M93.8,335c-0.5,0-0.8-0.4-0.8-0.8v-10.2c0-0.5,0.4-0.8,0.8-0.8s0.8,0.4,0.8,0.8v10.2
			C94.7,334.6,94.3,335,93.8,335z"/>
	</g>
	<g>
		<path style="fill:#0A2E3D;" d="M84.9,337.6c-3.9,0-7.5-0.9-10.3-2.5c-2.9-1.7-4.5-3.9-4.5-6.4l0-22.9c0,0,0-0.1,0-0.1
			c0.1-2.4,1.7-4.6,4.5-6.2c2.8-1.6,6.4-2.5,10.3-2.5s7.5,0.9,10.3,2.5c2.8,1.6,4.4,3.8,4.5,6.2c0,0,0,0.1,0,0.1v22.9
			c0,2.5-1.6,4.8-4.5,6.4C92.4,336.7,88.8,337.6,84.9,337.6z M71.8,305.9v22.8c0,1.8,1.3,3.6,3.7,4.9c2.5,1.4,5.9,2.2,9.4,2.2
			s6.9-0.8,9.4-2.2c2.4-1.4,3.7-3.1,3.7-4.9l0-22.8c0,0,0-0.1,0-0.1c0-1.8-1.3-3.6-3.7-4.9c-2.5-1.4-5.9-2.2-9.4-2.2
			s-6.9,0.8-9.4,2.2C73.1,302.2,71.8,304,71.8,305.9C71.8,305.8,71.8,305.9,71.8,305.9z"/>
	</g>
	<g>
		<line style="fill:#FFFFFF;" x1="84.9" y1="247.2" x2="84.9" y2="255.6"/>
		<path style="fill:#0A2E3D;" d="M84.9,256.5c-0.5,0-0.8-0.4-0.8-0.8v-8.5c0-0.5,0.4-0.8,0.8-0.8s0.8,0.4,0.8,0.8v8.5
			C85.8,256.1,85.4,256.5,84.9,256.5z"/>
	</g>
	<g>
		<g>
			<path style="fill:#B6C3C9;" d="M223.4,59.8l-18.6,10.8l-18.6-10.8L204.7,49L223.4,59.8z"/>
		</g>
		<g>
			<g>
				<g>
					<path style="fill:#0A2E3D;" d="M204.7,84.7L204.7,84.7c-0.3,0-0.5-0.1-0.7-0.3l-19-23.9c-0.2-0.2-0.2-0.4-0.2-0.7
						c0-0.2,0.2-0.5,0.4-0.6l19-11c0.3-0.2,0.6-0.2,0.9,0l19,11c0.2,0.1,0.4,0.3,0.4,0.6s0,0.5-0.2,0.7l-19,23.9
						C205.2,84.6,204.9,84.7,204.7,84.7z M187,60.2l17.7,22.3l17.7-22.3L204.7,50L187,60.2z"/>
				</g>
			</g>
		</g>
		<g>
			<g>
				<polygon style="fill:#FFFFFF;" points="223.6,51.9 204.7,62.9 185.7,51.9 204.7,30 				"/>
			</g>
			<g>
				<g>
					<polygon style="fill:#DCE2E4;" points="204.7,62.9 204.7,30 223.6,51.9 					"/>
				</g>
				<g>
					<path style="fill:#0A2E3D;" d="M204.7,63.7c-0.1,0-0.3,0-0.4-0.1l-18.9-10.9c-0.2-0.1-0.4-0.3-0.4-0.6s0-0.5,0.2-0.7l18.9-22
						c0.2-0.2,0.4-0.3,0.6-0.3l0,0c0.2,0,0.5,0.1,0.6,0.3l18.9,22c0.2,0.2,0.2,0.5,0.2,0.7s-0.2,0.5-0.4,0.6l-18.9,10.9
						C205,63.7,204.8,63.7,204.7,63.7z M187,51.7l17.6,10.2l17.6-10.2l-17.6-20.4L187,51.7z"/>
				</g>
			</g>
		</g>
		<g>
			<path style="fill:#0A2E3D;" d="M204.7,73.3c-0.5,0-0.9-0.4-0.9-0.9v-2c0-0.5,0.4-0.9,0.9-0.9s0.9,0.4,0.9,0.9v2
				C205.5,72.9,205.2,73.3,204.7,73.3z"/>
		</g>
		<g>
			<path style="fill:#0A2E3D;" d="M204.7,83.3c-0.5,0-0.9-0.4-0.9-0.9v-5c0-0.5,0.4-0.9,0.9-0.9s0.9,0.4,0.9,0.9v5
				C205.5,82.9,205.2,83.3,204.7,83.3z"/>
		</g>
	</g>
	<g>
		<g>
			<g>
				<polygon style="fill:#FFFFFF;" points="185.5,233.5 204.7,222.3 223.9,233.5 223.9,255.9 204.7,267.1 185.5,255.9 				"/>
				<path style="fill:#0A2E3D;" d="M204.7,268c-0.1,0-0.3,0-0.4-0.1l-19.2-11.2c-0.3-0.2-0.4-0.4-0.4-0.7v-22.4
					c0-0.3,0.2-0.6,0.4-0.7l19.2-11.2c0.3-0.2,0.6-0.2,0.8,0l19.2,11.2c0.3,0.2,0.4,0.4,0.4,0.7v22.4c0,0.3-0.2,0.6-0.4,0.7
					l-19.2,11.2C205,267.9,204.8,268,204.7,268z M186.3,255.4l18.4,10.7l18.4-10.7V234l-18.4-10.7L186.3,234V255.4z"/>
			</g>
			<g>
				<path style="fill:#B6C3C9;" d="M223,234l-18.4,10.6L186.3,234l18.4-10.7L223,234z"/>
			</g>
			<g>
				<line style="fill:#FFFFFF;" x1="204.7" y1="258.8" x2="204.7" y2="267.1"/>
				<path style="fill:#0A2E3D;" d="M204.7,268c-0.5,0-0.8-0.4-0.8-0.8v-8.3c0-0.5,0.4-0.8,0.8-0.8s0.8,0.4,0.8,0.8v8.3
					C205.5,267.6,205.1,268,204.7,268z"/>
			</g>
		</g>
		<g>
			<g>
				<polygon style="fill:#FFFFFF;" points="223.6,227.3 204.7,238.2 185.7,227.3 204.7,205.3 				"/>
			</g>
			<g>
				<g>
					<polygon style="fill:#DCE2E4;" points="204.7,238.2 204.7,205.3 223.6,227.3 					"/>
				</g>
				<g>
					<path style="fill:#0A2E3D;" d="M204.7,239c-0.1,0-0.3,0-0.4-0.1L185.3,228c-0.2-0.1-0.4-0.3-0.4-0.6s0-0.5,0.2-0.7l18.9-22
						c0.3-0.4,1-0.4,1.3,0l18.9,22c0.2,0.2,0.2,0.5,0.2,0.7s-0.2,0.5-0.4,0.6l-18.9,10.9C205,239,204.8,239,204.7,239z M187.1,227
						l17.6,10.2l17.6-10.2l-17.6-20.4L187.1,227z"/>
				</g>
			</g>
		</g>
	</g>
	<g>
		<g>
			<path style="fill:#DCE2E4;" d="M181.2,293.6c-5,2.9-5,7.5,0,10.4c0,0,0,0,0.1,0l18.1-10.5C194.3,290.7,186.2,290.7,181.2,293.6z"
				/>
		</g>
		<g>
			<path style="fill:#0A2E3D;" d="M180.8,327.7c-0.1,0-0.3,0-0.4-0.1c0,0-0.1,0-0.1-0.1c-2.8-1.6-4.4-3.8-4.4-6.2c0,0,0,0,0-0.1
				v-22.5c0,0,0-0.1,0-0.1c0.1-2.4,1.6-4.5,4.4-6.1c2.7-1.6,6.3-2.4,10.1-2.4c3.8,0,7.4,0.9,10.1,2.4c0.3,0.1,0.4,0.4,0.4,0.7v22.4
				c0,0.3-0.2,0.6-0.4,0.7l-19.3,11.3C181,327.7,180.9,327.7,180.8,327.7z M177.5,321.2C177.5,321.2,177.5,321.2,177.5,321.2
				c0,1.8,1.2,3.4,3.3,4.7l18.5-10.8v-21.5c-2.4-1.3-5.5-2-8.8-2c-3.5,0-6.8,0.8-9.3,2.2c-2.3,1.3-3.6,3-3.6,4.8c0,0,0,0.1,0,0.1
				V321.2z"/>
		</g>
		<g>
			
				<path style="fill:#FFFFFF;stroke:#0A2E3D;stroke-width:1.6447;stroke-linecap:round;stroke-linejoin:round;stroke-miterlimit:10;" d="
				M180.8,326.4"/>
		</g>
		<g>
			
				<path style="fill:#FFFFFF;stroke:#0A2E3D;stroke-width:1.6447;stroke-linecap:round;stroke-linejoin:round;stroke-miterlimit:10;" d="
				M180.8,318.8"/>
		</g>
		<g>
			<g>
				<polygon style="fill:#FFFFFF;" points="184.5,306.6 203.7,295.4 222.9,306.6 222.9,329 203.7,340.2 184.5,329 				"/>
				<path style="fill:#0A2E3D;" d="M203.7,341c-0.1,0-0.3,0-0.4-0.1l-19.2-11.2c-0.3-0.2-0.4-0.4-0.4-0.7v-22.4
					c0-0.3,0.2-0.6,0.4-0.7l19.2-11.2c0.3-0.2,0.6-0.2,0.8,0l19.2,11.2c0.3,0.2,0.4,0.4,0.4,0.7V329c0,0.3-0.2,0.6-0.4,0.7
					l-19.2,11.2C204,341,203.9,341,203.7,341z M185.3,328.5l18.4,10.7l18.4-10.7v-21.5l-18.4-10.7l-18.4,10.7V328.5z"/>
			</g>
			<g>
				<path style="fill:#DCE2E4;" d="M222.1,307l-18.4,10.6L185.4,307l18.4-10.7L222.1,307z"/>
			</g>
			<g>
				<line style="fill:#FFFFFF;" x1="203.7" y1="331.9" x2="203.7" y2="340.2"/>
				<path style="fill:#0A2E3D;" d="M203.7,341c-0.5,0-0.8-0.4-0.8-0.8v-8.3c0-0.5,0.4-0.8,0.8-0.8s0.8,0.4,0.8,0.8v8.3
					C204.5,340.7,204.2,341,203.7,341z"/>
			</g>
		</g>
		<g>
			<g>
				<path style="fill:#FFFFFF;" d="M230.7,314.3L230.7,314.3L230.7,314.3c0-2.1-1.4-4.1-4-5.6c0,0,0,0,0,0l-19.3,11.2v22.4l0,0
					c0,0,0,0,0,0v0l0,0c5.4,3,13.9,3,19.2-0.1c2.7-1.5,4-3.6,4-5.6l0,0v0v0V314.3L230.7,314.3z"/>
			</g>
			<g>
				<path style="fill:#DCE2E4;" d="M226.1,309.2C226.1,309.1,226.1,309.1,226.1,309.2l-18.6,10.8c5.2,2.9,13.4,3,18.6,0
					C231.3,317,231.3,312.1,226.1,309.2z"/>
			</g>
			<g>
				<path style="fill:#0A2E3D;" d="M217,345.4L217,345.4c-3.7,0-7.2-0.8-9.8-2.3c-0.1,0-0.2-0.1-0.2-0.1c-0.1-0.1-0.1-0.1-0.2-0.2
					c-0.1-0.1-0.2-0.3-0.2-0.5c0-0.1,0-0.1,0-0.2v-22.3c0-0.3,0.2-0.6,0.4-0.7l19.3-11.2c0.3-0.2,0.6-0.2,0.8,0
					c2.8,1.6,4.4,3.8,4.5,6.1c0,0,0,0.1,0,0.1v22.5c0,0,0,0,0,0.1c0,2.4-1.6,4.6-4.4,6.3C224.4,344.6,220.8,345.4,217,345.4z
					 M208.2,341.9c2.4,1.2,5.5,1.9,8.8,1.9c3.5,0,6.8-0.8,9.3-2.2c2.3-1.3,3.6-3.1,3.6-4.9c0,0,0,0,0-0.1v-22.4c0,0,0-0.1,0-0.1
					c0-1.7-1.2-3.3-3.2-4.6l-18.4,10.7V341.9z"/>
			</g>
			<g>
				<line style="fill:#FFFFFF;" x1="225.8" y1="329.6" x2="225.8" y2="342.4"/>
				<path style="fill:#0A2E3D;" d="M225.8,343.3c-0.5,0-0.8-0.4-0.8-0.8v-12.9c0-0.5,0.4-0.8,0.8-0.8s0.8,0.4,0.8,0.8v12.9
					C226.6,342.9,226.2,343.3,225.8,343.3z"/>
			</g>
		</g>
		<g>
			<line style="fill:#FFFFFF;" x1="180.8" y1="326.2" x2="180.8" y2="318"/>
			<path style="fill:#0A2E3D;" d="M180.8,327c-0.5,0-0.8-0.4-0.8-0.8V318c0-0.5,0.4-0.8,0.8-0.8s0.8,0.4,0.8,0.8v8.2
				C181.6,326.6,181.2,327,180.8,327z"/>
		</g>
		<g>
			<line style="fill:#FFFFFF;" x1="180.8" y1="306.8" x2="180.8" y2="304.2"/>
			<path style="fill:#0A2E3D;" d="M180.8,307.6c-0.5,0-0.8-0.4-0.8-0.8v-2.6c0-0.5,0.4-0.8,0.8-0.8s0.8,0.4,0.8,0.8v2.6
				C181.6,307.2,181.2,307.6,180.8,307.6z"/>
		</g>
	</g>
</g>
</svg>
