<?xml version="1.0" encoding="utf-8"?>
<!-- Generator: Adobe Illustrator 18.0.0, SVG Export Plug-In . SVG Version: 6.00 Build 0)  -->
<!DOCTYPE svg PUBLIC "-//W3C//DTD SVG 1.1//EN" "http://www.w3.org/Graphics/SVG/1.1/DTD/svg11.dtd">
<svg version="1.1" id="Layer_1" xmlns="http://www.w3.org/2000/svg" xmlns:xlink="http://www.w3.org/1999/xlink" x="0px" y="0px"
	 viewBox="0 0 287.8 320" style="enable-background:new 0 0 287.8 320;" xml:space="preserve">
<g>
	<path style="fill:#E7EBEC;" d="M43.1,151.5c-16.9,0-30.6-13.6-30.6-30.5s13.7-30.5,30.6-30.5h202.5c16.9,0,30.6,13.6,30.6,30.5
		s-13.7,30.5-30.6,30.5H43.1z"/>
</g>
<g>
	<g>
		<g>
			<path style="fill:#0A2E3D;" d="M149,27.1h-10.9c-0.3,0-0.5-0.2-0.5-0.5s0.2-0.5,0.5-0.5H149c0.3,0,0.5,0.2,0.5,0.5
				S149.3,27.1,149,27.1z"/>
		</g>
		<g>
			<path style="fill:#0A2E3D;" d="M149,30.3h-10.9c-0.3,0-0.5-0.2-0.5-0.5s0.2-0.5,0.5-0.5H149c0.3,0,0.5,0.2,0.5,0.5
				S149.3,30.3,149,30.3z"/>
		</g>
	</g>
	<g>
		<g>
			<path style="fill:#0A2E3D;" d="M145.9,33.8c-0.1,0-0.2,0-0.3-0.1c-0.2-0.2-0.2-0.5,0-0.7l4.2-4.8l-4.2-4.8
				c-0.2-0.2-0.2-0.5,0-0.7c0.2-0.2,0.5-0.2,0.7,0l4.8,5.4l-4.8,5.4C146.2,33.8,146,33.8,145.9,33.8z"/>
		</g>
	</g>
</g>
<g>
	<g>
		<g>
			<path style="fill:#0A2E3D;" d="M149,288.4h-10.9c-0.3,0-0.5-0.2-0.5-0.5s0.2-0.5,0.5-0.5H149c0.3,0,0.5,0.2,0.5,0.5
				S149.3,288.4,149,288.4z"/>
		</g>
		<g>
			<path style="fill:#0A2E3D;" d="M149,291.5h-10.9c-0.3,0-0.5-0.2-0.5-0.5s0.2-0.5,0.5-0.5H149c0.3,0,0.5,0.2,0.5,0.5
				S149.3,291.5,149,291.5z"/>
		</g>
	</g>
	<g>
		<g>
			<path style="fill:#0A2E3D;" d="M145.9,295.1c-0.1,0-0.2,0-0.3-0.1c-0.2-0.2-0.2-0.5,0-0.7l4.2-4.8l-4.2-4.8
				c-0.2-0.2-0.2-0.5,0-0.7c0.2-0.2,0.5-0.2,0.7,0l4.8,5.4l-4.8,5.4C146.2,295,146,295.1,145.9,295.1z"/>
		</g>
	</g>
</g>
<g>
	<g>
		<g>
			<path style="fill:#0A2E3D;" d="M149,119.9h-10.9c-0.3,0-0.5-0.2-0.5-0.5s0.2-0.5,0.5-0.5H149c0.3,0,0.5,0.2,0.5,0.5
				S149.3,119.9,149,119.9z"/>
		</g>
		<g>
			<path style="fill:#0A2E3D;" d="M149,123h-10.9c-0.3,0-0.5-0.2-0.5-0.5s0.2-0.5,0.5-0.5H149c0.3,0,0.5,0.2,0.5,0.5
				S149.3,123,149,123z"/>
		</g>
	</g>
	<g>
		<g>
			<path style="fill:#0A2E3D;" d="M145.9,126.6c-0.1,0-0.2,0-0.3-0.1c-0.2-0.2-0.2-0.5,0-0.7l4.2-4.8l-4.2-4.8
				c-0.2-0.2-0.2-0.5,0-0.7c0.2-0.2,0.5-0.2,0.7,0l4.8,5.4l-4.8,5.4C146.2,126.5,146,126.6,145.9,126.6z"/>
		</g>
	</g>
</g>
<g>
	<g>
		<g>
			<path style="fill:#0A2E3D;" d="M149,211.1h-10.9c-0.3,0-0.5-0.2-0.5-0.5s0.2-0.5,0.5-0.5H149c0.3,0,0.5,0.2,0.5,0.5
				S149.3,211.1,149,211.1z"/>
		</g>
		<g>
			<path style="fill:#0A2E3D;" d="M149,214.3h-10.9c-0.3,0-0.5-0.2-0.5-0.5s0.2-0.5,0.5-0.5H149c0.3,0,0.5,0.2,0.5,0.5
				S149.3,214.3,149,214.3z"/>
		</g>
	</g>
	<g>
		<g>
			<path style="fill:#0A2E3D;" d="M145.9,217.8c-0.1,0-0.2,0-0.3-0.1c-0.2-0.2-0.2-0.5,0-0.7l4.2-4.8l-4.2-4.8
				c-0.2-0.2-0.2-0.5,0-0.7c0.2-0.2,0.5-0.2,0.7,0l4.8,5.4l-4.8,5.4C146.2,217.7,146,217.8,145.9,217.8z"/>
		</g>
	</g>
</g>
<g>
	<path style="fill:#6C8081;" d="M38.4,31.7c0.2,0,0.3,0.1,0.5,0.1c0.2,0,0.4,0,0.5,0c0.2,0,0.5,0,0.7-0.1s0.4-0.2,0.6-0.3
		c0.2-0.1,0.3-0.3,0.4-0.5c0.1-0.2,0.2-0.5,0.2-0.8c0-0.2,0-0.4-0.1-0.6s-0.2-0.4-0.3-0.6c-0.2-0.2-0.4-0.3-0.6-0.4
		c-0.2-0.1-0.5-0.2-0.8-0.2h-0.6v-1h0.5c0.3,0,0.6,0,0.8-0.1c0.2-0.1,0.4-0.2,0.5-0.3s0.2-0.3,0.3-0.5s0.1-0.4,0.1-0.6
		c0-0.4-0.2-0.8-0.5-1.1c-0.3-0.3-0.7-0.4-1.2-0.4c-0.5,0-0.9,0.2-1.2,0.5c-0.3,0.3-0.5,0.7-0.5,1.3v6.6h-1.1V26
		c0-0.4,0.1-0.8,0.2-1.1c0.1-0.3,0.3-0.6,0.6-0.9s0.5-0.4,0.9-0.6s0.7-0.2,1.1-0.2c0.4,0,0.8,0.1,1.1,0.2c0.3,0.1,0.6,0.3,0.9,0.5
		s0.5,0.5,0.6,0.8c0.1,0.3,0.2,0.6,0.2,1c0,0.6-0.1,1-0.4,1.4s-0.7,0.6-1.1,0.7c0.5,0.1,0.9,0.4,1.3,0.8s0.5,0.9,0.5,1.4
		c0,0.5-0.1,0.9-0.3,1.2c-0.2,0.3-0.4,0.6-0.7,0.9c-0.3,0.2-0.6,0.4-1,0.5c-0.4,0.1-0.7,0.2-1.1,0.2c-0.2,0-0.4,0-0.6,0
		c-0.2,0-0.3-0.1-0.4-0.1V31.7z"/>
	<path style="fill:#6C8081;" d="M44.3,23.8c0.2,0,0.4,0,0.6,0s0.3-0.1,0.3-0.2s0.1-0.2,0.2-0.3c0-0.1,0-0.3,0-0.4h0.7v5.4h-0.7v-3.9
		h-1.1V23.8z"/>
</g>
<g>
	<path style="fill:#6C8081;" d="M37.7,216.1c0.2,0,0.3,0.1,0.5,0.1c0.2,0,0.4,0,0.5,0c0.2,0,0.5,0,0.7-0.1s0.4-0.2,0.6-0.3
		c0.2-0.1,0.3-0.3,0.4-0.5c0.1-0.2,0.2-0.5,0.2-0.8c0-0.2,0-0.4-0.1-0.6c-0.1-0.2-0.2-0.4-0.3-0.6c-0.2-0.2-0.4-0.3-0.6-0.4
		c-0.2-0.1-0.5-0.2-0.8-0.2h-0.6v-1h0.5c0.3,0,0.6,0,0.8-0.1c0.2-0.1,0.4-0.2,0.5-0.3s0.2-0.3,0.3-0.5c0.1-0.2,0.1-0.4,0.1-0.6
		c0-0.4-0.2-0.8-0.5-1.1c-0.3-0.3-0.7-0.4-1.2-0.4c-0.5,0-0.9,0.2-1.2,0.5c-0.3,0.3-0.5,0.7-0.5,1.3v6.6h-1.1v-6.6
		c0-0.4,0.1-0.8,0.2-1.1s0.3-0.6,0.6-0.9c0.2-0.2,0.5-0.4,0.9-0.6c0.3-0.1,0.7-0.2,1.1-0.2c0.4,0,0.8,0.1,1.1,0.2
		c0.3,0.1,0.7,0.3,0.9,0.5c0.3,0.2,0.5,0.5,0.6,0.8c0.2,0.3,0.2,0.6,0.2,1c0,0.6-0.1,1-0.4,1.4c-0.3,0.3-0.7,0.6-1.1,0.7
		c0.5,0.1,0.9,0.4,1.3,0.8s0.5,0.9,0.5,1.4c0,0.5-0.1,0.9-0.3,1.2c-0.2,0.3-0.4,0.6-0.7,0.9c-0.3,0.2-0.6,0.4-1,0.5
		c-0.4,0.1-0.7,0.2-1.1,0.2c-0.2,0-0.4,0-0.6,0c-0.2,0-0.3-0.1-0.4-0.1V216.1z"/>
	<path style="fill:#6C8081;" d="M43.8,211.6c0.1-0.3,0.2-0.5,0.3-0.7s0.3-0.4,0.5-0.5c0.2-0.1,0.4-0.3,0.6-0.4
		c0.1-0.1,0.3-0.1,0.4-0.2c0.1-0.1,0.3-0.2,0.4-0.3c0.1-0.1,0.2-0.2,0.3-0.3s0.1-0.3,0.1-0.5c0-0.3-0.1-0.5-0.3-0.6
		c-0.2-0.1-0.4-0.2-0.7-0.2c-0.3,0-0.5,0.1-0.7,0.3c-0.2,0.2-0.3,0.4-0.3,0.8h-0.7c0-0.3,0-0.5,0.1-0.7c0.1-0.2,0.2-0.4,0.4-0.5
		c0.2-0.1,0.3-0.3,0.5-0.3c0.2-0.1,0.4-0.1,0.7-0.1c0.2,0,0.5,0,0.7,0.1c0.2,0.1,0.4,0.2,0.5,0.3c0.1,0.1,0.3,0.3,0.3,0.5
		s0.1,0.4,0.1,0.7s-0.1,0.5-0.2,0.7s-0.2,0.4-0.4,0.5c-0.2,0.1-0.3,0.3-0.5,0.4s-0.3,0.2-0.4,0.2c-0.2,0.1-0.4,0.2-0.6,0.3
		c-0.1,0.1-0.3,0.2-0.3,0.3s-0.1,0.2-0.2,0.4c0,0.1,0,0.3,0,0.5h2.6v0.6h-3.4C43.7,212.3,43.8,211.9,43.8,211.6z"/>
</g>
<g>
	<path style="fill:#6C8081;" d="M38.4,293.4c0.2,0,0.3,0.1,0.5,0.1c0.2,0,0.4,0,0.5,0c0.2,0,0.5,0,0.7-0.1s0.4-0.2,0.6-0.3
		c0.2-0.1,0.3-0.3,0.4-0.5c0.1-0.2,0.2-0.5,0.2-0.8c0-0.2,0-0.4-0.1-0.6s-0.2-0.4-0.3-0.6c-0.2-0.2-0.4-0.3-0.6-0.4
		c-0.2-0.1-0.5-0.2-0.8-0.2h-0.6v-1h0.5c0.3,0,0.6,0,0.8-0.1c0.2-0.1,0.4-0.2,0.5-0.3s0.2-0.3,0.3-0.5s0.1-0.4,0.1-0.6
		c0-0.4-0.2-0.8-0.5-1.1c-0.3-0.3-0.7-0.4-1.2-0.4c-0.5,0-0.9,0.2-1.2,0.5c-0.3,0.3-0.5,0.7-0.5,1.3v6.6h-1.1v-6.6
		c0-0.4,0.1-0.8,0.2-1.1c0.1-0.3,0.3-0.6,0.6-0.9s0.5-0.4,0.9-0.6s0.7-0.2,1.1-0.2c0.4,0,0.8,0.1,1.1,0.2c0.3,0.1,0.6,0.3,0.9,0.5
		s0.5,0.5,0.6,0.8c0.1,0.3,0.2,0.6,0.2,1c0,0.6-0.1,1-0.4,1.4s-0.7,0.6-1.1,0.7c0.5,0.1,0.9,0.4,1.3,0.8s0.5,0.9,0.5,1.4
		c0,0.5-0.1,0.9-0.3,1.2c-0.2,0.3-0.4,0.6-0.7,0.9c-0.3,0.2-0.6,0.4-1,0.5c-0.4,0.1-0.7,0.2-1.1,0.2c-0.2,0-0.4,0-0.6,0
		c-0.2,0-0.3-0.1-0.4-0.1V293.4z"/>
	<path style="fill:#6C8081;" d="M44.3,285.5c0.2,0,0.4,0,0.6,0s0.3-0.1,0.3-0.2s0.1-0.2,0.2-0.3c0-0.1,0-0.3,0-0.4h0.7v5.4h-0.7
		v-3.9h-1.1V285.5z"/>
</g>
<g>
	<path style="fill:#6C8081;" d="M37.5,124.9c0.2,0,0.3,0.1,0.5,0.1c0.2,0,0.4,0,0.5,0c0.2,0,0.5,0,0.7-0.1s0.4-0.2,0.6-0.3
		c0.2-0.1,0.3-0.3,0.4-0.5c0.1-0.2,0.2-0.5,0.2-0.8c0-0.2,0-0.4-0.1-0.6c-0.1-0.2-0.2-0.4-0.3-0.6c-0.2-0.2-0.4-0.3-0.6-0.4
		c-0.2-0.1-0.5-0.2-0.8-0.2H38v-1h0.5c0.3,0,0.6,0,0.8-0.1c0.2-0.1,0.4-0.2,0.5-0.3s0.2-0.3,0.3-0.5c0.1-0.2,0.1-0.4,0.1-0.6
		c0-0.4-0.2-0.8-0.5-1.1c-0.3-0.3-0.7-0.4-1.2-0.4c-0.5,0-0.9,0.2-1.2,0.5c-0.3,0.3-0.5,0.7-0.5,1.3v6.6h-1.1v-6.6
		c0-0.4,0.1-0.8,0.2-1.1s0.3-0.6,0.6-0.9c0.2-0.2,0.5-0.4,0.9-0.6c0.3-0.1,0.7-0.2,1.1-0.2c0.4,0,0.8,0.1,1.1,0.2
		c0.3,0.1,0.7,0.3,0.9,0.5c0.3,0.2,0.5,0.5,0.6,0.8c0.2,0.3,0.2,0.6,0.2,1c0,0.6-0.1,1-0.4,1.4c-0.3,0.3-0.7,0.6-1.1,0.7
		c0.5,0.1,0.9,0.4,1.3,0.8s0.5,0.9,0.5,1.4c0,0.5-0.1,0.9-0.3,1.2c-0.2,0.3-0.4,0.6-0.7,0.9c-0.3,0.2-0.6,0.4-1,0.5
		c-0.4,0.1-0.7,0.2-1.1,0.2c-0.2,0-0.4,0-0.6,0c-0.2,0-0.3-0.1-0.4-0.1V124.9z"/>
	<path style="fill:#6C8081;" d="M44.2,119.9c0,0.2,0,0.3,0.1,0.5c0.1,0.1,0.1,0.3,0.2,0.4c0.1,0.1,0.2,0.2,0.4,0.2s0.3,0.1,0.5,0.1
		s0.3,0,0.4-0.1s0.2-0.1,0.3-0.2s0.2-0.2,0.2-0.3s0.1-0.2,0.1-0.4c0-0.3-0.1-0.5-0.3-0.7c-0.2-0.2-0.4-0.3-0.8-0.3h-0.4v-0.6h0.4
		c0.3,0,0.6-0.1,0.8-0.2c0.2-0.2,0.2-0.4,0.2-0.6c0-0.3-0.1-0.5-0.3-0.6c-0.2-0.1-0.4-0.2-0.7-0.2c-0.3,0-0.6,0.1-0.8,0.3
		s-0.2,0.4-0.2,0.7h-0.7c0-0.2,0-0.5,0.1-0.6c0.1-0.2,0.2-0.4,0.3-0.5c0.1-0.1,0.3-0.3,0.5-0.3c0.2-0.1,0.4-0.1,0.7-0.1
		c0.2,0,0.5,0,0.7,0.1c0.2,0.1,0.4,0.2,0.5,0.3c0.2,0.1,0.3,0.3,0.4,0.5c0.1,0.2,0.1,0.4,0.1,0.6c0,0.3-0.1,0.6-0.2,0.8
		c-0.1,0.2-0.4,0.3-0.6,0.4c0.3,0.1,0.5,0.2,0.7,0.5c0.2,0.2,0.3,0.5,0.3,0.8c0,0.2,0,0.5-0.1,0.6c-0.1,0.2-0.2,0.4-0.4,0.5
		c-0.2,0.1-0.3,0.2-0.6,0.3c-0.2,0.1-0.5,0.1-0.7,0.1c-0.2,0-0.5,0-0.7-0.1c-0.2-0.1-0.4-0.2-0.6-0.3s-0.3-0.3-0.4-0.6
		c-0.1-0.2-0.1-0.5-0.1-0.8H44.2z"/>
</g>
<g>
	<path style="fill:#6C8081;" d="M251.2,26.7v6h-1.1v-1c-0.2,0.4-0.5,0.7-0.9,0.9c-0.4,0.2-0.8,0.3-1.2,0.3c-0.5,0-0.9-0.1-1.2-0.2
		c-0.4-0.2-0.7-0.4-1-0.7c-0.3-0.3-0.5-0.6-0.6-1c-0.1-0.4-0.2-0.8-0.2-1.2s0.1-0.8,0.2-1.2c0.2-0.4,0.4-0.7,0.6-1
		c0.3-0.3,0.6-0.5,1-0.7c0.4-0.2,0.8-0.2,1.2-0.2c0.4,0,0.8,0.1,1.2,0.3s0.7,0.5,0.9,0.9v-1H251.2z M248,31.8c0.3,0,0.6-0.1,0.8-0.2
		s0.5-0.3,0.6-0.5c0.2-0.2,0.3-0.4,0.4-0.7c0.1-0.3,0.1-0.5,0.1-0.8s0-0.6-0.1-0.8c-0.1-0.3-0.2-0.5-0.4-0.7s-0.4-0.3-0.6-0.5
		c-0.2-0.1-0.5-0.2-0.8-0.2s-0.6,0.1-0.8,0.2c-0.2,0.1-0.5,0.3-0.6,0.5c-0.2,0.2-0.3,0.4-0.4,0.7c-0.1,0.3-0.1,0.5-0.1,0.8
		s0,0.6,0.1,0.8c0.1,0.3,0.2,0.5,0.4,0.7c0.2,0.2,0.4,0.3,0.6,0.5S247.7,31.8,248,31.8z"/>
</g>
<g>
	<path style="fill:#6C8081;" d="M251.4,212.1h-0.8v5h-1.1v-5h-2.4v5H246v-5h-0.8v-1h6.3V212.1z"/>
</g>
<g>
	<path style="fill:#6C8081;" d="M248.3,286.1c-0.5,0-0.9,0.1-1.3,0.2c-0.4,0.2-0.7,0.4-0.9,0.7s-0.4,0.6-0.6,0.9
		c-0.1,0.4-0.2,0.7-0.2,1.1c0,0.4,0.1,0.7,0.2,1.1c0.1,0.4,0.3,0.7,0.5,1c0.2,0.3,0.5,0.5,0.8,0.7s0.7,0.3,1.1,0.4v2.1h-3.4v-1.1
		h2.4v-0.4c-0.4-0.1-0.8-0.3-1.1-0.6c-0.3-0.2-0.6-0.5-0.8-0.9s-0.4-0.7-0.5-1.1c-0.1-0.4-0.2-0.8-0.2-1.3c0-0.6,0.1-1.1,0.3-1.6
		c0.2-0.5,0.5-0.9,0.8-1.3c0.4-0.4,0.8-0.7,1.3-0.9s1.1-0.3,1.7-0.3c0.6,0,1.2,0.1,1.7,0.3s0.9,0.5,1.3,0.9c0.4,0.4,0.6,0.8,0.8,1.3
		c0.2,0.5,0.3,1,0.3,1.6c0,0.4-0.1,0.9-0.2,1.3c-0.1,0.4-0.3,0.8-0.5,1.1s-0.5,0.6-0.8,0.9c-0.3,0.2-0.7,0.4-1.1,0.6v0.4h2.4v1.1
		h-3.4v-2.1c0.4-0.1,0.8-0.2,1.1-0.4s0.6-0.4,0.8-0.7c0.2-0.3,0.4-0.6,0.5-1c0.1-0.4,0.2-0.7,0.2-1.1c0-0.4-0.1-0.8-0.2-1.1
		c-0.1-0.4-0.3-0.7-0.6-0.9c-0.2-0.3-0.6-0.5-0.9-0.7C249.2,286.2,248.8,286.1,248.3,286.1z"/>
</g>
<g>
	<path style="fill:#6C8081;" d="M244.8,129.2v-1.1l4.7-5.8l-4.7-5.8v-1h6.8v1.1h-5.3l4.7,5.6l-4.7,5.9h5.3v1.2H244.8z"/>
</g>
<g>
	<path style="fill:#DCE2E4;" d="M94.2,11.8c5.1,2.9,5.1,7.7,0,10.6s-13.4,2.9-18.5,0s-5.1-7.7,0-10.6S89.1,8.8,94.2,11.8z"/>
</g>
<g>
	<line style="fill:#FFFFFF;" x1="93.8" y1="34.9" x2="93.8" y2="45.1"/>
	<path style="fill:#0A2E3D;" d="M93.8,45.9c-0.5,0-0.8-0.4-0.8-0.8V34.9c0-0.5,0.4-0.8,0.8-0.8s0.8,0.4,0.8,0.8v10.2
		C94.7,45.5,94.3,45.9,93.8,45.9z"/>
</g>
<g>
	<g>
		<polygon style="fill:#FFFFFF;" points="65.4,109.1 84.9,97.7 104.4,109.1 104.4,131.8 84.9,143.2 65.4,131.8 		"/>
		<path style="fill:#0A2E3D;" d="M84.9,144.1c-0.1,0-0.3,0-0.4-0.1L65,132.6c-0.3-0.2-0.4-0.4-0.4-0.7v-22.8c0-0.3,0.2-0.6,0.4-0.7
			l19.5-11.4c0.3-0.2,0.6-0.2,0.9,0l19.5,11.4c0.3,0.2,0.4,0.4,0.4,0.7v22.8c0,0.3-0.2,0.6-0.4,0.7L85.3,144
			C85.2,144,85.1,144.1,84.9,144.1z M66.2,131.3l18.7,10.9l18.7-10.9v-21.8L84.9,98.7l-18.7,10.9V131.3z"/>
	</g>
	<g>
		<path style="fill:#DCE2E4;" d="M103.6,109.5l-18.6,10.8l-18.6-10.8l18.6-10.8L103.6,109.5z"/>
	</g>
	<g>
		<line style="fill:#FFFFFF;" x1="84.9" y1="134.8" x2="84.9" y2="143.2"/>
		<path style="fill:#0A2E3D;" d="M84.9,144.1c-0.5,0-0.8-0.4-0.8-0.8v-8.5c0-0.5,0.4-0.8,0.8-0.8s0.8,0.4,0.8,0.8v8.5
			C85.8,143.7,85.4,144.1,84.9,144.1z"/>
	</g>
</g>
<g>
	<g>
		<g>
			<polygon style="fill:#FFFFFF;" points="185,126.2 204.5,114.8 224,126.2 224,148.9 204.5,160.3 185,148.9 			"/>
			<path style="fill:#0A2E3D;" d="M204.5,161.2c-0.1,0-0.3,0-0.4-0.1l-19.5-11.4c-0.3-0.2-0.4-0.4-0.4-0.7v-22.8
				c0-0.3,0.2-0.6,0.4-0.7L204,114c0.3-0.2,0.6-0.2,0.9,0l19.5,11.4c0.3,0.2,0.4,0.4,0.4,0.7v22.8c0,0.3-0.2,0.6-0.4,0.7l-19.5,11.4
				C204.8,161.1,204.6,161.2,204.5,161.2z M185.8,148.4l18.7,10.9l18.7-10.9v-21.8l-18.7-10.9l-18.7,10.9V148.4z"/>
		</g>
		<g>
			<path style="fill:#B6C3C9;" d="M223.1,126.6l-18.6,10.8l-18.6-10.8l18.6-10.8L223.1,126.6z"/>
		</g>
		<g>
			<line style="fill:#FFFFFF;" x1="204.5" y1="151.9" x2="204.5" y2="160.3"/>
			<path style="fill:#0A2E3D;" d="M204.5,161.2c-0.5,0-0.8-0.4-0.8-0.8v-8.5c0-0.5,0.4-0.8,0.8-0.8s0.8,0.4,0.8,0.8v8.5
				C205.3,160.8,204.9,161.2,204.5,161.2z"/>
		</g>
	</g>
	<g>
		<g>
			<polygon style="fill:#FFFFFF;" points="185,98.5 204.4,87.1 223.9,121.2 204.4,132.6 185,121 			"/>
		</g>
		<g>
			<g>
				<polygon style="fill:#B6C3C9;" points="204.4,131.6 223.1,120.7 204.4,88.1 185.8,99 				"/>
			</g>
			<g>
				<path style="fill:#0A2E3D;" d="M204.4,133.4c-0.1,0-0.3,0-0.4-0.1l-19.5-11.5c-0.3-0.2-0.4-0.4-0.4-0.7V98.5
					c0-0.3,0.2-0.6,0.4-0.7L204,86.4c0.2-0.1,0.4-0.1,0.6-0.1c0.2,0.1,0.4,0.2,0.5,0.4l19.5,34.1c0.2,0.4,0.1,0.9-0.3,1.2
					l-19.5,11.4C204.7,133.4,204.6,133.4,204.4,133.4z M185.8,120.6l18.6,11l18.3-10.7l-18.6-32.6L185.8,99V120.6z"/>
			</g>
			<g>
				
					<path style="fill:none;stroke:#4B4F64;stroke-width:1.5825;stroke-linecap:round;stroke-linejoin:round;stroke-miterlimit:10;" d="
					M194.7,104.2"/>
			</g>
		</g>
	</g>
	<g>
		<g>
			<polygon style="fill:#FFFFFF;" points="185.5,91.9 205,80.6 224.4,91.9 224.4,114.8 205,126.2 			"/>
		</g>
	</g>
	<g>
		<g>
			<path style="fill:#DCE2E4;" d="M224.4,91.9l-19.5,11.3l-19.5-11.3l19.5-11.3L224.4,91.9z"/>
		</g>
		<g>
			<g>
				<path style="fill:#0A2E3D;" d="M205,127c-0.1,0-0.1,0-0.2,0c-0.2-0.1-0.4-0.2-0.5-0.4l-19.5-34.2c-0.2-0.4-0.1-0.9,0.3-1.2
					l19.5-11.4c0.3-0.2,0.6-0.2,0.9,0l19.5,11.4c0.3,0.2,0.4,0.4,0.4,0.7v22.9c0,0.3-0.2,0.6-0.4,0.7l-19.5,11.3
					C205.3,127,205.1,127,205,127z M186.6,92.2l18.6,32.8l18.3-10.6V92.4L205,81.6L186.6,92.2z"/>
			</g>
		</g>
		<g>
			<line style="fill:#FFFFFF;" x1="205" y1="104" x2="205" y2="108.5"/>
			<path style="fill:#0A2E3D;" d="M205,109.4c-0.5,0-0.8-0.4-0.8-0.8V104c0-0.5,0.4-0.8,0.8-0.8s0.8,0.4,0.8,0.8v4.5
				C205.8,109,205.4,109.4,205,109.4z"/>
		</g>
		<g>
			<line style="fill:#FFFFFF;" x1="205" y1="117.7" x2="205" y2="126.2"/>
			<path style="fill:#0A2E3D;" d="M205,127c-0.5,0-0.8-0.4-0.8-0.8v-8.4c0-0.5,0.4-0.8,0.8-0.8s0.8,0.4,0.8,0.8v8.4
				C205.8,126.6,205.4,127,205,127z"/>
		</g>
	</g>
</g>
<g>
	<path style="fill:#0A2E3D;" d="M84.9,48.5c-3.9,0-7.5-0.9-10.3-2.5c-2.9-1.7-4.5-3.9-4.5-6.4l0-22.9c0,0,0-0.1,0-0.1
		c0.1-2.4,1.7-4.6,4.5-6.2c2.8-1.6,6.4-2.5,10.3-2.5s7.5,0.9,10.3,2.5c2.8,1.6,4.4,3.8,4.5,6.2c0,0,0,0.1,0,0.1v22.9
		c0,2.5-1.6,4.8-4.5,6.4C92.4,47.7,88.8,48.5,84.9,48.5z M71.8,16.8v22.8c0,1.8,1.3,3.6,3.7,4.9c2.5,1.4,5.9,2.2,9.4,2.2
		s6.9-0.8,9.4-2.2c2.4-1.4,3.7-3.1,3.7-4.9l0-22.8c0,0,0-0.1,0-0.1c0-1.8-1.3-3.6-3.7-4.9c-2.5-1.4-5.9-2.2-9.4-2.2
		s-6.9,0.8-9.4,2.2C73.1,13.2,71.8,14.9,71.8,16.8C71.8,16.8,71.8,16.8,71.8,16.8z"/>
</g>
<g>
	<polygon style="fill:#DCE2E4;" points="84.9,229.2 84.9,195.2 104.5,217.9 	"/>
</g>
<g>
	<path style="fill:#0A2E3D;" d="M84.9,230c-0.1,0-0.3,0-0.4-0.1l-19.5-11.3c-0.2-0.1-0.4-0.3-0.4-0.6s0-0.5,0.2-0.7l19.5-22.7
		c0.3-0.4,1-0.4,1.3,0l19.5,22.7c0.2,0.2,0.2,0.5,0.2,0.7s-0.2,0.5-0.4,0.6l-19.5,11.3C85.2,230,85.1,230,84.9,230z M66.7,217.7
		l18.2,10.5l18.2-10.5l-18.2-21.1L66.7,217.7z"/>
</g>
<g>
	<line style="fill:#FFFFFF;" x1="84.9" y1="195.2" x2="84.9" y2="201.7"/>
	<path style="fill:#0A2E3D;" d="M84.9,202.5c-0.5,0-0.9-0.4-0.9-0.9v-6.4c0-0.5,0.4-0.9,0.9-0.9s0.9,0.4,0.9,0.9v6.4
		C85.8,202.2,85.4,202.5,84.9,202.5z"/>
</g>
<g>
	<path style="fill:#DCE2E4;" d="M94.2,273.5c5.1,2.9,5.1,7.7,0,10.6c-5.1,2.9-13.4,2.9-18.5,0c-5.1-2.9-5.1-7.7,0-10.6
		S89.1,270.6,94.2,273.5z"/>
</g>
<g>
	<line style="fill:#FFFFFF;" x1="93.8" y1="296.6" x2="93.8" y2="306.8"/>
	<path style="fill:#0A2E3D;" d="M93.8,307.7c-0.5,0-0.8-0.4-0.8-0.8v-10.2c0-0.5,0.4-0.8,0.8-0.8s0.8,0.4,0.8,0.8v10.2
		C94.7,307.3,94.3,307.7,93.8,307.7z"/>
</g>
<g>
	<path style="fill:#0A2E3D;" d="M84.9,310.3c-3.9,0-7.5-0.9-10.3-2.5c-2.9-1.7-4.5-3.9-4.5-6.4l0-22.9c0,0,0-0.1,0-0.1
		c0.1-2.4,1.7-4.6,4.5-6.2c2.8-1.6,6.4-2.5,10.3-2.5s7.5,0.9,10.3,2.5c2.8,1.6,4.4,3.8,4.5,6.2c0,0,0,0.1,0,0.1v22.9
		c0,2.5-1.6,4.8-4.5,6.4C92.4,309.4,88.8,310.3,84.9,310.3z M71.8,278.6v22.8c0,1.8,1.3,3.6,3.7,4.9c2.5,1.4,5.9,2.2,9.4,2.2
		s6.9-0.8,9.4-2.2c2.4-1.4,3.7-3.1,3.7-4.9l0-22.8c0,0,0-0.1,0-0.1c0-1.8-1.3-3.6-3.7-4.9c-2.5-1.4-5.9-2.2-9.4-2.2
		s-6.9,0.8-9.4,2.2C73.1,274.9,71.8,276.7,71.8,278.6C71.8,278.5,71.8,278.6,71.8,278.6z"/>
</g>
<g>
	<line style="fill:#FFFFFF;" x1="84.9" y1="219.9" x2="84.9" y2="228.3"/>
	<path style="fill:#0A2E3D;" d="M84.9,229.2c-0.5,0-0.8-0.4-0.8-0.8v-8.5c0-0.5,0.4-0.8,0.8-0.8s0.8,0.4,0.8,0.8v8.5
		C85.8,228.8,85.4,229.2,84.9,229.2z"/>
</g>
<g>
	<g>
		<path style="fill:#B6C3C9;" d="M223.4,32.5l-18.6,10.8l-18.6-10.8l18.6-10.8L223.4,32.5z"/>
	</g>
	<g>
		<g>
			<g>
				<path style="fill:#0A2E3D;" d="M204.7,57.4L204.7,57.4c-0.3,0-0.5-0.1-0.7-0.3l-19-23.9c-0.2-0.2-0.2-0.4-0.2-0.7
					c0-0.2,0.2-0.5,0.4-0.6l19-11c0.3-0.2,0.6-0.2,0.9,0l19,11c0.2,0.1,0.4,0.3,0.4,0.6s0,0.5-0.2,0.7l-19,23.9
					C205.2,57.3,204.9,57.4,204.7,57.4z M187,32.9l17.7,22.3l17.7-22.3l-17.7-10.2L187,32.9z"/>
			</g>
		</g>
	</g>
	<g>
		<g>
			<polygon style="fill:#FFFFFF;" points="223.6,24.6 204.7,35.6 185.7,24.6 204.7,2.7 			"/>
		</g>
		<g>
			<g>
				<polygon style="fill:#DCE2E4;" points="204.7,35.6 204.7,2.7 223.6,24.6 				"/>
			</g>
			<g>
				<path style="fill:#0A2E3D;" d="M204.7,36.4c-0.1,0-0.3,0-0.4-0.1l-18.9-10.9c-0.2-0.1-0.4-0.3-0.4-0.6s0-0.5,0.2-0.7l18.9-22
					c0.2-0.2,0.4-0.3,0.6-0.3l0,0c0.2,0,0.5,0.1,0.6,0.3l18.9,22c0.2,0.2,0.2,0.5,0.2,0.7s-0.2,0.5-0.4,0.6l-18.9,10.9
					C205,36.4,204.8,36.4,204.7,36.4z M187,24.4l17.6,10.2l17.6-10.2L204.7,4L187,24.4z"/>
			</g>
		</g>
	</g>
	<g>
		<path style="fill:#0A2E3D;" d="M204.7,46c-0.5,0-0.9-0.4-0.9-0.9v-2c0-0.5,0.4-0.9,0.9-0.9s0.9,0.4,0.9,0.9v2
			C205.5,45.6,205.2,46,204.7,46z"/>
	</g>
	<g>
		<path style="fill:#0A2E3D;" d="M204.7,56c-0.5,0-0.9-0.4-0.9-0.9v-5c0-0.5,0.4-0.9,0.9-0.9s0.9,0.4,0.9,0.9v5
			C205.5,55.6,205.2,56,204.7,56z"/>
	</g>
</g>
<g>
	<g>
		<g>
			<polygon style="fill:#FFFFFF;" points="185.5,206.2 204.7,195 223.9,206.2 223.9,228.6 204.7,239.8 185.5,228.6 			"/>
			<path style="fill:#0A2E3D;" d="M204.7,240.7c-0.1,0-0.3,0-0.4-0.1l-19.2-11.2c-0.3-0.2-0.4-0.4-0.4-0.7v-22.4
				c0-0.3,0.2-0.6,0.4-0.7l19.2-11.2c0.3-0.2,0.6-0.2,0.8,0l19.2,11.2c0.3,0.2,0.4,0.4,0.4,0.7v22.4c0,0.3-0.2,0.6-0.4,0.7
				l-19.2,11.2C205,240.6,204.8,240.7,204.7,240.7z M186.3,228.1l18.4,10.7l18.4-10.7v-21.5L204.7,196l-18.4,10.7V228.1z"/>
		</g>
		<g>
			<path style="fill:#B6C3C9;" d="M223,206.7l-18.4,10.6l-18.4-10.6l18.4-10.7L223,206.7z"/>
		</g>
		<g>
			<line style="fill:#FFFFFF;" x1="204.7" y1="231.5" x2="204.7" y2="239.8"/>
			<path style="fill:#0A2E3D;" d="M204.7,240.7c-0.5,0-0.8-0.4-0.8-0.8v-8.3c0-0.5,0.4-0.8,0.8-0.8s0.8,0.4,0.8,0.8v8.3
				C205.5,240.3,205.1,240.7,204.7,240.7z"/>
		</g>
	</g>
	<g>
		<g>
			<polygon style="fill:#FFFFFF;" points="223.6,200 204.7,210.9 185.7,200 204.7,178 			"/>
		</g>
		<g>
			<g>
				<polygon style="fill:#DCE2E4;" points="204.7,210.9 204.7,178 223.6,200 				"/>
			</g>
			<g>
				<path style="fill:#0A2E3D;" d="M204.7,211.7c-0.1,0-0.3,0-0.4-0.1l-18.9-10.9c-0.2-0.1-0.4-0.3-0.4-0.6s0-0.5,0.2-0.7l18.9-22
					c0.3-0.4,1-0.4,1.3,0l18.9,22c0.2,0.2,0.2,0.5,0.2,0.7s-0.2,0.5-0.4,0.6l-18.9,10.9C205,211.7,204.8,211.7,204.7,211.7z
					 M187.1,199.7l17.6,10.2l17.6-10.2l-17.6-20.4L187.1,199.7z"/>
			</g>
		</g>
	</g>
</g>
<g>
	<g>
		<path style="fill:#DCE2E4;" d="M181.2,266.3c-5,2.9-5,7.5,0,10.4c0,0,0,0,0.1,0l18.1-10.5C194.3,263.4,186.2,263.4,181.2,266.3z"
			/>
	</g>
	<g>
		<path style="fill:#0A2E3D;" d="M180.8,300.4c-0.1,0-0.3,0-0.4-0.1c0,0-0.1,0-0.1-0.1c-2.8-1.6-4.4-3.8-4.4-6.2c0,0,0,0,0-0.1
			v-22.5c0,0,0-0.1,0-0.1c0.1-2.4,1.6-4.5,4.4-6.1c2.7-1.6,6.3-2.4,10.1-2.4c3.8,0,7.4,0.9,10.1,2.4c0.3,0.1,0.4,0.4,0.4,0.7v22.4
			c0,0.3-0.2,0.6-0.4,0.7l-19.3,11.3C181,300.4,180.9,300.4,180.8,300.4z M177.5,293.9C177.5,293.9,177.5,293.9,177.5,293.9
			c0,1.8,1.2,3.4,3.3,4.7l18.5-10.8v-21.5c-2.4-1.3-5.5-2-8.8-2c-3.5,0-6.8,0.8-9.3,2.2c-2.3,1.3-3.6,3-3.6,4.8c0,0,0,0.1,0,0.1
			V293.9z"/>
	</g>
	<g>
		
			<path style="fill:#FFFFFF;stroke:#0A2E3D;stroke-width:1.6447;stroke-linecap:round;stroke-linejoin:round;stroke-miterlimit:10;" d="
			M180.8,299.1"/>
	</g>
	<g>
		
			<path style="fill:#FFFFFF;stroke:#0A2E3D;stroke-width:1.6447;stroke-linecap:round;stroke-linejoin:round;stroke-miterlimit:10;" d="
			M180.8,291.5"/>
	</g>
	<g>
		<g>
			<polygon style="fill:#FFFFFF;" points="184.5,279.3 203.7,268.1 222.9,279.3 222.9,301.7 203.7,312.9 184.5,301.7 			"/>
			<path style="fill:#0A2E3D;" d="M203.7,313.7c-0.1,0-0.3,0-0.4-0.1l-19.2-11.2c-0.3-0.2-0.4-0.4-0.4-0.7v-22.4
				c0-0.3,0.2-0.6,0.4-0.7l19.2-11.2c0.3-0.2,0.6-0.2,0.8,0l19.2,11.2c0.3,0.2,0.4,0.4,0.4,0.7v22.4c0,0.3-0.2,0.6-0.4,0.7
				l-19.2,11.2C204,313.7,203.9,313.7,203.7,313.7z M185.3,301.2l18.4,10.7l18.4-10.7v-21.5L203.7,269l-18.4,10.7V301.2z"/>
		</g>
		<g>
			<path style="fill:#DCE2E4;" d="M222.1,279.7l-18.4,10.6l-18.4-10.6l18.4-10.7L222.1,279.7z"/>
		</g>
		<g>
			<line style="fill:#FFFFFF;" x1="203.7" y1="304.6" x2="203.7" y2="312.9"/>
			<path style="fill:#0A2E3D;" d="M203.7,313.7c-0.5,0-0.8-0.4-0.8-0.8v-8.3c0-0.5,0.4-0.8,0.8-0.8s0.8,0.4,0.8,0.8v8.3
				C204.5,313.4,204.2,313.7,203.7,313.7z"/>
		</g>
	</g>
	<g>
		<g>
			<path style="fill:#FFFFFF;" d="M230.7,287L230.7,287L230.7,287c0-2.1-1.4-4.1-4-5.6c0,0,0,0,0,0l-19.3,11.2V315l0,0c0,0,0,0,0,0
				v0l0,0c5.4,3,13.9,3,19.2-0.1c2.7-1.5,4-3.6,4-5.6l0,0v0v0V287L230.7,287z"/>
		</g>
		<g>
			<path style="fill:#DCE2E4;" d="M226.1,281.9C226.1,281.8,226.1,281.8,226.1,281.9l-18.6,10.8c5.2,2.9,13.4,3,18.6,0
				C231.3,289.7,231.3,284.8,226.1,281.9z"/>
		</g>
		<g>
			<path style="fill:#0A2E3D;" d="M217,318.1L217,318.1c-3.7,0-7.2-0.8-9.8-2.3c-0.1,0-0.2-0.1-0.2-0.1c-0.1-0.1-0.1-0.1-0.2-0.2
				c-0.1-0.1-0.2-0.3-0.2-0.5c0-0.1,0-0.1,0-0.2v-22.3c0-0.3,0.2-0.6,0.4-0.7l19.3-11.2c0.3-0.2,0.6-0.2,0.8,0
				c2.8,1.6,4.4,3.8,4.5,6.1c0,0,0,0.1,0,0.1v22.5c0,0,0,0,0,0.1c0,2.4-1.6,4.6-4.4,6.3C224.4,317.3,220.8,318.1,217,318.1z
				 M208.2,314.6c2.4,1.2,5.5,1.9,8.8,1.9c3.5,0,6.8-0.8,9.3-2.2c2.3-1.3,3.6-3.1,3.6-4.9c0,0,0,0,0-0.1V287c0,0,0-0.1,0-0.1
				c0-1.7-1.2-3.3-3.2-4.6l-18.4,10.7V314.6z"/>
		</g>
		<g>
			<line style="fill:#FFFFFF;" x1="225.8" y1="302.3" x2="225.8" y2="315.1"/>
			<path style="fill:#0A2E3D;" d="M225.8,316c-0.5,0-0.8-0.4-0.8-0.8v-12.9c0-0.5,0.4-0.8,0.8-0.8s0.8,0.4,0.8,0.8v12.9
				C226.6,315.6,226.2,316,225.8,316z"/>
		</g>
	</g>
	<g>
		<line style="fill:#FFFFFF;" x1="180.8" y1="298.9" x2="180.8" y2="290.7"/>
		<path style="fill:#0A2E3D;" d="M180.8,299.7c-0.5,0-0.8-0.4-0.8-0.8v-8.2c0-0.5,0.4-0.8,0.8-0.8s0.8,0.4,0.8,0.8v8.2
			C181.6,299.3,181.2,299.7,180.8,299.7z"/>
	</g>
	<g>
		<line style="fill:#FFFFFF;" x1="180.8" y1="279.5" x2="180.8" y2="276.9"/>
		<path style="fill:#0A2E3D;" d="M180.8,280.3c-0.5,0-0.8-0.4-0.8-0.8v-2.6c0-0.5,0.4-0.8,0.8-0.8s0.8,0.4,0.8,0.8v2.6
			C181.6,279.9,181.2,280.3,180.8,280.3z"/>
	</g>
</g>
</svg>
