<?xml version="1.0" encoding="utf-8"?>
<!-- Generator: Adobe Illustrator 18.0.0, SVG Export Plug-In . SVG Version: 6.00 Build 0)  -->
<!DOCTYPE svg PUBLIC "-//W3C//DTD SVG 1.1//EN" "http://www.w3.org/Graphics/SVG/1.1/DTD/svg11.dtd">
<svg version="1.1" id="Layer_1" xmlns="http://www.w3.org/2000/svg" xmlns:xlink="http://www.w3.org/1999/xlink" x="0px" y="0px"
	 viewBox="0 0 287.8 374.6" style="enable-background:new 0 0 287.8 374.6;" xml:space="preserve">
<g>
	<g>
		<g>
			<path style="fill:#0A2E3D;" d="M245.9,36.8c-0.3,0-0.5-0.2-0.5-0.5V19.8c0-0.3,0.2-0.5,0.5-0.5s0.5,0.2,0.5,0.5v16.5
				C246.4,36.6,246.2,36.8,245.9,36.8z"/>
		</g>
		<g>
			<path style="fill:#0A2E3D;" d="M245.9,37.1l-6.8-6.9c-0.2-0.2-0.2-0.6,0-0.8c0.2-0.2,0.6-0.2,0.8,0l6,6.1l6-6.1
				c0.2-0.2,0.6-0.2,0.8,0c0.2,0.2,0.2,0.6,0,0.8L245.9,37.1z"/>
		</g>
	</g>
	<g>
		<g>
			<path style="fill:#0A2E3D;" d="M37.9,355.4c-0.3,0-0.5-0.2-0.5-0.5v-16.5c0-0.3,0.2-0.5,0.5-0.5s0.5,0.2,0.5,0.5v16.5
				C38.4,355.1,38.2,355.4,37.9,355.4z"/>
		</g>
		<g>
			<path style="fill:#0A2E3D;" d="M37.9,355.6l-6.8-6.9c-0.2-0.2-0.2-0.6,0-0.8c0.2-0.2,0.6-0.2,0.8,0l6,6.1l6-6.1
				c0.2-0.2,0.6-0.2,0.8,0c0.2,0.2,0.2,0.6,0,0.8L37.9,355.6z"/>
		</g>
	</g>
	<g>
		<path style="fill:#0A2E3D;" d="M208.3,281.3h-1c-0.6,0-1-0.5-1-1s0.5-1,1-1h1c0.6,0,1,0.5,1,1S208.9,281.3,208.3,281.3z
			 M213.4,281.3c-0.6,0-1-0.4-1-1c0-0.6,0.4-1,1-1c0.3,0,0.7,0,1,0c0.6,0,1,0.4,1.1,1c0,0.6-0.4,1-1,1.1
			C214.2,281.2,213.8,281.3,213.4,281.3C213.5,281.3,213.4,281.3,213.4,281.3z M219.5,280.7c-0.5,0-0.9-0.4-1-0.9
			c-0.1-0.6,0.3-1.1,0.8-1.2c0.3-0.1,0.7-0.1,1-0.2c0.6-0.1,1.1,0.3,1.2,0.8c0.1,0.6-0.3,1.1-0.8,1.2c-0.3,0.1-0.7,0.1-1,0.2
			C219.6,280.7,219.6,280.7,219.5,280.7z M225.5,279.4c-0.4,0-0.8-0.3-1-0.7c-0.2-0.5,0.1-1.1,0.7-1.3c0.3-0.1,0.6-0.2,1-0.3
			c0.5-0.2,1.1,0.1,1.3,0.7c0.2,0.5-0.1,1.1-0.7,1.3c-0.3,0.1-0.7,0.2-1,0.3C225.7,279.3,225.6,279.4,225.5,279.4z M231.2,277.2
			c-0.4,0-0.8-0.2-0.9-0.6c-0.2-0.5,0-1.1,0.5-1.4c0.3-0.1,0.6-0.3,0.9-0.4c0.5-0.2,1.1,0,1.4,0.5c0.2,0.5,0,1.1-0.5,1.4
			c-0.3,0.2-0.6,0.3-0.9,0.4C231.5,277.2,231.3,277.2,231.2,277.2z M236.6,274.3c-0.3,0-0.7-0.2-0.9-0.5c-0.3-0.5-0.2-1.1,0.3-1.4
			c0.3-0.2,0.6-0.4,0.8-0.5c0.5-0.3,1.1-0.2,1.4,0.3c0.3,0.5,0.2,1.1-0.3,1.4c-0.3,0.2-0.6,0.4-0.9,0.6
			C236.9,274.2,236.8,274.3,236.6,274.3z M241.5,270.6c-0.3,0-0.6-0.1-0.8-0.4c-0.4-0.4-0.3-1.1,0.1-1.4c0.3-0.2,0.5-0.4,0.8-0.7
			c0.4-0.4,1.1-0.3,1.4,0.1c0.4,0.4,0.3,1.1-0.1,1.4c-0.3,0.2-0.5,0.5-0.8,0.7C242,270.6,241.7,270.6,241.5,270.6z M245.9,266.4
			c-0.2,0-0.5-0.1-0.7-0.3c-0.4-0.4-0.5-1-0.1-1.4c0.2-0.2,0.4-0.5,0.7-0.8c0.4-0.4,1-0.5,1.4-0.1c0.4,0.4,0.5,1,0.1,1.4
			c-0.2,0.3-0.5,0.5-0.7,0.8C246.4,266.3,246.1,266.4,245.9,266.4z M249.6,261.6c-0.2,0-0.4-0.1-0.6-0.2c-0.5-0.3-0.6-1-0.3-1.4
			c0.2-0.3,0.4-0.6,0.5-0.8c0.3-0.5,0.9-0.6,1.4-0.3c0.5,0.3,0.6,0.9,0.3,1.4c-0.2,0.3-0.4,0.6-0.6,0.9
			C250.3,261.4,250,261.6,249.6,261.6z M252.7,256.3c-0.2,0-0.3,0-0.5-0.1c-0.5-0.3-0.7-0.9-0.5-1.4c0.1-0.3,0.3-0.6,0.4-0.9
			c0.2-0.5,0.8-0.7,1.4-0.5c0.5,0.2,0.7,0.8,0.5,1.4c-0.1,0.3-0.3,0.6-0.5,0.9C253.4,256.1,253.1,256.3,252.7,256.3z M255,250.6
			c-0.1,0-0.2,0-0.3-0.1c-0.5-0.2-0.8-0.8-0.6-1.3c0.1-0.3,0.2-0.6,0.3-1c0.2-0.5,0.7-0.8,1.3-0.7c0.5,0.2,0.8,0.7,0.7,1.3
			c-0.1,0.3-0.2,0.7-0.3,1C255.9,250.3,255.5,250.6,255,250.6z M256.6,244.7c-0.1,0-0.1,0-0.2,0c-0.6-0.1-0.9-0.6-0.8-1.2
			c0.1-0.3,0.1-0.7,0.2-1c0.1-0.6,0.6-0.9,1.2-0.8c0.6,0.1,0.9,0.6,0.8,1.2c-0.1,0.3-0.1,0.7-0.2,1
			C257.5,244.3,257,244.7,256.6,244.7z M257.3,238.6C257.2,238.6,257.2,238.6,257.3,238.6c-0.6,0-1-0.5-1-1.1c0-0.3,0-0.7,0-1
			c0-0.6,0.5-1,1-1c0,0,0,0,0,0c0.6,0,1,0.5,1,1c0,0.3,0,0.7,0,1C258.3,238.2,257.8,238.6,257.3,238.6z M257.1,232.5
			c-0.5,0-1-0.4-1-0.9c0-0.3-0.1-0.7-0.1-1c-0.1-0.6,0.3-1.1,0.9-1.1c0.6-0.1,1.1,0.3,1.1,0.9c0,0.3,0.1,0.7,0.1,1
			C258.2,231.9,257.8,232.4,257.1,232.5C257.2,232.5,257.2,232.5,257.1,232.5z M256.2,226.5c-0.5,0-0.9-0.3-1-0.8
			c-0.1-0.3-0.2-0.6-0.2-1c-0.1-0.5,0.2-1.1,0.7-1.2c0.5-0.1,1.1,0.2,1.2,0.7c0.1,0.3,0.2,0.7,0.2,1c0.1,0.5-0.2,1.1-0.8,1.2
			C256.3,226.4,256.3,226.5,256.2,226.5z M254.4,220.6c-0.4,0-0.8-0.3-1-0.7c-0.1-0.3-0.2-0.6-0.4-0.9c-0.2-0.5,0-1.1,0.6-1.3
			c0.5-0.2,1.1,0,1.3,0.6c0.1,0.3,0.3,0.6,0.4,1c0.2,0.5-0.1,1.1-0.6,1.3C254.7,220.6,254.5,220.6,254.4,220.6z M251.9,215
			c-0.4,0-0.7-0.2-0.9-0.5c-0.2-0.3-0.3-0.6-0.5-0.9c-0.3-0.5-0.1-1.1,0.4-1.4c0.5-0.3,1.1-0.1,1.4,0.4c0.2,0.3,0.3,0.6,0.5,0.9
			c0.3,0.5,0.1,1.1-0.4,1.4C252.2,215,252,215,251.9,215z M248.6,209.9c-0.3,0-0.6-0.1-0.8-0.4c-0.2-0.3-0.4-0.5-0.6-0.8
			c-0.3-0.4-0.3-1.1,0.2-1.4c0.4-0.3,1.1-0.3,1.4,0.2c0.2,0.3,0.4,0.6,0.6,0.8c0.3,0.5,0.2,1.1-0.2,1.4
			C249,209.8,248.8,209.9,248.6,209.9z M244.6,205.2c-0.3,0-0.5-0.1-0.7-0.3c-0.2-0.2-0.5-0.5-0.7-0.7c-0.4-0.4-0.4-1,0-1.4
			c0.4-0.4,1-0.4,1.4,0c0.2,0.2,0.5,0.5,0.7,0.7c0.4,0.4,0.4,1,0,1.4C245.2,205.1,244.9,205.2,244.6,205.2z M240.1,201.1
			c-0.2,0-0.4-0.1-0.6-0.2c-0.3-0.2-0.5-0.4-0.8-0.6c-0.5-0.3-0.5-1-0.2-1.4c0.3-0.5,1-0.5,1.4-0.2c0.3,0.2,0.6,0.4,0.8,0.6
			c0.4,0.3,0.5,1,0.2,1.4C240.7,201,240.4,201.1,240.1,201.1z M235,197.7c-0.2,0-0.3,0-0.5-0.1c-0.3-0.2-0.6-0.3-0.9-0.5
			c-0.5-0.3-0.7-0.9-0.4-1.4c0.3-0.5,0.9-0.7,1.4-0.4c0.3,0.2,0.6,0.3,0.9,0.5c0.5,0.3,0.7,0.9,0.4,1.4
			C235.7,197.5,235.4,197.7,235,197.7z M229.6,195c-0.1,0-0.3,0-0.4-0.1c-0.3-0.1-0.6-0.2-0.9-0.4c-0.5-0.2-0.8-0.8-0.6-1.3
			c0.2-0.5,0.8-0.8,1.3-0.6c0.3,0.1,0.6,0.3,1,0.4c0.5,0.2,0.8,0.8,0.6,1.3C230.3,194.8,230,195,229.6,195z M223.7,193.1
			c-0.1,0-0.2,0-0.3,0c-0.3-0.1-0.6-0.2-1-0.2c-0.5-0.1-0.9-0.7-0.8-1.2c0.1-0.5,0.7-0.9,1.2-0.8c0.3,0.1,0.7,0.2,1,0.2
			c0.5,0.1,0.9,0.7,0.7,1.2C224.6,192.8,224.2,193.1,223.7,193.1z M217.7,191.9c0,0-0.1,0-0.1,0c-0.3,0-0.7-0.1-1-0.1
			c-0.6-0.1-1-0.5-0.9-1.1s0.5-1,1.1-0.9c0.3,0,0.7,0.1,1,0.1c0.6,0.1,1,0.6,0.9,1.1C218.7,191.6,218.2,191.9,217.7,191.9z
			 M211.6,191.6h-1c-0.6,0-1-0.5-1-1s0.5-1,1-1h1c0.6,0,1,0.5,1,1S212.2,191.6,211.6,191.6z M205.5,191.6h-1c-0.6,0-1-0.5-1-1
			s0.5-1,1-1h1c0.6,0,1,0.5,1,1S206.1,191.6,205.5,191.6z M199.4,191.6h-1c-0.6,0-1-0.5-1-1s0.5-1,1-1h1c0.6,0,1,0.5,1,1
			S200,191.6,199.4,191.6z M193.3,191.6h-1c-0.6,0-1-0.5-1-1s0.5-1,1-1h1c0.6,0,1,0.5,1,1S193.8,191.6,193.3,191.6z M187.1,191.6h-1
			c-0.6,0-1-0.5-1-1s0.5-1,1-1h1c0.6,0,1,0.5,1,1S187.7,191.6,187.1,191.6z M181,191.6h-1c-0.6,0-1-0.5-1-1s0.5-1,1-1h1
			c0.6,0,1,0.5,1,1S181.6,191.6,181,191.6z M174.9,191.6h-1c-0.6,0-1-0.5-1-1s0.5-1,1-1h1c0.6,0,1,0.5,1,1S175.5,191.6,174.9,191.6z
			 M168.8,191.6h-1c-0.6,0-1-0.5-1-1s0.5-1,1-1h1c0.6,0,1,0.5,1,1S169.3,191.6,168.8,191.6z M162.7,191.6h-1c-0.6,0-1-0.5-1-1
			s0.5-1,1-1h1c0.6,0,1,0.5,1,1S163.2,191.6,162.7,191.6z M156.5,191.6h-1c-0.6,0-1-0.5-1-1s0.5-1,1-1h1c0.6,0,1,0.5,1,1
			S157.1,191.6,156.5,191.6z M150.4,191.6h-1c-0.6,0-1-0.5-1-1s0.5-1,1-1h1c0.6,0,1,0.5,1,1S151,191.6,150.4,191.6z M144.3,191.6h-1
			c-0.6,0-1-0.5-1-1s0.5-1,1-1h1c0.6,0,1,0.5,1,1S144.9,191.6,144.3,191.6z M138.2,191.6h-1c-0.6,0-1-0.5-1-1s0.5-1,1-1h1
			c0.6,0,1,0.5,1,1S138.7,191.6,138.2,191.6z M132.1,191.6h-1c-0.6,0-1-0.5-1-1s0.5-1,1-1h1c0.6,0,1,0.5,1,1
			S132.6,191.6,132.1,191.6z M125.9,191.6h-1c-0.6,0-1-0.5-1-1s0.5-1,1-1h1c0.6,0,1,0.5,1,1S126.5,191.6,125.9,191.6z M119.8,191.6
			h-1c-0.6,0-1-0.5-1-1s0.5-1,1-1h1c0.6,0,1,0.5,1,1S120.4,191.6,119.8,191.6z M113.7,191.6h-1c-0.6,0-1-0.5-1-1s0.5-1,1-1h1
			c0.6,0,1,0.5,1,1S114.3,191.6,113.7,191.6z M107.6,191.6h-1c-0.6,0-1-0.5-1-1s0.5-1,1-1h1c0.6,0,1,0.5,1,1
			S108.1,191.6,107.6,191.6z M101.5,191.6h-1c-0.6,0-1-0.5-1-1s0.5-1,1-1h1c0.6,0,1,0.5,1,1S102,191.6,101.5,191.6z M95.3,191.6h-1
			c-0.6,0-1-0.5-1-1s0.5-1,1-1h1c0.6,0,1,0.5,1,1S95.9,191.6,95.3,191.6z M89.2,191.6h-1c-0.6,0-1-0.5-1-1s0.5-1,1-1h1
			c0.6,0,1,0.5,1,1S89.8,191.6,89.2,191.6z M83.1,191.6C83.1,191.6,83.1,191.6,83.1,191.6c-0.4,0-0.7,0-1.1,0c-0.6,0-1-0.5-1-1.1
			c0-0.6,0.5-1,1.1-1c0.3,0,0.7,0,1,0c0.6,0,1,0.5,1,1.1C84.1,191.2,83.6,191.6,83.1,191.6z M77,191c-0.1,0-0.1,0-0.2,0
			c-0.3-0.1-0.7-0.1-1-0.2c-0.6-0.1-0.9-0.6-0.8-1.2c0.1-0.6,0.6-0.9,1.2-0.8c0.3,0.1,0.7,0.1,1,0.2c0.6,0.1,0.9,0.6,0.8,1.2
			C77.9,190.6,77.5,191,77,191z M71.1,189.5c-0.1,0-0.2,0-0.3,0c-0.3-0.1-0.7-0.2-1-0.3c-0.5-0.2-0.8-0.8-0.6-1.3
			c0.2-0.5,0.8-0.8,1.3-0.6c0.3,0.1,0.6,0.2,0.9,0.3c0.5,0.2,0.8,0.7,0.7,1.3C71.9,189.2,71.5,189.5,71.1,189.5z M65.4,187.3
			c-0.1,0-0.3,0-0.4-0.1c-0.3-0.1-0.6-0.3-0.9-0.5c-0.5-0.3-0.7-0.9-0.4-1.4c0.3-0.5,0.9-0.7,1.4-0.4c0.3,0.2,0.6,0.3,0.9,0.4
			c0.5,0.2,0.7,0.9,0.5,1.4C66.1,187,65.8,187.3,65.4,187.3z M60.1,184.3c-0.2,0-0.4-0.1-0.6-0.2c-0.3-0.2-0.6-0.4-0.9-0.6
			c-0.5-0.3-0.6-1-0.3-1.4c0.3-0.5,1-0.6,1.4-0.3c0.3,0.2,0.5,0.4,0.8,0.6c0.5,0.3,0.6,0.9,0.3,1.4
			C60.7,184.1,60.4,184.3,60.1,184.3z M55.2,180.5c-0.2,0-0.5-0.1-0.7-0.3c-0.3-0.2-0.5-0.5-0.8-0.7c-0.4-0.4-0.4-1-0.1-1.4
			c0.4-0.4,1-0.4,1.4-0.1c0.2,0.2,0.5,0.4,0.7,0.7c0.4,0.4,0.5,1,0.1,1.4C55.8,180.4,55.5,180.5,55.2,180.5z M50.9,176.2
			c-0.3,0-0.6-0.1-0.8-0.4c-0.2-0.3-0.5-0.5-0.7-0.8c-0.4-0.4-0.3-1.1,0.1-1.4c0.4-0.4,1.1-0.3,1.4,0.1c0.2,0.3,0.4,0.5,0.6,0.8
			c0.4,0.4,0.3,1.1-0.1,1.4C51.4,176.1,51.1,176.2,50.9,176.2z M47.2,171.3c-0.3,0-0.7-0.2-0.9-0.5c-0.2-0.3-0.4-0.6-0.6-0.9
			c-0.3-0.5-0.2-1.1,0.3-1.4c0.5-0.3,1.1-0.2,1.4,0.3c0.2,0.3,0.4,0.6,0.5,0.8c0.3,0.5,0.2,1.1-0.3,1.4
			C47.6,171.3,47.4,171.3,47.2,171.3z M44.2,166c-0.4,0-0.7-0.2-0.9-0.6c-0.1-0.3-0.3-0.6-0.4-0.9c-0.2-0.5,0-1.1,0.5-1.3
			c0.5-0.2,1.1,0,1.3,0.5c0.1,0.3,0.3,0.6,0.4,0.9c0.2,0.5,0,1.1-0.5,1.4C44.5,166,44.4,166,44.2,166z M42,160.3
			c-0.4,0-0.8-0.3-1-0.7c-0.1-0.3-0.2-0.7-0.3-1c-0.2-0.5,0.2-1.1,0.7-1.3c0.5-0.2,1.1,0.2,1.3,0.7c0.1,0.3,0.2,0.6,0.3,1
			c0.2,0.5-0.1,1.1-0.7,1.3C42.2,160.3,42.1,160.3,42,160.3z M40.5,154.4c-0.5,0-0.9-0.4-1-0.9c-0.1-0.3-0.1-0.7-0.2-1
			c-0.1-0.6,0.3-1.1,0.9-1.2c0.6-0.1,1.1,0.3,1.2,0.9c0,0.3,0.1,0.7,0.2,1c0.1,0.6-0.3,1.1-0.8,1.2
			C40.7,154.4,40.6,154.4,40.5,154.4z M39.9,148.3c-0.5,0-1-0.4-1-1c0-0.3,0-0.7,0-1c0-0.6,0.4-1,1-1c0,0,0,0,0,0c0.6,0,1,0.5,1,1
			c0,0.3,0,0.7,0,1C41,147.8,40.5,148.3,39.9,148.3C40,148.3,39.9,148.3,39.9,148.3z M40.2,142.2c0,0-0.1,0-0.1,0
			c-0.6-0.1-1-0.6-0.9-1.1c0-0.3,0.1-0.7,0.1-1c0.1-0.6,0.6-1,1.1-0.9c0.6,0.1,1,0.6,0.9,1.1c0,0.3-0.1,0.7-0.1,1
			C41.1,141.8,40.7,142.2,40.2,142.2z M41.2,136.1c-0.1,0-0.2,0-0.2,0c-0.5-0.1-0.9-0.7-0.7-1.2c0.1-0.3,0.2-0.7,0.3-1
			c0.1-0.5,0.7-0.9,1.2-0.7c0.5,0.1,0.9,0.7,0.7,1.3c-0.1,0.3-0.2,0.6-0.2,1C42.1,135.8,41.7,136.1,41.2,136.1z M43.1,130.3
			c-0.1,0-0.3,0-0.4-0.1c-0.5-0.2-0.8-0.8-0.6-1.3c0.1-0.3,0.3-0.6,0.4-1c0.2-0.5,0.8-0.8,1.3-0.5c0.5,0.2,0.8,0.8,0.5,1.3
			c-0.1,0.3-0.3,0.6-0.4,0.9C43.8,130.1,43.5,130.3,43.1,130.3z M45.7,124.8c-0.2,0-0.3,0-0.5-0.1c-0.5-0.3-0.7-0.9-0.4-1.4
			c0.2-0.3,0.3-0.6,0.5-0.9c0.3-0.5,0.9-0.6,1.4-0.4c0.5,0.3,0.6,0.9,0.4,1.4c-0.2,0.3-0.3,0.6-0.5,0.9
			C46.4,124.6,46,124.8,45.7,124.8z M49,119.7c-0.2,0-0.4-0.1-0.6-0.2c-0.4-0.3-0.5-1-0.2-1.4c0.2-0.3,0.4-0.6,0.6-0.8
			c0.4-0.4,1-0.5,1.4-0.2c0.4,0.4,0.5,1,0.2,1.4c-0.2,0.3-0.4,0.5-0.6,0.8C49.7,119.6,49.4,119.7,49,119.7z M53.1,115.1
			c-0.3,0-0.5-0.1-0.7-0.3c-0.4-0.4-0.4-1,0-1.4c0.2-0.2,0.5-0.5,0.7-0.7c0.4-0.4,1.1-0.4,1.4,0c0.4,0.4,0.4,1.1,0,1.4
			c-0.2,0.2-0.5,0.5-0.7,0.7C53.6,115,53.3,115.1,53.1,115.1z M57.7,111.1c-0.3,0-0.6-0.1-0.8-0.4c-0.3-0.4-0.3-1.1,0.2-1.4
			c0.3-0.2,0.6-0.4,0.8-0.6c0.5-0.3,1.1-0.2,1.4,0.2c0.3,0.5,0.2,1.1-0.2,1.4c-0.3,0.2-0.5,0.4-0.8,0.6
			C58.1,111,57.9,111.1,57.7,111.1z M62.8,107.7c-0.4,0-0.7-0.2-0.9-0.5c-0.3-0.5-0.1-1.1,0.4-1.4c0.3-0.2,0.6-0.3,0.9-0.5
			c0.5-0.3,1.1-0.1,1.4,0.4c0.3,0.5,0.1,1.1-0.4,1.4c-0.3,0.2-0.6,0.3-0.9,0.5C63.1,107.7,63,107.7,62.8,107.7z M68.3,105.1
			c-0.4,0-0.8-0.2-0.9-0.6c-0.2-0.5,0.1-1.1,0.6-1.3c0.3-0.1,0.6-0.3,1-0.4c0.5-0.2,1.1,0.1,1.3,0.6c0.2,0.5-0.1,1.1-0.6,1.3
			c-0.3,0.1-0.6,0.2-0.9,0.4C68.6,105.1,68.4,105.1,68.3,105.1z M74.2,103.3c-0.5,0-0.9-0.3-1-0.8c-0.1-0.5,0.2-1.1,0.8-1.2
			c0.3-0.1,0.7-0.2,1-0.2c0.6-0.1,1.1,0.2,1.2,0.8s-0.2,1.1-0.8,1.2c-0.3,0.1-0.6,0.1-1,0.2C74.3,103.3,74.2,103.3,74.2,103.3z
			 M80.2,102.2c-0.5,0-1-0.4-1-0.9c-0.1-0.6,0.4-1.1,0.9-1.1c0.3,0,0.7-0.1,1-0.1c0.6-0.1,1.1,0.4,1.1,0.9c0,0.6-0.4,1.1-0.9,1.1
			c-0.3,0-0.7,0.1-1,0.1C80.3,102.2,80.2,102.2,80.2,102.2z M93.4,102h-1c-0.6,0-1-0.5-1-1s0.5-1,1-1h1c0.6,0,1,0.5,1,1
			S94,102,93.4,102z M87.3,102h-1c-0.6,0-1-0.5-1-1s0.5-1,1-1h1c0.6,0,1,0.5,1,1S87.9,102,87.3,102z"/>
	</g>
	<g>
		<g>
			<path style="fill:#0A2E3D;" d="M37.9,323.4C37.9,323.4,37.9,323.4,37.9,323.4c-0.6,0-1.1-0.5-1-1.1c0-0.3,0-0.7,0.1-1
				c0-0.6,0.5-1,1.1-0.9c0.6,0,1,0.5,0.9,1.1c0,0.3,0,0.7-0.1,1C38.9,323,38.5,323.4,37.9,323.4z M38.7,317.4c-0.1,0-0.1,0-0.2,0
				c-0.6-0.1-0.9-0.6-0.8-1.2c0.1-0.3,0.1-0.7,0.2-1c0.1-0.5,0.7-0.9,1.2-0.8c0.6,0.1,0.9,0.7,0.8,1.2c-0.1,0.3-0.1,0.6-0.2,1
				C39.6,317,39.2,317.4,38.7,317.4z M40.3,311.5c-0.1,0-0.2,0-0.3-0.1c-0.5-0.2-0.8-0.8-0.6-1.3c0.1-0.3,0.2-0.7,0.4-1
				c0.2-0.5,0.8-0.8,1.3-0.6c0.5,0.2,0.8,0.8,0.6,1.3c-0.1,0.3-0.2,0.6-0.3,0.9C41.1,311.2,40.7,311.5,40.3,311.5z M42.7,305.8
				c-0.2,0-0.3,0-0.5-0.1c-0.5-0.3-0.7-0.9-0.4-1.4c0.2-0.3,0.3-0.6,0.5-0.9c0.3-0.5,0.9-0.7,1.4-0.4c0.5,0.3,0.7,0.9,0.4,1.4
				c-0.2,0.3-0.3,0.6-0.5,0.9C43.4,305.6,43.1,305.8,42.7,305.8z M45.8,300.6c-0.2,0-0.4-0.1-0.6-0.2c-0.5-0.3-0.6-1-0.3-1.4
				c0.2-0.3,0.4-0.6,0.6-0.8c0.3-0.5,1-0.6,1.4-0.2c0.5,0.3,0.6,1,0.2,1.4c-0.2,0.3-0.4,0.5-0.6,0.8
				C46.5,300.4,46.1,300.6,45.8,300.6z M49.6,295.8c-0.2,0-0.5-0.1-0.7-0.3c-0.4-0.4-0.4-1-0.1-1.4c0.2-0.3,0.5-0.5,0.7-0.8
				c0.4-0.4,1-0.4,1.4,0c0.4,0.4,0.4,1,0,1.4c-0.2,0.2-0.5,0.5-0.7,0.7C50.2,295.7,49.9,295.8,49.6,295.8z M54.1,291.6
				c-0.3,0-0.6-0.1-0.8-0.4c-0.4-0.4-0.3-1.1,0.1-1.4c0.3-0.2,0.5-0.4,0.8-0.7c0.4-0.3,1.1-0.3,1.4,0.2c0.4,0.4,0.3,1.1-0.2,1.4
				c-0.3,0.2-0.5,0.4-0.8,0.6C54.5,291.5,54.3,291.6,54.1,291.6z M59,288c-0.3,0-0.7-0.2-0.9-0.5c-0.3-0.5-0.2-1.1,0.3-1.4
				c0.3-0.2,0.6-0.4,0.9-0.5c0.5-0.3,1.1-0.1,1.4,0.4c0.3,0.5,0.1,1.1-0.4,1.4c-0.3,0.2-0.6,0.3-0.9,0.5C59.4,288,59.2,288,59,288z
				 M64.4,285.2c-0.4,0-0.8-0.2-0.9-0.6c-0.2-0.5,0-1.1,0.5-1.3c0.3-0.1,0.6-0.3,1-0.4c0.5-0.2,1.1,0,1.3,0.5c0.2,0.5,0,1.1-0.5,1.3
				c-0.3,0.1-0.6,0.3-0.9,0.4C64.7,285.1,64.6,285.2,64.4,285.2z M70.2,283c-0.4,0-0.8-0.3-1-0.7c-0.2-0.5,0.2-1.1,0.7-1.3
				c0.3-0.1,0.7-0.2,1-0.3c0.5-0.1,1.1,0.2,1.2,0.7c0.1,0.5-0.2,1.1-0.7,1.2c-0.3,0.1-0.6,0.2-1,0.3C70.4,283,70.3,283,70.2,283z
				 M76.1,281.7c-0.5,0-0.9-0.4-1-0.9c-0.1-0.6,0.3-1.1,0.9-1.2c0.3-0.1,0.7-0.1,1-0.1c0.6-0.1,1.1,0.3,1.1,0.9
				c0.1,0.6-0.3,1.1-0.9,1.1c-0.3,0-0.7,0.1-1,0.1C76.2,281.7,76.2,281.7,76.1,281.7z M82.2,281.3c-0.6,0-1-0.5-1-1c0-0.6,0.5-1,1-1
				l1,0c0.6,0,1,0.5,1,1s-0.5,1-1,1L82.2,281.3C82.2,281.3,82.2,281.3,82.2,281.3z M89.4,281.3h-1c-0.6,0-1-0.5-1-1s0.5-1,1-1h1
				c0.6,0,1,0.5,1,1S89.9,281.3,89.4,281.3z"/>
		</g>
	</g>
	<g>
		<g>
			<path style="fill:#0A2E3D;" d="M204,102.6c-0.5,0-1-0.4-1-1c0-0.6,0.4-1,1-1.1c0.3,0,0.7,0,1-0.1c0.5-0.1,1.1,0.4,1.1,0.9
				c0,0.6-0.4,1.1-0.9,1.1C204.8,102.6,204.5,102.6,204,102.6C204.1,102.6,204.1,102.6,204,102.6z M210.1,101.9
				c-0.5,0-0.9-0.3-1-0.8c-0.1-0.6,0.2-1.1,0.8-1.2c0.3-0.1,0.7-0.1,1-0.2c0.5-0.1,1.1,0.2,1.2,0.8c0.1,0.6-0.2,1.1-0.8,1.2
				c-0.3,0.1-0.7,0.1-1,0.2C210.2,101.9,210.2,101.9,210.1,101.9z M216,100.3c-0.4,0-0.8-0.3-1-0.7c-0.2-0.5,0.1-1.1,0.6-1.3
				c0.3-0.1,0.6-0.2,0.9-0.3c0.5-0.2,1.1,0.1,1.3,0.6c0.2,0.5-0.1,1.1-0.6,1.3c-0.3,0.1-0.7,0.2-1,0.4
				C216.2,100.3,216.1,100.3,216,100.3z M221.7,97.9c-0.4,0-0.7-0.2-0.9-0.6c-0.3-0.5-0.1-1.1,0.4-1.4c0.3-0.2,0.6-0.3,0.9-0.5
				c0.5-0.3,1.1-0.1,1.4,0.4c0.3,0.5,0.1,1.1-0.4,1.4c-0.3,0.2-0.6,0.3-0.9,0.5C222,97.9,221.8,97.9,221.7,97.9z M226.9,94.8
				c-0.3,0-0.6-0.2-0.8-0.4c-0.3-0.5-0.2-1.1,0.3-1.4c0.3-0.2,0.5-0.4,0.8-0.6c0.5-0.3,1.1-0.2,1.4,0.2s0.2,1.1-0.2,1.4
				c-0.3,0.2-0.6,0.4-0.8,0.6C227.3,94.7,227.1,94.8,226.9,94.8z M231.7,91c-0.3,0-0.5-0.1-0.8-0.3c-0.4-0.4-0.4-1.1,0.1-1.4
				c0.2-0.2,0.5-0.5,0.7-0.7c0.4-0.4,1.1-0.4,1.4,0c0.4,0.4,0.4,1.1,0,1.4c-0.2,0.2-0.5,0.5-0.8,0.7C232.2,90.9,231.9,91,231.7,91z
				 M235.9,86.5c-0.2,0-0.5-0.1-0.6-0.2c-0.4-0.4-0.5-1-0.1-1.4c0.2-0.3,0.4-0.5,0.6-0.8c0.3-0.4,1-0.5,1.4-0.2
				c0.4,0.4,0.5,1,0.2,1.4c-0.2,0.3-0.4,0.5-0.7,0.8C236.5,86.4,236.2,86.5,235.9,86.5z M239.5,81.6c-0.2,0-0.4,0-0.5-0.2
				c-0.5-0.3-0.6-0.9-0.3-1.4c0.2-0.3,0.3-0.6,0.5-0.9c0.3-0.5,0.9-0.6,1.4-0.4c0.5,0.3,0.6,0.9,0.4,1.4c-0.2,0.3-0.4,0.6-0.5,0.9
				C240.1,81.4,239.8,81.6,239.5,81.6z M242.3,76.2c-0.1,0-0.3,0-0.4-0.1c-0.5-0.2-0.7-0.8-0.5-1.3c0.1-0.3,0.3-0.6,0.4-0.9
				c0.2-0.5,0.8-0.8,1.3-0.5c0.5,0.2,0.8,0.8,0.5,1.3c-0.1,0.3-0.3,0.6-0.4,1C243.1,75.9,242.7,76.2,242.3,76.2z M244.5,70.4
				c-0.1,0-0.2,0-0.3,0c-0.5-0.2-0.9-0.7-0.7-1.3c0.1-0.3,0.2-0.6,0.3-1c0.1-0.5,0.7-0.9,1.2-0.7c0.5,0.1,0.9,0.7,0.7,1.2
				c-0.1,0.3-0.2,0.7-0.3,1C245.3,70.1,244.9,70.4,244.5,70.4z M245.7,64.4c0,0-0.1,0-0.2,0c-0.6-0.1-0.9-0.6-0.9-1.2
				c0-0.3,0.1-0.7,0.1-1c0.1-0.6,0.6-0.9,1.1-0.9c0.6,0.1,1,0.6,0.9,1.1c0,0.3-0.1,0.7-0.1,1C246.7,64.1,246.2,64.4,245.7,64.4z
				 M246.2,58.3C246.2,58.3,246.2,58.3,246.2,58.3c-0.6,0-1-0.5-1-1l0-1c0-0.6,0.5-1,1-1s1,0.5,1,1l0,1
				C247.2,57.9,246.8,58.3,246.2,58.3z M246.2,52.2c-0.6,0-1-0.5-1-1v-1c0-0.6,0.5-1,1-1s1,0.5,1,1v1
				C247.2,51.8,246.8,52.2,246.2,52.2z"/>
		</g>
	</g>
	<g>
		<g>
			<path style="fill:#0A2E3D;" d="M148.6,154.4c-0.2,0-0.4-0.1-0.6-0.2l-44.4-25.9c-0.4-0.2-0.6-0.6-0.6-1.1V75.4
				c0-0.4,0.2-0.9,0.6-1.1L148,48.5c0.4-0.2,0.9-0.2,1.3,0l44.4,25.9c0.4,0.2,0.6,0.6,0.6,1.1v51.8c0,0.4-0.2,0.9-0.6,1.1
				l-44.4,25.9C149,154.3,148.8,154.4,148.6,154.4z M105.5,126.5l43.1,25.2l43.1-25.2V76.2L148.6,51l-43.1,25.2V126.5z"/>
		</g>
		<g>
			<path style="fill:#DCE2E4;" d="M191.8,76L148.6,101L105.4,76l43.2-25.1L191.8,76z"/>
		</g>
		<g>
			<path style="fill:#0A2E3D;" d="M148.6,154.4c-0.7,0-1.2-0.6-1.2-1.2v-19.2c0-0.7,0.6-1.2,1.2-1.2s1.2,0.6,1.2,1.2v19.2
				C149.9,153.8,149.3,154.4,148.6,154.4z"/>
		</g>
	</g>
	<g>
		<g>
			<path style="fill:#0A2E3D;" d="M148.6,326.3c-0.2,0-0.4-0.1-0.6-0.2l-47.9-27.9c-0.4-0.2-0.6-0.6-0.6-1.1v-55
				c0-0.4,0.2-0.9,0.6-1.1l47.9-27.9c0.4-0.2,0.9-0.2,1.3,0l47.9,27.9c0.4,0.2,0.6,0.6,0.6,1.1v55c0,0.4-0.2,0.9-0.6,1.1l-47.9,27.9
				C149,326.3,148.8,326.3,148.6,326.3z M102,296.4l46.6,27.2l46.6-27.2v-53.6l-46.6-27.2L102,242.8V296.4z"/>
		</g>
		<g>
			<g>
				<g>
					<polygon style="fill:#FFFFFF;" points="130.8,232.6 148.6,222.1 166.5,232.6 166.5,253.4 148.6,263.8 130.8,253.4 					"/>
					<path style="fill:#0A2E3D;" d="M148.6,264.6c-0.1,0-0.3,0-0.4-0.1l-17.9-10.4c-0.3-0.2-0.4-0.4-0.4-0.7v-20.8
						c0-0.3,0.2-0.6,0.4-0.7l17.9-10.4c0.3-0.2,0.6-0.2,0.9,0l17.9,10.4c0.3,0.2,0.4,0.4,0.4,0.7v20.8c0,0.3-0.2,0.6-0.4,0.7
						L149,264.5C148.9,264.6,148.8,264.6,148.6,264.6z M131.6,252.9l17,9.9l17-9.9V233l-17-9.9l-17,9.9V252.9z"/>
				</g>
				<g>
					<path style="fill:#DCE2E4;" d="M165.7,233l-17.1,9.8l-17.1-9.8l17.1-9.9L165.7,233z"/>
				</g>
				<g>
					<line style="fill:#FFFFFF;" x1="148.6" y1="256.1" x2="148.6" y2="263.8"/>
					<path style="fill:#0A2E3D;" d="M148.6,264.6c-0.5,0-0.9-0.4-0.9-0.8v-7.7c0-0.5,0.4-0.8,0.9-0.8s0.9,0.4,0.9,0.8v7.7
						C149.5,264.3,149.1,264.6,148.6,264.6z"/>
				</g>
			</g>
			<g>
				<g>
					<polygon style="fill:#FFFFFF;" points="153.9,272.1 171.7,261.7 189.6,272.1 189.6,292.9 171.7,303.3 153.9,292.9 					"/>
					<path style="fill:#0A2E3D;" d="M171.7,304.2c-0.1,0-0.3,0-0.4-0.1l-17.8-10.4c-0.3-0.2-0.4-0.4-0.4-0.7v-20.8
						c0-0.3,0.2-0.6,0.4-0.7l17.8-10.4c0.3-0.2,0.6-0.2,0.9,0l17.8,10.4c0.3,0.2,0.4,0.4,0.4,0.7v20.8c0,0.3-0.2,0.6-0.4,0.7
						l-17.8,10.4C172,304.2,171.9,304.2,171.7,304.2z M154.7,292.4l17,9.9l17-9.9v-19.9l-17-9.9l-17,9.9V292.4z"/>
				</g>
				<g>
					<path style="fill:#DCE2E4;" d="M188.8,272.5l-17.1,9.8l-17.1-9.8l17.1-9.9L188.8,272.5z"/>
				</g>
				<g>
					<line style="fill:#FFFFFF;" x1="171.7" y1="295.6" x2="171.7" y2="303.3"/>
					<path style="fill:#0A2E3D;" d="M171.7,304.2c-0.5,0-0.8-0.4-0.8-0.8v-7.7c0-0.5,0.4-0.8,0.8-0.8s0.8,0.4,0.8,0.8v7.7
						C172.6,303.8,172.2,304.2,171.7,304.2z"/>
				</g>
			</g>
			<g>
				<g>
					<polygon style="fill:#FFFFFF;" points="153.9,245.9 171.7,235.5 189.6,245.9 189.6,266.7 171.7,277.1 153.9,266.7 					"/>
					<path style="fill:#0A2E3D;" d="M171.7,278c-0.1,0-0.3,0-0.4-0.1l-17.8-10.4c-0.3-0.2-0.4-0.4-0.4-0.7v-20.8
						c0-0.3,0.2-0.6,0.4-0.7l17.8-10.4c0.3-0.2,0.6-0.2,0.9,0l17.8,10.4c0.3,0.2,0.4,0.4,0.4,0.7v20.8c0,0.3-0.2,0.6-0.4,0.7
						l-17.8,10.4C172,277.9,171.9,278,171.7,278z M154.7,266.2l17,9.9l17-9.9v-19.8l-17-9.9l-17,9.9V266.2z"/>
				</g>
				<g>
					<path style="fill:#DCE2E4;" d="M188.8,246.3l-17.1,9.8l-17.1-9.8l17.1-9.9L188.8,246.3z"/>
				</g>
				<g>
					<line style="fill:#FFFFFF;" x1="171.7" y1="269.4" x2="171.7" y2="277.1"/>
					<path style="fill:#0A2E3D;" d="M171.7,278c-0.5,0-0.8-0.4-0.8-0.8v-7.7c0-0.5,0.4-0.8,0.8-0.8s0.8,0.4,0.8,0.8v7.7
						C172.6,277.6,172.2,278,171.7,278z"/>
				</g>
			</g>
			<g>
				<g>
					<polygon style="fill:#FFFFFF;" points="107.7,272.1 125.5,261.7 143.4,272.1 143.4,292.9 125.5,303.3 107.7,292.9 					"/>
					<path style="fill:#0A2E3D;" d="M125.5,304.2c-0.1,0-0.3,0-0.4-0.1l-17.8-10.4c-0.3-0.2-0.4-0.4-0.4-0.7v-20.8
						c0-0.3,0.2-0.6,0.4-0.7l17.8-10.4c0.3-0.2,0.6-0.2,0.9,0l17.9,10.4c0.3,0.2,0.4,0.4,0.4,0.7v20.8c0,0.3-0.2,0.6-0.4,0.7
						l-17.9,10.4C125.8,304.2,125.7,304.2,125.5,304.2z M108.5,292.4l17,9.9l17-9.9v-19.9l-17-9.9l-17,9.9V292.4z"/>
				</g>
				<g>
					<path style="fill:#DCE2E4;" d="M142.6,272.5l-17.1,9.8l-17.1-9.8l17.1-9.9L142.6,272.5z"/>
				</g>
				<g>
					<line style="fill:#FFFFFF;" x1="125.5" y1="295.6" x2="125.5" y2="303.3"/>
					<path style="fill:#0A2E3D;" d="M125.5,304.2c-0.5,0-0.9-0.4-0.9-0.8v-7.7c0-0.5,0.4-0.8,0.9-0.8s0.9,0.4,0.9,0.8v7.7
						C126.4,303.8,126,304.2,125.5,304.2z"/>
				</g>
			</g>
			<g>
				<g>
					<polygon style="fill:#FFFFFF;" points="107.7,245.9 125.5,235.5 143.4,245.9 143.4,266.7 125.5,277.1 107.7,266.7 					"/>
					<path style="fill:#0A2E3D;" d="M125.5,278c-0.1,0-0.3,0-0.4-0.1l-17.8-10.4c-0.3-0.2-0.4-0.4-0.4-0.7v-20.8
						c0-0.3,0.2-0.6,0.4-0.7l17.8-10.4c0.3-0.2,0.6-0.2,0.9,0l17.9,10.4c0.3,0.2,0.4,0.4,0.4,0.7v20.8c0,0.3-0.2,0.6-0.4,0.7
						l-17.9,10.4C125.8,277.9,125.7,278,125.5,278z M108.5,266.2l17,9.9l17-9.9v-19.8l-17-9.9l-17,9.9V266.2z"/>
				</g>
				<g>
					<path style="fill:#DCE2E4;" d="M142.6,246.3l-17.1,9.8l-17.1-9.8l17.1-9.9L142.6,246.3z"/>
				</g>
				<g>
					<line style="fill:#FFFFFF;" x1="125.5" y1="269.4" x2="125.5" y2="277.1"/>
					<path style="fill:#0A2E3D;" d="M125.5,278c-0.5,0-0.9-0.4-0.9-0.8v-7.7c0-0.5,0.4-0.8,0.9-0.8s0.9,0.4,0.9,0.8v7.7
						C126.4,277.6,126,278,125.5,278z"/>
				</g>
			</g>
			<g>
				<g>
					<polygon style="fill:#FFFFFF;" points="130.8,285.4 148.6,275 166.5,285.4 166.5,306.3 148.6,316.7 130.8,306.3 					"/>
					<path style="fill:#0A2E3D;" d="M148.6,317.5c-0.1,0-0.3,0-0.4-0.1L130.3,307c-0.3-0.2-0.4-0.4-0.4-0.7v-20.8
						c0-0.3,0.2-0.6,0.4-0.7l17.9-10.4c0.3-0.2,0.6-0.2,0.9,0l17.9,10.4c0.3,0.2,0.4,0.4,0.4,0.7v20.8c0,0.3-0.2,0.6-0.4,0.7
						L149,317.4C148.9,317.5,148.8,317.5,148.6,317.5z M131.6,305.8l17,9.9l17-9.9v-19.9l-17-9.9l-17,9.9V305.8z"/>
				</g>
				<g>
					<path style="fill:#DCE2E4;" d="M165.7,285.9l-17.1,9.8l-17.1-9.8l17.1-9.9L165.7,285.9z"/>
				</g>
				<g>
					<line style="fill:#FFFFFF;" x1="148.6" y1="309" x2="148.6" y2="316.7"/>
					<path style="fill:#0A2E3D;" d="M148.6,317.5c-0.5,0-0.9-0.4-0.9-0.8V309c0-0.5,0.4-0.8,0.9-0.8s0.9,0.4,0.9,0.8v7.7
						C149.5,317.2,149.1,317.5,148.6,317.5z"/>
				</g>
			</g>
			<g>
				<g>
					<polygon style="fill:#FFFFFF;" points="130.8,259.7 148.6,249.2 166.5,259.7 166.5,280.5 148.6,290.9 130.8,280.5 					"/>
					<path style="fill:#0A2E3D;" d="M148.6,291.7c-0.1,0-0.3,0-0.4-0.1l-17.9-10.4c-0.3-0.2-0.4-0.4-0.4-0.7v-20.8
						c0-0.3,0.2-0.6,0.4-0.7l17.9-10.4c0.3-0.2,0.6-0.2,0.9,0l17.9,10.4c0.3,0.2,0.4,0.4,0.4,0.7v20.8c0,0.3-0.2,0.6-0.4,0.7
						L149,291.6C148.9,291.7,148.8,291.7,148.6,291.7z M131.6,280l17,9.9l17-9.9v-19.8l-17-9.9l-17,9.9V280z"/>
				</g>
				<g>
					<path style="fill:#DCE2E4;" d="M165.7,260.1l-17.1,9.8l-17.1-9.8l17.1-9.9L165.7,260.1z"/>
				</g>
				<g>
					<line style="fill:#FFFFFF;" x1="148.6" y1="283.2" x2="148.6" y2="290.9"/>
					<path style="fill:#0A2E3D;" d="M148.6,291.7c-0.5,0-0.9-0.4-0.9-0.8v-7.7c0-0.5,0.4-0.8,0.9-0.8s0.9,0.4,0.9,0.8v7.7
						C149.5,291.4,149.1,291.7,148.6,291.7z"/>
				</g>
			</g>
		</g>
	</g>
</g>
</svg>
