<?xml version="1.0" encoding="utf-8"?>
<!-- Generator: Adobe Illustrator 18.0.0, SVG Export Plug-In . SVG Version: 6.00 Build 0)  -->
<!DOCTYPE svg PUBLIC "-//W3C//DTD SVG 1.1//EN" "http://www.w3.org/Graphics/SVG/1.1/DTD/svg11.dtd">
<svg version="1.1" id="Layer_1" xmlns="http://www.w3.org/2000/svg" xmlns:xlink="http://www.w3.org/1999/xlink" x="0px" y="0px"
	 viewBox="0 0 287.8 320" style="enable-background:new 0 0 287.8 320;" xml:space="preserve">
<g>
	<g>
		<polygon style="fill:#DCE2E4;" points="126.3,101.8 92.2,82.1 57.8,102.1 126.3,141.6 194.9,102.1 160.5,82.1 		"/>
	</g>
	<g>
		<path style="fill:#DCE2E4;" d="M125,252.8l-32.9,19l-32.9-19L92,233.6L125,252.8z"/>
	</g>
	<g>
		<path style="fill:#0A2E3D;" d="M92,313.3c-0.2,0-0.4-0.1-0.6-0.2l-34.3-20c-0.4-0.2-0.6-0.6-0.6-1.1v-40c0-0.4,0.2-0.9,0.6-1.1
			l34.3-20c0.4-0.2,0.9-0.2,1.3,0l34.3,20c0.4,0.2,0.6,0.6,0.6,1.1v40c0,0.4-0.2,0.9-0.6,1.1l-34.3,20
			C92.5,313.3,92.3,313.3,92,313.3z M59,291.4l33,19.3l33-19.3v-38.6l-33-19.3l-33,19.3V291.4z"/>
	</g>
	<g>
		<path style="fill:#0A2E3D;" d="M92,313.3c-0.7,0-1.2-0.6-1.2-1.2v-14.8c0-0.7,0.6-1.2,1.2-1.2s1.2,0.6,1.2,1.2v14.8
			C93.3,312.8,92.7,313.3,92,313.3z"/>
	</g>
	<g>
		<path style="fill:#FFFFFF;" d="M160.6,27.7l-34.3,48.5L92,27.7l34.3,8.7L160.6,27.7z"/>
	</g>
	<g>
		<path style="fill:#0A2E3D;" d="M126.3,76.5c-0.7,0-1.2-0.6-1.2-1.2v-13c0-0.7,0.6-1.2,1.2-1.2s1.2,0.6,1.2,1.2v13
			C127.6,75.9,127,76.5,126.3,76.5z"/>
	</g>
	<g>
		<g>
			<path style="fill:#0A2E3D;" d="M126.3,221.9c-0.2,0-0.4-0.1-0.6-0.2l-34.3-20c-0.4-0.2-0.6-0.6-0.6-1.1v-39.3l-33.7-19.6
				c-0.4-0.2-0.6-0.6-0.6-1.1v-40c0-0.4,0.2-0.9,0.6-1.1l34.3-20c0.4-0.2,0.9-0.2,1.3,0l33.6,19.6L160,79.6c0.4-0.2,0.9-0.2,1.3,0
				l34.3,20c0.4,0.2,0.6,0.6,0.6,1.1v80c0,0.4-0.2,0.9-0.6,1.1l-68.6,40C126.8,221.9,126.5,221.9,126.3,221.9z M93.3,200l33,19.3
				l67.3-39.3v-78.6l-33-19.3L127,101.8c-0.4,0.2-0.9,0.2-1.3,0L92,82.2l-33,19.3V140l33.7,19.6c0.4,0.2,0.6,0.6,0.6,1.1V200z"/>
		</g>
	</g>
	<g>
		<path style="fill:#DCE2E4;" d="M160.6,29.4l-34.3,19.8L92,29.4l34.3-19.9L160.6,29.4z"/>
	</g>
	<g>
		<g>
			<path style="fill:#0A2E3D;" d="M126.3,77.7c-0.4,0-0.8-0.2-1-0.5L90.9,28.5c-0.2-0.3-0.3-0.6-0.2-1s0.3-0.6,0.6-0.8l34.3-19.8
				c0.4-0.2,0.9-0.2,1.2,0l34.3,19.8c0.3,0.2,0.5,0.5,0.6,0.8s0,0.7-0.2,1l-34.3,48.7C127.1,77.5,126.7,77.7,126.3,77.7z M93.7,28.1
				l32.5,46.2l32.5-46.2L126.3,9.4L93.7,28.1z"/>
		</g>
	</g>
	<g>
		<g>
			<path style="fill:#B6C3C9;" d="M177.4,151.9c0.1-11.1-7.7-15.7-17.4-10.3c-9.7,5.5-17.7,18.9-17.8,30.1
				c-0.1,11.1,7.7,15.7,17.4,10.3C169.3,176.5,177.3,163.1,177.4,151.9z"/>
			<path style="fill:#0A2E3D;" d="M151.9,185.5C151.9,185.5,151.9,185.5,151.9,185.5c-2.9,0-5.4-1-7.2-2.9
				c-2.4-2.5-3.7-6.2-3.7-10.9c0.1-11.5,8.4-25.5,18.4-31.1c2.9-1.6,5.7-2.5,8.3-2.5c2.9,0,5.4,1,7.2,2.9c2.4,2.5,3.7,6.2,3.7,10.9
				c-0.1,11.5-8.4,25.5-18.4,31.1C157.3,184.7,154.5,185.5,151.9,185.5z M167.8,140.6c-2.2,0-4.6,0.7-7.1,2.1
				c-9.3,5.3-17,18.3-17.1,29c0,4,1,7.1,2.9,9.1c1.4,1.4,3.3,2.2,5.5,2.2h0c2.2,0,4.6-0.7,7.1-2.1c9.3-5.3,17-18.3,17.1-29
				c0-4-1-7.2-2.9-9.1C171.8,141.3,170,140.6,167.8,140.6z"/>
		</g>
	</g>
	<g>
		<path style="fill:#FFFFFF;" d="M218.9,176.2c0.1-11.1-7.7-15.7-17.4-10.3c-9.7,5.5-17.7,18.9-17.8,30.1
			c-0.1,11.1,7.7,15.7,17.4,10.3C210.8,200.8,218.8,187.4,218.9,176.2z"/>
	</g>
	<g>
		<g>
			<path style="fill:#DCE2E4;" d="M253.6,196.8c0.1-11.1-7.7-15.7-17.4-10.3c-9.7,5.5-17.7,18.9-17.8,30.1
				c-0.1,11.1,7.7,15.7,17.4,10.3C245.5,221.3,253.5,207.9,253.6,196.8z"/>
		</g>
	</g>
	<g>
		<path style="fill:#6C8081;" d="M90.6,12.8c0.2,0,0.4,0.1,0.6,0.1c0.2,0,0.4,0,0.5,0c0.3,0,0.5,0,0.8-0.1c0.2-0.1,0.5-0.2,0.7-0.4
			s0.3-0.4,0.5-0.6c0.1-0.2,0.2-0.5,0.2-0.8c0-0.2,0-0.4-0.1-0.6c-0.1-0.2-0.2-0.4-0.4-0.6c-0.2-0.2-0.4-0.3-0.7-0.4
			c-0.3-0.1-0.6-0.2-0.9-0.2h-0.6V8.1h0.6c0.3,0,0.6,0,0.8-0.1c0.2-0.1,0.4-0.2,0.6-0.4c0.2-0.2,0.3-0.3,0.3-0.5
			c0.1-0.2,0.1-0.4,0.1-0.7c0-0.5-0.2-0.9-0.5-1.2s-0.8-0.4-1.3-0.4c-0.5,0-1,0.2-1.3,0.5c-0.3,0.3-0.5,0.8-0.5,1.4v7.2h-1.2V6.7
			c0-0.4,0.1-0.8,0.2-1.2c0.1-0.4,0.4-0.7,0.6-1s0.6-0.5,1-0.6c0.4-0.1,0.8-0.2,1.3-0.2c0.4,0,0.8,0.1,1.2,0.2
			c0.4,0.1,0.7,0.3,1,0.6c0.3,0.2,0.5,0.5,0.7,0.9c0.2,0.3,0.2,0.7,0.2,1.1c0,0.6-0.2,1.1-0.5,1.5c-0.3,0.4-0.7,0.6-1.2,0.8
			c0.5,0.2,1,0.5,1.4,0.9c0.4,0.4,0.6,0.9,0.6,1.5c0,0.5-0.1,1-0.3,1.3c-0.2,0.4-0.4,0.7-0.7,0.9c-0.3,0.2-0.7,0.4-1.1,0.6
			s-0.8,0.2-1.2,0.2c-0.2,0-0.4,0-0.7-0.1c-0.2,0-0.4-0.1-0.5-0.1V12.8z"/>
		<path style="fill:#6C8081;" d="M97.4,8c0.1-0.3,0.2-0.6,0.3-0.8C97.8,7,98,6.8,98.2,6.6c0.2-0.1,0.4-0.3,0.7-0.4
			C99.1,6.1,99.2,6,99.4,6c0.1-0.1,0.3-0.2,0.4-0.3s0.2-0.2,0.3-0.4c0.1-0.1,0.1-0.3,0.1-0.5c0-0.3-0.1-0.5-0.3-0.7
			c-0.2-0.2-0.4-0.2-0.8-0.2c-0.3,0-0.6,0.1-0.8,0.3C98.1,4.3,98,4.6,98,5h-0.8c0-0.3,0.1-0.5,0.2-0.8c0.1-0.2,0.2-0.4,0.4-0.6
			c0.2-0.2,0.4-0.3,0.6-0.4s0.5-0.1,0.7-0.1c0.3,0,0.5,0,0.7,0.1c0.2,0.1,0.4,0.2,0.6,0.3c0.2,0.1,0.3,0.3,0.4,0.5
			c0.1,0.2,0.1,0.5,0.1,0.7s-0.1,0.5-0.2,0.7c-0.1,0.2-0.3,0.4-0.4,0.5c-0.2,0.2-0.3,0.3-0.5,0.4s-0.3,0.2-0.5,0.3
			c-0.2,0.1-0.4,0.3-0.6,0.4c-0.2,0.1-0.3,0.2-0.4,0.4c-0.1,0.1-0.2,0.3-0.2,0.4c0,0.1-0.1,0.3-0.1,0.5h2.8v0.7h-3.7
			C97.3,8.7,97.3,8.3,97.4,8z"/>
	</g>
	<g>
		<path style="fill:#6C8081;" d="M213.4,246.1c0.2,0,0.4,0.1,0.6,0.1c0.2,0,0.4,0,0.5,0c0.3,0,0.5,0,0.8-0.1
			c0.2-0.1,0.5-0.2,0.7-0.4s0.3-0.4,0.5-0.6c0.1-0.2,0.2-0.5,0.2-0.8c0-0.2,0-0.4-0.1-0.6c-0.1-0.2-0.2-0.4-0.4-0.6
			c-0.2-0.2-0.4-0.3-0.7-0.4c-0.3-0.1-0.6-0.2-0.9-0.2h-0.6v-1.1h0.6c0.3,0,0.6,0,0.8-0.1s0.4-0.2,0.6-0.4c0.2-0.2,0.3-0.3,0.3-0.5
			c0.1-0.2,0.1-0.4,0.1-0.7c0-0.5-0.2-0.9-0.5-1.2s-0.8-0.4-1.3-0.4c-0.5,0-1,0.2-1.3,0.5c-0.3,0.3-0.5,0.8-0.5,1.4v7.2h-1.2V240
			c0-0.4,0.1-0.8,0.2-1.2c0.1-0.4,0.4-0.7,0.6-1s0.6-0.5,1-0.6c0.4-0.1,0.8-0.2,1.3-0.2c0.4,0,0.8,0.1,1.2,0.2
			c0.4,0.1,0.7,0.3,1,0.6c0.3,0.2,0.5,0.5,0.7,0.9c0.2,0.3,0.2,0.7,0.2,1.1c0,0.6-0.2,1.1-0.5,1.5s-0.7,0.6-1.2,0.8
			c0.5,0.2,1,0.5,1.4,0.9c0.4,0.4,0.6,0.9,0.6,1.5c0,0.5-0.1,1-0.3,1.3c-0.2,0.4-0.4,0.7-0.7,0.9c-0.3,0.2-0.7,0.4-1.1,0.6
			s-0.8,0.2-1.2,0.2c-0.2,0-0.4,0-0.7-0.1c-0.2,0-0.4-0.1-0.5-0.1V246.1z"/>
		<path style="fill:#6C8081;" d="M219.9,237.5c0.3,0,0.5,0,0.6-0.1c0.2,0,0.3-0.1,0.4-0.2c0.1-0.1,0.2-0.2,0.2-0.3
			c0-0.1,0-0.3,0-0.5h0.7v5.9h-0.8v-4.3h-1.2V237.5z"/>
	</g>
	<g>
		<path style="fill:#6C8081;" d="M57.7,315.5c0.2,0,0.4,0.1,0.6,0.1c0.2,0,0.4,0,0.5,0c0.3,0,0.5,0,0.8-0.1s0.5-0.2,0.7-0.4
			s0.3-0.4,0.5-0.6s0.2-0.5,0.2-0.8c0-0.2,0-0.4-0.1-0.6c-0.1-0.2-0.2-0.4-0.4-0.6s-0.4-0.3-0.7-0.4c-0.3-0.1-0.6-0.2-0.9-0.2h-0.6
			v-1.1h0.6c0.3,0,0.6,0,0.8-0.1c0.2-0.1,0.4-0.2,0.6-0.4c0.2-0.2,0.3-0.3,0.3-0.5s0.1-0.4,0.1-0.7c0-0.5-0.2-0.9-0.5-1.2
			s-0.8-0.4-1.3-0.4c-0.5,0-1,0.2-1.3,0.5s-0.5,0.8-0.5,1.4v7.2h-1.2v-7.2c0-0.4,0.1-0.8,0.2-1.2c0.1-0.4,0.4-0.7,0.6-1
			c0.3-0.3,0.6-0.5,1-0.6c0.4-0.1,0.8-0.2,1.3-0.2c0.4,0,0.8,0.1,1.2,0.2c0.4,0.1,0.7,0.3,1,0.6s0.5,0.5,0.7,0.9
			c0.2,0.3,0.2,0.7,0.2,1.1c0,0.6-0.2,1.1-0.5,1.5s-0.7,0.6-1.2,0.8c0.5,0.2,1,0.5,1.4,0.9c0.4,0.4,0.6,0.9,0.6,1.5
			c0,0.5-0.1,1-0.3,1.3c-0.2,0.4-0.4,0.7-0.7,0.9c-0.3,0.2-0.7,0.4-1.1,0.6c-0.4,0.1-0.8,0.2-1.2,0.2c-0.2,0-0.4,0-0.7,0
			c-0.2,0-0.4-0.1-0.5-0.1V315.5z"/>
		<path style="fill:#6C8081;" d="M64.9,309.9c0,0.2,0,0.4,0.1,0.5s0.2,0.3,0.3,0.4c0.1,0.1,0.2,0.2,0.4,0.3c0.2,0.1,0.3,0.1,0.5,0.1
			c0.2,0,0.3,0,0.5-0.1s0.3-0.1,0.4-0.2s0.2-0.2,0.2-0.3c0.1-0.1,0.1-0.3,0.1-0.4c0-0.3-0.1-0.6-0.3-0.8c-0.2-0.2-0.5-0.3-0.9-0.3
			h-0.4v-0.7h0.4c0.4,0,0.7-0.1,0.8-0.3s0.2-0.4,0.2-0.7s-0.1-0.5-0.3-0.7s-0.4-0.2-0.7-0.2c-0.4,0-0.7,0.1-0.8,0.3
			c-0.2,0.2-0.3,0.5-0.3,0.8h-0.8c0-0.3,0-0.5,0.1-0.7c0.1-0.2,0.2-0.4,0.4-0.6c0.2-0.2,0.3-0.3,0.6-0.4c0.2-0.1,0.5-0.1,0.7-0.1
			c0.3,0,0.5,0,0.7,0.1c0.2,0.1,0.4,0.2,0.6,0.3c0.2,0.1,0.3,0.3,0.4,0.5s0.1,0.4,0.1,0.7c0,0.3-0.1,0.6-0.2,0.8
			c-0.2,0.2-0.4,0.4-0.7,0.5c0.3,0.1,0.6,0.3,0.8,0.5s0.3,0.5,0.3,0.9c0,0.3-0.1,0.5-0.2,0.7c-0.1,0.2-0.2,0.4-0.4,0.6
			c-0.2,0.2-0.4,0.3-0.6,0.4c-0.2,0.1-0.5,0.1-0.8,0.1c-0.3,0-0.5,0-0.8-0.1s-0.5-0.2-0.6-0.4c-0.2-0.2-0.3-0.4-0.4-0.6
			s-0.2-0.5-0.2-0.8H64.9z"/>
	</g>
	<g>
		<path style="fill:#0A2E3D;" d="M228.1,230.4L228.1,230.4c-1.9,0-3.6-0.4-5-1.2c0,0-0.1,0-0.1-0.1l-0.1-0.1c0,0,0,0,0,0l-34.7-20.5
			c0,0,0,0,0,0c0,0,0,0,0,0c-3.6-2.2-5.6-6.6-5.5-12.4c0.1-11.5,8.4-25.5,18.4-31.1c2.9-1.6,5.7-2.5,8.3-2.5c1.9,0,3.6,0.4,5.2,1.3
			c0,0,0.1,0,0.1,0l34.9,20.6c0,0,0.1,0.1,0.1,0.1c3.5,2.2,5.4,6.6,5.4,12.3c-0.1,11.5-8.4,25.5-18.4,31.1
			C233.6,229.5,230.8,230.4,228.1,230.4z M224.1,226.9C224.2,226.9,224.2,226.9,224.1,226.9c2.9,1.7,6.9,1.2,11.1-1.1
			c9.3-5.3,17-18.3,17.1-29c0-4.9-1.5-8.5-4.3-10.2c0,0-0.1,0-0.1-0.1l0,0L213.3,166c0,0,0,0,0,0c-2.9-1.7-6.8-1.3-11.1,1.1
			c-9.3,5.3-17,18.3-17.1,29c-0.1,4.9,1.5,8.5,4.3,10.2c0,0,0,0,0.1,0L224.1,226.9C224.1,226.8,224.1,226.8,224.1,226.9L224.1,226.9
			z"/>
	</g>
	<g>
		<path style="fill:#0A2E3D;" d="M205.9,208.4c-0.2,0-0.4-0.1-0.6-0.2l-9.3-5.5c-0.6-0.4-0.8-1.1-0.4-1.7c0.4-0.6,1.1-0.8,1.7-0.4
			l9.3,5.5c0.6,0.4,0.8,1.1,0.4,1.7C206.7,208.2,206.3,208.4,205.9,208.4z"/>
	</g>
	<g>
		<path style="fill:#0A2E3D;" d="M213.6,212.9c-0.2,0-0.4-0.1-0.6-0.2l-3.6-2.1c-0.6-0.4-0.8-1.1-0.4-1.7c0.4-0.6,1.1-0.8,1.7-0.4
			l3.6,2.1c0.6,0.4,0.8,1.1,0.4,1.7C214.4,212.7,214,212.9,213.6,212.9z"/>
	</g>
	<g>
		<path style="fill:#0F2F3C;" d="M194.5,60.8c0.2,0.1,0.5,0.1,0.8,0.1c0.3,0,0.5,0,0.7,0c0.4,0,0.7-0.1,1-0.2s0.6-0.3,0.9-0.5
			s0.4-0.5,0.6-0.8s0.2-0.7,0.2-1.1c0-0.3-0.1-0.5-0.2-0.8c-0.1-0.3-0.3-0.6-0.5-0.8c-0.2-0.2-0.5-0.4-0.9-0.6
			c-0.3-0.2-0.8-0.2-1.2-0.2h-0.8v-1.5h0.8c0.4,0,0.8-0.1,1.1-0.2s0.6-0.3,0.8-0.5c0.2-0.2,0.4-0.4,0.4-0.7c0.1-0.3,0.1-0.6,0.1-0.9
			c0-0.6-0.2-1.2-0.7-1.5s-1.1-0.6-1.8-0.6c-0.7,0-1.3,0.2-1.7,0.7c-0.4,0.5-0.7,1.1-0.7,1.8v9.6h-1.6v-9.6c0-0.6,0.1-1.1,0.3-1.6
			c0.2-0.5,0.5-0.9,0.8-1.3s0.8-0.6,1.3-0.8s1-0.3,1.7-0.3c0.6,0,1.1,0.1,1.6,0.3c0.5,0.2,0.9,0.4,1.3,0.7c0.4,0.3,0.7,0.7,0.9,1.1
			c0.2,0.4,0.3,0.9,0.3,1.5c0,0.8-0.2,1.4-0.6,1.9c-0.4,0.5-0.9,0.9-1.6,1.1c0.7,0.2,1.3,0.6,1.8,1.2s0.7,1.2,0.7,2
			c0,0.7-0.1,1.3-0.4,1.7c-0.2,0.5-0.6,0.9-1,1.2c-0.4,0.3-0.9,0.6-1.4,0.7c-0.5,0.2-1.1,0.2-1.6,0.2c-0.3,0-0.6,0-0.9-0.1
			c-0.3,0-0.5-0.1-0.6-0.2V60.8z"/>
	</g>
	<g>
		<path style="fill:#0A2E3D;" d="M126.3,222.2c-0.7,0-1.2-0.6-1.2-1.2v-24.8c0-0.7,0.6-1.2,1.2-1.2s1.2,0.6,1.2,1.2V221
			C127.6,221.6,127,222.2,126.3,222.2z"/>
	</g>
	<g>
		<path style="fill:#0A2E3D;" d="M126.3,54.9c-0.7,0-1.2-0.6-1.2-1.2v-4.5c0-0.7,0.6-1.2,1.2-1.2s1.2,0.6,1.2,1.2v4.5
			C127.6,54.4,127,54.9,126.3,54.9z"/>
	</g>
	<g>
		<g>
			<path style="fill:#0A2E3D;" d="M57.8,243.9c-0.5,0-0.9-0.4-0.9-0.9V242c0-0.5,0.4-0.9,0.9-0.9s0.9,0.4,0.9,0.9v0.9
				C58.7,243.5,58.3,243.9,57.8,243.9z M57.8,238.3c-0.5,0-0.9-0.4-0.9-0.9v-0.9c0-0.5,0.4-0.9,0.9-0.9s0.9,0.4,0.9,0.9v0.9
				C58.7,237.9,58.3,238.3,57.8,238.3z M57.8,232.7c-0.5,0-0.9-0.4-0.9-0.9v-0.9c0-0.5,0.4-0.9,0.9-0.9s0.9,0.4,0.9,0.9v0.9
				C58.7,232.3,58.3,232.7,57.8,232.7z M57.8,227.1c-0.5,0-0.9-0.4-0.9-0.9v-0.9c0-0.5,0.4-0.9,0.9-0.9s0.9,0.4,0.9,0.9v0.9
				C58.7,226.7,58.3,227.1,57.8,227.1z M57.8,221.5c-0.5,0-0.9-0.4-0.9-0.9v-0.9c0-0.5,0.4-0.9,0.9-0.9s0.9,0.4,0.9,0.9v0.9
				C58.7,221.1,58.3,221.5,57.8,221.5z M57.8,215.9c-0.5,0-0.9-0.4-0.9-0.9v-0.9c0-0.5,0.4-0.9,0.9-0.9s0.9,0.4,0.9,0.9v0.9
				C58.7,215.5,58.3,215.9,57.8,215.9z M57.8,210.3c-0.5,0-0.9-0.4-0.9-0.9v-0.9c0-0.5,0.4-0.9,0.9-0.9s0.9,0.4,0.9,0.9v0.9
				C58.7,209.9,58.3,210.3,57.8,210.3z M57.8,204.7c-0.5,0-0.9-0.4-0.9-0.9v-0.9c0-0.5,0.4-0.9,0.9-0.9s0.9,0.4,0.9,0.9v0.9
				C58.7,204.3,58.3,204.7,57.8,204.7z M57.8,199.2c-0.5,0-0.9-0.4-0.9-0.9v-0.9c0-0.5,0.4-0.9,0.9-0.9s0.9,0.4,0.9,0.9v0.9
				C58.7,198.7,58.3,199.2,57.8,199.2z M57.8,193.6c-0.5,0-0.9-0.4-0.9-0.9v-0.9c0-0.5,0.4-0.9,0.9-0.9s0.9,0.4,0.9,0.9v0.9
				C58.7,193.2,58.3,193.6,57.8,193.6z M57.8,188c-0.5,0-0.9-0.4-0.9-0.9v-0.9c0-0.5,0.4-0.9,0.9-0.9s0.9,0.4,0.9,0.9v0.9
				C58.7,187.6,58.3,188,57.8,188z M57.8,182.4c-0.5,0-0.9-0.4-0.9-0.9v-0.9c0-0.5,0.4-0.9,0.9-0.9s0.9,0.4,0.9,0.9v0.9
				C58.7,182,58.3,182.4,57.8,182.4z M57.8,176.8c-0.5,0-0.9-0.4-0.9-0.9v-0.9c0-0.5,0.4-0.9,0.9-0.9s0.9,0.4,0.9,0.9v0.9
				C58.7,176.4,58.3,176.8,57.8,176.8z M57.8,171.2c-0.5,0-0.9-0.4-0.9-0.9v-0.9c0-0.5,0.4-0.9,0.9-0.9s0.9,0.4,0.9,0.9v0.9
				C58.7,170.8,58.3,171.2,57.8,171.2z M57.8,165.6c-0.5,0-0.9-0.4-0.9-0.9v-0.9c0-0.5,0.4-0.9,0.9-0.9s0.9,0.4,0.9,0.9v0.9
				C58.7,165.2,58.3,165.6,57.8,165.6z M57.8,160c-0.5,0-0.9-0.4-0.9-0.9v-0.9c0-0.5,0.4-0.9,0.9-0.9s0.9,0.4,0.9,0.9v0.9
				C58.7,159.6,58.3,160,57.8,160z M57.8,154.4c-0.5,0-0.9-0.4-0.9-0.9v-0.9c0-0.5,0.4-0.9,0.9-0.9s0.9,0.4,0.9,0.9v0.9
				C58.7,154,58.3,154.4,57.8,154.4z M57.8,148.8c-0.5,0-0.9-0.4-0.9-0.9V147c0-0.5,0.4-0.9,0.9-0.9s0.9,0.4,0.9,0.9v0.9
				C58.7,148.4,58.3,148.8,57.8,148.8z"/>
		</g>
		<g>
			<path style="fill:#0A2E3D;" d="M126.3,244.3c-0.5,0-0.9-0.4-0.9-0.9v-0.9c0-0.5,0.4-0.9,0.9-0.9s0.9,0.4,0.9,0.9v0.9
				C127.3,243.9,126.8,244.3,126.3,244.3z M126.3,238.8c-0.5,0-0.9-0.4-0.9-0.9v-0.9c0-0.5,0.4-0.9,0.9-0.9s0.9,0.4,0.9,0.9v0.9
				C127.3,238.3,126.8,238.8,126.3,238.8z M126.3,233.2c-0.5,0-0.9-0.4-0.9-0.9v-0.9c0-0.5,0.4-0.9,0.9-0.9s0.9,0.4,0.9,0.9v0.9
				C127.3,232.7,126.8,233.2,126.3,233.2z M126.3,227.6c-0.5,0-0.9-0.4-0.9-0.9v-0.9c0-0.5,0.4-0.9,0.9-0.9s0.9,0.4,0.9,0.9v0.9
				C127.3,227.2,126.8,227.6,126.3,227.6z"/>
		</g>
		<g>
			<path style="fill:#0A2E3D;" d="M92,76.7c-0.5,0-0.9-0.4-0.9-0.9v-0.9c0-0.5,0.4-0.9,0.9-0.9s0.9,0.4,0.9,0.9v0.9
				C93,76.3,92.6,76.7,92,76.7z M92,71.1c-0.5,0-0.9-0.4-0.9-0.9v-0.9c0-0.5,0.4-0.9,0.9-0.9s0.9,0.4,0.9,0.9v0.9
				C93,70.7,92.6,71.1,92,71.1z M92,65.5c-0.5,0-0.9-0.4-0.9-0.9v-0.9c0-0.5,0.4-0.9,0.9-0.9s0.9,0.4,0.9,0.9v0.9
				C93,65.1,92.6,65.5,92,65.5z M92,59.9c-0.5,0-0.9-0.4-0.9-0.9v-0.9c0-0.5,0.4-0.9,0.9-0.9s0.9,0.4,0.9,0.9V59
				C93,59.5,92.6,59.9,92,59.9z M92,54.3c-0.5,0-0.9-0.4-0.9-0.9v-0.9c0-0.5,0.4-0.9,0.9-0.9S93,52,93,52.5v0.9
				C93,53.9,92.6,54.3,92,54.3z M92,48.7c-0.5,0-0.9-0.4-0.9-0.9v-0.9c0-0.5,0.4-0.9,0.9-0.9s0.9,0.4,0.9,0.9v0.9
				C93,48.3,92.6,48.7,92,48.7z M92,43.2c-0.5,0-0.9-0.4-0.9-0.9v-0.9c0-0.5,0.4-0.9,0.9-0.9s0.9,0.4,0.9,0.9v0.9
				C93,42.7,92.6,43.2,92,43.2z M92,37.6c-0.5,0-0.9-0.4-0.9-0.9v-0.9c0-0.5,0.4-0.9,0.9-0.9s0.9,0.4,0.9,0.9v0.9
				C93,37.1,92.6,37.6,92,37.6z"/>
		</g>
		<g>
			<path style="fill:#0A2E3D;" d="M160.7,76.7c-0.5,0-0.9-0.4-0.9-0.9v-0.9c0-0.5,0.4-0.9,0.9-0.9s0.9,0.4,0.9,0.9v0.9
				C161.7,76.3,161.3,76.7,160.7,76.7z M160.7,71.1c-0.5,0-0.9-0.4-0.9-0.9v-0.9c0-0.5,0.4-0.9,0.9-0.9s0.9,0.4,0.9,0.9v0.9
				C161.7,70.7,161.3,71.1,160.7,71.1z M160.7,65.5c-0.5,0-0.9-0.4-0.9-0.9v-0.9c0-0.5,0.4-0.9,0.9-0.9s0.9,0.4,0.9,0.9v0.9
				C161.7,65.1,161.3,65.5,160.7,65.5z M160.7,59.9c-0.5,0-0.9-0.4-0.9-0.9v-0.9c0-0.5,0.4-0.9,0.9-0.9s0.9,0.4,0.9,0.9V59
				C161.7,59.5,161.3,59.9,160.7,59.9z M160.7,54.3c-0.5,0-0.9-0.4-0.9-0.9v-0.9c0-0.5,0.4-0.9,0.9-0.9s0.9,0.4,0.9,0.9v0.9
				C161.7,53.9,161.3,54.3,160.7,54.3z M160.7,48.7c-0.5,0-0.9-0.4-0.9-0.9v-0.9c0-0.5,0.4-0.9,0.9-0.9s0.9,0.4,0.9,0.9v0.9
				C161.7,48.3,161.3,48.7,160.7,48.7z M160.7,43.2c-0.5,0-0.9-0.4-0.9-0.9v-0.9c0-0.5,0.4-0.9,0.9-0.9s0.9,0.4,0.9,0.9v0.9
				C161.7,42.7,161.3,43.2,160.7,43.2z M160.7,37.6c-0.5,0-0.9-0.4-0.9-0.9v-0.9c0-0.5,0.4-0.9,0.9-0.9s0.9,0.4,0.9,0.9v0.9
				C161.7,37.1,161.3,37.6,160.7,37.6z"/>
		</g>
		<g>
			<path style="fill:#0A2E3D;" d="M208.2,162.3c-0.2,0-0.3,0-0.5-0.1l-0.6-0.3c-0.4-0.3-0.6-0.8-0.3-1.3c0.3-0.4,0.8-0.6,1.3-0.3
				l0.6,0.3c0.4,0.3,0.6,0.8,0.3,1.3C208.8,162.1,208.5,162.3,208.2,162.3z M203.6,159.6c-0.2,0-0.3,0-0.5-0.1l-0.8-0.5
				c-0.4-0.3-0.6-0.8-0.3-1.3s0.8-0.6,1.3-0.3l0.8,0.5c0.4,0.3,0.6,0.8,0.3,1.3C204.2,159.5,203.9,159.6,203.6,159.6z M198.8,156.8
				c-0.2,0-0.3,0-0.5-0.1l-0.8-0.5c-0.4-0.3-0.6-0.8-0.3-1.3c0.3-0.4,0.8-0.6,1.3-0.3l0.8,0.5c0.4,0.3,0.6,0.8,0.3,1.3
				C199.4,156.6,199.1,156.8,198.8,156.8z M194,154c-0.2,0-0.3,0-0.5-0.1l-0.8-0.5c-0.4-0.3-0.6-0.8-0.3-1.3
				c0.3-0.4,0.8-0.6,1.3-0.3l0.8,0.5c0.4,0.3,0.6,0.8,0.3,1.3C194.6,153.8,194.3,154,194,154z M189.1,151.2c-0.2,0-0.3,0-0.5-0.1
				l-0.8-0.5c-0.4-0.3-0.6-0.8-0.3-1.3c0.3-0.4,0.8-0.6,1.3-0.3l0.8,0.5c0.4,0.3,0.6,0.8,0.3,1.3C189.8,151,189.5,151.2,189.1,151.2
				z M184.3,148.3c-0.2,0-0.3,0-0.5-0.1l-0.8-0.5c-0.4-0.3-0.6-0.8-0.3-1.3c0.3-0.4,0.8-0.6,1.3-0.3l0.8,0.5
				c0.4,0.3,0.6,0.8,0.3,1.3C184.9,148.2,184.6,148.3,184.3,148.3z M179.5,145.5c-0.2,0-0.3,0-0.5-0.1l-0.8-0.5
				c-0.4-0.3-0.6-0.8-0.3-1.3c0.3-0.4,0.8-0.6,1.3-0.3l0.8,0.5c0.4,0.3,0.6,0.8,0.3,1.3C180.1,145.4,179.8,145.5,179.5,145.5z"/>
		</g>
		<g>
			<path style="fill:#0A2E3D;" d="M183.1,204.8c-0.2,0-0.3,0-0.5-0.1l-0.3-0.2c-0.4-0.3-0.6-0.8-0.3-1.3c0.3-0.4,0.8-0.6,1.3-0.3
				l0.3,0.2c0.4,0.3,0.6,0.8,0.3,1.3C183.7,204.6,183.4,204.8,183.1,204.8z M178.7,202.3c-0.2,0-0.3,0-0.5-0.1l-0.8-0.5
				c-0.4-0.3-0.6-0.8-0.3-1.3s0.8-0.6,1.3-0.3l0.8,0.5c0.4,0.3,0.6,0.8,0.3,1.3C179.4,202.1,179.1,202.3,178.7,202.3z M173.9,199.5
				c-0.2,0-0.3,0-0.5-0.1l-0.8-0.5c-0.4-0.3-0.6-0.8-0.3-1.3c0.3-0.4,0.8-0.6,1.3-0.3l0.8,0.5c0.4,0.3,0.6,0.8,0.3,1.3
				C174.5,199.4,174.2,199.5,173.9,199.5z M169.1,196.7c-0.2,0-0.3,0-0.5-0.1l-0.8-0.5c-0.4-0.3-0.6-0.8-0.3-1.3s0.8-0.6,1.3-0.3
				l0.8,0.5c0.4,0.3,0.6,0.8,0.3,1.3C169.7,196.6,169.4,196.7,169.1,196.7z M164.2,193.9c-0.2,0-0.3,0-0.5-0.1l-0.8-0.5
				c-0.4-0.3-0.6-0.8-0.3-1.3s0.8-0.6,1.3-0.3l0.8,0.5c0.4,0.3,0.6,0.8,0.3,1.3C164.9,193.8,164.5,193.9,164.2,193.9z M159.4,191.1
				c-0.2,0-0.3,0-0.5-0.1l-0.8-0.5c-0.4-0.3-0.6-0.8-0.3-1.3c0.3-0.4,0.8-0.6,1.3-0.3l0.8,0.5c0.4,0.3,0.6,0.8,0.3,1.3
				C160,191,159.7,191.1,159.4,191.1z M154.5,188.3c-0.2,0-0.3,0-0.5-0.1l-0.8-0.5c-0.4-0.3-0.6-0.8-0.3-1.3
				c0.3-0.4,0.8-0.6,1.3-0.3l0.8,0.5c0.4,0.3,0.6,0.8,0.3,1.3C155.2,188.2,154.9,188.3,154.5,188.3z"/>
		</g>
	</g>
	<g>
		<g>
			<path style="fill:#0A2E3D;" d="M231.6,222c-0.4,0-0.9-0.2-1.1-0.6c-0.3-0.6-0.1-1.4,0.5-1.7c7.6-4.3,13.9-14.9,14-23.7
				c0-0.7,0.6-1.3,1.3-1.2c0.7,0,1.2,0.6,1.2,1.3c-0.1,9.6-7,21.2-15.3,25.9C232,221.9,231.8,222,231.6,222z"/>
		</g>
	</g>
	<g>
		<path style="fill:none;stroke:#0A2E3D;stroke-width:2.5;stroke-linecap:round;stroke-linejoin:round;stroke-miterlimit:10;" d="
			M126.3,141.6"/>
	</g>
</g>
</svg>
