<?xml version="1.0" encoding="utf-8"?>
<!-- Generator: Adobe Illustrator 18.0.0, SVG Export Plug-In . SVG Version: 6.00 Build 0)  -->
<!DOCTYPE svg PUBLIC "-//W3C//DTD SVG 1.1//EN" "http://www.w3.org/Graphics/SVG/1.1/DTD/svg11.dtd">
<svg version="1.1" id="Layer_1" xmlns="http://www.w3.org/2000/svg" xmlns:xlink="http://www.w3.org/1999/xlink" x="0px" y="0px"
	 viewBox="0 0 287.8 320" style="enable-background:new 0 0 287.8 320;" xml:space="preserve">
<g>
	<g>
		<g>
			<path style="fill:#0A2E3D;" d="M248.3,30.6c-0.3,0-0.5-0.2-0.5-0.5V15c0-0.3,0.2-0.5,0.5-0.5s0.5,0.2,0.5,0.5v15.1
				C248.8,30.3,248.6,30.6,248.3,30.6z"/>
		</g>
		<g>
			<path style="fill:#0A2E3D;" d="M248.3,30.8l-6.2-6.3c-0.2-0.2-0.2-0.5,0-0.7c0.2-0.2,0.5-0.2,0.7,0l5.5,5.6l5.5-5.6
				c0.2-0.2,0.5-0.2,0.7,0c0.2,0.2,0.2,0.5,0,0.7L248.3,30.8z"/>
		</g>
	</g>
	<g>
		<g>
			<path style="fill:#0A2E3D;" d="M77.2,30.6c-0.3,0-0.5-0.2-0.5-0.5V15c0-0.3,0.2-0.5,0.5-0.5s0.5,0.2,0.5,0.5v15.1
				C77.7,30.3,77.5,30.6,77.2,30.6z"/>
		</g>
		<g>
			<path style="fill:#0A2E3D;" d="M77.2,30.8L71,24.4c-0.2-0.2-0.2-0.5,0-0.7c0.2-0.2,0.5-0.2,0.7,0l5.5,5.6l5.5-5.6
				c0.2-0.2,0.5-0.2,0.7,0c0.2,0.2,0.2,0.5,0,0.7L77.2,30.8z"/>
		</g>
	</g>
	<g>
		<polygon style="fill:#B6C3C9;" points="247.4,262.7 247.4,226.9 278.3,244.9 		"/>
	</g>
	<g>
		<path style="fill:#0A2E3D;" d="M247.4,264c-0.2,0-0.4-0.1-0.6-0.2l-31-17.9c-0.4-0.2-0.6-0.6-0.6-1.1c0-0.4,0.2-0.9,0.6-1.1l31-18
			c0.4-0.2,0.9-0.2,1.3,0l31,18c0.4,0.2,0.6,0.6,0.6,1.1c0,0.4-0.2,0.9-0.6,1.1l-31,17.9C247.8,263.9,247.6,264,247.4,264z
			 M218.9,244.9l28.5,16.4l28.5-16.4l-28.5-16.6L218.9,244.9z"/>
	</g>
	<g>
		<g>
			<path style="fill:#0A2E3D;" d="M247.5,306.4l-6.5-6.5c-0.4-0.4-0.4-1,0-1.4s1-0.4,1.4,0l5.1,5.1l10.8-10.8c0.4-0.4,1-0.4,1.4,0
				s0.4,1,0,1.4L247.5,306.4z"/>
		</g>
	</g>
	<g>
		<g>
			<path style="fill:#0A2E3D;" d="M170.2,207.1c-0.1,0-0.3-0.1-0.4-0.2l-3.4-3.9c-0.2-0.2-0.2-0.5,0.1-0.7c0.2-0.2,0.5-0.2,0.7,0.1
				l3,3.5l3-3.5c0.2-0.2,0.5-0.2,0.7-0.1c0.2,0.2,0.2,0.5,0.1,0.7l-3.4,3.9C170.4,207.1,170.3,207.1,170.2,207.1z"/>
		</g>
		<g>
			<path style="fill:#0A2E3D;" d="M163.1,209.8c-4.2,0-7.6-3.4-7.6-7.6s3.4-7.6,7.6-7.6s7.6,3.4,7.6,7.6v3.9c0,0.3-0.2,0.5-0.5,0.5
				s-0.5-0.2-0.5-0.5v-3.9c0-3.6-3-6.6-6.6-6.6s-6.6,3-6.6,6.6s3,6.6,6.6,6.6c0.3,0,0.5,0.2,0.5,0.5S163.3,209.8,163.1,209.8z"/>
		</g>
	</g>
	<g>
		<g>
			<path style="fill:#0A2E3D;" d="M83,306c-0.3,0-0.5-0.1-0.7-0.3l-11.5-11.5c-0.4-0.4-0.4-1,0-1.4s1-0.4,1.4,0l11.5,11.5
				c0.4,0.4,0.4,1,0,1.4C83.5,305.9,83.3,306,83,306z"/>
		</g>
		<g>
			<path style="fill:#0A2E3D;" d="M71.5,306c-0.3,0-0.5-0.1-0.7-0.3c-0.4-0.4-0.4-1,0-1.4l11.5-11.5c0.4-0.4,1-0.4,1.4,0
				s0.4,1,0,1.4l-11.5,11.5C72,305.9,71.7,306,71.5,306z"/>
		</g>
	</g>
	<g>
		<path style="fill:#0A2E3D;" d="M46.5,237.5c-0.5,0-0.9-0.4-0.9-0.9v-0.9c0-0.5,0.4-0.9,0.9-0.9s0.9,0.4,0.9,0.9v0.9
			C47.4,237.1,47,237.5,46.5,237.5z M46.5,232c-0.5,0-0.9-0.4-0.9-0.9v-0.9c0-0.5,0.4-0.9,0.9-0.9s0.9,0.4,0.9,0.9v0.9
			C47.4,231.5,47,232,46.5,232z M46.5,226.4c-0.5,0-0.9-0.4-0.9-0.9v-0.9c0-0.5,0.4-0.9,0.9-0.9s0.9,0.4,0.9,0.9v0.9
			C47.4,225.9,47,226.4,46.5,226.4z M46.5,220.8c-0.5,0-0.9-0.4-0.9-0.9v-0.9c0-0.5,0.4-0.9,0.9-0.9s0.9,0.4,0.9,0.9v0.9
			C47.4,220.4,47,220.8,46.5,220.8z M46.5,215.2c-0.5,0-0.9-0.4-0.9-0.9v-0.9c0-0.5,0.4-0.9,0.9-0.9s0.9,0.4,0.9,0.9v0.9
			C47.4,214.8,47,215.2,46.5,215.2z M46.5,209.6c-0.5,0-0.9-0.4-0.9-0.9v-0.9c0-0.5,0.4-0.9,0.9-0.9s0.9,0.4,0.9,0.9v0.9
			C47.4,209.2,47,209.6,46.5,209.6z M46.5,204c-0.5,0-0.9-0.4-0.9-0.9v-0.9c0-0.5,0.4-0.9,0.9-0.9s0.9,0.4,0.9,0.9v0.9
			C47.4,203.6,47,204,46.5,204z M46.5,198.4c-0.5,0-0.9-0.4-0.9-0.9v-0.9c0-0.5,0.4-0.9,0.9-0.9s0.9,0.4,0.9,0.9v0.9
			C47.4,198,47,198.4,46.5,198.4z M46.5,192.8c-0.5,0-0.9-0.4-0.9-0.9v-0.9c0-0.5,0.4-0.9,0.9-0.9s0.9,0.4,0.9,0.9v0.9
			C47.4,192.4,47,192.8,46.5,192.8z M46.5,187.2c-0.5,0-0.9-0.4-0.9-0.9v-0.9c0-0.5,0.4-0.9,0.9-0.9s0.9,0.4,0.9,0.9v0.9
			C47.4,186.8,47,187.2,46.5,187.2z M46.5,181.6c-0.5,0-0.9-0.4-0.9-0.9v-0.9c0-0.5,0.4-0.9,0.9-0.9s0.9,0.4,0.9,0.9v0.9
			C47.4,181.2,47,181.6,46.5,181.6z M46.5,176c-0.5,0-0.9-0.4-0.9-0.9v-0.9c0-0.5,0.4-0.9,0.9-0.9s0.9,0.4,0.9,0.9v0.9
			C47.4,175.6,47,176,46.5,176z M46.5,170.4c-0.5,0-0.9-0.4-0.9-0.9v-0.9c0-0.5,0.4-0.9,0.9-0.9s0.9,0.4,0.9,0.9v0.9
			C47.4,170,47,170.4,46.5,170.4z M46.5,164.9c-0.5,0-0.9-0.4-0.9-0.9V163c0-0.5,0.4-0.9,0.9-0.9s0.9,0.4,0.9,0.9v0.9
			C47.4,164.4,47,164.9,46.5,164.9z M46.5,159.3c-0.5,0-0.9-0.4-0.9-0.9v-0.9c0-0.5,0.4-0.9,0.9-0.9s0.9,0.4,0.9,0.9v0.9
			C47.4,158.8,47,159.3,46.5,159.3z M46.5,153.7c-0.5,0-0.9-0.4-0.9-0.9v-0.9c0-0.5,0.4-0.9,0.9-0.9s0.9,0.4,0.9,0.9v0.9
			C47.4,153.3,47,153.7,46.5,153.7z M46.5,148.1c-0.5,0-0.9-0.4-0.9-0.9v-0.9c0-0.5,0.4-0.9,0.9-0.9s0.9,0.4,0.9,0.9v0.9
			C47.4,147.7,47,148.1,46.5,148.1z"/>
	</g>
	<g>
		<path style="fill:#0A2E3D;" d="M109,237.5c-0.5,0-0.9-0.4-0.9-0.9v-0.9c0-0.5,0.4-0.9,0.9-0.9s0.9,0.4,0.9,0.9v0.9
			C109.9,237.1,109.5,237.5,109,237.5z M109,232c-0.5,0-0.9-0.4-0.9-0.9v-0.9c0-0.5,0.4-0.9,0.9-0.9s0.9,0.4,0.9,0.9v0.9
			C109.9,231.5,109.5,232,109,232z M109,226.4c-0.5,0-0.9-0.4-0.9-0.9v-0.9c0-0.5,0.4-0.9,0.9-0.9s0.9,0.4,0.9,0.9v0.9
			C109.9,225.9,109.5,226.4,109,226.4z M109,220.8c-0.5,0-0.9-0.4-0.9-0.9v-0.9c0-0.5,0.4-0.9,0.9-0.9s0.9,0.4,0.9,0.9v0.9
			C109.9,220.4,109.5,220.8,109,220.8z M109,215.2c-0.5,0-0.9-0.4-0.9-0.9v-0.9c0-0.5,0.4-0.9,0.9-0.9s0.9,0.4,0.9,0.9v0.9
			C109.9,214.8,109.5,215.2,109,215.2z M109,209.6c-0.5,0-0.9-0.4-0.9-0.9v-0.9c0-0.5,0.4-0.9,0.9-0.9s0.9,0.4,0.9,0.9v0.9
			C109.9,209.2,109.5,209.6,109,209.6z M109,204c-0.5,0-0.9-0.4-0.9-0.9v-0.9c0-0.5,0.4-0.9,0.9-0.9s0.9,0.4,0.9,0.9v0.9
			C109.9,203.6,109.5,204,109,204z M109,198.4c-0.5,0-0.9-0.4-0.9-0.9v-0.9c0-0.5,0.4-0.9,0.9-0.9s0.9,0.4,0.9,0.9v0.9
			C109.9,198,109.5,198.4,109,198.4z M109,192.8c-0.5,0-0.9-0.4-0.9-0.9v-0.9c0-0.5,0.4-0.9,0.9-0.9s0.9,0.4,0.9,0.9v0.9
			C109.9,192.4,109.5,192.8,109,192.8z M109,187.2c-0.5,0-0.9-0.4-0.9-0.9v-0.9c0-0.5,0.4-0.9,0.9-0.9s0.9,0.4,0.9,0.9v0.9
			C109.9,186.8,109.5,187.2,109,187.2z M109,181.6c-0.5,0-0.9-0.4-0.9-0.9v-0.9c0-0.5,0.4-0.9,0.9-0.9s0.9,0.4,0.9,0.9v0.9
			C109.9,181.2,109.5,181.6,109,181.6z M109,176c-0.5,0-0.9-0.4-0.9-0.9v-0.9c0-0.5,0.4-0.9,0.9-0.9s0.9,0.4,0.9,0.9v0.9
			C109.9,175.6,109.5,176,109,176z M109,170.4c-0.5,0-0.9-0.4-0.9-0.9v-0.9c0-0.5,0.4-0.9,0.9-0.9s0.9,0.4,0.9,0.9v0.9
			C109.9,170,109.5,170.4,109,170.4z M109,164.9c-0.5,0-0.9-0.4-0.9-0.9V163c0-0.5,0.4-0.9,0.9-0.9s0.9,0.4,0.9,0.9v0.9
			C109.9,164.4,109.5,164.9,109,164.9z M109,159.3c-0.5,0-0.9-0.4-0.9-0.9v-0.9c0-0.5,0.4-0.9,0.9-0.9s0.9,0.4,0.9,0.9v0.9
			C109.9,158.8,109.5,159.3,109,159.3z M109,153.7c-0.5,0-0.9-0.4-0.9-0.9v-0.9c0-0.5,0.4-0.9,0.9-0.9s0.9,0.4,0.9,0.9v0.9
			C109.9,153.3,109.5,153.7,109,153.7z M109,148.1c-0.5,0-0.9-0.4-0.9-0.9v-0.9c0-0.5,0.4-0.9,0.9-0.9s0.9,0.4,0.9,0.9v0.9
			C109.9,147.7,109.5,148.1,109,148.1z"/>
	</g>
	<g>
		<path style="fill:#0A2E3D;" d="M216.4,240c-0.5,0-0.9-0.4-0.9-0.9v-0.9c0-0.5,0.4-0.9,0.9-0.9s0.9,0.4,0.9,0.9v0.9
			C217.3,239.5,216.9,240,216.4,240z M216.4,234.4c-0.5,0-0.9-0.4-0.9-0.9v-0.9c0-0.5,0.4-0.9,0.9-0.9s0.9,0.4,0.9,0.9v0.9
			C217.3,234,216.9,234.4,216.4,234.4z M216.4,228.8c-0.5,0-0.9-0.4-0.9-0.9v-0.9c0-0.5,0.4-0.9,0.9-0.9s0.9,0.4,0.9,0.9v0.9
			C217.3,228.4,216.9,228.8,216.4,228.8z M216.4,223.2c-0.5,0-0.9-0.4-0.9-0.9v-0.9c0-0.5,0.4-0.9,0.9-0.9s0.9,0.4,0.9,0.9v0.9
			C217.3,222.8,216.9,223.2,216.4,223.2z M216.4,217.6c-0.5,0-0.9-0.4-0.9-0.9v-0.9c0-0.5,0.4-0.9,0.9-0.9s0.9,0.4,0.9,0.9v0.9
			C217.3,217.2,216.9,217.6,216.4,217.6z M216.4,212c-0.5,0-0.9-0.4-0.9-0.9v-0.9c0-0.5,0.4-0.9,0.9-0.9s0.9,0.4,0.9,0.9v0.9
			C217.3,211.6,216.9,212,216.4,212z M216.4,206.4c-0.5,0-0.9-0.4-0.9-0.9v-0.9c0-0.5,0.4-0.9,0.9-0.9s0.9,0.4,0.9,0.9v0.9
			C217.3,206,216.9,206.4,216.4,206.4z M216.4,200.8c-0.5,0-0.9-0.4-0.9-0.9V199c0-0.5,0.4-0.9,0.9-0.9s0.9,0.4,0.9,0.9v0.9
			C217.3,200.4,216.9,200.8,216.4,200.8z M216.4,195.2c-0.5,0-0.9-0.4-0.9-0.9v-0.9c0-0.5,0.4-0.9,0.9-0.9s0.9,0.4,0.9,0.9v0.9
			C217.3,194.8,216.9,195.2,216.4,195.2z M216.4,189.6c-0.5,0-0.9-0.4-0.9-0.9v-0.9c0-0.5,0.4-0.9,0.9-0.9s0.9,0.4,0.9,0.9v0.9
			C217.3,189.2,216.9,189.6,216.4,189.6z M216.4,184.1c-0.5,0-0.9-0.4-0.9-0.9v-0.9c0-0.5,0.4-0.9,0.9-0.9s0.9,0.4,0.9,0.9v0.9
			C217.3,183.6,216.9,184.1,216.4,184.1z M216.4,178.5c-0.5,0-0.9-0.4-0.9-0.9v-0.9c0-0.5,0.4-0.9,0.9-0.9s0.9,0.4,0.9,0.9v0.9
			C217.3,178,216.9,178.5,216.4,178.5z M216.4,172.9c-0.5,0-0.9-0.4-0.9-0.9V171c0-0.5,0.4-0.9,0.9-0.9s0.9,0.4,0.9,0.9v0.9
			C217.3,172.5,216.9,172.9,216.4,172.9z M216.4,167.3c-0.5,0-0.9-0.4-0.9-0.9v-0.9c0-0.5,0.4-0.9,0.9-0.9s0.9,0.4,0.9,0.9v0.9
			C217.3,166.9,216.9,167.3,216.4,167.3z"/>
	</g>
	<g>
		<path style="fill:#0A2E3D;" d="M278.1,239.1c-0.5,0-0.9-0.4-0.9-0.9v-0.9c0-0.5,0.4-0.9,0.9-0.9s0.9,0.4,0.9,0.9v0.9
			C279,238.7,278.6,239.1,278.1,239.1z M278.1,233.5c-0.5,0-0.9-0.4-0.9-0.9v-0.9c0-0.5,0.4-0.9,0.9-0.9s0.9,0.4,0.9,0.9v0.9
			C279,233.1,278.6,233.5,278.1,233.5z M278.1,227.9c-0.5,0-0.9-0.4-0.9-0.9v-0.9c0-0.5,0.4-0.9,0.9-0.9s0.9,0.4,0.9,0.9v0.9
			C279,227.5,278.6,227.9,278.1,227.9z M278.1,222.3c-0.5,0-0.9-0.4-0.9-0.9v-0.9c0-0.5,0.4-0.9,0.9-0.9s0.9,0.4,0.9,0.9v0.9
			C279,221.9,278.6,222.3,278.1,222.3z M278.1,216.7c-0.5,0-0.9-0.4-0.9-0.9v-0.9c0-0.5,0.4-0.9,0.9-0.9s0.9,0.4,0.9,0.9v0.9
			C279,216.3,278.6,216.7,278.1,216.7z M278.1,211.2c-0.5,0-0.9-0.4-0.9-0.9v-0.9c0-0.5,0.4-0.9,0.9-0.9s0.9,0.4,0.9,0.9v0.9
			C279,210.7,278.6,211.2,278.1,211.2z M278.1,205.6c-0.5,0-0.9-0.4-0.9-0.9v-0.9c0-0.5,0.4-0.9,0.9-0.9s0.9,0.4,0.9,0.9v0.9
			C279,205.1,278.6,205.6,278.1,205.6z M278.1,200c-0.5,0-0.9-0.4-0.9-0.9v-0.9c0-0.5,0.4-0.9,0.9-0.9s0.9,0.4,0.9,0.9v0.9
			C279,199.6,278.6,200,278.1,200z M278.1,194.4c-0.5,0-0.9-0.4-0.9-0.9v-0.9c0-0.5,0.4-0.9,0.9-0.9s0.9,0.4,0.9,0.9v0.9
			C279,194,278.6,194.4,278.1,194.4z M278.1,188.8c-0.5,0-0.9-0.4-0.9-0.9v-0.9c0-0.5,0.4-0.9,0.9-0.9s0.9,0.4,0.9,0.9v0.9
			C279,188.4,278.6,188.8,278.1,188.8z M278.1,183.2c-0.5,0-0.9-0.4-0.9-0.9v-0.9c0-0.5,0.4-0.9,0.9-0.9s0.9,0.4,0.9,0.9v0.9
			C279,182.8,278.6,183.2,278.1,183.2z M278.1,177.6c-0.5,0-0.9-0.4-0.9-0.9v-0.9c0-0.5,0.4-0.9,0.9-0.9s0.9,0.4,0.9,0.9v0.9
			C279,177.2,278.6,177.6,278.1,177.6z M278.1,172c-0.5,0-0.9-0.4-0.9-0.9v-0.9c0-0.5,0.4-0.9,0.9-0.9s0.9,0.4,0.9,0.9v0.9
			C279,171.6,278.6,172,278.1,172z M278.1,166.4c-0.5,0-0.9-0.4-0.9-0.9v-0.9c0-0.5,0.4-0.9,0.9-0.9s0.9,0.4,0.9,0.9v0.9
			C279,166,278.6,166.4,278.1,166.4z"/>
	</g>
	<g>
		<path style="fill:#DCE2E4;" d="M71.6,80.5L40.8,98.3L10,80.5l30.8-17.9L71.6,80.5z"/>
	</g>
	<g>
		<g>
			<path style="fill:#0A2E3D;" d="M40.8,135.9c-0.1,0-0.2,0-0.3,0c-0.3-0.1-0.6-0.3-0.8-0.6L9,81.1c-0.3-0.6-0.1-1.4,0.5-1.7
				l30.7-17.9c0.4-0.2,0.9-0.2,1.3,0l30.7,17.9c0.4,0.2,0.6,0.6,0.6,1.1v36.2c0,0.4-0.2,0.9-0.6,1.1l-30.7,17.9
				C41.3,135.8,41.1,135.9,40.8,135.9z M11.8,81l29.5,51.9l29-16.9V81.2L40.8,64L11.8,81z"/>
		</g>
	</g>
	<g>
		<polygon style="fill:#FFFFFF;" points="46.4,102.2 77.2,84.3 108,102.2 108,138.2 77.2,156.1 46.4,138.2 		"/>
	</g>
	<g>
		<path style="fill:#DCE2E4;" d="M108,102.2L77.2,120l-30.8-17.8l30.8-17.9L108,102.2z"/>
	</g>
	<g>
		<path style="fill:#0A2E3D;" d="M77.2,157.4c-0.2,0-0.4-0.1-0.6-0.2l-30.8-18c-0.4-0.2-0.6-0.6-0.6-1.1v-35.9
			c0-0.4,0.2-0.9,0.6-1.1l30.8-18c0.4-0.2,0.9-0.2,1.3,0l30.8,18c0.4,0.2,0.6,0.6,0.6,1.1v35.9c0,0.4-0.2,0.9-0.6,1.1l-30.8,18
			C77.6,157.3,77.4,157.4,77.2,157.4z M47.6,137.5l29.6,17.2l29.6-17.2v-34.5L77.2,85.7l-29.6,17.2V137.5z"/>
	</g>
	<g>
		<polygon style="fill:#FFFFFF;" points="82.3,123.6 113.1,105.7 143.8,159.5 113.1,177.4 82.3,159.2 		"/>
	</g>
	<g>
		<g>
			<polygon style="fill:#DCE2E4;" points="113.1,177.4 143.8,159.5 113.1,105.7 82.4,123.5 			"/>
		</g>
		<g>
			<path style="fill:#0A2E3D;" d="M113.1,178.7c-0.2,0-0.4-0.1-0.6-0.2l-30.7-18.2c-0.4-0.2-0.6-0.6-0.6-1.1v-35.6
				c0-0.4,0.2-0.9,0.6-1.1l30.7-17.9c0.3-0.2,0.6-0.2,1-0.1c0.3,0.1,0.6,0.3,0.8,0.6l30.7,53.8c0.3,0.6,0.1,1.4-0.5,1.7l-30.7,17.9
				C113.5,178.6,113.3,178.7,113.1,178.7z M83.6,158.5l29.5,17.5l29-16.9l-29.5-51.6l-29,16.9V158.5z"/>
		</g>
		<g>
			<path style="fill:none;stroke:#4B4F64;stroke-width:2.5;stroke-linecap:round;stroke-linejoin:round;stroke-miterlimit:10;" d="
				M97.7,132.6"/>
		</g>
	</g>
	<g>
		<path style="fill:#0A2E3D;" d="M77.2,157.4c-0.7,0-1.2-0.6-1.2-1.2v-13.3c0-0.7,0.6-1.2,1.2-1.2s1.2,0.6,1.2,1.2v13.3
			C78.4,156.8,77.9,157.4,77.2,157.4z"/>
	</g>
	<g>
		<path style="fill:#0A2E3D;" d="M40.8,106.7c-0.7,0-1.2-0.6-1.2-1.2v-7.2c0-0.7,0.6-1.2,1.2-1.2s1.2,0.6,1.2,1.2v7.2
			C42.1,106.2,41.5,106.7,40.8,106.7z"/>
	</g>
	<g>
		<path style="fill:#0A2E3D;" d="M40.8,135.9c-0.7,0-1.2-0.6-1.2-1.2v-13.3c0-0.7,0.6-1.2,1.2-1.2s1.2,0.6,1.2,1.2v13.3
			C42.1,135.3,41.5,135.9,40.8,135.9z"/>
	</g>
	<g>
		<g>
			<path style="fill:#B6C3C9;" d="M278.1,124.4l-30.8,17.8l-30.8-17.8l30.8-17.9L278.1,124.4z"/>
		</g>
		<g>
			<path style="fill:#0A2E3D;" d="M247.3,179.6c-0.2,0-0.4-0.1-0.6-0.2l-30.8-18c-0.4-0.2-0.6-0.6-0.6-1.1v-35.9
				c0-0.4,0.2-0.9,0.6-1.1l30.8-18c0.4-0.2,0.9-0.2,1.3,0l30.8,18c0.4,0.2,0.6,0.6,0.6,1.1v35.9c0,0.4-0.2,0.9-0.6,1.1l-30.8,18
				C247.8,179.5,247.5,179.6,247.3,179.6z M217.8,159.6l29.6,17.2l29.6-17.2v-34.5l-29.6-17.2l-29.6,17.2V159.6z"/>
		</g>
		<g>
			<g>
				<polygon style="fill:#FFFFFF;" points="215.7,80.7 246.4,62.7 277.2,116.6 246.4,134.5 215.7,116.3 				"/>
			</g>
			<g>
				<g>
					<polygon style="fill:#B6C3C9;" points="246.4,134.5 277.2,116.6 246.4,62.7 215.8,80.6 					"/>
				</g>
				<g>
					<path style="fill:#0A2E3D;" d="M246.4,135.7c-0.2,0-0.4-0.1-0.6-0.2L215,117.4c-0.4-0.2-0.6-0.6-0.6-1.1V80.7
						c0-0.4,0.2-0.9,0.6-1.1l30.7-17.9c0.3-0.2,0.6-0.2,1-0.1c0.3,0.1,0.6,0.3,0.8,0.6l30.7,53.8c0.3,0.6,0.1,1.4-0.5,1.7
						l-30.7,17.9C246.9,135.7,246.7,135.7,246.4,135.7z M216.9,115.6l29.5,17.5l29-16.9L246,64.5l-29,16.9V115.6z"/>
				</g>
				<g>
					
						<path style="fill:none;stroke:#4B4F64;stroke-width:2.5;stroke-linecap:round;stroke-linejoin:round;stroke-miterlimit:10;" d="
						M231.1,89.6"/>
				</g>
			</g>
		</g>
		<g>
			<g>
				<polygon style="fill:#FFFFFF;" points="217.3,70.3 248.1,52.4 278.8,70.3 278.8,106.5 248.1,124.4 				"/>
			</g>
		</g>
		<g>
			<path style="fill:#0A2E3D;" d="M247.2,179.2c-0.7,0-1.2-0.6-1.2-1.2v-13.3c0-0.7,0.6-1.2,1.2-1.2s1.2,0.6,1.2,1.2v13.3
				C248.4,178.6,247.9,179.2,247.2,179.2z"/>
		</g>
		<g>
			<g>
				<path style="fill:#DCE2E4;" d="M278.8,70.3L248,88.1l-30.8-17.8L248,52.4L278.8,70.3z"/>
			</g>
			<g>
				<g>
					<path style="fill:#0A2E3D;" d="M248.1,125.6c-0.1,0-0.2,0-0.3,0c-0.3-0.1-0.6-0.3-0.8-0.6l-30.7-54.1c-0.3-0.6-0.1-1.4,0.5-1.7
						l30.7-17.9c0.4-0.2,0.9-0.2,1.3,0l30.7,17.9c0.4,0.2,0.6,0.6,0.6,1.1v36.2c0,0.4-0.2,0.9-0.6,1.1l-30.7,17.9
						C248.5,125.6,248.3,125.6,248.1,125.6z M219,70.7l29.5,51.9l29-16.9V71l-29.5-17.2L219,70.7z"/>
				</g>
			</g>
			<g>
				<path style="fill:#0A2E3D;" d="M248.1,96.5c-0.7,0-1.2-0.6-1.2-1.2v-7.2c0-0.7,0.6-1.2,1.2-1.2s1.2,0.6,1.2,1.2v7.2
					C249.3,95.9,248.8,96.5,248.1,96.5z"/>
			</g>
			<g>
				<path style="fill:#0A2E3D;" d="M248.1,125.6c-0.7,0-1.2-0.6-1.2-1.2V111c0-0.7,0.6-1.2,1.2-1.2s1.2,0.6,1.2,1.2v13.3
					C249.3,125.1,248.8,125.6,248.1,125.6z"/>
			</g>
		</g>
	</g>
	<g>
		<polygon style="fill:#B6C3C9;" points="77.3,262.7 77.3,226.9 108.2,244.9 		"/>
	</g>
	<g>
		<path style="fill:#0A2E3D;" d="M77.2,264c-0.2,0-0.4-0.1-0.6-0.2l-31-17.9c-0.4-0.2-0.6-0.6-0.6-1.1c0-0.4,0.2-0.9,0.6-1.1l31-18
			c0.4-0.2,0.9-0.2,1.3,0l31,18c0.4,0.2,0.6,0.6,0.6,1.1c0,0.4-0.2,0.9-0.6,1.1l-31,17.9C77.7,263.9,77.5,264,77.2,264z M48.8,244.9
			l28.5,16.4l28.5-16.4l-28.5-16.6L48.8,244.9z"/>
	</g>
</g>
</svg>
