<?xml version="1.0" encoding="utf-8"?>
<!-- Generator: Adobe Illustrator 18.0.0, SVG Export Plug-In . SVG Version: 6.00 Build 0)  -->
<!DOCTYPE svg PUBLIC "-//W3C//DTD SVG 1.1//EN" "http://www.w3.org/Graphics/SVG/1.1/DTD/svg11.dtd">
<svg version="1.1" id="Layer_1" xmlns="http://www.w3.org/2000/svg" xmlns:xlink="http://www.w3.org/1999/xlink" x="0px" y="0px"
	 viewBox="0 0 48 48" style="enable-background:new 0 0 48 48;" xml:space="preserve">
<g>
	<g>
		<circle style="fill:#7ED8F0;" cx="24" cy="24" r="24"/>
	</g>
	<g>
		<g>
			<g>
				<path style="fill:#FFFFFF;" d="M37.3,36.2c0.4,0,0.8-0.2,1.1-0.5c0.3-0.3,0.5-0.7,0.5-1.1V20.9c0-0.5-0.3-0.9-0.6-1.2L25.6,10
					c-0.3-0.2-0.6-0.3-0.9-0.3h-0.1c-0.3,0-0.7,0.1-0.9,0.3l-12.6,9.7c-0.4,0.3-0.6,0.7-0.6,1.2v13.9c0,0.4,0.2,0.8,0.5,1.1
					c0.3,0.3,0.7,0.5,1.1,0.5H37.3z"/>
				<path style="fill:#3A3D4A;" d="M37.3,36.7H12c-0.5,0-1-0.2-1.4-0.6c-0.4-0.4-0.6-0.9-0.6-1.4V20.9c0-0.6,0.3-1.2,0.8-1.5
					l12.6-9.7c0.3-0.3,0.7-0.4,1.1-0.4h0.1c0.4,0,0.8,0.2,1.1,0.4l12.6,9.7c0.5,0.4,0.8,0.9,0.8,1.5v13.9c0,0.5-0.2,1-0.6,1.4
					C38.2,36.4,37.8,36.7,37.3,36.7z M24.6,9.7v0.4c-0.3,0-0.5,0.1-0.7,0.2L11.4,20c-0.3,0.2-0.5,0.6-0.5,0.9v13.9
					c0,0.3,0.1,0.6,0.3,0.8c0.2,0.2,0.5,0.3,0.8,0.3h25.2c0.3,0,0.6-0.1,0.8-0.3c0.2-0.2,0.3-0.5,0.3-0.8V20.9
					c0-0.4-0.2-0.7-0.5-0.9l-12.5-9.7c-0.2-0.1-0.4-0.2-0.6-0.2L24.6,9.7z"/>
			</g>
			<g>
				<polygon style="fill:#FCF6A4;" points="14.2,12.8 14.2,22.7 24.6,30.2 35.1,22.8 35.1,12.8 				"/>
			</g>
			<g>
				<polygon style="fill:#3A3D4A;" points="35.5,22.8 34.7,22.8 34.7,13.2 14.6,13.2 14.6,22.7 13.8,22.7 13.8,12.3 35.5,12.3 				
					"/>
			</g>
			<g>
				<g>
					<g>
						<g>
							<circle style="fill:#3A3D4A;" cx="20.9" cy="18" r="0.8"/>
						</g>
					</g>
					<g>
						<g>
							<path style="fill:#3A3D4A;" d="M21.7,20.7c-0.2,0-0.3,0.2-0.3,0.4c0.3,1,1.5,2.1,3.2,2.1c1.6,0,2.9-1.2,3.2-2.1
								c0.1-0.2-0.1-0.4-0.3-0.4H21.7z"/>
						</g>
						<g>
							<path style="fill:#F9461C;" d="M23.7,21.8c0,0.2,0.4,0.8,1,0.8s0.9-0.6,0.9-0.8s-0.4-0.2-1-0.2S23.7,21.6,23.7,21.8z"/>
						</g>
					</g>
				</g>
				<g>
					<g>
						<g>
							<circle style="fill:#3A3D4A;" cx="28.4" cy="18" r="0.8"/>
						</g>
					</g>
				</g>
			</g>
			<g>
				<polygon style="fill:#D9D28C;" points="34.7,22.4 24.6,28.2 14.6,22.4 24.6,29.9 				"/>
			</g>
			<g>
				<g>
					<path style="fill:#3A3D4A;" d="M11,36.2c-0.1,0-0.2-0.1-0.3-0.1c-0.2-0.2-0.2-0.4-0.1-0.6l6.5-7.8c0.2-0.2,0.4-0.2,0.6-0.1
						c0.2,0.2,0.2,0.4,0.1,0.6L11.3,36C11.2,36.1,11.1,36.2,11,36.2z"/>
				</g>
				<g>
					<path style="fill:#3A3D4A;" d="M38.3,36.2c-0.1,0-0.3-0.1-0.3-0.2l-6.5-7.8c-0.2-0.2-0.1-0.4,0.1-0.6s0.4-0.1,0.6,0.1l6.5,7.8
						c0.2,0.2,0.1,0.4-0.1,0.6C38.5,36.2,38.4,36.2,38.3,36.2z"/>
				</g>
			</g>
		</g>
	</g>
</g>
<g>
	<path style="fill:#3A3D4A;" d="M24.6,30.7l-14.1-10c-0.2-0.2-0.2-0.4-0.1-0.6c0.2-0.2,0.4-0.2,0.6-0.1l13.6,9.6L38.2,20
		c0.2-0.2,0.5-0.1,0.6,0.1c0.2,0.2,0.1,0.5-0.1,0.6L24.6,30.7z"/>
</g>
</svg>
