<svg style="position: absolute; width: 0; height: 0;" width="0" height="0" version="1.1" xmlns="http://www.w3.org/2000/svg" xmlns:xlink="http://www.w3.org/1999/xlink">
<defs>
<symbol id="icon-twitter" viewBox="0 0 26 28">
<title>twitter</title>
<path class="path1" d="M25.312 6.375q-1.047 1.531-2.531 2.609 0.016 0.219 0.016 0.656 0 2.031-0.594 4.055t-1.805 3.883-2.883 3.289-4.031 2.281-5.047 0.852q-4.234 0-7.75-2.266 0.547 0.063 1.219 0.063 3.516 0 6.266-2.156-1.641-0.031-2.938-1.008t-1.781-2.492q0.516 0.078 0.953 0.078 0.672 0 1.328-0.172-1.75-0.359-2.898-1.742t-1.148-3.211v-0.063q1.062 0.594 2.281 0.641-1.031-0.688-1.641-1.797t-0.609-2.406q0-1.375 0.688-2.547 1.891 2.328 4.602 3.727t5.805 1.555q-0.125-0.594-0.125-1.156 0-2.094 1.477-3.57t3.57-1.477q2.188 0 3.687 1.594 1.703-0.328 3.203-1.219-0.578 1.797-2.219 2.781 1.453-0.156 2.906-0.781z"></path>
</symbol>
<symbol id="icon-github" viewBox="0 0 24 28">
<title>github</title>
<path class="path1" d="M12 2q3.266 0 6.023 1.609t4.367 4.367 1.609 6.023q0 3.922-2.289 7.055t-5.914 4.336q-0.422 0.078-0.625-0.109t-0.203-0.469q0-0.047 0.008-1.195t0.008-2.102q0-1.516-0.812-2.219 0.891-0.094 1.602-0.281t1.469-0.609 1.266-1.039 0.828-1.641 0.32-2.352q0-1.859-1.234-3.219 0.578-1.422-0.125-3.187-0.438-0.141-1.266 0.172t-1.437 0.688l-0.594 0.375q-1.453-0.406-3-0.406t-3 0.406q-0.25-0.172-0.664-0.422t-1.305-0.602-1.328-0.211q-0.703 1.766-0.125 3.187-1.234 1.359-1.234 3.219 0 1.328 0.32 2.344t0.82 1.641 1.258 1.047 1.469 0.609 1.602 0.281q-0.609 0.562-0.766 1.609-0.328 0.156-0.703 0.234t-0.891 0.078-1.023-0.336-0.867-0.977q-0.297-0.5-0.758-0.812t-0.773-0.375l-0.313-0.047q-0.328 0-0.453 0.070t-0.078 0.18 0.141 0.219 0.203 0.187l0.109 0.078q0.344 0.156 0.68 0.594t0.492 0.797l0.156 0.359q0.203 0.594 0.688 0.961t1.047 0.469 1.086 0.109 0.867-0.055l0.359-0.063q0 0.594 0.008 1.383t0.008 0.852q0 0.281-0.203 0.469t-0.625 0.109q-3.625-1.203-5.914-4.336t-2.289-7.055q0-3.266 1.609-6.023t4.367-4.367 6.023-1.609zM4.547 19.234q0.047-0.109-0.109-0.187-0.156-0.047-0.203 0.031-0.047 0.109 0.109 0.187 0.141 0.094 0.203-0.031zM5.031 19.766q0.109-0.078-0.031-0.25-0.156-0.141-0.25-0.047-0.109 0.078 0.031 0.25 0.156 0.156 0.25 0.047zM5.5 20.469q0.141-0.109 0-0.297-0.125-0.203-0.266-0.094-0.141 0.078 0 0.281t0.266 0.109zM6.156 21.125q0.125-0.125-0.063-0.297-0.187-0.187-0.313-0.047-0.141 0.125 0.063 0.297 0.187 0.187 0.313 0.047zM7.047 21.516q0.047-0.172-0.203-0.25-0.234-0.063-0.297 0.109t0.203 0.234q0.234 0.094 0.297-0.094zM8.031 21.594q0-0.203-0.266-0.172-0.25 0-0.25 0.172 0 0.203 0.266 0.172 0.25 0 0.25-0.172zM8.937 21.438q-0.031-0.172-0.281-0.141-0.25 0.047-0.219 0.234t0.281 0.125 0.219-0.219z"></path>
</symbol>
<symbol id="icon-linkedin" viewBox="0 0 24 28">
<title>linkedin</title>
<path class="path1" d="M5.453 9.766v15.484h-5.156v-15.484h5.156zM5.781 4.984q0.016 1.141-0.789 1.906t-2.117 0.766h-0.031q-1.281 0-2.063-0.766t-0.781-1.906q0-1.156 0.805-1.914t2.102-0.758 2.078 0.758 0.797 1.914zM24 16.375v8.875h-5.141v-8.281q0-1.641-0.633-2.57t-1.977-0.93q-0.984 0-1.648 0.539t-0.992 1.336q-0.172 0.469-0.172 1.266v8.641h-5.141q0.031-6.234 0.031-10.109t-0.016-4.625l-0.016-0.75h5.141v2.25h-0.031q0.313-0.5 0.641-0.875t0.883-0.812 1.359-0.68 1.789-0.242q2.672 0 4.297 1.773t1.625 5.195z"></path>
</symbol>
<symbol id="icon-github-alt" viewBox="0 0 26 28">
<title>github-alt</title>
<path class="path1" d="M10 19q0 0.625-0.195 1.281t-0.672 1.188-1.133 0.531-1.133-0.531-0.672-1.188-0.195-1.281 0.195-1.281 0.672-1.188 1.133-0.531 1.133 0.531 0.672 1.188 0.195 1.281zM20 19q0 0.625-0.195 1.281t-0.672 1.188-1.133 0.531-1.133-0.531-0.672-1.188-0.195-1.281 0.195-1.281 0.672-1.188 1.133-0.531 1.133 0.531 0.672 1.188 0.195 1.281zM22.5 19q0-1.875-1.078-3.187t-2.922-1.313q-0.641 0-3.047 0.328-1.109 0.172-2.453 0.172t-2.453-0.172q-2.375-0.328-3.047-0.328-1.844 0-2.922 1.313t-1.078 3.187q0 1.375 0.5 2.398t1.266 1.609 1.906 0.938 2.188 0.461 2.328 0.109h2.625q1.281 0 2.328-0.109t2.188-0.461 1.906-0.938 1.266-1.609 0.5-2.398zM26 16.25q0 3.234-0.953 5.172-0.594 1.203-1.648 2.078t-2.203 1.344-2.656 0.742-2.68 0.344-2.609 0.070q-1.219 0-2.219-0.047t-2.305-0.195-2.383-0.469-2.141-0.805-1.891-1.266-1.344-1.797q-0.969-1.922-0.969-5.172 0-3.703 2.125-6.188-0.422-1.281-0.422-2.656 0-1.813 0.797-3.406 1.687 0 2.969 0.617t2.953 1.93q2.297-0.547 4.828-0.547 2.312 0 4.375 0.5 1.641-1.281 2.922-1.891t2.953-0.609q0.797 1.594 0.797 3.406 0 1.359-0.422 2.625 2.125 2.5 2.125 6.219z"></path>
</symbol>
</defs>
</svg>
