<?xml version="1.0" standalone="no"?>
<!DOCTYPE svg PUBLIC "-//W3C//DTD SVG 20010904//EN"
 "http://www.w3.org/TR/2001/REC-SVG-20010904/DTD/svg10.dtd">
<svg version="1.0" xmlns="http://www.w3.org/2000/svg"
 width="310.000000pt" height="310.000000pt" viewBox="0 0 310.000000 310.000000"
 preserveAspectRatio="xMidYMid meet">
<metadata>
Created by potrace 1.11, written by Peter Selinger 2001-2013
</metadata>
<g transform="translate(0.000000,310.000000) scale(0.100000,-0.100000)"
fill="#000000" stroke="none">
<path d="M1298 2875 c-2 -1 -43 -5 -93 -9 -502 -36 -959 -400 -1118 -891 -48
-148 -61 -233 -61 -400 0 -287 76 -525 243 -759 359 -506 1044 -683 1608 -415
163 78 391 256 394 308 1 11 2 27 2 34 4 67 -53 128 -121 129 -48 0 -73 -12
-139 -73 -261 -237 -638 -322 -982 -222 -380 110 -667 432 -737 828 -12 67
-11 274 2 348 44 248 178 472 377 632 252 202 574 274 891 201 128 -30 228
-77 370 -173 66 -45 86 -53 123 -53 39 0 51 5 84 39 33 32 39 45 39 80 0 56
-22 95 -72 129 -22 15 -59 40 -82 55 -162 110 -406 192 -606 203 -47 3 -93 7
-102 8 -9 2 -18 3 -20 1z"/>
<path d="M1247 2283 c-2 -1 -19 -5 -38 -7 -335 -48 -597 -352 -600 -696 -1
-121 22 -219 78 -330 39 -78 63 -111 133 -181 71 -71 101 -93 180 -131 179
-87 358 -103 533 -47 211 67 387 238 461 447 14 40 26 81 26 90 0 15 12 17 96
15 52 0 97 -3 98 -5 2 -1 50 -66 108 -143 118 -157 128 -168 181 -190 54 -22
498 -21 532 1 29 19 49 66 40 96 -4 13 -65 101 -136 196 -80 106 -127 177
-122 185 4 7 62 85 129 174 67 89 125 170 128 180 14 44 -28 111 -72 114 -9 1
-114 2 -232 3 -304 2 -290 9 -459 -215 l-102 -137 -459 0 c-395 -1 -463 -3
-489 -16 -93 -48 -91 -181 3 -225 37 -17 64 -19 269 -17 125 0 227 -1 227 -3
0 -2 -14 -32 -30 -67 -73 -152 -236 -255 -405 -256 -85 0 -141 14 -216 54
-241 127 -315 436 -160 662 83 120 234 196 381 191 80 -3 137 -18 214 -57 48
-24 68 -29 104 -25 90 10 138 106 94 187 -29 53 -180 127 -300 146 -39 7 -191
12 -195 7z"/>
</g>
</svg>
