<?xml version="1.0" encoding="utf-8"?>
<!-- Generator: Adobe Illustrator 18.0.0, SVG Export Plug-In . SVG Version: 6.00 Build 0)  -->
<!DOCTYPE svg PUBLIC "-//W3C//DTD SVG 1.1//EN" "http://www.w3.org/Graphics/SVG/1.1/DTD/svg11.dtd">
<svg version="1.1" id="Layer_1" xmlns="http://www.w3.org/2000/svg" xmlns:xlink="http://www.w3.org/1999/xlink" x="0px" y="0px"
	 viewBox="0 0 75 75" style="enable-background:new 0 0 75 75;" xml:space="preserve">
<g>
	<g>
		<path style="fill:#E4E4E4;" d="M54,60.6L41.1,33.1h-7.3L21,60.6c-0.4,0.8-0.1,1.8,0.6,2.4c1.9,1.5,6.3,4,15.9,4s14.1-2.5,15.9-4
			C54.2,62.4,54.4,61.4,54,60.6z"/>
		<ellipse style="fill:#FFFFFF;" cx="37.5" cy="61.7" rx="16.2" ry="4.8"/>
		<path style="fill:none;stroke:#081F3B;stroke-width:1.4;stroke-linejoin:round;stroke-miterlimit:10;" d="M33.9,33.1L21,60.6
			c-0.4,0.8-0.1,1.8,0.6,2.4c1.9,1.5,6.3,4,15.9,4s14.1-2.5,15.9-4c0.8-0.6,1-1.6,0.6-2.4L41.1,33.1"/>
		<rect x="19.2" y="30" style="fill:#FFF36E;" width="36.6" height="2.8"/>
		
			<line style="fill:none;stroke:#081F3B;stroke-width:1.4;stroke-linejoin:round;stroke-miterlimit:10;" x1="19.2" y1="33" x2="55.8" y2="33"/>
		<g>
			<path style="fill:#67CCE9;" d="M63.3,21.4H11.7c0,0,5.8-15,25.8-15S63.3,21.4,63.3,21.4z"/>
			<rect x="15.1" y="21.4" style="fill:#FFF36E;" width="44.9" height="3.3"/>
			<rect x="13.4" y="24.7" style="fill:#FFFFFF;" width="48.2" height="5"/>
			<path style="fill:none;stroke:#081F3B;stroke-width:1.4;stroke-linejoin:round;stroke-miterlimit:10;" d="M63.3,21.4H11.7
				c0,0,5.8-15,25.8-15S63.3,21.4,63.3,21.4z"/>
			
				<line style="fill:none;stroke:#081F3B;stroke-width:1.4;stroke-linejoin:round;stroke-miterlimit:10;" x1="10.9" y1="24.7" x2="64.1" y2="24.7"/>
			<polyline style="fill:none;stroke:#081F3B;stroke-width:1.4;stroke-linejoin:round;stroke-miterlimit:10;" points="61.6,24.7 
				61.6,29.7 13.4,29.7 13.4,24.7 			"/>
			
				<line style="fill:none;stroke:#081F3B;stroke-width:1.4;stroke-linejoin:round;stroke-miterlimit:10;" x1="15.1" y1="21.5" x2="15.1" y2="24.6"/>
			
				<line style="fill:none;stroke:#081F3B;stroke-width:1.4;stroke-linejoin:round;stroke-miterlimit:10;" x1="20" y1="21.5" x2="20" y2="24.6"/>
			
				<line style="fill:none;stroke:#081F3B;stroke-width:1.4;stroke-linejoin:round;stroke-miterlimit:10;" x1="25" y1="21.5" x2="25" y2="24.6"/>
			
				<line style="fill:none;stroke:#081F3B;stroke-width:1.4;stroke-linejoin:round;stroke-miterlimit:10;" x1="30" y1="21.5" x2="30" y2="24.6"/>
			
				<line style="fill:none;stroke:#081F3B;stroke-width:1.4;stroke-linejoin:round;stroke-miterlimit:10;" x1="35" y1="21.5" x2="35" y2="24.6"/>
			
				<line style="fill:none;stroke:#081F3B;stroke-width:1.4;stroke-linejoin:round;stroke-miterlimit:10;" x1="40" y1="21.5" x2="40" y2="24.6"/>
			
				<line style="fill:none;stroke:#081F3B;stroke-width:1.4;stroke-linejoin:round;stroke-miterlimit:10;" x1="45" y1="21.5" x2="45" y2="24.6"/>
			
				<line style="fill:none;stroke:#081F3B;stroke-width:1.4;stroke-linejoin:round;stroke-miterlimit:10;" x1="50" y1="21.5" x2="50" y2="24.6"/>
			
				<line style="fill:none;stroke:#081F3B;stroke-width:1.4;stroke-linejoin:round;stroke-miterlimit:10;" x1="55" y1="21.5" x2="55" y2="24.6"/>
			
				<line style="fill:none;stroke:#081F3B;stroke-width:1.4;stroke-linejoin:round;stroke-miterlimit:10;" x1="59.9" y1="21.5" x2="59.9" y2="24.6"/>
		</g>
	</g>
</g>
</svg>
