<?xml version="1.0" encoding="utf-8"?>
<!-- Generator: Adobe Illustrator 18.0.0, SVG Export Plug-In . SVG Version: 6.00 Build 0)  -->
<!DOCTYPE svg PUBLIC "-//W3C//DTD SVG 1.1//EN" "http://www.w3.org/Graphics/SVG/1.1/DTD/svg11.dtd">
<svg version="1.1" id="Layer_1" xmlns="http://www.w3.org/2000/svg" xmlns:xlink="http://www.w3.org/1999/xlink" x="0px" y="0px"
	 viewBox="0 0 75 75" style="enable-background:new 0 0 75 75;" xml:space="preserve">
<g>
	<g>
		<polygon style="fill:#E4E4E4;" points="63.1,24.8 46,41.9 29,31.5 11.9,48.5 11.9,11 63.1,11 		"/>
		<polygon style="fill:#67CCE9;" points="46,41.9 29,31.5 11.9,48.5 11.9,62.5 29,62.5 46,62.5 63.1,62.5 63.1,24.8 		"/>
		<polyline style="fill:none;stroke:#081F3B;stroke-width:1.4;stroke-linejoin:round;stroke-miterlimit:10;" points="63.1,24.8 
			63.1,62.5 11.9,62.5 11.9,48.5 		"/>
		<g>
			<g>
				
					<line style="fill:#FFFFFF;stroke:#081F3B;stroke-width:1.4;stroke-linejoin:round;stroke-miterlimit:10;" x1="46" y1="41.9" x2="63.1" y2="24.8"/>
				
					<line style="fill:#FFFFFF;stroke:#081F3B;stroke-width:1.4;stroke-linejoin:round;stroke-miterlimit:10;" x1="29" y1="31.5" x2="46" y2="41.9"/>
				
					<line style="fill:#FFFFFF;stroke:#081F3B;stroke-width:1.4;stroke-linejoin:round;stroke-miterlimit:10;" x1="11.9" y1="48.5" x2="29" y2="31.5"/>
			</g>
			<g>
				
					<circle style="fill:#FFFFFF;stroke:#081F3B;stroke-width:1.4;stroke-linejoin:round;stroke-miterlimit:10;" cx="11.9" cy="48.5" r="3.8"/>
			</g>
			<g>
				
					<circle style="fill:#FFFFFF;stroke:#081F3B;stroke-width:1.4;stroke-linejoin:round;stroke-miterlimit:10;" cx="29" cy="31.5" r="3.8"/>
			</g>
			<g>
				
					<circle style="fill:#FFFFFF;stroke:#081F3B;stroke-width:1.4;stroke-linejoin:round;stroke-miterlimit:10;" cx="46" cy="41.9" r="3.8"/>
			</g>
			<g>
				<circle style="fill:#FFF36E;" cx="63.1" cy="24.8" r="3.8"/>
				
					<circle style="fill:none;stroke:#081F3B;stroke-width:1.4;stroke-linejoin:round;stroke-miterlimit:10;" cx="63.1" cy="24.8" r="3.8"/>
			</g>
		</g>
		<g>
			
				<line style="fill:#FFFFFF;stroke:#081F3B;stroke-width:1.4;stroke-linejoin:round;stroke-miterlimit:10;" x1="21.2" y1="18.7" x2="23.1" y2="18.7"/>
			
				<line style="fill:#FFFFFF;stroke:#081F3B;stroke-width:1.4;stroke-linejoin:round;stroke-miterlimit:10;" x1="17.4" y1="18.7" x2="19.3" y2="18.7"/>
			
				<line style="fill:#FFFFFF;stroke:#081F3B;stroke-width:1.4;stroke-linejoin:round;stroke-miterlimit:10;" x1="25" y1="18.7" x2="26.9" y2="18.7"/>
		</g>
	</g>
</g>
</svg>
