<?xml version="1.0" encoding="utf-8"?>
<!-- Generator: Adobe Illustrator 18.0.0, SVG Export Plug-In . SVG Version: 6.00 Build 0)  -->
<!DOCTYPE svg PUBLIC "-//W3C//DTD SVG 1.1//EN" "http://www.w3.org/Graphics/SVG/1.1/DTD/svg11.dtd">
<svg version="1.1" id="Layer_1" xmlns="http://www.w3.org/2000/svg" xmlns:xlink="http://www.w3.org/1999/xlink" x="0px" y="0px"
	 viewBox="0 0 75 75" style="enable-background:new 0 0 75 75;" xml:space="preserve">
<g>
	<g>
		<g>
			<path style="fill:#E4E4E4;" d="M45.4,60.6L32.5,33.1h-7.3L12.3,60.6c-0.4,0.8-0.1,1.8,0.6,2.4c1.9,1.5,6.3,4,15.9,4
				s14.1-2.5,15.9-4C45.5,62.4,45.8,61.4,45.4,60.6z"/>
		</g>
		<g>
			<ellipse style="fill:#FFFFFF;" cx="28.9" cy="61.7" rx="16.2" ry="4.8"/>
		</g>
		<g>
			<path style="fill:#081F3B;" d="M28.9,67.7c-9.9,0-14.5-2.6-16.4-4.2c-1-0.8-1.3-2.1-0.8-3.3l12.9-27.5l1.3,0.6L13,60.9
				c-0.2,0.5-0.1,1.2,0.4,1.6c1.7,1.4,6,3.8,15.5,3.8c9.4,0,13.7-2.4,15.5-3.8c0.5-0.4,0.7-1.1,0.4-1.6L31.8,33.4l1.3-0.6L46,60.3
				c0.5,1.1,0.2,2.5-0.8,3.3C43.3,65.1,38.7,67.7,28.9,67.7z"/>
		</g>
		<g>
			<rect x="10.6" y="30" style="fill:#FFF36E;" width="36.6" height="2.8"/>
		</g>
		<g>
			<rect x="10.6" y="32.3" style="fill:#081F3B;" width="36.6" height="1.4"/>
		</g>
		<g>
			<g>
				<path style="fill:#67CCE9;" d="M54.6,21.4H3.1c0,0,5.8-15,25.8-15S54.6,21.4,54.6,21.4z"/>
			</g>
			<g>
				<rect x="6.4" y="21.4" style="fill:#FFF36E;" width="44.9" height="3.3"/>
			</g>
			<g>
				<rect x="4.7" y="24.7" style="fill:#FFFFFF;" width="48.2" height="5"/>
			</g>
			<g>
				<path style="fill:#081F3B;" d="M54.6,22.1H3.1c-0.2,0-0.4-0.1-0.6-0.3c-0.1-0.2-0.2-0.4-0.1-0.6C2.5,21,4,17.2,8,13.4
					c3.7-3.5,10.3-7.7,20.9-7.7S46,9.9,49.7,13.4c4,3.8,5.5,7.6,5.6,7.7c0.1,0.2,0.1,0.5-0.1,0.6C55.1,22,54.9,22.1,54.6,22.1z
					 M4.2,20.7h49.3c-1.7-3.2-8.4-13.6-24.7-13.6c-10,0-16.3,3.9-19.8,7.2C6.4,16.8,4.9,19.3,4.2,20.7z"/>
			</g>
			<g>
				<rect x="2.2" y="24" style="fill:#081F3B;" width="53.2" height="1.4"/>
			</g>
			<g>
				<path style="fill:#081F3B;" d="M53,30.4H4.7c-0.4,0-0.7-0.3-0.7-0.7v-5h1.4V29h46.8v-4.3h1.4v5C53.7,30.1,53.4,30.4,53,30.4z"/>
			</g>
			<g>
				<rect x="5.7" y="21.5" style="fill:#081F3B;" width="1.4" height="3.2"/>
			</g>
			<g>
				<rect x="10.7" y="21.5" style="fill:#081F3B;" width="1.4" height="3.2"/>
			</g>
			<g>
				<rect x="15.7" y="21.5" style="fill:#081F3B;" width="1.4" height="3.2"/>
			</g>
			<g>
				<rect x="20.7" y="21.5" style="fill:#081F3B;" width="1.4" height="3.2"/>
			</g>
			<g>
				<rect x="25.7" y="21.5" style="fill:#081F3B;" width="1.4" height="3.2"/>
			</g>
			<g>
				<rect x="30.6" y="21.5" style="fill:#081F3B;" width="1.4" height="3.2"/>
			</g>
			<g>
				<rect x="35.6" y="21.5" style="fill:#081F3B;" width="1.4" height="3.2"/>
			</g>
			<g>
				<rect x="40.6" y="21.5" style="fill:#081F3B;" width="1.4" height="3.2"/>
			</g>
			<g>
				<rect x="45.6" y="21.5" style="fill:#081F3B;" width="1.4" height="3.2"/>
			</g>
			<g>
				<rect x="50.6" y="21.5" style="fill:#081F3B;" width="1.4" height="3.2"/>
			</g>
		</g>
	</g>
</g>
</svg>
