<?xml version="1.0" encoding="utf-8"?>
<!-- Generator: Adobe Illustrator 18.0.0, SVG Export Plug-In . SVG Version: 6.00 Build 0)  -->
<!DOCTYPE svg PUBLIC "-//W3C//DTD SVG 1.1//EN" "http://www.w3.org/Graphics/SVG/1.1/DTD/svg11.dtd">
<svg version="1.1" id="Layer_1" xmlns="http://www.w3.org/2000/svg" xmlns:xlink="http://www.w3.org/1999/xlink" x="0px" y="0px"
	 viewBox="0 0 75 75" style="enable-background:new 0 0 75 75;" xml:space="preserve">
<g>
	<g>
		<g>
			<path style="fill:none;stroke:#081F3B;stroke-width:1.4;stroke-miterlimit:10;" d="M39.1,24.4h1.1c2.9,0,5.3,2.4,5.3,5.3
				s-2.4,5.3-5.3,5.3h-6.4c-2.9,0-5.3,2.4-5.3,5.3v1.1"/>
		</g>
		<path style="fill:#FFF36E;stroke:#081F3B;stroke-width:1.4;stroke-miterlimit:10;" d="M58.8,17c0,0-0.7,7.1-3.2,9.6
			c-2.5,2.5-9.6,3.2-9.6,3.2s0.7-7.1,3.2-9.6C51.7,17.7,58.8,17,58.8,17z"/>
		<polyline style="fill:#67CCE9;stroke:#081F3B;stroke-width:1.4252;stroke-linejoin:round;stroke-miterlimit:10;" points="53,47.9 
			48.7,68.2 27.3,68.2 23,47.9 		"/>
		<path style="fill:#E4E4E4;stroke:#081F3B;stroke-width:1.4;stroke-miterlimit:10;" d="M34.8,41.5V7.3c0-1.2,1-2.1,2.1-2.1
			c1.2,0,2.1,1,2.1,2.1v34.1"/>
		<path style="fill:none;stroke:#081F3B;stroke-width:1.4;stroke-miterlimit:10;" d="M55.1,41.5c1.8,0,3.2,1.4,3.2,3.2
			c0,1.8-1.4,3.2-3.2,3.2H20.9c-1.8,0-3.2-1.4-3.2-3.2c0-1.8,1.4-3.2,3.2-3.2H55.1z"/>
		<path style="fill:none;stroke:#081F3B;stroke-width:1.4;stroke-miterlimit:10;" d="M44.9,8.5c0,2.9-2.4,5.3-5.3,5.3"/>
		<g>
			<path style="fill:none;stroke:#081F3B;stroke-width:1.4;stroke-miterlimit:10;" d="M39.1,24.4h-5.3c-2.9,0-5.3-2.4-5.3-5.3
				c0-2.9,2.4-5.3,5.3-5.3v0h1.1"/>
		</g>
		<path style="fill:#FFF36E;stroke:#081F3B;stroke-width:1.4;stroke-miterlimit:10;" d="M27.4,19.1c0,0-5.1-0.6-7.6-3.1
			c-2.5-2.5-3.1-7.6-3.1-7.6s5.1,0.6,7.6,3.1C26.8,14,27.4,19.1,27.4,19.1z"/>
		<line style="fill:none;stroke:#081F3B;stroke-width:1.4;stroke-miterlimit:10;" x1="24.1" y1="54.3" x2="35.9" y2="54.3"/>
		<line style="fill:none;stroke:#081F3B;stroke-width:1.4;stroke-miterlimit:10;" x1="25.2" y1="58.5" x2="31.6" y2="58.5"/>
		<line style="fill:none;stroke:#081F3B;stroke-width:1.4;stroke-miterlimit:10;" x1="35.9" y1="44.7" x2="38" y2="44.7"/>
		<line style="fill:none;stroke:#081F3B;stroke-width:1.4;stroke-miterlimit:10;" x1="40.1" y1="44.7" x2="42.3" y2="44.7"/>
		<line style="fill:none;stroke:#081F3B;stroke-width:1.4;stroke-miterlimit:10;" x1="31.6" y1="44.7" x2="33.7" y2="44.7"/>
	</g>
</g>
</svg>
