<?xml version="1.0" encoding="utf-8"?>
<!-- Generator: Adobe Illustrator 18.0.0, SVG Export Plug-In . SVG Version: 6.00 Build 0)  -->
<!DOCTYPE svg PUBLIC "-//W3C//DTD SVG 1.1//EN" "http://www.w3.org/Graphics/SVG/1.1/DTD/svg11.dtd">
<svg version="1.1" id="Layer_1" xmlns="http://www.w3.org/2000/svg" xmlns:xlink="http://www.w3.org/1999/xlink" x="0px" y="0px"
	 viewBox="0 0 75 75" style="enable-background:new 0 0 75 75;" xml:space="preserve">
<g>
	<g>
		<polyline style="fill:#E4E4E4;" points="28.1,26.5 25,26.5 9.4,42.2 9.4,51.5 28.1,51.5 		"/>
		<polyline style="fill:#E4E4E4;" points="46.9,26.5 50,26.5 65.6,42.2 65.6,51.5 46.9,51.5 		"/>
		<path style="fill:#67CCE9;" d="M28.1,24.5c0-9.4,9.4-18.8,9.4-18.8s9.4,9.4,9.4,18.8v27.1H28.1V24.5z"/>
		<path style="fill:none;stroke:#081F3B;stroke-width:1.4;stroke-miterlimit:10;" d="M28.1,24.5c0-9.4,9.4-18.8,9.4-18.8
			s9.4,9.4,9.4,18.8v27.1H28.1V24.5z"/>
		
			<circle style="fill:#FFFFFF;stroke:#081F3B;stroke-width:1.4252;stroke-linejoin:round;stroke-miterlimit:10;" cx="37.5" cy="29.7" r="3.1"/>
		
			<circle style="fill:#FFF36E;stroke:#081F3B;stroke-width:1.4252;stroke-linejoin:round;stroke-miterlimit:10;" cx="37.5" cy="19.2" r="3.1"/>
		
			<circle style="fill:#FFFFFF;stroke:#081F3B;stroke-width:1.4252;stroke-linejoin:round;stroke-miterlimit:10;" cx="37.5" cy="40.1" r="3.1"/>
		<g>
			<path style="fill:#FFFFFF;stroke:#081F3B;stroke-width:0.4321;stroke-miterlimit:10;" d="M28.1,46.3c-2.9,0-5.2,2.3-5.2,5.2v7.3
				h10.4v-7.3C33.3,48.7,31,46.3,28.1,46.3z"/>
			<path style="fill:#FFFFFF;stroke:#081F3B;stroke-width:1.4;stroke-miterlimit:10;" d="M28.1,46.3c-2.9,0-5.2,2.3-5.2,5.2v7.3
				h10.4v-7.3C33.3,48.7,31,46.3,28.1,46.3z"/>
		</g>
		<g>
			<path style="fill:#FFFFFF;stroke:#081F3B;stroke-width:0.4321;stroke-miterlimit:10;" d="M46.9,46.3c-2.9,0-5.2,2.3-5.2,5.2v7.3
				h10.4v-7.3C52.1,48.7,49.8,46.3,46.9,46.3z"/>
			<path style="fill:#FFFFFF;stroke:#081F3B;stroke-width:1.4;stroke-miterlimit:10;" d="M46.9,46.3c-2.9,0-5.2,2.3-5.2,5.2v7.3
				h10.4v-7.3C52.1,48.7,49.8,46.3,46.9,46.3z"/>
		</g>
		<polyline style="fill:none;stroke:#081F3B;stroke-width:1.4;stroke-miterlimit:10;" points="46.9,26.5 50,26.5 65.6,42.2 
			65.6,51.5 52.1,51.5 		"/>
		<polyline style="fill:none;stroke:#081F3B;stroke-width:1.4;stroke-miterlimit:10;" points="28.1,26.5 25,26.5 9.4,42.2 9.4,51.5 
			22.9,51.5 		"/>
		<line style="fill:none;stroke:#081F3B;stroke-width:1.4;stroke-miterlimit:10;" x1="26" y1="62" x2="26" y2="67.7"/>
		<line style="fill:none;stroke:#081F3B;stroke-width:1.4;stroke-miterlimit:10;" x1="30.2" y1="62" x2="30.2" y2="67.7"/>
		<line style="fill:none;stroke:#081F3B;stroke-width:1.4;stroke-miterlimit:10;" x1="44.8" y1="62" x2="44.8" y2="67.7"/>
		<line style="fill:none;stroke:#081F3B;stroke-width:1.4;stroke-miterlimit:10;" x1="49" y1="62" x2="49" y2="67.7"/>
		<line style="fill:none;stroke:#081F3B;stroke-width:1.4;stroke-miterlimit:10;" x1="46.9" y1="58.8" x2="46.9" y2="55.7"/>
		<line style="fill:none;stroke:#081F3B;stroke-width:1.4;stroke-miterlimit:10;" x1="28.1" y1="58.8" x2="28.1" y2="55.7"/>
		<line style="fill:none;stroke:#081F3B;stroke-width:1.4;stroke-miterlimit:10;" x1="37.5" y1="10.9" x2="37.5" y2="13"/>
		<line style="fill:none;stroke:#081F3B;stroke-width:1.4;stroke-miterlimit:10;" x1="37.5" y1="46.3" x2="37.5" y2="48.4"/>
	</g>
</g>
</svg>
