<?xml version="1.0" encoding="utf-8"?>
<!-- Generator: Adobe Illustrator 18.0.0, SVG Export Plug-In . SVG Version: 6.00 Build 0)  -->
<!DOCTYPE svg PUBLIC "-//W3C//DTD SVG 1.1//EN" "http://www.w3.org/Graphics/SVG/1.1/DTD/svg11.dtd">
<svg version="1.1" id="Layer_1" xmlns="http://www.w3.org/2000/svg" xmlns:xlink="http://www.w3.org/1999/xlink" x="0px" y="0px"
	 viewBox="0 0 75 75" style="enable-background:new 0 0 75 75;" xml:space="preserve">
<g>
	<g>
		<path style="fill:#E4E4E4;" d="M56.1,30.8c0-0.2-0.1-0.3-0.3-0.3l-6.4-0.8c-0.3,0-0.6-0.3-0.6-0.6c-0.4-1.5-1-2.9-1.8-4.3
			c-0.2-0.3-0.1-0.6,0.1-0.9l3.9-5.1c0.1-0.1,0.1-0.3,0-0.4c-1.5-2-3.2-3.7-5.2-5.2c-0.2-0.1-0.3-0.1-0.4,0l-5.1,3.9
			c-0.2,0.2-0.6,0.2-0.9,0.1c-1.4-0.8-2.8-1.4-4.3-1.8c-0.3-0.1-0.5-0.3-0.6-0.6l-0.8-6.4c0-0.2-0.1-0.3-0.3-0.3
			c-2.5-0.3-4.9-0.3-7.4,0c-0.2,0-0.3,0.1-0.3,0.3l-0.8,6.4c0,0.3-0.3,0.6-0.6,0.6c-1.5,0.4-3,1-4.3,1.8c-0.3,0.2-0.6,0.1-0.9-0.1
			L14,13.2c-0.2-0.1-0.3-0.1-0.4,0c-0.9,0.7-1.8,1.4-2.6,2.2l-0.4,0.4c-0.8,0.8-1.5,1.7-2.2,2.6c-0.1,0.1-0.1,0.3,0,0.4l3.9,5.1
			c0.2,0.2,0.2,0.6,0.1,0.9c-0.8,1.4-1.4,2.8-1.8,4.3c-0.1,0.3-0.3,0.5-0.6,0.6l-6.4,0.8c-0.2,0-0.3,0.1-0.3,0.3
			C3.1,31.9,3,33,3,34.1v0.8c0,1.1,0.1,2.2,0.2,3.3c0,0.2,0.1,0.3,0.3,0.3l6.4,0.8c0.3,0,0.6,0.3,0.6,0.6c0.4,1.5,1,3,1.8,4.3
			c0.2,0.3,0.1,0.6-0.1,0.9l-3.9,5.1c-0.1,0.1-0.1,0.3,0,0.4c0.7,0.9,1.4,1.8,2.2,2.6l0.4,0.4c0.8,0.8,1.7,1.5,2.6,2.2
			c0.2,0.1,0.3,0.1,0.4,0l5.1-3.9c0.1-0.1,0.3-0.2,0.5-0.2c0.1,0,0.3,0,0.4,0.1c1.4,0.8,2.8,1.4,4.3,1.8c0.3,0.1,0.5,0.3,0.6,0.6
			l0.8,6.4c0,0.2,0.1,0.3,0.3,0.3c2.5,0.3,4.9,0.3,7.4,0c0.2,0,0.3-0.1,0.3-0.3l0.8-6.4c0-0.3,0.3-0.6,0.6-0.6
			c1.5-0.4,2.9-1.1,4.3-1.8c2.7-1.4,6.1-4.7,7.6-7.6c0.7-1.4,1.4-2.8,1.8-4.3c0.1-0.3,0.3-0.5,0.6-0.6l6.4-0.8
			c0.2,0,0.3-0.1,0.3-0.3c0.2-1.3,0.3-2.5,0.3-3.7C56.3,33.3,56.3,32,56.1,30.8z"/>
		<path style="fill:#081F3B;" d="M29.6,61.9L29.6,61.9c-1.3,0-2.5-0.1-3.8-0.3c-0.5-0.1-0.8-0.4-0.9-0.9l-0.8-6.4
			c-1.6-0.5-3.1-1.1-4.5-1.9l-5.2,3.9c-0.4,0.3-0.9,0.3-1.3,0c-0.9-0.7-1.8-1.5-2.6-2.3l-0.4-0.4c-0.8-0.8-1.6-1.7-2.3-2.7
			c-0.3-0.4-0.3-0.9,0-1.3l3.9-5.1c-0.8-1.5-1.4-3-1.9-4.6l-6.4-0.9c-0.5-0.1-0.8-0.4-0.9-0.9c-0.2-1.1-0.2-2.3-0.3-3.4v-0.8
			c0-1.1,0.1-2.3,0.3-3.4c0.1-0.5,0.4-0.8,0.9-0.9L9.8,29c0.5-1.6,1.1-3.1,1.9-4.5l-3.9-5.2c-0.3-0.4-0.3-0.9,0-1.3
			c0.7-0.9,1.5-1.8,2.3-2.6l0.4-0.4c0.8-0.8,1.7-1.6,2.7-2.3c0.4-0.3,0.9-0.3,1.3,0l5.1,3.9c1.5-0.8,3-1.4,4.6-1.8L25,8.2
			c0.1-0.5,0.4-0.8,0.9-0.9c2.6-0.4,5-0.4,7.6,0c0.5,0.1,0.8,0.4,0.9,0.9l0.8,6.4c1.6,0.5,3.1,1.1,4.5,1.9l5.2-3.9
			c0.4-0.3,0.9-0.3,1.3,0c2,1.5,3.8,3.3,5.4,5.4c0.3,0.4,0.3,0.9,0,1.3l-3.9,5.1c0.8,1.5,1.4,3,1.8,4.5l6.4,0.9
			c0.5,0.1,0.8,0.4,0.9,0.9C57,32,57,33.2,57,34.5S57,37,56.8,38.2c-0.1,0.5-0.4,0.8-0.9,0.9L49.5,40c-0.5,1.4-1,2.8-1.9,4.5
			c-1.5,3-5,6.4-7.9,7.9c-1.3,0.6-2.8,1.4-4.4,1.8l-0.9,6.4c-0.1,0.5-0.4,0.8-0.9,0.9C32.1,61.8,30.9,61.9,29.6,61.9z M26.3,60.2
			c1.1,0.1,2.2,0.2,3.3,0.2l0,0c1.1,0,2.2-0.1,3.3-0.2l0.8-6.1c0.1-0.6,0.5-1.1,1.1-1.2c1.5-0.4,3-1.1,4.2-1.7
			c2.7-1.4,5.9-4.6,7.3-7.3c0.8-1.6,1.4-2.9,1.7-4.2c0.2-0.6,0.6-1,1.2-1.1l6.1-0.8c0.1-1.1,0.2-2.3,0.2-3.3c0-1.1-0.1-2.2-0.2-3.3
			l-6.1-0.8c-0.6-0.1-1.1-0.5-1.2-1.1c-0.4-1.4-1-2.8-1.7-4.2c-0.3-0.5-0.2-1.2,0.1-1.6l3.8-4.9c-1.4-1.8-2.9-3.3-4.7-4.7l-4.9,3.8
			C40.2,18,39.5,18,39,17.8c-1.3-0.7-2.7-1.3-4.2-1.7c-0.6-0.2-1-0.6-1.1-1.2L33,8.7c-2.3-0.3-4.4-0.3-6.7,0l-0.8,6.1
			c-0.1,0.6-0.5,1.1-1.1,1.2c-1.5,0.4-2.9,1-4.2,1.7c-0.5,0.3-1.2,0.2-1.6-0.1l-4.9-3.8c-0.8,0.6-1.6,1.3-2.3,2l-0.4,0.4
			c-0.7,0.7-1.4,1.5-2,2.3l3.8,4.9c0.4,0.5,0.4,1.1,0.1,1.6c-0.7,1.3-1.3,2.7-1.7,4.2c-0.2,0.6-0.6,1-1.2,1.1l-6.1,0.8
			c-0.1,1-0.2,2-0.2,3v0.8c0,1,0.1,1.9,0.2,2.9l6.1,0.8c0.6,0.1,1.1,0.5,1.2,1.1c0.4,1.5,1,2.9,1.7,4.2c0.3,0.5,0.2,1.2-0.1,1.6
			l-3.8,4.9c0.6,0.8,1.3,1.6,2,2.3l0.4,0.4c0.7,0.7,1.5,1.4,2.3,2l4.9-3.8c0.5-0.4,1.1-0.4,1.6-0.1c1.3,0.7,2.7,1.3,4.2,1.7
			c0.6,0.2,1,0.6,1.1,1.2L26.3,60.2z"/>
	</g>
	<g>
		<g>
			<path style="fill:#67CCE9;" d="M43.1,41.9L58,56.8c1.6,1.6,1.6,4.3,0,6s-4.3,1.6-6,0L37.1,47.9"/>
		</g>
		<g>
			<circle style="fill:#FFF36E;" cx="29.7" cy="34.5" r="15.8"/>
		</g>
		<g>
			<circle style="fill:#FFFFFF;" cx="29.7" cy="34.5" r="10.5"/>
		</g>
		<g>
			<path style="fill:#081F3B;" d="M29.7,51c-4.4,0-8.5-1.7-11.7-4.8c-6.4-6.4-6.4-16.9,0-23.3c3.1-3.1,7.3-4.8,11.7-4.8
				c4.4,0,8.5,1.7,11.7,4.8c6.4,6.4,6.4,16.9,0,23.3C38.2,49.2,34.1,51,29.7,51z M29.7,19.4c-4,0-7.8,1.6-10.7,4.4
				c-5.9,5.9-5.9,15.5,0,21.4c2.9,2.9,6.6,4.4,10.7,4.4c4,0,7.8-1.6,10.7-4.4c5.9-5.9,5.9-15.5,0-21.4
				C37.5,20.9,33.7,19.4,29.7,19.4z"/>
		</g>
		<g>
			<path style="fill:#081F3B;" d="M29.7,45.7c-3,0-5.8-1.2-7.9-3.3c-4.4-4.4-4.4-11.5,0-15.9c2.1-2.1,4.9-3.3,7.9-3.3
				s5.8,1.2,7.9,3.3c4.4,4.4,4.4,11.5,0,15.9C35.5,44.5,32.7,45.7,29.7,45.7z M29.7,24.6c-2.6,0-5.1,1-7,2.9
				c-3.8,3.8-3.8,10.1,0,13.9c1.9,1.9,4.3,2.9,7,2.9c2.6,0,5.1-1,7-2.9c3.8-3.8,3.8-10.1,0-13.9C34.7,25.7,32.3,24.6,29.7,24.6z"/>
		</g>
		<g>
			<path style="fill:#081F3B;" d="M25.4,38.7c-2.3-2.3-2.3-6.1,0-8.4l1,1c-1.8,1.8-1.8,4.7,0,6.5L25.4,38.7z"/>
		</g>
		<g>
			<path style="fill:#081F3B;" d="M55,64.7c-1.3,0-2.5-0.5-3.5-1.4L36.6,48.4l1-1l14.9,14.9c1.4,1.4,3.6,1.4,5,0
				c1.4-1.4,1.4-3.6,0-5L42.6,42.4l1-1l14.9,14.9c1.9,1.9,1.9,5,0,6.9C57.5,64.2,56.2,64.7,55,64.7z"/>
		</g>
		<g>
			
				<rect x="46.5" y="51.6" transform="matrix(0.7071 0.7071 -0.7071 0.7071 50.929 -18.2774)" style="fill:#081F3B;" width="2.1" height="1.4"/>
		</g>
		<g>
			
				<rect x="49.5" y="54.6" transform="matrix(0.707 0.7072 -0.7072 0.707 53.9202 -19.5112)" style="fill:#081F3B;" width="2.1" height="1.4"/>
		</g>
		<g>
			
				<rect x="52.4" y="57.6" transform="matrix(0.7071 0.7071 -0.7071 0.7071 56.8866 -20.7454)" style="fill:#081F3B;" width="2.1" height="1.4"/>
		</g>
	</g>
</g>
</svg>
