<?xml version="1.0" encoding="utf-8"?>
<!-- Generator: Adobe Illustrator 18.0.0, SVG Export Plug-In . SVG Version: 6.00 Build 0)  -->
<!DOCTYPE svg PUBLIC "-//W3C//DTD SVG 1.1//EN" "http://www.w3.org/Graphics/SVG/1.1/DTD/svg11.dtd">
<svg version="1.1" id="Layer_1" xmlns="http://www.w3.org/2000/svg" xmlns:xlink="http://www.w3.org/1999/xlink" x="0px" y="0px"
	 viewBox="0 0 75 75" style="enable-background:new 0 0 75 75;" xml:space="preserve">
<g>
	<g>
		<g>
			<path style="fill:#67CCE9;stroke:#081F3B;stroke-width:1.4;stroke-linejoin:round;stroke-miterlimit:10;" d="M61.7,17.9H13.3
				c-1.7,0-3.1,1.4-3.1,3.1v34.4h19.7l1.7,3.4h11.8l1.4-3.4h20V21C64.8,19.3,63.4,17.9,61.7,17.9z"/>
			<polygon style="fill:#E4E4E4;stroke:#081F3B;stroke-width:1.4;stroke-miterlimit:10;" points="65.6,61.5 9.4,61.5 5.2,57.4 
				5.2,55.3 30.2,55.3 32.3,57.4 42.7,57.4 44.8,55.3 69.8,55.3 69.8,57.4 			"/>
		</g>
		<g>
			<path style="fill:#FFFFFF;stroke:#081F3B;stroke-width:1.4;stroke-linejoin:round;stroke-miterlimit:10;" d="M50.8,33.8
				c0-0.1-0.1-0.1-0.2-0.2l-3.2-0.4c-0.2,0-0.3-0.1-0.3-0.3c-0.2-0.8-0.5-1.5-0.9-2.2c-0.1-0.1-0.1-0.3,0-0.4l2-2.6
				c0-0.1,0-0.2,0-0.2c-0.7-1-1.6-1.9-2.6-2.6c-0.1-0.1-0.1-0.1-0.2,0l-2.6,2c-0.1,0.1-0.3,0.1-0.4,0c-0.7-0.4-1.4-0.7-2.2-0.9
				c-0.2,0-0.3-0.2-0.3-0.3l-0.4-3.2c0-0.1-0.1-0.1-0.2-0.2c-1.3-0.2-2.4-0.2-3.7,0c-0.1,0-0.1,0.1-0.2,0.2l-0.4,3.2
				c0,0.2-0.1,0.3-0.3,0.3c-0.8,0.2-1.5,0.5-2.2,0.9c-0.1,0.1-0.3,0.1-0.4,0l-2.6-2c-0.1-0.1-0.1-0.1-0.2,0
				c-0.5,0.3-0.9,0.7-1.3,1.1l-0.2,0.2c-0.4,0.4-0.8,0.8-1.1,1.3c0,0.1,0,0.2,0,0.2l2,2.6c0.1,0.1,0.1,0.3,0,0.4
				c-0.4,0.7-0.7,1.4-0.9,2.2c0,0.2-0.2,0.3-0.3,0.3l-3.2,0.4c-0.1,0-0.1,0.1-0.2,0.2c-0.1,0.5-0.1,1.1-0.1,1.7v0.4
				c0,0.5,0.1,1.1,0.1,1.6c0,0.1,0.1,0.1,0.2,0.2l3.2,0.4c0.2,0,0.3,0.1,0.3,0.3c0.2,0.8,0.5,1.5,0.9,2.2c0.1,0.1,0.1,0.3,0,0.4
				l-2,2.6c0,0.1,0,0.1,0,0.2c0.3,0.4,0.7,0.9,1.1,1.3l0.2,0.2c0.4,0.4,0.8,0.8,1.3,1.1c0.1,0.1,0.1,0.1,0.2,0l2.6-2
				c0.1-0.1,0.2-0.1,0.2-0.1c0.1,0,0.1,0,0.2,0c0.7,0.4,1.4,0.7,2.2,0.9c0.2,0,0.3,0.2,0.3,0.3l0.4,3.2c0,0.1,0.1,0.1,0.2,0.2
				c1.3,0.2,2.5,0.2,3.7,0c0.1,0,0.1-0.1,0.2-0.2l0.4-3.2c0-0.2,0.1-0.3,0.3-0.3c0.8-0.2,1.5-0.5,2.2-0.9c0.1-0.1,0.3-0.1,0.4,0
				l2.6,2c0.1,0.1,0.1,0.1,0.2,0c1-0.7,1.9-1.6,2.6-2.6c0-0.1,0-0.2,0-0.2l-2-2.6c-0.1-0.1-0.1-0.3,0-0.4c0.4-0.7,0.7-1.4,0.9-2.2
				c0-0.2,0.2-0.3,0.3-0.3l3.2-0.4c0.1,0,0.1-0.1,0.2-0.2c0.1-0.6,0.1-1.3,0.1-1.9C50.9,35,50.9,34.4,50.8,33.8z M37.5,40.2
				c-2.5,0-4.6-2-4.6-4.6c0-2.5,2-4.6,4.6-4.6c2.5,0,4.6,2,4.6,4.6C42,38.1,40,40.2,37.5,40.2z"/>
			<path style="fill:#FFF36E;" d="M37.5,28c-4.2,0-7.7,3.4-7.7,7.7c0,4.2,3.4,7.7,7.7,7.7c4.2,0,7.7-3.4,7.7-7.7
				C45.2,31.4,41.8,28,37.5,28z M37.5,40.2c-2.5,0-4.6-2-4.6-4.6c0-2.5,2-4.6,4.6-4.6c2.5,0,4.6,2,4.6,4.6
				C42,38.1,40,40.2,37.5,40.2z"/>
			<path style="fill:none;stroke:#081F3B;stroke-width:1.4;stroke-linejoin:round;stroke-miterlimit:10;" d="M37.5,40.2
				c-2.5,0-4.6-2-4.6-4.6c0-2.5,2-4.6,4.6-4.6c2.5,0,4.6,2,4.6,4.6C42,38.1,40,40.2,37.5,40.2z"/>
		</g>
		<g>
			<path style="fill:#FFFFFF;stroke:#081F3B;stroke-width:1.4;stroke-linejoin:round;stroke-miterlimit:10;" d="M69.6,21
				c0-0.1-0.1-0.1-0.1-0.1L67,20.5c-0.1,0-0.2-0.1-0.3-0.2c-0.2-0.6-0.4-1.2-0.7-1.7c-0.1-0.1-0.1-0.2,0-0.3l1.6-2c0,0,0-0.1,0-0.2
				c-0.6-0.8-1.3-1.5-2.1-2.1c-0.1,0-0.1,0-0.2,0l-2,1.5c-0.1,0.1-0.2,0.1-0.3,0c-0.5-0.3-1.1-0.5-1.7-0.7c-0.1,0-0.2-0.1-0.2-0.3
				l-0.3-2.5c0-0.1-0.1-0.1-0.1-0.1c-1-0.1-1.9-0.1-2.9,0c-0.1,0-0.1,0.1-0.1,0.1l-0.3,2.5c0,0.1-0.1,0.2-0.2,0.3
				c-0.6,0.2-1.2,0.4-1.7,0.7c-0.1,0.1-0.2,0.1-0.3,0L53,14c-0.1,0-0.1,0-0.2,0c-0.4,0.3-0.7,0.6-1,0.9l-0.2,0.2
				c-0.3,0.3-0.6,0.7-0.9,1c0,0,0,0.1,0,0.2l1.6,2c0.1,0.1,0.1,0.2,0,0.3c-0.3,0.5-0.5,1.1-0.7,1.7c0,0.1-0.1,0.2-0.3,0.2l-2.5,0.3
				c-0.1,0-0.1,0.1-0.1,0.1c-0.1,0.4-0.1,0.9-0.1,1.3v0.3c0,0.4,0,0.9,0.1,1.3c0,0.1,0.1,0.1,0.1,0.1l2.5,0.3c0.1,0,0.2,0.1,0.3,0.2
				c0.2,0.6,0.4,1.2,0.7,1.7c0.1,0.1,0.1,0.2,0,0.3l-1.5,2c0,0,0,0.1,0,0.2c0.3,0.4,0.6,0.7,0.9,1l0.2,0.2c0.3,0.3,0.7,0.6,1,0.9
				c0.1,0,0.1,0,0.2,0l2-1.5c0.1,0,0.1-0.1,0.2-0.1c0.1,0,0.1,0,0.2,0c0.5,0.3,1.1,0.5,1.7,0.7c0.1,0,0.2,0.1,0.2,0.3l0.3,2.5
				c0,0.1,0.1,0.1,0.1,0.1c1,0.1,1.9,0.1,2.9,0c0.1,0,0.1-0.1,0.1-0.1l0.3-2.5c0-0.1,0.1-0.2,0.2-0.3c0.6-0.2,1.2-0.4,1.7-0.7
				c0.1-0.1,0.2-0.1,0.3,0l2,1.5c0.1,0,0.1,0,0.2,0c0.8-0.6,1.5-1.3,2.1-2.1c0,0,0-0.1,0-0.2l-1.6-2c-0.1-0.1-0.1-0.2,0-0.3
				c0.3-0.5,0.5-1.1,0.7-1.7c0-0.1,0.1-0.2,0.3-0.2l2.5-0.3c0.1,0,0.1-0.1,0.1-0.1c0.1-0.5,0.1-1,0.1-1.5C69.8,22,69.7,21.5,69.6,21
				z M59.2,26c-2,0-3.6-1.6-3.6-3.6c0-2,1.6-3.6,3.6-3.6c2,0,3.6,1.6,3.6,3.6C62.8,24.4,61.2,26,59.2,26z"/>
			<path style="fill:#FFF36E;" d="M59.2,16.4c-3.3,0-6,2.7-6,6c0,3.3,2.7,6,6,6c3.3,0,6-2.7,6-6C65.3,19.1,62.6,16.4,59.2,16.4z
				 M59.2,26c-2,0-3.6-1.6-3.6-3.6c0-2,1.6-3.6,3.6-3.6c2,0,3.6,1.6,3.6,3.6C62.8,24.4,61.2,26,59.2,26z"/>
			<path style="fill:none;stroke:#081F3B;stroke-width:1.4;stroke-linejoin:round;stroke-miterlimit:10;" d="M59.2,26
				c-2,0-3.6-1.6-3.6-3.6c0-2,1.6-3.6,3.6-3.6c2,0,3.6,1.6,3.6,3.6C62.8,24.4,61.2,26,59.2,26z"/>
		</g>
	</g>
</g>
</svg>
