<?xml version="1.0" encoding="utf-8"?>
<!-- Generator: Adobe Illustrator 18.0.0, SVG Export Plug-In . SVG Version: 6.00 Build 0)  -->
<!DOCTYPE svg PUBLIC "-//W3C//DTD SVG 1.1//EN" "http://www.w3.org/Graphics/SVG/1.1/DTD/svg11.dtd">
<svg version="1.1" id="Layer_1" xmlns="http://www.w3.org/2000/svg" xmlns:xlink="http://www.w3.org/1999/xlink" x="0px" y="0px"
	 viewBox="0 0 75 75" style="enable-background:new 0 0 75 75;" xml:space="preserve">
<g>
	<g>
		<path style="fill:#E4E4E4;" d="M37.2,61.2C56.7,67.4,65,60.4,65,60.4V17.5H10v40.3C10,57.8,23.6,56.9,37.2,61.2z"/>
		<polyline style="fill:none;stroke:#081F3B;stroke-width:1.4;stroke-linejoin:round;stroke-miterlimit:10;" points="65,60.4 
			65,9.7 10,9.7 10,57.8 		"/>
		<g>
			
				<line style="fill:none;stroke:#081F3B;stroke-width:1.4;stroke-linejoin:round;stroke-miterlimit:10;" x1="10" y1="17.5" x2="65" y2="17.5"/>
			
				<line style="fill:none;stroke:#081F3B;stroke-width:1.4;stroke-linejoin:round;stroke-miterlimit:10;" x1="13" y1="13.6" x2="15" y2="13.6"/>
			
				<line style="fill:none;stroke:#081F3B;stroke-width:1.4;stroke-linejoin:round;stroke-miterlimit:10;" x1="16.9" y1="13.6" x2="18.9" y2="13.6"/>
			
				<line style="fill:none;stroke:#081F3B;stroke-width:1.4;stroke-linejoin:round;stroke-miterlimit:10;" x1="20.8" y1="13.6" x2="22.8" y2="13.6"/>
			
				<line style="fill:none;stroke:#081F3B;stroke-width:1.4;stroke-linejoin:round;stroke-miterlimit:10;" x1="25.7" y1="9.7" x2="25.7" y2="17.5"/>
			
				<line style="fill:none;stroke:#081F3B;stroke-width:1.4;stroke-linejoin:round;stroke-miterlimit:10;" x1="28.7" y1="13.6" x2="62" y2="13.6"/>
			<rect x="15.9" y="24.4" style="fill:#FFF36E;" width="9.8" height="9.8"/>
			<rect x="15.9" y="24.4" style="fill:none;stroke:#081F3B;stroke-width:1.4;stroke-miterlimit:10;" width="9.8" height="9.8"/>
			<rect x="48.3" y="38.4" style="fill:#FFFFFF;" width="10.7" height="11.1"/>
			<rect x="48.3" y="38.4" style="fill:none;stroke:#081F3B;stroke-width:1.4;stroke-miterlimit:10;" width="10.7" height="11.1"/>
			<rect x="28.7" y="23.4" style="fill:#67CCE9;" width="31.4" height="11.8"/>
			
				<line style="fill:none;stroke:#081F3B;stroke-width:1.4;stroke-linejoin:round;stroke-miterlimit:10;" x1="15" y1="49.9" x2="45.1" y2="49.9"/>
			
				<line style="fill:none;stroke:#081F3B;stroke-width:1.4;stroke-linejoin:round;stroke-miterlimit:10;" x1="15" y1="46" x2="45.1" y2="46"/>
			
				<line style="fill:none;stroke:#081F3B;stroke-width:1.4;stroke-linejoin:round;stroke-miterlimit:10;" x1="15" y1="42.1" x2="45.1" y2="42.1"/>
			
				<line style="fill:none;stroke:#081F3B;stroke-width:1.4;stroke-linejoin:round;stroke-miterlimit:10;" x1="15" y1="38.2" x2="45.1" y2="38.2"/>
			<g>
				
					<line style="fill:none;stroke:#081F3B;stroke-width:1.4;stroke-linejoin:round;stroke-miterlimit:10;" x1="39.5" y1="29.3" x2="41.4" y2="29.3"/>
			</g>
			<g>
				
					<line style="fill:none;stroke:#081F3B;stroke-width:1.4;stroke-linejoin:round;stroke-miterlimit:10;" x1="43.4" y1="29.3" x2="45.3" y2="29.3"/>
			</g>
			<g>
				
					<line style="fill:none;stroke:#081F3B;stroke-width:1.4;stroke-linejoin:round;stroke-miterlimit:10;" x1="47.3" y1="29.3" x2="49.3" y2="29.3"/>
			</g>
		</g>
	</g>
</g>
</svg>
