<?xml version="1.0" encoding="utf-8"?>
<!-- Generator: Adobe Illustrator 18.0.0, SVG Export Plug-In . SVG Version: 6.00 Build 0)  -->
<!DOCTYPE svg PUBLIC "-//W3C//DTD SVG 1.1//EN" "http://www.w3.org/Graphics/SVG/1.1/DTD/svg11.dtd">
<svg version="1.1" id="Layer_1" xmlns="http://www.w3.org/2000/svg" xmlns:xlink="http://www.w3.org/1999/xlink" x="0px" y="0px"
	 viewBox="0 0 75 75" style="enable-background:new 0 0 75 75;" xml:space="preserve">
<g>
	<g>
		<rect x="18.6" y="8.2" style="fill:#FFFFFF;" width="45" height="60.6"/>
		
			<rect x="18.6" y="8.2" style="fill:#FFFFFF;stroke:#081F3B;stroke-width:1.4;stroke-linejoin:round;stroke-miterlimit:10;" width="45" height="60.6"/>
		
			<rect x="11.4" y="8.2" style="fill:#DCDCDC;stroke:#081F3B;stroke-width:1.4;stroke-linejoin:round;stroke-miterlimit:10;" width="7.2" height="60.6"/>
		<rect x="39.5" y="14" style="fill:#67CCE9;" width="18.8" height="21"/>
		<g>
			<path style="fill:#FFFFFF;" d="M50.9,24.8l3.9,2.2c0,0,0,0.2,0,1.1c0,0.9-0.6,1.7-1.1,1.7h-8.9c-0.6,0-1.1-0.7-1.1-1.7
				c0-0.9,0-1.1,0-1.1l3.9-2.2"/>
			<path style="fill:#FFF36E;stroke:#081F3B;stroke-width:1.4;stroke-miterlimit:10;" d="M52,21.7c0,2-1.1,3.6-2.8,3.6
				c-1.7,0-2.8-1.7-2.8-3.6s0.6-3.1,2.8-3.1S52,19.8,52,21.7z"/>
			<path style="fill:none;stroke:#081F3B;stroke-width:1.4;stroke-miterlimit:10;" d="M50.9,24.8l3.9,2.2c0,0,0,0.2,0,1.1
				c0,0.9-0.6,1.7-1.1,1.7h-8.9c-0.6,0-1.1-0.7-1.1-1.7c0-0.9,0-1.1,0-1.1l3.9-2.2"/>
		</g>
		<g>
			<path style="fill:none;stroke:#081F3B;stroke-width:1.4;stroke-miterlimit:10;" d="M28.2,13.9v8.9c0,1,0.8,1.9,1.9,1.9
				c1,0,1.9-0.8,1.9-1.9V8.3"/>
			<path style="fill:none;stroke:#081F3B;stroke-width:1.4;stroke-miterlimit:10;" d="M24.5,8.3c0-2.1,1.7-3.7,3.7-3.7
				s3.7,1.7,3.7,3.7"/>
			<path style="fill:none;stroke:#081F3B;stroke-width:1.4;stroke-miterlimit:10;" d="M35.6,11v12.7c0,3.1-2.5,5.6-5.6,5.6
				s-5.6-2.5-5.6-5.6V8.3"/>
		</g>
		<g>
			<g>
				<line style="fill:none;stroke:#081F3B;stroke-width:1.4;stroke-miterlimit:10;" x1="28.6" y1="52.7" x2="38.2" y2="52.7"/>
				<g>
					<rect x="24.1" y="51.6" style="fill:#67CCE9;" width="2.2" height="2.2"/>
				</g>
			</g>
			<g>
				<line style="fill:none;stroke:#081F3B;stroke-width:1.4;stroke-miterlimit:10;" x1="28.6" y1="57.2" x2="38.2" y2="57.2"/>
				<g>
					<rect x="24.1" y="56.1" style="fill:#67CCE9;" width="2.2" height="2.2"/>
				</g>
			</g>
			<g>
				<line style="fill:none;stroke:#081F3B;stroke-width:1.4;stroke-miterlimit:10;" x1="28.6" y1="61.7" x2="38.2" y2="61.7"/>
				<g>
					<rect x="24.1" y="60.6" style="fill:#67CCE9;" width="2.2" height="2.2"/>
				</g>
			</g>
			<g>
				<line style="fill:none;stroke:#081F3B;stroke-width:1.4;stroke-miterlimit:10;" x1="48.4" y1="52.7" x2="58" y2="52.7"/>
				<g>
					<rect x="43.9" y="51.6" style="fill:#67CCE9;" width="2.2" height="2.2"/>
				</g>
			</g>
			<g>
				<line style="fill:none;stroke:#081F3B;stroke-width:1.4;stroke-miterlimit:10;" x1="48.4" y1="57.2" x2="58" y2="57.2"/>
				<g>
					<rect x="43.9" y="56.1" style="fill:#67CCE9;" width="2.2" height="2.2"/>
				</g>
			</g>
		</g>
		<line style="fill:none;stroke:#081F3B;stroke-width:1.4;stroke-miterlimit:10;" x1="24.1" y1="48.3" x2="58" y2="48.3"/>
		<line style="fill:none;stroke:#081F3B;stroke-width:1.4;stroke-miterlimit:10;" x1="24.1" y1="43.8" x2="58" y2="43.8"/>
		<line style="fill:none;stroke:#081F3B;stroke-width:1.4;stroke-miterlimit:10;" x1="24.1" y1="39.3" x2="58" y2="39.3"/>
		<line style="fill:none;stroke:#081F3B;stroke-width:1.4;stroke-miterlimit:10;" x1="15" y1="30.6" x2="15" y2="46.6"/>
	</g>
</g>
</svg>
