<?xml version="1.0" encoding="utf-8"?>
<!-- Generator: Adobe Illustrator 18.0.0, SVG Export Plug-In . SVG Version: 6.00 Build 0)  -->
<!DOCTYPE svg PUBLIC "-//W3C//DTD SVG 1.1//EN" "http://www.w3.org/Graphics/SVG/1.1/DTD/svg11.dtd">
<svg version="1.1" id="Layer_1" xmlns="http://www.w3.org/2000/svg" xmlns:xlink="http://www.w3.org/1999/xlink" x="0px" y="0px"
	 viewBox="0 0 75 75" style="enable-background:new 0 0 75 75;" xml:space="preserve">
<g>
	<g>
		<rect x="10" y="9.4" style="fill:#FFFFFF;" width="43.2" height="58.1"/>
		<g>
			<rect x="10" y="9.4" style="fill:#FFFFFF;" width="43.2" height="58.1"/>
			<path style="fill:#081F3B;" d="M53.2,68.2H10c-0.4,0-0.7-0.3-0.7-0.7V9.4C9.3,9,9.6,8.7,10,8.7h43.2c0.4,0,0.7,0.3,0.7,0.7v58.1
				C53.9,67.9,53.5,68.2,53.2,68.2z M10.7,66.8h41.8V10.1H10.7V66.8z"/>
		</g>
		<g>
			<rect x="3.1" y="9.4" style="fill:#DCDCDC;" width="6.9" height="58.1"/>
			<path style="fill:#081F3B;" d="M10,68.2H3.1c-0.4,0-0.7-0.3-0.7-0.7V9.4c0-0.4,0.3-0.7,0.7-0.7H10c0.4,0,0.7,0.3,0.7,0.7v58.1
				C10.7,67.9,10.4,68.2,10,68.2z M3.8,66.8h5.5V10.1H3.8V66.8z"/>
		</g>
		<g>
			<rect x="30" y="14.9" style="fill:#67CCE9;" width="18" height="20.1"/>
		</g>
		<g>
			<g>
				<path style="fill:#FFFFFF;" d="M41,25.3l3.7,2.1c0,0,0,0.2,0,1.1c0,0.9-0.5,1.6-1.1,1.6h-8.6c-0.5,0-1.1-0.7-1.1-1.6
					c0-0.9,0-1.1,0-1.1l3.7-2.1"/>
			</g>
			<g>
				<path style="fill:#FFF36E;" d="M42.1,22.4c0,1.9-1,3.5-2.7,3.5c-1.6,0-2.7-1.6-2.7-3.5s0.5-2.9,2.7-2.9
					C41.5,19.4,42.1,20.5,42.1,22.4z"/>
				<path style="fill:#081F3B;" d="M39.4,26.5c-1.9,0-3.4-1.8-3.4-4.2c0-1.7,0.4-3.6,3.4-3.6s3.4,1.9,3.4,3.6
					C42.8,24.7,41.3,26.5,39.4,26.5z M39.4,20.1c-1.5,0-2,0.5-2,2.2c0,1.3,0.7,2.8,2,2.8s2-1.4,2-2.8C41.4,20.6,40.9,20.1,39.4,20.1
					z"/>
			</g>
			<g>
				<path style="fill:#081F3B;" d="M43.7,30.8h-8.6c-1,0-1.8-1.1-1.8-2.3V27l4.1-2.3l0.7,1.2l-3.4,1.9v0.7c0,0.6,0.3,0.9,0.4,0.9
					l8.5,0c0.1,0,0.4-0.3,0.4-0.9v-0.7l-3.4-1.9l0.7-1.2l4.1,2.3v1.5C45.4,29.7,44.6,30.8,43.7,30.8z"/>
			</g>
		</g>
		<g>
			<g>
				<path style="fill:#081F3B;" d="M21,25.8c-1.4,0-2.5-1.1-2.5-2.5v-8.5h1.4v8.5c0,0.6,0.5,1.1,1.1,1.1s1.1-0.5,1.1-1.1V9.5h1.4
					v13.8C23.5,24.7,22.4,25.8,21,25.8z"/>
			</g>
			<g>
				<path style="fill:#081F3B;" d="M23.5,9.5h-1.4c0-1.6-1.3-2.9-2.9-2.9s-2.9,1.3-2.9,2.9H15c0-2.3,1.9-4.3,4.3-4.3
					S23.5,7.2,23.5,9.5z"/>
			</g>
			<g>
				<path style="fill:#081F3B;" d="M21,30.3c-3.3,0-6-2.7-6-6V9.5h1.4v14.7c0,2.6,2.1,4.6,4.6,4.6s4.6-2.1,4.6-4.6V12.1H27v12.2
					C27,27.6,24.3,30.3,21,30.3z"/>
			</g>
		</g>
		<g>
			<g>
				<g>
					<rect x="19.6" y="51.4" style="fill:#081F3B;" width="9.2" height="1.4"/>
				</g>
				<g>
					<g>
						<rect x="15.3" y="51" style="fill:#67CCE9;" width="2.1" height="2.1"/>
					</g>
				</g>
			</g>
			<g>
				<g>
					<rect x="19.6" y="55.7" style="fill:#081F3B;" width="9.2" height="1.4"/>
				</g>
				<g>
					<g>
						<rect x="15.3" y="55.3" style="fill:#67CCE9;" width="2.1" height="2.1"/>
					</g>
				</g>
			</g>
			<g>
				<g>
					<rect x="19.6" y="59.9" style="fill:#081F3B;" width="9.2" height="1.4"/>
				</g>
				<g>
					<g>
						<rect x="15.3" y="59.6" style="fill:#67CCE9;" width="2.1" height="2.1"/>
					</g>
				</g>
			</g>
			<g>
				<g>
					<rect x="38.6" y="51.4" style="fill:#081F3B;" width="9.2" height="1.4"/>
				</g>
				<g>
					<g>
						<rect x="34.3" y="51" style="fill:#67CCE9;" width="2.1" height="2.1"/>
					</g>
				</g>
			</g>
			<g>
				<g>
					<rect x="38.6" y="55.7" style="fill:#081F3B;" width="9.2" height="1.4"/>
				</g>
				<g>
					<g>
						<rect x="34.3" y="55.3" style="fill:#67CCE9;" width="2.1" height="2.1"/>
					</g>
				</g>
			</g>
		</g>
		<g>
			<rect x="15.3" y="47.1" style="fill:#081F3B;" width="32.6" height="1.4"/>
		</g>
		<g>
			<rect x="15.3" y="42.8" style="fill:#081F3B;" width="32.6" height="1.4"/>
		</g>
		<g>
			<rect x="15.3" y="38.5" style="fill:#081F3B;" width="32.6" height="1.4"/>
		</g>
		<g>
			<rect x="5.8" y="30.8" style="fill:#081F3B;" width="1.4" height="15.4"/>
		</g>
	</g>
</g>
</svg>
