<?xml version="1.0" encoding="utf-8"?>
<!-- Generator: Adobe Illustrator 18.0.0, SVG Export Plug-In . SVG Version: 6.00 Build 0)  -->
<!DOCTYPE svg PUBLIC "-//W3C//DTD SVG 1.1//EN" "http://www.w3.org/Graphics/SVG/1.1/DTD/svg11.dtd">
<svg version="1.1" id="Layer_1" xmlns="http://www.w3.org/2000/svg" xmlns:xlink="http://www.w3.org/1999/xlink" x="0px" y="0px"
	 viewBox="0 0 75 75" style="enable-background:new 0 0 75 75;" xml:space="preserve">
<g>
	<g>
		<g>
			<polygon style="fill:#E4E4E4;" points="57.9,24.8 40.9,41.9 23.8,31.5 6.7,48.5 6.7,11 57.9,11 			"/>
		</g>
		<g>
			<polygon style="fill:#67CCE9;" points="40.9,41.9 23.8,31.5 6.7,48.5 6.7,62.5 23.8,62.5 40.9,62.5 57.9,62.5 57.9,24.8 			"/>
		</g>
		<g>
			<path style="fill:#081F3B;" d="M57.9,63.2H6.7c-0.4,0-0.7-0.3-0.7-0.7v-14h1.4v13.3h49.8v-37h1.4v37.7
				C58.6,62.9,58.3,63.2,57.9,63.2z"/>
		</g>
		<g>
			<g>
				<g>
					<line style="fill:#FFFFFF;" x1="40.9" y1="41.9" x2="57.9" y2="24.8"/>
					
						<rect x="48.7" y="21.3" transform="matrix(0.7071 0.7071 -0.7071 0.7071 38.0521 -25.1695)" style="fill:#081F3B;" width="1.4" height="24.1"/>
				</g>
				<g>
					<line style="fill:#FFFFFF;" x1="23.8" y1="31.5" x2="40.9" y2="41.9"/>
					
						<rect x="22.3" y="36" transform="matrix(0.8533 0.5214 -0.5214 0.8533 23.864 -11.4798)" style="fill:#081F3B;" width="20" height="1.4"/>
				</g>
				<g>
					<line style="fill:#FFFFFF;" x1="6.7" y1="48.5" x2="23.8" y2="31.5"/>
					
						<rect x="14.6" y="27.9" transform="matrix(0.7071 0.7071 -0.7071 0.7071 32.7452 0.9239)" style="fill:#081F3B;" width="1.4" height="24.1"/>
				</g>
			</g>
			<g>
				<g>
					<circle style="fill:#FFFFFF;" cx="6.7" cy="48.5" r="3.8"/>
					<path style="fill:#081F3B;" d="M6.7,53c-2.5,0-4.5-2-4.5-4.5s2-4.5,4.5-4.5c2.5,0,4.5,2,4.5,4.5S9.2,53,6.7,53z M6.7,45.4
						c-1.7,0-3.1,1.4-3.1,3.1s1.4,3.1,3.1,3.1s3.1-1.4,3.1-3.1S8.4,45.4,6.7,45.4z"/>
				</g>
			</g>
			<g>
				<g>
					<circle style="fill:#FFFFFF;" cx="23.8" cy="31.5" r="3.8"/>
					<path style="fill:#081F3B;" d="M23.8,35.9c-2.5,0-4.5-2-4.5-4.5c0-2.5,2-4.5,4.5-4.5s4.5,2,4.5,4.5
						C28.3,33.9,26.3,35.9,23.8,35.9z M23.8,28.4c-1.7,0-3.1,1.4-3.1,3.1c0,1.7,1.4,3.1,3.1,3.1s3.1-1.4,3.1-3.1
						C26.9,29.7,25.5,28.4,23.8,28.4z"/>
				</g>
			</g>
			<g>
				<g>
					<circle style="fill:#FFFFFF;" cx="40.9" cy="41.9" r="3.8"/>
					<path style="fill:#081F3B;" d="M40.9,46.4c-2.5,0-4.5-2-4.5-4.5c0-2.5,2-4.5,4.5-4.5c2.5,0,4.5,2,4.5,4.5
						C45.4,44.4,43.3,46.4,40.9,46.4z M40.9,38.8c-1.7,0-3.1,1.4-3.1,3.1c0,1.7,1.4,3.1,3.1,3.1s3.1-1.4,3.1-3.1
						C44,40.2,42.6,38.8,40.9,38.8z"/>
				</g>
			</g>
			<g>
				<g>
					<circle style="fill:#FFF36E;" cx="57.9" cy="24.8" r="3.8"/>
				</g>
				<g>
					<path style="fill:#081F3B;" d="M57.9,29.3c-2.5,0-4.5-2-4.5-4.5s2-4.5,4.5-4.5c2.5,0,4.5,2,4.5,4.5S60.4,29.3,57.9,29.3z
						 M57.9,21.7c-1.7,0-3.1,1.4-3.1,3.1s1.4,3.1,3.1,3.1s3.1-1.4,3.1-3.1S59.7,21.7,57.9,21.7z"/>
				</g>
			</g>
		</g>
		<g>
			<g>
				<line style="fill:#FFFFFF;" x1="16.1" y1="18.7" x2="18" y2="18.7"/>
				<rect x="16.1" y="18" style="fill:#081F3B;" width="1.9" height="1.4"/>
			</g>
			<g>
				<line style="fill:#FFFFFF;" x1="12.3" y1="18.7" x2="14.2" y2="18.7"/>
				<rect x="12.3" y="18" style="fill:#081F3B;" width="1.9" height="1.4"/>
			</g>
			<g>
				<line style="fill:#FFFFFF;" x1="19.9" y1="18.7" x2="21.8" y2="18.7"/>
				<rect x="19.9" y="18" style="fill:#081F3B;" width="1.9" height="1.4"/>
			</g>
		</g>
	</g>
</g>
</svg>
