<?xml version="1.0" encoding="utf-8"?>
<!-- Generator: Adobe Illustrator 18.0.0, SVG Export Plug-In . SVG Version: 6.00 Build 0)  -->
<!DOCTYPE svg PUBLIC "-//W3C//DTD SVG 1.1//EN" "http://www.w3.org/Graphics/SVG/1.1/DTD/svg11.dtd">
<svg version="1.1" id="Layer_1" xmlns="http://www.w3.org/2000/svg" xmlns:xlink="http://www.w3.org/1999/xlink" x="0px" y="0px"
	 viewBox="0 0 75 75" style="enable-background:new 0 0 75 75;" xml:space="preserve">
<g>
	<g>
		<g>
			<g>
				<path style="fill:#081F3B;" d="M16.3,41.9h-1.4v-1.1c0-3.5,2.9-6.4,6.4-6.4h6.9c2.8,0,5-2.2,5-5c0-2.8-2.2-5-5-5H27V23h1.1
					c3.5,0,6.4,2.9,6.4,6.4c0,3.5-2.9,6.4-6.4,6.4h-6.9c-2.8,0-5,2.2-5,5V41.9z"/>
			</g>
		</g>
		<g>
			<path style="fill:#FFF36E;" d="M48.1,15.7c0,0-0.7,7.6-3.4,10.3c-2.7,2.7-10.3,3.4-10.3,3.4s0.7-7.6,3.4-10.3
				C40.5,16.4,48.1,15.7,48.1,15.7z"/>
			<path style="fill:#081F3B;" d="M33.6,30.2l0.1-0.8c0-0.3,0.8-7.9,3.6-10.7S47.7,15,48,15l0.8-0.1l-0.1,0.8
				c0,0.3-0.8,7.9-3.6,10.7c-2.8,2.8-10.4,3.6-10.7,3.6L33.6,30.2z M47.3,16.5c-2,0.3-7,1.2-9,3.1c-2,2-2.8,6.9-3.1,9
				c2-0.3,7-1.2,9-3.1C46.1,23.5,47,18.5,47.3,16.5z"/>
		</g>
		<g>
			<polyline style="fill:#67CCE9;" points="41.9,48.8 37.3,70.6 14.3,70.6 9.8,48.8 			"/>
			<path style="fill:#081F3B;" d="M37.3,71.3h-23c-0.3,0-0.6-0.2-0.7-0.6L9.1,48.9l1.4-0.3l4.4,21.3h21.8l4.4-21.3l1.4,0.3L38,70.8
				C37.9,71.1,37.7,71.3,37.3,71.3z"/>
		</g>
		<g>
			<path style="fill:#E4E4E4;" d="M22.4,41.9V5.3c0-1.3,1-2.3,2.3-2.3c1.3,0,2.3,1,2.3,2.3v36.6"/>
			<path style="fill:#081F3B;" d="M27.7,41.9h-1.4V5.3c0-0.9-0.7-1.6-1.6-1.6s-1.6,0.7-1.6,1.6v36.6h-1.4V5.3c0-1.6,1.3-3,3-3
				s3,1.3,3,3V41.9z"/>
		</g>
		<g>
			<path style="fill:#081F3B;" d="M44.2,49.5H7.5c-2.3,0-4.1-1.9-4.1-4.1c0-2.3,1.9-4.1,4.1-4.1h36.7c2.3,0,4.1,1.9,4.1,4.1
				C48.3,47.6,46.4,49.5,44.2,49.5z M7.5,42.6c-1.5,0-2.7,1.2-2.7,2.7c0,1.5,1.2,2.7,2.7,2.7h36.7c1.5,0,2.7-1.2,2.7-2.7
				c0-1.5-1.2-2.7-2.7-2.7H7.5z"/>
		</g>
		<g>
			<path style="fill:#081F3B;" d="M27.5,13v-1.4c2.8,0,5-2.2,5-5H34C34,10.1,31.1,13,27.5,13z"/>
		</g>
		<g>
			<g>
				<path style="fill:#081F3B;" d="M27,24.4h-5.7c-3.5,0-6.4-2.9-6.4-6.4c0-3.5,2.9-6.4,6.4-6.4l1.1,0l0,1.4h-1.1c0,0,0,0,0,0
					c-1.3,0-2.6,0.5-3.5,1.5c-0.9,0.9-1.5,2.2-1.5,3.5c0,2.8,2.2,5,5,5H27V24.4z"/>
			</g>
		</g>
		<g>
			<path style="fill:#FFF36E;" d="M14.4,18c0,0-5.5-0.6-8.1-3.3C3.6,12,3,6.6,3,6.6s5.5,0.6,8.1,3.3C13.8,12.5,14.4,18,14.4,18z"/>
			<path style="fill:#081F3B;" d="M15.2,18.8l-0.9-0.1c-0.2,0-5.7-0.7-8.5-3.5C3,12.4,2.3,6.9,2.3,6.6L2.2,5.8l0.9,0.1
				c0.2,0,5.7,0.7,8.5,3.5c2.8,2.8,3.5,8.3,3.5,8.5L15.2,18.8z M3.8,7.4c0.3,1.6,1.1,5,2.9,6.8c1.8,1.8,5.2,2.6,6.8,2.9
				c-0.3-1.6-1.1-5-2.9-6.8C8.8,8.5,5.5,7.7,3.8,7.4z"/>
		</g>
		<g>
			<rect x="10.9" y="54.9" style="fill:#081F3B;" width="12.6" height="1.4"/>
		</g>
		<g>
			<rect x="12.1" y="59.5" style="fill:#081F3B;" width="6.9" height="1.4"/>
		</g>
		<g>
			<rect x="23.5" y="44.7" style="fill:#081F3B;" width="2.3" height="1.4"/>
		</g>
		<g>
			<rect x="28.1" y="44.7" style="fill:#081F3B;" width="2.3" height="1.4"/>
		</g>
		<g>
			<rect x="19" y="44.7" style="fill:#081F3B;" width="2.3" height="1.4"/>
		</g>
	</g>
</g>
</svg>
