<?xml version="1.0" encoding="utf-8"?>
<!-- Generator: Adobe Illustrator 18.0.0, SVG Export Plug-In . SVG Version: 6.00 Build 0)  -->
<!DOCTYPE svg PUBLIC "-//W3C//DTD SVG 1.1//EN" "http://www.w3.org/Graphics/SVG/1.1/DTD/svg11.dtd">
<svg version="1.1" id="Layer_1" xmlns="http://www.w3.org/2000/svg" xmlns:xlink="http://www.w3.org/1999/xlink" x="0px" y="0px"
	 viewBox="0 0 75 75" style="enable-background:new 0 0 75 75;" xml:space="preserve">
<g>
	<g>
		<g>
			<polyline style="fill:#E4E4E4;" points="22.3,27 19.1,27 2.8,43.2 2.8,52.9 22.3,52.9 			"/>
		</g>
		<g>
			<polyline style="fill:#E4E4E4;" points="41.8,27 45.1,27 61.3,43.2 61.3,52.9 41.8,52.9 			"/>
		</g>
		<g>
			<path style="fill:#67CCE9;" d="M22.3,24.8c0-9.7,9.7-19.5,9.7-19.5s9.7,9.7,9.7,19.5v28.2H22.3V24.8z"/>
		</g>
		<g>
			<path style="fill:#081F3B;" d="M42.5,53.6H21.6V24.8c0-9.9,9.5-19.6,9.9-20l0.5-0.5l0.5,0.5c0.4,0.4,10,10.1,10,20V53.6z
				 M23,52.2h18.1V24.8c0-8.1-7.1-16.3-9-18.5c-2,2.1-9,10.4-9,18.5V52.2z"/>
		</g>
		<g>
			<circle style="fill:#FFFFFF;" cx="32.1" cy="30.2" r="3.2"/>
			<path style="fill:#081F3B;" d="M32.1,34.2c-2.2,0-4-1.8-4-4s1.8-4,4-4c2.2,0,4,1.8,4,4S34.3,34.2,32.1,34.2z M32.1,27.7
				c-1.4,0-2.5,1.1-2.5,2.5c0,1.4,1.1,2.5,2.5,2.5s2.5-1.1,2.5-2.5C34.6,28.8,33.5,27.7,32.1,27.7z"/>
		</g>
		<g>
			<circle style="fill:#FFF36E;" cx="32.1" cy="19.4" r="3.2"/>
			<path style="fill:#081F3B;" d="M32.1,23.3c-2.2,0-4-1.8-4-4s1.8-4,4-4c2.2,0,4,1.8,4,4S34.3,23.3,32.1,23.3z M32.1,16.8
				c-1.4,0-2.5,1.1-2.5,2.5c0,1.4,1.1,2.5,2.5,2.5s2.5-1.1,2.5-2.5C34.6,18,33.5,16.8,32.1,16.8z"/>
		</g>
		<g>
			<circle style="fill:#FFFFFF;" cx="32.1" cy="41" r="3.2"/>
			<path style="fill:#081F3B;" d="M32.1,45c-2.2,0-4-1.8-4-4s1.8-4,4-4c2.2,0,4,1.8,4,4S34.3,45,32.1,45z M32.1,38.5
				c-1.4,0-2.5,1.1-2.5,2.5c0,1.4,1.1,2.5,2.5,2.5s2.5-1.1,2.5-2.5C34.6,39.6,33.5,38.5,32.1,38.5z"/>
		</g>
		<g>
			<g>
				<path style="fill:#FFFFFF;" d="M22.3,47.5c-3,0-5.4,2.4-5.4,5.4v7.6h10.8v-7.6C27.7,50,25.3,47.5,22.3,47.5z"/>
				<path style="fill:#081F3B;" d="M28,60.7H16.7v-7.8c0-3.1,2.5-5.6,5.6-5.6c3.1,0,5.6,2.5,5.6,5.6V60.7z M17.1,60.3h10.4v-7.4
					c0-2.9-2.3-5.2-5.2-5.2c-2.9,0-5.2,2.3-5.2,5.2V60.3z"/>
			</g>
			<g>
				<path style="fill:#FFFFFF;" d="M22.3,47.5c-3,0-5.4,2.4-5.4,5.4v7.6h10.8v-7.6C27.7,50,25.3,47.5,22.3,47.5z"/>
				<path style="fill:#081F3B;" d="M28.4,61.2H16.2v-8.3c0-3.4,2.7-6.1,6.1-6.1s6.1,2.7,6.1,6.1V61.2z M17.6,59.8H27v-6.9
					c0-2.6-2.1-4.7-4.7-4.7c-2.6,0-4.7,2.1-4.7,4.7V59.8z"/>
			</g>
		</g>
		<g>
			<g>
				<path style="fill:#FFFFFF;" d="M41.8,47.5c-3,0-5.4,2.4-5.4,5.4v7.6h10.8v-7.6C47.2,50,44.8,47.5,41.8,47.5z"/>
				<path style="fill:#081F3B;" d="M47.5,60.7H36.2v-7.8c0-3.1,2.5-5.6,5.6-5.6s5.6,2.5,5.6,5.6V60.7z M36.6,60.3H47v-7.4
					c0-2.9-2.3-5.2-5.2-5.2s-5.2,2.3-5.2,5.2V60.3z"/>
			</g>
			<g>
				<path style="fill:#FFFFFF;" d="M41.8,47.5c-3,0-5.4,2.4-5.4,5.4v7.6h10.8v-7.6C47.2,50,44.8,47.5,41.8,47.5z"/>
				<path style="fill:#081F3B;" d="M47.9,61.2H35.7v-8.3c0-3.4,2.7-6.1,6.1-6.1s6.1,2.7,6.1,6.1V61.2z M37.1,59.8h9.4v-6.9
					c0-2.6-2.1-4.7-4.7-4.7s-4.7,2.1-4.7,4.7V59.8z"/>
			</g>
		</g>
		<g>
			<polygon style="fill:#081F3B;" points="62,53.6 47.2,53.6 47.2,52.2 60.6,52.2 60.6,43.5 44.8,27.7 41.8,27.7 41.8,26.3 
				45.4,26.3 62,42.9 			"/>
		</g>
		<g>
			<polygon style="fill:#081F3B;" points="16.9,53.6 2.1,53.6 2.1,42.9 18.8,26.3 22.3,26.3 22.3,27.7 19.4,27.7 3.5,43.5 3.5,52.2 
				16.9,52.2 			"/>
		</g>
		<g>
			<rect x="19.5" y="63.8" style="fill:#081F3B;" width="1.4" height="6"/>
		</g>
		<g>
			<rect x="23.8" y="63.8" style="fill:#081F3B;" width="1.4" height="6"/>
		</g>
		<g>
			<rect x="39" y="63.8" style="fill:#081F3B;" width="1.4" height="6"/>
		</g>
		<g>
			<rect x="43.3" y="63.8" style="fill:#081F3B;" width="1.4" height="6"/>
		</g>
		<g>
			<rect x="41.1" y="57.3" style="fill:#081F3B;" width="1.4" height="3.2"/>
		</g>
		<g>
			<rect x="21.6" y="57.3" style="fill:#081F3B;" width="1.4" height="3.2"/>
		</g>
		<g>
			<rect x="31.4" y="10.7" style="fill:#081F3B;" width="1.4" height="2.2"/>
		</g>
		<g>
			<rect x="31.4" y="47.5" style="fill:#081F3B;" width="1.4" height="2.2"/>
		</g>
	</g>
</g>
</svg>
