<?xml version="1.0" encoding="utf-8"?>
<!-- Generator: Adobe Illustrator 18.0.0, SVG Export Plug-In . SVG Version: 6.00 Build 0)  -->
<!DOCTYPE svg PUBLIC "-//W3C//DTD SVG 1.1//EN" "http://www.w3.org/Graphics/SVG/1.1/DTD/svg11.dtd">
<svg version="1.1" id="shape" xmlns="http://www.w3.org/2000/svg" xmlns:xlink="http://www.w3.org/1999/xlink" x="0px" y="0px"
	 viewBox="0 0 8 182" style="enable-background:new 0 0 8 182;" xml:space="preserve">
<g>
	<path style="fill:#274255;" d="M2,182H0c0-3,1.9-4.1,3.4-5.1C5,175.8,6,175,6,173.5c0-1.5-1-2.3-2.6-3.3c-1.5-1.1-3.4-2.4-3.4-5
		c0-2.6,1.9-3.9,3.4-5c1.6-1.1,2.6-1.8,2.6-3.3c0-1.5-1-2.2-2.6-3.3c-1.5-1.1-3.4-2.4-3.4-5c0-2.6,1.9-3.9,3.4-5
		c1.6-1.1,2.6-1.8,2.6-3.3c0-1.5-1-2.2-2.6-3.3c-1.5-1.1-3.4-2.4-3.4-5c0-2.6,1.9-3.9,3.4-5C5,126,6,125.3,6,123.8
		c0-1.5-1-2.2-2.6-3.3c-1.5-1.1-3.4-2.4-3.4-5s1.9-3.9,3.4-5c1.6-1.1,2.6-1.8,2.6-3.3c0-1.5-1-2.2-2.6-3.3c-1.5-1.1-3.4-2.4-3.4-5
		s1.9-3.9,3.4-5C5,92.9,6,92.2,6,90.7c0-1.5-1-2.2-2.6-3.3C1.9,86.3,0,85,0,82.4c0-2.6,1.9-3.9,3.4-5C5,76.4,6,75.6,6,74.2
		c0-1.5-1-2.2-2.6-3.3c-1.5-1.1-3.4-2.4-3.4-5c0-2.6,1.9-3.9,3.4-5C5,59.8,6,59.1,6,57.6c0-1.5-1-2.2-2.6-3.3
		c-1.5-1.1-3.4-2.4-3.4-5s1.9-3.9,3.4-5C5,43.3,6,42.5,6,41.1c0-1.5-1-2.2-2.6-3.3c-1.5-1.1-3.4-2.4-3.4-5c0-2.6,1.9-3.9,3.4-5
		C5,26.7,6,26,6,24.5c0-1.5-1-2.2-2.6-3.3c-1.5-1.1-3.4-2.4-3.4-5c0-2.6,1.9-3.9,3.4-5C5,10.2,6,9.4,6,8S5,5.9,3.4,4.8
		C1.9,3.7,0,2,0,0h2c0,1,1,2.1,2.6,3.2C6.1,4.2,8,5.4,8,8S6.1,11.9,4.6,13C3,14.1,2,14.8,2,16.3c0,1.5,1,2.2,2.6,3.3
		c1.5,1.1,3.4,2.4,3.4,5c0,2.6-1.9,3.9-3.4,5C3,30.6,2,31.3,2,32.8c0,1.5,1,2.2,2.6,3.3c1.5,1.1,3.4,2.4,3.4,5c0,2.6-1.9,3.9-3.4,5
		C3,47.1,2,47.9,2,49.3c0,1.5,1,2.2,2.6,3.3C6.1,53.7,8,55,8,57.6s-1.9,3.9-3.4,5C3,63.7,2,64.4,2,65.9c0,1.5,1,2.2,2.6,3.3
		c1.5,1.1,3.4,2.4,3.4,5s-1.9,3.9-3.4,5C3,80.2,2,81,2,82.4c0,1.5,1,2.2,2.6,3.3c1.5,1.1,3.4,2.4,3.4,5c0,2.6-1.9,3.9-3.4,5
		C3,96.8,2,97.5,2,99s1,2.2,2.6,3.3c1.5,1.1,3.4,2.4,3.4,5c0,2.6-1.9,3.9-3.4,5C3,113.3,2,114.1,2,115.5c0,1.5,1,2.2,2.6,3.3
		c1.5,1.1,3.4,2.4,3.4,5s-1.9,3.9-3.4,5C3,129.8,2,130.6,2,132.1s1,2.2,2.6,3.3c1.5,1.1,3.4,2.4,3.4,5c0,2.6-1.9,3.9-3.4,5
		C3,146.4,2,147.1,2,148.6c0,1.5,1,2.2,2.6,3.3c1.5,1.1,3.4,2.4,3.4,5c0,2.6-1.9,3.9-3.4,5C3,162.9,2,163.7,2,165.1
		c0,1.5,1,2.2,2.6,3.3c1.5,1.1,3.4,2.4,3.4,5c0,2.6-1.9,4.1-3.4,5.1C3,179.6,2,180,2,182z"/>
</g>
</svg>
