<?xml version="1.0" encoding="UTF-8" standalone="no"?>
<svg width="73px" height="73px" viewBox="0 0 73 73" version="1.1" xmlns="http://www.w3.org/2000/svg" xmlns:xlink="http://www.w3.org/1999/xlink">
    <!-- Generator: Sketch 3.6.1 (26313) - http://www.bohemiancoding.com/sketch -->
    <title>services-b2d</title>
    <desc>Created with Sketch.</desc>
    <defs></defs>
    <g id="Page-2" stroke="none" stroke-width="1" fill="none" fill-rule="evenodd">
        <g id="services-b2d">
            <g id="icon">
                <path d="M73,37 C73,16.3416285 56.6585972,0 37,0 C16.3414028,0 0,16.3416285 0,37 C0,56.6583715 16.3414028,73 37,73 C56.6585972,73 73,56.6583715 73,37" id="circle" fill="#FFFFFF"></path>
                <g id="B2D" transform="translate(17.000000, 29.000000)" fill="#000000">
                    <path d="M2.035,8.9229 L2.035,14.0669 L5.457,14.0669 C5.964,14.0669 6.392,13.9879 6.743,13.8319 C7.093,13.6749 7.376,13.4739 7.593,13.2279 C7.808,12.9829 7.962,12.7059 8.051,12.4009 C8.14,12.0949 8.185,11.7929 8.185,11.4949 C8.185,11.2269 8.137,10.9439 8.04,10.6449 C7.942,10.3469 7.786,10.0709 7.57,9.8179 C7.354,9.5649 7.078,9.3519 6.743,9.1799 C6.407,9.0089 5.994,8.9229 5.502,8.9229 L2.035,8.9229 Z M5.389,7.0669 C5.896,7.0669 6.321,6.9879 6.665,6.8319 C7.008,6.6759 7.283,6.4739 7.492,6.2289 C7.7,5.9829 7.849,5.7139 7.939,5.4229 C8.028,5.1319 8.073,4.8529 8.073,4.5839 C8.073,4.3169 8.028,4.0359 7.939,3.7459 C7.849,3.4549 7.7,3.1869 7.492,2.9409 C7.283,2.6939 7.004,2.4899 6.653,2.3249 C6.303,2.1619 5.867,2.0799 5.345,2.0799 L2.035,2.0799 L2.035,7.0669 L5.389,7.0669 Z M0,0.2459 L5.345,0.2459 C6.284,0.2459 7.063,0.3799 7.682,0.6489 C8.301,0.9169 8.789,1.2559 9.146,1.6659 C9.505,2.0759 9.754,2.5269 9.896,3.0189 C10.038,3.5109 10.108,3.9809 10.108,4.4279 C10.108,4.9049 10.03,5.3449 9.874,5.7469 C9.717,6.1499 9.508,6.4999 9.248,6.7989 C8.986,7.0969 8.688,7.3469 8.353,7.5479 C8.017,7.7489 7.671,7.8869 7.313,7.9609 C7.611,7.9909 7.931,8.0879 8.274,8.2519 C8.617,8.4159 8.934,8.6519 9.225,8.9559 C9.515,9.2629 9.754,9.6349 9.94,10.0739 C10.127,10.5149 10.221,11.0109 10.221,11.5619 C10.221,12.0089 10.145,12.4859 9.997,12.9929 C9.847,13.4999 9.587,13.9699 9.214,14.4019 C8.841,14.8349 8.342,15.1929 7.716,15.4759 C7.09,15.7589 6.306,15.9009 5.367,15.9009 L0,15.9009 L0,0.2459 Z" id="Fill-4"></path>
                    <path d="M13.7196,12.792 C13.9216,11.957 14.2116,11.253 14.5926,10.679 C14.9726,10.104 15.4346,9.62 15.9786,9.225 C16.5236,8.83 17.1376,8.453 17.8236,8.096 C18.2266,7.902 18.6246,7.693 19.0206,7.47 C19.4146,7.246 19.7736,6.992 20.0936,6.709 C20.4136,6.426 20.6716,6.094 20.8656,5.714 C21.0586,5.334 21.1566,4.883 21.1566,4.36 C21.1566,3.541 20.9066,2.915 20.4066,2.482 C19.9066,2.05 19.2406,1.834 18.4056,1.834 C17.5556,1.834 16.8516,2.095 16.2916,2.616 C15.7336,3.139 15.4526,3.898 15.4526,4.897 L13.4176,4.897 C13.4176,4.137 13.5526,3.451 13.8216,2.84 C14.0886,2.229 14.4496,1.715 14.9056,1.297 C15.3606,0.88 15.8896,0.559 16.4926,0.335 C17.0966,0.111 17.7416,0 18.4276,0 C19.1276,0 19.7696,0.101 20.3506,0.302 C20.9326,0.503 21.4356,0.794 21.8606,1.174 C22.2846,1.554 22.6136,2.027 22.8446,2.594 C23.0746,3.161 23.1916,3.81 23.1916,4.54 C23.1916,5.271 23.0336,5.911 22.7216,6.463 C22.4076,7.015 22.0326,7.495 21.5916,7.905 C21.1526,8.315 20.6906,8.658 20.2056,8.935 C19.7206,9.21 19.3076,9.438 18.9646,9.616 C18.3086,9.989 17.7716,10.328 17.3546,10.634 C16.9366,10.939 16.6086,11.26 16.3696,11.596 C16.1316,11.931 15.9676,12.293 15.8776,12.68 C15.7886,13.068 15.7436,13.53 15.7436,14.066 L23.1916,14.066 L23.1916,15.9 L13.4176,15.9 C13.4176,14.663 13.5186,13.627 13.7196,12.792" id="Fill-6"></path>
                    <path d="M28.826,2.0801 L28.826,14.0661 L31.622,14.0661 C32.576,14.0661 33.43,13.8951 34.182,13.5521 C34.935,13.2091 35.565,12.7581 36.072,12.1991 C36.579,11.6401 36.967,11.0031 37.235,10.2871 C37.504,9.5711 37.638,8.8331 37.638,8.0731 C37.638,7.3121 37.504,6.5751 37.235,5.8591 C36.967,5.1431 36.579,4.5061 36.072,3.9471 C35.565,3.3881 34.935,2.9371 34.182,2.5941 C33.43,2.2511 32.576,2.0801 31.622,2.0801 L28.826,2.0801 Z M31.622,0.2461 C32.919,0.2461 34.07,0.4701 35.077,0.9171 C36.083,1.3641 36.933,1.9531 37.626,2.6841 C38.319,3.4141 38.846,4.2491 39.203,5.1881 C39.56,6.1281 39.74,7.0891 39.74,8.0731 C39.74,9.0571 39.56,10.0181 39.203,10.9581 C38.846,11.8971 38.319,12.7321 37.626,13.4631 C36.933,14.1931 36.083,14.7821 35.077,15.2291 C34.07,15.6771 32.919,15.9001 31.622,15.9001 L26.791,15.9001 L26.791,0.2461 L31.622,0.2461 Z" id="Fill-8"></path>
                </g>
            </g>
        </g>
    </g>
</svg>