<?xml version="1.0" encoding="utf-8"?>
<!-- Generator: Adobe Illustrator 18.0.0, SVG Export Plug-In . SVG Version: 6.00 Build 0)  -->
<!DOCTYPE svg PUBLIC "-//W3C//DTD SVG 1.1//EN" "http://www.w3.org/Graphics/SVG/1.1/DTD/svg11.dtd">
<svg version="1.1" id="Layer_1" xmlns="http://www.w3.org/2000/svg" xmlns:xlink="http://www.w3.org/1999/xlink" x="0px" y="0px"
	 viewBox="0 0 75 75" style="enable-background:new 0 0 75 75;" xml:space="preserve">
<g>
	<g>
		<g>
			<g>
				<path style="fill:#67CCE9;" d="M60.8,17.4H11.4c-1.8,0-3.2,1.4-3.2,3.2v35.2h20.1l1.7,3.5h12.1l1.5-3.5H64V20.6
					C64,18.9,62.6,17.4,60.8,17.4z"/>
				<path style="fill:#081F3B;" d="M42.1,60H30c-0.3,0-0.5-0.2-0.6-0.4l-1.5-3.1H8.2c-0.4,0-0.7-0.3-0.7-0.7V20.6
					c0-2.1,1.7-3.9,3.9-3.9h49.4c2.1,0,3.9,1.7,3.9,3.9v35.2c0,0.4-0.3,0.7-0.7,0.7H44l-1.3,3C42.6,59.8,42.4,60,42.1,60z
					 M30.5,58.6h11.2l1.3-3c0.1-0.3,0.4-0.4,0.6-0.4h19.7V20.6c0-1.4-1.1-2.5-2.5-2.5H11.4c-1.4,0-2.5,1.1-2.5,2.5v34.5h19.4
					c0.3,0,0.5,0.2,0.6,0.4L30.5,58.6z"/>
			</g>
			<g>
				<polygon style="fill:#E4E4E4;" points="64.9,62.1 7.3,62.1 3.1,57.8 3.1,55.7 28.6,55.7 30.8,57.8 41.4,57.8 43.6,55.7 
					69.1,55.7 69.1,57.8 				"/>
				<path style="fill:#081F3B;" d="M65.2,62.8H7l-4.7-4.7V55h26.6l2.1,2.1h10.1l2.1-2.1h26.6v3.1L65.2,62.8z M7.6,61.4h57l3.9-3.9
					v-1.1H43.8l-2.1,2.1H30.5l-2.1-2.1H3.8v1.1L7.6,61.4z"/>
			</g>
		</g>
		<g>
			<g>
				<path style="fill:#FFFFFF;" d="M49.7,33.7c0-0.1-0.1-0.1-0.2-0.2l-3.3-0.4c-0.2,0-0.3-0.1-0.3-0.3c-0.2-0.8-0.5-1.5-0.9-2.2
					c-0.1-0.1-0.1-0.3,0-0.4l2-2.6c0-0.1,0-0.2,0-0.2c-0.8-1-1.7-1.9-2.7-2.7c-0.1-0.1-0.1-0.1-0.2,0l-2.6,2c-0.1,0.1-0.3,0.1-0.4,0
					c-0.7-0.4-1.4-0.7-2.2-0.9c-0.2,0-0.3-0.2-0.3-0.3l-0.4-3.3c0-0.1-0.1-0.1-0.2-0.2c-1.3-0.2-2.5-0.2-3.8,0
					c-0.1,0-0.1,0.1-0.2,0.2l-0.4,3.3c0,0.2-0.1,0.3-0.3,0.3c-0.8,0.2-1.5,0.5-2.2,0.9c-0.1,0.1-0.3,0.1-0.4,0l-2.6-2
					c-0.1-0.1-0.1-0.1-0.2,0c-0.5,0.3-0.9,0.7-1.3,1.1L26.3,26c-0.4,0.4-0.8,0.9-1.1,1.3c0,0.1,0,0.2,0,0.2l2,2.6
					c0.1,0.1,0.1,0.3,0,0.4c-0.4,0.7-0.7,1.4-0.9,2.2c0,0.2-0.2,0.3-0.3,0.3l-3.3,0.4c-0.1,0-0.1,0.1-0.2,0.2
					c-0.1,0.6-0.1,1.1-0.1,1.7v0.4c0,0.6,0.1,1.1,0.1,1.7c0,0.1,0.1,0.1,0.2,0.2l3.3,0.4c0.2,0,0.3,0.1,0.3,0.3
					c0.2,0.8,0.5,1.5,0.9,2.2c0.1,0.1,0.1,0.3,0,0.4l-2,2.6c0,0.1,0,0.2,0,0.2c0.3,0.5,0.7,0.9,1.1,1.3l0.2,0.2
					c0.4,0.4,0.9,0.8,1.3,1.1c0.1,0.1,0.1,0.1,0.2,0l2.6-2c0.1-0.1,0.2-0.1,0.2-0.1c0.1,0,0.1,0,0.2,0.1c0.7,0.4,1.4,0.7,2.2,0.9
					c0.2,0,0.3,0.2,0.3,0.3l0.4,3.3c0,0.1,0.1,0.1,0.2,0.2c1.3,0.2,2.5,0.2,3.8,0c0.1,0,0.1-0.1,0.2-0.2l0.4-3.3
					c0-0.2,0.1-0.3,0.3-0.3c0.8-0.2,1.5-0.5,2.2-0.9c0.1-0.1,0.3-0.1,0.4,0l2.6,2c0.1,0.1,0.1,0.1,0.2,0c1-0.8,1.9-1.7,2.7-2.7
					c0-0.1,0-0.2,0-0.2L45,41c-0.1-0.1-0.1-0.3,0-0.4c0.4-0.7,0.7-1.4,0.9-2.2c0-0.2,0.2-0.3,0.3-0.3l3.3-0.4c0.1,0,0.1-0.1,0.2-0.2
					c0.1-0.6,0.1-1.3,0.1-1.9C49.8,35,49.8,34.4,49.7,33.7z M36.1,40.3c-2.6,0-4.7-2.1-4.7-4.7c0-2.6,2.1-4.7,4.7-4.7
					c2.6,0,4.7,2.1,4.7,4.7C40.8,38.2,38.7,40.3,36.1,40.3z"/>
				<path style="fill:#081F3B;" d="M36.1,50c-0.7,0-1.3,0-2-0.1c-0.4-0.1-0.7-0.4-0.8-0.8L33,46c-0.7-0.2-1.4-0.5-2-0.8l-2.5,1.9
					c-0.3,0.3-0.7,0.3-1.1,0c-0.5-0.4-1-0.8-1.4-1.2l-0.2-0.2c-0.4-0.4-0.8-0.9-1.2-1.4c-0.2-0.3-0.2-0.8,0-1.1l1.9-2.5
					c-0.3-0.6-0.6-1.3-0.8-2l-3.1-0.4c-0.4,0-0.7-0.4-0.8-0.7c-0.1-0.6-0.1-1.2-0.1-1.8v-0.4c0-0.6,0.1-1.2,0.1-1.8
					c0.1-0.4,0.4-0.7,0.8-0.8l3.1-0.4c0.2-0.7,0.5-1.4,0.8-2L24.6,28c-0.2-0.3-0.2-0.8,0-1.1c0.4-0.5,0.8-0.9,1.2-1.4l0.2-0.2
					c0.4-0.4,0.9-0.8,1.4-1.2c0.3-0.3,0.7-0.2,1.1,0L31,26c0.6-0.3,1.3-0.6,2-0.8l0.4-3.1c0.1-0.4,0.4-0.7,0.8-0.8
					c1.4-0.2,2.6-0.2,4,0c0.4,0.1,0.7,0.4,0.8,0.8l0.4,3.1c0.7,0.2,1.4,0.5,2,0.8l2.5-1.9c0.3-0.2,0.7-0.3,1.1,0
					c1.1,0.8,2,1.8,2.8,2.8c0.2,0.3,0.2,0.8,0,1.1l-1.9,2.5c0.3,0.6,0.6,1.3,0.8,2l3.1,0.4c0.4,0,0.7,0.4,0.8,0.7
					c0.1,0.7,0.1,1.4,0.1,2c0,0.6,0,1.3-0.1,2c-0.1,0.4-0.4,0.7-0.8,0.8l-3.1,0.4c-0.2,0.7-0.5,1.4-0.8,2l1.9,2.5
					c0.2,0.3,0.2,0.8,0,1.1c-0.8,1.1-1.7,2-2.8,2.8c-0.2,0.1-0.3,0.2-0.5,0.2l0,0c-0.2,0-0.4-0.1-0.5-0.2l-2.5-1.9
					c-0.6,0.3-1.3,0.6-2,0.8l-0.4,3.1c-0.1,0.4-0.4,0.7-0.7,0.8C37.4,50,36.8,50,36.1,50z M34.7,48.5c0.9,0.1,1.9,0.1,2.8,0l0.4-2.9
					c0.1-0.4,0.4-0.8,0.8-0.9c0.7-0.2,1.4-0.5,2.1-0.9c0.4-0.2,0.9-0.2,1.2,0.1l2.3,1.8c0.7-0.6,1.4-1.3,2-2l-1.8-2.3
					c-0.3-0.3-0.3-0.8-0.1-1.2c0.4-0.6,0.7-1.3,0.9-2.1c0.1-0.4,0.5-0.7,0.9-0.8L49,37c0.1-0.5,0.1-0.9,0.1-1.4c0-0.5,0-0.9-0.1-1.4
					l-2.9-0.4c-0.4-0.1-0.8-0.4-0.9-0.8c-0.2-0.7-0.5-1.4-0.9-2.1c-0.2-0.4-0.2-0.9,0.1-1.2l1.8-2.3c-0.6-0.7-1.3-1.4-2-2l-2.3,1.8
					c-0.3,0.3-0.8,0.3-1.2,0.1c-0.7-0.4-1.3-0.7-2.1-0.9c-0.4-0.1-0.7-0.5-0.8-0.9l-0.4-2.9c-1-0.1-1.9-0.1-2.8,0l-0.4,2.9
					c-0.1,0.4-0.4,0.8-0.8,0.9c-0.7,0.2-1.4,0.5-2.1,0.9c-0.4,0.2-0.9,0.2-1.2-0.1L28,25.5c-0.3,0.3-0.6,0.5-1,0.8l-0.2,0.2
					c-0.3,0.3-0.6,0.6-0.8,0.9l1.8,2.3c0.3,0.3,0.3,0.8,0.1,1.2c-0.4,0.7-0.7,1.3-0.9,2.1c-0.1,0.4-0.5,0.7-0.9,0.8l-2.9,0.4
					c0,0.4-0.1,0.8-0.1,1.2v0.4c0,0.4,0,0.8,0.1,1.2l2.9,0.4c0.4,0.1,0.8,0.4,0.9,0.8c0.2,0.7,0.5,1.4,0.9,2.1
					c0.2,0.4,0.2,0.9-0.1,1.2L26,43.8c0.3,0.3,0.5,0.6,0.8,0.9l0.2,0.2c0.3,0.3,0.6,0.6,0.9,0.8l2.3-1.8c0.3-0.3,0.8-0.3,1.2-0.1
					c0.6,0.4,1.3,0.7,2.1,0.9c0.4,0.1,0.7,0.5,0.8,0.9L34.7,48.5z M36.1,41c-3,0-5.4-2.4-5.4-5.4s2.4-5.4,5.4-5.4s5.4,2.4,5.4,5.4
					S39.1,41,36.1,41z M36.1,31.7c-2.2,0-4,1.8-4,4s1.8,4,4,4c2.2,0,4-1.8,4-4S38.3,31.7,36.1,31.7z"/>
			</g>
			<g>
				<path style="fill:#FFF36E;" d="M36.1,27.8c-4.3,0-7.8,3.5-7.8,7.8c0,4.3,3.5,7.8,7.8,7.8c4.3,0,7.8-3.5,7.8-7.8
					C44,31.3,40.5,27.8,36.1,27.8z M36.1,40.3c-2.6,0-4.7-2.1-4.7-4.7c0-2.6,2.1-4.7,4.7-4.7c2.6,0,4.7,2.1,4.7,4.7
					C40.8,38.2,38.7,40.3,36.1,40.3z"/>
			</g>
			<g>
				<path style="fill:#081F3B;" d="M36.1,41c-3,0-5.4-2.4-5.4-5.4s2.4-5.4,5.4-5.4s5.4,2.4,5.4,5.4S39.1,41,36.1,41z M36.1,31.7
					c-2.2,0-4,1.8-4,4s1.8,4,4,4c2.2,0,4-1.8,4-4S38.3,31.7,36.1,31.7z"/>
			</g>
		</g>
		<g>
			<g>
				<path style="fill:#FFFFFF;" d="M69,20.6c0-0.1-0.1-0.1-0.1-0.1l-2.6-0.3c-0.1,0-0.2-0.1-0.3-0.2c-0.2-0.6-0.4-1.2-0.7-1.7
					c-0.1-0.1-0.1-0.2,0-0.3l1.6-2.1c0-0.1,0-0.1,0-0.2c-0.6-0.8-1.3-1.5-2.1-2.1c-0.1,0-0.1,0-0.2,0l-2.1,1.6
					c-0.1,0.1-0.2,0.1-0.3,0c-0.6-0.3-1.1-0.6-1.7-0.7c-0.1,0-0.2-0.1-0.2-0.3l-0.3-2.6c0-0.1-0.1-0.1-0.1-0.1c-1-0.1-2-0.1-3,0
					c-0.1,0-0.1,0.1-0.1,0.1l-0.3,2.6c0,0.1-0.1,0.2-0.2,0.3c-0.6,0.2-1.2,0.4-1.7,0.7c-0.1,0.1-0.2,0.1-0.3,0L52,13.5
					c-0.1,0-0.1,0-0.2,0c-0.4,0.3-0.7,0.6-1,0.9l-0.2,0.2c-0.3,0.3-0.6,0.7-0.9,1c0,0.1,0,0.1,0,0.2l1.6,2.1c0.1,0.1,0.1,0.2,0,0.3
					c-0.3,0.6-0.6,1.1-0.7,1.7c0,0.1-0.1,0.2-0.3,0.2l-2.6,0.3c-0.1,0-0.1,0.1-0.1,0.1c-0.1,0.4-0.1,0.9-0.1,1.3v0.3
					c0,0.4,0,0.9,0.1,1.3c0,0.1,0.1,0.1,0.1,0.1l2.6,0.3c0.1,0,0.2,0.1,0.3,0.2c0.2,0.6,0.4,1.2,0.7,1.7c0.1,0.1,0.1,0.2,0,0.3
					l-1.6,2.1c0,0.1,0,0.1,0,0.2c0.3,0.4,0.6,0.7,0.9,1l0.2,0.2c0.3,0.3,0.7,0.6,1,0.9c0.1,0,0.1,0,0.2,0l2.1-1.6
					c0.1,0,0.1-0.1,0.2-0.1c0.1,0,0.1,0,0.2,0c0.6,0.3,1.1,0.6,1.7,0.7c0.1,0,0.2,0.1,0.2,0.3l0.3,2.6c0,0.1,0.1,0.1,0.1,0.1
					c1,0.1,2,0.1,3,0c0.1,0,0.1-0.1,0.1-0.1l0.3-2.6c0-0.1,0.1-0.2,0.2-0.3c0.6-0.2,1.2-0.4,1.7-0.7c0.1-0.1,0.2-0.1,0.3,0l2.1,1.6
					c0.1,0,0.1,0,0.2,0c0.8-0.6,1.5-1.3,2.1-2.1c0-0.1,0-0.1,0-0.2l-1.6-2.1c-0.1-0.1-0.1-0.2,0-0.3c0.3-0.5,0.6-1.1,0.7-1.7
					c0-0.1,0.1-0.2,0.3-0.2l2.6-0.3c0.1,0,0.1-0.1,0.1-0.1c0.1-0.5,0.1-1,0.1-1.5C69.1,21.6,69,21.1,69,20.6z M58.3,25.8
					c-2,0-3.7-1.6-3.7-3.7c0-2,1.6-3.7,3.7-3.7c2,0,3.7,1.6,3.7,3.7C62,24.1,60.3,25.8,58.3,25.8z"/>
				<path style="fill:#081F3B;" d="M58.3,33.6c-0.5,0-1,0-1.6-0.1c-0.4-0.1-0.7-0.3-0.7-0.7l-0.3-2.3c-0.5-0.2-1-0.4-1.4-0.6
					l-1.9,1.4c-0.1,0.1-0.4,0.2-0.5,0.2c-0.1,0-0.3,0-0.5-0.2c-0.4-0.3-0.8-0.6-1.1-1l-0.2-0.2c-0.4-0.4-0.7-0.7-1-1.1
					c-0.2-0.3-0.2-0.7,0-1l1.4-1.9c-0.2-0.5-0.4-0.9-0.6-1.4l-2.3-0.3c-0.4,0-0.7-0.3-0.7-0.7c-0.1-0.5-0.1-0.9-0.1-1.4V22
					c0-0.5,0-1,0.1-1.4c0.1-0.4,0.3-0.7,0.7-0.7l2.3-0.3c0.2-0.5,0.4-1,0.6-1.4l-1.4-1.9c-0.2-0.3-0.2-0.7,0-1
					c0.3-0.4,0.6-0.8,1-1.1l0.2-0.2c0.4-0.4,0.7-0.7,1.1-1c0.1-0.1,0.4-0.2,0.5-0.2c0.1,0,0.3,0,0.5,0.2l1.9,1.4
					c0.5-0.2,0.9-0.4,1.4-0.6l0.3-2.3c0.1-0.4,0.3-0.7,0.7-0.7c1.1-0.2,2.1-0.1,3.2,0c0.4,0.1,0.7,0.4,0.7,0.7l0.3,2.3
					c0.5,0.2,1,0.4,1.4,0.6l1.9-1.4c0.1-0.1,0.4-0.2,0.5-0.2c0.2,0,0.4,0.1,0.5,0.2c0.8,0.6,1.6,1.4,2.2,2.2c0.2,0.3,0.2,0.7,0,1
					L66,18.1c0.2,0.5,0.4,0.9,0.6,1.4l2.3,0.3c0.4,0,0.7,0.3,0.7,0.7c0.1,0.5,0.1,1.1,0.1,1.6s0,1-0.1,1.6c-0.1,0.4-0.4,0.7-0.7,0.7
					l-2.3,0.3c-0.2,0.5-0.4,1-0.6,1.4l1.4,1.9c0.2,0.3,0.2,0.7,0,1c-0.6,0.8-1.4,1.6-2.2,2.2c-0.1,0.1-0.4,0.2-0.5,0.2l0,0
					c-0.1,0-0.3,0-0.5-0.2l-1.9-1.4c-0.5,0.2-0.9,0.4-1.4,0.6l-0.3,2.3c-0.1,0.4-0.3,0.7-0.7,0.7C59.3,33.6,58.8,33.6,58.3,33.6z
					 M57.3,32.2c0.7,0.1,1.3,0.1,1.9,0l0.3-2.1c0.1-0.4,0.3-0.7,0.7-0.8c0.6-0.2,1.1-0.4,1.6-0.7c0.3-0.2,0.8-0.2,1.1,0.1l1.7,1.3
					c0.5-0.4,1-0.9,1.4-1.4l-1.3-1.7c-0.2-0.3-0.3-0.8-0.1-1.1c0.3-0.5,0.5-1,0.7-1.6c0.1-0.4,0.4-0.7,0.8-0.7l2.1-0.3
					c0-0.3,0-0.7,0-1c0-0.3,0-0.6,0-1l-2.1-0.3c-0.4-0.1-0.7-0.3-0.8-0.7c-0.2-0.6-0.4-1.1-0.7-1.6c-0.2-0.4-0.2-0.8,0.1-1.1
					l1.3-1.7c-0.4-0.5-0.9-1-1.4-1.4L63,15.7c-0.3,0.2-0.8,0.3-1.1,0.1c-0.5-0.3-1-0.5-1.6-0.7c-0.4-0.1-0.7-0.4-0.7-0.8l-0.3-2.1
					c-0.7-0.1-1.3-0.1-1.9,0L57,14.2c-0.1,0.4-0.3,0.7-0.7,0.8c-0.6,0.2-1.1,0.4-1.6,0.7c-0.3,0.2-0.8,0.2-1.1-0.1l-1.7-1.3
					c-0.2,0.2-0.4,0.4-0.6,0.6l-0.2,0.2c-0.2,0.2-0.4,0.4-0.6,0.6l1.3,1.7c0.2,0.3,0.3,0.8,0.1,1.1c-0.3,0.5-0.5,1-0.7,1.6
					c-0.1,0.4-0.4,0.7-0.8,0.7l-2.1,0.3c0,0.3,0,0.6,0,0.8v0.3c0,0.3,0,0.5,0,0.8l2.1,0.3c0.4,0.1,0.7,0.3,0.8,0.7
					c0.2,0.6,0.4,1.1,0.7,1.6c0.2,0.4,0.2,0.8-0.1,1.1l-1.3,1.7c0.2,0.2,0.4,0.4,0.6,0.6l0.2,0.2c0.2,0.2,0.4,0.4,0.6,0.6l1.7-1.3
					c0.3-0.2,0.8-0.3,1.1-0.1c0.5,0.3,1,0.5,1.6,0.7c0.4,0.1,0.7,0.4,0.7,0.8L57.3,32.2z M58.3,26.5c-2.4,0-4.4-2-4.4-4.4
					c0-2.4,2-4.4,4.4-4.4s4.4,2,4.4,4.4C62.7,24.5,60.7,26.5,58.3,26.5z M58.3,19.2c-1.6,0-3,1.3-3,3c0,1.6,1.3,3,3,3s3-1.3,3-3
					C61.3,20.5,59.9,19.2,58.3,19.2z"/>
			</g>
			<g>
				<path style="fill:#FFF36E;" d="M58.3,16c-3.4,0-6.2,2.8-6.2,6.2c0,3.4,2.8,6.2,6.2,6.2c3.4,0,6.2-2.8,6.2-6.2
					C64.5,18.7,61.7,16,58.3,16z M58.3,25.8c-2,0-3.7-1.6-3.7-3.7c0-2,1.6-3.7,3.7-3.7c2,0,3.7,1.6,3.7,3.7
					C62,24.1,60.3,25.8,58.3,25.8z"/>
			</g>
			<g>
				<path style="fill:#081F3B;" d="M58.3,26.5c-2.4,0-4.4-2-4.4-4.4c0-2.4,2-4.4,4.4-4.4s4.4,2,4.4,4.4
					C62.7,24.5,60.7,26.5,58.3,26.5z M58.3,19.2c-1.6,0-3,1.3-3,3c0,1.6,1.3,3,3,3s3-1.3,3-3C61.3,20.5,59.9,19.2,58.3,19.2z"/>
			</g>
		</g>
	</g>
</g>
</svg>
