<?xml version="1.0" encoding="utf-8"?>
<!-- Generator: Adobe Illustrator 18.0.0, SVG Export Plug-In . SVG Version: 6.00 Build 0)  -->
<!DOCTYPE svg PUBLIC "-//W3C//DTD SVG 1.1//EN" "http://www.w3.org/Graphics/SVG/1.1/DTD/svg11.dtd">
<svg version="1.1" id="Layer_1" xmlns="http://www.w3.org/2000/svg" xmlns:xlink="http://www.w3.org/1999/xlink" x="0px" y="0px"
	 viewBox="0 0 75 75" style="enable-background:new 0 0 75 75;" xml:space="preserve">
<g>
	<g>
		<path style="fill:#67CCE9;" d="M59,39.2c0,9.5-4.6,16.1-11.7,19.9c-0.6,0.3-32.5,1.6-37.7-2.8C4.9,52.3,2,46.6,2,39.2
			c0-15.7,12.8-28.5,28.5-28.5C46.3,10.7,59,23.4,59,39.2z"/>
		<path style="fill:#E4E4E4;" d="M46.2,34.3l-9.3,9.3L20.7,27.4l-18,18c0.1,0.3,0.1,0.6,0.2,0.9c3.2,12.3,14.3,21.4,27.6,21.4
			c8.2,0,15.6-3.5,20.8-9.1c3.2-3.5,5.6-7.7,6.8-12.5L46.2,34.3z"/>
		<polyline style="fill:none;stroke:#081F3B;stroke-width:1.4;stroke-linejoin:round;stroke-miterlimit:10;" points="3,45.1 
			20.7,27.4 51.5,58.2 		"/>
		<polygon style="fill:#FFF36E;" points="35.4,15.6 20.7,15.6 20.7,5.8 35.4,5.8 30.7,10.7 		"/>
		
			<line style="fill:none;stroke:#081F3B;stroke-width:1.4;stroke-linejoin:round;stroke-miterlimit:10;" x1="20.7" y1="27.4" x2="20.7" y2="5.8"/>
		
			<line style="fill:none;stroke:#081F3B;stroke-width:1.4;stroke-linejoin:round;stroke-miterlimit:10;" x1="20.7" y1="32.3" x2="20.7" y2="34.3"/>
		
			<line style="fill:none;stroke:#081F3B;stroke-width:1.4;stroke-linejoin:round;stroke-miterlimit:10;" x1="20.7" y1="36.2" x2="20.7" y2="38.2"/>
		
			<line style="fill:none;stroke:#081F3B;stroke-width:1.4;stroke-linejoin:round;stroke-miterlimit:10;" x1="20.7" y1="40.2" x2="20.7" y2="42.1"/>
		<polygon style="fill:none;stroke:#081F3B;stroke-width:1.4;stroke-linejoin:round;stroke-miterlimit:10;" points="35.4,15.6 
			20.7,15.6 20.7,5.8 35.4,5.8 30.7,10.7 		"/>
	</g>
</g>
</svg>
