<?xml version="1.0" encoding="utf-8"?>
<!-- Generator: Adobe Illustrator 18.0.0, SVG Export Plug-In . SVG Version: 6.00 Build 0)  -->
<!DOCTYPE svg PUBLIC "-//W3C//DTD SVG 1.1//EN" "http://www.w3.org/Graphics/SVG/1.1/DTD/svg11.dtd">
<svg version="1.1" id="Layer_1" xmlns="http://www.w3.org/2000/svg" xmlns:xlink="http://www.w3.org/1999/xlink" x="0px" y="0px"
	 viewBox="0 0 75 75" style="enable-background:new 0 0 75 75;" xml:space="preserve">
<g>
	<g>
		<path style="fill:#E4E4E4;" d="M30.2,61.2c19.5,6.2,27.7-0.8,27.7-0.8V17.5H3v40.3C3,57.8,16.5,56.9,30.2,61.2z"/>
		<polyline style="fill:none;stroke:#081F3B;stroke-width:1.4;stroke-linejoin:round;stroke-miterlimit:10;" points="57.9,60.4 
			57.9,9.7 3,9.7 3,57.8 		"/>
		<g>
			
				<line style="fill:none;stroke:#081F3B;stroke-width:1.4;stroke-linejoin:round;stroke-miterlimit:10;" x1="3" y1="17.5" x2="57.9" y2="17.5"/>
			
				<line style="fill:none;stroke:#081F3B;stroke-width:1.4;stroke-linejoin:round;stroke-miterlimit:10;" x1="5.9" y1="13.6" x2="7.9" y2="13.6"/>
			
				<line style="fill:none;stroke:#081F3B;stroke-width:1.4;stroke-linejoin:round;stroke-miterlimit:10;" x1="9.9" y1="13.6" x2="11.8" y2="13.6"/>
			
				<line style="fill:none;stroke:#081F3B;stroke-width:1.4;stroke-linejoin:round;stroke-miterlimit:10;" x1="13.8" y1="13.6" x2="15.8" y2="13.6"/>
			
				<line style="fill:none;stroke:#081F3B;stroke-width:1.4;stroke-linejoin:round;stroke-miterlimit:10;" x1="18.7" y1="9.7" x2="18.7" y2="17.5"/>
			
				<line style="fill:none;stroke:#081F3B;stroke-width:1.4;stroke-linejoin:round;stroke-miterlimit:10;" x1="21.6" y1="13.6" x2="55" y2="13.6"/>
			<rect x="8.9" y="24.4" style="fill:#FFF36E;" width="9.8" height="9.8"/>
			<rect x="8.9" y="24.4" style="fill:none;stroke:#081F3B;stroke-width:1.4;stroke-miterlimit:10;" width="9.8" height="9.8"/>
			<rect x="41.2" y="38.4" style="fill:#FFFFFF;" width="10.7" height="11.1"/>
			<rect x="41.2" y="38.4" style="fill:none;stroke:#081F3B;stroke-width:1.4;stroke-miterlimit:10;" width="10.7" height="11.1"/>
			<rect x="21.6" y="23.4" style="fill:#67CCE9;" width="31.4" height="11.8"/>
			
				<line style="fill:none;stroke:#081F3B;stroke-width:1.4;stroke-linejoin:round;stroke-miterlimit:10;" x1="7.9" y1="49.9" x2="38" y2="49.9"/>
			
				<line style="fill:none;stroke:#081F3B;stroke-width:1.4;stroke-linejoin:round;stroke-miterlimit:10;" x1="7.9" y1="46" x2="38" y2="46"/>
			
				<line style="fill:none;stroke:#081F3B;stroke-width:1.4;stroke-linejoin:round;stroke-miterlimit:10;" x1="7.9" y1="42.1" x2="38" y2="42.1"/>
			
				<line style="fill:none;stroke:#081F3B;stroke-width:1.4;stroke-linejoin:round;stroke-miterlimit:10;" x1="7.9" y1="38.2" x2="38" y2="38.2"/>
			<g>
				
					<line style="fill:none;stroke:#081F3B;stroke-width:1.4;stroke-linejoin:round;stroke-miterlimit:10;" x1="32.4" y1="29.3" x2="34.4" y2="29.3"/>
			</g>
			<g>
				
					<line style="fill:none;stroke:#081F3B;stroke-width:1.4;stroke-linejoin:round;stroke-miterlimit:10;" x1="36.3" y1="29.3" x2="38.3" y2="29.3"/>
			</g>
			<g>
				
					<line style="fill:none;stroke:#081F3B;stroke-width:1.4;stroke-linejoin:round;stroke-miterlimit:10;" x1="40.3" y1="29.3" x2="42.2" y2="29.3"/>
			</g>
		</g>
	</g>
</g>
</svg>
