<?xml version="1.0" encoding="utf-8"?>
<!-- Generator: Adobe Illustrator 18.0.0, SVG Export Plug-In . SVG Version: 6.00 Build 0)  -->
<!DOCTYPE svg PUBLIC "-//W3C//DTD SVG 1.1//EN" "http://www.w3.org/Graphics/SVG/1.1/DTD/svg11.dtd">
<svg version="1.1" id="shape" xmlns="http://www.w3.org/2000/svg" xmlns:xlink="http://www.w3.org/1999/xlink" x="0px" y="0px"
	 viewBox="0 0 8 184" style="enable-background:new 0 0 8 184;" xml:space="preserve">
<path style="fill:#0A2E3D;" d="M4,181.3c-0.6,0-1-0.4-1-1v-1.5c0-0.6,0.4-1,1-1s1,0.4,1,1v1.5C5,180.9,4.6,181.3,4,181.3z M4,175.2
	c-0.6,0-1-0.4-1-1v-1.5c0-0.6,0.4-1,1-1s1,0.4,1,1v1.5C5,174.8,4.6,175.2,4,175.2z M4,169.1c-0.6,0-1-0.4-1-1v-1.5c0-0.6,0.4-1,1-1
	s1,0.4,1,1v1.5C5,168.6,4.6,169.1,4,169.1z M4,163c-0.6,0-1-0.4-1-1v-1.5c0-0.6,0.4-1,1-1s1,0.4,1,1v1.5C5,162.5,4.6,163,4,163z
	 M4,156.8c-0.6,0-1-0.4-1-1v-1.5c0-0.6,0.4-1,1-1s1,0.4,1,1v1.5C5,156.4,4.6,156.8,4,156.8z M4,150.7c-0.6,0-1-0.4-1-1v-1.5
	c0-0.6,0.4-1,1-1s1,0.4,1,1v1.5C5,150.2,4.6,150.7,4,150.7z M4,144.6c-0.6,0-1-0.4-1-1V142c0-0.6,0.4-1,1-1s1,0.4,1,1v1.5
	C5,144.1,4.6,144.6,4,144.6z M4,138.4c-0.6,0-1-0.4-1-1v-1.5c0-0.6,0.4-1,1-1s1,0.4,1,1v1.5C5,138,4.6,138.4,4,138.4z M4,132.3
	c-0.6,0-1-0.4-1-1v-1.5c0-0.6,0.4-1,1-1s1,0.4,1,1v1.5C5,131.8,4.6,132.3,4,132.3z M4,126.2c-0.6,0-1-0.4-1-1v-1.5c0-0.6,0.4-1,1-1
	s1,0.4,1,1v1.5C5,125.7,4.6,126.2,4,126.2z M4,120c-0.6,0-1-0.4-1-1v-1.5c0-0.6,0.4-1,1-1s1,0.4,1,1v1.5C5,119.6,4.6,120,4,120z
	 M4,113.9c-0.6,0-1-0.4-1-1v-1.5c0-0.6,0.4-1,1-1s1,0.4,1,1v1.5C5,113.5,4.6,113.9,4,113.9z M4,107.8c-0.6,0-1-0.4-1-1v-1.5
	c0-0.6,0.4-1,1-1s1,0.4,1,1v1.5C5,107.3,4.6,107.8,4,107.8z M4,101.6c-0.6,0-1-0.4-1-1v-1.5c0-0.6,0.4-1,1-1s1,0.4,1,1v1.5
	C5,101.2,4.6,101.6,4,101.6z M4,95.5c-0.6,0-1-0.4-1-1V93c0-0.6,0.4-1,1-1s1,0.4,1,1v1.5C5,95.1,4.6,95.5,4,95.5z M4,89.4
	c-0.6,0-1-0.4-1-1v-1.5c0-0.6,0.4-1,1-1s1,0.4,1,1v1.5C5,88.9,4.6,89.4,4,89.4z M4,83.2c-0.6,0-1-0.4-1-1v-1.5c0-0.6,0.4-1,1-1
	s1,0.4,1,1v1.5C5,82.8,4.6,83.2,4,83.2z M4,77.1c-0.6,0-1-0.4-1-1v-1.5c0-0.6,0.4-1,1-1s1,0.4,1,1v1.5C5,76.7,4.6,77.1,4,77.1z
	 M4,71c-0.6,0-1-0.4-1-1v-1.5c0-0.6,0.4-1,1-1s1,0.4,1,1V70C5,70.5,4.6,71,4,71z M4,64.8c-0.6,0-1-0.4-1-1v-1.5c0-0.6,0.4-1,1-1
	s1,0.4,1,1v1.5C5,64.4,4.6,64.8,4,64.8z M4,58.7c-0.6,0-1-0.4-1-1v-1.5c0-0.6,0.4-1,1-1s1,0.4,1,1v1.5C5,58.3,4.6,58.7,4,58.7z
	 M4,52.6c-0.6,0-1-0.4-1-1v-1.5c0-0.6,0.4-1,1-1s1,0.4,1,1v1.5C5,52.1,4.6,52.6,4,52.6z M4,46.5c-0.6,0-1-0.4-1-1v-1.5
	c0-0.6,0.4-1,1-1s1,0.4,1,1v1.5C5,46,4.6,46.5,4,46.5z M4,40.3c-0.6,0-1-0.4-1-1v-1.5c0-0.6,0.4-1,1-1s1,0.4,1,1v1.5
	C5,39.9,4.6,40.3,4,40.3z M4,34.2c-0.6,0-1-0.4-1-1v-1.5c0-0.6,0.4-1,1-1s1,0.4,1,1v1.5C5,33.7,4.6,34.2,4,34.2z M4,28.1
	c-0.6,0-1-0.4-1-1v-1.5c0-0.6,0.4-1,1-1s1,0.4,1,1v1.5C5,27.6,4.6,28.1,4,28.1z M4,21.9c-0.6,0-1-0.4-1-1v-1.5c0-0.6,0.4-1,1-1
	s1,0.4,1,1v1.5C5,21.5,4.6,21.9,4,21.9z M4,15.8c-0.6,0-1-0.4-1-1v-1.5c0-0.6,0.4-1,1-1s1,0.4,1,1v1.5C5,15.3,4.6,15.8,4,15.8z
	 M4,9.7c-0.6,0-1-0.4-1-1V7.1c0-0.6,0.4-1,1-1s1,0.4,1,1v1.5C5,9.2,4.6,9.7,4,9.7z M4,3.5c-0.6,0-1-0.4-1-1V1c0-0.6,0.4-1,1-1
	s1,0.4,1,1v1.5C5,3.1,4.6,3.5,4,3.5z"/>
</svg>
