<?xml version="1.0" encoding="utf-8"?>
<!-- Generator: Adobe Illustrator 18.0.0, SVG Export Plug-In . SVG Version: 6.00 Build 0)  -->
<!DOCTYPE svg PUBLIC "-//W3C//DTD SVG 1.1//EN" "http://www.w3.org/Graphics/SVG/1.1/DTD/svg11.dtd">
<svg version="1.1" id="Layer_1" xmlns="http://www.w3.org/2000/svg" xmlns:xlink="http://www.w3.org/1999/xlink" x="0px" y="0px"
	 viewBox="-2 3 50 42" style="enable-background:new -2 3 50 42;" xml:space="preserve">
<title>Gonto</title>
<path class="shape" fill="#f2461c" d="M42.7,24l4-5.2c0.7-0.9,0-2.3-1.1-2.3h-6.5c-1,0-1.9,0.4-2.5,1.2L33.4,22h-14c-1.1,0-2,0.9-2,2c0,1.1,0.9,2,2,2h6.9
	c-0.9,3-3.6,5.1-6.9,5.1c-3.9,0-7.2-3.2-7.2-7.2s3.2-7.2,7.2-7.2c1.3,0,2.7,0.4,3.8,1.1c0.9,0.6,2.2,0.3,2.8-0.6
	c0.6-0.9,0.3-2.2-0.6-2.8c-1.8-1.1-3.9-1.7-6-1.7c-6.2,0-11.2,5-11.2,11.2s5,11.2,11.2,11.2c5.5,0,10.1-4,11-9.2h2.9l3.2,4.3
	c0.6,0.8,1.5,1.2,2.5,1.2h6.5c1.2,0,1.9-1.4,1.1-2.3L42.7,24z M30.9,35.5c-3.1,3.1-7.2,4.8-11.5,4.8c-5,0-9.6-2.2-12.7-6.1
	C4.3,31.3,3.1,27.7,3.1,24c0-9,7.3-16.3,16.3-16.3c3.8,0,7.3,1.2,10.2,3.6c0.9,0.7,2.2,0.6,2.8-0.3c0.7-0.9,0.6-2.2-0.3-2.8
	C28.6,5.2,24,3.6,19.4,3.6C8.2,3.6-1,12.7-1,24c0,4.6,1.6,9.2,4.5,12.8c3.9,4.8,9.7,7.6,15.9,7.6c5.4,0,10.5-2.1,14.4-5.9
	c0.8-0.8,0.8-2.1,0-2.9C33,34.8,31.7,34.7,30.9,35.5z"/>
</svg>
