<?xml version="1.0" encoding="UTF-8" standalone="no"?>
<svg width="73px" height="73px" viewBox="0 0 73 73" version="1.1" xmlns="http://www.w3.org/2000/svg" xmlns:xlink="http://www.w3.org/1999/xlink">
    <!-- Generator: Sketch 3.6.1 (26313) - http://www.bohemiancoding.com/sketch -->
    <title>services-b2b-icon</title>
    <desc>Created with Sketch.</desc>
    <defs></defs>
    <g id="Page-2" stroke="none" stroke-width="1" fill="none" fill-rule="evenodd">
        <g id="services-b2b-icon">
            <g id="icon">
                <path d="M73,37 C73,16.3416285 56.6585972,0 37,0 C16.3414028,0 0,16.3416285 0,37 C0,56.6583715 16.3414028,73 37,73 C56.6585972,73 73,56.6583715 73,37" id="circle" fill="#FFFFFF"></path>
                <g id="B2B" transform="translate(18.000000, 28.000000)" fill="#000000">
                    <path d="M2.1067,9.6983 L2.1067,14.8423 L5.5287,14.8423 C6.0367,14.8423 6.4637,14.7633 6.8157,14.6073 C7.1657,14.4503 7.4487,14.2493 7.6657,14.0033 C7.8797,13.7583 8.0347,13.4813 8.1227,13.1763 C8.2117,12.8703 8.2567,12.5683 8.2567,12.2703 C8.2567,12.0023 8.2087,11.7193 8.1127,11.4203 C8.0147,11.1223 7.8587,10.8463 7.6417,10.5933 C7.4267,10.3403 7.1497,10.1273 6.8157,9.9553 C6.4797,9.7843 6.0657,9.6983 5.5737,9.6983 L2.1067,9.6983 Z M5.4617,7.8423 C5.9677,7.8423 6.3937,7.7633 6.7377,7.6073 C7.0797,7.4513 7.3547,7.2493 7.5637,7.0043 C7.7727,6.7583 7.9207,6.4893 8.0107,6.1983 C8.1007,5.9073 8.1457,5.6283 8.1457,5.3593 C8.1457,5.0923 8.1007,4.8113 8.0107,4.5213 C7.9207,4.2303 7.7727,3.9623 7.5637,3.7163 C7.3547,3.4693 7.0757,3.2653 6.7257,3.1003 C6.3747,2.9373 5.9387,2.8553 5.4177,2.8553 L2.1067,2.8553 L2.1067,7.8423 L5.4617,7.8423 Z M0.0717,1.0213 L5.4177,1.0213 C6.3567,1.0213 7.1357,1.1553 7.7547,1.4243 C8.3727,1.6923 8.8607,2.0313 9.2177,2.4413 C9.5777,2.8513 9.8257,3.3023 9.9677,3.7943 C10.1107,4.2863 10.1807,4.7563 10.1807,5.2033 C10.1807,5.6803 10.1027,6.1203 9.9467,6.5223 C9.7887,6.9253 9.5797,7.2753 9.3197,7.5743 C9.0577,7.8723 8.7607,8.1223 8.4247,8.3233 C8.0887,8.5243 7.7437,8.6623 7.3857,8.7363 C7.6827,8.7663 8.0027,8.8633 8.3467,9.0273 C8.6887,9.1913 9.0067,9.4273 9.2977,9.7313 C9.5867,10.0383 9.8257,10.4103 10.0127,10.8493 C10.1987,11.2903 10.2927,11.7863 10.2927,12.3373 C10.2927,12.7843 10.2177,13.2613 10.0697,13.7683 C9.9187,14.2753 9.6597,14.7453 9.2867,15.1773 C8.9137,15.6103 8.4137,15.9683 7.7887,16.2513 C7.1617,16.5343 6.3777,16.6763 5.4387,16.6763 L0.0717,16.6763 L0.0717,1.0213 Z" id="Fill-13"></path>
                    <path d="M13.7922,13.5674 C13.9932,12.7324 14.2842,12.0284 14.6652,11.4544 C15.0442,10.8794 15.5072,10.3954 16.0502,10.0004 C16.5952,9.6054 17.2102,9.2284 17.8962,8.8714 C18.2982,8.6774 18.6962,8.4684 19.0932,8.2454 C19.4872,8.0214 19.8452,7.7674 20.1652,7.4844 C20.4852,7.2014 20.7432,6.8694 20.9372,6.4894 C21.1302,6.1094 21.2282,5.6584 21.2282,5.1354 C21.2282,4.3164 20.9782,3.6904 20.4792,3.2574 C19.9792,2.8254 19.3122,2.6094 18.4782,2.6094 C17.6282,2.6094 16.9232,2.8704 16.3642,3.3914 C15.8062,3.9144 15.5242,4.6734 15.5242,5.6724 L13.4892,5.6724 C13.4892,4.9124 13.6242,4.2264 13.8942,3.6154 C14.1612,3.0044 14.5222,2.4904 14.9782,2.0724 C15.4332,1.6554 15.9622,1.3344 16.5652,1.1104 C17.1692,0.8864 17.8132,0.7754 18.4992,0.7754 C19.2002,0.7754 19.8412,0.8764 20.4232,1.0774 C21.0052,1.2784 21.5072,1.5694 21.9332,1.9494 C22.3562,2.3294 22.6852,2.8024 22.9172,3.3694 C23.1472,3.9364 23.2632,4.5854 23.2632,5.3154 C23.2632,6.0464 23.1062,6.6864 22.7942,7.2384 C22.4802,7.7904 22.1052,8.2704 21.6632,8.6804 C21.2242,9.0904 20.7632,9.4334 20.2782,9.7104 C19.7922,9.9854 19.3802,10.2134 19.0362,10.3914 C18.3802,10.7644 17.8432,11.1034 17.4272,11.4094 C17.0092,11.7144 16.6812,12.0354 16.4422,12.3714 C16.2042,12.7064 16.0402,13.0684 15.9502,13.4554 C15.8602,13.8434 15.8152,14.3054 15.8152,14.8414 L23.2632,14.8414 L23.2632,16.6754 L13.4892,16.6754 C13.4892,15.4384 13.5912,14.4024 13.7922,13.5674" id="Fill-15"></path>
                    <path d="M28.8977,9.6983 L28.8977,14.8423 L32.3197,14.8423 C32.8277,14.8423 33.2547,14.7633 33.6067,14.6073 C33.9567,14.4503 34.2397,14.2493 34.4567,14.0033 C34.6707,13.7583 34.8257,13.4813 34.9137,13.1763 C35.0027,12.8703 35.0477,12.5683 35.0477,12.2703 C35.0477,12.0023 34.9997,11.7193 34.9037,11.4203 C34.8057,11.1223 34.6497,10.8463 34.4327,10.5933 C34.2177,10.3403 33.9407,10.1273 33.6067,9.9553 C33.2707,9.7843 32.8567,9.6983 32.3647,9.6983 L28.8977,9.6983 Z M32.2527,7.8423 C32.7587,7.8423 33.1847,7.7633 33.5287,7.6073 C33.8707,7.4513 34.1457,7.2493 34.3547,7.0043 C34.5637,6.7583 34.7117,6.4893 34.8017,6.1983 C34.8917,5.9073 34.9367,5.6283 34.9367,5.3593 C34.9367,5.0923 34.8917,4.8113 34.8017,4.5213 C34.7117,4.2303 34.5637,3.9623 34.3547,3.7163 C34.1457,3.4693 33.8667,3.2653 33.5167,3.1003 C33.1657,2.9373 32.7297,2.8553 32.2087,2.8553 L28.8977,2.8553 L28.8977,7.8423 L32.2527,7.8423 Z M26.8627,1.0213 L32.2087,1.0213 C33.1477,1.0213 33.9267,1.1553 34.5457,1.4243 C35.1637,1.6923 35.6517,2.0313 36.0087,2.4413 C36.3687,2.8513 36.6167,3.3023 36.7587,3.7943 C36.9017,4.2863 36.9717,4.7563 36.9717,5.2033 C36.9717,5.6803 36.8937,6.1203 36.7377,6.5223 C36.5797,6.9253 36.3707,7.2753 36.1107,7.5743 C35.8487,7.8723 35.5517,8.1223 35.2157,8.3233 C34.8797,8.5243 34.5347,8.6623 34.1767,8.7363 C34.4737,8.7663 34.7937,8.8633 35.1377,9.0273 C35.4797,9.1913 35.7977,9.4273 36.0887,9.7313 C36.3777,10.0383 36.6167,10.4103 36.8037,10.8493 C36.9897,11.2903 37.0837,11.7863 37.0837,12.3373 C37.0837,12.7843 37.0087,13.2613 36.8607,13.7683 C36.7097,14.2753 36.4507,14.7453 36.0777,15.1773 C35.7047,15.6103 35.2047,15.9683 34.5797,16.2513 C33.9527,16.5343 33.1687,16.6763 32.2297,16.6763 L26.8627,16.6763 L26.8627,1.0213 Z" id="Fill-17"></path>
                </g>
            </g>
        </g>
    </g>
</svg>